<?xml version="1.0" encoding="UTF-8" standalone="no"?>
<svg
   xmlns:dc="http://purl.org/dc/elements/1.1/"
   xmlns:cc="http://creativecommons.org/ns#"
   xmlns:rdf="http://www.w3.org/1999/02/22-rdf-syntax-ns#"
   xmlns:svg="http://www.w3.org/2000/svg"
   xmlns="http://www.w3.org/2000/svg"
   xmlns:sodipodi="http://sodipodi.sourceforge.net/DTD/sodipodi-0.dtd"
   xmlns:inkscape="http://www.inkscape.org/namespaces/inkscape"
   height="64"
   width="64"
   version="1.1"
   id="svg17"
   sodipodi:docname="6.svg"
   inkscape:version="0.92.4 5da689c313, 2019-01-14">
  <metadata
     id="metadata23">
    <rdf:RDF>
      <cc:Work
         rdf:about="">
        <dc:format>image/svg+xml</dc:format>
        <dc:type
           rdf:resource="http://purl.org/dc/dcmitype/StillImage" />
      </cc:Work>
    </rdf:RDF>
  </metadata>
  <defs
     id="defs21" />
  <sodipodi:namedview
     pagecolor="#ffffff"
     bordercolor="#666666"
     borderopacity="1"
     objecttolerance="10"
     gridtolerance="10"
     guidetolerance="10"
     inkscape:pageopacity="0"
     inkscape:pageshadow="2"
     inkscape:window-width="1366"
     inkscape:window-height="700"
     id="namedview19"
     showgrid="true"
     inkscape:zoom="7.375"
     inkscape:cx="30.616786"
     inkscape:cy="35.146842"
     inkscape:window-x="0"
     inkscape:window-y="0"
     inkscape:window-maximized="1"
     inkscape:current-layer="svg17">
    <inkscape:grid
       type="xygrid"
       id="grid830" />
  </sodipodi:namedview>
  <linearGradient
     id="ab"
     gradientUnits="userSpaceOnUse"
     x1="13.087526"
     x2="51.911057"
     y1="30.512678"
     y2="49.913715">
    <stop
       offset="0"
       stop-color="#00ff7f"
       id="stop2" />
    <stop
       offset="1"
       stop-color="#34be5b"
       id="stop4" />
  </linearGradient>
  <g
     fill="none"
     stroke="url(#ab)"
     stroke-width="1.146742"
     transform="matrix(1.1333333 0 0 1.13396 -4.832529 -4.600157)"
     id="g222"
     style="stroke:url(#ab)">
    <path
       d="m10.000122 50.354526-.000122-19.354526c.000122-1.810242.000122-2.692107 2.647181-2.692107h12.352941c2.647059 0 0-2.645596 2.647059-2.645596h24.705883c2.647059 0 2.647059.881865 2.647059 2.645596v22.046633c0 1.763731 0 2.645596-2.647059 2.645596h-39.705883c-2.647059 0-2.647059-.881865-2.647059-2.645596z"
       id="path7" />
    <path
       d="m10 43.299725h45"
       id="path9" />
    <path
       d="m10 46.827187h45"
       id="path11" />
    <path
       d="m10.882475 28.307893v-9.700519c0-1.76373 0-2.645596 2.647059-2.645596h9.705882c1.764706 0 1.759804.930172 1.764706 2.645596h26.470589c2.647059 0 2.647059.881866 2.647059 2.645596v4.409327"
       id="path13" />
  </g>
</svg>
