<svg xmlns="http://www.w3.org/2000/svg" height="48" width="48">
    <path d="M9.646 43.597c0 1.451 1.458 2.903 2.916 2.903h29.021c1.459 0 2.917-1.452 2.917-2.903V18.919c0-1.451 0-1.451-1.458-2.903L29.917 2.952C29.142 2.37 28.458 1.5 27 1.5H12.417C10.958 1.5 9.5 2.952 9.5 4.403z" fill="#323232" stroke="#323232" stroke-width="1.0"/>
    <g transform="scale(2 2) translate(5 6)">
            <path fill="#FE1919" d="M8 2a6 6 0 0 0-6 6 6 6 0 0 0 6 6 6 6 0 0 0 6-6 6 6 0 0 0-6-6m0 1a5 5 0 0 1 5 5 5 5 0 0 1-5 5 5 5 0 0 1-5-5 5 5 0 0 1 5-5m0 1a4 4 0 0 0-2.559.928l.641.769A3 3 0 0 1 8 5a3 3 0 0 1 3 3h1a4 4 0 0 0-4-4m1 2L7.398 9.203A1 1 0 0 0 7 10a1 1 0 0 0 1 1 1 1 0 0 0 1-1 1 1 0 0 0-.252-.66zm-4.469.018A4 4 0 0 0 4 8h1a3 3 0 0 1 .398-1.486z"/>

    </g>
    <path fill="#FE1919" d="M13 46h28v1H13z"/>
</svg>
