<svg xmlns="http://www.w3.org/2000/svg" height="48" width="48">
    <path d="M9.646 43.597c0 1.451 1.458 2.903 2.916 2.903h29.021c1.459 0 2.917-1.452 2.917-2.903V18.919c0-1.451 0-1.451-1.458-2.903L29.917 2.952C29.142 2.37 28.458 1.5 27 1.5H12.417C10.958 1.5 9.5 2.952 9.5 4.403z" fill="#323232" stroke="#323232" stroke-width="1.0"/>
    <g transform="scale(2 2) translate(5 6)">
            <path fill="#FFC519" d="M7.966 11.72L4.209 7.963l3.757-3.754 1.253 1.25-2.507 2.504 1.253 1.253 3.757-3.757-3.274-3.271a.686.686 0 0 0-.967 0L2.19 7.479a.684.684 0 0 0 0 .97l5.291 5.291a.686.686 0 0 0 .967 0l5.291-5.291a.684.684 0 0 0 0-.97l-.767-.767zm0 0"/>

    </g>
    <path fill="#FFC519" d="M13 46h28v1H13z"/>
</svg>
