<svg xmlns="http://www.w3.org/2000/svg" height="48" width="48">
    <path d="M9.646 43.597c0 1.451 1.458 2.903 2.916 2.903h29.021c1.459 0 2.917-1.452 2.917-2.903V18.919c0-1.451 0-1.451-1.458-2.903L29.917 2.952C29.142 2.37 28.458 1.5 27 1.5H12.417C10.958 1.5 9.5 2.952 9.5 4.403z" fill="#323232" stroke="#323232" stroke-width="1.0"/>
    <g transform="scale(2 2) translate(5 6)">
            <path d="M2.303.53l-.414 2.433-.418-.884-1.206.691a2.176 2.185 0 0 0 .032.096l1.051-.486.64 1.324.49-3.034 1.49-.028a2.176 2.185 0 0 0-.075-.087z" fill="#19FEFE"/>

    </g>
    <path fill="#19FEFE" d="M13 46h28v1H13z"/>
</svg>
