<svg xmlns="http://www.w3.org/2000/svg" height="48" width="48">
    <path d="M9.646 43.597c0 1.451 1.458 2.903 2.916 2.903h29.021c1.459 0 2.917-1.452 2.917-2.903V18.919c0-1.451 0-1.451-1.458-2.903L29.917 2.952C29.142 2.37 28.458 1.5 27 1.5H12.417C10.958 1.5 9.5 2.952 9.5 4.403z" fill="#323232" stroke="#323232" stroke-width="1.0"/>
    <g transform="scale(2 2) translate(5 6)">
            <path fill="#FE8C19" d="M7.38 1.954a.5.5 0 0 0-.345.146.5.5 0 0 0 0 .707l3.205 3.205a4 4 0 0 0-.24-.01H2.5a.5.5 0 0 0-.5.5.5.5 0 0 0 .5.5h4.793L2.147 12.15a.5.5 0 0 0 0 .707.5.5 0 0 0 .707 0l3.164-3.164a4 4 0 0 0-.018.31 4 4 0 0 0 4 4 4 4 0 0 0 4-4 4 4 0 0 0-.96-2.595l.005-.01-.135-.135a4 4 0 0 0-.203-.204L7.742 2.093a.5.5 0 0 0-.361-.146zM10 7.004a3 3 0 0 1 1.996.764l.227.227a3 3 0 0 1 .777 2.01 3 3 0 0 1-3 3 3 3 0 0 1-3-3 3 3 0 0 1 3-3m0 2a1 1 0 0 0-1 1 1 1 0 0 0 1 1 1 1 0 0 0 1-1 1 1 0 0 0-1-1"/>

    </g>
    <path fill="#FE8C19" d="M13 46h28v1H13z"/>
</svg>
