<svg xmlns="http://www.w3.org/2000/svg" height="48" width="48">
    <path d="M9.646 43.597c0 1.451 1.458 2.903 2.916 2.903h29.021c1.459 0 2.917-1.452 2.917-2.903V18.919c0-1.451 0-1.451-1.458-2.903L29.917 2.952C29.142 2.37 28.458 1.5 27 1.5H12.417C10.958 1.5 9.5 2.952 9.5 4.403z" fill="#323232" stroke="#323232" stroke-width="1.0"/>
    <g transform="scale(2 2) translate(5 6)">
            <g fill="#19C5FF">
        <path d="M8.364 3.323a.383.383 0 0 1-.385.382.383.383 0 0 1-.384-.382v-.942a.384.384 0 0 1 .769 0zM8.305 9.985a.316.316 0 0 1-.317.314H7.97a.316.316 0 0 1-.318-.314V8.966c0-.174.143-.317.318-.317h.017c.175 0 .317.141.317.317z"/>
        <path d="M11.981 12.982a.454.454 0 0 0 .087-.508L8.883 5.72c-.002-.018-.002-.037-.002-.057 0-.066.024-.127.064-.175.38-.286.624-.739.624-1.249a1.57 1.57 0 0 0-1.574-1.565c-.885 0-1.575.7-1.575 1.565 0 .51.244.963.623 1.249.04.048.065.108.065.175 0 .02 0 .04-.002.058L3.92 12.473a.452.452 0 0 0 .087.508l-.502 1.02.793-.86a.46.46 0 0 0 .532-.247L7.868 6.46a.152.152 0 0 1 .12-.058h.015c.049 0 .091.024.118.058l3.037 6.436a.457.457 0 0 0 .53.248l.794.86zM7.995 5.141a.9.9 0 1 1 0-1.8c.5 0 .904.402.904.9 0 .497-.404.9-.904.9"/>
        <path d="M11.445 9.506a.206.206 0 0 1-.207.205H4.72a.207.207 0 0 1-.207-.205v-.002c0-.114.093-.205.207-.205h6.518a.208.208 0 0 1 .207.207"/>
    </g>

    </g>
    <path fill="#19C5FF" d="M13 46h28v1H13z"/>
</svg>
