<svg xmlns="http://www.w3.org/2000/svg" height="48" width="48">
    <path d="M9.646 43.597c0 1.451 1.458 2.903 2.916 2.903h29.021c1.459 0 2.917-1.452 2.917-2.903V18.919c0-1.451 0-1.451-1.458-2.903L29.917 2.952C29.142 2.37 28.458 1.5 27 1.5H12.417C10.958 1.5 9.5 2.952 9.5 4.403z" fill="#323232" stroke="#323232" stroke-width="1.0"/>
    <g transform="scale(2 2) translate(5 6)">
            <path fill="#FE1919" d="M12.299 4.46l-2.991.492c.043 1.86-1.94 3.153-3.8-.352l-3.519.493c.548 1.895 2.514 2.128 3.825 3.124-.656.935-3.634.372-3.555 3.289l2.991-.493c-.043-1.86 3.408-3.426 5.269.078l3.519-.493c-.549-1.899-2.638-2.08-3.95-3.083.65-1.358 2.8-.137 2.211-3.057"/>

    </g>
    <path fill="#FE1919" d="M13 46h28v1H13z"/>
</svg>
