<svg xmlns="http://www.w3.org/2000/svg" height="48" width="48">
    <path d="M9.646 43.597c0 1.451 1.458 2.903 2.916 2.903h29.021c1.459 0 2.917-1.452 2.917-2.903V18.919c0-1.451 0-1.451-1.458-2.903L29.917 2.952C29.142 2.37 28.458 1.5 27 1.5H12.417C10.958 1.5 9.5 2.952 9.5 4.403z" fill="#323232" stroke="#323232" stroke-width="1.0"/>
    <g transform="scale(2 2) translate(5 6)">
            <path fill="#C5FE19" d="M2.498 1.988a.5.5 0 0 0-.348.858l1.278 1.277A6 6 0 0 0 2 8v6h12V8a6 6 0 0 0-1.418-3.875l1.279-1.279a.5.5 0 0 0-.363-.858.5.5 0 0 0-.344.15L11.87 3.425A6 6 0 0 0 8 2a6 6 0 0 0-3.87 1.412L2.858 2.14a.5.5 0 0 0-.359-.15M8 3a5 5 0 0 1 5 5H3a5 5 0 0 1 5-5M6 5a1 1 0 0 0-1 1 1 1 0 0 0 1 1 1 1 0 0 0 1-1 1 1 0 0 0-1-1m4 0a1 1 0 0 0-1 1 1 1 0 0 0 1 1 1 1 0 0 0 1-1 1 1 0 0 0-1-1M3 9h4v1h1v1h1V9h4v4H3zm5 2H7v1h1z"/>

    </g>
    <path fill="#C5FE19" d="M13 46h28v1H13z"/>
</svg>
