<svg xmlns="http://www.w3.org/2000/svg" height="48" width="48">
    <path d="M9.646 43.597c0 1.451 1.458 2.903 2.916 2.903h29.021c1.459 0 2.917-1.452 2.917-2.903V18.919c0-1.451 0-1.451-1.458-2.903L29.917 2.952C29.142 2.37 28.458 1.5 27 1.5H12.417C10.958 1.5 9.5 2.952 9.5 4.403z" fill="#323232" stroke="#323232" stroke-width="1.0"/>
    <g transform="scale(2 2) translate(5 6)">
            <path color="#807F7F" d="M13.996 3.654l-7 .004-2.441 6.691L3 7.654H2v1h.428l2.133 3.693 3.02-7.693h6.42zm-4 2c-1.662 0-3 1.338-3 3a2.993 2.993 0 0 0 5 2.225v.775h1v-6h-1v.775a2.98 2.98 0 0 0-2-.775m0 1c1.108 0 2 .892 2 2s-.892 2-2 2-2-.892-2-2 .892-2 2-2" fill="#807F7F"/>

    </g>
    <path fill="#807F7F" d="M13 46h28v1H13z"/>
</svg>
