<svg xmlns="http://www.w3.org/2000/svg" height="48" width="48">
    <path d="M9.646 43.597c0 1.451 1.458 2.903 2.916 2.903h29.021c1.459 0 2.917-1.452 2.917-2.903V18.919c0-1.451 0-1.451-1.458-2.903L29.917 2.952C29.142 2.37 28.458 1.5 27 1.5H12.417C10.958 1.5 9.5 2.952 9.5 4.403z" fill="#323232" stroke="#323232" stroke-width="1.0"/>
    <g transform="scale(2 2) translate(5 6)">
            <g fill="#807F7F">
        <path d="M2 2v12h12V2zm1 3h10v8c-3.551-.037-6.45-.077-10 0z"/>
        <path d="M8.338 10.19L7.306 9.17l.012-.012a7.109 7.109 0 0 0 1.507-2.652h1.19v-.813H7.172v-.812H6.36v.812H3.517v.808h4.537a6.38 6.38 0 0 1-1.288 2.177 6.294 6.294 0 0 1-.938-1.361h-.812a7.131 7.131 0 0 0 1.211 1.852l-2.068 2.039.577.577 2.031-2.031 1.263 1.263zm2.287-2.06h-.812l-1.828 4.875h.812l.455-1.219h1.93l.459 1.219h.812zm-1.064 2.843l.658-1.759.658 1.759z"/>
    </g>

    </g>
    <path fill="#807F7F" d="M13 46h28v1H13z"/>
</svg>
