<svg xmlns="http://www.w3.org/2000/svg" height="48" width="48">
    <path d="M9.646 43.597c0 1.451 1.458 2.903 2.916 2.903h29.021c1.459 0 2.917-1.452 2.917-2.903V18.919c0-1.451 0-1.451-1.458-2.903L29.917 2.952C29.142 2.37 28.458 1.5 27 1.5H12.417C10.958 1.5 9.5 2.952 9.5 4.403z" fill="#323232" stroke="#323232" stroke-width="1.0"/>
    <g transform="scale(2 2) translate(5 6)">
            <path fill="#807F7F" color="#807F7F" d="M6 2v2h1V2zm3 0v2h1V2zm3.877.994L11.984 4.5l.875.5.893-1.537zm-9.764.068l-.844.5.926 1.506.844-.5zM4 5L2 7l6 7 6-7-2-2zm.438 1h3.063v1H3.438zm4.063 0h3.063l1 1H8.501zM4.157 8h3.344v3.887zm4.344 0h3.344l-3.344 3.887z"/>

    </g>
    <path fill="#807F7F" d="M13 46h28v1H13z"/>
</svg>
