<svg xmlns="http://www.w3.org/2000/svg" height="48" width="48">
    <path d="M9.646 43.597c0 1.451 1.458 2.903 2.916 2.903h29.021c1.459 0 2.917-1.452 2.917-2.903V18.919c0-1.451 0-1.451-1.458-2.903L29.917 2.952C29.142 2.37 28.458 1.5 27 1.5H12.417C10.958 1.5 9.5 2.952 9.5 4.403z" fill="#323232" stroke="#323232" stroke-width="1.0"/>
    <g transform="scale(2 2) translate(5 6)">
            <path fill="#FF19C5" d="M6.751 12.58c-.979 0-1.646-.489-1.468-1.735.222-1.557 1.157-2.069 4.115-2.491.022 0 .934-.156.934-.156l-.378 2.758c-.801 1-2.246 1.623-3.203 1.623m3.047-.133l.044 1.29h1.268l1.157-8.341c.356-2.535-1.09-3.27-3.114-3.27-1.446 0-2.869.423-3.714.912l.245 1.379a7.949 7.949 0 0 1 3.292-.756c1.401 0 1.913.689 1.735 2.024l-.2 1.268-1.045.133c-2.691.423-5.316.845-5.738 3.825-.311 2.135.956 3.092 2.647 3.092 1.068 0 2.38-.4 3.425-1.557"/>

    </g>
    <path fill="#FF19C5" d="M13 46h28v1H13z"/>
</svg>
