<svg xmlns="http://www.w3.org/2000/svg" height="48" width="48">
    <path d="M9.646 43.597c0 1.451 1.458 2.903 2.916 2.903h29.021c1.459 0 2.917-1.452 2.917-2.903V18.919c0-1.451 0-1.451-1.458-2.903L29.917 2.952C29.142 2.37 28.458 1.5 27 1.5H12.417C10.958 1.5 9.5 2.952 9.5 4.403z" fill="#323232" stroke="#323232" stroke-width="1.0"/>
    <g transform="scale(2 2) translate(5 6)">
            <g fill="#19FE8C">
        <path d="M10.06 1.988a3.938 3.938 0 0 0-3.939 3.936c0 .591.134 1.15.367 1.652l-.674.797-.059.748c-.006.005-.734.027-.734.027l-.375.271s.003.816 0 .805v.002l-.803.014-.338.387-.008.732s-.692-.045-.762.02v.002c-.442.407-.74.697-.74.697l.002 1.918.633-.004h-.26L7.474 8.89c.307.267.662.474 1.041.637.476.205.993.334 1.545.334a3.938 3.938 0 1 0 0-7.874m.752 1.877a1.313 1.313 0 1 1 0 2.625 1.313 1.313 0 0 1 0-2.625"/>
        <path opacity=".525" d="M10.814 3.865a1.313 1.313 0 1 0-.001 2.627 1.313 1.313 0 0 0 .001-2.627m0 .75a.563.563 0 1 1 0 1.126.563.563 0 0 1 0-1.126M7.476 8.89l-5.104 5.102h1.877l4.453-4.377a3.962 3.962 0 0 1-1.227-.725"/>
    </g>

    </g>
    <path fill="#19FE8C" d="M13 46h28v1H13z"/>
</svg>
