<svg xmlns="http://www.w3.org/2000/svg" height="48" width="48">
    <path d="M9.646 43.597c0 1.451 1.458 2.903 2.916 2.903h29.021c1.459 0 2.917-1.452 2.917-2.903V18.919c0-1.451 0-1.451-1.458-2.903L29.917 2.952C29.142 2.37 28.458 1.5 27 1.5H12.417C10.958 1.5 9.5 2.952 9.5 4.403z" fill="#323232" stroke="#323232" stroke-width="1.0"/>
    <g transform="scale(2 2) translate(5 6)">
            <path fill="#807F7F" d="M8.488 10.16L7.102 8.79l.016-.016a9.56 9.56 0 0 0 2.024-3.563h1.599V4.12H6.922V3.029H5.831V4.12H2.012v1.086h6.095a8.579 8.579 0 0 1-1.73 2.925 8.528 8.528 0 0 1-1.26-1.828H4.026c.398.889.944 1.73 1.626 2.488L2.875 11.53l.775.775 2.728-2.728 1.697 1.697zm3.072-2.766h-1.091l-2.455 6.547h1.091l.611-1.637h2.592l.617 1.637h1.091zm-1.43 3.819l.884-2.362.884 2.362z"/>

    </g>
    <path fill="#807F7F" d="M13 46h28v1H13z"/>
</svg>
