<svg xmlns="http://www.w3.org/2000/svg" height="48" width="48">
    <path d="M9.646 43.597c0 1.451 1.458 2.903 2.916 2.903h29.021c1.459 0 2.917-1.452 2.917-2.903V18.919c0-1.451 0-1.451-1.458-2.903L29.917 2.952C29.142 2.37 28.458 1.5 27 1.5H12.417C10.958 1.5 9.5 2.952 9.5 4.403z" fill="#323232" stroke="#323232" stroke-width="1.0"/>
    <g transform="scale(2 2) translate(5 6)">
            <path fill="#FF19C5" color="#807F7F" d="M9.09 2L5.944 13.74l.967.26 3.146-11.74zM5.285 4L2.324 7.145 2 7.493l.324.346 2.943 3.162.715-.695-2.621-2.813L6 4.696zm5.43 0L10 4.695l2.639 2.797-2.621 2.813.715.695 2.943-3.162.324-.346-.324-.348z"/>

    </g>
    <path fill="#807F7F" d="M13 46h28v1H13z"/>
</svg>
