<svg xmlns="http://www.w3.org/2000/svg" height="48" width="48">
    <path d="M9.646 43.597c0 1.451 1.458 2.903 2.916 2.903h29.021c1.459 0 2.917-1.452 2.917-2.903V18.919c0-1.451 0-1.451-1.458-2.903L29.917 2.952C29.142 2.37 28.458 1.5 27 1.5H12.417C10.958 1.5 9.5 2.952 9.5 4.403z" fill="#323232" stroke="#323232" stroke-width="1.0"/>
    <g transform="scale(2 2) translate(5 6)">
            <path d="M6.977 2v1.125c-.882.078-1.578.291-2.093.688-.568.432-.85 1.072-.85 1.906 0 1.165.73 1.921 2.224 2.281l.72.188v3.688c-.929-.079-1.799-.273-2.617-.656l-.36.906c.333.195.787.379 1.341.531.487.129 1.035.186 1.636.219v1.125h1.047v-1.125c.89-.068 1.605-.327 2.126-.781.559-.483.85-1.183.85-2.094 0-.737-.209-1.289-.621-1.687-.412-.403-1.033-.693-1.832-.875l-.523-.125v-3.25c.404.029.824.083 1.21.188.444.114.776.262 1.047.406l.327-.906c-.67-.399-1.529-.637-2.584-.688V2.001H7.24zm-.229 2.094c.069-.011.156.008.229 0v2.969L6.683 7c-.492-.114-.864-.284-1.112-.5-.244-.22-.36-.515-.36-.875 0-.856.505-1.366 1.537-1.531m1.276 4.313l.196.063c.603.144 1.017.34 1.243.594.231.25.327.593.327 1 0 1.133-.589 1.735-1.766 1.844z"/>

    </g>
    <path fill="#323232" d="M13 46h28v1H13z"/>
</svg>
