<svg xmlns="http://www.w3.org/2000/svg" height="48" width="48">
    <path d="M9.646 43.597c0 1.451 1.458 2.903 2.916 2.903h29.021c1.459 0 2.917-1.452 2.917-2.903V18.919c0-1.451 0-1.451-1.458-2.903L29.917 2.952C29.142 2.37 28.458 1.5 27 1.5H12.417C10.958 1.5 9.5 2.952 9.5 4.403z" fill="#323232" stroke="#323232" stroke-width="1.0"/>
    <g transform="scale(2 2) translate(5 6)">
            <path fill="#FE8C19" color="#807F7F" d="M2 2v2c5.523 0 10 4.477 10 10h2v-.063c0-.391-.026-.775-.063-1.156-.002-.021.002-.042 0-.063a11.888 11.888 0 0 0-.188-1.125c-.004-.02.004-.043 0-.063a11.755 11.755 0 0 0-1.188-3.25c-.004-.008.004-.024 0-.031a11.94 11.94 0 0 0-8.094-6c-.02-.004-.043.004-.063 0a11.942 11.942 0 0 0-1.125-.188c-.021-.002-.042.002-.063 0-.383-.039-.764-.06-1.156-.063h-.063m0 4v2a6 6 0 0 1 6 6h2a8 8 0 0 0-8-8m2 4a2 2 0 1 0-.001 3.999 2 2 0 0 0 .001-3.999"/>

    </g>
    <path fill="#807F7F" d="M13 46h28v1H13z"/>
</svg>
