<svg xmlns="http://www.w3.org/2000/svg" height="48" width="48">
    <path d="M9.646 43.597c0 1.451 1.458 2.903 2.916 2.903h29.021c1.459 0 2.917-1.452 2.917-2.903V18.919c0-1.451 0-1.451-1.458-2.903L29.917 2.952C29.142 2.37 28.458 1.5 27 1.5H12.417C10.958 1.5 9.5 2.952 9.5 4.403z" fill="#323232" stroke="#323232" stroke-width="1.0"/>
    <g transform="scale(2 2) translate(5 6)">
            <g fill="#807F7F">
        <path d="M2 2v12h12V2zm1 3h10v8c-3.551-.037-6.45-.077-10 0z"/>
        <path d="M8 6c-.556 0-1.074.17-1.44.49-.365.32-.56.774-.56 1.26h1.143c0-.264.091-.435.225-.553C7.503 7.079 7.698 7 8 7s.497.08.632.197c.135.118.225.289.225.553 0 .229-.052.327-.121.413-.298.263-.658.488-.948.703-.327.215-.646.496-.646.884V10h1.143v-.25c.406-.364 1.011-.681 1.388-1.015.199-.25.326-.59.326-.985 0-.486-.195-.94-.56-1.26-.365-.32-.884-.49-1.44-.49m-.857 5v1h1.143v-1z"/>
    </g>

    </g>
    <path fill="#807F7F" d="M13 46h28v1H13z"/>
</svg>
