<svg xmlns="http://www.w3.org/2000/svg" height="48" width="48">
    <path d="M9.646 43.597c0 1.451 1.458 2.903 2.916 2.903h29.021c1.459 0 2.917-1.452 2.917-2.903V18.919c0-1.451 0-1.451-1.458-2.903L29.917 2.952C29.142 2.37 28.458 1.5 27 1.5H12.417C10.958 1.5 9.5 2.952 9.5 4.403z" fill="#323232" stroke="#323232" stroke-width="1.0"/>
    <g transform="scale(2 2) translate(5 6)">
            <path fill="#FF19C5" color="#807F7F" d="M5 2a1 1 0 0 0-1 1 1 1 0 0 0 1 1 1 1 0 0 0 1-1 1 1 0 0 0-1-1m5 0L8.06 3.563l2.596 3.218-2.437 2.438L10 11l4-4zM3.5 6A1.5 1.5 0 0 0 2 7.5 1.5 1.5 0 0 0 3.5 9 1.5 1.5 0 0 0 5 7.5 1.5 1.5 0 0 0 3.5 6m3 5A1.5 1.5 0 0 0 5 12.5 1.5 1.5 0 0 0 6.5 14 1.5 1.5 0 0 0 8 12.5 1.5 1.5 0 0 0 6.5 11"/>

    </g>
    <path fill="#807F7F" d="M13 46h28v1H13z"/>
</svg>
