<svg xmlns="http://www.w3.org/2000/svg" height="48" width="48">
    <path d="M9.646 43.597c0 1.451 1.458 2.903 2.916 2.903h29.021c1.459 0 2.917-1.452 2.917-2.903V18.919c0-1.451 0-1.451-1.458-2.903L29.917 2.952C29.142 2.37 28.458 1.5 27 1.5H12.417C10.958 1.5 9.5 2.952 9.5 4.403z" fill="#323232" stroke="#323232" stroke-width="1.0"/>
    <g transform="scale(2 2) translate(5 6)">
            <path fill="#FE8C19" d="M7 2v3h1V2zM5 3v2h1V3zm4 0v2h1V3zM3 4v1h1V4zM2 6v4c0 1.813 1.01 3 3 3H3v1h8v-1H9c1.572 0 2.507-.727 3-2h1c1 0 1-.003 1-1.094V8.812c0-1.818 0-1.813-1-1.813h-1v-1zm1 1h8v3c0 1.511-1.338 2-3 2H6c-1.662 0-3-.489-3-2zm9 1h1v2h-1z"/>

    </g>
    <path fill="#FE8C19" d="M13 46h28v1H13z"/>
</svg>
