<svg xmlns="http://www.w3.org/2000/svg" height="48" width="48">
    <path d="M9.646 43.597c0 1.451 1.458 2.903 2.916 2.903h29.021c1.459 0 2.917-1.452 2.917-2.903V18.919c0-1.451 0-1.451-1.458-2.903L29.917 2.952C29.142 2.37 28.458 1.5 27 1.5H12.417C10.958 1.5 9.5 2.952 9.5 4.403z" fill="#323232" stroke="#323232" stroke-width="1.0"/>
    <g transform="scale(2 2) translate(5 6)">
            <path fill="#807F7F" d="M3.897 10.662c-.128.23-.23.576-.23.794 0 .05 0 .115.013.204l-1.6-2.75a.713.713 0 0 1-.089-.333c0-.115.038-.256.09-.345l.767-1.344-.857-.486 2.79-.052 1.356 2.444-.87-.499-1.37 2.368m1.229-7.755a1.25 1.25 0 0 1 1.126-.653c.524 0 .934.244 1.228.742l.435.73-1.51 2.61-2.444-1.42 1.165-2.009m.178 9.968c-.729 0-1.33-.602-1.33-1.331 0-.205.09-.55.218-.768l.409-.73h3.033v2.829h-2.33M7.736 2.83a1.569 1.569 0 0 0-.755-.691h3.148c.282 0 .499.115.627.333l.78 1.33.845-.499-1.357 2.432-2.776-.039.857-.486-1.37-2.38m4.85 7.242c.384 0 .704-.103.972-.307l-1.587 2.763a.709.709 0 0 1-.626.346H9.846v.985l-1.432-2.393 1.432-2.393v.999h2.74m1.227-2.304c.116.205.18.422.18.653 0 .46-.295.947-.704 1.177a1.61 1.61 0 0 1-.73.167h-.844l-1.51-2.61L12.65 5.76l1.164 2.01"/>

    </g>
    <path fill="#807F7F" d="M13 46h28v1H13z"/>
</svg>
