<svg xmlns="http://www.w3.org/2000/svg" height="48" width="48">
    <path d="M9.646 43.597c0 1.451 1.458 2.903 2.916 2.903h29.021c1.459 0 2.917-1.452 2.917-2.903V18.919c0-1.451 0-1.451-1.458-2.903L29.917 2.952C29.142 2.37 28.458 1.5 27 1.5H12.417C10.958 1.5 9.5 2.952 9.5 4.403z" fill="#323232" stroke="#323232" stroke-width="1.0"/>
    <g transform="scale(2 2) translate(5 6)">
            <path fill="#FE8C19" color="#807F7F" d="M7.5 2v1.125c-.843.078-1.507.291-2 .688-.542.432-.813 1.072-.813 1.906 0 1.165.697 1.921 2.125 2.281l.688.188v3.688c-.887-.079-1.719-.273-2.5-.656l-.344.906c.318.195.752.379 1.281.531.465.129.988.186 1.563.219v1.125h1v-1.125c.85-.068 1.533-.327 2.031-.781.534-.483.812-1.183.813-2.094 0-.737-.2-1.289-.594-1.688-.394-.403-.987-.693-1.75-.875l-.5-.125v-3.25c.386.029.787.083 1.156.188.424.114.742.262 1 .406l.313-.906c-.64-.399-1.461-.637-2.469-.688V2h-.75zm-.219 2.094c.065-.011.149.008.219 0v2.969L7.219 7c-.47-.114-.825-.284-1.063-.5-.233-.22-.344-.515-.344-.875 0-.856.483-1.366 1.469-1.531M8.5 8.407l.188.063c.576.144.971.34 1.188.594.22.25.312.593.313 1 0 1.133-.563 1.735-1.688 1.844z"/>

    </g>
    <path fill="#807F7F" d="M13 46h28v1H13z"/>
</svg>
