<svg xmlns="http://www.w3.org/2000/svg" height="48" width="48">
    <path d="M9.646 43.597c0 1.451 1.458 2.903 2.916 2.903h29.021c1.459 0 2.917-1.452 2.917-2.903V18.919c0-1.451 0-1.451-1.458-2.903L29.917 2.952C29.142 2.37 28.458 1.5 27 1.5H12.417C10.958 1.5 9.5 2.952 9.5 4.403z" fill="#323232" stroke="#323232" stroke-width="1.0"/>
    <g transform="scale(2 2) translate(5 6)">
            <path fill="#FF19C5" d="M8 2a6 2 0 0 0-6 2v4a6 2 0 0 0 5 1.97V12H5v-1H2v3h3v-1h6v1h3v-3h-3v1H9V9.971A6 2 0 0 0 14 8V4a6 2 0 0 0-6-2m0 1a5 1 0 0 1 5 1 5 1 0 0 1-5 1 5 1 0 0 1-5-1 5 1 0 0 1 5-1M3 5.102A6 2 0 0 0 8 6a6 2 0 0 0 5-.896V8a5 1 0 0 1-5 1 5 1 0 0 1-5-1V6.896zM3 12h1v1H3zm9 0h1v1h-1z"/>

    </g>
    <path fill="#FF19C5" d="M13 46h28v1H13z"/>
</svg>
