<svg xmlns="http://www.w3.org/2000/svg" height="48" width="48">
    <path d="M9.646 43.597c0 1.451 1.458 2.903 2.916 2.903h29.021c1.459 0 2.917-1.452 2.917-2.903V18.919c0-1.451 0-1.451-1.458-2.903L29.917 2.952C29.142 2.37 28.458 1.5 27 1.5H12.417C10.958 1.5 9.5 2.952 9.5 4.403z" fill="#323232" stroke="#323232" stroke-width="1.0"/>
    <g transform="scale(2 2) translate(5 6)">
            <path d="M3 2v4H2v7c0 .554.448.958 1 1h11V7c0-.554-.446-1-1-1h-2V2zm1 1h6v3H9a2.515 2.515 0 0 0-2-1c-.786 0-1.528.371-2 1H4zM3 7h10v1H8c-1.108 0-2 .892-2 2s.892 2 2 2h5v1H3zm6 2a1 1 0 1 1 0 2 1 1 0 0 1 0-2z" color="#807F7F" fill="#19C5FF"/>

    </g>
    <path fill="#19C5FF" d="M13 46h28v1H13z"/>
</svg>
