<svg xmlns="http://www.w3.org/2000/svg" height="48" width="48">
    <path d="M9.646 43.597c0 1.451 1.458 2.903 2.916 2.903h29.021c1.459 0 2.917-1.452 2.917-2.903V18.919c0-1.451 0-1.451-1.458-2.903L29.917 2.952C29.142 2.37 28.458 1.5 27 1.5H12.417C10.958 1.5 9.5 2.952 9.5 4.403z" fill="#323232" stroke="#323232" stroke-width="1.0"/>
    <g transform="scale(2 2) translate(5 6)">
            <path fill="#FE1952" d="M3 2v4H2v6h3v2h6v-2h3V6h-1V2zm1 1h8v3h-1V5H5v1H4zm1 0v1h6V3zM3 7h10v4h-1v-1H4v1H3zm7 1v1h2V8zm-4 4h4v1H6z"/>

    </g>
    <path fill="#FE1952" d="M13 46h28v1H13z"/>
</svg>
