<svg xmlns="http://www.w3.org/2000/svg" height="48" width="48">
    <path d="M9.646 43.597c0 1.451 1.458 2.903 2.916 2.903h29.021c1.459 0 2.917-1.452 2.917-2.903V18.919c0-1.451 0-1.451-1.458-2.903L29.917 2.952C29.142 2.37 28.458 1.5 27 1.5H12.417C10.958 1.5 9.5 2.952 9.5 4.403z" fill="#323232" stroke="#323232" stroke-width="1.0"/>
    <g transform="scale(2 2) translate(5 6)">
            <path fill="#19FEC5" color="#807F7F" d="M7.5 3a5.5 5.5 0 1 0 0 11 5.5 5.5 0 1 0 0-11m0 1C9.985 4 12 6.01 12 8.5c0 2.485-2.01 4.5-4.5 4.5C5.015 13 3 10.99 3 8.5 3 6.015 5.01 4 7.5 4M7 5v1h1V5zm0 2v5h1V7z"/>

    </g>
    <path fill="#807F7F" d="M13 46h28v1H13z"/>
</svg>
