<svg xmlns="http://www.w3.org/2000/svg" height="48" width="48">
    <path d="M9.646 43.597c0 1.451 1.458 2.903 2.916 2.903h29.021c1.459 0 2.917-1.452 2.917-2.903V18.919c0-1.451 0-1.451-1.458-2.903L29.917 2.952C29.142 2.37 28.458 1.5 27 1.5H12.417C10.958 1.5 9.5 2.952 9.5 4.403z" fill="#323232" stroke="#323232" stroke-width="1.0"/>
    <g transform="scale(2 2) translate(5 6)">
            <g fill="#FE8C19" color="#807F7F">
        <path d="M2 2v12h12V2h-2v2h-2V2H6v2H4V2zm1 3h10v8H3z"/>
        <path d="M7 9v3h1v-1h3v1h1V9h-1v1H8V9zM4 6v3h1V8h4v1h1V6H9v1H5V6z"/>
    </g>

    </g>
    <path fill="#807F7F" d="M13 46h28v1H13z"/>
</svg>
