<svg xmlns="http://www.w3.org/2000/svg" height="48" width="48">
    <path d="M9.646 43.597c0 1.451 1.458 2.903 2.916 2.903h29.021c1.459 0 2.917-1.452 2.917-2.903V18.919c0-1.451 0-1.451-1.458-2.903L29.917 2.952C29.142 2.37 28.458 1.5 27 1.5H12.417C10.958 1.5 9.5 2.952 9.5 4.403z" fill="#323232" stroke="#323232" stroke-width="1.0"/>
    <g transform="scale(2 2) translate(5 6)">
            <path opacity=".75" fill="#1952FE" d="M3.5 14c-.554 0-1-.446-1-1V3.001c0-.554.446-1 1-1h9c.554 0 1 .446 1 1v10c0 .553-.446 1-1 1zm0-1h9V3.001h-9zm1-2v-1h7v1zm0-2V8h7v1zm0-2V6h7v1zm0-2V4h7v1z"/>

    </g>
    <path fill="#1952FE" d="M13 46h28v1H13z"/>
</svg>
