<svg xmlns="http://www.w3.org/2000/svg" height="48" width="48">
    <path d="M9.646 43.597c0 1.451 1.458 2.903 2.916 2.903h29.021c1.459 0 2.917-1.452 2.917-2.903V18.919c0-1.451 0-1.451-1.458-2.903L29.917 2.952C29.142 2.37 28.458 1.5 27 1.5H12.417C10.958 1.5 9.5 2.952 9.5 4.403z" fill="#323232" stroke="#323232" stroke-width="1.0"/>
    <g transform="scale(2 2) translate(5 6)">
            <path color="#807F7F" d="M8 2c-1.072 3.818-4 6.073-4 8.182S5.791 14 8 14s4-1.709 4-3.818S9.072 5.818 8 2m2.75 6.233a3.429 3.273 0 0 1 .679 1.949A3.429 3.273 0 0 1 8 13.454a3.429 3.273 0 0 1-2.038-.645 4 3.818 0 0 0 .895.1 4 3.818 0 0 0 4-3.818 4 3.818 0 0 0-.107-.858" fill="#19FEFE"/>

    </g>
    <path fill="#19FEFE" d="M13 46h28v1H13z"/>
</svg>
