<svg xmlns="http://www.w3.org/2000/svg" height="48" width="48">
    <path d="M9.646 43.597c0 1.451 1.458 2.903 2.916 2.903h29.021c1.459 0 2.917-1.452 2.917-2.903V18.919c0-1.451 0-1.451-1.458-2.903L29.917 2.952C29.142 2.37 28.458 1.5 27 1.5H12.417C10.958 1.5 9.5 2.952 9.5 4.403z" fill="#323232" stroke="#323232" stroke-width="1.0"/>
    <g transform="scale(2 2) translate(5 6)">
            <path fill="#FE198C" d="M3 2c-.554 0-1 .446-1 1v10c0 .554.446 1 1 1h8c.554 0 1-.446 1-1h1c.554 0 1-.446 1-1v-2a.976.976 0 0 0-.152-.5A.976.976 0 0 0 14 9V7a.976.976 0 0 0-.152-.5A.976.976 0 0 0 14 6V4c0-.554-.446-1-1-1h-1c0-.554-.446-1-1-1zm0 1h8v10H3zm1 1v2h6V4zm8 0h1v2h-1zM4 7v1h6V7zm8 0h1v2h-1zM4 9v1h6V9zm8 1h1v2h-1zm-8 1v1h6v-1z"/>

    </g>
    <path fill="#FE198C" d="M13 46h28v1H13z"/>
</svg>
