<svg xmlns="http://www.w3.org/2000/svg" height="48" width="48">
    <path d="M9.646 43.597c0 1.451 1.458 2.903 2.916 2.903h29.021c1.459 0 2.917-1.452 2.917-2.903V18.919c0-1.451 0-1.451-1.458-2.903L29.917 2.952C29.142 2.37 28.458 1.5 27 1.5H12.417C10.958 1.5 9.5 2.952 9.5 4.403z" fill="#323232" stroke="#323232" stroke-width="1.0"/>
    <g transform="scale(2 2) translate(5 6)">
            <path d="M12 4.293L8.293 8 12 11.707l.354-.353L15.707 8z" fill="#FE8C19"/>
    <path d="M4 2v12h3.5a.5.5 0 0 0 .5-.5v-8a.5.5 0 0 0-.5-.5H5V2zm1 4h2v7H5zM1.5 2a.5.5 0 0 0-.5.5V5H0v1h1v8h1V6h1V5H2V3h1V2z" fill="currentColor" color="#807F7F"/>

    </g>
    <path fill="#807F7F" d="M13 46h28v1H13z"/>
</svg>
