<svg xmlns="http://www.w3.org/2000/svg" height="48" width="48">
    <path d="M9.646 43.597c0 1.451 1.458 2.903 2.916 2.903h29.021c1.459 0 2.917-1.452 2.917-2.903V18.919c0-1.451 0-1.451-1.458-2.903L29.917 2.952C29.142 2.37 28.458 1.5 27 1.5H12.417C10.958 1.5 9.5 2.952 9.5 4.403z" fill="#323232" stroke="#323232" stroke-width="1.0"/>
    <g transform="scale(2 2) translate(5 6)">
            <path fill="#198CFE" d="M11.689 2.189L10.068 3.81H5.101a1.5 1.5 0 0 0-1.412-1 1.5 1.5 0 0 0-1.5 1.5 1.5 1.5 0 0 0 1 1.412v7.088h3v1h3v-1h3V5.931l1.62-1.62zm0 1.414l.707.707-.707.707-.707-.707zm-8 .207a.5.5 0 0 1 .5.5.5.5 0 0 1-.5.5.5.5 0 0 1-.5-.5.5.5 0 0 1 .5-.5m1.412 1h4.967l1.121 1.121v5.879h-2v-1h-3v1h-2V5.722a1.5 1.5 0 0 0 .912-.912m2.088 7h1v1h-1z"/>

    </g>
    <path fill="#198CFE" d="M13 46h28v1H13z"/>
</svg>
