<svg xmlns="http://www.w3.org/2000/svg" height="48" width="48">
    <path d="M9.646 43.597c0 1.451 1.458 2.903 2.916 2.903h29.021c1.459 0 2.917-1.452 2.917-2.903V18.919c0-1.451 0-1.451-1.458-2.903L29.917 2.952C29.142 2.37 28.458 1.5 27 1.5H12.417C10.958 1.5 9.5 2.952 9.5 4.403z" fill="#323232" stroke="#323232" stroke-width="1.0"/>
    <g transform="scale(2 2) translate(5 6)">
            <path d="M6 2a2.98 2.98 0 0 0-2 2.814v.381c0 .74-.404 1.378-1 1.723v2.166c.596.345 1 .981 1 1.721v.381A2.98 2.98 0 0 0 6 14v-1.092c-.596-.345-1-.983-1-1.723v-.381c0-1.3-.826-2.388-1.98-2.805A2.978 2.978 0 0 0 5 5.194v-.381c0-.74.404-1.378 1-1.723zm4 0v1.092c.596.345 1 .983 1 1.723v.381a2.98 2.98 0 0 0 1.98 2.805A2.977 2.977 0 0 0 11 10.806v.381c0 .74-.404 1.378-1 1.723v1.092a2.98 2.98 0 0 0 2-2.814v-.381c0-.74.404-1.376 1-1.721V6.92c-.596-.345-1-.983-1-1.723v-.381a2.98 2.98 0 0 0-2-2.814" color="#807F7F" fill="#FF19C5"/>

    </g>
    <path fill="#FF19C5" d="M13 46h28v1H13z"/>
</svg>
