<svg xmlns="http://www.w3.org/2000/svg" height="48" width="48">
    <path d="M9.646 43.597c0 1.451 1.458 2.903 2.916 2.903h29.021c1.459 0 2.917-1.452 2.917-2.903V18.919c0-1.451 0-1.451-1.458-2.903L29.917 2.952C29.142 2.37 28.458 1.5 27 1.5H12.417C10.958 1.5 9.5 2.952 9.5 4.403z" fill="#323232" stroke="#323232" stroke-width="1.0"/>
    <g transform="scale(2 2) translate(5 6)">
            <path fill="#19C5FF" d="M5 2v8.281A1.993 1.993 0 0 0 4 10a2 2 0 1 0 2 2V5h7v4.281A1.993 1.993 0 0 0 12 9a2 2 0 1 0 2 2V2zm1 1h7v1H6z"/>

    </g>
    <path fill="#19C5FF" d="M13 46h28v1H13z"/>
</svg>
