<svg xmlns="http://www.w3.org/2000/svg" height="48" width="48">
    <path d="M9.646 43.597c0 1.451 1.458 2.903 2.916 2.903h29.021c1.459 0 2.917-1.452 2.917-2.903V18.919c0-1.451 0-1.451-1.458-2.903L29.917 2.952C29.142 2.37 28.458 1.5 27 1.5H12.417C10.958 1.5 9.5 2.952 9.5 4.403z" fill="#323232" stroke="#323232" stroke-width="1.0"/>
    <g transform="scale(2 2) translate(5 6)">
            <path fill="#807F7F" d="M8 2C6.338 2 5 3.338 5 5v3H3v6h10V8h-2V5c0-1.662-1.338-3-3-3m0 1c1.246 0 2 .546 2 2v3H6V5c0-1.454.754-2 2-2"/>

    </g>
    <path fill="#807F7F" d="M13 46h28v1H13z"/>
</svg>
