<svg xmlns="http://www.w3.org/2000/svg" height="48" width="48">
    <path d="M9.646 43.597c0 1.451 1.458 2.903 2.916 2.903h29.021c1.459 0 2.917-1.452 2.917-2.903V18.919c0-1.451 0-1.451-1.458-2.903L29.917 2.952C29.142 2.37 28.458 1.5 27 1.5H12.417C10.958 1.5 9.5 2.952 9.5 4.403z" fill="#323232" stroke="#323232" stroke-width="1.0"/>
    <g transform="scale(2 2) translate(5 6)">
            <path fill="#19FEFE" d="M2 2v8.992l-1 1V12h1v2h12v-2.998h1v-.01l-1-1V2zm1 1h10v5.992L9.006 5H9v.002h-.006L6.498 7.494 6.004 7h-.008L3 9.994zm2 1c-.554 0-1 .446-1 1s.446 1 1 1 1-.446 1-1-.446-1-1-1m4 2.41l4 3.998V11h-2.992L7.207 8.203zm-3 2L8.59 11H3.408zM3 12h6.59l.002.002H11V12h2v1H3z"/>

    </g>
    <path fill="#19FEFE" d="M13 46h28v1H13z"/>
</svg>
