<svg xmlns="http://www.w3.org/2000/svg" height="48" width="48">
    <path d="M9.646 43.597c0 1.451 1.458 2.903 2.916 2.903h29.021c1.459 0 2.917-1.452 2.917-2.903V18.919c0-1.451 0-1.451-1.458-2.903L29.917 2.952C29.142 2.37 28.458 1.5 27 1.5H12.417C10.958 1.5 9.5 2.952 9.5 4.403z" fill="#323232" stroke="#323232" stroke-width="1.0"/>
    <g transform="scale(2 2) translate(5 6)">
            <path fill="#19C5FF" fill-rule="evenodd" d="M7 2v2h2V2zm-.131 2.357l-1.98.531.818.818L7 5.358v-1zm2.131 0v1l3.057.82L9 6.995v7h.131l4.861-1.303.008.002v-7.04l-.008.002-4.861-1.303zm-5.689.953L2 5.662V13l6 1V7l-4.391-.732.52-.139zM13 6.962v4.432l-3-.805V7.767zm-3 4.664l2.057.551L10 12.73z"/>

    </g>
    <path fill="#19C5FF" d="M13 46h28v1H13z"/>
</svg>
