<svg xmlns="http://www.w3.org/2000/svg" height="48" width="48">
    <path d="M9.646 43.597c0 1.451 1.458 2.903 2.916 2.903h29.021c1.459 0 2.917-1.452 2.917-2.903V18.919c0-1.451 0-1.451-1.458-2.903L29.917 2.952C29.142 2.37 28.458 1.5 27 1.5H12.417C10.958 1.5 9.5 2.952 9.5 4.403z" fill="#323232" stroke="#323232" stroke-width="1.0"/>
    <g transform="scale(2 2) translate(5 6)">
            <path color="#807F7F" d="M2 2v12h12V2H3zm1 1h1.912A1.5 1.5 0 0 1 3 4.912zm2.947 0h7.05v10h-10v-.783l1.326-1.299 1.408-1.404.564.418L7.397 11l2.6-2.399 4 3.891-1-2.492-3-3-2.6 2.6-1.6-1.6-2.801 2.801V5.948a2.5 2.5 0 0 0 2.947-2.947" fill="#807F7F"/>

    </g>
    <path fill="#807F7F" d="M13 46h28v1H13z"/>
</svg>
