<svg xmlns="http://www.w3.org/2000/svg" height="48" width="48">
    <path d="M9.646 43.597c0 1.451 1.458 2.903 2.916 2.903h29.021c1.459 0 2.917-1.452 2.917-2.903V18.919c0-1.451 0-1.451-1.458-2.903L29.917 2.952C29.142 2.37 28.458 1.5 27 1.5H12.417C10.958 1.5 9.5 2.952 9.5 4.403z" fill="#323232" stroke="#323232" stroke-width="1.0"/>
    <g transform="scale(2 2) translate(5 6)">
            <path color="#807F7F" d="M4 2v3h1v1.65a1.5 1.5 0 0 0-1 1.412 1.5 1.5 0 0 0 1 1.412V11H4v3h3V12.19A7 6 0 0 0 12 14v-1a6 5 0 0 1-5.77-3.631A1.5 1.5 0 0 0 7 8.061a1.5 1.5 0 0 0-.799-1.322A6 5 0 0 1 12 2.999v-1a7 6 0 0 0-5 1.803V1.999zm1 1h1v1H5zm0 9h1v1H5z" fill="#19FE8C"/>

    </g>
    <path fill="#19FE8C" d="M13 46h28v1H13z"/>
</svg>
