<svg xmlns="http://www.w3.org/2000/svg" height="48" width="48">
    <path d="M9.646 43.597c0 1.451 1.458 2.903 2.916 2.903h29.021c1.459 0 2.917-1.452 2.917-2.903V18.919c0-1.451 0-1.451-1.458-2.903L29.917 2.952C29.142 2.37 28.458 1.5 27 1.5H12.417C10.958 1.5 9.5 2.952 9.5 4.403z" fill="#323232" stroke="#323232" stroke-width="1.0"/>
    <g transform="scale(2 2) translate(5 6)">
            <path fill="#19C5FF" color="#807F7F" d="M2 3v10h12V3H2.687zm1.688 1h8.625L8 8.313 6.937 7.25zM3 4.688l3.219 3.219L3 10.657zm10 0v5.969l-3.219-2.75zM6.906 8.594l.75.75.344.375.344-.375.75-.75L13 11.938V12H3v-.062z"/>

    </g>
    <path fill="#807F7F" d="M13 46h28v1H13z"/>
</svg>
