<svg xmlns="http://www.w3.org/2000/svg" height="48" width="48">
    <path d="M9.646 43.597c0 1.451 1.458 2.903 2.916 2.903h29.021c1.459 0 2.917-1.452 2.917-2.903V18.919c0-1.451 0-1.451-1.458-2.903L29.917 2.952C29.142 2.37 28.458 1.5 27 1.5H12.417C10.958 1.5 9.5 2.952 9.5 4.403z" fill="#323232" stroke="#323232" stroke-width="1.0"/>
    <g transform="scale(2 2) translate(5 6)">
            <path fill="#FE1952" color="#807F7F" d="M2 3v10h5.9v-1H3v-.063l3.906-3.344.75.75.244.266V8.213L7.687 8H6.109L3 10.656V4.687l2.328 2.328.344-1.031L3.688 4h2.646l.332-1H2.687zm6 0v1h4.313l-1.617 1.617-.688 2.063L13 4.688v5.969l-3.102-2.65-.332.994L13 11.939v.063H8.566l-.332 1H14v-10h-.688z"/>

    </g>
    <path fill="#807F7F" d="M13 46h28v1H13z"/>
</svg>
