<svg xmlns="http://www.w3.org/2000/svg" height="48" width="48">
    <path d="M9.646 43.597c0 1.451 1.458 2.903 2.916 2.903h29.021c1.459 0 2.917-1.452 2.917-2.903V18.919c0-1.451 0-1.451-1.458-2.903L29.917 2.952C29.142 2.37 28.458 1.5 27 1.5H12.417C10.958 1.5 9.5 2.952 9.5 4.403z" fill="#323232" stroke="#323232" stroke-width="1.0"/>
    <g transform="scale(2 2) translate(5 6)">
            <path fill="#198CFE" d="M2 3v2.22h2v5.554H2v2.21c2.112.009 3.879.011 6 .011v-2.221H6V9.072l2.488.019c.164.001.875.053 1.102 1.092.071.319.228 1.357.334 1.691.107.373.54 1.122 1 1.122.992-.008 2.151.004 3.073.004v-2.651a.96.96 0 0 1-.445.159c-.362.047-.763-.173-.812-.425-.213-1.371-.569-1.664-1.13-2.169.697-.505 1.422-1.251 1.422-2.249 0-1.077-.647-1.757-1.088-2.089-.619-.465-1.303-.57-1.488-.57-2.828.016-5.662 0-8.459 0zm4 2.22h3c.121 0 1 .303 1 .929 0 .52-.672.801-1.134.801L6 6.931z"/>

    </g>
    <path fill="#198CFE" d="M13 46h28v1H13z"/>
</svg>
