<svg xmlns="http://www.w3.org/2000/svg" height="48" width="48">
    <path d="M9.646 43.597c0 1.451 1.458 2.903 2.916 2.903h29.021c1.459 0 2.917-1.452 2.917-2.903V18.919c0-1.451 0-1.451-1.458-2.903L29.917 2.952C29.142 2.37 28.458 1.5 27 1.5H12.417C10.958 1.5 9.5 2.952 9.5 4.403z" fill="#323232" stroke="#323232" stroke-width="1.0"/>
    <g transform="scale(2 2) translate(5 6)">
            <path style="isolation:auto;mix-blend-mode:normal;solid-color:#000;solid-opacity:1;marker:none" d="M5 3v2h2V3zm3 0v2h2V3zM3 6v2h2V6zm3 0v2h2V6zm3 0v2h2V6zM12.429 6.233c-.531.364-.658 1.024-.493 1.646.168.622.591 1.071 1.234 1.121a1.522 1.522 0 0 0 1.432 1.015c.644-.001 1.218-.408 1.432-1.015a1.52 1.52 0 0 0-1.432-1.013 1.52 1.52 0 0 0-.86.27 1.521 1.521 0 0 0-1.313-2.023zM13.169 9H1c0 3.36 2.724 5.072 6.085 5.072 3.36 0 6.085-1.711 6.085-5.072zm-9.648.675a.835.835 0 1 1 0 1.67.835.835 0 0 1 0-1.67z" color="#807F7F" overflow="visible" fill="#19C5FF"/>

    </g>
    <path fill="#19C5FF" d="M13 46h28v1H13z"/>
</svg>
