<svg xmlns="http://www.w3.org/2000/svg" height="48" width="48">
    <path d="M9.646 43.597c0 1.451 1.458 2.903 2.916 2.903h29.021c1.459 0 2.917-1.452 2.917-2.903V18.919c0-1.451 0-1.451-1.458-2.903L29.917 2.952C29.142 2.37 28.458 1.5 27 1.5H12.417C10.958 1.5 9.5 2.952 9.5 4.403z" fill="#323232" stroke="#323232" stroke-width="1.0"/>
    <g transform="scale(2 2) translate(5 6)">
            <path d="M13.5 13.998L9.82 14 7.31 10.394s-.403-.675-.652-.871c-.207-.164-.295-.222-.5-.222h-.465v4.694l-3.194.001V2h6.956s2.819.506 2.876 3.222C12.396 8.25 9.608 9.14 9.608 9.14c.382.153 3.458 4.156 3.892 4.855M7.985 4.602L5.726 4.6v2.04l2.259-.001s1.047-.003 1.047-1.037c0-1.056-1.047-1-1.047-1" fill="#19C5FF" fill-rule="evenodd"/>

    </g>
    <path fill="#19C5FF" d="M13 46h28v1H13z"/>
</svg>
