<svg xmlns="http://www.w3.org/2000/svg" height="48" width="48">
    <path d="M9.646 43.597c0 1.451 1.458 2.903 2.916 2.903h29.021c1.459 0 2.917-1.452 2.917-2.903V18.919c0-1.451 0-1.451-1.458-2.903L29.917 2.952C29.142 2.37 28.458 1.5 27 1.5H12.417C10.958 1.5 9.5 2.952 9.5 4.403z" fill="#323232" stroke="#323232" stroke-width="1.0"/>
    <g transform="scale(2 2) translate(5 6)">
            <path fill="#807F7F" d="M5.5 2A1.5 1.5 0 0 0 4 3.5a1.5 1.5 0 0 0 1 1.412v6.178a1.5 1.5 0 0 0-1 1.41A1.5 1.5 0 0 0 5.5 14 1.5 1.5 0 0 0 7 12.5a1.5 1.5 0 0 0-1-1.412V4.912A1.5 1.5 0 0 0 7 3.5 1.5 1.5 0 0 0 5.5 2M9 2L7 3.4 9 5V4h1c.554 0 1 .446 1 1v6.09a1.5 1.5 0 0 0-1 1.41 1.5 1.5 0 0 0 1.5 1.5 1.5 1.5 0 0 0 1.5-1.5 1.5 1.5 0 0 0-1-1.412V5c0-1.108-.89-1.945-2-2H9zM5.5 3a.5.5 0 0 1 .5.5.5.5 0 0 1-.5.5.5.5 0 0 1-.5-.5.5.5 0 0 1 .5-.5m0 9a.5.5 0 0 1 .5.5.5.5 0 0 1-.5.5.5.5 0 0 1-.5-.5.5.5 0 0 1 .5-.5m6 0a.5.5 0 0 1 .5.5.5.5 0 0 1-.5.5.5.5 0 0 1-.5-.5.5.5 0 0 1 .5-.5"/>

    </g>
    <path fill="#807F7F" d="M13 46h28v1H13z"/>
</svg>
