<svg xmlns="http://www.w3.org/2000/svg" height="48" width="48">
    <path d="M9.646 43.597c0 1.451 1.458 2.903 2.916 2.903h29.021c1.459 0 2.917-1.452 2.917-2.903V18.919c0-1.451 0-1.451-1.458-2.903L29.917 2.952C29.142 2.37 28.458 1.5 27 1.5H12.417C10.958 1.5 9.5 2.952 9.5 4.403z" fill="#323232" stroke="#323232" stroke-width="1.0"/>
    <g transform="scale(2 2) translate(5 6)">
            <path fill="#FE1952" d="M7 2v12h1V7.95a3.486 3.486 0 0 0 2.5 1.053c1.939 0 3.5-1.561 3.5-3.5s-1.561-3.5-3.5-3.5c-.983 0-1.865.404-2.5 1.053V2.003zm3.5 1C11.885 3 13 4.115 13 5.5S11.885 8 10.5 8A2.495 2.495 0 0 1 8 5.5C8 4.115 9.115 3 10.5 3M3 7a1 1 0 0 0-1 1 1 1 0 0 0 1 1 1 1 0 0 0 1-1 1 1 0 0 0-1-1"/>

    </g>
    <path fill="#FE1952" d="M13 46h28v1H13z"/>
</svg>
