<svg xmlns="http://www.w3.org/2000/svg" height="48" width="48">
    <path d="M9.646 43.597c0 1.451 1.458 2.903 2.916 2.903h29.021c1.459 0 2.917-1.452 2.917-2.903V18.919c0-1.451 0-1.451-1.458-2.903L29.917 2.952C29.142 2.37 28.458 1.5 27 1.5H12.417C10.958 1.5 9.5 2.952 9.5 4.403z" fill="#323232" stroke="#323232" stroke-width="1.0"/>
    <g transform="scale(2 2) translate(5 6)">
            <path fill="#807F7F" d="M2 2v12h7v-1H6v-3h3V9H6V6h4v2h1V6h2v2h1V2H3zm1 1h10v2H3zm0 3h2v3H3zm8.5 3c-.831 0-1.5.638-1.5 1.43 0 .763.623 1.376 1.412 1.42.057.262.087.528.088.795A3.77 3.77 0 0 1 11.242 14c1.1-.734 1.756-1.933 1.758-3.213v-.357C13 9.638 12.331 9 11.5 9M3 10h2v3H3z"/>

    </g>
    <path fill="#807F7F" d="M13 46h28v1H13z"/>
</svg>
