<svg xmlns="http://www.w3.org/2000/svg" height="48" width="48">
    <path d="M9.646 43.597c0 1.451 1.458 2.903 2.916 2.903h29.021c1.459 0 2.917-1.452 2.917-2.903V18.919c0-1.451 0-1.451-1.458-2.903L29.917 2.952C29.142 2.37 28.458 1.5 27 1.5H12.417C10.958 1.5 9.5 2.952 9.5 4.403z" fill="#323232" stroke="#323232" stroke-width="1.0"/>
    <g transform="scale(2 2) translate(5 6)">
            <path fill="#198CFE" color="#807F7F" d="M12.5 2A1.5 1.5 0 0 0 11 3.5 1.5 1.5 0 0 0 12.5 5 1.5 1.5 0 0 0 14 3.5 1.5 1.5 0 0 0 12.5 2m-5 1A5.5 5.5 0 0 0 2 8.5 5.5 5.5 0 0 0 7.5 14 5.5 5.5 0 0 0 13 8.5a5.5 5.5 0 0 0-1.283-3.523A2 2 0 0 1 12 6a2 2 0 0 1-2 2 2 2 0 0 1-2-2 2 2 0 0 1 2-2 2 2 0 0 1 1.053.303A5.5 5.5 0 0 0 7.5 3"/>

    </g>
    <path fill="#807F7F" d="M13 46h28v1H13z"/>
</svg>
