<svg xmlns="http://www.w3.org/2000/svg" height="48" width="48">
    <path d="M9.646 43.597c0 1.451 1.458 2.903 2.916 2.903h29.021c1.459 0 2.917-1.452 2.917-2.903V18.919c0-1.451 0-1.451-1.458-2.903L29.917 2.952C29.142 2.37 28.458 1.5 27 1.5H12.417C10.958 1.5 9.5 2.952 9.5 4.403z" fill="#323232" stroke="#323232" stroke-width="1.0"/>
    <g transform="scale(2 2) translate(5 6)">
            <path fill="#807F7F" color="#807F7F" d="M5 2.002a3 3 0 0 0-3 3 3 3 0 0 0 3 3 3 3 0 0 0 3-3 3 3 0 0 0-3-3m3 3a3 3 0 0 0 3 3 3 3 0 0 0 3-3 3 3 0 0 0-3-3 3 3 0 0 0-3 3m-3-2a2 2 0 0 1 2 2 2 2 0 0 1-2 2 2 2 0 0 1-1.371-.549 1.5 1.5 0 0 0 .371.05 1.5 1.5 0 0 0 1.5-1.5 1.5 1.5 0 0 0-1.5-1.5 1.5 1.5 0 0 0-.375.048A2 2 0 0 1 5 3.003m6 0a2 2 0 0 1 2 2 2 2 0 0 1-2 2 2 2 0 0 1-1.371-.55 1.5 1.5 0 0 0 .371.05 1.5 1.5 0 0 0 1.5-1.5 1.5 1.5 0 0 0-1.5-1.5 1.5 1.5 0 0 0-.375.048A2 2 0 0 1 11 3.003m1.08 6.152c-.935.53-2.457.847-4.08.848-1.394-.001-2.725-.234-3.67-.645l-.629.734c.384.198.83.354 1.299.49v1.42a2 2 0 0 0 2 2 2 2 0 0 0 1.5-.68 2 2 0 0 0 1.5.68 2 2 0 0 0 2-2v-1.773c.272-.122.528-.253.754-.4zM11 10.58v1.424a1 1 0 0 1-1 1 1 1 0 0 1-1-1v-1.059a10.304 10.304 0 0 0 2-.365m-5 .238c.638.114 1.309.185 2 .186v1a1 1 0 0 1-1 1 1 1 0 0 1-1-1z"/>

    </g>
    <path fill="#807F7F" d="M13 46h28v1H13z"/>
</svg>
