<svg xmlns="http://www.w3.org/2000/svg" height="48" width="48">
    <path d="M9.646 43.597c0 1.451 1.458 2.903 2.916 2.903h29.021c1.459 0 2.917-1.452 2.917-2.903V18.919c0-1.451 0-1.451-1.458-2.903L29.917 2.952C29.142 2.37 28.458 1.5 27 1.5H12.417C10.958 1.5 9.5 2.952 9.5 4.403z" fill="#323232" stroke="#323232" stroke-width="1.0"/>
    <g transform="scale(2 2) translate(5 6)">
            <defs>
        <linearGradient id="c" x1="13.945" x2="1.994" gradientUnits="userSpaceOnUse">
            <stop stop-color="#8CFF19"/>
            <stop offset="1" stop-color="#8CFF19"/>
        </linearGradient>
        <linearGradient id="b" y1="1.991" x1="7.97" y2="13.942" x2="1.994" gradientUnits="userSpaceOnUse">
            <stop stop-color="#198CFE"/>
            <stop offset="1" stop-color="#19C5FF"/>
        </linearGradient>
        <linearGradient id="a" y1="13.942" x1="13.945" y2="1.991" x2="7.97" gradientUnits="userSpaceOnUse">
            <stop stop-color="#FE1952"/>
            <stop offset="1" stop-color="#FE1952"/>
        </linearGradient>
    </defs>
    <g fill-rule="evenodd">
        <path fill="url(#a)" d="M7.97 1.991l.878 9.948 5.098 2z"/>
        <path fill="url(#b)" d="M7.97 1.991L1.995 13.942l6.512-5.876z"/>
        <path fill="url(#c)" d="M5.619 10.671l-3.624 3.27h11.95zm-3.614 3.25l-.022.02h.012z"/>
    </g>

    </g>
    <path fill="#FE1952" d="M13 46h28v1H13z"/>
</svg>
