<svg xmlns="http://www.w3.org/2000/svg" height="48" width="48">
    <path d="M9.646 43.597c0 1.451 1.458 2.903 2.916 2.903h29.021c1.459 0 2.917-1.452 2.917-2.903V18.919c0-1.451 0-1.451-1.458-2.903L29.917 2.952C29.142 2.37 28.458 1.5 27 1.5H12.417C10.958 1.5 9.5 2.952 9.5 4.403z" fill="#323232" stroke="#323232" stroke-width="1.0"/>
    <g transform="scale(2 2) translate(5 6)">
            <path fill="#807F7F" d="M2 2v12h12V2zm1 3h10v8H3zm3 1v3H5v.016L7.984 12h.031l2.984-2.984V9h-1V6zm1 1h2v2h.6L8 10.602 6.4 9H7z"/>

    </g>
    <path fill="#807F7F" d="M13 46h28v1H13z"/>
</svg>
