<svg xmlns="http://www.w3.org/2000/svg" height="48" width="48">
    <path d="M9.646 43.597c0 1.451 1.458 2.903 2.916 2.903h29.021c1.459 0 2.917-1.452 2.917-2.903V18.919c0-1.451 0-1.451-1.458-2.903L29.917 2.952C29.142 2.37 28.458 1.5 27 1.5H12.417C10.958 1.5 9.5 2.952 9.5 4.403z" fill="#323232" stroke="#323232" stroke-width="1.0"/>
    <g transform="scale(2 2) translate(5 6)">
            <path color="#807F7F" d="M2 2v12h12V2zm3 1h6v4H5zM3 4h1v1H3zm9 0h1v1h-1zM3 7.5h1v1H3zm9 0h1v1h-1zM5 9h6v4H5zm-2 2h1v1H3zm9 0h1v1h-1z" fill="#FFC519"/>

    </g>
    <path fill="#FFC519" d="M13 46h28v1H13z"/>
</svg>
