<svg xmlns="http://www.w3.org/2000/svg" height="48" width="48">
    <path d="M9.646 43.597c0 1.451 1.458 2.903 2.916 2.903h29.021c1.459 0 2.917-1.452 2.917-2.903V18.919c0-1.451 0-1.451-1.458-2.903L29.917 2.952C29.142 2.37 28.458 1.5 27 1.5H12.417C10.958 1.5 9.5 2.952 9.5 4.403z" fill="#323232" stroke="#323232" stroke-width="1.0"/>
    <g transform="scale(2 2) translate(5 6)">
            <path fill="#FF19C5" d="M2 2v1h12V2zm4.268 2l.018.486L9.716 9l-3.715 4.445V14h8v-2.777h-.572c0 .555.15.9-.338 1.232-.534.365-1.238.434-1.857.434H8.287L11.144 9 8.287 4.555h1.68c1.191 0 2.886-.107 3.357 1.285.081.238.085.688.105.938h.572V4.001zM2 5v1h4V5zm0 2v1h5V7zm0 3v1h5v-1zm0 2v1h4v-1z"/>

    </g>
    <path fill="#FF19C5" d="M13 46h28v1H13z"/>
</svg>
