<svg xmlns="http://www.w3.org/2000/svg" height="48" width="48">
    <path d="M9.646 43.597c0 1.451 1.458 2.903 2.916 2.903h29.021c1.459 0 2.917-1.452 2.917-2.903V18.919c0-1.451 0-1.451-1.458-2.903L29.917 2.952C29.142 2.37 28.458 1.5 27 1.5H12.417C10.958 1.5 9.5 2.952 9.5 4.403z" fill="#323232" stroke="#323232" stroke-width="1.0"/>
    <g transform="scale(2 2) translate(5 6)">
            <path fill="#FF19C5" d="M8 2C6.338 2 5 3.338 5 5h2v1H5v2h2v1H5.182a2.984 2.984 0 0 0 5.636 0H9V8h2V6H9V5h2c0-1.662-1.338-3-3-3M3.1 9A4.984 4.984 0 0 0 7 12.893V13l-1 1h4l-1-1v-.107A4.982 4.982 0 0 0 12.9 9h-1.039A3.982 3.982 0 0 1 8 12a3.98 3.98 0 0 1-3.861-3z"/>

    </g>
    <path fill="#FF19C5" d="M13 46h28v1H13z"/>
</svg>
