<?xml version="1.0" encoding="UTF-8" standalone="no"?>
<svg
   xmlns:dc="http://purl.org/dc/elements/1.1/"
   xmlns:cc="http://creativecommons.org/ns#"
   xmlns:rdf="http://www.w3.org/1999/02/22-rdf-syntax-ns#"
   xmlns:svg="http://www.w3.org/2000/svg"
   xmlns="http://www.w3.org/2000/svg"
   xmlns:sodipodi="http://sodipodi.sourceforge.net/DTD/sodipodi-0.dtd"
   xmlns:inkscape="http://www.inkscape.org/namespaces/inkscape"
   width="16"
   height="16"
   version="1.1"
   id="svg12"
   sodipodi:docname="accessories-text-editor-symbolic.svg"
   inkscape:version="0.92.4 5da689c313, 2019-01-14">
  <metadata
     id="metadata18">
    <rdf:RDF>
      <cc:Work
         rdf:about="">
        <dc:format>image/svg+xml</dc:format>
        <dc:type
           rdf:resource="http://purl.org/dc/dcmitype/StillImage" />
      </cc:Work>
    </rdf:RDF>
  </metadata>
  <defs
     id="defs16" />
  <sodipodi:namedview
     pagecolor="#ffffff"
     bordercolor="#666666"
     borderopacity="1"
     objecttolerance="10"
     gridtolerance="10"
     guidetolerance="10"
     inkscape:pageopacity="0"
     inkscape:pageshadow="2"
     inkscape:window-width="1366"
     inkscape:window-height="704"
     id="namedview14"
     showgrid="true"
     inkscape:zoom="22.63"
     inkscape:cx="-3.4249607"
     inkscape:cy="10.993167"
     inkscape:window-x="0"
     inkscape:window-y="27"
     inkscape:window-maximized="1"
     inkscape:current-layer="svg12">
    <inkscape:grid
       type="xygrid"
       id="grid828" />
  </sodipodi:namedview>
  <path
     sodipodi:nodetypes="cccsscsccccccssccccccccccsscccccccsscccc"
     inkscape:connector-curvature="0"
     id="path2"
     style="fill:#dcdcdc"
     d="M 4.99414,0 C 3.73594,0.0145 2.81525,-0.0306 2.0625,0.38477 1.68613,0.59243 1.38927,0.94415 1.22461,1.38281 1.05994,1.82148 0.99999,2.34239 1,3 l 1.4e-4,10 c 1e-5,0.65761 0.0599,1.17858 0.22461,1.61719 0.16468,0.43861 0.46153,0.78852 0.83789,0.99609 C 2.81536,16.02842 3.73618,15.98493 4.99428,16 h 0.002 6.00572 0.004 c 1.25819,-0.0145 2.17889,0.0306 2.93164,-0.38477 0.37637,-0.20766 0.67323,-0.55938 0.83789,-0.99804 C 14.94006,14.17852 15.00001,13.65761 15,13 L 14.99986,3 C 14.99985,2.34239 14.93996,1.82142 14.77525,1.38281 14.61057,0.9442 14.31372,0.59429 13.93736,0.38672 13.18464,-0.02841 12.26381,0.01507 11.00572,0 H 11.00372 4.998 Z m 0.006,1 H 11 c 1.25862,0.0152 2.0891,0.0599 2.45508,0.26172 0.18342,0.10116 0.28722,0.21286 0.38476,0.47266 C 13.93724,1.99417 13.99985,2.40761 13.99986,3 L 14,13 c 10e-6,0.59239 -0.0626,1.00572 -0.16016,1.26562 -0.0976,0.25991 -0.20135,0.37147 -0.38476,0.47266 C 13.08912,14.9402 12.25852,14.98529 11,15 H 5.006 5 C 3.74137,14.9848 2.9109,14.9401 2.54492,14.73828 2.3615,14.63712 2.2577,14.52542 2.16016,14.26562 2.06266,14.00583 2.00001,13.59239 2,13 V 3 C 1.99999,2.40761 2.0626,1.99428 2.16016,1.73438 2.25776,1.47447 2.36151,1.36291 2.54492,1.26172 2.91088,1.0598 3.74147,1.0147 5,1 Z" />
  <path
     inkscape:connector-curvature="0"
     id="path8-0"
     style="fill:#dcdcdc;stroke-width:0.99999994"
     d="M 10.985461,4.0326526 5,9 3.42491,12.085001 6.7469939,11.106028 12.732502,6.1387705 Z m -5.533918,5.5114358 0.8439,1.0177326 -1.7822412,0.619953 z"
     inkscape:transform-center-x="4.7573375"
     inkscape:transform-center-y="1.7852709"
     sodipodi:nodetypes="cccccccccc" />
</svg>
