<?xml version="1.0" encoding="UTF-8" standalone="no"?>
<svg
   xmlns:dc="http://purl.org/dc/elements/1.1/"
   xmlns:cc="http://creativecommons.org/ns#"
   xmlns:rdf="http://www.w3.org/1999/02/22-rdf-syntax-ns#"
   xmlns:svg="http://www.w3.org/2000/svg"
   xmlns="http://www.w3.org/2000/svg"
   xmlns:sodipodi="http://sodipodi.sourceforge.net/DTD/sodipodi-0.dtd"
   xmlns:inkscape="http://www.inkscape.org/namespaces/inkscape"
   width="16"
   height="16"
   version="1.1"
   id="svg6"
   sodipodi:docname="org.gnome.DejaDup-symbolic.svg"
   inkscape:version="0.92.4 5da689c313, 2019-01-14">
  <metadata
     id="metadata12">
    <rdf:RDF>
      <cc:Work
         rdf:about="">
        <dc:format>image/svg+xml</dc:format>
        <dc:type
           rdf:resource="http://purl.org/dc/dcmitype/StillImage" />
      </cc:Work>
    </rdf:RDF>
  </metadata>
  <defs
     id="defs10" />
  <sodipodi:namedview
     pagecolor="#ffffff"
     bordercolor="#666666"
     borderopacity="1"
     objecttolerance="10"
     gridtolerance="10"
     guidetolerance="10"
     inkscape:pageopacity="0"
     inkscape:pageshadow="2"
     inkscape:window-width="1366"
     inkscape:window-height="704"
     id="namedview8"
     showgrid="true"
     inkscape:zoom="11.313709"
     inkscape:cx="-3.3432526"
     inkscape:cy="10.952029"
     inkscape:window-x="0"
     inkscape:window-y="27"
     inkscape:window-maximized="1"
     inkscape:current-layer="layer9">
    <inkscape:grid
       type="xygrid"
       id="grid836" />
  </sodipodi:namedview>
  <g
     transform="translate(-283.00018,-215)"
     style="display:inline"
     inkscape:label="apps"
     id="layer9">
    <path
       style="opacity:1;fill:#bebebe;fill-opacity:1;stroke:none;stroke-width:1;stroke-linecap:round;stroke-linejoin:round;stroke-miterlimit:4;stroke-dasharray:none;stroke-opacity:1"
       d="m 293.50018,218 a 1.5,1.5 0 0 0 -1.5,1.5 1.5,1.5 0 0 0 1.5,1.5 1.5,1.5 0 0 0 1.5,-1.5 1.5,1.5 0 0 0 -1.5,-1.5 z m 0,1 a 0.49999999,0.49999999 0 0 1 0.5,0.5 0.49999999,0.49999999 0 0 1 -0.5,0.5 0.49999999,0.49999999 0 0 1 -0.5,-0.5 0.49999999,0.49999999 0 0 1 0.5,-0.5 z"
       id="path1044"
       inkscape:connector-curvature="0" />
    <path
       style="fill:#bebebe;fill-opacity:1;stroke:none"
       sodipodi:nodetypes="sssscsccssssssssss"
       id="path3708"
       d="m 287.1563,215.99993 c -1.18714,-2e-5 -2.15625,0.892 -2.15625,2 v 8.97193 c 0,1.10801 0.96911,1.99998 2.15625,2 l 9.8439,1.4e-4 c 0,0 1,0 1,-1 v -10.97193 c 0,-1 -1,-1 -1,-1 z m -0.77599,1 10.24489,1.4e-4 c 0.21139,0 0.375,0.17565 0.375,0.40625 v 10.15943 c 0,0.23064 -0.16361,0.40625 -0.375,0.40625 l -10.24489,-1.4e-4 c -0.21136,0 -0.375,-0.17561 -0.375,-0.40625 v -10.15943 c 0,-0.2306 0.16364,-0.40625 0.375,-0.40625 z"
       inkscape:connector-curvature="0" />
    <rect
       y="217.99992"
       x="284.00018"
       width="2.00371"
       style="fill:#bebebe;fill-opacity:1;stroke:none"
       ry="0.41625243"
       rx="0.41625243"
       id="rect15969"
       height="2" />
    <rect
       y="223.99992"
       x="284.00018"
       width="2.0037117"
       style="fill:#bebebe;fill-opacity:1;stroke:none"
       ry="0.41625243"
       rx="0.41625243"
       id="rect15971"
       height="2" />
    <path
       style="color:#dcdcdc;font-style:normal;font-variant:normal;font-weight:normal;font-stretch:normal;font-size:medium;line-height:normal;font-family:sans-serif;font-variant-ligatures:normal;font-variant-position:normal;font-variant-caps:normal;font-variant-numeric:normal;font-variant-alternates:normal;font-feature-settings:normal;text-indent:0;text-align:start;text-decoration:none;text-decoration-line:none;text-decoration-style:solid;text-decoration-color:#dcdcdc;letter-spacing:normal;word-spacing:normal;text-transform:none;writing-mode:lr-tb;direction:ltr;text-orientation:mixed;dominant-baseline:auto;baseline-shift:baseline;text-anchor:start;white-space:normal;shape-padding:0;clip-rule:nonzero;display:inline;overflow:visible;visibility:visible;opacity:1;isolation:auto;mix-blend-mode:normal;color-interpolation:sRGB;color-interpolation-filters:linearRGB;solid-color:#dcdcdc;solid-opacity:1;vector-effect:none;fill:#dcdcdc;fill-opacity:1;fill-rule:nonzero;stroke:none;stroke-width:0.99999988px;stroke-linecap:round;stroke-linejoin:round;stroke-miterlimit:4;stroke-dasharray:none;stroke-dashoffset:0;stroke-opacity:1;color-rendering:auto;image-rendering:auto;shape-rendering:auto;text-rendering:auto;enable-background:accumulate"
       d="m 291.21573,222.91703 1.09974,1.08634 v 0.99989 l -1.05722,1.05721 c -0.34755,0.33402 0.37309,1.05465 0.70712,0.7071 l 1.05722,-1.0572 h 0.99991 l 1.03583,1.05789 c 0.13874,0.14651 0.41808,0.10017 0.61596,-0.1022 0.19362,-0.19795 0.2345,-0.46916 0.0911,-0.6049 l -1.03582,-1.0579 v -0.99989 l 1.06505,-1.06502 c 0.14486,-0.13932 0.098,-0.41745 -0.10359,-0.61458 -0.1972,-0.19284 -0.46725,-0.23425 -0.60354,-0.0925 l -1.06504,1.06502 h -0.99991 l -1.09975,-1.08633 c -0.13934,-0.14485 -0.53452,-0.0383 -0.68087,0.21407 -0.147,0.28405 -0.0261,0.49069 -0.0262,0.493 z m 1.58863,0.86813 c 0.40272,-0.40273 1.05569,-0.40273 1.45843,0 0.40273,0.40273 0.40273,1.05568 0,1.45841 -0.40274,0.40273 -1.05571,0.40273 -1.45843,0 -0.40274,-0.40273 -0.40274,-1.05568 0,-1.45841 z"
       id="path819"
       inkscape:connector-curvature="0"
       sodipodi:nodetypes="scccccccccccccccccccscsssc" />
    <g
       transform="rotate(-135,292.25845,224.56464)"
       id="g986" />
    <path
       style="opacity:1;fill:#bebebe;fill-opacity:1;stroke:none;stroke-width:0.99999994;stroke-linecap:round;stroke-linejoin:round;stroke-miterlimit:4;stroke-dasharray:none;stroke-opacity:1"
       d="m 294.00018,224.50326 a 0.50001168,0.5 0 0 1 -0.50002,0.5 0.50001168,0.5 0 0 1 -0.50001,-0.5 0.50001168,0.5 0 0 1 0.50001,-0.5 0.50001168,0.5 0 0 1 0.50002,0.5 z"
       id="circle1038"
       inkscape:connector-curvature="0" />
    <rect
       style="opacity:1;fill:#2d2d2d;fill-opacity:1;stroke:none;stroke-width:1;stroke-linecap:round;stroke-linejoin:round;stroke-miterlimit:4;stroke-dasharray:none;stroke-opacity:1"
       id="rect1047"
       width="2.9999969"
       height="1"
       x="287.00018"
       y="229"
       ry="0"
       rx="0" />
    <rect
       rx="0"
       ry="0"
       y="229"
       x="294.00018"
       height="1"
       width="3.0000031"
       id="rect1049"
       style="opacity:1;fill:#2d2d2d;fill-opacity:1;stroke:none;stroke-width:1;stroke-linecap:round;stroke-linejoin:round;stroke-miterlimit:4;stroke-dasharray:none;stroke-opacity:1" />
    <path
       style="color:#dcdcdc;font-style:normal;font-variant:normal;font-weight:normal;font-stretch:normal;font-size:medium;line-height:normal;font-family:sans-serif;font-variant-ligatures:normal;font-variant-position:normal;font-variant-caps:normal;font-variant-numeric:normal;font-variant-alternates:normal;font-feature-settings:normal;text-indent:0;text-align:start;text-decoration:none;text-decoration-line:none;text-decoration-style:solid;text-decoration-color:#dcdcdc;letter-spacing:normal;word-spacing:normal;text-transform:none;writing-mode:lr-tb;direction:ltr;text-orientation:mixed;dominant-baseline:auto;baseline-shift:baseline;text-anchor:start;white-space:normal;shape-padding:0;clip-rule:nonzero;display:inline;overflow:visible;visibility:visible;opacity:1;isolation:auto;mix-blend-mode:normal;color-interpolation:sRGB;color-interpolation-filters:linearRGB;solid-color:#dcdcdc;solid-opacity:1;vector-effect:none;fill:#dcdcdc;fill-opacity:1;fill-rule:nonzero;stroke:none;stroke-width:1;stroke-linecap:round;stroke-linejoin:round;stroke-miterlimit:4;stroke-dasharray:none;stroke-dashoffset:0;stroke-opacity:1;color-rendering:auto;image-rendering:auto;shape-rendering:auto;text-rendering:auto;enable-background:accumulate"
       d="m 293.5,221 c -1.92707,0 -3.5,1.57293 -3.5,3.5 0,1.92707 1.57293,3.5 3.5,3.5 1.92707,0 3.5,-1.57293 3.5,-3.5 0,-1.92707 -1.57293,-3.5 -3.5,-3.5 z m 0,1 c 1.38663,0 2.5,1.11337 2.5,2.5 0,1.38663 -1.11337,2.5 -2.5,2.5 -1.38663,0 -2.5,-1.11337 -2.5,-2.5 0,-1.38663 1.11337,-2.5 2.5,-2.5 z m 0,1 c -0.8225,0 -1.5,0.6775 -1.5,1.5 10e-6,0.8225 0.6775,1.5 1.5,1.5 0.82249,-1e-5 1.49999,-0.67751 1.5,-1.5 0,-0.8225 -0.6775,-1.49999 -1.5,-1.5 z m 0,1 c 0.28206,0 0.5,0.21794 0.5,0.5 0,0.28206 -0.21794,0.5 -0.5,0.5 -0.28206,0 -0.5,-0.21794 -0.5,-0.5 0,-0.28206 0.21794,-0.5 0.5,-0.5 z"
       id="path1051"
       inkscape:connector-curvature="0" />
  </g>
</svg>
