<?xml version="1.0" encoding="UTF-8" standalone="no"?>
<svg
   xmlns:dc="http://purl.org/dc/elements/1.1/"
   xmlns:cc="http://creativecommons.org/ns#"
   xmlns:rdf="http://www.w3.org/1999/02/22-rdf-syntax-ns#"
   xmlns:svg="http://www.w3.org/2000/svg"
   xmlns="http://www.w3.org/2000/svg"
   xmlns:sodipodi="http://sodipodi.sourceforge.net/DTD/sodipodi-0.dtd"
   xmlns:inkscape="http://www.inkscape.org/namespaces/inkscape"
   height="16"
   id="svg7384"
   version="1.1"
   width="16"
   sodipodi:docname="org.gnome.SimpleScan-symbolic.svg"
   inkscape:version="0.92.4 5da689c313, 2019-01-14">
  <sodipodi:namedview
     pagecolor="#ffffff"
     bordercolor="#666666"
     borderopacity="1"
     objecttolerance="10"
     gridtolerance="10"
     guidetolerance="10"
     inkscape:pageopacity="0"
     inkscape:pageshadow="2"
     inkscape:window-width="1366"
     inkscape:window-height="704"
     id="namedview13"
     showgrid="true"
     inkscape:zoom="20.85965"
     inkscape:cx="2.9299667"
     inkscape:cy="8.095351"
     inkscape:window-x="0"
     inkscape:window-y="27"
     inkscape:window-maximized="1"
     inkscape:current-layer="svg7384">
    <inkscape:grid
       type="xygrid"
       id="grid837" />
  </sodipodi:namedview>
  <metadata
     id="metadata90">
    <rdf:RDF>
      <cc:Work
         rdf:about="">
        <dc:format>image/svg+xml</dc:format>
        <dc:type
           rdf:resource="http://purl.org/dc/dcmitype/StillImage" />
        <dc:title>Gnome Symbolic Icon Theme</dc:title>
      </cc:Work>
    </rdf:RDF>
  </metadata>
  <title
     id="title9167">Gnome Symbolic Icon Theme</title>
  <defs
     id="defs7386" />
  <path
     style="fill:#dcdcdc;fill-opacity:0.8"
     inkscape:connector-curvature="0"
     d="m 4.5940052,1.000002 c -0.8812597,-0.00222 -1.5962198,0.7127403 -1.594,1.594 v 10.813 c 0,0.882 0.711,1.593 1.594,1.593 h 7.8129998 c 0.880477,0.0017 1.594663,-0.736009 1.593,-1.616486 V 2.594002 c 0.0022,-0.8812597 -0.71274,-1.59621981 -1.594,-1.594 z m -0.094,1 h 8.0169488 c 0.277,0 0.5,0.223 0.5,0.5 V 12.5 c 0,0.277 -0.223,0.5 -0.5,0.5 H 4.5000052 c -0.2763717,5.54e-4 -0.5005544,-0.223628 -0.5,-0.5 V 2.500002 c 0,-0.277 0.223,-0.5 0.5,-0.5 z m 6.9999998,8.983051 c 0.666666,0 0.666666,1 0,1 -0.666666,0 -0.666666,-1 0,-1 z"
     id="path820"
     sodipodi:nodetypes="ccsscccccsssssccsssss" />
  <rect
     height="1"
     overflow="visible"
     rx="0"
     ry="0"
     style="color:#dcdcdc;overflow:visible;fill:#dcdcdc;fill-opacity:0.8;stroke-width:1;marker:none"
     width="5"
     x="6.0000052"
     y="6"
     id="rect822" />
</svg>
