<?xml version="1.0" encoding="UTF-8" standalone="no"?>
<svg
   xmlns:dc="http://purl.org/dc/elements/1.1/"
   xmlns:cc="http://creativecommons.org/ns#"
   xmlns:rdf="http://www.w3.org/1999/02/22-rdf-syntax-ns#"
   xmlns:svg="http://www.w3.org/2000/svg"
   xmlns="http://www.w3.org/2000/svg"
   xmlns:sodipodi="http://sodipodi.sourceforge.net/DTD/sodipodi-0.dtd"
   xmlns:inkscape="http://www.inkscape.org/namespaces/inkscape"
   height="16"
   width="16"
   version="1.1"
   id="svg6"
   sodipodi:docname="org.gnome.Settings-symbolic.svg"
   inkscape:version="0.92.4 5da689c313, 2019-01-14">
  <metadata
     id="metadata12">
    <rdf:RDF>
      <cc:Work
         rdf:about="">
        <dc:format>image/svg+xml</dc:format>
        <dc:type
           rdf:resource="http://purl.org/dc/dcmitype/StillImage" />
      </cc:Work>
    </rdf:RDF>
  </metadata>
  <defs
     id="defs10" />
  <sodipodi:namedview
     pagecolor="#ffffff"
     bordercolor="#666666"
     borderopacity="1"
     objecttolerance="10"
     gridtolerance="10"
     guidetolerance="10"
     inkscape:pageopacity="0"
     inkscape:pageshadow="2"
     inkscape:window-width="730"
     inkscape:window-height="480"
     id="namedview8"
     showgrid="false"
     inkscape:zoom="14.75"
     inkscape:cx="8.1355932"
     inkscape:cy="8"
     inkscape:window-x="0"
     inkscape:window-y="27"
     inkscape:window-maximized="0"
     inkscape:current-layer="svg6" />
  <g
     fill="#dcdcdc"
     id="g4">
    <path
       d="M7 0c-.197 0-.366.857-.494 2.193a6 6 0 0 0-1.55.645C3.917 1.982 3.19 1.498 3.05 1.637L1.637 3.05c-.14.14.346.866 1.2 1.902a6 6 0 0 0-.64 1.553C.858 6.634 0 6.803 0 7v2c0 .197.857.366 2.193.494a6 6 0 0 0 .645 1.55c-.856 1.038-1.34 1.766-1.201 1.905l1.414 1.414c.14.14.866-.346 1.902-1.2a6 6 0 0 0 1.553.64C6.634 15.142 6.803 16 7 16h2c.197 0 .366-.857.494-2.193a6 6 0 0 0 1.55-.645c1.038.856 1.766 1.34 1.905 1.201l1.414-1.414c.14-.14-.346-.866-1.2-1.902a6 6 0 0 0 .64-1.553C15.142 9.366 16 9.197 16 9V7c0-.197-.857-.366-2.193-.494a6 6 0 0 0-.645-1.55c.856-1.038 1.34-1.766 1.201-1.905L12.95 1.637c-.14-.14-.866.346-1.902 1.2a6 6 0 0 0-1.553-.64C9.366.858 9.197 0 9 0H7zm1 4.75A3.25 3.25 0 0 1 11.25 8 3.25 3.25 0 0 1 8 11.25 3.25 3.25 0 0 1 4.75 8 3.25 3.25 0 0 1 8 4.75z"
       id="path2" />
  </g>
</svg>
