<?xml version="1.0" encoding="UTF-8" standalone="no"?>
<svg
   xmlns:dc="http://purl.org/dc/elements/1.1/"
   xmlns:cc="http://creativecommons.org/ns#"
   xmlns:rdf="http://www.w3.org/1999/02/22-rdf-syntax-ns#"
   xmlns:svg="http://www.w3.org/2000/svg"
   xmlns="http://www.w3.org/2000/svg"
   xmlns:sodipodi="http://sodipodi.sourceforge.net/DTD/sodipodi-0.dtd"
   xmlns:inkscape="http://www.inkscape.org/namespaces/inkscape"
   width="16"
   height="16"
   version="1.1"
   id="svg6"
   sodipodi:docname="org.gnome.Nautilus-symbolic.svg"
   inkscape:version="0.92.4 5da689c313, 2019-01-14">
  <metadata
     id="metadata12">
    <rdf:RDF>
      <cc:Work
         rdf:about="">
        <dc:format>image/svg+xml</dc:format>
        <dc:type
           rdf:resource="http://purl.org/dc/dcmitype/StillImage" />
      </cc:Work>
    </rdf:RDF>
  </metadata>
  <defs
     id="defs10" />
  <sodipodi:namedview
     pagecolor="#ffffff"
     bordercolor="#666666"
     borderopacity="1"
     objecttolerance="10"
     gridtolerance="10"
     guidetolerance="10"
     inkscape:pageopacity="0"
     inkscape:pageshadow="2"
     inkscape:window-width="1366"
     inkscape:window-height="704"
     id="namedview8"
     showgrid="true"
     inkscape:zoom="14.75"
     inkscape:cx="14.638555"
     inkscape:cy="3.7613372"
     inkscape:window-x="0"
     inkscape:window-y="27"
     inkscape:window-maximized="1"
     inkscape:current-layer="svg6">
    <inkscape:grid
       type="xygrid"
       id="grid848" />
  </sodipodi:namedview>
  <path
     style="color:#dcdcdc;display:inline;overflow:visible;visibility:visible;fill:#bebebe;fill-opacity:1;fill-rule:evenodd;stroke:none;stroke-width:1;marker:none;enable-background:accumulate"
     id="rect11668-7"
     d="M 3.1875,0 C 1.98238,0 1,1.01795 1,2.21875 v 11.5625 C 1,14.98205 1.98238,16 3.1875,16 h 9.625 C 14.01762,16 15,14.98205 15,13.78125 V 2.21875 C 15,1.01795 14.01762,0 12.8125,0 Z M 2,2 H 14 V 15 H 2 Z m 2,2 v 4 h 8.03125 V 4 Z m 2.34375,1.4375 c 0.0208,-0.001 0.0417,-0.001 0.0625,0 C 6.71799,5.378 7.0056,5.62018 7,5.9375 V 6 H 9 V 5.9375 c -0.01,-0.67616 1.00956,-0.67616 1,0 V 6 C 10,6.54535 9.54535,7 9,7 H 7 C 6.45465,7 6,6.54535 6,6 V 5.9375 C 5.9888,5.71241 6.12959,5.50766 6.34375,5.4375 Z M 4.03125,9 v 4 H 12.0625 V 9 Z m 2.3125,1.4375 c 0.0208,-10e-4 0.0417,-10e-4 0.0625,0 C 6.71799,10.378 7.0056,10.62018 7,10.9375 V 11 h 2 v -0.0625 c -0.01,-0.67616 1.00956,-0.67616 1,0 V 11 c 0,0.54535 -0.45465,1 -1,1 H 7 C 6.45465,12 6,11.54535 6,11 v -0.0625 c -0.0112,-0.22509 0.12959,-0.42984 0.34375,-0.5 z"
     inkscape:connector-curvature="0"
     sodipodi:nodetypes="ssssssssscccccccccccccccccssssccccccccccccccsssscc" />
</svg>
