<svg xmlns="http://www.w3.org/2000/svg" width="16" height="16">
    <g fill="#dcdcdc">
    <path d="M7.85 0c-.784 0-1.408.598-1.496 1.355-1.844.608-3.25 2.172-3.25 4.145a.5.5 0 0 0 0 .002c0 .112.008.22.017.326l-.1 3.223c-.01.346-.035.645-.093.886a.5.5 0 0 0-.002 0c-.055.23-.144.405-.272.553a.5.5 0 0 0-.011.014c-.173.216-.204.271-.395.346a.5.5 0 0 0-.01.004c-.204.084-.503.14-.892.142a.5.5 0 0 0-.496.5v.004a.5.5 0 0 0 .5.5h13a.5.5 0 0 0 .5-.5v-.004a.5.5 0 0 0-.496-.5c-.39-.003-.689-.058-.893-.142a.5.5 0 0 0-.008-.004h-.002c-.017-.041-.06-.179-.193-.346a.5.5 0 0 0-.012-.014c-.067-.077-.09-.217-.172-.552h.002a3.736 3.736 0 0 1-.096-.872.5.5 0 0 0-.002-.046l-.296-3.215c.008-.1.014-.199.015-.3a.5.5 0 0 0 0-.005c0-1.993-1.495-3.548-3.351-4.15A1.513 1.513 0 0 0 7.924.006.5.5 0 0 0 7.852 0a.5.5 0 0 0-.002 0zm0 1a.5.5 0 0 0 .002 0c.331 0 .56.235.56.5 0 .02 0 .039-.004.053a.5.5 0 0 0 .375.572c1.635.394 2.914 1.77 2.914 3.375a3.17 3.17 0 0 1-.013.27.5.5 0 0 0-.002.046v.002a.5.5 0 0 0 .002.047l.298 3.248c.004.376.043.73.122 1.059.054.224.137.532.328.828H3.484c.182-.246.34-.515.414-.828.086-.355.11-.717.122-1.09l.101-3.236a.5.5 0 0 0-.002-.059 3.476 3.476 0 0 1-.015-.287c0-1.622 1.182-2.982 2.812-3.375a.5.5 0 0 0 .377-.57.325.325 0 0 1-.004-.055c0-.265.229-.5.56-.5zM6 13a2.01 2.01 0 0 0 2 2 2.011 2.011 0 0 0 2-2z"/>
        </g>
</svg>
