<?xml version="1.0" encoding="UTF-8" standalone="no"?>
<svg
   xmlns:dc="http://purl.org/dc/elements/1.1/"
   xmlns:cc="http://creativecommons.org/ns#"
   xmlns:rdf="http://www.w3.org/1999/02/22-rdf-syntax-ns#"
   xmlns:svg="http://www.w3.org/2000/svg"
   xmlns="http://www.w3.org/2000/svg"
   xmlns:sodipodi="http://sodipodi.sourceforge.net/DTD/sodipodi-0.dtd"
   xmlns:inkscape="http://www.inkscape.org/namespaces/inkscape"
   height="16"
   width="16"
   version="1.1"
   id="svg6"
   sodipodi:docname="org.gnome.Settings-symbolic.svg"
   inkscape:version="0.92.4 5da689c313, 2019-01-14">
  <metadata
     id="metadata12">
    <rdf:RDF>
      <cc:Work
         rdf:about="">
        <dc:format>image/svg+xml</dc:format>
        <dc:type
           rdf:resource="http://purl.org/dc/dcmitype/StillImage" />
      </cc:Work>
    </rdf:RDF>
  </metadata>
  <defs
     id="defs10" />
  <sodipodi:namedview
     pagecolor="#ffffff"
     bordercolor="#666666"
     borderopacity="1"
     objecttolerance="10"
     gridtolerance="10"
     guidetolerance="10"
     inkscape:pageopacity="0"
     inkscape:pageshadow="2"
     inkscape:window-width="1366"
     inkscape:window-height="704"
     id="namedview8"
     showgrid="false"
     inkscape:zoom="14.75"
     inkscape:cx="8"
     inkscape:cy="8"
     inkscape:window-x="0"
     inkscape:window-y="27"
     inkscape:window-maximized="1"
     inkscape:current-layer="g4" />
  <g
     id="g4"
     style="fill:#dcdcdc">
    <path
       d="m 14.652625,6.698 -1.2495,-0.1505 A 5.578125,5.578125 0 0 0 12.8475,5.2035 l 0.777,-0.987875 A 0.405125,0.405125 0 0 0 13.593,3.69325 l -1.288,-1.288 A 0.406,0.406 0 0 0 11.782625,2.372875 l -0.98875,0.77875 A 5.502,5.502 0 0 0 9.451625,2.596875 L 9.302,1.347375 A 0.406,0.406 0 0 0 8.91,1 H 7.089125 a 0.40425,0.40425 0 0 0 -0.392,0.347375 L 6.5475,2.596875 C 6.0715,2.72375 5.62,2.911875 5.204375,3.151625 l -0.98875,-0.777 A 0.406,0.406 0 0 0 3.69325,2.406125 L 2.40525,3.695 A 0.406,0.406 0 0 0 2.3755,4.217375 l 0.776125,0.98875 A 5.53175,5.53175 0 0 0 2.596875,6.54925 l -1.2495,0.149625 A 0.405125,0.405125 0 0 0 1,7.090875 V 8.91175 c 0,0.1925 0.156625,0.3675 0.347375,0.392 l 1.2495,0.149625 c 0.12775,0.475125 0.315,0.924875 0.555625,1.341375 l -0.777,0.98875 a 0.406,0.406 0 0 0 0.032375,0.52325 l 1.28625,1.288875 a 0.406,0.406 0 0 0 0.522375,0.0315 l 0.98875,-0.77875 c 0.4165,0.2415 0.86625,0.42875 1.34225,0.555625 L 6.698,14.652625 A 0.40425,0.40425 0 0 0 7.089125,15 h 1.82175 C 9.103375,15 9.27925,14.84425 9.302,14.652625 L 9.4525,13.404 a 5.55975,5.55975 0 0 0 1.34225,-0.55475 l 0.98875,0.777 c 0.15225,0.118125 0.38675,0.105 0.52325,-0.0315 l 1.287125,-1.288875 a 0.406,0.406 0 0 0 0.0315,-0.52325 L 12.8475,10.793875 C 13.089,10.37825 13.27625,9.927625 13.403125,9.4525 l 1.2495,-0.1505 A 0.40425,0.40425 0 0 0 15,8.910875 V 7.09 A 0.4025,0.4025 0 0 0 14.652625,6.698 Z M 8.000875,11.5 a 3.5,3.5 0 1 1 0,-7 3.5,3.5 0 0 1 0,7 z"
       id="path2"
       inkscape:connector-curvature="0"
       style="stroke-width:1" />
  </g>
</svg>
