<?xml version="1.0" encoding="UTF-8" standalone="no"?>
<svg
   xmlns:dc="http://purl.org/dc/elements/1.1/"
   xmlns:cc="http://creativecommons.org/ns#"
   xmlns:rdf="http://www.w3.org/1999/02/22-rdf-syntax-ns#"
   xmlns:svg="http://www.w3.org/2000/svg"
   xmlns="http://www.w3.org/2000/svg"
   xmlns:sodipodi="http://sodipodi.sourceforge.net/DTD/sodipodi-0.dtd"
   xmlns:inkscape="http://www.inkscape.org/namespaces/inkscape"
   width="16"
   height="16"
   version="1.1"
   id="svg14"
   sodipodi:docname="system-help-symbolic.svg"
   inkscape:version="0.92.4 5da689c313, 2019-01-14">
  <metadata
     id="metadata20">
    <rdf:RDF>
      <cc:Work
         rdf:about="">
        <dc:format>image/svg+xml</dc:format>
        <dc:type
           rdf:resource="http://purl.org/dc/dcmitype/StillImage" />
      </cc:Work>
    </rdf:RDF>
  </metadata>
  <defs
     id="defs18" />
  <sodipodi:namedview
     pagecolor="#ffffff"
     bordercolor="#666666"
     borderopacity="1"
     objecttolerance="10"
     gridtolerance="10"
     guidetolerance="10"
     inkscape:pageopacity="0"
     inkscape:pageshadow="2"
     inkscape:window-width="730"
     inkscape:window-height="480"
     id="namedview16"
     showgrid="false"
     inkscape:zoom="14.75"
     inkscape:cx="8"
     inkscape:cy="8"
     inkscape:window-x="0"
     inkscape:window-y="27"
     inkscape:window-maximized="0"
     inkscape:current-layer="g12" />
  <g
     id="g12"
     style="fill:#dcdcdc">
    <path
       d="M 8.06,2.979 C 5.82,2.979 4,4.799 4,7.039 A 4.063,4.063 0 0 0 8.06,11.1 c 2.24,0 4.06,-1.82 4.06,-4.06 A 4.063,4.063 0 0 0 8.06,2.979 Z m 0,1 A 3.043,3.043 0 0 1 11.12,7.039 3.043,3.043 0 0 1 8.06,10.101 3.043,3.043 0 0 1 5,7.041 3.043,3.043 0 0 1 8.06,3.979 Z"
       id="path2"
       inkscape:connector-curvature="0" />
    <path
       d="m 8.06,5.04 c -1.1,0 -2,0.9 -2,2 0,1.099 0.9,2 2,2 1.1,0 2,-0.901 2,-2 0,-1.1 -0.9,-2 -2,-2 z m 0,1 c 0.563,0 1,0.437 1,1 0,0.562 -0.437,1 -1,1 -0.563,0 -1,-0.438 -1,-1 0,-0.563 0.437,-1 1,-1 z"
       id="path4"
       inkscape:connector-curvature="0" />
    <path
       d="M 6.391,3.702 A 2.991,2.991 0 0 0 4.722,5.386 L 6.63,6.34 A 1.31,1.31 0 0 1 7.329,5.609 Z m 3.338,0 L 8.79,5.609 C 9.112,5.745 9.361,6.014 9.49,6.34 L 11.397,5.386 A 2.991,2.991 0 0 0 9.728,3.702 Z m -3.1,4.069 -1.907,0.953 c 0.309,0.757 0.91,1.348 1.67,1.653 L 7.345,8.47 A 1.318,1.318 0 0 1 6.63,7.77 Z m 2.861,0 A 1.316,1.316 0 0 1 8.775,8.47 l 0.954,1.907 a 3.003,3.003 0 0 0 1.669,-1.653 z"
       id="path6"
       inkscape:connector-curvature="0" />
    <path
       style="color:#dcdcdc;font-style:normal;font-variant:normal;font-weight:normal;font-stretch:normal;font-size:medium;line-height:normal;font-family:sans-serif;font-variant-ligatures:normal;font-variant-position:normal;font-variant-caps:normal;font-variant-numeric:normal;font-variant-alternates:normal;font-feature-settings:normal;text-indent:0;text-align:start;text-decoration:none;text-decoration-line:none;text-decoration-style:solid;text-decoration-color:#dcdcdc;letter-spacing:normal;word-spacing:normal;text-transform:none;writing-mode:lr-tb;direction:ltr;text-orientation:mixed;dominant-baseline:auto;baseline-shift:baseline;text-anchor:start;white-space:normal;shape-padding:0;clip-rule:nonzero;display:inline;overflow:visible;visibility:visible;opacity:1;isolation:auto;mix-blend-mode:normal;color-interpolation:sRGB;color-interpolation-filters:linearRGB;solid-color:#dcdcdc;solid-opacity:1;vector-effect:none;fill:#dcdcdc;fill-opacity:1;fill-rule:nonzero;stroke:none;stroke-width:1;stroke-linecap:butt;stroke-linejoin:miter;stroke-miterlimit:4;stroke-dasharray:none;stroke-dashoffset:0;stroke-opacity:1;marker:none;color-rendering:auto;image-rendering:auto;shape-rendering:auto;text-rendering:auto;enable-background:accumulate"
       d="M 3.9941406,1 C 2.7358914,1.0149673 1.8152094,0.97153512 1.0625,1.3867188 0.68614529,1.5943106 0.38926188,1.9441971 0.22460938,2.3828125 0.05995687,2.8214279 0,3.3424 0,4 v 6 c 0,0.6576 0.05995687,1.178572 0.22460938,1.617188 C 0.38926188,12.055803 0.68614529,12.405689 1.0625,12.613281 1.8152094,13.028465 2.7358914,12.985033 3.9941406,13 h 0.00195 8.0058594 0.0039 c 1.258341,-0.01447 2.178908,0.0306 2.931641,-0.384766 0.376366,-0.207682 0.673255,-0.559378 0.837891,-0.998046 C 15.940026,11.178519 16,10.6576 16,10 V 4 C 16,3.3424 15.940043,2.8214279 15.775391,2.3828125 15.610738,1.9441971 15.313855,1.5943106 14.9375,1.3867188 14.184791,0.97153512 13.264109,1.0149673 12.005859,1 h -0.002 -8.0078122 z M 4,2 h 8 c 1.258736,0.015135 2.089151,0.059879 2.455078,0.2617188 0.183395,0.1011581 0.287231,0.2128341 0.384766,0.4726562 C 14.937379,2.9941971 15,3.4076 15,4 v 6 c 0,0.5924 -0.0626,1.0057 -0.160156,1.265625 -0.09755,0.259925 -0.201382,0.371464 -0.384766,0.472656 C 14.089174,11.94019 13.258644,11.985363 12,12 H 4.0058594 4 C 2.7412638,11.984865 1.9108489,11.940121 1.5449219,11.738281 1.3615266,11.637123 1.2576912,11.525447 1.1601562,11.265625 1.0626213,11.005803 1,10.5924 1,10 V 4 C 1,3.4076 1.0626213,2.9941971 1.1601562,2.734375 1.2576912,2.4745529 1.3615266,2.3628769 1.5449219,2.2617188 1.9108489,2.0598787 2.7412638,2.0151353 4,2 Z"
       id="path8"
       inkscape:connector-curvature="0" />
    <path
       d="m 6,12 h 4 v 1.5 C 10,15 10.5,15 11.5,15 H 12 v 1 H 4 v -1 h 0.5 c 1,0 1.5,0 1.5,-1.5 z"
       id="path10"
       inkscape:connector-curvature="0" />
  </g>
</svg>
