<?xml version="1.0" encoding="UTF-8" standalone="no"?>
<!-- Created with Inkscape (http://www.inkscape.org/) -->

<svg
   xmlns:dc="http://purl.org/dc/elements/1.1/"
   xmlns:cc="http://creativecommons.org/ns#"
   xmlns:rdf="http://www.w3.org/1999/02/22-rdf-syntax-ns#"
   xmlns:svg="http://www.w3.org/2000/svg"
   xmlns="http://www.w3.org/2000/svg"
   xmlns:xlink="http://www.w3.org/1999/xlink"
   xmlns:sodipodi="http://sodipodi.sourceforge.net/DTD/sodipodi-0.dtd"
   xmlns:inkscape="http://www.inkscape.org/namespaces/inkscape"
   version="1.0"
   width="96"
   height="96"
   id="svg2408"
   style="display:inline"
   inkscape:version="0.48.1 r9760"
   sodipodi:docname="text-x-changelog.svg">
  <metadata
     id="metadata335">
    <rdf:RDF>
      <cc:Work
         rdf:about="">
        <dc:format>image/svg+xml</dc:format>
        <dc:type
           rdf:resource="http://purl.org/dc/dcmitype/StillImage" />
        <dc:title></dc:title>
      </cc:Work>
    </rdf:RDF>
  </metadata>
  <sodipodi:namedview
     pagecolor="#ffffff"
     bordercolor="#666666"
     borderopacity="1"
     objecttolerance="10"
     gridtolerance="10"
     guidetolerance="10"
     inkscape:pageopacity="0"
     inkscape:pageshadow="2"
     inkscape:window-width="1366"
     inkscape:window-height="720"
     id="namedview333"
     showgrid="false"
     inkscape:zoom="3.4375"
     inkscape:cx="48"
     inkscape:cy="53.571677"
     inkscape:window-x="0"
     inkscape:window-y="25"
     inkscape:window-maximized="1"
     inkscape:current-layer="svg2408" />
  <defs
     id="defs2410">
    <linearGradient
       inkscape:collect="always"
       id="linearGradient10137">
      <stop
         style="stop-color:#000000;stop-opacity:1;"
         offset="0"
         id="stop10139" />
      <stop
         style="stop-color:#000000;stop-opacity:0;"
         offset="1"
         id="stop10141" />
    </linearGradient>
    <linearGradient
       inkscape:collect="always"
       id="linearGradient9141">
      <stop
         style="stop-color:#000000;stop-opacity:1;"
         offset="0"
         id="stop9143" />
      <stop
         style="stop-color:#000000;stop-opacity:0;"
         offset="1"
         id="stop9145" />
    </linearGradient>
    <linearGradient
       id="linearGradient4553">
      <stop
         id="stop4555"
         style="stop-color:#418c18;stop-opacity:1"
         offset="0" />
      <stop
         id="stop4557"
         style="stop-color:#76b51c;stop-opacity:1"
         offset="1" />
    </linearGradient>
    <linearGradient
       id="linearGradient3766">
      <stop
         id="stop3768"
         style="stop-color:#000000;stop-opacity:1"
         offset="0" />
      <stop
         id="stop3775"
         style="stop-color:#000000;stop-opacity:1"
         offset="0.80000001" />
      <stop
         id="stop3770"
         style="stop-color:#000000;stop-opacity:0"
         offset="1" />
    </linearGradient>
    <linearGradient
       id="linearGradient3711">
      <stop
         id="stop3713"
         style="stop-color:#f10ef1;stop-opacity:1"
         offset="0" />
      <stop
         id="stop3715"
         style="stop-color:#f547f5;stop-opacity:1"
         offset="1" />
    </linearGradient>
    <linearGradient
       x1="45.447727"
       y1="92.539597"
       x2="45.447727"
       y2="7.0165396"
       id="ButtonShadow"
       gradientUnits="userSpaceOnUse"
       gradientTransform="scale(1.0058652,0.994169)">
      <stop
         id="stop3750"
         style="stop-color:#000000;stop-opacity:1"
         offset="0" />
      <stop
         id="stop3752"
         style="stop-color:#000000;stop-opacity:0.58823532"
         offset="1" />
    </linearGradient>
    <linearGradient
       id="linearGradient3700">
      <stop
         id="stop3702"
         style="stop-color:#ebebeb;stop-opacity:1"
         offset="0" />
      <stop
         id="stop3704"
         style="stop-color:#fafafa;stop-opacity:1"
         offset="1" />
    </linearGradient>
    <linearGradient
       x1="48"
       y1="90"
       x2="48"
       y2="5.9877172"
       id="linearGradient3706"
       xlink:href="#linearGradient3700"
       gradientUnits="userSpaceOnUse"
       gradientTransform="translate(0.38268553,-0.19134276)" />
    <filter
       color-interpolation-filters="sRGB"
       id="filter3174">
      <feGaussianBlur
         id="feGaussianBlur3176"
         stdDeviation="1.71" />
    </filter>
    <linearGradient
       x1="45.447727"
       y1="92.539597"
       x2="45.447727"
       y2="7.0165396"
       id="ButtonShadow-0"
       gradientUnits="userSpaceOnUse"
       gradientTransform="matrix(1.0058652,0,0,0.994169,100,0)">
      <stop
         id="stop3750-8"
         style="stop-color:#000000;stop-opacity:1"
         offset="0" />
      <stop
         id="stop3752-5"
         style="stop-color:#000000;stop-opacity:0.58823532"
         offset="1" />
    </linearGradient>
    <linearGradient
       x1="32.251034"
       y1="6.1317081"
       x2="32.251034"
       y2="90.238609"
       id="linearGradient3780"
       xlink:href="#ButtonShadow-0"
       gradientUnits="userSpaceOnUse"
       gradientTransform="matrix(1.0238095,0,0,1.0119048,-1.1428571,-98.071429)" />
    <linearGradient
       x1="32.251034"
       y1="6.1317081"
       x2="32.251034"
       y2="90.238609"
       id="linearGradient3772"
       xlink:href="#ButtonShadow-0"
       gradientUnits="userSpaceOnUse"
       gradientTransform="matrix(1.0238095,0,0,1.0119048,-1.1428571,-98.071429)" />
    <linearGradient
       x1="32.251034"
       y1="6.1317081"
       x2="32.251034"
       y2="90.238609"
       id="linearGradient3725"
       xlink:href="#ButtonShadow-0"
       gradientUnits="userSpaceOnUse"
       gradientTransform="matrix(1.0238095,0,0,1.0119048,-1.1428571,-98.071429)" />
    <linearGradient
       x1="32.251034"
       y1="6.1317081"
       x2="32.251034"
       y2="90.238609"
       id="linearGradient3721"
       xlink:href="#ButtonShadow-0"
       gradientUnits="userSpaceOnUse"
       gradientTransform="translate(0,-97)" />
    <linearGradient
       x1="32.251034"
       y1="6.1317081"
       x2="32.251034"
       y2="90.238609"
       id="linearGradient3760"
       xlink:href="#ButtonShadow-0"
       gradientUnits="userSpaceOnUse"
       gradientTransform="matrix(1.0238095,0,0,1.0119048,-1.1428571,-98.071429)" />
    <linearGradient
       id="linearGradient3737-1">
      <stop
         id="stop3739-9"
         style="stop-color:#ffffff;stop-opacity:1"
         offset="0" />
      <stop
         id="stop3741-3"
         style="stop-color:#ffffff;stop-opacity:0"
         offset="1" />
    </linearGradient>
    <radialGradient
       cx="48"
       cy="90.171875"
       r="42"
       fx="48"
       fy="90.171875"
       id="radialGradient2886"
       xlink:href="#linearGradient3737-0"
       gradientUnits="userSpaceOnUse"
       gradientTransform="matrix(1.1573129,0,0,0.99590774,-7.551021,0.1971319)" />
    <linearGradient
       id="linearGradient3737-0">
      <stop
         id="stop3739-6"
         style="stop-color:#ffffff;stop-opacity:1"
         offset="0" />
      <stop
         id="stop3741-0"
         style="stop-color:#ffffff;stop-opacity:0"
         offset="1" />
    </linearGradient>
    <linearGradient
       x1="36.357143"
       y1="6"
       x2="36.357143"
       y2="63.893143"
       id="linearGradient3923"
       xlink:href="#linearGradient3737-1"
       gradientUnits="userSpaceOnUse" />
    <linearGradient
       x1="11.75"
       y1="48.125229"
       x2="83.55545"
       y2="48.125229"
       id="linearGradient4025"
       xlink:href="#linearGradient3766"
       gradientUnits="userSpaceOnUse" />
    <linearGradient
       x1="49.137939"
       y1="64.288651"
       x2="49.137939"
       y2="32.079086"
       id="linearGradient4559"
       xlink:href="#linearGradient3711"
       gradientUnits="userSpaceOnUse"
       gradientTransform="translate(-12,0)" />
    <linearGradient
       x1="75.078453"
       y1="50.524475"
       x2="75.078453"
       y2="16.595808"
       id="linearGradient4331"
       xlink:href="#linearGradient4553"
       gradientUnits="userSpaceOnUse"
       gradientTransform="matrix(0.88275862,0,0,0.88275862,-7.582343,4.462746)" />
    <linearGradient
       id="linearGradient3737-9">
      <stop
         id="stop3739-2"
         style="stop-color:#ffffff;stop-opacity:1"
         offset="0" />
      <stop
         id="stop3741-1"
         style="stop-color:#ffffff;stop-opacity:0"
         offset="1" />
    </linearGradient>
    <clipPath
       id="clipPath3613">
      <rect
         width="84"
         height="84"
         rx="6"
         ry="6"
         x="6"
         y="6"
         id="rect3615"
         style="fill:#ffffff;fill-opacity:1;fill-rule:nonzero;stroke:none" />
    </clipPath>
    <filter
       x="-0.192"
       y="-0.192"
       width="1.3839999"
       height="1.3839999"
       color-interpolation-filters="sRGB"
       id="filter3794">
      <feGaussianBlur
         id="feGaussianBlur3796"
         stdDeviation="5.28" />
    </filter>
    <linearGradient
       x1="48"
       y1="20.220806"
       x2="48"
       y2="138.66119"
       id="linearGradient4412"
       xlink:href="#linearGradient3737-9"
       gradientUnits="userSpaceOnUse" />
    <clipPath
       id="clipPath3613-0">
      <rect
         width="84"
         height="84"
         rx="6"
         ry="6"
         x="6"
         y="6"
         id="rect3615-7"
         style="fill:#ffffff;fill-opacity:1;fill-rule:nonzero;stroke:none" />
    </clipPath>
    <filter
       x="-0.192"
       y="-0.192"
       width="1.3839999"
       height="1.3839999"
       color-interpolation-filters="sRGB"
       id="filter3794-8">
      <feGaussianBlur
         id="feGaussianBlur3796-6"
         stdDeviation="5.28" />
    </filter>
    <linearGradient
       inkscape:collect="always"
       xlink:href="#linearGradient3697"
       id="linearGradient3051"
       gradientUnits="userSpaceOnUse"
       x1="49"
       y1="68"
       x2="49"
       y2="28"
       gradientTransform="translate(-4.6545455,3.7818182)" />
    <linearGradient
       id="linearGradient3697">
      <stop
         id="stop3699"
         style="stop-color:#bababa;stop-opacity:1"
         offset="0" />
      <stop
         id="stop3701"
         style="stop-color:#d2d2d2;stop-opacity:1"
         offset="1" />
    </linearGradient>
    <linearGradient
       inkscape:collect="always"
       xlink:href="#linearGradient9141"
       id="linearGradient9155"
       gradientUnits="userSpaceOnUse"
       gradientTransform="translate(83.2,-18.618182)"
       x1="43.884422"
       y1="92.173775"
       x2="41.933762"
       y2="11.59196" />
    <linearGradient
       inkscape:collect="always"
       xlink:href="#linearGradient3697-5"
       id="linearGradient3051-5"
       gradientUnits="userSpaceOnUse"
       x1="48"
       y1="72"
       x2="48"
       y2="23.989584"
       gradientTransform="translate(-16.581818,-2.3272728)" />
    <linearGradient
       id="linearGradient3697-5">
      <stop
         id="stop3699-4"
         style="stop-color:#bababa;stop-opacity:1"
         offset="0" />
      <stop
         id="stop3701-7"
         style="stop-color:#d2d2d2;stop-opacity:1"
         offset="1" />
    </linearGradient>
    <linearGradient
       inkscape:collect="always"
       xlink:href="#linearGradient10137"
       id="linearGradient10143"
       x1="-45.818184"
       y1="35.200001"
       x2="-45.527271"
       y2="123.34545"
       gradientUnits="userSpaceOnUse"
       gradientTransform="translate(5.8181818,-50.327273)" />
    <linearGradient
       inkscape:collect="always"
       xlink:href="#linearGradient10137"
       id="linearGradient10149"
       gradientUnits="userSpaceOnUse"
       gradientTransform="translate(5.8181818,-50.327273)"
       x1="-45.818184"
       y1="35.200001"
       x2="-45.527271"
       y2="123.34545" />
    <linearGradient
       inkscape:collect="always"
       xlink:href="#linearGradient10137"
       id="linearGradient10158"
       gradientUnits="userSpaceOnUse"
       gradientTransform="translate(5.8181818,-50.327273)"
       x1="-45.818184"
       y1="35.200001"
       x2="-45.527271"
       y2="123.34545" />
  </defs>
  <g
     id="layer2"
     style="display:none">
    <rect
       width="86"
       height="85"
       rx="6"
       ry="6"
       x="5"
       y="7"
       id="rect3745"
       style="opacity:0.9;fill:url(#ButtonShadow);fill-opacity:1;fill-rule:nonzero;stroke:none;filter:url(#filter3174)" />
  </g>
  <g
     transform="translate(0.27593045,0.06380709)"
     id="g6928">
    <rect
       y="1.1099218"
       x="1.1906184"
       height="93.652542"
       width="93.64872"
       id="rect3109"
       style="opacity:0.79183673;fill:#000000;fill-opacity:1;stroke:#00ffff;stroke-width:2.35127115;stroke-miterlimit:4;stroke-opacity:1;stroke-dasharray:none" />
    <g
       style="fill:#00ffff"
       transform="matrix(1.0719614,0,0,1.0719614,-3.6234203,-3.0995997)"
       id="layer4-2">
      <rect
         style="opacity:0.15;fill:#00ffff;fill-opacity:1;fill-rule:nonzero;stroke:#ffffff;stroke-width:0.5;stroke-linecap:round;stroke-linejoin:miter;stroke-miterlimit:4;stroke-opacity:1;stroke-dasharray:none;stroke-dashoffset:0;filter:url(#filter3794-8)"
         id="rect3171"
         clip-path="url(#clipPath3613-0)"
         y="15"
         x="15"
         ry="12"
         rx="12"
         height="66"
         width="66" />
    </g>
  </g>
  <g
     id="g10151"
     transform="matrix(1.2596828,0,0,1.2596828,-11.317661,-15.067717)">
    <path
       d="m 47.709086,25.536364 c -13.254834,0 -24,10.745166 -24,24 0,0.165582 -0.0033,0.335217 0,0.5 0.263839,-13.026064 10.910748,-23.5 24,-23.5 13.089252,0 23.736161,10.473936 24,23.5 0.0033,-0.164783 0,-0.334418 0,-0.5 0,-13.254834 -10.745166,-24 -24,-24 z m 0.46875,10 c -2.291507,2.8e-5 -4.269451,0.343476 -5.96875,1 -1.686444,0.643704 -3.08038,1.53991 -4.1875,2.75 -1.10713,1.197264 -1.94644,2.662837 -2.5,4.375 -0.540692,1.712202 -0.812502,3.625878 -0.8125,5.75 0,0.170723 0.02747,0.331537 0.03125,0.5 0.04002,-1.923089 0.283852,-3.674897 0.78125,-5.25 0.55356,-1.712163 1.39287,-3.177736 2.5,-4.375 1.10712,-1.21009 2.501056,-2.106296 4.1875,-2.75 1.699299,-0.656524 3.677243,-0.999972 5.96875,-1 1.776535,2.8e-5 3.330255,0.189194 4.65625,0.5625 1.338829,0.37336 2.503211,0.911477 3.46875,1.59375 0.978367,0.66945 1.77542,1.448127 2.40625,2.375 0.464534,0.659681 0.872259,1.364896 1.1875,2.125 l 0.3125,-0.09375 c -0.360487,-1.107105 -0.856348,-2.117205 -1.5,-3.03125 -0.63083,-0.926873 -1.427883,-1.70555 -2.40625,-2.375 -0.965539,-0.682273 -2.129921,-1.22039 -3.46875,-1.59375 -1.325995,-0.373306 -2.879715,-0.562472 -4.65625,-0.5625 z m -7.71875,14.375 c -0.0042,0.168422 -10e-7,0.326953 0,0.5 -7e-6,1.416104 0.141401,2.721893 0.4375,3.90625 0.308957,1.171503 0.762563,2.181603 1.40625,3.03125 0.643668,0.849661 1.495851,1.523683 2.5,2 1.016999,0.476326 2.208894,0.718754 3.625,0.71875 1.068489,4e-6 2.008819,-0.172654 2.78125,-0.46875 0.785268,-0.308961 1.464794,-0.698299 2.03125,-1.1875 0.57929,-0.489189 1.032895,-1.038312 1.40625,-1.65625 0.386185,-0.617923 0.72413,-1.244187 0.96875,-1.875 l 4.53125,1.71875 c 0.138192,-0.283889 0.288974,-0.556252 0.40625,-0.84375 l -4.9375,-1.875 c -0.24462,0.630813 -0.582565,1.257077 -0.96875,1.875 -0.373355,0.617938 -0.82696,1.167061 -1.40625,1.65625 -0.566456,0.489201 -1.245982,0.878539 -2.03125,1.1875 -0.772431,0.296096 -1.712761,0.468754 -2.78125,0.46875 -1.416106,4e-6 -2.608001,-0.242424 -3.625,-0.71875 -1.004149,-0.476317 -1.856332,-1.150339 -2.5,-2 -0.643687,-0.849647 -1.097293,-1.859747 -1.40625,-3.03125 -0.260241,-1.04093 -0.407232,-2.185264 -0.4375,-3.40625 z m -10.71875,0.125 c -0.0046,0.16748 -0.03125,0.331407 -0.03125,0.5 0,9.941125 8.058874,18 18,18 9.941125,0 18,-8.058875 18,-18 0,-0.168593 -0.02664,-0.33252 -0.03125,-0.5 -0.266962,9.708025 -8.196218,17.5 -17.96875,17.5 -9.772533,0 -17.701788,-7.791975 -17.96875,-17.5 z"
       id="path3848"
       style="opacity:0.2;color:#000000;fill:#000000;fill-opacity:1;fill-rule:nonzero;stroke:none;stroke-width:1;marker:none;visibility:visible;display:inline;overflow:visible;enable-background:accumulate"
       inkscape:connector-curvature="0" />
    <path
       d="m 47.418178,31.827273 c -9.941126,0 -18,8.058874 -18,18 0,0.168593 0.02664,0.33252 0.03125,0.5 0.266962,-9.708026 8.196217,-17.5 17.96875,-17.5 9.772532,0 17.701788,7.791974 17.96875,17.5 0.0046,-0.16748 0.03125,-0.331407 0.03125,-0.5 0,-9.941126 -8.058875,-18 -18,-18 z m 0.59375,8.46875 c -1.377485,2.3e-5 -2.571248,0.236948 -3.5625,0.6875 -0.991275,0.437723 -1.793832,1.082363 -2.4375,1.90625 -0.630813,0.823928 -1.097293,1.810148 -1.40625,2.96875 -0.296099,1.145764 -0.437507,2.4148 -0.4375,3.84375 -10e-7,0.171491 -0.0042,0.331764 0,0.5 0.03027,-1.222334 0.177259,-2.336739 0.4375,-3.34375 0.308957,-1.158602 0.775437,-2.144822 1.40625,-2.96875 0.643668,-0.823887 1.446225,-1.468527 2.4375,-1.90625 0.991252,-0.450552 2.185015,-0.687477 3.5625,-0.6875 0.978375,2.3e-5 1.852569,0.148802 2.625,0.40625 0.772395,0.24462 1.433544,0.556818 2,0.96875 0.57929,0.411975 1.064146,0.896831 1.4375,1.4375 0.373312,0.527836 0.663498,1.076959 0.84375,1.65625 l 5,-1.375 c -0.100318,-0.308089 -0.190948,-0.613165 -0.3125,-0.90625 l -4.6875,1.28125 c -0.180252,-0.579291 -0.470438,-1.128414 -0.84375,-1.65625 -0.373354,-0.540669 -0.85821,-1.025525 -1.4375,-1.4375 -0.566456,-0.411932 -1.227605,-0.72413 -2,-0.96875 -0.772431,-0.257448 -1.646625,-0.406227 -2.625,-0.40625 z m -13.5625,9.90625 c -0.0035,0.167389 -0.03125,0.329918 -0.03125,0.5 -2e-6,2.046908 0.271808,3.931202 0.8125,5.65625 0.55356,1.725064 1.379996,3.238396 2.5,4.5 1.132867,1.248738 2.556185,2.229455 4.28125,2.9375 1.725046,0.695172 3.769125,1.03125 6.125,1.03125 1.802282,0 3.392754,-0.218549 4.71875,-0.65625 1.338829,-0.450574 2.47196,-1.029079 3.4375,-1.75 0.965493,-0.720917 1.762547,-1.560226 2.40625,-2.5 0.643652,-0.939765 1.163392,-1.896603 1.5625,-2.875 l -0.40625,-0.15625 c -0.332094,0.682225 -0.701733,1.367631 -1.15625,2.03125 -0.643703,0.939774 -1.440757,1.779083 -2.40625,2.5 -0.96554,0.720921 -2.098671,1.299426 -3.4375,1.75 -1.325996,0.437701 -2.916468,0.65625 -4.71875,0.65625 -2.355875,0 -4.399954,-0.336078 -6.125,-1.03125 -1.725065,-0.708045 -3.148383,-1.688762 -4.28125,-2.9375 -1.120004,-1.261604 -1.94644,-2.774936 -2.5,-4.5 -0.495595,-1.581169 -0.739711,-3.304907 -0.78125,-5.15625 z m -11.03125,0.125 c -0.0033,0.164783 0,0.334418 0,0.5 0,13.254834 10.745166,24 24,24 13.254834,0 23.999999,-10.745166 23.999999,-24 0,-0.165582 0.0033,-0.335217 0,-0.5 -0.263839,13.026064 -10.910747,23.5 -23.999999,23.5 -13.089252,0 -23.736161,-10.473936 -24,-23.5 z"
       id="path3857"
       style="color:#000000;fill:#00ffff;fill-opacity:1;fill-rule:nonzero;stroke:none;stroke-width:1;marker:none;visibility:visible;display:inline;overflow:visible;enable-background:accumulate"
       inkscape:connector-curvature="0" />
    <g
       transform="translate(87.272727,3.2)"
       id="g10145">
      <path
         inkscape:connector-curvature="0"
         style="color:#000000;fill:#00ffff;fill-opacity:1;fill-rule:nonzero;stroke:none;stroke-width:1;marker:none;visibility:visible;display:inline;overflow:visible;enable-background:accumulate"
         id="path3836"
         d="m -39.85455,23.209091 c -13.254834,0 -24,10.745166 -24,24 0,13.254834 10.745166,24 24,24 13.254834,0 24,-10.745166 24,-24 0,-13.254834 -10.745166,-24 -24,-24 z m 0,6 c 9.941125,0 18,8.058874 18,18 0,9.941125 -8.058875,18 -18,18 -9.941126,0 -18,-8.058875 -18,-18 0,-9.941126 8.058874,-18 18,-18 z m 0.46875,4 c -2.291507,2.8e-5 -4.269451,0.343476 -5.96875,1 -1.686444,0.643704 -3.08038,1.53991 -4.1875,2.75 -1.10713,1.197264 -1.94644,2.662837 -2.5,4.375 -0.540692,1.712202 -0.812502,3.625878 -0.8125,5.75 -2e-6,2.046908 0.271808,3.931202 0.8125,5.65625 0.55356,1.725064 1.379996,3.238396 2.5,4.5 1.132867,1.248738 2.556185,2.229455 4.28125,2.9375 1.725046,0.695172 3.769125,1.03125 6.125,1.03125 1.802282,0 3.392754,-0.218549 4.71875,-0.65625 1.338829,-0.450574 2.47196,-1.029079 3.4375,-1.75 0.965493,-0.720917 1.762547,-1.560226 2.40625,-2.5 0.643652,-0.939765 1.163392,-1.896603 1.5625,-2.875 l -4.9375,-1.875 c -0.24462,0.630813 -0.582565,1.257077 -0.96875,1.875 -0.373355,0.617938 -0.82696,1.167061 -1.40625,1.65625 -0.566456,0.489201 -1.245982,0.878539 -2.03125,1.1875 -0.772431,0.296096 -1.712761,0.468754 -2.78125,0.46875 -1.416106,4e-6 -2.608001,-0.242424 -3.625,-0.71875 -1.004149,-0.476317 -1.856332,-1.150339 -2.5,-2 -0.643687,-0.849647 -1.097293,-1.859747 -1.40625,-3.03125 -0.296099,-1.184357 -0.437507,-2.490146 -0.4375,-3.90625 -7e-6,-1.42895 0.141401,-2.697986 0.4375,-3.84375 0.308957,-1.158602 0.775437,-2.144822 1.40625,-2.96875 0.643668,-0.823887 1.446225,-1.468527 2.4375,-1.90625 0.991252,-0.450552 2.185015,-0.687477 3.5625,-0.6875 0.978375,2.3e-5 1.852569,0.148802 2.625,0.40625 0.772395,0.24462 1.433544,0.556818 2,0.96875 0.57929,0.411975 1.064146,0.896831 1.4375,1.4375 0.373312,0.527836 0.663498,1.076959 0.84375,1.65625 l 5,-1.375 c -0.360487,-1.107105 -0.856348,-2.117205 -1.5,-3.03125 -0.63083,-0.926873 -1.427883,-1.70555 -2.40625,-2.375 -0.965539,-0.682273 -2.129921,-1.22039 -3.46875,-1.59375 -1.325995,-0.373306 -2.879715,-0.562472 -4.65625,-0.5625 z" />
      <path
         inkscape:connector-curvature="0"
         style="color:#000000;fill:url(#linearGradient10158);fill-opacity:1;fill-rule:nonzero;stroke:none;stroke-width:1;marker:none;visibility:visible;display:inline;overflow:visible;enable-background:accumulate"
         id="path3836-6"
         d="m -39.854545,23.127272 c -13.254834,0 -24,10.745166 -24,24 0,13.254835 10.745166,24.000005 24,24.000005 13.254834,0 24,-10.74517 24,-24.000005 0,-13.254834 -10.745166,-24 -24,-24 z m 0,6 c 9.941125,0 18,8.058874 18,18 0,9.941125 -8.058875,18.000005 -18,18.000005 -9.941126,0 -18,-8.05888 -18,-18.000005 0,-9.941126 8.058874,-18 18,-18 z m 0.46875,4 c -2.291507,2.8e-5 -4.269451,0.343476 -5.96875,1 -1.686444,0.643704 -3.08038,1.53991 -4.1875,2.75 -1.10713,1.197264 -1.94644,2.662837 -2.5,4.375 -0.540692,1.712202 -0.812502,3.625878 -0.8125,5.75 -2e-6,2.046908 0.271808,3.931205 0.8125,5.656255 0.55356,1.72506 1.379996,3.23839 2.5,4.5 1.132867,1.24873 2.556185,2.22945 4.28125,2.9375 1.725046,0.69517 3.769125,1.03125 6.125,1.03125 1.802282,0 3.392754,-0.21855 4.71875,-0.65625 1.338829,-0.45058 2.47196,-1.02908 3.4375,-1.75 0.965493,-0.72092 1.762547,-1.56023 2.40625,-2.5 0.643652,-0.93977 1.163392,-1.89661 1.5625,-2.875 l -4.9375,-1.875 c -0.24462,0.63081 -0.582565,1.25707 -0.96875,1.875 -0.373355,0.61793 -0.82696,1.16706 -1.40625,1.65625 -0.566456,0.4892 -1.245982,0.87853 -2.03125,1.1875 -0.772431,0.29609 -1.712761,0.46875 -2.78125,0.46875 -1.416106,0 -2.608001,-0.24243 -3.625,-0.71875 -1.004149,-0.47632 -1.856332,-1.15034 -2.5,-2 -0.643687,-0.84965 -1.097293,-1.85975 -1.40625,-3.03125 -0.296099,-1.18436 -0.437507,-2.490151 -0.4375,-3.906255 -7e-6,-1.42895 0.141401,-2.697986 0.4375,-3.84375 0.308957,-1.158602 0.775437,-2.144822 1.40625,-2.96875 0.643668,-0.823887 1.446225,-1.468527 2.4375,-1.90625 0.991252,-0.450552 2.185015,-0.687477 3.5625,-0.6875 0.978375,2.3e-5 1.852569,0.148802 2.625,0.40625 0.772395,0.24462 1.433544,0.556818 2,0.96875 0.57929,0.411975 1.064146,0.896831 1.4375,1.4375 0.373312,0.527836 0.663498,1.076959 0.84375,1.65625 l 5,-1.375 c -0.360487,-1.107105 -0.856348,-2.117205 -1.5,-3.03125 -0.63083,-0.926873 -1.427883,-1.70555 -2.40625,-2.375 -0.965539,-0.682273 -2.129921,-1.22039 -3.46875,-1.59375 -1.325995,-0.373306 -2.879715,-0.562472 -4.65625,-0.5625 z" />
    </g>
  </g>
</svg>
