<?xml version="1.0" encoding="UTF-8" standalone="no"?>
<!-- Created with Inkscape (http://www.inkscape.org/) -->

<svg
   xmlns:dc="http://purl.org/dc/elements/1.1/"
   xmlns:cc="http://creativecommons.org/ns#"
   xmlns:rdf="http://www.w3.org/1999/02/22-rdf-syntax-ns#"
   xmlns:svg="http://www.w3.org/2000/svg"
   xmlns="http://www.w3.org/2000/svg"
   xmlns:xlink="http://www.w3.org/1999/xlink"
   xmlns:sodipodi="http://sodipodi.sourceforge.net/DTD/sodipodi-0.dtd"
   xmlns:inkscape="http://www.inkscape.org/namespaces/inkscape"
   version="1.0"
   width="96"
   height="96"
   id="svg2408"
   style="display:inline"
   inkscape:version="0.48.1 r9760"
   sodipodi:docname="text-x-readme.svg">
  <metadata
     id="metadata71">
    <rdf:RDF>
      <cc:Work
         rdf:about="">
        <dc:format>image/svg+xml</dc:format>
        <dc:type
           rdf:resource="http://purl.org/dc/dcmitype/StillImage" />
        <dc:title></dc:title>
      </cc:Work>
    </rdf:RDF>
  </metadata>
  <sodipodi:namedview
     pagecolor="#ffffff"
     bordercolor="#666666"
     borderopacity="1"
     objecttolerance="10"
     gridtolerance="10"
     guidetolerance="10"
     inkscape:pageopacity="0"
     inkscape:pageshadow="2"
     inkscape:window-width="1366"
     inkscape:window-height="720"
     id="namedview69"
     showgrid="false"
     inkscape:zoom="3.4375"
     inkscape:cx="48"
     inkscape:cy="55.138493"
     inkscape:window-x="0"
     inkscape:window-y="25"
     inkscape:window-maximized="1"
     inkscape:current-layer="svg2408" />
  <defs
     id="defs2410">
    <linearGradient
       inkscape:collect="always"
       id="linearGradient3876">
      <stop
         style="stop-color:#000000;stop-opacity:1;"
         offset="0"
         id="stop3878" />
      <stop
         style="stop-color:#000000;stop-opacity:0;"
         offset="1"
         id="stop3880" />
    </linearGradient>
    <linearGradient
       x1="45.447727"
       y1="92.539597"
       x2="45.447727"
       y2="7.0165396"
       id="ButtonShadow"
       gradientUnits="userSpaceOnUse"
       gradientTransform="scale(1.0058652,0.994169)">
      <stop
         id="stop3750"
         style="stop-color:#000000;stop-opacity:1"
         offset="0" />
      <stop
         id="stop3752"
         style="stop-color:#000000;stop-opacity:0.58823532"
         offset="1" />
    </linearGradient>
    <linearGradient
       id="linearGradient3700">
      <stop
         id="stop3702"
         style="stop-color:#ebebeb;stop-opacity:1"
         offset="0" />
      <stop
         id="stop3704"
         style="stop-color:#fafafa;stop-opacity:1"
         offset="1" />
    </linearGradient>
    <linearGradient
       x1="48"
       y1="90"
       x2="48"
       y2="5.9877172"
       id="linearGradient3706"
       xlink:href="#linearGradient3700"
       gradientUnits="userSpaceOnUse" />
    <filter
       color-interpolation-filters="sRGB"
       id="filter3174">
      <feGaussianBlur
         id="feGaussianBlur3176"
         stdDeviation="1.71" />
    </filter>
    <linearGradient
       x1="45.447727"
       y1="92.539597"
       x2="45.447727"
       y2="7.0165396"
       id="ButtonShadow-0"
       gradientUnits="userSpaceOnUse"
       gradientTransform="matrix(1.0058652,0,0,0.994169,100,0)">
      <stop
         id="stop3750-8"
         style="stop-color:#000000;stop-opacity:1"
         offset="0" />
      <stop
         id="stop3752-5"
         style="stop-color:#000000;stop-opacity:0.58823532"
         offset="1" />
    </linearGradient>
    <linearGradient
       x1="32.251034"
       y1="6.1317081"
       x2="32.251034"
       y2="90.238609"
       id="linearGradient3780"
       xlink:href="#ButtonShadow-0"
       gradientUnits="userSpaceOnUse"
       gradientTransform="matrix(1.0238095,0,0,1.0119048,-1.1428571,-98.071429)" />
    <linearGradient
       x1="32.251034"
       y1="6.1317081"
       x2="32.251034"
       y2="90.238609"
       id="linearGradient3772"
       xlink:href="#ButtonShadow-0"
       gradientUnits="userSpaceOnUse"
       gradientTransform="matrix(1.0238095,0,0,1.0119048,-1.1428571,-98.071429)" />
    <linearGradient
       x1="32.251034"
       y1="6.1317081"
       x2="32.251034"
       y2="90.238609"
       id="linearGradient3725"
       xlink:href="#ButtonShadow-0"
       gradientUnits="userSpaceOnUse"
       gradientTransform="matrix(1.0238095,0,0,1.0119048,-1.1428571,-98.071429)" />
    <linearGradient
       x1="32.251034"
       y1="6.1317081"
       x2="32.251034"
       y2="90.238609"
       id="linearGradient3721"
       xlink:href="#ButtonShadow-0"
       gradientUnits="userSpaceOnUse"
       gradientTransform="translate(0,-97)" />
    <linearGradient
       x1="32.251034"
       y1="6.1317081"
       x2="32.251034"
       y2="90.238609"
       id="linearGradient3760"
       xlink:href="#ButtonShadow-0"
       gradientUnits="userSpaceOnUse"
       gradientTransform="matrix(1.0238095,0,0,1.0119048,-1.1428571,-98.071429)" />
    <linearGradient
       id="linearGradient3737-1">
      <stop
         id="stop3739-9"
         style="stop-color:#ffffff;stop-opacity:1"
         offset="0" />
      <stop
         id="stop3741-3"
         style="stop-color:#ffffff;stop-opacity:0"
         offset="1" />
    </linearGradient>
    <radialGradient
       cx="48"
       cy="90.171875"
       r="42"
       fx="48"
       fy="90.171875"
       id="radialGradient2886"
       xlink:href="#linearGradient3737-0"
       gradientUnits="userSpaceOnUse"
       gradientTransform="matrix(1.1573129,0,0,0.99590774,-7.551021,0.1971319)" />
    <linearGradient
       id="linearGradient3737-0">
      <stop
         id="stop3739-6"
         style="stop-color:#ffffff;stop-opacity:1"
         offset="0" />
      <stop
         id="stop3741-0"
         style="stop-color:#ffffff;stop-opacity:0"
         offset="1" />
    </linearGradient>
    <linearGradient
       x1="36.357143"
       y1="6"
       x2="36.357143"
       y2="63.893143"
       id="linearGradient3923"
       xlink:href="#linearGradient3737-1"
       gradientUnits="userSpaceOnUse" />
    <linearGradient
       id="linearGradient3697">
      <stop
         id="stop3699"
         style="stop-color:#bababa;stop-opacity:1"
         offset="0" />
      <stop
         id="stop3701"
         style="stop-color:#d2d2d2;stop-opacity:1"
         offset="1" />
    </linearGradient>
    <linearGradient
       x1="71.671646"
       y1="62.025059"
       x2="71.671646"
       y2="26.413651"
       id="linearGradient2937"
       xlink:href="#linearGradient3697"
       gradientUnits="userSpaceOnUse"
       gradientTransform="matrix(1.3333333,0,0,1.3333333,-50.401545,-11.129853)" />
    <clipPath
       id="clipPath3730">
      <path
         d="m -88,6 c -3.324,0 -6,2.676 -6,6 l 0,72 c 0,3.324 2.676,6 6,6 l 72,0 c 3.324,0 6,-2.676 6,-6 l 0,-72 c 0,-3.324 -2.676,-6 -6,-6 l -72,0 z m 38.65625,18 c 1.645696,4.7e-5 3.029386,0.559154 4.1875,1.65625 1.178391,1.097186 1.74998,2.424666 1.75,3.96875 -2e-5,1.544168 -0.571609,2.871646 -1.75,3.96875 -1.158114,1.076862 -2.541804,1.625035 -4.1875,1.625 -1.645727,3.5e-5 -3.071601,-0.548138 -4.25,-1.625 -1.178423,-1.097104 -1.750011,-2.424582 -1.75,-3.96875 -1.1e-5,-1.544084 0.571577,-2.871564 1.75,-3.96875 1.178399,-1.097096 2.604273,-1.656203 4.25,-1.65625 z m -5.59375,16.25 c 2.417762,3.1e-5 4.293416,0.602866 5.59375,1.78125 1.320617,1.158121 1.93748,2.693322 1.9375,4.5625 -2.6e-5,0.386058 -0.02343,1.056035 -0.125,2.03125 -0.08128,0.975259 -0.256208,1.843571 -0.5,2.65625 l -2.5,8.875 c -0.203189,0.711117 -0.368725,1.523222 -0.53125,2.4375 -0.16256,0.914292 -0.250015,1.595204 -0.25,2.0625 -1.5e-5,1.178425 0.252982,2.01084 0.78125,2.4375 0.528239,0.426674 1.449666,0.625 2.75,0.625 0.609506,0 1.321667,-0.109304 2.09375,-0.3125 0.772042,-0.223499 1.31083,-0.399946 1.65625,-0.5625 l -0.65625,2.75 c -2.011448,0.792375 -3.645038,1.374901 -4.84375,1.78125 -1.198745,0.426673 -2.571501,0.625 -4.15625,0.625 -2.438104,0 -4.357487,-0.571587 -5.71875,-1.75 -1.340957,-1.198724 -2.000004,-2.702678 -2,-4.53125 -5e-6,-0.711104 0.0859,-1.456059 0.1875,-2.1875 0.101587,-0.751727 0.214004,-1.596634 0.4375,-2.53125 l 2.5,-8.875 c 0.223484,-0.853313 0.420271,-1.654483 0.5625,-2.40625 0.16253,-0.772041 0.249993,-1.463886 0.25,-2.09375 -8e-6,-1.137753 -0.251457,-1.927989 -0.71875,-2.375 -0.467307,-0.446959 -1.335622,-0.718724 -2.65625,-0.71875 -0.650163,2.6e-5 -1.30921,0.140615 -2,0.34375 -0.670477,0.203201 -1.262383,0.41092 -1.75,0.59375 l 0.65625,-2.75 c 1.645711,-0.670448 3.246504,-1.251419 4.75,-1.71875 1.503484,-0.487589 2.909037,-0.749969 4.25,-0.75 z"
         id="path3732"
         style="fill:#ff00ff;fill-opacity:1;fill-rule:nonzero;stroke:none" />
    </clipPath>
    <filter
       x="-0.23495482"
       y="-0.1038125"
       width="1.4699095"
       height="1.207625"
       color-interpolation-filters="sRGB"
       id="filter3738">
      <feGaussianBlur
         id="feGaussianBlur3740"
         stdDeviation="2.07625" />
    </filter>
    <linearGradient
       id="linearGradient3737-9">
      <stop
         id="stop3739-2"
         style="stop-color:#ffffff;stop-opacity:1"
         offset="0" />
      <stop
         id="stop3741-1"
         style="stop-color:#ffffff;stop-opacity:0"
         offset="1" />
    </linearGradient>
    <clipPath
       id="clipPath3613">
      <rect
         width="84"
         height="84"
         rx="6"
         ry="6"
         x="6"
         y="6"
         id="rect3615"
         style="fill:#ffffff;fill-opacity:1;fill-rule:nonzero;stroke:none" />
    </clipPath>
    <filter
       x="-0.192"
       y="-0.192"
       width="1.3839999"
       height="1.3839999"
       color-interpolation-filters="sRGB"
       id="filter3794">
      <feGaussianBlur
         id="feGaussianBlur3796"
         stdDeviation="5.28" />
    </filter>
    <linearGradient
       x1="48"
       y1="20.220806"
       x2="48"
       y2="138.66119"
       id="linearGradient4504"
       xlink:href="#linearGradient3737-9"
       gradientUnits="userSpaceOnUse" />
    <clipPath
       id="clipPath3613-0">
      <rect
         width="84"
         height="84"
         rx="6"
         ry="6"
         x="6"
         y="6"
         id="rect3615-7"
         style="fill:#ffffff;fill-opacity:1;fill-rule:nonzero;stroke:none" />
    </clipPath>
    <filter
       x="-0.192"
       y="-0.192"
       width="1.3839999"
       height="1.3839999"
       color-interpolation-filters="sRGB"
       id="filter3794-8">
      <feGaussianBlur
         id="feGaussianBlur3796-6"
         stdDeviation="5.28" />
    </filter>
    <radialGradient
       inkscape:collect="always"
       xlink:href="#linearGradient3737-0"
       id="radialGradient3082"
       gradientUnits="userSpaceOnUse"
       gradientTransform="matrix(1.1573129,0,0,0.99590774,-55.551021,1.0698591)"
       cx="48"
       cy="90.171875"
       fx="48"
       fy="90.171875"
       r="42" />
    <linearGradient
       inkscape:collect="always"
       xlink:href="#linearGradient3737-1"
       id="linearGradient3085"
       gradientUnits="userSpaceOnUse"
       x1="36.357143"
       y1="6"
       x2="36.357143"
       y2="63.893143"
       gradientTransform="translate(-59.927273,-2.0363637)" />
    <linearGradient
       inkscape:collect="always"
       xlink:href="#linearGradient3700"
       id="linearGradient3088"
       gradientUnits="userSpaceOnUse"
       x1="48"
       y1="90"
       x2="48"
       y2="5.9877172"
       gradientTransform="translate(-111.70909,-20.363636)" />
    <linearGradient
       inkscape:collect="always"
       xlink:href="#linearGradient3876"
       id="linearGradient3882"
       x1="-63.258709"
       y1="171.63637"
       x2="-48.450378"
       y2="58.763638"
       gradientUnits="userSpaceOnUse"
       gradientTransform="translate(100.65455,-41.018182)" />
    <linearGradient
       inkscape:collect="always"
       xlink:href="#linearGradient3876"
       id="linearGradient3891"
       gradientUnits="userSpaceOnUse"
       gradientTransform="translate(100.65455,-41.018182)"
       x1="-63.258709"
       y1="171.63637"
       x2="-48.450378"
       y2="58.763638" />
  </defs>
  <g
     id="layer2"
     style="display:none">
    <rect
       width="86"
       height="85"
       rx="6"
       ry="6"
       x="5"
       y="7"
       id="rect3745"
       style="opacity:0.9;fill:url(#ButtonShadow);fill-opacity:1;fill-rule:nonzero;stroke:none;filter:url(#filter3174)" />
  </g>
  <g
     style="display:inline"
     transform="translate(-0.01497827,0.06380715)"
     id="g6928">
    <rect
       y="1.1099218"
       x="1.1906184"
       height="93.652542"
       width="93.64872"
       id="rect3109"
       style="opacity:0.79183673;fill:#000000;fill-opacity:1;stroke:#00ffff;stroke-width:2.35127115;stroke-miterlimit:4;stroke-opacity:1;stroke-dasharray:none" />
    <g
       style="fill:#00ffff"
       transform="matrix(1.0719614,0,0,1.0719614,-3.6234203,-3.0995997)"
       id="layer4-2">
      <rect
         style="opacity:0.15;fill:#00ffff;fill-opacity:1;fill-rule:nonzero;stroke:#ffffff;stroke-width:0.5;stroke-linecap:round;stroke-linejoin:miter;stroke-miterlimit:4;stroke-opacity:1;stroke-dasharray:none;stroke-dashoffset:0;filter:url(#filter3794-8)"
         id="rect3171-2"
         clip-path="url(#clipPath3613-0)"
         y="15"
         x="15"
         ry="12"
         rx="12"
         height="66"
         width="66" />
    </g>
  </g>
  <g
     id="g3884"
     transform="matrix(1.2474129,0,0,1.2474129,-11.277867,-9.990932)">
    <path
       d="m 51.238067,21.09091 c -1.64573,4.7e-5 -3.0716,0.559154 -4.25,1.65625 -1.17842,1.097186 -1.75001,2.424666 -1.75,3.96875 0,0.150259 0.0204,0.291535 0.0312,0.4375 0.12551,-1.30151 0.68763,-2.446212 1.71875,-3.40625 1.1784,-1.097096 2.60427,-1.656203 4.25,-1.65625 1.6457,4.7e-5 3.02939,0.559154 4.1875,1.65625 1.03109,0.960038 1.59322,2.10474 1.71875,3.40625 0.0109,-0.145965 0.0312,-0.287241 0.0312,-0.4375 -2e-5,-1.544084 -0.57161,-2.871564 -1.75,-3.96875 -1.15811,-1.097096 -2.5418,-1.656203 -4.1875,-1.65625 z m -5.59375,16.25 c -1.34096,3.1e-5 -2.74651,0.262411 -4.25,0.75 -1.50349,0.467331 -3.10429,1.048302 -4.75,1.71875 l -0.65625,2.75 c 0.0704,-0.0264 0.17531,-0.06677 0.25,-0.09375 l 0.40625,-1.65625 c 1.64571,-0.670448 3.24651,-1.251419 4.75,-1.71875 1.50349,-0.487589 2.90904,-0.749969 4.25,-0.75 2.41776,3.1e-5 4.29342,0.602866 5.59375,1.78125 1.2682,1.112154 1.8888,2.575811 1.9375,4.34375 0.0186,-0.340258 -1e-5,-0.588221 0,-0.78125 -2e-5,-1.869178 -0.61688,-3.404379 -1.9375,-4.5625 -1.30033,-1.178384 -3.17599,-1.781219 -5.59375,-1.78125 z m -2.5625,7.9375 c -0.0346,0.475852 -0.10191,0.976252 -0.21875,1.53125 -0.14223,0.751767 -0.33901,1.552937 -0.5625,2.40625 l -2.5,8.875 c -0.22349,0.934616 -0.33591,1.779523 -0.4375,2.53125 -0.1016,0.731441 -0.1875,1.476396 -0.1875,2.1875 0,0.185133 0.0177,0.35256 0.0312,0.53125 0.0209,-0.562821 0.0764,-1.144131 0.15625,-1.71875 0.10159,-0.751727 0.21401,-1.596634 0.4375,-2.53125 l 2.5,-8.875 c 0.22349,-0.853313 0.42027,-1.654483 0.5625,-2.40625 0.16253,-0.772041 0.24999,-1.463886 0.25,-2.09375 0,-0.159177 -0.0219,-0.291915 -0.0312,-0.4375 z m 6.21875,16.9375 c -0.0157,0.184254 -0.0313,0.389519 -0.0312,0.53125 -1e-5,1.178425 0.25298,2.01084 0.78125,2.4375 0.52824,0.426674 1.44967,0.625 2.75,0.625 0.60951,0 1.32167,-0.109304 2.09375,-0.3125 0.62528,-0.181012 1.06319,-0.326653 1.40625,-0.46875 l 0.25,-1.09375 c -0.34542,0.162554 -0.88421,0.339001 -1.65625,0.5625 -0.77208,0.203196 -1.48424,0.3125 -2.09375,0.3125 -1.30033,0 -2.22176,-0.198326 -2.75,-0.625 -0.45213,-0.365171 -0.685,-1.050977 -0.75,-1.96875 z"
       id="path3702"
       style="font-size:48px;font-style:italic;font-variant:normal;font-weight:bold;font-stretch:normal;text-align:start;line-height:100%;writing-mode:tb-rl;text-anchor:start;opacity:0.2;fill:#000000;fill-opacity:1;stroke:none;display:inline;font-family:Georgia;-inkscape-font-specification:Georgia Bold Italic"
       inkscape:connector-curvature="0" />
    <path
       d="m 45.378409,25.823864 c -0.01086,0.145959 -0.03125,0.287249 -0.03125,0.4375 -1.1e-5,1.544168 0.571577,2.871646 1.75,3.96875 1.178399,1.076862 2.604273,1.625035 4.25,1.625 1.645696,3.5e-5 3.029386,-0.548138 4.1875,-1.625 1.178391,-1.097104 1.74998,-2.424582 1.75,-3.96875 -2e-6,-0.150251 -0.02039,-0.291541 -0.03125,-0.4375 -0.12553,1.301565 -0.687658,2.446284 -1.71875,3.40625 -1.158114,1.076862 -2.541804,1.625035 -4.1875,1.625 -1.645727,3.5e-5 -3.071601,-0.548138 -4.25,-1.625 -1.03112,-0.959966 -1.593241,-2.104685 -1.71875,-3.40625 z m -5.53125,14.34375 c -0.650163,2.6e-5 -1.30921,0.140615 -2,0.34375 -0.573654,0.173857 -1.057487,0.340149 -1.5,0.5 l -0.25,1.09375 c 0.487617,-0.18283 1.079523,-0.390549 1.75,-0.59375 0.69079,-0.203135 1.349837,-0.343724 2,-0.34375 1.320628,2.6e-5 2.188943,0.271791 2.65625,0.71875 0.401917,0.384472 0.629736,1.042486 0.6875,1.9375 0.01355,-0.186091 0.03125,-0.385427 0.03125,-0.5625 -8e-6,-1.137753 -0.251457,-1.927989 -0.71875,-2.375 -0.467307,-0.446959 -1.335622,-0.718724 -2.65625,-0.71875 z m 13.4375,2.90625 c -0.01884,0.330344 -0.07673,0.724031 -0.125,1.1875 -0.08128,0.975259 -0.256208,1.843571 -0.5,2.65625 l -2.5,8.875 c -0.203189,0.711117 -0.368725,1.523222 -0.53125,2.4375 -0.16256,0.914292 -0.250015,1.595204 -0.25,2.0625 -2e-6,0.169832 0.02031,0.314211 0.03125,0.46875 0.03616,-0.423244 0.105494,-0.894262 0.21875,-1.53125 0.162525,-0.914278 0.328061,-1.726383 0.53125,-2.4375 l 2.5,-8.875 c 0.243792,-0.812679 0.41872,-1.680991 0.5,-2.65625 0.101574,-0.975215 0.124974,-1.645192 0.125,-2.03125 -10e-7,-0.05299 0.001,-0.103828 0,-0.15625 z m -13.96875,18.9375 c -0.0031,0.112583 -0.03125,0.23179 -0.03125,0.34375 -4e-6,1.828572 0.659043,3.332526 2,4.53125 1.361263,1.178413 3.280646,1.75 5.71875,1.75 1.584749,0 2.957505,-0.198327 4.15625,-0.625 1.198712,-0.406349 2.832302,-0.988875 4.84375,-1.78125 l 0.65625,-2.75 c -0.06566,0.0309 -0.169477,0.0604 -0.25,0.09375 l -0.40625,1.65625 c -2.011448,0.792375 -3.645038,1.374901 -4.84375,1.78125 -1.198745,0.426673 -2.571501,0.625 -4.15625,0.625 -2.438104,0 -4.357487,-0.571587 -5.71875,-1.75 -1.173337,-1.048884 -1.824274,-2.343751 -1.96875,-3.875 z"
       id="path3712"
       style="font-size:48px;font-style:italic;font-variant:normal;font-weight:bold;font-stretch:normal;text-align:start;line-height:100%;writing-mode:tb-rl;text-anchor:start;fill:#00ffff;fill-opacity:1;stroke:none;display:inline;font-family:Georgia;-inkscape-font-specification:Georgia Bold Italic"
       inkscape:connector-curvature="0" />
    <path
       d="m -49.354167,24 c -1.645727,4.7e-5 -3.071601,0.569571 -4.25,1.666667 -1.178423,1.097186 -1.750011,2.414249 -1.75,3.958333 -1.1e-5,1.544168 0.571577,2.861229 1.75,3.958333 1.178399,1.076862 2.604273,1.625035 4.25,1.625 1.645696,3.5e-5 3.050219,-0.548138 4.208333,-1.625 1.178391,-1.097104 1.74998,-2.414165 1.75,-3.958333 -2e-5,-1.544084 -0.571609,-2.861147 -1.75,-3.958333 C -46.303948,24.569571 -47.708471,24.000047 -49.354167,24 z M -54.9375,40.25 c -1.340963,3.1e-5 -2.746516,0.262411 -4.25,0.75 -1.503496,0.467331 -3.104289,1.037885 -4.75,1.708333 l -0.666666,2.75 c 0.487617,-0.18283 1.079523,-0.380132 1.75,-0.583333 0.69079,-0.203135 1.349837,-0.333307 2,-0.333333 1.320628,2.6e-5 2.199359,0.261374 2.666666,0.708333 0.467293,0.447011 0.708326,1.237247 0.708334,2.375 -7e-6,0.629864 -0.08747,1.311292 -0.25,2.083333 -0.142229,0.751767 -0.318183,1.563354 -0.541667,2.416667 l -2.5,8.875 c -0.223496,0.934616 -0.356746,1.78994 -0.458333,2.541667 -0.1016,0.731441 -0.166672,1.455562 -0.166667,2.166666 -4e-6,1.828572 0.659043,3.342943 2,4.541667 1.361263,1.178413 3.27023,1.75 5.708334,1.75 1.584749,0 2.967921,-0.198327 4.166666,-0.625 1.198712,-0.406349 2.821886,-0.999292 4.833334,-1.791667 l 0.666666,-2.75 c -0.34542,0.162554 -0.894624,0.359835 -1.666666,0.583334 -0.772083,0.203196 -1.473828,0.291666 -2.083334,0.291666 -1.300334,0 -2.221761,-0.198326 -2.75,-0.625 -0.528268,-0.42666 -0.791681,-1.238241 -0.791666,-2.416666 -1.5e-5,-0.467296 0.08744,-1.169042 0.25,-2.083334 0.162525,-0.914278 0.338477,-1.705549 0.541666,-2.416666 l 2.5,-8.875 c 0.243792,-0.812679 0.41872,-1.691408 0.5,-2.666667 0.101574,-0.975215 0.124974,-1.655609 0.125,-2.041667 -2e-5,-1.869178 -0.637716,-3.383545 -1.958333,-4.541666 C -50.6545,40.863283 -52.519738,40.250031 -54.9375,40.25 z"
       transform="translate(99.70909,-2.3272721)"
       clip-path="url(#clipPath3730)"
       id="path3721"
       style="font-size:48px;font-style:italic;font-variant:normal;font-weight:bold;font-stretch:normal;text-align:start;line-height:100%;writing-mode:tb-rl;text-anchor:start;opacity:0.6;fill:#00ffff;stroke:#ffffff;stroke-width:2;stroke-miterlimit:4;stroke-dasharray:none;display:inline;filter:url(#filter3738);font-family:Georgia;-inkscape-font-specification:Georgia Bold Italic"
       inkscape:connector-curvature="0" />
    <path
       d="m 50.936741,21.672728 c -1.64573,4.7e-5 -3.0716,0.569571 -4.25,1.666667 -1.17842,1.097186 -1.75001,2.414249 -1.75,3.958333 -10e-6,1.544168 0.57158,2.861229 1.75,3.958333 1.1784,1.076862 2.60427,1.625035 4.25,1.625 1.6457,3.5e-5 3.05022,-0.548138 4.20833,-1.625 1.1784,-1.097104 1.74998,-2.414165 1.75,-3.958333 -2e-5,-1.544084 -0.5716,-2.861147 -1.75,-3.958333 -1.15811,-1.097096 -2.56263,-1.66662 -4.20833,-1.666667 z m -5.58333,16.25 c -1.34096,3.1e-5 -2.74652,0.262411 -4.25,0.75 -1.5035,0.467331 -3.10429,1.037885 -4.75,1.708333 l -0.66667,2.75 c 0.48762,-0.18283 1.07953,-0.380132 1.75,-0.583333 0.69079,-0.203135 1.34984,-0.333307 2,-0.333333 1.32063,2.6e-5 2.19936,0.261374 2.66667,0.708333 0.46729,0.447011 0.70832,1.237247 0.70833,2.375 0,0.629864 -0.0875,1.311292 -0.25,2.083333 -0.14223,0.751767 -0.31818,1.563354 -0.54166,2.416667 l -2.5,8.875 c -0.2235,0.934616 -0.35675,1.78994 -0.45834,2.541667 -0.1016,0.731441 -0.16667,1.455562 -0.16666,2.166666 -10e-6,1.828572 0.65904,3.342943 2,4.541667 1.36126,1.178413 3.27023,1.75 5.70833,1.75 1.58475,0 2.96792,-0.198327 4.16667,-0.625 1.19871,-0.406349 2.82188,-0.999292 4.83333,-1.791667 l 0.66667,-2.75 c -0.34542,0.162554 -0.89463,0.359835 -1.66667,0.583334 -0.77208,0.203196 -1.47383,0.291666 -2.08333,0.291666 -1.30034,0 -2.22177,-0.198326 -2.75,-0.625 -0.52827,-0.42666 -0.79169,-1.238241 -0.79167,-2.416666 -2e-5,-0.467296 0.0874,-1.169042 0.25,-2.083334 0.16252,-0.914278 0.33848,-1.705549 0.54167,-2.416666 l 2.5,-8.875 c 0.24379,-0.812679 0.41872,-1.691408 0.5,-2.666667 0.10157,-0.975215 0.12497,-1.655609 0.125,-2.041667 -2e-5,-1.869178 -0.63772,-3.383545 -1.95834,-4.541666 -1.30033,-1.178384 -3.16557,-1.791636 -5.58333,-1.791667 z"
       id="path3659"
       style="font-size:48px;font-style:italic;font-variant:normal;font-weight:bold;font-stretch:normal;text-align:start;line-height:100%;writing-mode:tb-rl;text-anchor:start;fill:#00ffff;fill-opacity:1;stroke:none;display:inline;font-family:Georgia;-inkscape-font-specification:Georgia Bold Italic"
       inkscape:connector-curvature="0" />
    <path
       d="m 50.90038,21.381818 c -1.64573,4.7e-5 -3.0716,0.569571 -4.25,1.666667 -1.17842,1.097186 -1.75001,2.414249 -1.75,3.958333 -10e-6,1.544168 0.57158,2.861229 1.75,3.958333 1.1784,1.076862 2.60427,1.625035 4.25,1.625 1.6457,3.5e-5 3.05022,-0.548138 4.20833,-1.625 1.1784,-1.097104 1.74998,-2.414165 1.75,-3.958333 -2e-5,-1.544084 -0.5716,-2.861147 -1.75,-3.958333 -1.15811,-1.097096 -2.56263,-1.66662 -4.20833,-1.666667 z m -5.58333,16.25 c -1.34096,3.1e-5 -2.74652,0.262411 -4.25,0.75 -1.5035,0.467331 -3.10429,1.037885 -4.75,1.708333 l -0.66667,2.75 c 0.48762,-0.18283 1.07953,-0.380132 1.75,-0.583333 0.69079,-0.203135 1.34984,-0.333307 2,-0.333333 1.32063,2.6e-5 2.19936,0.261374 2.66667,0.708333 0.46729,0.447011 0.70832,1.237247 0.70833,2.375 0,0.629864 -0.0875,1.311292 -0.25,2.083333 -0.14223,0.751767 -0.31818,1.563354 -0.54166,2.416667 l -2.5,8.875 c -0.2235,0.93462 -0.35675,1.78994 -0.45834,2.54167 -0.1016,0.73144 -0.16667,1.45556 -0.16666,2.16666 -10e-6,1.82857 0.65904,3.34295 2,4.54167 1.36126,1.17841 3.27023,1.75 5.70833,1.75 1.58475,0 2.96792,-0.19833 4.16667,-0.625 1.19871,-0.40635 2.82188,-0.99929 4.83333,-1.79167 l 0.66667,-2.75 c -0.34542,0.16256 -0.89463,0.35984 -1.66667,0.58334 -0.77208,0.20319 -1.47383,0.29166 -2.08333,0.29166 -1.30034,0 -2.22177,-0.19832 -2.75,-0.625 -0.52827,-0.42666 -0.79169,-1.23824 -0.79167,-2.41666 -2e-5,-0.4673 0.0874,-1.16904 0.25,-2.08334 0.16252,-0.91428 0.33848,-1.705546 0.54167,-2.416663 l 2.5,-8.875 c 0.24379,-0.812679 0.41872,-1.691408 0.5,-2.666667 0.10157,-0.975215 0.12497,-1.655609 0.125,-2.041667 -2e-5,-1.869178 -0.63772,-3.383545 -1.95834,-4.541666 -1.30033,-1.178384 -3.16557,-1.791636 -5.58333,-1.791667 z"
       id="path3659-0"
       style="font-size:48px;font-style:italic;font-variant:normal;font-weight:bold;font-stretch:normal;text-align:start;line-height:100%;writing-mode:tb-rl;text-anchor:start;fill:url(#linearGradient3891);fill-opacity:1;stroke:none;display:inline;font-family:Georgia;-inkscape-font-specification:Georgia Bold Italic"
       inkscape:connector-curvature="0" />
  </g>
</svg>
