<svg viewBox="0 0 48 48" xmlns="http://www.w3.org/2000/svg" xmlns:xlink="http://www.w3.org/1999/xlink"><linearGradient id="a" gradientUnits="userSpaceOnUse" x1="2.571" x2="42.906" y1="4.87" y2="42.701"><stop offset="0" stop-color="#ff01d5"/><stop offset="1" stop-color="#16c2e9"/></linearGradient><g fill="none" stroke="url(#a)" stroke-linecap="round" stroke-linejoin="round" stroke-width="1.8"><path d="m30.374 16.365a5.886 5.886 0 0 0 -3.924 1.724 5.877 5.877 0 0 0 -1.733 4.184c0 1.58.615 3.066 1.733 4.184.396.396.615.924.615 1.484a2.098 2.098 0 0 1 -2.23 2.095.455.455 0 0 0 -.124.01 3.109 3.109 0 0 0 -.215-.01h-.046a5.887 5.887 0 0 0 -4.015 1.727 5.867 5.867 0 0 0 -1.73 4.177c0 1.232.374 2.413 1.082 3.415.21.297.423.551.648.775.082.083.168.159.255.234l.03.027a.47.47 0 0 0 .037.041c5.503 5.501 14.458 5.501 19.96-.002a14.02 14.02 0 0 0 4.136-9.98 14.021 14.021 0 0 0 -4.134-9.982 14.004 14.004 0 0 0 -10.197-4.132.459.459 0 0 0 -.148.03z"/><path d="m31.742 22.298c0 .594.232 1.154.653 1.573a2.21 2.21 0 0 0 1.575.654 2.21 2.21 0 0 0 1.575-.653c.421-.42.653-.98.653-1.575s-.23-1.155-.653-1.576a2.233 2.233 0 0 0 -3.151 0 2.22 2.22 0 0 0 -.652 1.577zm5.883 8.194c0 .595.232 1.153.653 1.575.42.42.98.652 1.575.652a2.21 2.21 0 0 0 1.576-.652 2.21 2.21 0 0 0 .652-1.575 2.21 2.21 0 0 0 -.652-1.576 2.212 2.212 0 0 0 -1.576-.652c-.596 0-1.154.232-1.575.652a2.215 2.215 0 0 0 -.653 1.576zm-5.695 6.438a2.213 2.213 0 0 0 -.652 1.575c0 .595.232 1.155.652 1.575a2.214 2.214 0 0 0 1.577.653 2.21 2.21 0 0 0 1.574-.652c.42-.421.652-.981.652-1.576a2.23 2.23 0 0 0 -3.803-1.575zm-10.567-1.45c0 .567.205 1.084.577 1.456.87.868 2.415.737 3.445-.295.554-.554.871-1.278.871-1.989 0-.565-.205-1.082-.577-1.454-.869-.868-2.415-.737-3.445.294-.553.554-.871 1.278-.871 1.99zm-19.818.09c5.184-1.318 6.873-2.812 6.414-6.33-3.632-.315-4.387 1.224-6.522 5.395l1.3-1.029"/><path d="m7.957 29.392c6.465 1.128 22.543-20.722 25.228-25.56-5.099 2.616-26.657 19.324-25.227 25.561"/><path d="m7.957 29.392c1.747.305 4.196-1.127 6.894-3.39l-3.732-3.489c-2.196 2.733-3.54 5.188-3.163 6.878"/></g></svg>