<svg viewBox="0 0 48 48" xmlns="http://www.w3.org/2000/svg" xmlns:xlink="http://www.w3.org/1999/xlink"><linearGradient id="a" gradientUnits="userSpaceOnUse" x1="10" x2="38.001" y1="23.995" y2="23.995"><stop offset="0" stop-color="#ff0001"/><stop offset="1" stop-color="#ea2626"/></linearGradient><path d="m47.135 13.831c-5.354 4.763-21.361 22.721-24.075 22.721-1.78 0-3.28-1.244-3.78-3.153-.288-1.17.153.31-15.855 7.488 1.604-1.024 12.83-9.647 14.293-10.696 1.459-1.043 8.66-6.097 10.764-7.708 3.854-3 5.354-5.422 5.354-8.714 0-2.568-1.576-4.104-4.066-4.104-1.561 0-2.713.365-4.354 1.317-2.707 1.616-5.134 3.592-6.634 5.348-2.707 3.372-5.135 11.427-5.135 17.36 0 4.323 2.214 7.03 5.848 7.03 4.207 0 19.007-14.404 24.641-20.19l3-6.708m-27.994 12.843c1.213-7.837 4.494-13.922 7.561-13.922 1.213 0 2 1.25 2 3.007 0 3.665-1.926 5.86-9.561 10.915" opacity=".1"/><path d="m38 16.664c-3.43 3.051-13.684 14.555-15.422 14.555-1.141 0-2.102-.797-2.422-2.02-.184-.75.098.199-10.156 4.797 1.027-.656 8.219-6.18 9.156-6.852.934-.668 5.547-3.906 6.895-4.938 2.469-1.922 3.43-3.473 3.43-5.582 0-1.645-1.01-2.629-2.605-2.629-1 0-1.738.234-2.789.844-1.734 1.035-3.289 2.301-4.25 3.426-1.734 2.16-3.289 7.32-3.289 11.12 0 2.77 1.418 4.504 3.746 4.504 2.695 0 12.176-9.227 15.785-12.934l1.922-4.297m-17.934 8.227c.777-5.02 2.879-8.918 4.844-8.918.777 0 1.281.801 1.281 1.926 0 2.348-1.234 3.754-6.125 6.992" fill="url(#a)" transform="matrix(1.56106 0 0 1.56106 -13.746 -13.743)"/></svg>