<svg viewBox="0 0 48 48" xmlns="http://www.w3.org/2000/svg" xmlns:xlink="http://www.w3.org/1999/xlink"><linearGradient id="a" gradientUnits="userSpaceOnUse" x1="14.514" x2="35.49" y1="14.849" y2="36.01"><stop offset="0" stop-color="#00b2ff"/><stop offset="1" stop-color="#6200ff" stop-opacity=".957"/></linearGradient><g fill="none" stroke="url(#a)" stroke-linecap="round" stroke-linejoin="round" transform="matrix(1.52003 0 0 1.52003 -12.481 -12.48)"><path d="m33.723 17.801-9.707 1.684-9.656-1.703c-1.344-.215-1.773.91-.879 1.316l7.535 2.387v5.5l-2.691 7.742c-.309.965.848 1.789 1.398.879l4.293-8.621 4.242 8.605c.613.82 1.93.395 1.445-.781l-2.688-7.824v-5.5l7.637-2.414c.719-.375.234-1.441-.93-1.27m0 0"/><path d="m27.02 14.984a3.001 3.001 0 0 1 -6 0 3.001 3.001 0 0 1 6 0m0 0"/></g></svg>