<svg height="64" width="64" xmlns="http://www.w3.org/2000/svg" xmlns:xlink="http://www.w3.org/1999/xlink"><linearGradient id="a" gradientUnits="userSpaceOnUse" x1="1.693" x2="62.307" y1="-1011.692" y2="-1011.692"><stop offset="0" stop-color="#ff7800"/><stop offset="1" stop-color="#ff0404"/></linearGradient><g fill="none" stroke="url(#a)" stroke-linecap="round" stroke-linejoin="round" stroke-width="1.525" transform="matrix(1.37271 0 0 1.37271 -12.697 -11.727)"><path d="m37.168 44.301c5.63 0 10.212-4.58 10.212-10.211s-4.581-10.212-10.212-10.212c-5.63 0-10.212 4.58-10.212 10.212 0 5.63 4.581 10.211 10.212 10.211z"/><path d="m48.914 19.814h-1.664a4.513 4.513 0 0 0 -4.492-4.142h-11.181a4.513 4.513 0 0 0 -4.492 4.142h-1.736v-1.066c0-1.563-1.89-2.743-4.395-2.743s-4.394 1.18-4.394 2.743v1.066h-.25a5.054 5.054 0 0 0 -5.047 5.047v18.799a5.053 5.053 0 0 0 5.048 5.048h32.603a5.053 5.053 0 0 0 5.048-5.048v-18.799a5.053 5.053 0 0 0 -5.048-5.047z"/><path d="m16.35 26.65c0-.594.957-1.077 1.551-1.077s1.552.483 1.552 1.077v15.81c0 .594-.958 1.078-1.552 1.078s-1.552-.483-1.552-1.078zm20.818 1.764a5.681 5.681 0 0 1 5.675 5.676 5.681 5.681 0 0 1 -5.675 5.675 5.681 5.681 0 0 1 -5.675-5.675 5.681 5.681 0 0 1 5.675-5.676zm11.204-4.14c1.332.071 1.332 2.036 0 2.107-1.332-.071-1.332-2.036 0-2.107z"/></g></svg>