<svg viewBox="0 0 48 48" xmlns="http://www.w3.org/2000/svg" xmlns:xlink="http://www.w3.org/1999/xlink"><linearGradient id="a"><stop offset="0" stop-color="#f10c86"/><stop offset="1" stop-color="#f10c86" stop-opacity="0"/></linearGradient><linearGradient id="b"><stop offset="0" stop-color="#11c6f8"/><stop offset="1" stop-color="#ff007f"/></linearGradient><linearGradient id="c" gradientUnits="userSpaceOnUse" x1="3.924" x2="10.568" xlink:href="#b" y1="6.914" y2="6.914"/><linearGradient id="d" gradientUnits="userSpaceOnUse" x1="5.684" x2="9.374" xlink:href="#b" y1="6.915" y2="6.915"/><linearGradient id="e" gradientUnits="userSpaceOnUse" x1="3.86" x2="4.989" xlink:href="#a" y1="9.17" y2="9.17"/><linearGradient id="f" gradientUnits="userSpaceOnUse" x1="3.86" x2="4.989" xlink:href="#a" y1="8.041" y2="8.041"/><linearGradient id="g" gradientUnits="userSpaceOnUse" x1="3.86" x2="4.989" xlink:href="#a" y1="6.912" y2="6.912"/><linearGradient id="h" gradientUnits="userSpaceOnUse" x1="3.86" x2="4.989" y1="5.783" y2="5.783"><stop offset="0" stop-color="#f10c86"/><stop offset="1" stop-color="#f10cee" stop-opacity="0"/></linearGradient><linearGradient id="i" gradientUnits="userSpaceOnUse" x1="3.86" x2="4.989" xlink:href="#a" y1="4.654" y2="4.654"/><g transform="matrix(5.1649 0 0 5.1649 -12.658 -11.528)"><rect fill="none" height="6.773" rx="1" stroke="url(#c)" stroke-width=".477" width="5.644" x="4.424" y="3.526"/><rect fill="#ffb800" height="1.129" rx=".25" width=".847" x="9.828" y="7.986"/><rect fill="url(#h)" height=".564" rx=".15" width="1.129" x="3.86" y="5.501"/><rect fill="url(#g)" height=".564" rx=".15" width="1.129" x="3.86" y="6.63"/><rect fill="url(#f)" height=".564" rx=".15" width="1.129" x="3.86" y="7.759"/><rect fill="url(#e)" height=".564" rx=".15" width="1.129" x="3.86" y="8.888"/><rect fill="url(#i)" height=".564" rx=".15" width="1.129" x="3.86" y="4.372"/><path d="m7.292 8.885c-.412-.017-.69-.048-.906-.102-.247-.062-.423-.155-.495-.263-.05-.075-.059-.113-.055-.254.003-.119.003-.12.031-.178.07-.143.198-.265.435-.412.117-.073.36-.19.531-.259.171-.068.21-.095.247-.175a.202.202 0 0 0 .023-.108c0-.094-.017-.142-.075-.206a1.642 1.642 0 0 1 -.4-1.037c0-.397.171-.707.473-.856a.902.902 0 0 1 .394-.096c.423-.016.772.218.891.6.063.201.064.47.004.707-.059.23-.19.492-.327.647-.07.081-.078.093-.093.162a.373.373 0 0 0 .012.22c.028.058.064.084.171.122.56.2.953.465 1.051.706.017.041.018.057.018.183 0 .134 0 .14-.022.184-.09.192-.374.315-.87.378a9.13 9.13 0 0 1 -1.038.04z" fill="none" stroke="url(#d)" stroke-width=".303"/><g fill="#ffb800"><rect height="1.129" rx=".25" width=".847" x="9.828" y="4.545"/><rect height="1.129" rx=".25" width=".847" x="9.828" y="6.272"/></g></g></svg>