<svg viewBox="0 0 48 48" xmlns="http://www.w3.org/2000/svg" xmlns:xlink="http://www.w3.org/1999/xlink"><linearGradient id="a"><stop offset="0" stop-color="#ff6a00"/><stop offset="1" stop-color="#ff0038"/></linearGradient><linearGradient id="b" gradientUnits="userSpaceOnUse" x1="6.6925828" x2="38.48602468" xlink:href="#a" y1="37.94685176" y2="37.94685176"/><linearGradient id="c" gradientUnits="userSpaceOnUse" x1="13.7065192" x2="35.15331616" xlink:href="#a" y1="20.41735076" y2="20.41735076"/><path d="m26.928 21.983c0 1.833.046 3.358-.839 4.981-.712 1.32-1.844 2.132-3.104 2.132-1.723 0-2.724-1.371-2.724-3.398 0-4.002 3.427-4.73 6.668-4.73v1.016m4.524 11.44a.901.901 0 0 1 -1.057.114c-1.487-1.294-1.755-1.896-2.577-3.132-2.461 2.629-4.201 3.415-7.396 3.415-3.775 0-6.717-2.435-6.717-7.311 0-3.808 1.975-6.405 4.781-7.673 2.43-1.12 5.835-1.32 8.438-1.63v-.607c0-1.115.084-2.435-.54-3.398-.55-.865-1.596-1.22-2.519-1.22-1.712 0-3.236.917-3.608 2.817-.079.424-.371.839-.78.86l-4.352-.486c-.365-.089-.77-.4-.67-.985 1.005-5.51 5.771-7.176 10.034-7.176 2.185 0 5.039.608 6.758 2.336 2.184 2.132 1.973 4.976 1.973 8.073v7.31c0 2.2.87 3.162 1.693 4.352.289.42.352.932-.01 1.246a215.787 215.787 0 0 0 -3.441 3.116l-.015-.015" fill="none" stroke="url(#c)" stroke-width="1.341"/><g fill-rule="evenodd"><path d="m38.201 37.2c-3.818 2.879-9.347 4.42-14.113 4.42-6.677 0-12.69-2.531-17.241-6.745-.357-.33-.037-.78.392-.524 4.908 2.927 10.983 4.687 17.253 4.687 4.225 0 8.881-.896 13.156-2.761.65-.277 1.19.435.555.918" fill="url(#b)"/><path d="m39.79 35.338c-.488-.64-3.227-.305-4.452-.152-.377.046-.435-.289-.094-.53 2.179-1.571 5.761-1.12 6.175-.591.419.53-.106 4.206-2.158 5.96-.314.271-.613.126-.472-.231.456-1.179 1.492-3.819 1-4.457" fill="#ff0436"/></g></svg>