<svg height="48" width="48" xmlns="http://www.w3.org/2000/svg" xmlns:xlink="http://www.w3.org/1999/xlink"><linearGradient id="a" gradientUnits="userSpaceOnUse" x1="6.756" x2="44.986" y1="1106.84" y2="1106.84"><stop offset="0" stop-color="#0df853"/><stop offset="1" stop-color="#ffc600"/></linearGradient><linearGradient id="b" gradientUnits="userSpaceOnUse" x1="15.369" x2="32.631" y1="14.938" y2="14.938"><stop offset="0" stop-color="#d8005c"/><stop offset="1" stop-color="#f03"/></linearGradient><g fill="none" stroke-width="2"><g stroke="url(#a)" stroke-linecap="round" stroke-linejoin="round" stroke-opacity=".984" transform="translate(0 -1074.52)"><path d="m26.708 1100.574 9.12 16.91 4.747 3.134-.341-5.677-9.86-18.281"/><path d="m17.779 1096.841-9.972 16.827-.34 5.678 4.746-3.133 2.465-4.27c.827-1.328-.775 1.552 2.537-4.394l4.257-7.048m-4.257 7.048-2.537 4.395a20.35 20.35 0 0 0 9.322 2.314c11.239 0 20.35-9.11 20.35-20.35h-5.088c0 8.43-6.833 15.264-15.262 15.264a15.262 15.262 0 0 1 -6.785-1.623z"/></g><path d="m21.457 2.855v5.088h-2.545c-2.544 0-2.543 2.578-2.543 2.578v10.303l5.088 5.088c1.69 1.365 3.518 1.589 5.086 0l5.088-5.088v-10.303c0-2.543-2.543-2.578-2.543-2.578h-2.545v-5.088zm2.543 10.176a2.544 2.544 0 0 1 2.543 2.543 2.544 2.544 0 0 1 -2.543 2.543 2.544 2.544 0 0 1 -2.543-2.543 2.544 2.544 0 0 1 2.543-2.543z" stroke="url(#b)"/></g></svg>