<svg viewBox="0 0 48 48" xmlns="http://www.w3.org/2000/svg" xmlns:xlink="http://www.w3.org/1999/xlink"><linearGradient id="a" gradientTransform="matrix(1.50577 0 0 1.45667 -17.987 -27.09)" gradientUnits="userSpaceOnUse" x1="14.359" x2="41.647" y1="35.007" y2="35.007"><stop offset="0" stop-color="#9717f2"/><stop offset="1" stop-color="#ff00b0"/></linearGradient><path d="m9.322 20.93c-.992-.286-4.518 1.458-4.518 1.458 1.784-6.388 12.047-11.653 12.047-11.653-1.089-.39-4.518 0-4.518 0 8.022-7.55 18.07-4.37 18.07-4.37.294-1.65 4.517-4.37 4.517-4.37-.497.48 0 2.913 0 2.913.495-.873 1.677-1.56 1.677-1.56-.892 2.032 0 6.389 0 6.389 2.573 2.519 5.445 11.237 5.445 11.237l1.091 1.55c1.387 1.94.878 4.265-.496 4.986-3.85 2.23-5.646-1.497-5.646-1.497-4.26-.487-8.095-5.084-8.095-5.084-5.739 2.905-.845 11.806 1.635 14.951 3.185 4.035-.129 9.813-.129 9.813s-9.987 0-18.575-8.949c-4.011-4.162-5.518-9.989-2.505-15.815z" fill="none" stroke="url(#a)" stroke-width="2.117"/></svg>