<svg viewBox="0 0 48 48" xmlns="http://www.w3.org/2000/svg" xmlns:xlink="http://www.w3.org/1999/xlink"><linearGradient id="a" gradientTransform="matrix(0 -1 1 0 0 48)" gradientUnits="userSpaceOnUse" x1="12.365" x2="35.945" y1="13.24" y2="34.624"><stop offset="0" stop-color="#95ff04"/><stop offset="1" stop-color="#00a691"/></linearGradient><path d="m28.418 35.957c-1.973-.324-4.535-2.586-6.875-6.06-.98-1.457-1.984-3.258-2.641-4.734-.129-.297-.18-.367-.219-.324-.078.082-.652 1.324-.953 2.066-.508 1.25-.863 2.438-1.066 3.582-.133.719-.141 2.109-.02 2.543.281 1 .895 1.422 1.852 1.258.691-.117 1.523-.492 2.41-1.094.391-.266.496-.313.648-.313.234 0 .406.125.488.352.055.152.055.199 0 .344s-.145.227-.559.504c-.574.391-1.559.891-2.055 1.051-1.316.422-2.34.266-3.066-.461-.664-.668-.938-1.746-.852-3.254.105-1.957.977-4.633 2.336-7.258l.34-.656-.258-.699c-.25-.668-.734-2.215-.734-2.332 0-.086-.148-.066-.805.094-1.5.367-2.613.84-3.41 1.438-1.57 1.18-1.156 2.508 1.195 3.832.375.215.461.328.461.609 0 .145-.027.203-.148.324-.258.258-.496.203-1.293-.289-1.148-.715-1.875-1.523-2.133-2.383-.094-.313-.094-.941 0-1.258.133-.457.363-.82.777-1.234.922-.93 2.457-1.645 4.559-2.125.43-.098.527-.133.512-.188a10.803 10.803 0 0 1 -.113-.547c-.285-1.531-.293-3.289-.02-4.266.316-1.121.887-1.793 1.797-2.105.371-.125 1.117-.105 1.621.047.516.152 1.148.465 1.715.844.668.449.867.637.895.855.063.5-.449.77-.871.453-1.32-.98-2.262-1.359-3.02-1.199-.551.117-.969.68-1.18 1.586-.086.359-.098.531-.098 1.426 0 1.02.016 1.18.199 2.246l.094.535.219-.027a44.916 44.916 0 0 1 2.418-.238l.637-.035.098-.125c1.078-1.383 2.641-3 3.828-3.953 2.27-1.82 4.215-2.453 5.555-1.805.758.363 1.234 1.113 1.422 2.223.121.723.023 2.438-.164 2.922-.063.164-.273.285-.5.285a.4.4 0 0 1 -.324-.129c-.133-.113-.141-.148-.141-.379 0-.137.035-.535.082-.879.125-1 .035-1.938-.234-2.473-.137-.262-.406-.539-.645-.652-.176-.09-.266-.102-.68-.102-.43 0-.516.016-.945.164-1.324.449-2.84 1.539-4.473 3.199-.309.32-.777.82-1.035 1.121l-.473.539.41.012c5.742.137 10.582 1.457 12.863 3.504.512.461.957 1.148 1.082 1.684.063.273.063.801.004 1.082-.23 1.039-1.379 2.066-3.051 2.727-.273.105-.316.113-.461.07a.528.528 0 0 1 -.395-.5c0-.277.129-.41.609-.613 1.035-.434 1.84-1.043 2.145-1.629.109-.199.121-.277.121-.602 0-.332-.012-.398-.145-.648-.184-.359-.797-.973-1.305-1.309-2.492-1.645-7.191-2.719-11.938-2.719h-.781l-.293.398a41.28 41.28 0 0 0 -1.781 2.707l-.336.574.23.531c2.316 5.313 5.91 9.805 8.563 10.703.578.188 1.016.191 1.367.02.656-.324 1-1.164 1.059-2.563.086-2.348-.758-5.594-2.332-8.949-.164-.348-.262-.613-.262-.711 0-.281.234-.504.523-.5.258 0 .371.102.57.52 1.281 2.672 2.129 5.355 2.449 7.695.105.785.105 2.391 0 2.965-.172.918-.477 1.578-.938 2.047-.563.566-1.297.781-2.164.641m-9.156-14.281c.164-.27.48-.746.703-1.07.223-.328.402-.605.402-.625 0-.059-2.047.152-2.105.211-.035.039.082.492.355 1.332.199.609.254.734.297.688.031-.035.188-.273.348-.535m4.371 3.887c-.652-.234-1.031-.777-1.023-1.461 0-.359.082-.602.293-.891.531-.723 1.617-.805 2.266-.172.754.727.531 2.027-.422 2.457-.324.148-.801.18-1.117.063m.004.004" fill="url(#a)" transform="matrix(1.74738 0 0 1.74738 -18.497 -17.609)"/></svg>