<svg height="48" width="48" xmlns="http://www.w3.org/2000/svg" xmlns:xlink="http://www.w3.org/1999/xlink"><linearGradient id="a" gradientUnits="userSpaceOnUse" x1="3.991" x2="60.551" y1="2.932" y2="61.227"><stop offset="0" stop-color="#ef02ff"/><stop offset="1" stop-color="#008dff"/></linearGradient><path d="m6.214 2.63a3.576 3.576 0 0 0 -3.584 3.584v21.506a3.584 3.584 0 0 1 0 7.168v7.169a3.576 3.576 0 0 0 3.584 3.584h35.843a3.576 3.576 0 0 0 3.584-3.584v-7.169a3.584 3.584 0 0 1 0-7.169v-21.505a3.576 3.576 0 0 0 -3.584-3.584z" fill="none" stroke-width=".759"/><circle cx="8.907" cy="39.76" fill="#883eff" r="1.792" stroke-width=".759"/><g fill="none" stroke="url(#a)" stroke-width="1.8" transform="matrix(.75885 0 0 .75885 -.354 -.354)"><path d="m8.655 3.932a4.713 4.713 0 0 0 -4.723 4.723v28.34a4.723 4.723 0 1 1 0 9.446v9.446a4.713 4.713 0 0 0 4.723 4.723h47.232a4.713 4.713 0 0 0 4.723-4.723v-9.446c-6.297 0-6.297-9.447 0-9.447v-28.339a4.713 4.713 0 0 0 -4.723-4.723z" stroke-width="2.504"/><path d="m16.784 16.784v30.974h30.974v-30.974zm13.274 6.637v4.426h4.426v-4.427zm0 8.637v11.063h4.426v-11.063z" stroke-width="2.372"/></g><g stroke-width=".759"><path d="m40.344 5.53h1.79v1.793h-1.79zm-1.794 1.794h1.792v1.792h-1.792zm-1.79-1.793h1.792v1.792h-1.792zm-1.792 1.792h1.792v1.792h-1.792zm-1.792-1.792h1.792v1.792h-1.792zm-1.793 1.792h1.793v1.792h-1.793zm-1.791-1.792h1.791v1.792h-1.791zm-1.793 1.792h1.793v1.792h-1.793zm-1.791-1.792h1.791v1.792h-1.791zm-1.793 1.792h1.793v1.792h-1.793z" fill="#a92bff"/><circle cx="40.209" cy="39.662" fill="#1382ff" r="1.792"/></g></svg>