<svg viewBox="0 0 48 48" xmlns="http://www.w3.org/2000/svg" xmlns:xlink="http://www.w3.org/1999/xlink"><linearGradient id="a" gradientUnits="userSpaceOnUse" x1=".38574884" x2="48.99442284" y1="24.37079628" y2="24.37079628"><stop offset="0" stop-color="#ff1700"/><stop offset="1" stop-color="#ff8509"/></linearGradient><path d="m23.228 3.104-4.406 10.28-14.685-1.469 8.805 8.811-10.28 5.874 11.749 1.469-8.806 11.748 13.217-4.405 1.463 8.81 7.343-7.342 11.748 7.343-4.406-13.217 11.748-1.469-10.28-5.874 7.343-2.937-5.874-2.931 7.343-13.217-16.154 7.337zm-.689 10.28h4.315c.43 0 .778.35.78.78l.04 10.44a.778.778 0 0 1 -.78.782h-4.314a.781.781 0 0 1 -.78-.78l-.04-10.444a.778.778 0 0 1 .779-.78m0 14.685h4.315c.43 0 .78.35.78.78v4.315a.78.78 0 0 1 -.78.78h-4.315a.78.78 0 0 1 -.78-.78v-4.315c0-.43.35-.78.78-.78" fill="none" stroke="url(#a)" stroke-linecap="round" stroke-linejoin="round" stroke-width="2"/></svg>