<svg viewBox="0 0 48 48" xmlns="http://www.w3.org/2000/svg" xmlns:xlink="http://www.w3.org/1999/xlink"><linearGradient id="a"><stop offset="0" stop-color="#b100ff"/><stop offset="1" stop-color="#00ffa2"/></linearGradient><linearGradient id="b" gradientUnits="userSpaceOnUse" x1="1.624052" x2="46.3734866" xlink:href="#a" y1="23.7358946" y2="23.7358946"/><linearGradient id="c" gradientUnits="userSpaceOnUse" x1="1.147152" x2="46.8503866" xlink:href="#a" y1="23.7358946" y2="23.7358946"/><path d="m12.518 12.55c-1.425 0-2.836.285-4.149.839a10.878 10.878 0 0 0 -3.53 2.406 11.223 11.223 0 0 0 -2.378 3.63 11.474 11.474 0 0 0 0 8.609 11.223 11.223 0 0 0 2.38 3.63 10.88 10.88 0 0 0 3.53 2.407c1.282.54 2.659.824 4.05.836l.096.002c3.373.16 6.09-1.177 8.079-3.12 1.358-1.328 2.43-2.896 3.404-4.496.973 1.598 2.041 3.167 3.4 4.496 1.989 1.943 4.707 3.28 8.079 3.12l.095-.002a10.64 10.64 0 0 0 4.049-.836 10.89 10.89 0 0 0 3.533-2.407l.007-.013a11.218 11.218 0 0 0 2.373-3.617 11.474 11.474 0 0 0 0-8.608l-.012-.02a11.254 11.254 0 0 0 -2.37-3.61 10.902 10.902 0 0 0 -3.529-2.408 10.682 10.682 0 0 0 -4.148-.84c-3.552 0-6.357 1.462-8.43 3.494-1.198 1.174-2.17 2.517-3.052 3.89-.88-1.375-1.85-2.718-3.047-3.89-2.073-2.031-4.879-3.492-8.432-3.492zm-.037 3.195c2.833 0 4.644 1.017 6.305 2.698 1.315 1.332 2.47 3.145 3.614 5.122-1.305 2.308-2.568 4.419-3.986 5.849-1.565 1.577-3.184 2.445-5.831 2.293h-.102a7.44 7.44 0 0 1 -2.957-.617 7.707 7.707 0 0 1 -2.46-1.721l-.027-.027a8.07 8.07 0 0 1 -1.647-2.586 8.327 8.327 0 0 1 0-6.056 8.058 8.058 0 0 1 1.647-2.585l.028-.031a7.707 7.707 0 0 1 2.46-1.72 7.44 7.44 0 0 1 2.954-.617zm23.034 0c1.01 0 2.027.214 2.957.62.924.406 1.759.99 2.458 1.719l.028.031a8.06 8.06 0 0 1 1.647 2.585 8.336 8.336 0 0 1 -.002 6.053 8.07 8.07 0 0 1 -1.646 2.59l-.027.026a7.71 7.71 0 0 1 -2.461 1.72 7.44 7.44 0 0 1 -2.955.618h-.102c-2.647.152-4.267-.719-5.83-2.295-1.418-1.43-2.68-3.539-3.985-5.849 1.144-1.976 2.298-3.79 3.614-5.122 1.66-1.68 3.471-2.697 6.305-2.697z" fill="none" stroke="url(#c)" stroke-linecap="round" stroke-linejoin="round" stroke-width="1.431"/><path d="m40.957 29.342c-26.565 19.397-13.282 9.699 0 0zm-7.37-10.4v3.195h-3.197v3.197h3.195v3.196h3.197v-3.196h3.196v-3.196h-3.195v-3.197zm-25.57 3.194v3.197h9.589v-3.196z" fill="url(#b)"/></svg>