<svg viewBox="0 0 48 48" xmlns="http://www.w3.org/2000/svg" xmlns:xlink="http://www.w3.org/1999/xlink"><linearGradient id="a" gradientUnits="userSpaceOnUse" x1="2.431" x2="44.94" y1="23.681" y2="23.681"><stop offset="0" stop-color="#df009c"/><stop offset="1" stop-color="#7105f6"/></linearGradient><path d="m16.074 4.069c-.484-.013-.942.03-1.246.134-1.487.516-2.42 1.628-2.937 3.483-.446 1.617-.435 4.526.033 7.058.081.44.165.839.184.904.025.092-.134.147-.837.309-3.437.794-5.946 1.98-7.455 3.518-.677.685-1.053 1.283-1.27 2.04-.154.524-.154 1.564 0 2.08.422 1.424 1.61 2.76 3.486 3.943 1.303.814 1.692.906 2.114.479.198-.2.242-.296.242-.536 0-.464-.14-.654-.754-1.009-3.844-2.19-4.52-4.387-1.953-6.34 1.303-.99 3.125-1.772 5.577-2.379 1.074-.264 1.316-.299 1.316-.156 0 .192.791 2.754 1.2 3.859l.422 1.155-.556 1.09c-2.222 4.342-3.647 8.769-3.819 12.007-.14 2.496.306 4.28 1.393 5.386 1.187 1.203 2.86 1.461 5.012.763.81-.265 2.42-1.093 3.359-1.74.677-.457.827-.592.917-.833.09-.24.09-.317 0-.569-.134-.376-.415-.586-.798-.586-.248 0-.42.08-1.06.52-1.449.995-2.809 1.616-3.938 1.809-1.565.271-2.567-.427-3.028-2.081-.197-.718-.186-3.017.033-4.207.332-1.893.912-3.858 1.742-5.926.492-1.227 1.43-3.285 1.558-3.42.064-.071.147.045.358.537 1.074 2.442 2.714 5.423 4.317 7.834 3.827 5.75 8.015 9.49 11.241 10.025l-.034.007c1.417.232 2.615-.123 3.54-1.06.754-.776 1.25-1.868 1.534-3.386.171-.95.171-3.611 0-4.904-.523-3.872-1.92-8.307-4.007-12.729-.325-.691-.506-.861-.928-.861a.831.831 0 0 0 -.855.827c0 .162.16.598.428 1.175 2.573 5.551 3.956 10.923 3.815 14.81-.086 2.314-.657 3.71-1.737 4.246-.567.283-1.287.273-2.231-.037-4.339-1.486-10.213-8.918-13.999-17.71l-.376-.877.55-.948c.619-1.079 2.183-3.49 2.904-4.479l.485-.657h1.28c7.761 0 15.442 1.777 19.516 4.498.83.556 1.832 1.571 2.133 2.165.217.413.237.523.237 1.072 0 .538-.02.667-.198.995-.499.97-1.813 1.977-3.506 2.694-.785.335-.996.558-.996 1.015 0 .388.25.711.626.827.244.072.326.06.76-.114 2.733-1.094 4.612-2.792 4.994-4.512.108-.464.101-1.338-.006-1.791-.205-.888-.935-2.024-1.772-2.787-3.73-3.387-11.642-5.57-21.03-5.798l-.67-.02.785-.89a42.61 42.61 0 0 1 1.689-1.856c2.669-2.746 5.149-4.544 7.314-5.292.69-.246.83-.275 1.545-.275.665 0 .827.02 1.115.17.39.186.829.646 1.054 1.079.44.886.589 2.439.376 4.093-.07.569-.127 1.226-.127 1.453 0 .382.013.441.23.63.178.168.3.21.53.21.37 0 .714-.198.817-.469.306-.801.466-3.64.268-4.837-.307-1.837-1.085-3.078-2.324-3.678-2.19-1.072-5.372-.022-9.084 2.988-1.94 1.578-4.498 4.254-6.26 6.539l-.172.204-1.041.06c-.875.051-2.298.193-3.952.393l-.358.044-.157-.884c-.3-1.764-.322-2.029-.322-3.716 0-1.48.02-1.765.16-2.358.345-1.5 1.028-2.431 1.929-2.624 1.239-.265 2.777.361 4.936 1.983.69.525 1.53.077 1.427-.75-.044-.362-.373-.672-1.471-1.414-.92-.628-1.953-1.145-2.797-1.396a5.666 5.666 0 0 0 -1.41-.211zm1.65 12.722c0 .032-.292.492-.656 1.034a46.374 46.374 0 0 0 -1.15 1.772 12.82 12.82 0 0 1 -.568.885c-.07.076-.174-.13-.486-1.136-.446-1.39-.637-2.139-.58-2.204.095-.098 3.44-.45 3.44-.351zm6.778 5.255a2.452 2.452 0 0 0 -2.452 2.452 2.452 2.452 0 0 0 2.452 2.452 2.452 2.452 0 0 0 2.452-2.452 2.452 2.452 0 0 0 -2.452-2.452z" fill="url(#a)"/></svg>