<svg height="48" width="48" xmlns="http://www.w3.org/2000/svg" xmlns:xlink="http://www.w3.org/1999/xlink"><linearGradient id="a" gradientUnits="userSpaceOnUse" x1="17.492" x2="41.695" y1="23.021" y2="23.428"><stop offset="0" stop-color="#006fff"/><stop offset="1" stop-color="#00cbff"/></linearGradient><g fill="none" stroke-linecap="round" stroke-linejoin="round" stroke-width="1.5"><path d="m12.117 32.25 2.27-14.955 2.136 24.569 2.136-22.432.902 19.728 2.303-16.524 1.068 11.75 2.136-14.954 1.068 19.227 3.205-21.364 3.204 23.5 1.069-17.09 1.838 8.833" stroke="#ffa700"/><path d="m24 4.331c-4.87 0-9.311 1.52-12.587 4.074-3.277 2.553-5.405 6.206-5.405 10.27v1.468c-3.253 1.648-5.508 5.971-5.508 11.039 0 6.486 3.69 11.75 8.445 11.75v-24.257c0-3.044 1.576-5.845 4.28-7.952 2.705-2.108 6.525-3.455 10.775-3.455s8.07 1.347 10.775 3.454c2.705 2.108 4.28 4.909 4.28 7.952v24.257c4.755 0 8.445-5.263 8.445-11.75 0-5.067-2.255-9.39-5.508-11.038v-1.469c0-4.064-2.128-7.717-5.404-10.27s-7.718-4.073-12.588-4.073zm-13.952 15.469v23.132c.734 0 1.468-.367 1.836-1.101v-21.298c-.369-.366-1.103-.734-1.837-.734zm27.906 0c-.735 0-1.47.367-1.836.734v21.297c.367.733 1.101 1.1 1.835 1.1v-23.131z" stroke="url(#a)"/></g></svg>