<svg viewBox="0 0 48 48" xmlns="http://www.w3.org/2000/svg" xmlns:xlink="http://www.w3.org/1999/xlink"><linearGradient id="a"><stop offset="0" stop-color="#b3f100"/><stop offset="1" stop-color="#00fff5"/></linearGradient><linearGradient gradientUnits="userSpaceOnUse" x1="7.376" x2="42.774" xlink:href="#a" y1="11.049" y2="43.018"/><linearGradient id="b" gradientTransform="matrix(-.71672807 .69735277 -.69735277 -.71672807 60.131074 32.626133)" gradientUnits="userSpaceOnUse" x1="7.376" x2="42.774" xlink:href="#a" y1="11.049" y2="43.018"/><g fill="none" stroke="url(#b)" stroke-linecap="round" stroke-linejoin="round" stroke-width="1.589" transform="matrix(0 -1.13248 1.13248 0 -4.659 53.549)"><path d="m12.762 35.655a17.637 17.637 0 0 1 -2.51-21.327 17.637 17.637 0 0 1 19.948-7.944 17.637 17.637 0 0 1 12.839 17.213l-17.637-.241z"/><path d="m44.701 26.7a17.637 17.637 0 0 1 -10.404 15.843l-7.232-16.085z"/><path d="m31.059 43.24a16.377 16.377 45 0 1 -18.455-3.515l11.739-11.422z"/></g></svg>