<svg viewBox="0 0 48 48" xmlns="http://www.w3.org/2000/svg" xmlns:xlink="http://www.w3.org/1999/xlink"><linearGradient id="a"><stop offset="0" stop-color="#c000ff"/><stop offset="1" stop-color="#0097ff"/></linearGradient><linearGradient id="b" gradientUnits="userSpaceOnUse" x1="12" x2="36" y1="24" y2="24"><stop offset="0" stop-color="#1fff00"/><stop offset="1" stop-color="#1fff00" stop-opacity="0"/></linearGradient><linearGradient id="c" gradientUnits="userSpaceOnUse" x1="15" x2="22.5" xlink:href="#a" y1="15" y2="15"/><linearGradient id="d" gradientUnits="userSpaceOnUse" x1="26" x2="33.5" xlink:href="#a" y1="33" y2="33"/><linearGradient id="e" gradientUnits="userSpaceOnUse" x1="15" x2="33.5" xlink:href="#a" y1="28.5" y2="28.5"/><linearGradient id="f" gradientUnits="userSpaceOnUse" x1="15" x2="33.5" xlink:href="#a" y1="25.5" y2="25.5"/><linearGradient id="g" gradientUnits="userSpaceOnUse" x1="15" x2="33.5" xlink:href="#a" y1="22.5" y2="22.5"/><linearGradient id="h" gradientUnits="userSpaceOnUse" x1="15" x2="33.5" xlink:href="#a" y1="19.5" y2="19.5"/><g fill="none" stroke="url(#b)" transform="matrix(1.35797 0 0 1.35797 -7.143 -7.753)"><g stroke-linejoin="round"><path d="m15 12c-1.109 0-2 .891-2 2v20c0 1.109.891 2 2 2h10v-24zm0 0" stroke="#009aff"/><path d="m33 12c1.109 0 2 .891 2 2v20c0 1.109-.891 2-2 2" stroke="#009aff" stroke-linecap="round"/><path d="m15 14h7v2h-7s.07.044 0-2zm0 0" stroke="url(#c)"/><path d="m26 32h7v2h-7zm0 0" stroke="url(#d)" stroke-linecap="round"/></g><path d="m15 19h18v1h-18m0-1" stroke="url(#h)"/><path d="m15 22h18v1h-18m0-1" stroke="url(#g)"/><path d="m15 25h18v1h-18m0-1" stroke="url(#f)"/><path d="m15 28h18v1h-18m0-1" stroke="url(#e)"/><path d="m14.47 12.026c-1.109 0-2 .891-2 2v20c0 1.11.891 2 2 2" stroke="#009aff" stroke-linecap="round" stroke-linejoin="round"/></g></svg>