<svg height="48" width="48" xmlns="http://www.w3.org/2000/svg" xmlns:xlink="http://www.w3.org/1999/xlink"><linearGradient id="a" gradientUnits="userSpaceOnUse" x1="1.368" x2="45.438" y1="24" y2="24"><stop offset="0" stop-color="#f4b43f"/><stop offset="1" stop-color="#ff000e"/></linearGradient><linearGradient id="b" gradientUnits="userSpaceOnUse" x1="23.5" x2="34.5" y1="28" y2="28"><stop offset="0" stop-color="#00fff7"/><stop offset="1" stop-color="#005dff"/></linearGradient><g fill="none" stroke-width="1.5"><path d="m22.846 4.002a2.996 2.998 0 0 0 -1.703 5.398l3.404 2.621h-16.555a2.996 2.998 0 1 0 0 5.997h7.508l-12.266 8.918a2.996 2.998 0 1 0 3.52 4.849l6.269-4.556a15.977 15.989 0 0 0 -.039.781 15.977 15.989 0 0 0 15.977 15.99 15.977 15.989 0 0 0 15.977-15.99 15.977 15.989 0 0 0 -6.946-13.188 2.996 2.998 0 0 0 -.215-.181l-12.982-9.995a2.996 2.998 0 0 0 -1.949-.644z" stroke="url(#a)"/><path d="m29 18a10 10 0 0 1 10 10 10 10 0 0 1 -10 10 10 10 0 0 1 -10-10 10 10 0 0 1 10-10z" stroke="#9f9f9f"/><circle cx="29" cy="28" r="5" stroke="url(#b)"/></g></svg>