<svg viewBox="0 0 48 48" xmlns="http://www.w3.org/2000/svg" xmlns:xlink="http://www.w3.org/1999/xlink"><linearGradient id="a" gradientUnits="userSpaceOnUse" x1="9.06" x2="39.882" y1="7.695" y2="44.225"><stop offset="0" stop-color="#fade17"/><stop offset="1" stop-color="#ff1b00"/></linearGradient><g fill="none" stroke="url(#a)" stroke-linejoin="round" stroke-width="2"><path d="m29.73 26.704c-2 1-3 3-2 5-1.054-.791-1.312-1.943-1.279-3.258a6 6 0 0 1 -1.727.26 6 6 0 0 1 -4.03-1.563c-2.086 2.167-3.971 4.483-3.971 7.563 0 5 3.387 9 8.188 9h.189c5.742-.195 9.102-6.703 4.438-12.188-.801-.82-.813-2.814.191-4.814z"/><path d="m21.499 4.2.002.006c4.339 7.07.479 8.239-.387 13.711a6 6 0 0 1 3.605-1.211 6 6 0 1 1 -6 6 6 6 0 0 1 .936-3.205c-.56-.8-1.306-1.436-2.936-1.795 4 7-4.77 6.218-3.938 12.313-1.078-.297-2.066-2.305-1.25-4.781-2.816 3.477-1.813 6.471.188 9.471-2-2-5.27-1.994-6.27-4.807-.627 3.632.958 7.06 3.779 9.805 4.087 3.727 9.523 6 15.49 6 3.16 0 6.171-.638 8.912-1.791 4.745-2.342 8.96-6.503 9.135-11.264-.93 1.379-5.05 4.051-6.893 4.051 4.848-4 5.852-10 1.531-15.75.32 3.75-1.699 5.755-3.469 7.03 2.77-5.281 2.77-11.297-2.656-16.594.434 1.297.766 2.313.469 3.5.301-1.453-4.03-8.185-10.25-10.689z"/></g><circle cx="24.719" cy="22.706" fill="#6d6d6d" r="3"/></svg>