<svg viewBox="0 0 48 48" xmlns="http://www.w3.org/2000/svg" xmlns:xlink="http://www.w3.org/1999/xlink"><linearGradient id="a"><stop offset="0" stop-color="#ff0049"/><stop offset="1" stop-color="#ff8131"/></linearGradient><linearGradient id="b" gradientTransform="matrix(0 -1 1 0 -78.398 41.602)" gradientUnits="userSpaceOnUse" x1="1" x2="47"><stop offset="0" stop-color="#f4ed74"/><stop offset="1" stop-color="#f6ef86"/></linearGradient><linearGradient id="c" gradientUnits="userSpaceOnUse" x1="3.067" x2="44.285" xlink:href="#a" y1="23.676" y2="23.676"/><linearGradient id="d" gradientUnits="userSpaceOnUse" x1="8.838" x2="38.514" xlink:href="#a" y1="21.608" y2="21.608"/><path d="m-42.087-1.398c5.859 4.062 9.688 10.83 9.688 18.5 0 12.426-10.07 22.5-22.5 22.5-7.67 0-14.438-3.828-18.5-9.688a23.24 23.24 0 0 0 3.78 4.969 22.923 22.923 0 0 0 15.47 5.969c12.703 0 23-10.298 23-23a22.92 22.92 0 0 0 -5.97-15.47 23.216 23.216 0 0 0 -4.968-3.78zm4.969 3.78a22.911 22.911 0 0 1 6.219 15.72c0 12.703-10.297 23-23 23a22.909 22.909 0 0 1 -15.72-6.22c4.16 4.145 9.884 6.72 16.22 6.72 12.703 0 23-10.298 23-23 0-6.335-2.575-12.06-6.72-16.22z" opacity=".05"/><path d="m-37.117 2.383a22.923 22.923 0 0 1 5.969 15.469c0 12.703-10.297 23-23 23a22.92 22.92 0 0 1 -15.47-5.97 22.911 22.911 0 0 0 15.72 6.22c12.703 0 23-10.298 23-23a22.909 22.909 0 0 0 -6.22-15.72z" opacity=".1"/><path d="m-47.147-4.023c8.615 3.154 14.75 11.417 14.75 21.13 0 12.426-10.07 22.5-22.5 22.5-9.708 0-17.971-6.135-21.12-14.75a23 23 0 0 0 44.875-7 23 23 0 0 0 -16-21.875z" opacity=".2"/><path d="m-77.397 17.602c0-12.703 10.297-23 23-23s23 10.297 23 23-10.297 23-23 23-23-10.297-23-23z" fill="url(#b)"/><path d="m-38.367 1.133a22.922 22.922 0 0 1 5.969 15.469c0 12.703-10.297 23-23 23a22.92 22.92 0 0 1 -15.47-5.97c4.179 4.292 10.01 6.97 16.47 6.97 12.703 0 23-10.298 23-23 0-6.462-2.677-12.291-6.97-16.47z" opacity=".1"/><path d="m-57.397 5.602c-.5 0-2.25 2-2.5 2h-1.25c-.5 0-2.25 1.75-2.25 2.25v1.5c0 .25-1.99 2-2 2.5-.011.5 3.5 12.25 4 12.75s6 5 7.5 5h1c1.5 0 7-4.5 7.5-5s4.01-12.25 4-12.75c-.011-.497-2-2.25-2-2.5v-1.5c0-.5-1.75-2.25-2.25-2.25h-1.25c-.25 0-2-2-2.5-2z" opacity=".1"/><path d="m-58.397 4.602c-.5 0-2.25 2-2.5 2h-1.25c-.5 0-2.25 1.75-2.25 2.25v1.5c0 .25-1.99 2-2 2.5-.011.5 3.5 12.25 4 12.75s6 5 7.5 5h1c1.5 0 7-4.5 7.5-5s4.01-12.25 4-12.75c-.011-.497-2-2.25-2-2.5v-1.5c0-.5-1.75-2.25-2.25-2.25h-1.25c-.25 0-2-2-2.5-2z" fill="#f07c31"/><path d="m-53.397 9.094c-.498 0-.994.17-1.5.508-1.5 1-3.5-.5-4-.5s-3.5 3.643-3.5 5c0 1 3.75 3.3 3.75 4 0 .5-.75.74-.75 1.8 0 .7 1 1.95 2 1.95s3.502-1.963 3.5-2.45v-.3c0-.6-2.25-1.356-2.25-2.5 0-1 .75-1.37.75-2.5 0-.972-2-1.25-3.5-1.5-.5 0 1.5-1.645 4.25.133.696.45-.75 2.229-.5 3.867.375.35 1.063.525 1.75.525.688 0 1.375-.175 1.75-.525.25-1.638-1.196-3.417-.5-3.867 2.75-1.778 4.75-.133 4.25-.133-1.5.25-3.5.528-3.5 1.5 0 1.13.75 1.5.75 2.5 0 1.144-2.25 1.9-2.25 2.5v.3c-.002.487 2.5 2.45 3.5 2.45s2-1.25 2-1.95c0-1.06-.75-1.3-.75-1.8 0-.7 3.75-3 3.75-4 0-1.357-3-5-3.5-5s-2.5 1.5-4 .5c-.506-.337-1-.508-1.5-.508zm0 11.908c-1 0-3.25 1.55-3.25 1.85s2.25 2.75 3.25 2.75 3.25-2.45 3.25-2.75-2.25-1.85-3.25-1.85z" opacity=".1"/><path d="m-54.397 8.094c-.498 0-.994.17-1.5.508-1.5 1-3.5-.5-4-.5s-3.5 3.643-3.5 5c0 1 3.75 3.3 3.75 4 0 .5-.75.74-.75 1.8 0 .7 1 1.95 2 1.95s3.502-1.963 3.5-2.45v-.3c0-.6-2.25-1.356-2.25-2.5 0-1 .75-1.37.75-2.5 0-.972-2-1.25-3.5-1.5-.5 0 1.5-1.645 4.25.133.696.45-.75 2.229-.5 3.867.375.35 1.063.525 1.75.525.688 0 1.375-.175 1.75-.525.25-1.638-1.196-3.417-.5-3.867 2.75-1.778 4.75-.133 4.25-.133-1.5.25-3.5.528-3.5 1.5 0 1.13.75 1.5.75 2.5 0 1.144-2.25 1.9-2.25 2.5v.3c-.002.487 2.5 2.45 3.5 2.45s2-1.25 2-1.95c0-1.06-.75-1.3-.75-1.8 0-.7 3.75-3 3.75-4 0-1.357-3-5-3.5-5s-2.5 1.5-4 .5c-.506-.337-1-.508-1.5-.508zm0 11.908c-1 0-3.25 1.55-3.25 1.85s2.25 2.75 3.25 2.75 3.25-2.45 3.25-2.75-2.25-1.85-3.25-1.85z" fill="#f9f9f9"/><path d="m17.08 2.243c-.823 0-3.709 3.297-4.12 3.297h-2.062c-.824 0-3.71 2.885-3.71 3.71v2.473c0 .412-3.278 3.297-3.297 4.121-.018.825 5.77 20.197 6.595 21.021s9.892 8.244 12.365 8.244h1.649c2.473 0 11.54-7.42 12.365-8.244.824-.824 6.611-20.196 6.595-21.02-.018-.82-3.298-3.71-3.298-4.122v-2.473c0-.825-2.885-3.71-3.71-3.71h-2.06c-.412 0-3.297-3.297-4.122-3.297z" fill="none" stroke="url(#c)" stroke-width="2"/><path d="m23.676 8c-.821 0-1.64.282-2.473.838-2.473 1.648-5.77-.825-6.595-.825-.824 0-5.77 6.006-5.77 8.244 0 1.648 6.182 5.44 6.182 6.594 0 .825-1.236 1.22-1.236 2.97 0 1.152 1.648 3.213 3.297 3.213s5.774-3.236 5.77-4.038v-.496c0-.99-3.71-2.236-3.71-4.122 0-1.648 1.237-2.258 1.237-4.121 0-1.603-3.297-2.061-5.77-2.473-.824 0 2.473-2.713 7.007.219 1.147.742-1.237 3.675-.825 6.375.619.577 1.753.866 2.886.866 1.134 0 2.267-.289 2.885-.866.412-2.7-1.972-5.633-.824-6.375 4.533-2.932 7.83-.22 7.006-.22-2.473.413-5.77.871-5.77 2.474 0 1.863 1.237 2.473 1.237 4.121 0 1.886-3.71 3.133-3.71 4.122v.496c-.003.802 4.122 4.038 5.77 4.038 1.65 0 3.298-2.061 3.298-3.213 0-1.748-1.237-2.145-1.237-2.97 0-1.154 6.183-4.946 6.183-6.594 0-2.238-4.946-8.244-5.77-8.244-.825 0-4.122 2.473-6.595.825-.835-.556-1.649-.838-2.473-.838zm0 19.632c-1.649 0-5.359 2.556-5.359 3.05 0 .495 3.71 4.534 5.359 4.534 1.648 0 5.358-4.039 5.358-4.533 0-.495-3.71-3.05-5.358-3.05z" fill="url(#d)" stroke="#b8b8b8" stroke-width=".5"/><path d="m-102.203-84.814h174.407v160.678h-174.407z" style="opacity:.291;fill:none;stroke:#fff;stroke-width:2;stroke-linecap:round;stroke-linejoin:round"/></svg>