<svg viewBox="0 0 48 48" xmlns="http://www.w3.org/2000/svg" xmlns:xlink="http://www.w3.org/1999/xlink"><linearGradient id="a"><stop offset="0" stop-color="#ffe100"/><stop offset="1" stop-color="#f0e"/></linearGradient><linearGradient id="b" gradientUnits="userSpaceOnUse" x1="2.637" x2="40.065" y1="33.846" y2="33.846"><stop offset="0" stop-color="#5f9ee6"/><stop offset="1" stop-color="#8400ff"/></linearGradient><linearGradient id="c" gradientTransform="matrix(-.93668441 -.35017469 .35017469 -.93668441 38.74912 54.260284)" gradientUnits="userSpaceOnUse" x1="2.165" x2="39.593" xlink:href="#a" y1="33.903" y2="33.903"/><linearGradient id="d" gradientUnits="userSpaceOnUse" x1="7.475" x2="34.84" xlink:href="#a" y1="16.502" y2="16.502"/><g stroke-linecap="round" stroke-linejoin="round" stroke-width="1.5"><path d="m44.148 31.59c4.169-11.15-1.491-23.57-12.641-27.738-4.494-1.68-8.891-1.79-13.623-.49-5.044 1.181-.566 6.97-.83 10.427 2.855-3.535 9.245-4.214 14.629-2.201 12.113 4.528 13.635 12.768 12.465 20z" fill="none" stroke="url(#c)"/><path d="m3.355 23.07c0 11.903 9.65 21.553 21.554 21.553 4.798 0 8.955-1.437 12.932-4.31 4.31-2.874-1.91-6.727-2.874-10.059-1.437 4.31-7.184 7.185-12.932 7.185-12.932 0-17.243-7.185-18.68-14.37z" fill="none" stroke="url(#b)"/><path d="m9.662 7.162c-.793 0-1.437.643-1.437 1.437 0 .397.148.77.421 1.016 5.752 5.17 11.075 10.416 16.822 14.358 1.896 1.437 4.311 1.868 5.748 1.868.796 0 2.874-2.078 2.874-2.874 0-1.437-1.325-2.996-2.874-4.31-3.386-2.875-10.927-5.797-20.996-11.384-.163-.09-.36-.112-.558-.112z" fill="url(#d)" stroke="url(#d)"/><g fill="none" stroke="#000"><path d="m31.934 23.686c-.718.719-.718 1.437-.718 2.156l4.488 2.477 1.437-2.156-3.051-3.195c-.719 0-1.437 0-2.156.718z"/><path d="m44.148 31.59c0 3.352-2.874 6.376-5.747 8.62 2.873-4.675-2.874-5.747-2.874-10.058 0-2.366 1.437-4.31 3.592-4.31 3.15 0 5.03 2.31 5.03 5.747z"/></g></g></svg>