<svg viewBox="0 0 48 48" xmlns="http://www.w3.org/2000/svg" xmlns:xlink="http://www.w3.org/1999/xlink"><linearGradient id="a" gradientUnits="userSpaceOnUse" x1="16.91522" x2="41.07182182" y1="12.39633667" y2="44.05331657"><stop offset="0" stop-color="#06d4ff"/><stop offset="1" stop-color="#1853ff"/></linearGradient><path d="m30.955 8.665c-5.42-.14-9.28.653-14.04 3.731v17.675a4.675 4.675 0 0 0 -1.18-.166 4.72 4.72 0 0 0 -4.724 4.723 4.723 4.723 0 0 0 9.446 0c0-.034-.008-.065-.009-.1l.01-.001v-15.32c4.451-3.188 7.924-3.954 12.988-2.754v11.256a4.669 4.669 0 0 0 -1.18-.166 4.723 4.723 0 0 0 0 9.447 4.716 4.716 0 0 0 4.709-4.59l.014.005v-23.339c-2.245-.204-4.227-.355-6.034-.401z" fill="none" stroke="url(#a)" stroke-linecap="round" stroke-linejoin="round" stroke-width="1.181" transform="translate(-2.424 .814)"/></svg>