<svg viewBox="0 0 48 48" xmlns="http://www.w3.org/2000/svg" xmlns:xlink="http://www.w3.org/1999/xlink"><linearGradient id="a"><stop offset="0" stop-color="#b900ce"/><stop offset="1" stop-color="#ff0001"/></linearGradient><linearGradient id="b" gradientUnits="userSpaceOnUse" x1="13.996" x2="34" xlink:href="#a" y1="23" y2="23"/><linearGradient id="c" gradientUnits="userSpaceOnUse" x1="13.924" x2="33.928" xlink:href="#a" y1="24.366" y2="24.366"/><linearGradient id="d" gradientUnits="userSpaceOnUse" x1="14.996" x2="35" y1="24" y2="24"><stop offset="0" stop-color="#97749b"/><stop offset="1" stop-color="#ea2626" stop-opacity="0"/></linearGradient><g fill="none" stroke-width="1.436"><g opacity=".1" stroke="url(#d)" transform="matrix(1.4838 0 0 1.4838 -10.35 -9.974)"><path d="m15.609 30c-.926 0-1.613.621-1.613 1.57v3.43h20v-3.43c0-.949-.469-1.57-1.391-1.57h-17m0 0"/><path d="m34 21c0 5.523-4.477 10-10 10s-10-4.477-10-10 4.477-10 10-10 10 4.477 10 10m0 0"/></g><g stroke="url(#b)" transform="matrix(1.4838 0 0 1.4838 -11.835 -11.458)"><path d="m15.537 31.366c-.926 0-1.613.621-1.613 1.57v3.43h20v-3.43c0-.949-.469-1.57-1.39-1.57h-17m0 0" stroke="url(#c)"/><g stroke="url(#b)"><path d="m34 21c0 5.523-4.477 10-10 10s-10-4.477-10-10 4.477-10 10-10 10 4.477 10 10m0 0"/><path d="m30 21c0 3.313-2.684 6-6 6-3.313 0-6-2.688-6-6a6 6 0 1 1 12 0m0 0"/><path d="m27 21a3.001 3.001 0 0 1 -6 0 3.001 3.001 0 0 1 6 0m0 0"/></g></g></g></svg>