<svg height="64" width="64" xmlns="http://www.w3.org/2000/svg" xmlns:xlink="http://www.w3.org/1999/xlink"><linearGradient id="a" gradientTransform="matrix(1.274 -.19577 .10158 1 122.55 885.49)" gradientUnits="userSpaceOnUse" x1="412.51" x2="411.93" y1="519.17" y2="526.42"><stop offset="0" stop-color="#fcbb80"/><stop offset="1" stop-color="#f99133"/></linearGradient><linearGradient id="b" gradientUnits="userSpaceOnUse" x1="9.52330792" x2="55.76563408" y1="17.01635716" y2="49.02351508"><stop offset="0" stop-color="#00ffc3"/><stop offset="1" stop-color="#00ff69"/></linearGradient><path d="m48.793 6.89s-1.031 2.275 0 3.588c-3.937-3.587-7.437-1.794-7.437-1.794s.882 2.353 2.187 3.587c-2.097-1.031-4.375 0-4.375 0s1.189 1.794 2.188 1.794h-30.884a3.58 3.58 0 0 0 -3.587 3.587v28.696c0 1.987 1.6 3.582 3.587 3.587h26.903c1.794 0 4.25 1.712 5.38 2.69l4.485 3.88c.847.734 1.591.874 1.793 0l.897-3.88c.404-1.747 1.793-2.69 3.587-2.69 2.046 0 3.587-1.6 3.587-3.587v-32.283c0-5.38-8.31-7.174-8.31-7.174z" fill="none" stroke="url(#b)" stroke-width="1.614"/><path d="m57.818 27.968s5.166-.596 4.626-1.858c-.54-1.261-4.626 1.858-4.626 1.858m0 0s3.723-3.522 2.504-4.204c-1.22-.683-2.504 4.204-2.504 4.204m0 0s4.473 2.576 4.838 1.257c.364-1.32-4.838-1.257-4.838-1.257m-51.872 8.497s-4.353 2.576-4.708 1.256c-.354-1.319 4.708-1.256 4.708-1.256m0 0s-5.165-.595-4.626-1.858c.54-1.261 4.627 1.858 4.627 1.858m-.001 0s-1.932 4.683-3.048 3.852c-1.118-.832 3.048-3.852 3.048-3.852" fill="#343031" fill-rule="evenodd"/><g transform="matrix(.89676 0 0 .89676 3.298 3.304)"><path d="m24.783 32.648c2.558-5.352-.073-9.005-5.154-10.683-5.08-1.678-10.719 1.35-12.094 5.512-1.375 4.163.614 8.637 5.695 10.314 5.08 1.679 9.664-1.188 11.554-5.143z" fill="#fafafa"/><circle cx="17.5" cy="29.54" fill="#343031" r="3.5"/><path d="m37.2 19.962c-2.551 5.58.629 10.378 5.913 12.024 5.285 1.646 11.44-1.756 12.788-6.086 1.349-4.33-1.116-9.548-6.4-11.194s-10.415 1.131-12.301 5.256z" fill="#fafafa"/><circle cx="43.5" cy="23.54" fill="#343031" r="3.5"/></g><g fill-rule="evenodd"><path d="m21.108 41.494c8.621 8.344 16.605 8.037 20.491 3.277 3.887-4.76.979-8.828.979-8.828z" fill="#e4720c"/><path d="m22.201 41.494c6.552 6.853 15.184 6.506 18.137 2.597 2.954-3.91.744-7.25.744-7.25z" fill="#343031"/><path d="m30.535 46.49c3.495 1.103 7.972.268 9.802-2.389-3.553-.979-7.54.67-9.802 2.39z" fill="#ec4040"/><path d="m689.89 1330.2s1.432-4.319 8.931-6.267 11.07 1.267 11.07 1.267c.999 2.908-8.664 7.427-8.664 7.427s-10.699.576-11.334-2.427" fill="url(#a)" transform="matrix(1.0937 0 0 1.1102 -733.42 -1435.283)"/></g></svg>