<svg height="48" width="48" xmlns="http://www.w3.org/2000/svg" xmlns:xlink="http://www.w3.org/1999/xlink"><linearGradient id="a" gradientUnits="userSpaceOnUse" x1="4.573" x2="42.369" y1="44.745" y2="3.254"><stop offset="0" stop-color="#ff5508"/><stop offset="1" stop-color="#ffa208"/></linearGradient><g fill="none" stroke="url(#a)" stroke-linecap="round"><path d="m14.928 25.78 7.704-2.135m-1.084 9.853 4.02-7.335m7.518 9.039-3.951-8.94" stroke-linejoin="bevel" stroke-width="1.383"/><path d="m13.642 15.937 8.282 3.729" stroke-linejoin="round" stroke-width="1.383"/><path d="m12.365 2.446c-4.115.182-8.774 5.252-10.152 12.316-.327 1.77-.392 3.189-.4 4.788.003.145.003.289.01.435.556 14.356 12.244 25.953 26.638 26.37l.219.007c.944.036 2.017-.047 2.879-.106 10.844-1.058 17.919-9.844 12.082-14.695-3.304-2.745-9.393-4.712-15.765-11.029-6.722-6.665-8.634-12.977-11.45-16.235-1.16-1.343-2.575-1.917-4.06-1.851zm1.362 2.696c-3.368 3.801-5.323 8.66-5.325 13.773v.002c0 11.549 9.316 20.864 20.866 20.864 5.173-.007 10.09-2.004 13.908-5.453" stroke-linejoin="bevel" stroke-width="1.8"/></g></svg>