<svg viewBox="0 0 48 48" xmlns="http://www.w3.org/2000/svg" xmlns:xlink="http://www.w3.org/1999/xlink"><linearGradient id="a" gradientUnits="userSpaceOnUse" x1="24" x2="24" y1="2" y2="46"><stop offset="0" stop-color="#00ff70"/><stop offset="1" stop-color="#0075ff"/></linearGradient><linearGradient id="b" gradientUnits="userSpaceOnUse" x1=".5" x2="47.5" xlink:href="#a" y1="24" y2="24"/><linearGradient id="c" gradientUnits="userSpaceOnUse" x1="11" x2="37" xlink:href="#a" y1="24" y2="24"/><path d="m47 24a23 23 0 0 1 -23 23 23 23 0 0 1 -23-23 23 23 0 0 1 23-23 23 23 0 0 1 23 23z" fill="none" stroke="url(#b)" stroke-width="1.5"/><path d="m11 11v26h26v-26zm8 2.998c2.046 0 3.127.596 4.15 1.62l-1.306 1.566c-.844-.784-1.76-1.186-2.844-1.186-1.796 0-2.985 1.56-2.998 3.412.013 1.854 1.143 3.588 2.998 3.588 1.204 0 2.157-.622 3-1.404l1.371 1.396c-1.083 1.204-2.325 2.008-4.371 2.008-3.19.06-5-2.49-5-5.559s1.69-5.441 5-5.441zm6 .002h2v9h5v2h-7zm-12 18h10v2h-10z" fill="url(#c)"/></svg>