<svg viewBox="0 0 48 48" xmlns="http://www.w3.org/2000/svg" xmlns:xlink="http://www.w3.org/1999/xlink"><linearGradient id="a" gradientUnits="userSpaceOnUse" x1="5.274" x2="45.094" y1="3.742" y2="44.115"><stop offset="0" stop-color="#ff001e"/><stop offset="1" stop-color="#ff0080"/></linearGradient><g fill="none" stroke="url(#a)" stroke-linecap="round" stroke-linejoin="round" stroke-width="1.8"><path d="m18.194 20.884-7.089 7.095a4.472 4.472 0 0 0 -1.153 4.333l-5.21 5.21a4.488 4.488 0 0 0 0 6.362 4.49 4.49 0 0 0 6.363 0l5.208-5.21a4.47 4.47 0 0 0 4.334-1.152l7.297-7.025"/><rect height="6.748" rx="1.125" transform="matrix(.70710678 .70710678 -.70710678 .70710678 0 0)" width="26.991" x="20.898" y="-4.923"/><path d="m34.822 27.87a9.042 9.042 0 0 0 1.798-1.381l6.362-6.364a8.976 8.976 0 0 0 0-12.722l-1.59-1.59a8.973 8.973 0 0 0 -12.724 0l-6.362 6.36a9.046 9.046 0 0 0 -1.384 1.798m-11.925 25.831 9.143-8.982"/></g></svg>