<svg viewBox="0 0 48 48" xmlns="http://www.w3.org/2000/svg" xmlns:xlink="http://www.w3.org/1999/xlink"><linearGradient id="a" gradientUnits="userSpaceOnUse" x1="29.052" x2="36.725" y1="15.094" y2="15.094"><stop offset="0" stop-color="#dc2c2e"/><stop offset="1" stop-color="#f60073"/></linearGradient><linearGradient id="b" gradientUnits="userSpaceOnUse" x1="9.446" x2="14.189" y1="24.014" y2="24.014"><stop offset="0" stop-color="#a2d620"/><stop offset="1" stop-color="#f4ff00" stop-opacity=".923"/></linearGradient><linearGradient id="c" gradientUnits="userSpaceOnUse" x1="11.275" x2="18.949" y1="32.908" y2="32.908"><stop offset="0" stop-color="#20c145"/><stop offset="1" stop-color="#17ff00" stop-opacity=".923"/></linearGradient><linearGradient id="d" gradientUnits="userSpaceOnUse" x1="19.736" x2="28.292" y1="36.181" y2="36.181"><stop offset="0" stop-color="#20b9ce"/><stop offset="1" stop-color="#00ffcd"/></linearGradient><linearGradient id="e" gradientUnits="userSpaceOnUse" x1="11.256" x2="18.926" y1="15.111" y2="15.111"><stop offset="0" stop-color="#e5d717"/><stop offset="1" stop-color="#ff7b00" stop-opacity=".932"/></linearGradient><linearGradient id="f" gradientUnits="userSpaceOnUse" x1="33.811" x2="38.551" y1="23.986" y2="23.986"><stop offset="0" stop-color="#de28b1"/><stop offset="1" stop-color="#fc00ff" stop-opacity=".823"/></linearGradient><linearGradient id="g" gradientUnits="userSpaceOnUse" x1="29.077" x2="36.754" y1="32.889" y2="32.889"><stop offset="0" stop-color="#c66dfb"/><stop offset="1" stop-color="#a000ff" stop-opacity=".995"/></linearGradient><linearGradient id="h" gradientUnits="userSpaceOnUse" x1="19.707" x2="28.262" y1="11.818" y2="11.818"><stop offset="0" stop-color="#f88e18"/><stop offset="1" stop-color="#ff2400"/></linearGradient><linearGradient id="i" gradientUnits="userSpaceOnUse" x1="-85.93390445" x2="-62.70681908" y1="17.07338894" y2="17.07338894"><stop offset="0" stop-color="#454545"/><stop offset="1" stop-color="#9b9b9b"/></linearGradient><g fill="none" stroke-linecap="round" stroke-linejoin="round"><g stroke="#000" stroke-width="1.047"><path d="m23.938 9.971a13.954 13.954 0 0 0 -3.708.52l1.319 3.174a10.534 10.534 0 0 1 4.88-.003l1.31-3.178a13.948 13.948 0 0 0 -3.8-.512z" stroke="url(#h)" transform="matrix(1.433 0 0 1.433 -10.608 -10.609)"/><path d="m30.886 11.78-1.311 3.178a10.482 10.482 0 0 1 3.452 3.45l3.175-1.32a13.92 13.92 0 0 0 -5.316-5.308z" stroke="url(#a)" transform="matrix(1.433 0 0 1.433 -10.608 -10.609)"/><path d="m36.224 30.89-3.178-1.315a10.553 10.553 0 0 1 -3.446 3.456l1.319 3.171a13.953 13.953 0 0 0 5.305-5.312m0 0" stroke="url(#g)" transform="matrix(1.433 0 0 1.433 -10.608 -10.609)"/><path d="m37.508 20.232-3.174 1.317c.373 1.57.395 3.24.008 4.88l3.176 1.312c.701-2.52.661-5.114-.011-7.51z" stroke="url(#f)" transform="matrix(1.433 0 0 1.433 -10.608 -10.609)"/><path d="m17.084 11.798a13.968 13.968 0 0 0 -5.305 5.318l3.178 1.309a10.5 10.5 0 0 1 3.445-3.45l-1.318-3.176z" stroke="url(#e)" transform="matrix(1.433 0 0 1.433 -10.608 -10.609)"/><path d="m26.451 34.334c-1.571.373-3.24.395-4.877.008l-1.315 3.176c2.524.702 5.114.661 7.51-.011l-1.317-3.173z" stroke="url(#d)" transform="matrix(1.433 0 0 1.433 -10.608 -10.609)"/><path d="m14.975 29.596-3.176 1.32a13.968 13.968 0 0 0 5.317 5.304l1.31-3.178a10.5 10.5 0 0 1 -3.45-3.446z" stroke="url(#c)" transform="matrix(1.433 0 0 1.433 -10.608 -10.609)"/><path d="m10.483 20.259c-.705 2.52-.665 5.11.007 7.51l3.175-1.32a10.531 10.531 0 0 1 -.003-4.878l-3.178-1.311z" stroke="url(#b)" transform="matrix(1.433 0 0 1.433 -10.608 -10.609)"/></g><path d="m-73.706 2.962-1.35 5.732c-.432.049-.863.121-1.285.223a11.286 11.286 0 0 0 -8.652 10.977c.008 11.859 15.955 15.688 21.346 5.125l-4.475-2.28c-2.985 5.884-11.72 2.674-11.998-1.91-.547-3.685.323-6.847 4.266-7.794s6.08.46 8.669 3.868l3.538-2.134a11.288 11.288 0 0 0 -8.708-6.073z" stroke="url(#i)" stroke-width="1.881" transform="translate(98.132 3.45)"/></g></svg>