<svg viewBox="0 0 48 48" xmlns="http://www.w3.org/2000/svg" xmlns:xlink="http://www.w3.org/1999/xlink"><linearGradient id="a" gradientUnits="userSpaceOnUse" x1="11.565" x2="22.429" y1="24" y2="24"><stop offset="0" stop-color="#ec1e41"/><stop offset="1" stop-color="#ff007d"/></linearGradient><linearGradient id="b" gradientUnits="userSpaceOnUse" x1="19.578" x2="30.435" y1="17" y2="17"><stop offset="0" stop-color="#3192d9"/><stop offset="1" stop-color="#00d4ff"/></linearGradient><linearGradient id="c" gradientUnits="userSpaceOnUse" x1="19.578" x2="30.435" y1="31" y2="31"><stop offset="0" stop-color="#f7d30b"/><stop offset="1" stop-color="#ff7300"/></linearGradient><linearGradient id="d" gradientUnits="userSpaceOnUse" x1="25.565" x2="36.429" y1="24.998" y2="24.998"><stop offset="0" stop-color="#0abe18"/><stop offset="1" stop-color="#3efb00"/></linearGradient><g fill="none" stroke="#000" stroke-width="1.033"><path d="m27.1 20h7.797c.609 0 1.102.555 1.102 1.242v7.512c0 .688-.492 1.242-1.102 1.242h-7.797c-.605 0-1.105-.555-1.105-1.242v-7.512c0-.688.496-1.242 1.105-1.242m0 0" stroke="url(#d)" transform="matrix(1.74294 0 0 1.74294 -17.828 -17.83)"/><path d="m21.11 26h7.793c.609 0 1.102.559 1.102 1.246v7.512c0 .684-.492 1.242-1.102 1.242h-7.793c-.609 0-1.102-.559-1.102-1.242v-7.512c0-.688.492-1.246 1.102-1.246m0 0" stroke="url(#c)" transform="matrix(1.74294 0 0 1.74294 -17.828 -17.83)"/><path d="m21.11 12h7.793c.609 0 1.102.559 1.102 1.246v7.512c0 .688-.492 1.242-1.102 1.242h-7.793c-.609 0-1.102-.555-1.102-1.242v-7.512c0-.688.492-1.246 1.102-1.246m0 0" stroke="url(#b)" transform="matrix(1.74294 0 0 1.74294 -17.828 -17.83)"/><path d="m13.1 19h7.797c.609 0 1.102.555 1.102 1.242v7.512c0 .688-.492 1.246-1.102 1.246h-7.797c-.605 0-1.105-.559-1.105-1.246v-7.512c0-.688.496-1.242 1.105-1.242m0 0" stroke="url(#a)" transform="matrix(1.74294 0 0 1.74294 -17.828 -17.83)"/></g></svg>