<svg viewBox="0 0 48 48" xmlns="http://www.w3.org/2000/svg" xmlns:xlink="http://www.w3.org/1999/xlink"><linearGradient id="a" gradientUnits="userSpaceOnUse" x1="9.3304904" x2="21.25481885" y1="22.18304585" y2="22.18304585"><stop offset="0" stop-color="#b920c1"/><stop offset="1" stop-color="#9400ff"/></linearGradient><linearGradient id="b" gradientUnits="userSpaceOnUse" x1="13.0318292" x2="25.5229015" y1="16.1399858" y2="16.1399858"><stop offset="0" stop-color="#ff0067"/><stop offset="1" stop-color="#ff0067"/></linearGradient><linearGradient id="c" gradientUnits="userSpaceOnUse" x1="23.0137117" x2="37.4519607" y1="15.2146511" y2="15.2146511"><stop offset="0" stop-color="#ff7500"/><stop offset="1" stop-color="#ff3f00"/></linearGradient><linearGradient id="d" gradientUnits="userSpaceOnUse" x1="26.74248885" x2="38.66776345" y1="25.82572335" y2="25.82572335"><stop offset="0" stop-color="#fff006"/><stop offset="1" stop-color="#ff7b00"/></linearGradient><linearGradient id="e" gradientUnits="userSpaceOnUse" x1="22.4725139" x2="34.9635862" y1="31.8763526" y2="31.8763526"><stop offset="0" stop-color="#00ff6f"/><stop offset="1" stop-color="#1eff01"/></linearGradient><linearGradient id="f" gradientUnits="userSpaceOnUse" x1="10.5491316" x2="24.9949498" y1="32.78749505" y2="32.78749505"><stop offset="0" stop-color="#00b2ff"/><stop offset="1" stop-color="#002dff"/></linearGradient><g fill="none" stroke="#000" stroke-linecap="round" stroke-linejoin="round" stroke-width=".971"><path d="m26.914 10.415-3.414 9.605 13.468-2.236a14.303 14.303 0 0 0 -10.053-7.37m0 0" stroke="url(#c)" transform="matrix(1.46117 0 0 1.46117 -11.068 -11.072)"/><path d="m37.388 19.695-10.16 1.88 8.704 10.39a13.963 13.963 0 0 0 1.445-12.271m.01 0" stroke="url(#d)" transform="matrix(1.46117 0 0 1.46117 -11.068 -11.072)"/><path d="m34.474 33.281-6.738-7.724-4.778 12.625c4.32.185 8.6-1.567 11.502-4.9m.011 0" stroke="url(#e)" transform="matrix(1.46117 0 0 1.46117 -11.068 -11.072)"/><path d="m21.088 37.587 3.422-9.605-13.475 2.236a14.318 14.318 0 0 0 10.053 7.37m0 0" stroke="url(#f)" transform="matrix(1.46117 0 0 1.46117 -11.068 -11.072)"/><path d="m10.614 28.314 10.156-1.881-8.704-10.389c-2.32 3.597-2.923 8.124-1.445 12.27m-.007 0" stroke="url(#a)" transform="matrix(1.46117 0 0 1.46117 -11.068 -11.072)"/><path d="m13.522 14.735 6.738 7.724 4.778-12.625c-4.317-.185-8.6 1.567-11.498 4.9m-.015 0" stroke="url(#b)" transform="matrix(1.46117 0 0 1.46117 -11.068 -11.072)"/><path d="m26.89 23.997c0 1.572-1.292 2.846-2.884 2.846-1.593 0-2.89-1.274-2.89-2.846s1.297-2.847 2.89-2.847c1.592 0 2.884 1.275 2.884 2.847m0 0" stroke="#909090" stroke-width="1.419"/></g></svg>