<svg viewBox="0 0 48 48" xmlns="http://www.w3.org/2000/svg" xmlns:xlink="http://www.w3.org/1999/xlink"><linearGradient id="a" gradientUnits="userSpaceOnUse" x1="24" x2="24" y1="2" y2="46"><stop offset="0" stop-color="#00ff9b"/><stop offset="1" stop-color="#0097ff"/></linearGradient><linearGradient id="b" gradientUnits="userSpaceOnUse" x1="1" x2="47" xlink:href="#a" y1="24" y2="24"/><linearGradient id="c" gradientUnits="userSpaceOnUse" x1="11" x2="37" xlink:href="#a" y1="24" y2="24"/><path d="m47 24a23 23 0 0 1 -23 23 23 23 0 0 1 -23-23 23 23 0 0 1 23-23 23 23 0 0 1 23 23z" fill="none" stroke="url(#b)" stroke-width="1.5"/><path d="m11 11v26h26v-26zm3 3h4.324c2.587 0 4.676 2.017 4.676 5.475v.05c0 3.492-2.508 5.434-4.445 5.457l-1.555.018h-3zm15.5 0c1.587 0 3 .523 3.988 1.512l-1.414 1.414c-.574-.574-1.411-.926-2.574-.926-1.164 0-2 .352-2.574.926s-.926 1.41-.926 2.574.352 2 .926 2.574 1.411.926 2.574.926c1.048 0 1.71-.305 2.13-.588.29-.195.308-.255.37-.332v-1.08h-3v-2h5v3.783l-.166.25s-.384.562-1.088 1.037c-.705.476-1.793.93-3.246.93-1.588 0-3-.523-3.988-1.512-.988-.988-1.512-2.401-1.512-3.988 0-1.588.522-3 1.512-3.988.988-.99 2.401-1.512 3.988-1.512zm-13.5 2v7h2c1.204 0 3-.983 3-3.475v-.05c0-2.458-1.796-3.475-3-3.475zm-3 16h10v2h-10z" fill="url(#c)"/></svg>