<svg viewBox="0 0 48 48" xmlns="http://www.w3.org/2000/svg" xmlns:xlink="http://www.w3.org/1999/xlink"><linearGradient id="a" gradientUnits="userSpaceOnUse" x1="7.809" x2="28.645" y1="24.927" y2="24.927"><stop offset="0" stop-color="#ff971f"/><stop offset="1" stop-color="#ff1f7e"/></linearGradient><path d="m25.857 18.14v13.72l14.83-.106a2.284 2.284 0 0 0 2.286-2.282v-9.146a2.286 2.286 0 0 0 -2.286-2.286z" fill="none" stroke="#ff247a" stroke-width="1.143"/><path d="m10.414 14.51a2.603 2.603 0 0 0 -2.605 2.603v15.627a2.603 2.603 0 0 0 2.605 2.604h15.62a2.608 2.608 0 0 0 2.61-2.604v-15.627a2.608 2.608 0 0 0 -2.61-2.603zm2.063 2.875h11.906v2.97h-11.906zm0 5.953h11.906v2.969h-11.906v-2.97zm0 5.951h11.906v2.977h-11.906z" fill="url(#a)"/></svg>