<svg viewBox="0 0 48 48" xmlns="http://www.w3.org/2000/svg" xmlns:xlink="http://www.w3.org/1999/xlink"><linearGradient id="a"><stop offset="0" stop-color="#ff4d00"/><stop offset="1" stop-color="#ff0"/></linearGradient><linearGradient id="b" gradientUnits="userSpaceOnUse" x1="6.000085" x2="44.153955" xlink:href="#a" y1="13.28178008" y2="13.28178008"/><linearGradient id="c" gradientTransform="matrix(-1.23077 0 0 -1.23077 57.076 51.588)" gradientUnits="userSpaceOnUse" x1="10.5" x2="41.5" y1="14.104" y2="14.104"><stop offset="0" stop-color="#22c66c"/><stop offset="1" stop-color="#ff009d"/></linearGradient><linearGradient id="d" gradientUnits="userSpaceOnUse" x1="21.00070976" x2="40.24995256" xlink:href="#a" y1="8.00054601" y2="7.98823831"/><linearGradient id="e" gradientTransform="matrix(1.23077 0 0 -1.23077 -21.692 51.589)" gradientUnits="userSpaceOnUse" x1="25" x2="42" y1="9.803" y2="10.229"><stop offset="0" stop-color="#ff009d"/><stop offset="1" stop-color="#22c66c"/></linearGradient><path d="m74.077 70.954-8.746-9.08m7-6.402 9 9.102v5.898" fill="none" stroke="#000" stroke-linejoin="round" stroke-width="1.5"/><path d="m23.846 11.925h16.404l-7.788-7.875m-8.616 7.875" fill="url(#d)" opacity=".999"/><path d="m9.077 35.587h16.403l-7.789 7.875m-8.615-7.875" fill="url(#e)" opacity=".999"/><g fill="none" stroke-linejoin="round" stroke-width="1.231"><path d="m26.308 35.589-8.616 7.873m14.77 0 7.384-8.616 3.692 3.692v-13.538h-13.538l3.692 3.692-7.384 6.897-9.846-10.589h-9.847v7.385l11.077 11.077z" stroke="url(#c)"/><path d="m23.846 11.923 8.616-7.873m-14.77 0-7.384 8.616-3.693-3.692v13.538h13.539l-3.692-3.692 7.384-6.897 9.846 10.589h9.846v-7.385l-11.076-11.077z" stroke="url(#b)"/></g></svg>