<svg viewBox="0 0 48 48" xmlns="http://www.w3.org/2000/svg" xmlns:xlink="http://www.w3.org/1999/xlink"><linearGradient id="a" gradientTransform="matrix(0 -1 1 0 0 48)" gradientUnits="userSpaceOnUse" x1="1" x2="47"><stop offset="0" stop-color="#00efff"/><stop offset="1" stop-color="#07f"/></linearGradient><radialGradient id="b" cx="21.788252" cy="27.761391" gradientTransform="matrix(1.4450587 -.03822803 .03300474 1.2476127 -10.61331 -4.921083)" gradientUnits="userSpaceOnUse" r="17.430023" xlink:href="#a"/><radialGradient id="c" cx="21.788252" cy="27.761391" gradientTransform="matrix(1.4450587 -.03822803 .03300474 1.2476127 -11.907675 -4.777265)" gradientUnits="userSpaceOnUse" r="17.430023" xlink:href="#a"/><g fill="none" stroke="url(#b)" stroke-linecap="round" stroke-linejoin="round" stroke-width="1.8"><path d="m23.049621 3.368918-11.960507 17.150374c-4.1143325 5.897566-4.0687461 12.26961-1.2964392 17.081734 2.7726372 4.813151 8.2277432 8.09944 14.5884262 8.09944 6.360682 0 11.812694-3.286289 14.582119-8.09944 2.770453-4.812124 2.813866-11.184168-1.295294-17.085868l-11.964652-17.1797212c-1.032782-1.3972253-1.503078-1.420798-2.653653.033068z" stroke="url(#b)"/><path d="m24.387301 6.9326816-9.528092 14.5697074c2.210165-1.992035 5.137749-2.925518 7.916468-2.524416 1.279787.185062 2.527534.650257 3.65639 1.423467 2.484108 1.702596 1.330439 5.588464-1.67985 5.659796-.0073.001-.01653.0031-.02362.0041a4.6518867 4.6518867 0 0 0 -4.4865 4.645686 4.6518867 4.6518867 0 0 0 4.114344 4.617779c.700922.137468 1.492733.08739 2.479975-.07322 2.044766-.342135 5.019897-1.240507 6.620147-2.60196 4.0244-3.194301 3.288367-6.744199.870395-10.494655z" stroke="url(#b)"/><path d="m20.322483 22.074176c-2.351789-.105109-4.774911 1.200188-6.214924 3.795948-2.094379 3.774229-1.830769 8.295863 1.187788 11.534604 4.386209 4.706685 10.843025 3.834189 13.989767.538535-2.105753.643053-3.992348.908659-5.671158.741193a7.7531444 7.7531444 0 0 1 -.01417 0 7.7531444 7.7531444 0 0 1 -7.753148-7.753136 7.7531444 7.7531444 0 0 1 6.549866-7.653909c.324538-.09212.65439-.159198.989321-.171599-.939719-.643997-1.994113-.984124-3.063009-1.031718z" stroke="url(#c)"/></g></svg>