<svg viewBox="0 0 48 48" xmlns="http://www.w3.org/2000/svg" xmlns:xlink="http://www.w3.org/1999/xlink"><linearGradient id="a" gradientUnits="userSpaceOnUse" x1="14.056" x2="35.204" y1="20.947" y2="33.523"><stop offset="0" stop-color="#ff0097"/><stop offset="1" stop-color="#0009ff"/></linearGradient><path d="m32.027 13c-5.121 0-6.074 7.121-3.191 7.121 2.879 0 8.313-7.121 3.19-7.121m-8.14.875c-2.88.367-1.91 5.285-.375 5.375 1.535.094 3.262-5.738.375-5.375m-4.816 1.938c-.13.016-.297.07-.441.125-2.316.934-.355 4.758.94 4.5 1.22-.242 1.396-4.82-.5-4.625m-3.632 3c-.203-.008-.395.094-.63.25-1.851 1.25.603 4.215 1.692 3.75.953-.41.348-3.957-1.063-4m10.578 2.313c-3.973-.066-9.184 1.906-10.07 5.813-.97 4.227 3.969 10.06 9.137 10.06 2.543 0 5.46-2.227 6.01-5.066.422-2.16-4.883-1.305-4.688.125.227 1.715-1.328 2.547-2.82 1.441-4.742-3.523 7.844-5.254 7.02-10.07-.266-1.496-2.188-2.273-4.574-2.313m0 .004" fill="none" stroke="url(#a)" transform="matrix(1.45561 0 0 1.45561 -10.528 -11.39)"/></svg>