<svg viewBox="0 0 48 48" xmlns="http://www.w3.org/2000/svg" xmlns:xlink="http://www.w3.org/1999/xlink"><linearGradient id="a" gradientUnits="userSpaceOnUse" x1="12.002" x2="36.004" y1="24" y2="24"><stop offset="0" stop-color="#ff00d4"/><stop offset="1" stop-color="#0040ff"/></linearGradient><path d="m36 32.32c0 1.328-.453 2.441-1.355 3.336s-2.02 1.344-3.355 1.344c-1.543 0-2.887-.566-4.03-1.703l-13.32-13.203c-1.289-1.305-1.938-2.84-1.938-4.609 0-1.805.629-3.34 1.887-4.598s2.793-1.887 4.602-1.887c1.813 0 3.363.641 4.688 1.922l10.371 10.313c.105.113.172.238.172.375 0 .18-.176.445-.523.789-.352.344-.617.52-.801.52a.54.54 0 0 1 -.391-.172l-10.398-10.328c-.895-.875-1.938-1.313-3.102-1.313-1.215 0-2.234.426-3.07 1.277-.832.852-1.25 1.875-1.25 3.078 0 1.191.441 2.219 1.305 3.078l13.309 13.223c.719.715 1.551 1.074 2.48 1.074.73 0 1.336-.242 1.816-.719s.719-1.078.719-1.801c0-.934-.352-1.754-1.082-2.469l-9.957-9.883a1.479 1.479 0 0 0 -1.02-.41c-.332 0-.605.109-.824.324a1.109 1.109 0 0 0 -.324.816c0 .363.141.699.426 1l7.03 6.977a.524.524 0 0 1 .172.375c0 .184-.18.449-.531.801-.352.352-.625.527-.805.527a.519.519 0 0 1 -.375-.168l-7.03-6.977c-.723-.691-1.082-1.539-1.082-2.539 0-.93.328-1.719.98-2.367.645-.645 1.445-.969 2.379-.969 1.01 0 1.859.355 2.555 1.074l9.961 9.883c1.145 1.113 1.715 2.449 1.715 4m0 0" fill="none" stroke="url(#a)" stroke-width=".771" transform="matrix(1.32583 0 0 1.32583 -7.898 -7.897)"/></svg>