<svg viewBox="0 0 48 48" xmlns="http://www.w3.org/2000/svg" xmlns:xlink="http://www.w3.org/1999/xlink"><linearGradient id="a" gradientUnits="userSpaceOnUse" x1="2.29904464" x2="46.29095536" y1="23.66695656" y2="23.66695656"><stop offset="0" stop-color="#0038fc"/><stop offset="1" stop-color="#da00ff"/></linearGradient><path d="m18.514 8.397s-4.982-.11-10.22 3.82c0 0-5.234 9.492-5.234 21.2 0 0 3.053 5.272 11.09 5.527 0 0 1.347-1.634 2.436-3.016-4.617-1.382-6.362-6.32-6.362-6.32.564.372.923.582 1.49.91.852.478 1.74.89 2.654 1.235 1.492.581 3.264 1.173 5.342 1.566 4.942.937 10.05.404 14.693-1.53a20.798 20.798 0 0 0 4.18-2.147s-1.815 5.012-6.583 6.358c1.091 1.382 2.4 2.945 2.4 2.945 8.045-.26 11.13-5.526 11.13-5.526 0-11.709-5.235-21.2-5.235-21.2-5.237-3.928-10.22-3.82-10.22-3.82l-.507.583c6.18 1.892 9.054 6.645 9.054 6.645-3.781-2.073-7.486-3.133-10.946-3.49-2.782-.288-5.497-.131-7.963.147-1.27.142-4.363.581-8.25 2.29a38.02 38.02 0 0 0 -2.144 1.053s3.017-4.9 9.562-6.792l-.364-.438m-1.164 13.64c2.03 0 3.675 1.828 3.675 4.084s-1.65 4.083-3.675 4.083c-2.03 0-3.676-1.827-3.676-4.083s1.65-4.084 3.676-4.084zm13.884 0c2.03 0 3.676 1.828 3.676 4.084s-1.65 4.083-3.676 4.083c-2.03 0-3.675-1.827-3.675-4.083s1.65-4.084 3.675-4.084z" fill="none" stroke="url(#a)" stroke-linecap="round" stroke-linejoin="round" stroke-width="1.522"/></svg>