<svg height="64" viewBox="0 0 16.933 16.933" width="64" xmlns="http://www.w3.org/2000/svg" xmlns:xlink="http://www.w3.org/1999/xlink"><linearGradient id="a"><stop offset="0" stop-color="#f300ff"/><stop offset="1" stop-color="#12dbb9"/></linearGradient><linearGradient id="b" gradientUnits="userSpaceOnUse" x1="9.989" x2="40.551" xlink:href="#a" y1="24.106" y2="24.106"/><linearGradient id="c" gradientUnits="userSpaceOnUse" x1="16.889" x2="34.231" xlink:href="#a" y1="24.073" y2="24.073"/><linearGradient id="d" gradientUnits="userSpaceOnUse" x1="23.055" x2="28.065" xlink:href="#a" y1="24.073" y2="24.073"/><linearGradient id="e" gradientUnits="userSpaceOnUse" x1="15.008" x2="26.861" y1="31.587" y2="31.587"><stop offset="0" stop-color="#dadbdb"/><stop offset="1" stop-color="#e5e6e6"/></linearGradient><g transform="matrix(.41835 0 0 .41835 -1.82 -1.677)"><circle cx="15.859" cy="35.178" fill="#545454" r="1.645"/><rect fill="none" height="34.035" rx="1.072" stroke="url(#b)" stroke-linecap="round" stroke-linejoin="round" stroke-width="1.5" width="29.061" x="10.739" y="7.089"/><g fill="#545454"><circle cx="15.859" cy="11.145" r="1.645"/><circle cx="34.832" cy="11.145" r="1.645"/><circle cx="34.832" cy="35.178" r="1.645"/></g><circle cx="25.56" cy="24.073" fill="none" r="2.424" stroke="url(#d)" stroke-linecap="round" stroke-linejoin="bevel" stroke-width=".843"/><circle cx="25.56" cy="24.073" fill="none" r="8.392" stroke="url(#c)" stroke-linecap="round" stroke-linejoin="bevel" stroke-width="1.012"/><path d="m15.783 32.886 9.558-5.467 1.143.07.377.574-.387 1.078-8.804 6.615-2.285-.141-.377-.574z" fill="url(#e)"/><path d="m18.895 10.332h13.281v1.897h-13.281z" fill="#ea09fc"/></g></svg>