<svg viewBox="0 0 48 48" xmlns="http://www.w3.org/2000/svg" xmlns:xlink="http://www.w3.org/1999/xlink"><linearGradient id="a" gradientUnits="userSpaceOnUse" x1="4.38" x2="26.027" y1="25.014" y2="25.014"><stop offset="0" stop-color="#ffbf00"/><stop offset="1" stop-color="#fc0e0e"/></linearGradient><linearGradient id="b" gradientUnits="userSpaceOnUse" x1="10.139" x2="45.743" y1="25.018" y2="25.018"><stop offset="0" stop-color="#9000f6"/><stop offset="1" stop-color="#ff00d9"/></linearGradient><path d="m27.937 8.144a16.818 16.818 0 0 0 -15.33 9.843h30.673c-2.658-5.815-8.503-9.843-15.336-9.843h-.005zm-15.937 14.372 32-.042zm0 5.064 32-.058zm.603 4.469c2.657 5.813 8.503 9.843 15.333 9.843h.007c6.834 0 12.68-4.03 15.339-9.843z" fill="none" stroke="url(#b)" stroke-linecap="round" stroke-linejoin="round" stroke-width="2"/><path d="m24.362 5.037a19.938 19.938 0 0 0 -19.982 19.982 19.938 19.938 0 0 0 19.982 19.981c.566 0 1.106-.059 1.665-.105-10.277-.853-18.316-9.38-18.316-19.879 0-10.506 8.039-19.033 18.316-19.879-.56-.051-1.099-.11-1.665-.11" fill="url(#a)" fill-rule="evenodd"/></svg>