<svg viewBox="0 0 48 48" xmlns="http://www.w3.org/2000/svg" xmlns:xlink="http://www.w3.org/1999/xlink"><linearGradient id="a"><stop offset="0" stop-color="#f1ff2f"/><stop offset="1" stop-color="#ff7875"/></linearGradient><linearGradient id="b" gradientUnits="userSpaceOnUse" x1="6.64195" x2="42.37445" xlink:href="#a" y1="27.978233" y2="27.978233"/><linearGradient id="c" gradientUnits="userSpaceOnUse" x1="6.3060645" x2="42.37445" xlink:href="#a" y1="26.7947726" y2="26.7947726"/><linearGradient id="d" gradientUnits="userSpaceOnUse" x1="7.2846" x2="41.5878" xlink:href="#a" y1="15.3978367" y2="15.3978367"/><path d="m24.436 4.508-17.379 11.686 17.532 11.88 17.434-11.913z" fill="url(#d)"/><g fill="none" stroke-linejoin="round"><path d="m10.215 8.24.073 10.489 14.3 9.345 14.359-9.636-.147-10.198z" stroke="#a4a4a4" stroke-linecap="round" stroke-width="1.143"/><path d="m41.66 16.815.072 22.752-34.11-.187z" stroke="url(#c)" stroke-linecap="square" stroke-width="1.429"/><path d="m7.357 16.815 34.303 22.572-34.037-.007s-.237-15.772-.266-22.565z" stroke="url(#b)" stroke-linecap="square" stroke-width="1.429"/></g><rect fill="#c3cacd" height="1.429" ry=".715" width="11.434" x="13.074" y="11.098"/><rect fill="#c3cacd" height="1.429" ry=".715" width="17.152" x="13.074" y="13.956"/><rect fill="#c3cacd" height="1.429" ry=".715" width="22.869" x="13.074" y="16.815"/></svg>