<svg viewBox="0 0 48 48" xmlns="http://www.w3.org/2000/svg" xmlns:xlink="http://www.w3.org/1999/xlink"><linearGradient id="a" gradientUnits="userSpaceOnUse" x1="7.38707476" x2="45.15506764" y1="6.44111476" y2="40.5088754"><stop offset="0" stop-color="#540bff"/><stop offset="1" stop-color="#0400f2" stop-opacity=".459"/></linearGradient><path d="m20.294 3.393c-7.627 0-9.773 1.524-10.678 3.05 5.882 0 7.627 1.525 7.627 1.525h-2.289c-6.193 0-11.439 9.673-11.439 19.065 1.526-2.288 3.815-3.813 3.815-3.813-1.688 2.289-3.814 6.863-3.814 14.49 0 2.147.547 3.927 1.207 5.339h38.45c-4.615-3.428-12.202-8.17-12.202-15.253 0-3.05 3.05-6.101 12.202-6.101h3.05c0-3.05-3.05-7.626-9.151-9.15-2.068-3.052-7.626-9.153-16.778-9.153z" fill="none" stroke="url(#a)" stroke-linecap="square" stroke-width="1.9"/><path d="m25.69 11.018c3.052 0 4.578 0 4.578 3.051-3.051 0-4.577 0-4.577-3.051z" fill="#9f9f9f"/><path d="m13.37 5.522c-2.901.026-4.97.19-5.982.92 5.881 0 7.627 1.525 7.627 1.525.65-.463 1.525-1.29 1.525-2.443-1.144-.006-2.202-.012-3.17-.002zm12.32 10.07c-10.707 0-19.956 2.586-23.924 6.463a26.97 26.97 0 0 0 -.48 4.977c1.527-2.288 3.814-3.812 3.814-3.812 6.028-4.128 13.727-7.01 20.59-7.627zm9.153 4.578c-13.625 0-25.49 6.307-33.377 19.538a12.82 12.82 0 0 0 1.04 3.34h2.216c4.383-9.763 17.733-22.878 30.12-22.878z" fill="#f9ca5b"/></svg>