<svg height="48" width="48" xmlns="http://www.w3.org/2000/svg" xmlns:xlink="http://www.w3.org/1999/xlink"><linearGradient id="a"><stop offset="0" stop-color="#00ff16"/><stop offset="1" stop-color="#bf0"/></linearGradient><linearGradient id="b" gradientUnits="userSpaceOnUse" x1="3.927" x2="44.074" xlink:href="#a" y1="6.557" y2="43.371"/><linearGradient id="c" gradientUnits="userSpaceOnUse" x1="4.13" x2="45.286" xlink:href="#a" y1="6.361" y2="44.802"/><linearGradient id="d" gradientUnits="userSpaceOnUse" x1="3" x2="19" xlink:href="#a" y1="3" y2="3"/><path d="m45.935 29.424v-13.664c0-6.787-.695-7.866-7.5-7.866h-16.723l-3.08-3.075h-8.265c-6.798 0-7.494.382-7.494 7.166v17.44" fill="none" stroke="url(#c)" stroke-width="2"/><path d="m10.366 20.195c-6.798 0-7.494.695-7.494 7.487v9.64c0 6.788.696 7.488 7.496 7.488h28.072c6.8 0 7.503-.7 7.503-7.488v-12.716c0-6.791-.703-7.32-7.503-7.487h-15.622l-3.076 3.076z" fill="none" stroke="url(#b)" stroke-width="2"/><path d="m11 3-.707.707-7.293 7.293.707.707.293-.293v7.586h14v-7.586l.293.293.707-.707-2-2-.707.707.707.707v7.586h-4v-5h-4v5h-4v-7.586l6-6 1.293 1.293.707-.707-1.293-1.293zm3 2v3h2v-3z" fill="url(#d)" stroke-width=".947626" transform="matrix(1.2135593 0 0 1.2135593 11.950847 17.630508)"/></svg>