<svg viewBox="0 0 48 48" xmlns="http://www.w3.org/2000/svg" xmlns:xlink="http://www.w3.org/1999/xlink"><linearGradient id="a"><stop offset="0" stop-color="#007fff"/><stop offset="1" stop-color="#00ff9d"/></linearGradient><linearGradient id="b" gradientTransform="matrix(1.1307 -.00678 .00641 1.06835 -94.243 -54.758)" gradientUnits="userSpaceOnUse" x1="92.335" x2="103.868" y1="72.691" y2="72.691"><stop offset="0" stop-color="#007fff"/><stop offset="1" stop-color="#00ff8c"/></linearGradient><linearGradient gradientUnits="userSpaceOnUse" x1="-363.176" x2="-150.104" xlink:href="#a" y1="219.618" y2="219.618"/><linearGradient id="c" gradientTransform="matrix(1.009 0 0 .99983 -9.86 -5.774)" gradientUnits="userSpaceOnUse" x1="-363.176" x2="-150.104" xlink:href="#a" y1="219.618" y2="219.618"/><path d="m10.542 8.413.028 4.62 4.89-.03-.01-1.538 1.63-.008-.01-1.541-1.628.01-.01-1.543zm13.06 3.003.027 4.622-4.89.029-.01-1.54-1.628.01-.01-1.542 1.629-.01-.01-1.539zm-13.024 3.157.028 4.622 4.89-.03-.01-1.538 1.63-.01-.01-1.541-1.628.01-.01-1.54zm13.06 3.004.027 4.621-4.89.03-.009-1.542-1.63.01-.007-1.539 1.627-.01-.009-1.54zm-13.023 3.158.028 4.621 4.89-.03-.008-1.538 1.627-.01-.009-1.541-1.628.01-.01-1.541zm3.297 6.142.037 6.162 1.628-.01.037 6.16 3.262-.019-.036-6.16 1.63-.01-.038-6.16zm1.637 1.53 3.262-.02.02 3.082-3.26.02z" fill="url(#b)"/><g stroke="url(#c)" stroke-width="14.53066" transform="matrix(.17205 0 0 -.17205 69.5 62.232)"><path d="m-370.565 332.648v-226.678l122.175-.08c3.642-.001 9.76.483 16.464 7.001 19.275 18.739 43.983 42.636 59.758 58.365 5.303 5.29 6.518 9.603 6.518 14.442v118.32933c.002 12.08133-8.57371 30.76183-34.8731 30.05067z" fill="none"/><path d="m-165.527 184.194c-.687-8.375-7.654-12.678-12.712-16.067-11.1-7.442-33.327-4.993-45.89-5.17-.176-12.413 1.851-35.04-5.678-46.014-3.2-4.662-12.916-9.707-18.7-10.973 4.302.78 12.448 3.268 17.628 8.225.737.833 1.248 1.456 2.404 3.221 7.53 10.97 6.152 31.167 6.329 43.583 12.562.174 34.354-.556 45.456 6.886 1.011.678 3.464 2.552 4.359 3.436 3.34 3.3 6.306 5.613 6.804 12.873z" fill="#fff"/></g></svg>