<svg viewBox="0 0 48 48" xmlns="http://www.w3.org/2000/svg" xmlns:xlink="http://www.w3.org/1999/xlink"><linearGradient id="a" gradientUnits="userSpaceOnUse" x1="5.741" x2="40.792" y1="5.76" y2="39.85"><stop offset="0" stop-color="#b5007f"/><stop offset=".612" stop-color="#ff014a"/><stop offset="1" stop-color="#fbd425"/></linearGradient><path d="m43.169 33.523c.177-.25.416-1.05.627-1.406 1.283-2.072 1.292-3.725 1.292-3.762.777-3.873.705-5.455.229-8.379-.384-2.355-2.063-5.728-3.517-7.353-1.499-1.674-.443-1.129-1.894-2.351-1.272-1.41-2.505-2.807-3.177-3.368-4.852-4.057-4.742-4.918-4.649-5.065l-.068.076c-.058-.229-.098-.422-.098-.422s-2.654 2.653-3.214 7.074c-.364 2.887.717 5.896 2.282 7.819a17.748 17.748 0 0 0 2.746 2.699c1.182 1.697 1.832 3.792 1.832 6.045 0 5.642-4.577 10.217-10.223 10.217a10.35 10.35 0 0 1 -2.286-.257c-2.663-.509-4.202-1.852-4.969-2.764-.44-.522-.626-.903-.626-.903 2.386.854 5.025.675 6.63-.211 1.617-.897 2.596-1.562 3.39-1.3.783.261 1.406-.495.846-1.28-.547-.785-1.972-1.907-4.09-1.596-1.618.236-3.1 1.385-5.223.271a4.47 4.47 0 0 1 -.398-.233c-.14-.083.455.125.316.032-.413-.201-1.144-.64-1.333-.794-.031-.027.32.1.288.074-1.983-1.464-1.735-2.452-1.673-3.073.05-.496.41-1.132 1.017-1.389.294.143.476.253.476.253s-.125-.23-.193-.35c.024-.009.047-.007.07-.016.24.104.772.375 1.052.539.364.23.48.435.48.435s.095-.047.025-.248c-.027-.082-.137-.344-.497-.608l.022.002c.214.11.42.237.611.381.102-.332.286-.678.245-1.296-.024-.436-.013-.548-.098-.717-.078-.143.042-.2.176-.05a1.398 1.398 0 0 0 -.115-.341l.001-.012c.167-.518 3.516-1.868 3.76-2.026a3.275 3.275 0 0 0 .985-.96c.186-.266.327-.639.36-1.204.013-.255-.066-.457-.954-.65-.532-.116-1.355-.23-2.626-.348-.926-.082-1.47-.683-1.778-1.238a7.633 7.633 0 0 0 -.171-.336 2.472 2.472 0 0 1 -.132-.389 7.375 7.375 0 0 1 2.852-3.54c.074-.061-.298.016-.223-.045.087-.071.654-.277.761-.322.131-.055-.56-.319-1.17-.254-.622.062-.755.129-1.086.255.138-.123.575-.284.472-.283-.669.092-1.502.442-2.214.837a.45.45 0 0 1 .043-.2c-.332.124-1.147.635-1.383 1.067a1.838 1.838 0 0 0 .012-.25c-.25.188-.477.4-.679.638l-.012.01c-1.924-.694-3.618-.739-5.05-.428-.314-.282-.818-.709-1.532-2.112-.048-.085-.074.174-.112.09-.276-.642-.444-1.695-.416-2.422 0 0-.574.262-1.048 1.353a6.966 6.966 0 0 1 -.201.412c-.026.032.058-.358.045-.336-.082.139-.295.334-.39.587-.064.187-.154.292-.212.525l-.014.02c-.004-.068.018-.282.001-.238a11.146 11.146 0 0 0 -.573 1.39c-.255.839-.553 1.982-.6 3.47-.01.112 0 .238-.01.34-.606.69-1.018 1.276-1.174 1.58-.782 1.208-1.644 3.091-2.48 6.07.372-.813.817-1.592 1.329-2.326-.695 1.582-1.366 4.065-1.501 7.89.17-.791.384-1.572.646-2.338-.12 2.55.177 5.71 1.79 9.28.956 2.097 3.16 6.358 8.545 9.684s1.83 1.363 4.98 2.386c.231.084.468.167.709.248a4.718 4.718 0 0 1 -.22-.095 22.566 22.566 0 0 0 6.46.949c8.152.007 10.716-1.713 10.716-1.713.851.166-3.621-.56-5.17-.667 1.872-.55 3.103-1.014 5.5-1.932.28-.104.567-.223.86-.356l.095-.043.175-.08c1.167-.551 2.341-1.186 3.346-1.996 1.832-1.795 1.11-1.095 3.673-3.89.339-.392-2.78 1.519-4.274 2.216a32.065 32.065 0 0 0 1.973-2.905c.487-.484.64-1.24 1.003-1.747z" fill="none" stroke="url(#a)" stroke-linecap="round" stroke-linejoin="round" stroke-width="2.5"/></svg>