<svg viewBox="0 0 48 48" xmlns="http://www.w3.org/2000/svg" xmlns:xlink="http://www.w3.org/1999/xlink"><linearGradient id="a" gradientUnits="userSpaceOnUse" x1="4.344" x2="42.004" y1="8.735" y2="41.669"><stop offset="0" stop-color="#00ff8c"/><stop offset="1" stop-color="#007fff"/></linearGradient><g fill="url(#a)" transform="matrix(1.08758 0 0 1.08758 -2.074 -1.694)"><path d="m39.65 15.69q-3.266 0-4.526.746-1.26.747-1.26 2.549 0 1.435.938 2.284.952.835 2.577.835 2.241 0 3.589-1.582 1.362-1.596 1.362-4.232v-.6zm5.375-1.114v9.359h-2.695v-2.49q-.923 1.494-2.3 2.212-1.376.703-3.368.703-2.52 0-4.013-1.406-1.48-1.421-1.48-3.794 0-2.768 1.846-4.174 1.86-1.406 5.536-1.406h3.779v-.263q0-1.86-1.23-2.871-1.216-1.025-3.428-1.025-1.406 0-2.738.337-1.333.336-2.563 1.01v-2.49q1.479-.57 2.87-.85 1.392-.292 2.71-.292 3.559 0 5.316 1.845 1.758 1.846 1.758 5.595z"/><path d="m18.96 10.956-6.662 18.064h13.348zm-2.772-4.838h5.568l13.834 36.299h-5.106l-3.306-9.312h-16.363l-3.305 9.312h-5.18z"/></g></svg>