<svg viewBox="0 0 48 48" xmlns="http://www.w3.org/2000/svg" xmlns:xlink="http://www.w3.org/1999/xlink"><linearGradient id="a" gradientUnits="userSpaceOnUse" x1="16.39" x2="34.99" y1="17.931" y2="32.665"><stop offset="0" stop-color="#ff0073"/><stop offset="1" stop-color="#5a00ff"/></linearGradient><g fill="none" stroke="url(#a)" stroke-linecap="round" stroke-width="2"><path d="m3.227 4.934v33.276h6.655v-13.31h4.991v-4.992h-4.99v-6.655h11.645v-8.319z"/><path d="m26.635 16.093c-.147.028-.214.166-.214.316v4.6a9.462 9.462 0 0 0 -1.262.84l-4.241-1.797c-.138-.059-.292-.052-.376.073l-1.964 2.912c-.084.125-.033.27.073.376l3.25 3.252a9.462 9.462 0 0 0 -.293 1.487l-4.274 1.726c-.139.057-.242.169-.213.316l.67 3.452c.029.148.166.214.316.214h4.601a9.462 9.462 0 0 0 .84 1.262l-1.798 4.242c-.058.138-.051.292.073.376l2.913 1.964c.124.083.27.032.376-.073l3.252-3.25a9.462 9.462 0 0 0 1.487.292l1.726 4.274c.056.14.169.242.316.214l3.452-.67c.147-.029.214-.167.214-.317v-4.601a9.462 9.462 0 0 0 1.262-.84l4.242 1.798c.137.058.292.052.375-.073l1.964-2.912c.084-.125.033-.27-.073-.376l-3.25-3.252a9.462 9.462 0 0 0 .293-1.487l4.274-1.726c.14-.057.242-.17.213-.316l-.67-3.453c-.028-.147-.166-.213-.316-.213h-4.601a9.462 9.462 0 0 0 -.84-1.263l1.798-4.241c.058-.138.051-.292-.073-.376l-2.913-1.964c-.124-.084-.27-.032-.376.073l-3.252 3.25a9.462 9.462 0 0 0 -1.486-.292l-1.727-4.274c-.056-.14-.168-.242-.316-.214zm3.583 9.216a4.055 4.055 0 0 1 4.754 3.207 4.055 4.055 0 0 1 -3.206 4.753 4.055 4.055 0 0 1 -4.754-3.206 4.055 4.055 0 0 1 3.206-4.754z" stroke-linejoin="round"/></g></svg>