<svg viewBox="0 0 48 48" xmlns="http://www.w3.org/2000/svg" xmlns:xlink="http://www.w3.org/1999/xlink"><linearGradient id="a" gradientUnits="userSpaceOnUse" x1=".372" x2="47.653" y1="23.909" y2="23.909"><stop offset="0" stop-color="#ff3c00"/><stop offset="1" stop-color="#ff0093"/></linearGradient><path d="m38.926 4.574a1.28 1.28 0 0 0 -.646.1c-.342.173-.508.389-.673.623-.331.47-.62 1.097-.993 2.055-1.558 3.994-6.176 6.925-10.878 7.896a6.332 6.332 0 0 0 -3.2-.87 6.365 6.365 0 0 0 -4.076 1.473c-4.152-.338-7.418-4.974-7.418-4.974l-1.805-2.71v9.516a5.349 5.349 0 0 0 -.85 1.908c-.546-.378-1.113-.697-1.697-.909a5.657 5.657 0 0 0 -2.262-.354 4.288 4.288 0 0 0 -2.124.693c-1.286.857-1.91 2.349-1.932 3.899s.515 3.221 1.57 4.721c1.058 1.5 2.455 2.581 3.933 3.117a5.774 5.774 0 0 0 2.035.354c1.343 1.046 3.44 2.431 5.54 3.351 4.437 1.939 8.777 2.867 12.72 2.49 2.467-.239 4.776-1.005 6.807-2.336.32.17.64.335.959.477 2.605 1.193 5.03 1.986 6.849 2.335-.03.543.027 1.124.207 1.717.473 1.535 1.913 2.312 3.11 2.886 1.2.573 2.305.877 2.305.877l1.246.342v-1.292s.004-1.28-.12-2.708c-.061-.716-.149-1.47-.3-2.152-.15-.68-.28-1.288-.791-1.839a3.474 3.474 0 0 0 -2.14-1.123c-.766-.096-1.528.085-2.128.522-.042.028-.073.066-.108.098-1.328-1.044-3.31-2.224-5.621-3.33 2.624-3.343 3.655-8.433 4.078-13.116.427-4.763.185-9.061-.03-10.727-.069-.504-.135-1.004-.235-1.455-.1-.45-.073-.873-.7-1.346-.157-.12-.394-.19-.631-.208zm-.384 3.3c.18 1.421.431 5.692.02 10.26-.416 4.586-1.547 9.495-3.78 12.228-.065.077-.134.142-.196.218a40.439 40.439 0 0 0 -2.709-1.03c.173-1.931-2.94-3.352-2.94-3.352s.85 1.173.85 2.309c0 2.277-11.684 1.631-11.684 1.631s6.56 2.409 10.628 1.878c.677.47 1.446.98 2.273 1.489-1.52.82-3.197 1.308-5.021 1.481-3.502.34-7.53-.484-11.744-2.327-1.354-.593-2.793-1.467-3.955-2.259 1.27-.862 1.886-2.34 1.908-3.879a6.385 6.385 0 0 0 -.015-.542c.477.134.974.22 1.493.22a5.417 5.417 0 0 0 3.782-1.547 6.385 6.385 0 0 0 5.083 2.531c3.525 0 6.403-2.878 6.403-6.402a6.371 6.371 0 0 0 -1.366-3.933c4.713-1.32 9.15-4.344 10.877-8.78.04-.105.05-.097.093-.193zm-27.335 6.15c.424.47.916.962 1.474 1.432a5.477 5.477 0 0 0 -1.474.507zm11.328 2.324a4.42 4.42 0 0 1 4.433 4.433c0 .276-.03.546-.081.811a2.953 2.953 0 0 0 -2.874-2.289c-.085 0-.162.02-.247.027a1.47 1.47 0 0 1 1.232 1.45 1.478 1.478 0 0 1 -2.955 0c0-.4.161-.76.42-1.027a2.943 2.943 0 0 0 -1.405 2.505c0 1.4.977 2.571 2.289 2.874-.266.05-.535.081-.812.081a4.419 4.419 0 0 1 -4.432-4.432 4.42 4.42 0 0 1 4.432-4.433zm-8.865.985a3.44 3.44 0 0 1 2.797 1.431 6.22 6.22 0 0 0 -.262 1.104 2.418 2.418 0 0 0 -1.55-.565c-.069 0-.135.016-.204.02a1.23 1.23 0 0 1 -.207 2.443 1.23 1.23 0 1 1 -.881-2.09 2.456 2.456 0 0 0 .842 4.506 3.596 3.596 0 0 1 -.535.046 3.43 3.43 0 0 1 -2.012-.646l-.016-.012-.007-.008h-.004l-.054-.042c-.016-.011-.02-.011-.035-.023a9.123 9.123 0 0 0 -.92-1.697c-.103-.146-.222-.266-.33-.404a3.59 3.59 0 0 1 -.07-.615 3.433 3.433 0 0 1 3.448-3.448zm-9.104 2.955c.443-.023.931.054 1.454.246 1.043.378 2.152 1.209 2.99 2.402.84 1.189 1.228 2.489 1.212 3.555-.015 1.07-.392 1.847-1.058 2.289-.661.443-1.578.508-2.62.127-1.043-.377-2.15-1.209-2.99-2.402-.838-1.188-1.228-2.489-1.212-3.554 0-.02.004-.035.008-.05.061 1.296.923 2.312 1.962 2.312 1.089 0 1.97-1.104 1.97-2.462 0-1.266-.765-2.325-1.77-2.451.02 0 .035-.008.054-.012zm39.51 15.734c.272.034.576.204.923.577-.032-.032.192.373.31.916.12.546.205 1.238.263 1.9.049.573.03.654.049 1.096-.295-.115-.323-.091-.665-.257-1.02-.485-1.947-1.258-2.078-1.685-.384-1.235.008-1.99.454-2.317.223-.161.47-.262.743-.23z" fill="url(#a)"/></svg>