<svg height="64" width="64" xmlns="http://www.w3.org/2000/svg" xmlns:xlink="http://www.w3.org/1999/xlink"><linearGradient id="a" gradientUnits="userSpaceOnUse" x1="13.043799" x2="56.14185" y1="8.064034" y2="59.318272"><stop offset="0" stop-color="#2d99e3"/><stop offset="1" stop-color="#8513de"/></linearGradient><path d="m40.247207 27.989458c1.558422 0 2.827172 1.285853 2.827172 2.867937 0 1.582082-1.26875 2.867935-2.827172 2.867935-1.558395 0-2.825019-1.285853-2.825019-2.867935 0-1.582084 1.266624-2.867937 2.825019-2.867937z" fill="#6cdd8c"/><path d="m24.86847 27.989458c1.558413 0 2.827182 1.285853 2.827182 2.867937 0 1.582082-1.268769 2.867935-2.827182 2.867935-1.558395 0-2.825028-1.285853-2.825028-2.867935 0-1.582084 1.266633-2.867937 2.825028-2.867937z" fill="#6cdd8c"/><g fill="none" stroke="url(#a)" stroke-linecap="round" stroke-linejoin="round" stroke-width="3"><path d="m50.086148 14.461666c.760818 2.064825 1.175824 4.296419 1.175824 6.626753 0 3.741264-1.0483 8.074986-2.956867 12.202442-2.301941 4.985425-3.471297 10.19028-3.471297 15.469739v3.383184c0 5.763147.652764 3.135639 1.789684 4.234977 1.152047 1.116893 2.665079 1.685213 4.258081 1.608412 3.071398-.151415 5.477095-2.771383 5.477095-5.964074v-5.12586c0-.509075.196646-.98743.555514-1.342905.358794-.357668.830003-.550768 1.333602-.539793 1.002918.01982 1.817794.917211 1.817794 1.998996v5.130247c0 2.606815-1.015883 5.046866-2.857445 6.874706-1.843715 1.82565-4.275361 2.799913-6.840998 2.736279-5.094553-.122873-9.240209-4.529011-9.240209-9.821637v-5.551142c0-.908435-.724085-1.645716-1.621085-1.645716-.894846 0-1.621094.737281-1.621094 1.645716v4.572738c0 3.19269 2.405698 5.812672 5.474952 5.96408 1.595155.07899 3.106015-.491523 4.260224-1.606219 1.13693-1.101538 1.789684-2.64412 1.789684-4.237175v-2.323751c0-1.083976.814877-1.979248 1.819948-1.996807.505779-.0067.974799.179936 1.331449.5376.358804.355475.555504.831638.555504 1.340715v2.231595c0 5.29262-4.145674 9.698747-9.240218 9.821632-2.569971.06138-4.999436-.910631-6.838827-2.736272-1.843733-1.825653-2.857436-4.2679-2.857436-6.874712v-2.643957c0-.908437-.726265-1.645717-1.621103-1.645717-.897009 0-1.621094.73728-1.621094 1.645717v2.439889c-.0046 5.288234-4.147837 9.689976-9.240218 9.812862-2.567796.05925-4.999419-.908441-6.840975-2.734082-1.841558-1.827848-2.857451-4.2679-2.857451-6.874712v-2.325945c0-1.081782.814853-1.979247 1.817778-1.996808.501468-.0067.976978.182124 1.335774.539795.356648.355475.55333.831638.55333 1.33852v2.323752c0 3.190497 2.405708 5.810478 5.474972 5.961886 1.592983.0812 3.106005-.491523 4.260215-1.60622 1.13692-1.099343 1.789693-2.64412 1.789693-4.23498v-4.693424c0-.908435-.726266-1.645716-1.621094-1.645716-.894847 0-1.621085.737281-1.621085 1.645716v5.761794c0 2.606815-1.015892 5.046866-2.857454 6.874706-1.841554 1.82565-4.271019 2.802105-6.840999 2.736279-5.0945403-.122873-9.2380418-4.529011-9.2380418-9.821637v-5.035893c0-.509075.1966387-.98743.5555023-1.342905.3588026-.357668.8299814-.548573 1.3336047-.539793 1.0007633.01982 1.8156406.917211 1.8156406 1.998996v5.130247c0 1.593055.6527549 3.135639 1.7896582 4.234977 1.154225 1.116893 2.665082 1.685213 4.258072 1.608412 3.071427-.151415 5.477135-2.771383 5.477135-5.964074v-3.262499c0-5.279459-1.167197-10.484314-3.471317-15.469739-1.906387-4.127456-2.956859-8.461178-2.956859-12.202442 0-2.330334.414996-4.559733 1.175839-6.62456m31.287026 16.393536c0-3.39676-2.723444-6.159371-6.069369-6.159371-3.345926 0-6.06718 2.762611-6.06718 6.159371 0 3.396759 2.721254 6.159369 6.06718 6.159369 3.345925 0 6.069369-2.76261 6.069369-6.159369zm-15.378746 0c0-3.39676-2.723416-6.159371-6.06936-6.159371-3.345925 0-6.067187 2.762611-6.067187 6.159371 0 3.396759 2.721262 6.159369 6.067187 6.159369 3.345944 0 6.06936-2.76261 6.06936-6.159369z"/><path d="m48.679026 11.468654c-.09288.05925-.183652.1185-.272346.177731-.765142.502493-1.270921.83383-2.466206.83383-1.195276 0-1.701055-.331337-2.468388-.83383-.922929-.607817-2.072832-1.360458-4.225617-1.360458-2.150659 0-3.300553.754836-4.225654 1.360458-.765151.502493-1.270931.83383-2.466225.83383-1.193113 0-1.698883-.331337-2.464044-.83383-.925092-.605622-2.074986-1.360458-4.225645-1.360458-2.152812 0-3.302706.752641-4.225635 1.360458-.767323.502493-1.273096.83383-2.468388.83383-1.195269 0-1.701063-.331337-2.4662-.83383-.08642-.05704-.177186-.116295-.268029-.175545 3.25515-5.6042146 9.261825-9.3718092 16.122275-9.3718092 6.858279 0 12.864977 3.7675946 16.120102 9.3696152z"/></g></svg>