<svg viewBox="0 0 48 48" xmlns="http://www.w3.org/2000/svg" xmlns:xlink="http://www.w3.org/1999/xlink"><linearGradient id="a"><stop offset="0" stop-color="#ff7500"/><stop offset="1" stop-color="#8000d4"/></linearGradient><linearGradient id="b" gradientUnits="userSpaceOnUse" x1="3.53730415" x2="45.12070155" xlink:href="#a" y1="26.04277747" y2="26.04277747"/><linearGradient id="c" gradientUnits="userSpaceOnUse" x1="11.41801081" x2="37.22892959" xlink:href="#a" y1="10.27251191" y2="10.27251191"/><linearGradient id="d" gradientUnits="userSpaceOnUse" x1="17.29788627" x2="30.88054202" y1="26.64453708" y2="26.64453708"><stop offset="0" stop-color="#ff3401"/><stop offset="1" stop-color="#ff00d6"/></linearGradient><path d="m5.797 10.272c-.841-.044-1.642.93-1.528 1.575 1.448 9.578 1.523 18.523 0 28.394-.107.648.688 1.606 1.528 1.573h37.046c.858.033 1.647-.925 1.546-1.575-1.524-9.863-1.546-18.926 0-28.392.112-.65-.688-1.624-1.546-1.575-12.529.679-24.835.567-37.046 0m0 0" fill="none" stroke="url(#b)" stroke-width="2.098"/><g stroke-width="1.107"><path d="m14.285 16.725a2.152 2.152 0 1 1 -4.303 0 2.152 2.152 0 0 1 4.304 0m24.376 0a2.152 2.152 0 1 1 -4.304 0 2.152 2.152 0 0 1 4.305 0m0 0"/><path d="m12.135 17.442c-.717 0-.717-.83-.717-1.433 0-5.751 4.302-12.906 12.905-12.906 8.598 0 12.906 7.153 12.906 12.906 0 .604 0 1.433-.717 1.433s-.717-.83-.717-1.433c0-4.544-4.302-11.472-11.472-11.472s-11.471 6.928-11.471 11.473c0 .604 0 1.433-.712 1.433m0 0" fill="url(#c)"/><path d="m29.444 18.883c-3.477 0-4.126 4.611-2.166 4.611s5.644-4.61 2.166-4.61m-5.527.568c-1.958.24-1.294 3.417-.254 3.475 1.041.057 2.213-3.713.254-3.475m-3.27 1.254a1.265 1.265 0 0 0 -.298.083c-1.577.602-.248 3.076.635 2.91.826-.16.947-3.118-.342-2.989m-2.463 1.937c-.137-.004-.265.06-.425.159-1.258.807.405 2.73 1.148 2.429.649-.266.235-2.557-.723-2.59m7.183 1.494c-2.697-.042-6.233 1.235-6.838 3.763-.656 2.73 2.693 6.505 6.205 6.505 1.728 0 3.705-1.44 4.077-3.273.288-1.398-3.315-.845-3.186.083.16 1.106-.898 1.644-1.91.928-3.22-2.277 5.323-3.395 4.758-6.506-.174-.97-1.48-1.473-3.102-1.495m0-.003" fill="url(#d)"/></g></svg>