<svg viewBox="0 0 48 48" xmlns="http://www.w3.org/2000/svg" xmlns:xlink="http://www.w3.org/1999/xlink"><linearGradient id="a"><stop offset="0" stop-color="#42eb00"/><stop offset="1" stop-color="#fff100"/></linearGradient><linearGradient id="b" gradientTransform="matrix(3.75707 0 0 5.91653 -.328 -23.578)" gradientUnits="userSpaceOnUse" x1="4.717" x2="9.033" xlink:href="#a" y1="7.186" y2="10.786"/><linearGradient id="c" gradientUnits="userSpaceOnUse" x1="13.986" x2="36.251" xlink:href="#a" y1="26.218" y2="26.218"/><linearGradient id="d" gradientUnits="userSpaceOnUse" x1="19.443" x2="30.945" xlink:href="#a" y1="8.248" y2="8.248"/><g transform="matrix(0 -1.20139 -1.20139 0 53.291 54.277)"><rect fill="none" height="4.358" rx="1.059" stroke="url(#d)" stroke-width=".9" width="10.602" x="19.893" y="6.069"/><path d="m17.563 10.307a3.096 3.096 0 0 0 -3.047 3.054v25.713c0 1.65 1.398 3.055 3.047 3.055h15.232c1.649 0 2.926-1.402 2.926-3.055v-25.713c0-1.65-1.277-3.054-2.926-3.054z" fill="none" stroke="url(#c)" stroke-opacity=".941" stroke-width="1.059"/><path d="m16.632 40.24h16.978l-.036-11.81-16.942-8.308z" fill="url(#b)"/><path d="m32.304 23.27-6.771-2.45v-5.39h-1.87v6.125l4.165 1.715-10.045 3.92 5.88 2.45v5.39h1.87v-6.125l-3.273-1.715z" fill="none" stroke="#888" stroke-linecap="square" stroke-linejoin="bevel" stroke-width="1.122"/></g></svg>