<svg viewBox="0 0 48 48" xmlns="http://www.w3.org/2000/svg" xmlns:xlink="http://www.w3.org/1999/xlink"><linearGradient id="a" gradientUnits="userSpaceOnUse" x1="13.16678574" x2="36.67058625" y1="14.0179161" y2="35.82036912"><stop offset="0" stop-color="#ff0001"/><stop offset="1" stop-color="#ec3dc4"/></linearGradient><path d="m24 5.853c-.67 0-1.21.54-1.21 1.21v1.262a15.728 15.728 0 0 0 -11.765 6.788l-1.089-.628a1.206 1.206 0 0 0 -1.652.441 1.206 1.206 0 0 0 .442 1.652l1.106.638a15.647 15.647 0 0 0 -1.56 6.784c0 2.35.537 4.669 1.555 6.786l-1.1.636a1.206 1.206 0 0 0 -.443 1.651c.336.58 1.072.777 1.652.442l1.104-.635a15.727 15.727 0 0 0 11.75 6.788v1.27c0 .67.54 1.209 1.21 1.209s1.21-.54 1.21-1.21v-1.262a15.728 15.728 0 0 0 11.765-6.788l1.089.628c.58.335 1.316.139 1.652-.442a1.206 1.206 0 0 0 -.442-1.651l-1.106-.638a15.647 15.647 0 0 0 1.56-6.784c0-2.35-.537-4.669-1.555-6.786l1.1-.636a1.206 1.206 0 0 0 .443-1.652 1.206 1.206 0 0 0 -1.652-.441l-1.103.635a15.727 15.727 0 0 0 -11.751-6.788v-1.27c0-.67-.54-1.209-1.21-1.209zm-5.593 7.516c.468-.058.944.16 1.196.596l1.21 2.096a1.209 1.209 0 1 1 -2.094 1.21l-1.21-2.096a1.206 1.206 0 0 1 .898-1.806zm11.186 0a1.211 1.211 0 0 1 .898 1.806l-1.21 2.095a1.209 1.209 0 0 1 -2.093-1.21l1.21-2.095a1.205 1.205 0 0 1 1.195-.596zm-16.481 9.421h2.42c.67 0 1.21.54 1.21 1.21s-.54 1.21-1.21 1.21h-2.42c-.67 0-1.21-.54-1.21-1.21s.54-1.21 1.21-1.21zm10.888 0a1.21 1.21 0 1 1 0 2.42 1.21 1.21 0 0 1 0-2.42zm8.469 0h2.42c.67 0 1.21.54 1.21 1.21s-.54 1.21-1.21 1.21h-2.42c-.67 0-1.21-.54-1.21-1.21s.54-1.21 1.21-1.21zm-12.554 7.342a1.211 1.211 0 0 1 .898 1.807l-1.21 2.096a1.206 1.206 0 0 1 -1.652.442 1.206 1.206 0 0 1 -.442-1.651l1.21-2.096a1.207 1.207 0 0 1 1.196-.598zm8.17 0c.468-.059.945.162 1.196.598l1.21 2.095c.335.58.139 1.317-.442 1.652a1.206 1.206 0 0 1 -1.652-.442l-1.21-2.096a1.209 1.209 0 0 1 .899-1.807z" fill="none" stroke="url(#a)" stroke-linecap="round" stroke-linejoin="round" stroke-width="1.552"/></svg>