<svg viewBox="0 0 48 48" xmlns="http://www.w3.org/2000/svg" xmlns:xlink="http://www.w3.org/1999/xlink"><linearGradient id="a" gradientUnits="userSpaceOnUse" x1="8.787" x2="42.054" y1="6.757" y2="41.13"><stop offset="0" stop-color="#ff0097"/><stop offset="1" stop-color="#ff4a00"/></linearGradient><g fill="none" stroke="url(#a)" stroke-width="2"><path d="m35.669 3.04c-8.642.001-10.25 12.02-5.385 12.02 4.86 0 14.03-12.019 5.387-12.02zm-13.305 1.447c-.137 0-.283.01-.435.03-4.862.62-3.224 8.92-.633 9.072 2.51.154 5.325-9.081 1.068-9.102zm-8.566 3.3c-.22.027-.5.118-.742.21-3.91 1.577-.6 8.033 1.586 7.598 2.058-.408 2.356-8.134-.842-7.809zm-6.133 5.064c-.342-.013-.665.159-1.06.422-3.125 2.11 1.017 7.115 2.855 6.33 1.608-.692.587-6.676-1.793-6.752zm17.88 3.886-.024.018c-6.707-.111-15.503 3.218-16.999 9.813-1.637 7.135 6.7 16.98 15.424 16.98 2.41.13 3.46-2.377 2.055-2.945-2.484-.71-1.957.29-1.33-2.912l-3.18-1.477.153-6.137 2.625-1.05c.177-.609.42-1.197.72-1.754l-1.111-2.596 2.123-2.123 2.606 1.115a9.008 9.008 0 0 1 1.744-.725l2.13-1.907.704-.72c.92-1.88-3.79-3.515-7.639-3.58z" stroke-linecap="round" stroke-linejoin="round"/><path d="m33.285 25.189-.794 1.984a6.804 6.804 0 0 0 -1.316.547l-1.968-.842-1.604 1.603.84 1.96a6.804 6.804 0 0 0 -.545 1.326l-1.983.793v2.267l1.984.794a6.804 6.804 0 0 0 .547 1.317l-.843 1.968 1.604 1.603 1.96-.84a6.804 6.804 0 0 0 1.325.546l.793 1.983h2.268l.794-1.984a6.804 6.804 0 0 0 1.317-.547l1.968.842 1.603-1.603-.84-1.96a6.804 6.804 0 0 0 .546-1.326l1.983-.793v-2.267l-1.985-.794a6.804 6.804 0 0 0 -.547-1.317l.843-1.968-1.603-1.603-1.96.839a6.804 6.804 0 0 0 -1.326-.545l-.793-1.983zm1.134 6.237a2.268 2.268 0 0 1 2.268 2.267 2.268 2.268 0 0 1 -2.268 2.268 2.268 2.268 0 0 1 -2.268-2.268 2.268 2.268 0 0 1 2.268-2.267z"/></g></svg>