<svg viewBox="0 0 48 48" xmlns="http://www.w3.org/2000/svg" xmlns:xlink="http://www.w3.org/1999/xlink"><linearGradient id="a"><stop offset="0" stop-color="#0f8"/><stop offset="1" stop-color="#00c3ff"/></linearGradient><linearGradient id="b" gradientUnits="userSpaceOnUse" x1="2.76620992" x2="45.22685296" xlink:href="#a" y1="18.60039904" y2="18.60039904"/><linearGradient id="c" gradientTransform="matrix(1.16261 0 0 .94434 -3.932 .738)" gradientUnits="userSpaceOnUse" x1="4.649" x2="43.35" xlink:href="#a" y1="39.989" y2="39.989"/><path d="m2.638 32.836.057 2.965c4.41 5.473 11.062 8.69 21.276 8.34 10.22.35 16.867-2.867 21.277-8.34l.056-2.965-3.08.787v2.178c-.894.468-3.652 1.08-5.477 1.483v-2.41l-3.65.465v1.947c-1.034.708-2.96 1.175-5.477 1.482l-.62-2.768h-6l-.681 2.768c-2.517-.307-4.443-.774-5.476-1.482v-1.947l-3.651-.464v2.41c-1.825-.404-4.584-1.016-5.476-1.484v-2.178l-3.081-.787z" fill="none" stroke="url(#c)" stroke-linecap="round" stroke-linejoin="round" stroke-width="2"/><path d="m16.762 22.965a2.078 2.078 0 1 1 -4.157 0 2.078 2.078 0 1 1 4.157 0z" fill="#353535"/><path d="m19.764 3.49-5.028 1.693.795 5.08-4.34 2.382-2.436-2.381-5.08 5.08 3.386 3.387v9.21l.847.052v2.752l3.387 1.322v-2.91c2.515.546 3.648.783 5.08.899v2.646l3.388 1.006v-3.122h8.467v3.122l3.387-1.006v-2.646c1.433-.116 2.566-.353 5.08-.9v2.911l3.387-1.322v-2.752l.847-.053v-9.209l3.387-3.387-5.08-5.08-2.436 2.38-4.34-2.38.794-5.08-5.028-1.694-1.905 3.387h-4.657l-1.905-3.387zm-5.08 15.241a4.234 4.234 0 1 1 0 8.468 4.234 4.234 0 0 1 0-8.468zm18.628 0a4.234 4.234 0 1 1 0 8.468 4.234 4.234 0 0 1 0-8.468zm-9.314 3.387a1.69 1.69 0 0 1 1.694 1.694v3.387a1.69 1.69 0 0 1 -1.694 1.693 1.69 1.69 0 0 1 -1.693-1.693v-3.387a1.69 1.69 0 0 1 1.693-1.694z" fill="none" stroke="url(#b)" stroke-linecap="round" stroke-linejoin="round" stroke-width="2"/><path d="m35.408 23.004a2.078 2.078 0 1 1 -4.157 0 2.078 2.078 0 1 1 4.157 0z" fill="#353535"/></svg>