<svg height="48" width="48" xmlns="http://www.w3.org/2000/svg" xmlns:xlink="http://www.w3.org/1999/xlink"><linearGradient id="a" gradientUnits="userSpaceOnUse" x1="-5.045" x2="40.672" y1="23.628" y2="23.628"><stop offset="0" stop-color="#00caf6"/><stop offset="1" stop-color="#d100ff"/></linearGradient><g fill="none" stroke="url(#a)" stroke-linecap="round" stroke-linejoin="round" stroke-width="1.8" transform="translate(6.346 1.276)"><path d="m-.527 23.627c-.022 10.138 8.202 18.362 18.34 18.34m18.341-18.34h-7.551c.013 5.964-4.825 10.803-10.79 10.79-5.964.013-10.802-4.826-10.789-10.79-.013-5.964 4.825-10.803 10.79-10.79v-7.55" stroke-width="1.979"/><path d="m17.814 1.765a21.816 21.816 0 0 0 -21.864 21.862h7.652a14.18 14.18 0 0 1 14.21-14.21zm14.212 21.862a14.18 14.18 0 0 1 -14.212 14.212v7.652a21.816 21.816 0 0 0 21.862-21.864z" stroke-width="1.992"/><path d="m18.13 18.583a5.034 5.034 0 0 1 5.044 5.044 5.034 5.034 0 0 1 -5.044 5.044 5.034 5.034 0 0 1 -5.045-5.044 5.034 5.034 0 0 1 5.045-5.044" stroke-width="1.979"/></g></svg>