<svg height="48" width="48" xmlns="http://www.w3.org/2000/svg" xmlns:xlink="http://www.w3.org/1999/xlink"><linearGradient id="a" gradientTransform="matrix(1.14282 0 0 -1 -4.57 1052.3)" gradientUnits="userSpaceOnUse" x1="2.518" x2="44.536" y1="10.056" y2="38.676"><stop offset="0" stop-color="#ff8500"/><stop offset="1" stop-color="#f06"/></linearGradient><g fill="none" stroke="url(#a)"><path d="m24.103 39.692c-12.955 0-19.37-9.824-21.373-13.493-.286-.526-.605-1.035-.606-1.617.002-.582.32-1.091.606-1.616 2.002-3.67 8.418-13.494 21.373-13.494 12.954 0 19.37 9.824 21.373 13.493.286.525.604 1.035.605 1.617-.001.582-.32 1.091-.606 1.617-2 3.669-8.417 13.493-21.372 13.493z" stroke-width="1.8"/><circle cx="24.102" cy="24.581" r="9.083" stroke-width="1.6"/></g><g fill="#ff2927" stroke="#ff2927" stroke-width=".731"><path d="m30.913 28.099h-1.49l-1.774-1.774-2.955 2.956-4.73-4.73-2.951 2.952a7.685 7.685 0 0 0 7.09 4.734 7.685 7.685 0 0 0 6.81-4.138z"/><circle cx="27.058" cy="22.211" r="2.365"/></g></svg>