<svg viewBox="0 0 48 48" xmlns="http://www.w3.org/2000/svg" xmlns:xlink="http://www.w3.org/1999/xlink"><linearGradient id="a" gradientUnits="userSpaceOnUse" x1="2.07699435" x2="46.9154589" y1="22.2053346" y2="22.2053346"><stop offset="0" stop-color="#45e74c"/><stop offset="1" stop-color="#45e74c"/></linearGradient><path d="m17.114 10.958c-.373 0-.664.22-.853.445-.191.226-.329.49-.457.799-.258.62-.472 1.43-.67 2.395-.391 1.93-.701 4.462-.946 6.992-.42 4.353-.555 7.568-.608 8.697-.324-.328-.62-.723-1.197-.723-.682 0-.848-.224-.98-.46a1.149 1.149 0 0 1 -.137-.477h-1.226s-.006.242-.136.477c-.131.237-.293.46-.967.46-2.21 0-4.24-.548-6.861-.012a22.929 22.929 0 0 0 .268 1.197c2.323-.47 4.202.04 6.593.04.878 0 1.36-.474 1.716-.92.358.446.845.92 1.729.92.063 0 .43.217.708.552.276.334.464.68.464.68l1.15-.268s.217-5.03.701-10.047c.243-2.508.554-5.015.93-6.863.188-.925.396-1.688.596-2.17.067-.16.12-.229.174-.317.058.1.113.188.185.37.203.529.411 1.354.6 2.352.375 1.998.687 4.704.929 7.408a252.1 252.1 0 0 1 .695 10.828l1.203.14s.207-.747.51-1.477c.152-.366.332-.725.49-.953.157-.228.281-.221.125-.221 1.183 0 1.793-.413 2.284-.838.06.127.084.254.185.376.208.25.57.462.97.462.037 0 0-.016.037.027a.955.955 0 0 1 .136.301c.081.286.087.61.087.61h1.225s.008-.324.085-.61c.04-.142.1-.261.135-.304.037-.043-.002-.024.03-.024h.86c.565 0 .933-.405 1.161-.77s.387-.776.541-1.167c.153-.391.3-.763.427-.99.014-.022.017-.02.029-.04.018.026.026.027.046.06.136.227.295.594.457.982.16.387.324.792.536 1.147.107.175.226.342.395.492.168.15.418.286.71.286.801 0 1.25-.563 1.654-.947.404-.383.733-.611.928-.611.06 0 .443.23.836.611.197.192.4.396.63.577.23.182.5.377.911.37h.01c1.708-.054 3.096-.424 4.525-.618 1.427-.193 2.908-.228 4.94.34a22.929 22.929 0 0 0 .302-1.185c-2.184-.606-3.89-.572-5.407-.367-1.524.206-2.849.56-4.4.61l.009-.003c.087-.002.006.003-.135-.109a8.053 8.053 0 0 1 -.53-.492c-.413-.4-.888-.959-1.69-.959-.822 0-1.354.554-1.77.95-.39.371-.666.544-.759.57-.03-.035-.06-.066-.107-.145-.138-.228-.297-.6-.457-.986-.162-.387-.324-.792-.538-1.147a1.954 1.954 0 0 0 -.394-.492 1.088 1.088 0 0 0 -.71-.287 1.07 1.07 0 0 0 -.71.296c-.167.153-.28.323-.38.502-.2.356-.348.756-.498 1.14-.151.384-.304.747-.44.964-.135.218-.18.195-.122.195h-.86c-.354 0-.65.2-.863.41-.214-.212-.514-.41-.871-.41-.034 0 .006.021-.03-.022a.973.973 0 0 1 -.137-.31 2.829 2.829 0 0 1 -.087-.615h-1.225s.013.155-.181.39c-.195.236-.616.557-1.78.557-.582 0-.886.396-1.13.749-.059.082-.093.188-.145.278-.082-1.764-.163-4.11-.532-8.228-.241-2.726-.551-5.453-.943-7.527-.194-1.038-.405-1.908-.658-2.568-.129-.329-.263-.607-.448-.845-.187-.237-.48-.48-.873-.48z" fill="#45e74c" stroke="url(#a)" stroke-linecap="square" stroke-linejoin="round" stroke-width=".955"/></svg>