<svg viewBox="0 0 48 48" xmlns="http://www.w3.org/2000/svg" xmlns:xlink="http://www.w3.org/1999/xlink"><linearGradient id="a" gradientUnits="userSpaceOnUse" x1="24" x2="24" y1="2" y2="46"><stop offset="0" stop-color="#c331ff"/><stop offset="1" stop-color="#2c5eff"/></linearGradient><linearGradient id="b" gradientUnits="userSpaceOnUse" x1=".25" x2="47.75" xlink:href="#a" y1="24" y2="24"/><linearGradient id="c" gradientUnits="userSpaceOnUse" x1="11" x2="37" xlink:href="#a" y1="24" y2="24"/><path d="m47 24a23 23 0 0 1 -23 23 23 23 0 0 1 -23-23 23 23 0 0 1 23-23 23 23 0 0 1 23 23z" fill="none" stroke="url(#b)" stroke-width="1.5"/><path d="m11 11v26h26v-26zm4 3h6v2h-2v7h2v2h-6v-2h2v-7h-2zm13 0h2l-.006 7.082c.006 1.409-.53 2.36-1.023 2.89-.79.809-1.813.89-2.768 1.022l-.61-.012c-1.207-.138-2.059-.927-2.82-1.62l1.215-1.372c.4.414 1 .91 1.623.992.624.083 1.426.016 1.907-.392.482-.41.482-.965.482-1.627zm-15 18h10v2h-10z" fill="url(#c)"/></svg>