<svg viewBox="0 0 48 48" xmlns="http://www.w3.org/2000/svg" xmlns:xlink="http://www.w3.org/1999/xlink"><linearGradient id="a" gradientUnits="userSpaceOnUse" x1="-371.932" x2="-218.918" y1="111.047" y2="276.607"><stop offset="0" stop-color="#007fff"/><stop offset="1" stop-color="#00ff9d"/></linearGradient><g fill="none" stroke="url(#a)" stroke-width="8.465" transform="matrix(.23628 0 0 .23628 94.645 -20.904)"><path d="m-316.93 106.938-67.852 69.433c-22.926 28.39 15.602 25.087 32.118 33.265 5.925 6.056-22.708 10.526-16.784 16.586 5.925 6.056 35.825 11.668 41.76 17.724 5.925 6.056-12.127 12.48-6.202 18.536 5.924 6.056 19.627.318 22.193 14.299 1.828 9.99 24.693 4.293 35.876-3.89 5.924-6.06-11.334-5.49-5.41-11.545 14.733-15.067 28.451-5.475 33.492-20.572 2.49-7.46-21.688-11.5-15.753-17.557 17.046-9.955 75.964-16.435 48.007-44.391l-70.332-71.888c-8.601-8.258-22.956-8.35-31.113 0zm77.94 133.836c0 3.444 25.38 5.702 25.38-.813-3.617-10.466-22.38-9.759-25.38.813zm-114.33 18.304c6.01 5.197 15.293-1.293 18.076-8.546-5.823-7.738-27.623.278-18.077 8.546zm111.147-11.228c-7.748 6.95.869 14 8.506 9.51 1.702-1.727-.046-7.783-8.506-9.51z" stroke-width="10.580667"/><path d="m-333.168 213.393c1.813 1.127 29.239 6.698 35.941 7.809 2.324.49.677 2.884-2.525 4.5-7.223 1.92-42.255-12.309-33.416-12.309zm43.25-93.122 26.845 27.265c2.545 2.6 2.51 7.641 1.086 9.091l-13.33-10.662-2.62 15.789-11.138-5.88-17.834 11.269-5.904-23.754-9.582 16.577h-14.647c-5.97 0-6.672-7.577-1.248-13.001 9.476-10.228 20.35-20.653 26.26-26.694 5.94-6.07 16.288-5.899 22.112 0z"/></g></svg>