<svg viewBox="0 0 48 48" xmlns="http://www.w3.org/2000/svg" xmlns:xlink="http://www.w3.org/1999/xlink"><linearGradient id="a"><stop offset="0" stop-color="#ffc614"/><stop offset="1" stop-color="#ff5714"/></linearGradient><linearGradient id="b" gradientUnits="userSpaceOnUse" x1="16.093" x2="32" xlink:href="#a" y1="11.997" y2="22"/><linearGradient id="c" gradientUnits="userSpaceOnUse" x1="9.429" x2="39.025" xlink:href="#a" y1="34.941" y2="34.941"/><path d="m10.441 24.235v8.34c0 6.892 5.17 12.06 13.785 12.06 8.617 0 13.787-5.168 13.787-12.06v-8.34" fill="none" stroke="url(#c)" stroke-width="2.023"/><g fill="none" stroke="url(#b)" stroke-linecap="round" stroke-linejoin="round" stroke-width="1.174" transform="matrix(1.72325 0 0 1.72325 -17.018 -17.324)"><path d="m24 12v10h-8v-3c0-3 4-7 8-7"/><path d="m24 12v10h8v-3c0-3-4-7-8-7m0 0"/></g><path d="m24.34 13.924c1.184 0 2.15 1.445 2.15 3.225v8.599c0 1.78-.966 3.224-2.15 3.224s-2.15-1.444-2.15-3.224v-8.599c0-1.78.964-3.225 2.15-3.225m0 0" fill="#f50035"/></svg>