<svg viewBox="0 0 48 48" xmlns="http://www.w3.org/2000/svg" xmlns:xlink="http://www.w3.org/1999/xlink"><linearGradient id="a"><stop offset="0" stop-color="#009dff"/><stop offset="1" stop-color="#00ff6c"/></linearGradient><linearGradient id="b" gradientUnits="userSpaceOnUse" x1="45.62382032" x2="85.56396" xlink:href="#a" y1="20.21152" y2="20.21152"/><linearGradient id="c" gradientUnits="userSpaceOnUse" x1="1.531" x2="30.5" xlink:href="#a" y1="16" y2="16"/><g fill="url(#c)" stroke-width="1.379" transform="translate(-41.424 3.729)"><path d="m65.572.91a19.254 19.254 0 0 0 -19.195 17.275l.75.096 4.658 3.31 9.91 5.697 2.027 12.132a19.26 19.26 0 0 0 21.152-19.21 19.26 19.26 0 0 0 -19.302-19.3z" fill="none" stroke="url(#b)"/><path d="m65.572.91a19.302 19.302 0 0 0 -18.005 12.408h.082l4.136-1.379 1.379 1.379 1.378 1.379v-2.758l2.758-1.379v-1.378l2.757-1.379 2.758-2.757v1.378l1.378-1.378-1.378-1.38h2.757v1.38l2.757-1.38-1.378-1.378v-1.31a19.302 19.302 0 0 0 -1.379-.068zm14.304 6.376-.517.517v1.379h2.025a19.302 19.302 0 0 0 -1.508-1.896zm1.815 2.322-.953.952-2.758 2.758-1.378 1.379-1.379 4.136v1.378l1.379 1.38 1.378 1.378 2.758 1.379 3.848-.949a19.302 19.302 0 0 0 .288-3.188 19.302 19.302 0 0 0 -3.183-10.603zm-32.664 6.467-1.378 1.38h-1.156c-.069.468-.121.938-.155 1.41v.002l2.69 1.345 1.378 1.378 2.758 1.379 1.378 1.379-1.378 1.378v2.758l1.378 2.757 2.758 2.759v3.624a19.302 19.302 0 0 0 8.272 1.89c.234-.004.469-.012.703-.024l.676-1.354v-1.379l2.757-1.379 1.379-1.378v-2.76l1.379-1.378v-1.38l-1.38-1.378-4.135-1.379-1.379-1.378-1.379-1.38h-1.378l-1.38-1.378-4.135-1.379-2.758 1.38h-2.757v-2.758h-1.379v-2.758z" fill="url(#b)"/></g></svg>