<svg viewBox="0 0 48 48" xmlns="http://www.w3.org/2000/svg" xmlns:xlink="http://www.w3.org/1999/xlink"><linearGradient id="a" gradientUnits="userSpaceOnUse" x1="11.503" x2="44.665" y1="12.135" y2="44.813"><stop offset="0" stop-color="#ff0700"/><stop offset="1" stop-color="#f503f7" stop-opacity=".992"/></linearGradient><path d="m17.609 10a7.93 7.93 0 0 0 -2.711.523l4.656 4.656a3.093 3.093 0 1 1 -4.372 4.372l-4.652-4.652c-1.082 2.77-.512 6.07 1.727 8.301 2.238 2.238 5.531 2.809 8.301 1.727l12.1 12.11a3.105 3.105 0 0 0 3.02.875 3.087 3.087 0 0 0 2.223-2.223 3.087 3.087 0 0 0 -.871-3.02l-12.1-12.1c1.082-2.77.512-6.07-1.727-8.301a7.7 7.7 0 0 0 -5.59-2.254m17.215 23.766a1.048 1.048 0 1 1 -1.051 1.047c0-.578.469-1.047 1.051-1.047m0 0" fill="none" stroke="url(#a)" stroke-width="1.667" transform="matrix(1.31952 0 0 1.31952 -6.855 -7.466)"/></svg>