<svg viewBox="0 0 48 48" xmlns="http://www.w3.org/2000/svg" xmlns:xlink="http://www.w3.org/1999/xlink"><linearGradient id="a" gradientUnits="userSpaceOnUse" x1="3.99795125" x2="43.79998554" y1="2.8296184" y2="44.93222562"><stop offset="0" stop-color="#00e5ff"/><stop offset="1" stop-color="#0079cd"/></linearGradient><path d="m22.57 2.96v6.532h3.266c.902 0 1.633.73 1.633 1.632v22.043a5.702 5.702 0 0 1 -5.715 5.714 5.702 5.702 0 0 1 -5.714-5.714v-1.633a5.715 5.715 0 0 0 -5.715-5.715 5.715 5.715 0 0 0 -5.715 5.715c0 7.236 5.826 13.878 13.062 13.878h6.531a14.663 14.663 0 0 0 14.695-14.694v-19.594c0-.901.731-1.632 1.633-1.632h3.266v-6.532z" fill="none" stroke="url(#a)" stroke-width="1.8"/></svg>