<svg viewBox="0 0 48 48" xmlns="http://www.w3.org/2000/svg" xmlns:xlink="http://www.w3.org/1999/xlink"><linearGradient id="a"><stop offset="0" stop-color="#ff000b"/><stop offset="1" stop-color="#80f"/></linearGradient><linearGradient id="b" gradientUnits="userSpaceOnUse" x1="11.2603299" x2="26.2597" xlink:href="#a" y1="23.25351901" y2="23.25351901"/><linearGradient id="c" gradientUnits="userSpaceOnUse" x1="-46.24833216" x2="-31.59080344" xlink:href="#a" y1="18.92041704" y2="18.92041704"/><rect fill="none" height="28.533" rx=".757" stroke="#424242" stroke-width="1.176" width="20.173" x="9.176" y="8.612"/><rect fill="#424242" height="1.097" rx=".63" width="5.043" x="16.741" y="34.95"/><path d="m20.005 15.748-2.502.183v10.392l2.502-.318v-4.535c1.131 1.708 1.985 3.295 3.5 4.947l2.701-.777c-1.446-1.677-2.527-3.151-3.512-4.761 1.025-1.513 2.31-3.032 3.566-4.39l-2.8-.687c-1.307 1.472-2.414 2.995-3.455 4.524m-5.998-2.449a.213.213 0 0 0 -.115.062c-.308.29-.598.581-.904.872-.133.128.003.282.062.39l.62.857.464.625c.065.09.085.1.052.164a9.201 9.201 0 0 0 -.116.185c-.602 1.014-.18 1.093-1.472 1.422l-.99.163c-.146.05-.336.044-.346.247l-.001 1.226c-.008.187.202.205.326.236l1.054.183.789.144c.108.015.131-.01.156.07.323 1.36.745 1.048.042 2.238l-.567.79c-.075.136-.215.27-.073.41.298.295.585.592.885.889.131.129.303-.003.41-.061l.872-.606.652-.439c.09-.072.102-.09.169-.051 1.307.798 1.353.221 1.734 1.566l.187.962c.049.144.054.33.254.337h1.27c.19 0 .208-.218.231-.337l.178-1.023.126-.757c.008-.073.005-.11.02-.134 1.53-.315 1.15-.76 2.396-.051l.808.551c.149.073.29.2.432.064.3-.282.598-.569.9-.85.133-.136.002-.292-.062-.397h-.001l-.588-.808-.388.131c-.1.065-.232.041-.35-.112l-.849-1.095a4.384 4.384 0 0 1 -3.534 1.76c-2.397 0-4.353-1.902-4.353-4.238 0-1.659.987-3.095 2.418-3.79v-.975c-.049.024-.105.036-.146.051-.56.227-.596.33-1.513-.182l-.808-.562c-.112-.049-.212-.141-.315-.118m2.777 2.18c-1.216.669-2.043 1.951-2.043 3.41 0 2.152 1.803 3.91 4.021 3.91 1.37 0 2.572-.676 3.298-1.705l-.04-.082c-.849.918-1.81 1.515-3.27 1.546-1.82.031-3.66-1.546-3.67-3.625-.016-1.341.62-2.243 1.702-2.885v-.564" fill="url(#b)" fill-rule="evenodd"/><g fill="none" stroke="url(#c)" stroke-linecap="round" stroke-linejoin="round" stroke-width="2.512"><path d="m35.7 15.174s4.359 2.147 4.359 7.295-4.43 6.91-4.43 6.91"/><path d="m31.6 17.78s3.179 1.503 3.18 4.934c0 3.432-3.18 4.503-3.18 4.503"/><path d="m27.776 19.7s1.954.883 1.955 2.923c0 2.04-1.955 2.689-1.955 2.689"/></g></svg>