<svg viewBox="0 0 48 48" xmlns="http://www.w3.org/2000/svg" xmlns:xlink="http://www.w3.org/1999/xlink"><linearGradient id="a"><stop offset="0" stop-color="#ff0030"/><stop offset="1" stop-color="#ff36a5"/></linearGradient><linearGradient id="b" gradientUnits="userSpaceOnUse" x1="-44.09" x2="-13.311" xlink:href="#a" y1="6.73" y2="40.24"/><linearGradient id="c" gradientUnits="userSpaceOnUse" x1="-46.8237425" x2="-9.63501575" xlink:href="#a" y1="6.4865225" y2="46.97498"/><linearGradient id="d" gradientUnits="userSpaceOnUse" x1="-47.5958053" x2="-8.83981187" xlink:href="#a" y1="4.8522141" y2="47.0470008"/><g fill="none" stroke="url(#b)" stroke-linecap="round" stroke-linejoin="round" stroke-width="2" transform="translate(53.476 1.83)"><g stroke="url(#d)"><path d="m-35.98 14.242h3.777m-7.555 5.036h7.555m-13.85 5.037h13.85m-18.887 5.037h18.887m-13.85 5.036h13.85m-7.555 5.037h7.555"/><path d="m-20.87 1.65h-15.11l3.777 5.036 3.778 5.037 3.777-5.037z"/><path d="m-21.848 15.524c-.619.037-1.284.649-1.283 1.327l-.023 20.008c0 .903 1.182 1.69 1.859 1.153l12.741-10.038c.68-.53.68-1.774 0-2.307l-12.718-9.97a.834.834 0 0 0 -.576-.173z"/></g><path d="m-28.51 44.123v-32.654" stroke="url(#c)"/></g></svg>