<svg viewBox="0 0 48 48" xmlns="http://www.w3.org/2000/svg" xmlns:xlink="http://www.w3.org/1999/xlink"><linearGradient id="a"><stop offset="0" stop-color="#2f4bf2"/><stop offset="1" stop-color="#2effdb"/></linearGradient><linearGradient id="b" gradientUnits="userSpaceOnUse" x1="6.78595" x2="42.51845" xlink:href="#a" y1="29.774233" y2="29.774233"/><linearGradient id="c" gradientUnits="userSpaceOnUse" x1="6.4500645" x2="42.51845" xlink:href="#a" y1="28.5907726" y2="28.5907726"/><linearGradient id="d" gradientUnits="userSpaceOnUse" x1="7.4286" x2="41.7318" xlink:href="#a" y1="17.1928367" y2="17.1928367"/><path d="m24.58 6.304-17.38 11.686 17.533 11.88 17.434-11.913z" fill="url(#d)"/><g fill="none" stroke-linejoin="round"><path d="m10.359 10.036.073 10.489 14.3 9.345 14.359-9.636-.147-10.198z" stroke="#a4a4a4" stroke-linecap="round" stroke-width="1.143"/><path d="m41.804 18.61.072 22.753-34.11-.187z" stroke="url(#c)" stroke-linecap="square" stroke-width="1.429"/><path d="m7.5 18.61 34.304 22.573-34.037-.007s-.237-15.772-.267-22.566z" stroke="url(#b)" stroke-linecap="square" stroke-width="1.429"/></g><rect fill="#c3cacd" height="1.429" ry=".715" width="11.434" x="13.218" y="12.894"/><rect fill="#c3cacd" height="1.429" ry=".715" width="17.152" x="13.218" y="15.752"/><rect fill="#c3cacd" height="1.429" ry=".715" width="22.869" x="13.218" y="18.611"/></svg>