<svg viewBox="0 0 48 48" xmlns="http://www.w3.org/2000/svg" xmlns:xlink="http://www.w3.org/1999/xlink"><linearGradient id="a"><stop offset="0" stop-color="#0087ff"/><stop offset="1" stop-color="#1fff00"/></linearGradient><linearGradient id="b" gradientUnits="userSpaceOnUse" x1="6.66785294" x2="40.389405" xlink:href="#a" y1="24.83123309" y2="24.83123309"/><linearGradient id="c" gradientUnits="userSpaceOnUse" x1="5.19585294" x2="38.917405" xlink:href="#a" y1="26.50723309" y2="26.50723309"/><g fill="none" stroke-linecap="round" stroke-linejoin="round" stroke-width="1.889"><path d="m17.565 20.054a7.772 7.772 0 0 0 -.35.32c-2.669 2.646-2.963 6.772-.888 9.756l-8.984 8.984 1.907 1.908 8.979-8.99c2.962 2.063 7.06 1.796 9.714-.84l-10.378-11.14z" stroke="url(#b)"/><path d="m39.038 7.626-8.986 8.976c-2.96-2.061-7.06-1.786-9.712.848l10.378 11.146c.124-.104.237-.214.356-.327 2.663-2.644 2.958-6.772.885-9.753l8.981-8.986-1.902-1.902" stroke="url(#c)"/></g></svg>