<svg viewBox="0 0 48 48" xmlns="http://www.w3.org/2000/svg" xmlns:xlink="http://www.w3.org/1999/xlink"><linearGradient id="a" gradientUnits="userSpaceOnUse" x1="11.5" x2="36.504" y1="23.998" y2="23.998"><stop offset="0" stop-color="#0081ff"/><stop offset="1" stop-color="#4600f4"/></linearGradient><g fill="none" stroke="url(#a)" stroke-linecap="round" stroke-linejoin="round" transform="matrix(1.40671 0 0 1.40671 -9.357 -9.86)"><path d="m24 12c-6.629 0-12 5.188-12 11.586 0 3.859 1.969 7.258 4.969 9.363-.109.441-.246.91-.469 1.395-.75 1.656-1.496 1.656-1.496 1.656s2.25 0 3.746-.828c.316-.176.598-.461.844-.801a12.37 12.37 0 0 0 4.41.801c6.625 0 12-5.188 12-11.586 0-6.402-5.371-11.59-12-11.59m0 .004" stroke="url(#a)" stroke-linecap="square" stroke-width="1.213"/><path d="m25.387 22.194h-2.442l-.56 2.838h2.415zm2.732 3.987h-2.386l-.665 3.32h-1.17l.679-3.32h-2.433l-.662 3.32h-1.174l.689-3.32h-1.312v-1.153h1.526l.587-2.837h-2.113v-1.153h2.337l.68-3.352h1.149l-.662 3.352h2.422l.68-3.352h1.152l-.665 3.352h1.345v1.153h-1.583l-.564 2.837h2.146l.027.921" fill="#fb009a" stroke="#fb009a" stroke-width=".364"/></g></svg>