<svg viewBox="0 0 48 48" xmlns="http://www.w3.org/2000/svg" xmlns:xlink="http://www.w3.org/1999/xlink"><linearGradient id="a"><stop offset="0" stop-color="#00b94d"/><stop offset="1" stop-color="#fff500"/></linearGradient><linearGradient id="b" gradientUnits="userSpaceOnUse" x1="12.144" x2="36.706" xlink:href="#a" y1="16.44" y2="30.965"/><linearGradient id="c" gradientUnits="userSpaceOnUse" x1=".25" x2="47.75" xlink:href="#a" y1="24" y2="24"/><path d="m19 35.22v11.218a24.706 24.706 0 0 0 2.46.416 22.517 22.517 0 0 0 2.54.146 21.955 21.955 0 0 0 2.54-.147 23.341 23.341 0 0 0 2.46-.416v-11.218m0-22.437v-11.219a23.009 23.009 0 0 0 -5-.563 21.951 21.951 0 0 0 -2.54.147 23.338 23.338 0 0 0 -2.46.416v11.219m-10 2.501v-8.719-.001c-4.897 4.218-8 10.467-8 17.438s3.103 13.22 8 17.438v-8.719m0 0v8.718a22.924 22.924 0 0 0 10 5v-11.219m0-22.437v-11.219a22.924 22.924 0 0 0 -10 5v8.719m20 19.938v11.218a22.924 22.924 0 0 0 10-5v-8.719m0-17.437v-8.719a22.924 22.924 0 0 0 -10-5v11.219m10 19.938v8.718c4.897-4.218 8-10.467 8-17.438s-3.103-13.22-8-17.438v8.72" fill="none" stroke="url(#c)" stroke-linecap="round" stroke-linejoin="round" stroke-width="1.5"/><path d="m14.28 14.918v2h2l-3 14h-2v2h7v-2h-1.7l1.1-6h1.6l3 6c.509 1.016 1.4 2 3 2h3l7-7 2-3v-1l-1-1h-1l-1 1v3l-4.5 5 1.5-8-1-1-4 1v1h2l-1 8h-1l-4-8 6-6h2v-2h-7v2h2.3l-6.7 7h-1l1.4-7h2v-2z" fill="url(#b)"/></svg>