<svg viewBox="0 0 48 48" xmlns="http://www.w3.org/2000/svg" xmlns:xlink="http://www.w3.org/1999/xlink"><linearGradient id="a"><stop offset="0" stop-color="#8900ff"/><stop offset="1" stop-color="#8f056c"/></linearGradient><linearGradient id="b" gradientUnits="userSpaceOnUse" x1="9.29409" x2="32.98655" xlink:href="#a" y1="35.521295" y2="35.521295"/><linearGradient id="c" gradientUnits="userSpaceOnUse" x1="9.29409" x2="32.98655" xlink:href="#a" y1="20.98274" y2="20.98274"/><linearGradient id="d" gradientUnits="userSpaceOnUse" x1="9.29409" x2="32.98655" xlink:href="#a" y1="29.059715" y2="29.059715"/><linearGradient id="e" gradientUnits="userSpaceOnUse" x1="-3.60214675" x2="45.88170982" xlink:href="#a" y1="27.44432" y2="27.44432"/><path d="m16.833 3.055c-.363.064-.721.135-1.077.213v25.253h-12.508c.014.361.04.719.07 1.077h12.436v15.175c.357.078.716.149 1.077.213v-15.388h12.925v14h10.151c.304-.35.598-.708.881-1.075h-9.957v-12.925h14.979c.031-.356.055-.716.073-1.076h-7.511v-12.015a23.98 23.98 0 0 0 -1.08-.981v12.997h-20.46v-25.468z" fill="url(#e)"/><path d="m9.427 31.754a1.328 1.328 0 0 0 -.133.536v3.233c0 2.09 5.283 3.767 11.845 3.767 6.564 0 11.847-1.68 11.847-3.77v-3.228c0-.181-.055-.363-.133-.536-.817 1.83-5.727 3.23-11.711 3.23-5.99 0-10.898-1.4-11.716-3.232z" fill="url(#b)"/><path d="m9.427 25.29a1.328 1.328 0 0 0 -.133.539v3.231c0 2.09 5.283 3.77 11.845 3.77 6.564 0 11.847-1.682 11.847-3.77v-3.23c0-.183-.055-.364-.133-.54-.817 1.832-5.727 3.233-11.711 3.233-5.99 0-10.898-1.401-11.716-3.23z" fill="url(#d)"/><path d="m27.602 29.598h1.076v1.077h-1.076m0 5.385h1.076v1.077h-1.076m0-1.076" fill="#ff00d9"/><rect fill="url(#c)" height="10.77" rx="11.846" ry="3.77" width="23.692" x="9.294" y="15.599"/><path d="m27.602 23.138h1.076v1.076h-1.076m0-1.076" fill="#ff00d9"/></svg>