<svg viewBox="0 0 48 48" xmlns="http://www.w3.org/2000/svg" xmlns:xlink="http://www.w3.org/1999/xlink"><linearGradient id="a"><stop offset="0" stop-color="#7a00ff"/><stop offset="1" stop-color="#00a2ff"/></linearGradient><linearGradient id="b" gradientUnits="userSpaceOnUse" x1="12.5" x2="37.504" y1="24" y2="24"><stop offset="0"/><stop offset="1" stop-opacity="0"/></linearGradient><linearGradient id="c" gradientUnits="userSpaceOnUse" x1="12.5" x2="37.504" xlink:href="#a" y1="24" y2="24"/><linearGradient id="d" gradientTransform="matrix(.66546 0 0 1 5.353 0)" gradientUnits="userSpaceOnUse" x1="12.5" x2="37.504" xlink:href="#a" y1="24" y2="24"/><g fill="none" stroke="url(#b)" stroke-width="1.138" transform="matrix(1.582 0 0 -1.582 -15.49 61.929)"><path d="m14.781 11c-.98 0-1.781.801-1.781 1.781v22.438c0 .98.801 1.781 1.781 1.781h20.438c.984 0 1.785-.801 1.785-1.781v-18.223l-6-5.996zm0 0" stroke="url(#c)"/><path d="m16.236 14h10.177c.13 0 .236.16.236.355v1.289c0 .195-.106.352-.236.352h-10.177c-.13 0-.236-.156-.236-.352v-1.289c0-.195.106-.355.236-.355m0 0" stroke="url(#d)"/><g stroke="url(#c)"><path d="m37 17h-6v-5.996m6 5.996" stroke-linecap="round" stroke-linejoin="round"/><path d="m16.355 20h15.293c.195 0 .355.156.355.352v1.289c0 .199-.16.355-.355.355h-15.293a.354.354 0 0 1 -.355-.355v-1.289c0-.195.16-.352.355-.352m0 0"/><path d="m16.355 26h15.293c.195 0 .355.16.355.355v1.289c0 .195-.16.355-.355.355h-15.293a.356.356 0 0 1 -.355-.355v-1.289c0-.195.16-.355.355-.355m0 0"/><path d="m16.355 31.996h15.293c.195 0 .355.16.355.355v1.289c0 .195-.16.355-.355.355h-15.293a.356.356 0 0 1 -.355-.355v-1.289c0-.195.16-.355.355-.355m0 0"/></g></g></svg>