<svg viewBox="0 0 48 48" xmlns="http://www.w3.org/2000/svg" xmlns:xlink="http://www.w3.org/1999/xlink"><linearGradient id="a" gradientUnits="userSpaceOnUse" x1="450.312" x2="493.746" y1="530.983" y2="530.983"><stop offset="0" stop-color="#0081ff"/><stop offset="1" stop-color="#00d8ce"/></linearGradient><path d="m492.846 518.29-.013-5.202-20.81.01c-7.19 8.247-7.62 26.819-15.596 12.996h-5.203m28.603-5.202a7.786 7.786 0 0 0 -7.803 7.803 7.786 7.786 0 0 0 7.803 7.804c2.01 0 3.821-.775 5.203-2.016v2.016h2.6v-15.607h-2.6v2.016c-1.382-1.241-3.192-2.016-5.203-2.016m0 2.601c7.423.766 5.474 10.24 0 10.405m-28.587 7.777h41.567m-23.359 2.602v4.6h5.15v-4.6z" fill="none" stroke="url(#a)" stroke-linecap="round" stroke-linejoin="round" stroke-width="1.8" transform="translate(-447.824 -504.681)"/></svg>