<svg viewBox="0 0 48 48" xmlns="http://www.w3.org/2000/svg" xmlns:xlink="http://www.w3.org/1999/xlink"><linearGradient id="a" gradientUnits="userSpaceOnUse" x1="27.856608" x2="10.249304" y1="13.1238" y2="41.093456"><stop offset="0" stop-color="#00c835"/><stop offset="1" stop-color="#8bfa00"/></linearGradient><path d="m9.83 11.52a1.065 1.065 0 0 0 -1.067 1.067v27.197c0 .59.479 1.066 1.068 1.064l19.925.204a1.065 1.065 0 0 0 1.067-1.066l-.02-5.814a1.065 1.065 0 0 0 -1.067-1.067h-12.176v-20.518c0-.59-.478-1.067-1.067-1.067z" fill="none" stroke="url(#a)" stroke-width="1.7"/><path d="m25.992 5.233v18.304h11.44v-.011l.01.011 4.567-4.566v-13.741h-14.873zm1.144 1.144h13.729v11.44h-4.576v4.576h-9.153z" fill="#00c835"/></svg>