<svg viewBox="0 0 48 48" xmlns="http://www.w3.org/2000/svg" xmlns:xlink="http://www.w3.org/1999/xlink"><linearGradient id="a" gradientUnits="userSpaceOnUse" x1="5.892" x2="42.153" y1="25.526" y2="25.526"><stop offset="0" stop-color="#ff6200"/><stop offset="1" stop-color="#ff00ca"/></linearGradient><g fill="none" stroke="url(#a)" stroke-width="1.586" transform="matrix(1.13461 0 0 1.13461 -3.234 -4.453)"><path d="m5.892 7.566h36.261m0 35.92h-36.261"/><g stroke-linecap="round" stroke-linejoin="round"><path d="m36.475 25.525a12.45 12.45 0 1 1 -24.9 0 12.449 12.449 0 0 1 24.899 0m0 0"/><path d="m32.149 16.093-8.123 9.428 8.796 8.795a12.393 12.393 0 0 0 3.647-8.795 12.412 12.412 0 0 0 -4.328-9.428m.008 0"/><path d="m24.025 13.076a12.267 12.267 0 0 0 -3.944.633l3.944 11.822 8.122-9.429a12.37 12.37 0 0 0 -8.122-3.021m0 0"/></g></g></svg>