<svg viewBox="0 0 48 48" xmlns="http://www.w3.org/2000/svg" xmlns:xlink="http://www.w3.org/1999/xlink"><linearGradient id="a" gradientUnits="userSpaceOnUse" x1="37.5240692" x2="16.5196534" y1="9.072183" y2="33.209608"><stop offset="0" stop-color="#ff0014"/><stop offset="1" stop-color="#ffe307"/></linearGradient><path d="m14.656 36.508-3.265-3.266-7.208 7.208 3.266 3.266m7.207-7.208" fill="#2d2d2d"/><path d="m19.848 30.522-2.29-2.29-5.482 5.277 2.29 2.29" fill="#ffb50a"/><path d="m32.968 9.168-1.476 4.378c1.81.606 3.141 2.271 3.141 4.282 0 .268-.053.506-.096.762l4.52.761a9.116 9.116 0 0 0 .144-1.523c0-4.031-2.611-7.446-6.233-8.66" fill="#ff1b12"/><path d="m42.388 19.066c0 7.148-5.793 12.941-12.942 12.941-7.154 0-12.947-5.793-12.941-12.941-.006-7.143 5.787-12.942 12.941-12.942 7.149 0 12.942 5.8 12.942 12.942" fill="none" stroke="url(#a)" stroke-width="3.045"/><g stroke-linecap="round" stroke-linejoin="round" stroke-width="2.133"><path d="m20 19h11" fill="none" stroke="#ff9d0b"/><path d="m28 24h7" fill="#e0d2e5" stroke="#ff7c0d"/><path d="m24 13h6" fill="#e0d2e5" stroke="#ff1d12"/></g></svg>