<svg viewBox="0 0 48 48" xmlns="http://www.w3.org/2000/svg" xmlns:xlink="http://www.w3.org/1999/xlink"><linearGradient id="a"><stop offset="0" stop-color="#ffed00"/><stop offset="1" stop-color="#ff0064"/></linearGradient><linearGradient id="b" gradientUnits="userSpaceOnUse" x1="110.437" x2="153.937" xlink:href="#a" y1="22.939" y2="22.939"/><linearGradient id="c" gradientUnits="userSpaceOnUse" x1="117.80400868" x2="149.02134868" xlink:href="#a" y1="24.38494396" y2="24.38494396"/><linearGradient id="d" gradientUnits="userSpaceOnUse" x1="116.33800868" x2="147.55534868" xlink:href="#a" y1="29.04994396" y2="29.04994396"/><linearGradient id="e" gradientUnits="userSpaceOnUse" x1="117.71400868" x2="148.93134868" xlink:href="#a" y1="23.84694396" y2="23.84694396"/><g fill="none" stroke="url(#b)" stroke-linecap="round" stroke-linejoin="round" transform="translate(-108.257 1.495)"><path d="m121.687 35.24c-7-7.6-2.1-16-2.1-16 5.2-10 19.1-11.4 19.1-11.4 4.8-.6 10 3.9 10 3.9 2.2 1.3 3.2.9 3.7.2-.3-1-.3-2-.3-2 0-.5-.1-1.2-.2-1.7-.2-2.8-2.9-5.1-6.3-5.1-.4 0-.9 0-1.3.1-1-.1-2-.6-2-.6-1.8-.8-1.8.6-1.8.6 0 .3-.1.7-.1 1.1-2.7-1.5-5.9-2.4-9.2-2.4-11 .1-20 9.5-20 21 0 11.6 9 21 19.9 21 7.9 0 14.6-4.8 17.9-11.8-.7.7-1.6 1.4-2.6 2-11.7 11-21.055 5.056-24.7 1.1z" stroke-width="1.5"/><path d="m146.487 34.14c-2.7 1.6-6.2 2.7-10.1 2.7-8.5 0-15.3-4.8-15.3-10.8s6.9-10.8 15.3-10.8c3.2 0 6.2.7 8.6 1.9 3.8 1.6 5.3.9 5.3.9.6-.1 1.2-.4 1.7-.8.7-.6 1.2-1.5 1.2-2.5 0-.6-.1-1.1-.3-1.5-.1-.2-.2-.5-.3-.7s-.1-.4-.2-.6" stroke-width="1.5"/><path d="m151.087 12.64c-.4.3-.5.7-1.2.7 0 0-.9.4.2 1.6 0 0 .9 1.1 1.7.9 0 0 1.2-.4 1.1-1.5s-1.1-2-1.8-1.7z" stroke-width="1.5"/><g stroke-width="1.076"><path d="m130.707 29.3v1.269c0 .346.192.615.538.73l4.306 1.307c1 .308 1.653.27 2.384-.307l3.421-3.114c.231-.193.346-.5.346-.808v-1.345" stroke="url(#e)"/><path d="m130.9 29.608 4.997 1.422a2.124 2.124 0 0 0 1.96-.423l3.73-3.23c.192-.153.077-.46-.154-.5l-5.613-.691c-.077 0-.115 0-.192.038l-4.806 2.884c-.192.115-.154.423.077.5z" stroke="url(#e)"/><path d="m135.91 20.38c-.039-.192-.538-.307-1.115-.23s-1.038.307-1 .538l1.654 7.343c.038.154.115.27.269.308.269.077.653.115 1-.115a.366.366 0 0 0 .153-.385z" stroke="url(#c)"/><ellipse cx="130.77" cy="38.283" rx="1.077" ry=".461" stroke="url(#d)" transform="matrix(.99055738 -.13709878 .13709878 .99055738 0 0)"/></g><ellipse cx="152.087" cy="11.339" fill="#fff" fill-opacity=".995" rx=".8" ry="1" stroke-width="1.4"/><circle cx="146.487" cy="10.039" fill="#fff" fill-opacity=".908" r="1.4" stroke-width="1.5"/><path d="m136.087 15.24s1.4 1.4 2.1 2.4c0 0 1.3 1.6 2.7.7 0 0 1.3-.8-.4-2.8-1.9-.5-4.4-.3-4.4-.3zm-15.7 2.7s3.2-.2 4.9 1.4c0 0 1.7 2.2 3.5 1.1 0 0 1.1-.7-.5-3.1 0 0-.7-1-2-1.3-.1 0-2.8-.6-.8-3.3" stroke-width="1.5"/></g></svg>