<svg viewBox="0 0 48 48" xmlns="http://www.w3.org/2000/svg" xmlns:xlink="http://www.w3.org/1999/xlink"><linearGradient id="a"><stop offset="0" stop-color="#2f4bf2"/><stop offset="1" stop-color="#2effdb"/></linearGradient><linearGradient id="b" gradientUnits="userSpaceOnUse" x1="3.52941" x2="45.76291" xlink:href="#a" y1="30.7898654" y2="30.7898654"/><linearGradient id="c" gradientUnits="userSpaceOnUse" x1="3.1324151" x2="45.76291" xlink:href="#a" y1="29.39109188" y2="29.39109188"/><linearGradient id="d" gradientUnits="userSpaceOnUse" x1="3.48353084" x2="45.70327892" xlink:href="#a" y1="16.97853178" y2="16.97853178"/><linearGradient id="e" gradientUnits="userSpaceOnUse" x1="3.019" x2="46.166" xlink:href="#a" y1="23.833" y2="23.833"/><path d="m4.018 16.862 20.632 13.98 20.516-14.018z" fill="url(#e)"/><g fill="none" stroke-linejoin="round"><path d="m24.473 3.442-19.963 13.423 20.139 13.646 20.025-13.684z" stroke="url(#d)" stroke-linecap="round" stroke-width="2"/><path d="m7.752 7.46.086 12.398 16.902 11.045 16.971-11.389-.173-12.053z" stroke="#a4a4a4" stroke-linecap="round" stroke-width="1.351"/><path d="m44.918 17.595.085 26.892-40.316-.22z" stroke="url(#c)" stroke-linecap="square" stroke-width="2"/><path d="m4.373 17.595 40.545 26.68-40.23-.009s-.28-18.641-.315-26.671z" stroke="url(#b)" stroke-linecap="square" stroke-width="2"/></g><rect fill="#c3cacd" height="1.689" ry=".845" width="13.514" x="11.275" y="10.479"/><rect fill="#c3cacd" height="1.689" ry=".845" width="20.273" x="11.131" y="14.217"/><rect fill="#c3cacd" height="1.689" ry=".845" width="27.03" x="11.131" y="17.596"/><rect fill="#c3cacd" height="1.689" ry=".845" width="20.226" x="14.395" y="21.223"/></svg>