<svg viewBox="0 0 48 48" xmlns="http://www.w3.org/2000/svg" xmlns:xlink="http://www.w3.org/1999/xlink"><linearGradient id="a"><stop offset="0" stop-color="#fd8536"/><stop offset="1" stop-color="#f04"/></linearGradient><linearGradient id="b" gradientUnits="userSpaceOnUse" x1="11.0270479" x2="37.03540558" xlink:href="#a" y1="24.24581244" y2="24.24581244"/><linearGradient id="c" gradientUnits="userSpaceOnUse" x1="3.0348084" x2="44.314892" xlink:href="#a" y1="23.6738" y2="23.6738"/><path d="m28.43 24.246a4.4 4.4 0 1 1 -8.798 0 4.4 4.4 0 1 1 8.799 0z" fill="#101800" fill-opacity=".201" stroke="#565656" stroke-width=".942"/><g fill="none"><path d="m7.922 7.922c-5.252 11.815-5.252 19.69 0 31.505 10.504 5.252 21.007 5.252 31.505 0 5.252-11.815 5.252-19.69 0-31.505-10.504-5.252-21.007-5.252-31.505 0z" stroke="url(#c)" stroke-width="2"/><path d="m36.128 24.246a12.097 12.097 0 1 1 -24.193 0 12.097 12.097 0 1 1 24.193 0z" stroke="url(#b)" stroke-width="1.814"/><path d="m14.048 11.937a2.217 2.217 0 1 1 -4.435 0 2.217 2.217 0 1 1 4.435 0zm-.102 24.191a2.217 2.217 0 1 1 -4.435 0 2.217 2.217 0 1 1 4.435 0zm24.39 0a2.217 2.217 0 1 1 -4.435 0 2.217 2.217 0 1 1 4.435 0zm.102-24.191a2.217 2.217 0 1 1 -4.434 0 2.217 2.217 0 1 1 4.434 0z" stroke="#040404" stroke-width=".735"/><path d="m32.83 24.246a8.798 8.798 0 1 1 -17.597 0 8.798 8.798 0 1 1 17.596 0z" stroke="#565656" stroke-width="1.886"/></g><path d="m24.785 22.535a1.71 1.71 0 1 1 -3.421 0 1.71 1.71 0 1 1 3.42 0z" fill="#fff"/><path d="m12.94 11.937a1.109 1.11 0 1 1 -2.218 0 1.109 1.11 0 1 1 2.218 0m24.39 0a1.108 1.11 0 1 1 -2.217 0 1.108 1.11 0 1 1 2.217 0m-.102 24.191a1.109 1.11 0 1 1 -2.218 0 1.109 1.11 0 1 1 2.218 0m-24.39 0a1.109 1.11 0 1 1 -2.219 0 1.109 1.11 0 1 1 2.218 0" fill="#cbcdc7"/></svg>