<svg viewBox="0 0 48 48" xmlns="http://www.w3.org/2000/svg" xmlns:xlink="http://www.w3.org/1999/xlink"><linearGradient id="a"><stop offset="0" stop-color="#00b9ff"/><stop offset="1" stop-color="#70ff09"/></linearGradient><linearGradient id="b" gradientUnits="userSpaceOnUse" x1="2.2391142" x2="46.8255294" xlink:href="#a" y1="27.48364556" y2="27.48364556"/><linearGradient id="c" gradientUnits="userSpaceOnUse" x1="10.68893988" x2="38.36383932" xlink:href="#a" y1="10.57450268" y2="10.57450268"/><linearGradient id="d" gradientUnits="userSpaceOnUse" x1="15.07551392" x2="33.51041864" xlink:href="#a" y1="27.90430544" y2="27.90430544"/><path d="m4.661 10.575c-.9-.048-1.76.996-1.638 1.688 1.553 10.27 1.634 19.861 0 30.444-.113.695.739 1.722 1.638 1.687h39.723c.92.035 1.765-.992 1.657-1.688-1.634-10.576-1.657-20.293 0-30.443.12-.696-.737-1.742-1.657-1.688-13.434.727-26.629.607-39.723 0m0 0" fill="none" stroke="url(#b)" stroke-width="1.9"/><path d="m13.763 17.493a2.307 2.307 0 1 1 -4.614 0 2.307 2.307 0 0 1 4.615 0m26.136 0a2.307 2.307 0 1 1 -4.613 0 2.307 2.307 0 0 1 4.614 0m0 0"/><path d="m11.457 18.262c-.768 0-.768-.889-.768-1.536 0-6.167 4.613-13.839 13.838-13.839 9.217 0 13.837 7.67 13.837 13.839 0 .647 0 1.536-.77 1.536-.767 0-.767-.889-.767-1.536 0-4.872-4.613-12.3-12.3-12.3-7.689 0-12.3 7.428-12.3 12.3 0 .647 0 1.536-.763 1.536m0 0" fill="url(#c)"/><path d="m25.823 18.683-3.075.225v12.772l3.073-.391v-5.574c1.392 2.1 2.441 4.05 4.302 6.08l3.32-.956c-1.776-2.06-3.106-3.873-4.319-5.852 1.263-1.858 2.843-3.725 4.387-5.395l-3.441-.843c-1.608 1.81-2.968 3.68-4.248 5.56m-7.371-3.01a.261.261 0 0 0 -.142.076c-.378.356-.736.715-1.11 1.071-.166.159.003.348.074.48l.763 1.053.57.769c.08.11.106.123.064.201a11.262 11.262 0 0 0 -.142.229c-.74 1.245-.221 1.34-1.808 1.746l-1.217.201c-.18.06-.415.054-.427.304v1.506c-.011.23.25.25.4.29l1.295.225.97.176c.133.019.161-.01.193.086.397 1.673.914 1.288.05 2.751l-.696.969c-.093.17-.265.335-.09.505.366.363.718.73 1.088 1.094.161.158.372-.003.504-.076l1.072-.744.8-.54c.111-.09.128-.11.207-.063 1.608.981 1.665.273 2.132 1.926l.231 1.182c.06.177.066.403.312.414h1.56c.234 0 .255-.268.285-.416l.218-1.258.154-.928c.011-.089.008-.136.024-.166 1.882-.386 1.415-.931 2.946-.062l.994.679c.182.089.355.246.53.078.367-.348.735-.7 1.105-1.044.165-.168.004-.36-.074-.49h-.002l-.725-.992-.474.161c-.123.08-.285.051-.43-.138l-1.044-1.346a5.388 5.388 0 0 1 -4.341 2.165c-2.948 0-5.353-2.339-5.353-5.208 0-2.04 1.213-3.804 2.974-4.66v-1.197c-.061.03-.131.044-.181.064-.689.277-.732.403-1.86-.226l-.993-.689c-.139-.06-.26-.174-.386-.145m3.412 2.678c-1.495.823-2.511 2.399-2.511 4.191 0 2.644 2.217 4.806 4.942 4.806a4.945 4.945 0 0 0 4.053-2.096l-.048-.1c-1.044 1.126-2.224 1.862-4.019 1.9-2.236.038-4.5-1.9-4.512-4.456-.018-1.65.762-2.756 2.093-3.545v-.694" fill="url(#d)" fill-rule="evenodd"/></svg>