<svg viewBox="0 0 48 48" xmlns="http://www.w3.org/2000/svg" xmlns:xlink="http://www.w3.org/1999/xlink"><linearGradient id="a" gradientTransform="matrix(1.0937 0 0 1.0937 -1.895 -1.625)" gradientUnits="userSpaceOnUse" x1="7.621" x2="42.879" xlink:href="#b" y1="9.25" y2="37.125"/><linearGradient id="b" gradientTransform="matrix(0 -1 1 0 -68.635 21.669)" gradientUnits="userSpaceOnUse" x1="1" x2="47"><stop offset="0" stop-color="#005bff"/><stop offset="1" stop-color="#0dd5d7"/></linearGradient><linearGradient id="c" gradientUnits="userSpaceOnUse" x1="33.782" x2="39.344" xlink:href="#b" y1="12.688" y2="12.688"/><linearGradient id="d" gradientUnits="userSpaceOnUse" x1="34.782" x2="38.344" xlink:href="#b" y1="12.688" y2="12.688"/><g stroke-linecap="round" stroke-linejoin="round"><path d="m15.352 26.23c0-3.49-2.81-6.301-6.302-6.301a6.288 6.288 0 0 0 -6.3 6.301v15.304m25.21-8.9c0-.034-.004-.067-.004-.102v-6.302c0-3.49-2.81-6.301-6.302-6.301a6.288 6.288 0 0 0 -6.301 6.301v15.304m12.607-8.9a8.98 8.98 0 0 0 8.998 8.9 8.982 8.982 0 0 0 9.001-9.002v-12.603" fill="none" stroke="url(#a)" stroke-width="2"/><path d="m45.57 14.529a8.982 8.982 0 0 0 -9.002-9.002 8.982 8.982 0 0 0 -9.002 9.002" fill="none" stroke="url(#a)" stroke-width="2"/><circle cx="36.563" cy="12.688" fill="url(#c)" r="1.781" stroke="url(#d)"/></g></svg>