<svg viewBox="0 0 48 48" xmlns="http://www.w3.org/2000/svg" xmlns:xlink="http://www.w3.org/1999/xlink"><linearGradient id="a" gradientUnits="userSpaceOnUse" x1="7.258" x2="42.3" y1="6.423" y2="43.01"><stop offset="0" stop-color="#00dbff"/><stop offset="1" stop-color="#005aff"/></linearGradient><g fill="none" stroke="url(#a)" stroke-linecap="round" stroke-linejoin="round" stroke-width="1.269" transform="matrix(1.02987 0 0 1.02987 -.724 -.713)"><path d="m29.9 11.928-3.922 3.92h3.693l2.074-2.074zm-.23 3.92-5.495 5.496-1.846-1.847 3.65-3.649h-11.127l8.03 9.369v8.03h-5.352v2.676h13.384v-2.676h-5.354v-8.03l8.03-9.369z" stroke="url(#a)" stroke-width="1.436"/><path d="m29.9 11.929 1.845 1.846-7.57 7.57-1.846-1.846z" stroke-width="1.339"/><path d="m15.142 4.209-10.592.001v10.59m39.341 0v-10.59h-10.592m-28.749 28.747v10.59h10.592m18.157.001h10.591v-10.59" stroke-width="1.845"/></g></svg>