<svg viewBox="0 0 48 48" xmlns="http://www.w3.org/2000/svg" xmlns:xlink="http://www.w3.org/1999/xlink"><linearGradient id="a" gradientUnits="userSpaceOnUse" x1=".57540551" x2="47.79761548" y1="26.75083347" y2="26.75083347"><stop offset="0" stop-color="#25d300"/><stop offset="1" stop-color="#cac726"/></linearGradient><path d="m23.777 41.97-4.085-.602-.67.055-.67.054-1-.329a43.755 43.755 0 0 1 -6.066-2.494c-3.43-1.713-6.212-3.578-9.482-6.36-.463-.393-.593-.533-.594-.638-.002-.126.213-.24 3.202-1.71 1.763-.868 3.226-1.577 3.252-1.577s.311.316.634.703c4.737 5.68 12.206 10.696 19.605 13.167l1.006.336-.524-.002c-.384-.002-1.618-.163-4.608-.604zm11.615-30.988s2.147.107 3.626.362c1.485.257 2.262.438 2.262.528 0 .062-.656.183-3.163.585-2.025.325-3.199.536-3.262.585-.054.043-.373.32-.709.616l-.61.537-.584.09c-3.713.573-7.435 1.972-11.169 4.197-1.678 1-3.81 2.526-4.888 3.501l-.21.19.249.618c.376.934 1.44 3.054 2.029 4.04 2.468 4.135 5.457 7.328 8.918 9.526l.607.385.35.908.349.907 2.304 1.936c1.267 1.064 2.31 1.97 2.316 2.013s-.017.076-.05.075c-.034-.003-.468-.176-.964-.387a51.72 51.72 0 0 1 -3.5-1.627c-8.925-4.525-15.621-10.79-19.277-18.032-.498-.987-1.117-2.376-1.117-2.507 0-.116.983-1.043 1.801-1.699 3.005-2.407 7.527-4.651 11.936-5.924 3.035-.876 6.41-1.437 8.434-1.423 1.447-.094 2.876-.069 4.322 0zm-7.191 21.464c-1.63-1.48-3.232-3.653-4.357-5.907-.46-.923-.943-2.085-.943-2.272 0-.233 1.837-1.906 3.262-2.97 3.5-2.613 7.654-4.365 12.093-5.1 2.806-.466 5.804-.556 8.221-.248 1.116.142 1.069.168-1.337.745a84.714 84.714 0 0 0 -2.096.518c-.022.013-.291.376-.599.806l-.559.782-.78.093c-2.599.31-5.008 1.045-7.411 2.259a22.062 22.062 0 0 0 -5.4 3.817l-.363.35.033.557c.097 1.637.403 4.077.747 5.956.1.549.183 1.02.183 1.048 0 .137-.21.006-.694-.434z" fill="none" stroke="url(#a)" stroke-linecap="round" stroke-linejoin="round" stroke-width="1.8"/></svg>