<svg viewBox="0 0 48 48" xmlns="http://www.w3.org/2000/svg" xmlns:xlink="http://www.w3.org/1999/xlink"><linearGradient id="a"><stop offset="0" stop-color="#ff0622"/><stop offset="1" stop-color="#2010ff"/></linearGradient><linearGradient id="b" gradientUnits="userSpaceOnUse" x1="5.856" x2="42.958" y1="6.305" y2="41.695"><stop offset="0" stop-color="#ff8e06"/><stop offset="1" stop-color="#1054ff"/></linearGradient><linearGradient id="c" gradientUnits="userSpaceOnUse" x1="7.41267468" x2="44.26264155" xlink:href="#a" y1="3.99567623" y2="45.55737738"/><linearGradient id="d" gradientUnits="userSpaceOnUse" x1="5.856" x2="42.958" xlink:href="#a" y1="6.305" y2="41.695"/><g fill="none" stroke="url(#b)"><path d="m24 2.558c11.842 0 21.442 9.6 21.442 21.442s-9.6 21.442-21.442 21.442-21.442-9.6-21.442-21.442 9.6-21.442 21.442-21.442z" stroke="url(#d)" stroke-width="2"/><path d="m19.442 6.38c-3.207 1.693-5.891 4.858-5.969 8.625-.061 1.956.347 4.017 1.303 5.702 3.353.057 6.807 1.972 7.983 5.234 1.723 4.312-.305 10.035-4.839 11.624-2.325.837-4.91.464-7.158-.438 3.072 1.934 7.163 2.674 10.464.85 1.728-.916 3.25-2.301 4.286-3.942-1.63-2.94-1.696-6.885.54-9.54 2.863-3.65 8.83-4.775 12.477-1.646 1.888 1.593 2.857 4.019 3.199 6.414.137-3.624-1.261-7.532-4.483-9.48-1.657-1.057-3.613-1.636-5.555-1.77-1.732 2.883-5.115 4.913-8.532 4.308-4.591-.648-8.554-5.246-7.668-9.967.434-2.433 2.054-4.483 3.955-5.975z" fill-rule="evenodd" stroke="url(#c)" stroke-linecap="round" stroke-linejoin="round" stroke-width="1.474"/></g></svg>