<svg viewBox="0 0 48 48" xmlns="http://www.w3.org/2000/svg" xmlns:xlink="http://www.w3.org/1999/xlink"><linearGradient id="a" gradientUnits="userSpaceOnUse" x1="3.9989096" x2="44.0479388" y1="10.2782" y2="10.2782"><stop offset="0" stop-color="#ff0001"/><stop offset="1" stop-color="#ff00b6"/></linearGradient><path d="m35.292 6.619c5.36 3.716 8.863 9.908 8.863 16.924 0 11.367-9.212 20.583-20.583 20.583-7.016 0-13.208-3.502-16.924-8.863a21.26 21.26 0 0 0 3.459 4.546 20.97 20.97 0 0 0 14.151 5.46c11.62 0 21.04-9.42 21.04-21.04a20.967 20.967 0 0 0 -5.46-14.151 21.238 21.238 0 0 0 -4.546-3.46zm4.546 3.459a20.959 20.959 0 0 1 5.69 14.38c0 11.62-9.42 21.04-21.041 21.04a20.957 20.957 0 0 1 -14.38-5.69c3.806 3.792 9.04 6.147 14.837 6.147 11.62 0 21.04-9.42 21.04-21.04 0-5.795-2.355-11.033-6.146-14.837z" opacity=".05"/><path d="m39.839 10.078a20.97 20.97 0 0 1 5.46 14.15c0 11.621-9.42 21.041-21.04 21.041a20.967 20.967 0 0 1 -14.151-5.46 20.959 20.959 0 0 0 14.38 5.689c11.62 0 21.04-9.42 21.04-21.04a20.957 20.957 0 0 0 -5.69-14.38z" opacity=".1"/><path d="m30.663 4.217c7.881 2.886 13.494 10.445 13.494 19.33 0 11.368-9.212 20.583-20.583 20.583-8.881 0-16.44-5.612-19.32-13.493a21.04 21.04 0 0 0 41.05-6.404 21.04 21.04 0 0 0 -14.635-20.011z" opacity=".2"/><path d="m3.999 17.596c-.092.303-.177.609-.255.915h40.593a20.82 20.82 0 0 0 -.29-.915c-1.72-1.83-38.312-1.83-40.05 0z" opacity=".1"/><path d="m24.031 2.96a21.04 21.04 0 0 0 -20.031 14.636h40.049a21.04 21.04 0 0 0 -20.019-14.636z" fill="none" stroke="url(#a)" stroke-width="1.83"/><path d="m38.695 8.934a20.97 20.97 0 0 1 5.46 14.151c0 11.62-9.419 21.04-21.04 21.04a20.967 20.967 0 0 1 -14.15-5.46c3.821 3.926 9.157 6.375 15.065 6.375 11.62 0 21.04-9.42 21.04-21.04 0-5.911-2.448-11.244-6.375-15.066z" opacity=".1"/><circle cx="14.883" cy="13.022" fill="#7f2c20" r="1.83"/><circle cx="19.457" cy="13.022" fill="#7f2c20" r="1.83"/><rect fill="#dcdcdc" height="1.83" rx=".915" width="6.404" x="13.968" y="12.108"/><circle cx="28.605" cy="13.022" fill="#7f2c20" r="1.83"/><circle cx="33.179" cy="13.022" fill="#7f2c20" r="1.83"/><rect fill="#dcdcdc" height="1.83" rx=".915" width="6.404" x="27.69" y="12.108"/><path d="m23.135 27.092q0 .623-.202 1.134-.203.512-.571.886-.36.375-.87.622-.51.24-1.134.341v.051q1.555.188 2.364.964.808.766.808 2.002 0 .818-.29 1.5-.281.682-.861 1.176-.58.494-1.467.767-.888.272-2.1.272-.959 0-1.812-.145-.843-.145-1.59-.528v-1.448q.765.391 1.652.605.897.213 1.714.213.808 0 1.396-.17.589-.17.967-.485.386-.316.562-.777.185-.46.185-1.031 0-.58-.237-.988-.229-.417-.659-.682-.43-.273-1.054-.401-.615-.128-1.397-.128h-1.169v-1.286h1.169q.711 0 1.265-.17.553-.17.923-.486.378-.316.57-.75.194-.435.194-.954 0-.443-.158-.793-.157-.35-.448-.588-.289-.247-.693-.375-.405-.128-.897-.128-.94 0-1.661.29-.712.282-1.362.742l-.808-1.065q.333-.264.738-.494.414-.23.897-.402.483-.178 1.028-.28.554-.103 1.169-.103.95 0 1.661.23.721.23 1.204.647.483.41.73.981.245.562.245 1.235zm7.716 9.544h-1.547v-8.563q.008-.417.018-.827.017-.417.026-.793.017-.385.026-.673-.15.153-.264.264-.113.11-.238.213l-.245.221-.317.265-1.3 1.03-.845-1.047 3.367-2.548h1.317v12.458z" opacity=".1"/><path d="m22.22 26.177q0 .622-.201 1.134-.204.512-.572.886-.36.375-.87.622-.51.239-1.134.341v.052q1.556.187 2.364.962.809.767.809 2.003 0 .818-.29 1.5-.282.681-.862 1.175-.579.494-1.467.767-.888.273-2.1.273-.958 0-1.812-.145-.843-.145-1.59-.528v-1.449q.765.393 1.652.606.897.213 1.714.213.808 0 1.397-.171.588-.171.967-.485.386-.316.561-.776.185-.46.185-1.032 0-.579-.237-.988-.229-.417-.658-.681-.43-.274-1.054-.402-.616-.128-1.398-.128h-1.167v-1.286h1.168q.711 0 1.265-.17.553-.17.923-.485.378-.316.57-.75.194-.435.194-.954 0-.443-.158-.793-.157-.35-.448-.588-.289-.247-.693-.375-.405-.128-.897-.128-.94 0-1.661.29-.712.282-1.362.741l-.808-1.064q.333-.264.738-.494.414-.23.897-.401.483-.18 1.028-.281.554-.104 1.17-.104.949 0 1.66.23.721.23 1.204.648.483.41.73.98.246.562.246 1.236zm7.716 9.54h-1.546v-8.563q.008-.417.019-.827.016-.417.025-.793.018-.384.026-.673-.15.154-.264.264-.114.11-.238.212l-.245.223-.317.263-1.3 1.032-.844-1.048 3.366-2.547h1.317v12.457z" fill="#868686"/></svg>