<svg viewBox="0 0 48 48" xmlns="http://www.w3.org/2000/svg" xmlns:xlink="http://www.w3.org/1999/xlink"><linearGradient id="a"><stop offset="0" stop-color="#94ff54"/><stop offset="1" stop-color="#fffb03"/></linearGradient><linearGradient id="b" gradientUnits="userSpaceOnUse" x1="11.566" x2="35.996" xlink:href="#a" y1="37.073" y2="37.073"/><linearGradient id="c" gradientUnits="userSpaceOnUse" x1="11.568" x2="35.996" xlink:href="#a" y1="12.286" y2="12.286"/><path d="m7.65 13.723h32.263a2.546 2.546 0 0 1 2.547 2.548v17.894a2.546 2.546 0 0 1 -2.547 2.548h-32.264a2.546 2.546 0 0 1 -2.547-2.548v-17.894a2.546 2.546 0 0 1 2.547-2.548" fill="none" stroke="#aaa" stroke-width="1.437"/><path d="m5.102 25.219v1.347c0 .212 1.15.385 2.559.385h32.242c1.408 0 2.559-.173 2.559-.385v-1.347m-37.36 0" fill="#aaa"/><path d="m10.85 18.034h25.864v2.874h-25.864m0-2.874" fill="#212c3c"/><path d="m13.544 5.102c-.707 0-1.258.55-1.258 1.257v13.112h22.991v-10.059l-4.31-4.31z" fill="url(#c)" stroke="url(#c)" stroke-width="1.437"/><path d="m10.85 29.53h25.864v2.873h-25.864m0-2.874" fill="#aaa"/><path d="m35.277 30.966v10.221a1.27 1.27 0 0 1 -1.274 1.275h-20.444a1.27 1.27 0 0 1 -1.274-1.275v-10.22m22.99 0" fill="none" stroke="url(#b)" stroke-width="1.437"/><path d="m30.966 5.102v4.31h4.311m-4.31-4.31" fill="#fff"/><path d="m16.597 7.976h12.933v1.436h-12.933m0 1.438h12.933v1.436h-12.933m0 1.437h12.933v1.437h-12.933m0 1.437h8.622v1.437h-8.622m0-1.437" fill="#696e78" fill-opacity=".702"/></svg>