<svg viewBox="0 0 48 48" xmlns="http://www.w3.org/2000/svg" xmlns:xlink="http://www.w3.org/1999/xlink"><linearGradient id="a" gradientUnits="userSpaceOnUse" x1="7.973" x2="42.204" y1="6.508" y2="45.016"><stop offset="0" stop-color="#0fdaa2"/><stop offset="1" stop-color="#1765e7"/></linearGradient><g fill="none" stroke="url(#a)" stroke-width="1.9"><path d="m12.204 5.016v17l4-4.309 4 4.309v-17"/><path d="m42.154 7.411a15.083 15.083 0 0 0 -2.988 1.66c-1.676 1.19-3.263 2.69-4.762 4.497-1.455 1.764-2.778 3.772-3.969 6.02a30.158 30.158 0 0 0 -2.58 6.878c-.617 2.38-.88 4.563-.792 6.548.133 1.939.55 3.571 1.256 4.894.706 1.322 1.675 2.27 2.91 2.843 1.235.574 2.69.684 4.365.33 1.632-.352 3.285-1.122 4.96-2.313a23.665 23.665 0 0 0 1.6-1.272v-4.15a16.803 16.803 0 0 1 -1.004.726c-1.322.838-2.602 1.322-3.837 1.455-1.278.133-2.357-.088-3.239-.661-.881-.573-1.566-1.433-2.05-2.58-.441-1.146-.662-2.512-.662-4.1 0-1.631.263-3.396.793-5.291a24.288 24.288 0 0 1 2.249-5.423c.97-1.765 2.027-3.308 3.173-4.63 1.191-1.367 2.425-2.47 3.704-3.307.293-.195.583-.364.873-.522z"/><path d="m6.204 5.016h36v40h-36z" stroke-linecap="round" stroke-linejoin="round"/></g></svg>