<svg viewBox="0 0 48 48" xmlns="http://www.w3.org/2000/svg" xmlns:xlink="http://www.w3.org/1999/xlink"><linearGradient id="a" gradientUnits="userSpaceOnUse" x1="4.30269" x2="45.32499" y1="23.79684" y2="23.79684"><stop offset="0" stop-color="#ff0028"/><stop offset="1" stop-color="#ff005e"/></linearGradient><path d="m30.201 4.957c-4.96.003-9.68 2.308-12.975 6.323 2.045-2.218 4.574-3.424 7.178-3.425 6.403 0 11.594 7.138 11.594 15.942s-5.19 15.944-11.594 15.94c-2.63 0-5.18-1.238-7.232-3.498 3.396 3.975 8.04 6.395 13.029 6.397 2.907.001 5.766-.803 8.316-2.315h.003a21.72 21.72 0 0 0 7.622-16.524 21.72 21.72 0 0 0 -7.75-16.61c-2.52-1.46-5.333-2.231-8.191-2.23z" opacity=".157"/><path d="m24.814 3.285a20.511 20.511 0 0 0 -20.512 20.512 20.511 20.511 0 0 0 20.512 20.51 20.511 20.511 0 0 0 20.51-20.51 20.511 20.511 0 0 0 -20.51-20.512zm0 5.47a10.94 15.042 0 0 1 10.939 15.042 10.94 15.042 0 0 1 -10.94 15.041 10.94 15.042 0 0 1 -10.939-15.041 10.94 15.042 0 0 1 10.94-15.042z" fill="none" stroke="url(#a)" stroke-width="2"/></svg>