<svg viewBox="0 0 48 48" xmlns="http://www.w3.org/2000/svg" xmlns:xlink="http://www.w3.org/1999/xlink"><linearGradient id="a"><stop offset="0" stop-color="#f300ff" stop-opacity=".996"/><stop offset="1" stop-color="#12dbb9"/></linearGradient><linearGradient id="b" gradientTransform="matrix(1.38297 0 0 1.87805 -9.191 -15.015)" gradientUnits="userSpaceOnUse" x1="24" x2="34.516" y1="20" y2="19"><stop offset="0" stop-color="#fff" stop-opacity="0"/><stop offset="1" stop-color="#faff00"/></linearGradient><linearGradient id="c" gradientTransform="matrix(1.38297 0 0 1.87805 -9.191 -15.015)" gradientUnits="userSpaceOnUse" x1="25.446" x2="35" y1="21.992" y2="30.001"><stop offset="0" stop-color="#6255b1" stop-opacity="0"/><stop offset="1" stop-color="#f0a"/></linearGradient><linearGradient id="d" gradientTransform="matrix(1.38297 0 0 1.87805 -9.191 -15.015)" gradientUnits="userSpaceOnUse" x1="24" x2="24.18" y1="22.525" y2="29.887"><stop offset="0" stop-color="#f300ff" stop-opacity="0"/><stop offset="1" stop-color="#12dbb9"/></linearGradient><linearGradient id="e" gradientTransform="matrix(.96863 0 0 1.31539 .753 -1.448)" gradientUnits="userSpaceOnUse" x1="14.709" x2="39.486" y1="11.202" y2="32.489"><stop offset="0" stop-color="#f300ff"/><stop offset="1" stop-color="#12dbb9"/></linearGradient><linearGradient id="f" gradientUnits="userSpaceOnUse" x1="9.402" x2="39.964" xlink:href="#a" y1="24.305" y2="24.305"/><linearGradient id="g" gradientUnits="userSpaceOnUse" x1="0" x2=".144" y1="33.288" y2="33.187"><stop offset="0"/><stop offset="1" stop-opacity="0"/></linearGradient><linearGradient id="h" gradientUnits="userSpaceOnUse" x1="-172.20663554" x2="-164.22003554" xlink:href="#a" y1="147.20714894" y2="147.20714894"/><path d="m34.84 7.625-10.84 14.923c2 1.74 14.536 11.832 14.536 11.832l.453-26.755z" fill="url(#b)"/><path d="m23.997 22.544 6.914 18.778h8.297l-.672-6.942z" fill="url(#c)"/><path d="m23.997 22.544 6.914 18.778h-13.827z" fill="url(#d)"/><path d="m34.836 7.618h4.153l.224 33.704h-22.129m17.752-33.704-10.836 14.92-6.916 18.784" fill="url(#g)" stroke="url(#e)" stroke-linecap="round" stroke-linejoin="round" stroke-width=".505"/><rect fill="none" height="34.035" rx="1.072" stroke="url(#f)" stroke-linecap="round" stroke-linejoin="round" stroke-width="1.5" width="29.061" x="10.152" y="7.288"/><path d="m-168.833 143.214-.198 1.033a3.062 3.062 0 0 0 -.691.29l-.889-.58-.86.857.578.888c-.123.215-.215.44-.282.683l-1.03.204v1.237l1.03.203c.067.244.16.484.282.699l-.579.873.861.872.889-.596c.215.122.447.224.691.291l.198 1.033h1.241l.198-1.033a3.08 3.08 0 0 0 .691-.29l.89.595.86-.872-.579-.873a3.1 3.1 0 0 0 .283-.699l1.03-.203v-1.237l-1.03-.204a2.98 2.98 0 0 0 -.283-.683l.58-.888-.862-.858-.889.582a3.082 3.082 0 0 0 -.691-.291l-.198-1.033zm.621 2.589c.748 0 1.354.625 1.354 1.396 0 .772-.606 1.397-1.354 1.397s-1.355-.625-1.355-1.397c0-.77.606-1.396 1.355-1.396z" fill="url(#h)" transform="matrix(1.33333 0 0 1.33333 241.709 -181.016)"/></svg>