<svg height="48" width="48" xmlns="http://www.w3.org/2000/svg" xmlns:xlink="http://www.w3.org/1999/xlink"><linearGradient id="a" gradientTransform="matrix(1.125 0 0 1 -51.07 0)" gradientUnits="userSpaceOnUse" x1="8.595" x2="40.228" y1="13.704" y2="43.942"><stop offset="0" stop-color="#197cf1"/><stop offset="1" stop-color="#20bcfa"/></linearGradient><linearGradient id="b" gradientUnits="userSpaceOnUse" x1="6.478" x2="41.471" y1="25.616" y2="25.616"><stop offset="0" stop-color="#00adf7"/><stop offset="1" stop-color="#00e7ff"/></linearGradient><g fill="none" stroke="url(#a)" stroke-linecap="round" stroke-linejoin="round"><path d="m21.984 32.417a4.937 4.937 0 0 0 -4.948 4.947 4.937 4.937 0 0 0 4.948 4.949 4.937 4.937 0 0 0 4.948-4.949 4.937 4.937 0 0 0 -4.948-4.947" stroke-width="2.474"/><path d="m30.44 8.78-4.392 4.393 6.588 6.59-6.59 6.588 4.393 4.392 10.982-10.981z" stroke-width="2.196"/><g stroke-width="2.474"><path d="m11.427 21.829a3.703 3.703 0 0 0 -3.712 3.71 3.704 3.704 0 0 0 3.712 3.712 3.704 3.704 0 0 0 3.71-3.712 3.704 3.704 0 0 0 -3.71-3.711" stroke="url(#b)"/><path d="m16.065 11.243a2.468 2.468 0 0 0 -2.474 2.473 2.468 2.468 0 0 0 2.474 2.474 2.468 2.468 0 0 0 2.473-2.474 2.468 2.468 0 0 0 -2.473-2.473"/></g></g></svg>