<svg viewBox="0 0 48 48" xmlns="http://www.w3.org/2000/svg"><g fill="none" stroke-linecap="round" stroke-linejoin="round" stroke-width="1.9"><path d="m26.392 26.012c6.886-4.662 20.86-4.11 17.485 3.225-.988 2.144-2.152 3.053-3.295 3.295.562 1.027.63 2.5-.354 4.65-3.744 8.145-12.891-2.909-13.833-11.165" stroke="#ffb920"/><path d="m22.544 24.182a13.36 13.36 0 0 0 -.125-.845c-1.458-8.089-10.454-17.414-13.708-10.325-.986 2.146-.918 3.622-.357 4.648-1.144.24-2.308 1.147-3.298 3.295-3.577 7.784 9.364 7.896 16.525 3.822.332-.19.712-.156 1.018-.363" stroke="#00cd5e"/><path d="m25.403 23.006c8.261-.945 18.506-10.464 11.17-13.833-2.146-.984-3.621-.917-4.647-.356-.241-1.145-1.148-2.308-3.295-3.298-8.145-3.744-7.891 10.601-3.229 17.481" stroke="#ff0036"/><path d="m23.47 27.006c4.661 6.884 4.109 20.858-3.225 17.485-2.145-.988-3.054-2.152-3.296-3.296-1.026.563-2.5.632-4.649-.353-8.146-3.744 2.908-12.89 11.165-13.833" stroke="#005eff"/></g></svg>