<svg viewBox="0 0 48 48" xmlns="http://www.w3.org/2000/svg" xmlns:xlink="http://www.w3.org/1999/xlink"><linearGradient id="a"><stop offset="0" stop-color="#ff1700"/><stop offset="1" stop-color="#ff8509"/></linearGradient><linearGradient id="b" gradientUnits="userSpaceOnUse" x1="-51.846985" x2="347.36063" xlink:href="#a" y1="231.18333" y2="231.18333"/><linearGradient id="c" gradientUnits="userSpaceOnUse" x1="-105.23012853738" x2="368.61641606165" xlink:href="#a" y1="255.08900048844" y2="255.08900048844"/><g fill="none" stroke="url(#b)" stroke-width="31.019533" transform="matrix(.09652724 0 0 .09689963 9.37403233987 1.333317)"><path d="m379.10498-326.87447a210.74944 212.11946 0 0 1 46.3955 233.210724 210.74944 212.11946 0 0 1 -197.90094 129.970105 210.74944 212.11946 0 0 1 -193.39381-136.670579 210.74944 212.11946 0 0 1 54.250464-231.48728l142.728366 156.06909z" fill="none" stroke="url(#b)" stroke-linecap="round" stroke-linejoin="round" stroke-width="31.019533" transform="rotate(90)"/><path d="m344.5137 314.00355a134.29041 133.65977 0 0 1 -111.98402 56.07361 134.29041 133.65977 0 0 1 -109.70438-60.3729" fill="none" stroke="url(#c)" stroke-linecap="round" stroke-linejoin="round" stroke-width="31.019533" transform="matrix(0 1 1 0 0 0)"/><path d="m138.69939 200.13912a60.069233 59.681255 0 0 1 83.25798-12.07094 60.069233 59.681255 0 0 1 13.72926 82.47592 60.069233 59.681255 0 0 1 -82.73622 15.20529 60.069233 59.681255 0 0 1 -16.87349-81.89808" fill="#fd0707" stroke="none"/></g></svg>