<svg viewBox="0 0 48 48" xmlns="http://www.w3.org/2000/svg" xmlns:xlink="http://www.w3.org/1999/xlink"><linearGradient id="a"><stop offset="0" stop-color="#a9ff00"/><stop offset="1" stop-color="#00ac9c"/></linearGradient><linearGradient id="b" gradientUnits="userSpaceOnUse" x1="2.612" x2="45.883" xlink:href="#a" y1="3.624" y2="41.736"/><linearGradient id="c" gradientUnits="userSpaceOnUse" x1="5.765" x2="62.256" xlink:href="#a" y1="-.749" y2=".142"/><g fill="none" stroke="url(#b)" stroke-linecap="round" stroke-linejoin="round" stroke-width="1.8" transform="translate(-.61 .712)"><path d="m32.354 30.312-3.786 3.789a2.388 2.388 0 0 0 -.616 2.314l-2.782 2.782a2.397 2.397 0 0 0 0 3.398 2.398 2.398 0 0 0 3.398 0l2.781-2.783a2.387 2.387 0 0 0 2.314-.615l3.897-3.751m3.673-1.403a4.829 4.829 0 0 0 .96-.738l3.398-3.398a4.793 4.793 0 0 0 0-6.794l-.85-.85a4.792 4.792 0 0 0 -6.794 0l-3.398 3.397a4.83 4.83 0 0 0 -.739.96m-6.368 13.795 4.883-4.797m-14.43-32.547-1.704 4.26a14.57 14.57 0 0 0 -2.826 1.174l-4.224-1.809-3.442 3.442 1.801 4.207a14.609 14.609 0 0 0 -1.17 2.845l-4.256 1.703v4.868l4.26 1.705c.291.98.685 1.927 1.174 2.826l-1.809 4.224 3.442 3.442 4.207-1.803c.904.49 1.858.881 2.845 1.17l1.702 4.258h2.587a2.92 2.92 0 0 1 .602-.873l3.385-3.387a2.905 2.905 0 0 1 .748-2.816l2.61-2.61-2.544-2.615s-.165-.434-.117-.767a6.584 6.584 0 0 1 -4.865 2.257 6.584 6.584 0 0 1 -6.672-6.494 6.584 6.584 0 0 1 6.494-6.672 6.584 6.584 0 0 1 6.672 6.494 6.584 6.584 0 0 1 -1.111 3.749l5.668-5.668a.729.729 0 0 1 1.033 0l1.217 1.216c.249-.423.55-.813.896-1.162l2.127-2.127-2.299-.92a14.601 14.601 0 0 0 -1.174-2.826l1.809-4.224-3.441-3.442-4.21 1.801a14.592 14.592 0 0 0 -2.843-1.17l-1.703-4.256z" stroke="url(#b)"/><rect height="3.604" rx=".601" stroke="url(#c)" transform="matrix(.70710678 .70710678 -.70710678 .70710678 0 0)" width="14.414" x="40.715" y="-5.088"/></g></svg>