<svg viewBox="0 0 48 48" xmlns="http://www.w3.org/2000/svg" xmlns:xlink="http://www.w3.org/1999/xlink"><linearGradient id="a" gradientUnits="userSpaceOnUse" x1="3.527359" x2="44.041649" y1="25.019085" y2="25.019085"><stop offset="0" stop-color="#ff0002"/><stop offset="1" stop-color="#ff0050"/></linearGradient><g fill="none" stroke="#000" stroke-width="2.95789" transform="matrix(1.014274 0 0 1.0141989 -.253717 -1.251166)"><g stroke-width="2.464908"><path d="m25.11375 36.560553a8.7708385 8.7708385 0 0 0 8.770839 8.773027 8.7708385 8.7708385 0 0 0 8.771932-8.774121 8.7708385 8.7708385 0 0 0 -8.769744-8.76865 8.7708385 8.7708385 0 0 0 -8.773027 8.769744m0 0" stroke="#ff002d"/><path d="m22.200348 13.475426a8.5148355 8.5148355 0 0 1 -8.513741 8.514836 8.5148355 8.5148355 0 0 1 -8.5170239-8.513742 8.5148355 8.5148355 0 0 1 8.5159299-8.5159294 8.5148355 8.5148355 0 0 1 8.514835 8.5148354m0 0" stroke="#ff0020"/><g stroke="url(#a)"><path d="m13.685513 4.8183666a8.6592475 8.6592475 0 0 0 -8.6570598 8.6570594 8.6592475 8.6592475 0 0 0 8.6570598 8.657059h20.201264a8.6592475 8.6592475 0 0 0 8.654871-8.657059 8.6592475 8.6592475 0 0 0 -8.657059-8.6570594z"/><path d="m13.685513 27.903494a8.6592475 8.6592475 0 0 0 -8.6581538 8.658153 8.6592475 8.6592475 0 0 0 8.6570598 8.658154h20.201264a8.6592475 8.6592475 0 0 0 8.654871-8.658154 8.6592475 8.6592475 0 0 0 -8.65706-8.657059z"/></g></g><path d="m9.5101133 14.051648 2.4990037 3.094232 5.355007-5.236394" stroke="#ff381f" stroke-linecap="round" stroke-linejoin="round" stroke-width="1.971927"/><path d="m30.813878 39.687644 5.915563-5.915998" stroke="#ff1300" stroke-width="1.971927"/><path d="m36.729441 39.687644-5.915563-5.915998" stroke="#ff1300" stroke-width="1.971927"/></g></svg>