<svg height="48" width="48" xmlns="http://www.w3.org/2000/svg" xmlns:xlink="http://www.w3.org/1999/xlink"><linearGradient id="a" gradientUnits="userSpaceOnUse" x1="4.00618" x2="43.9927" xlink:href="#b" y1="23.99944" y2="23.99944"/><linearGradient id="b"><stop offset="0" stop-color="#ffc614"/><stop offset="1" stop-color="#ff5714"/></linearGradient><linearGradient id="c" gradientUnits="userSpaceOnUse" x1="16.093" x2="32" xlink:href="#b" y1="11.997" y2="22"/><path d="m7 34v3h3v-3zm3 3v3h3v-3zm25-29v3h3v-3zm3 3v3h3v-3z" fill="#ff5a14"/><g fill="none"><path d="m5 5h38.041v38.041h-38.041z" stroke="url(#a)" stroke-linecap="round" stroke-width="2"/><path d="m15.131 23.303v6.598c0 4.398 3.3 7.696 8.797 7.696 5.498 0 8.797-3.298 8.797-7.696v-6.598m-17.594 0" stroke="#ff002f" stroke-width="1.099"/><g stroke="url(#c)" stroke-linecap="round" stroke-linejoin="round" transform="matrix(1.0996 0 0 1.0996 -2.39 -1.94)"><path d="m24 12v10h-8v-3c0-3 4-7 8-7"/><path d="m24 12v10h8v-3c0-3-4-7-8-7m0 0"/></g></g><path d="m24 18c.755 0 1.372.921 1.372 2.058v5.486c0 1.137-.617 2.058-1.372 2.058s-1.372-.921-1.372-2.058v-5.486c0-1.138.616-2.058 1.372-2.058m0 0" fill="#f50035"/></svg>