<svg viewBox="0 0 48 48" xmlns="http://www.w3.org/2000/svg" xmlns:xlink="http://www.w3.org/1999/xlink"><linearGradient id="a" gradientUnits="userSpaceOnUse" x1="11.5" x2="36.5" y1="25.284" y2="25.284"><stop offset="0" stop-color="#ff005b"/><stop offset="1" stop-color="#7b00ff"/></linearGradient><path d="m13.453 13c-.809 0-1.453.645-1.453 1.453v15.844c0 .809.645 1.746 1.453 1.703h4.547v5l6-5h10.547c.809 0 1.453-.895 1.453-1.703v-15.844c0-.809-.645-1.453-1.453-1.453zm9.547 4h2v4l3-2 1 1.5-3 2 3 2-1 1.5-3-2v4h-2l-.008-4.03-2.992 2.031-1-1.5 3-2-3-2 1-1.5 3 2zm0 .001" fill="none" stroke="url(#a)" stroke-linecap="round" stroke-linejoin="round" stroke-width="1.447" transform="matrix(1.38184 0 0 1.38184 -7.389 -9.97)"/></svg>