<svg viewBox="0 0 48 48" xmlns="http://www.w3.org/2000/svg" xmlns:xlink="http://www.w3.org/1999/xlink"><linearGradient id="a"><stop offset="0" stop-color="#00a660"/><stop offset="1" stop-color="#00ff69"/></linearGradient><linearGradient id="b" gradientUnits="userSpaceOnUse" x1="13.545" x2="35.272" xlink:href="#a" y1="25.782" y2="25.782"/><linearGradient id="c" gradientUnits="userSpaceOnUse" x1=".293" x2="43.116" xlink:href="#a" y1="7.885" y2="35.749"/><path d="m31.001 25.783a6.184 6.184 0 0 1 -6.186 6.18 6.184 6.184 0 1 1 0-12.366 6.185 6.185 0 0 1 6.186 6.186m0 0" fill="#2b2b2b"/><path d="m29.357 23.308a2.474 2.474 0 1 1 -4.947.002 2.474 2.474 0 0 1 4.947-.002m0 0" fill="#f9f9f9"/><g fill="none"><path d="m43.36 20.536a26.945 26.945 0 0 0 -1.493-1.87c-2.773-3.248-5.958-6.143-9.448-8.244-2.228-1.344-4.614-2.426-7.085-2.948a18.69 18.69 0 0 0 -3.784-.401c-1.257 0-2.513.14-3.77.4-2.474.523-4.852 1.605-7.08 2.949-3.488 2.101-6.678 4.998-9.461 8.244a27.66 27.66 0 0 0 -1.479 1.87c-.633.87-.633 1.894 0 2.764 1.417 1.986 3.108 3.749 4.82 5.37 3.7 3.474 7.939 6.383 12.612 7.557 1.445.362 2.894.537 4.35.537 1.473 0 2.913-.175 4.358-.537 4.672-1.174 8.916-4.084 12.622-7.558 1.72-1.614 3.407-3.382 4.827-5.369.624-.87.624-1.894 0-2.764m0 0" stroke="url(#c)" stroke-width="1.9" transform="translate(2.847 3.864)"/><path d="m34.322 25.783c0 5.473-4.439 9.913-9.913 9.913s-9.914-4.439-9.914-9.913 4.439-9.914 9.914-9.914c5.473 0 9.913 4.439 9.913 9.914m0 0" stroke="url(#b)" stroke-width="1.9"/><path d="m9.56 40.678 29.897-29.288" stroke="#ff5800" stroke-linecap="round" stroke-linejoin="round" stroke-width="2.4"/></g></svg>