<svg viewBox="0 0 48 48" xmlns="http://www.w3.org/2000/svg" xmlns:xlink="http://www.w3.org/1999/xlink"><linearGradient id="a" gradientUnits="userSpaceOnUse" x1="14.23836556" x2="36.57646076" xlink:href="#b" y1="17.17605132" y2="38.82234444"/><linearGradient id="b"><stop offset="0" stop-color="#ff0054"/><stop offset="1" stop-color="#c600ec"/></linearGradient><linearGradient id="c" gradientUnits="userSpaceOnUse" x1="7.768" x2="42" xlink:href="#b" y1="10.254" y2="41"/><path d="m16.71 16.55-.859 1.567-1.566.858 1.566.86.859 1.565.858-1.566 1.566-.859-1.566-.858zm6.465 0-.859 1.567-1.565.858 1.565.86.86 1.565.858-1.566 1.566-.859-1.566-.858zm9.14 0-18.03 18.03 4.6 4.6 18.03-18.03zm0 2.3 2.298 2.3-5.377 5.383-2.3-2.301zm-12.373 2.55-.858 1.566-1.566.859 1.566.858.858 1.566.86-1.566 1.565-.858-1.566-.86z" fill="url(#a)"/><g fill="none" stroke="url(#c)" stroke-linecap="round" transform="matrix(1.17549 0 0 1.17549 -4.338 -5.096)"><g stroke-width="1.5"><circle cx="38.454" cy="9.515" r="1.535"/><circle cx="32.454" cy="9.515" r="1.535"/><circle cx="26.454" cy="9.515" r="1.535"/></g><rect height="27" ry="2" stroke-width="2" width="36" x="6" y="14"/></g></svg>