<svg viewBox="0 0 48 48" xmlns="http://www.w3.org/2000/svg" xmlns:xlink="http://www.w3.org/1999/xlink"><linearGradient id="a" gradientUnits="userSpaceOnUse" x1="19.28307336" x2="21.57294344" y1="26.30174632" y2="31.0504862"><stop offset="0" stop-color="#27c1f0"/><stop offset="1" stop-color="#15beef"/></linearGradient><linearGradient id="b" gradientUnits="userSpaceOnUse" x1="37.5240692" x2="2.0794746" y1="9.072183" y2="46.0227244"><stop offset="0" stop-color="#0080ff"/><stop offset="1" stop-color="#0080ff" stop-opacity="0"/></linearGradient><path d="m14.656 36.508-3.265-3.266-7.208 7.208 3.266 3.266m7.207-7.208" fill="#3a6778"/><path d="m19.848 30.522-2.29-2.29-5.482 5.277 2.29 2.29" fill="url(#a)"/><path d="m32.968 9.168-1.476 4.378c1.81.606 3.141 2.271 3.141 4.282 0 .268-.053.506-.096.762l4.52.761a9.116 9.116 0 0 0 .144-1.523c0-4.031-2.611-7.446-6.233-8.66" fill="#9fd8f5"/><path d="m42.388 19.066c0 7.148-5.793 12.941-12.942 12.941-7.154 0-12.947-5.793-12.941-12.941-.006-7.143 5.787-12.942 12.941-12.942 7.149 0 12.942 5.8 12.942 12.942" fill="none" stroke="url(#b)" stroke-width="3.045"/></svg>