<svg viewBox="0 0 48 48" xmlns="http://www.w3.org/2000/svg" xmlns:xlink="http://www.w3.org/1999/xlink"><linearGradient id="a" gradientUnits="userSpaceOnUse" x1="13.79842176" x2="36.825996" y1="14.0325688" y2="36.96068368"><stop offset="0" stop-color="#25cf7f"/><stop offset="1" stop-color="#6325cf"/></linearGradient><linearGradient id="b" gradientUnits="userSpaceOnUse" x1="25.104" x2="33.84768" y1="19.6012" y2="19.6012"><stop offset="0" stop-color="#fd7c60"/><stop offset="1" stop-color="#ff00c6"/></linearGradient><linearGradient id="c" gradientUnits="userSpaceOnUse" x1="23.58697152" x2="30.5688" y1="23.9238568" y2="32.17024"><stop offset="0" stop-color="#f8c82d"/><stop offset="1" stop-color="#90d218"/></linearGradient><linearGradient id="d" gradientUnits="userSpaceOnUse" x1="19.6392" x2="18.54624" y1="25.066" y2="34.35616"><stop offset="0" stop-color="#3497db"/><stop offset="1" stop-color="#9b13af"/></linearGradient><path d="m17.454 33.81v-8.744h2.186v8.744m-2.186 0" fill="url(#d)" transform="matrix(.92730271 -.95283402 .95283402 .92730271 -20.646448 25.156821)"/><path d="m25.105 18.508h8.743v2.186h-8.743m0-2.186" fill="url(#b)" transform="matrix(.92730271 -.95283402 .95283402 .92730271 -20.646448 25.156821)"/><path d="m30.57 32.17 1.639-1.64-8.197-8.196-1.64 1.64zm0 0" fill="url(#c)" transform="matrix(.92730271 -.95283402 .95283402 .92730271 -20.646448 25.156821)"/><path d="m18.547 10.858a7.65 7.65 0 0 0 -7.65 7.65 7.65 7.65 0 0 0 7.65 7.651 7.65 7.65 0 0 0 7.65-7.65 7.65 7.65 0 0 0 -7.65-7.651m0 2.186a5.464 5.464 0 0 1 5.465 5.464 5.464 5.464 0 0 1 -5.465 5.465 5.464 5.464 0 0 1 -5.465-5.465 5.464 5.464 0 0 1 5.465-5.464m0 0" fill="url(#a)" transform="matrix(.92730271 -.95283402 .95283402 .92730271 -20.646448 25.156821)"/><path d="m27.725 37.824a4.361 4.361 0 0 0 .084 6.164 4.361 4.361 0 0 0 6.165-.083 4.361 4.361 0 0 0 -.084-6.165 4.361 4.361 0 0 0 -6.165.084m1.562 1.52a2.18 2.18 0 1 1 3.125 3.043 2.18 2.18 0 0 1 -3.125-3.043m0 0" fill="#862db8"/><path d="m28.32 5.958a4.361 4.361 0 0 0 .084 6.165 4.361 4.361 0 0 0 6.165-.084 4.361 4.361 0 0 0 -.084-6.164 4.361 4.361 0 0 0 -6.165.083m1.562 1.52a2.18 2.18 0 1 1 3.124 3.043 2.18 2.18 0 0 1 -3.124-3.042m0 0" fill="#ff1ab0"/><path d="m37.777 21.245a4.361 4.361 0 0 0 .083 6.164 4.361 4.361 0 0 0 6.165-.083 4.361 4.361 0 0 0 -.084-6.165 4.361 4.361 0 0 0 -6.164.084m1.562 1.52a2.18 2.18 0 1 1 3.124 3.043 2.18 2.18 0 0 1 -3.124-3.043m0 0" fill="#a2d01c"/></svg>