<svg viewBox="0 0 48 48" xmlns="http://www.w3.org/2000/svg" xmlns:xlink="http://www.w3.org/1999/xlink"><linearGradient id="a" gradientUnits="userSpaceOnUse" x1="8" x2="42" y1="25.996" y2="25.996"><stop offset="0" stop-color="#686868"/><stop offset="1" stop-color="#686868" stop-opacity="0"/></linearGradient><linearGradient id="b" gradientUnits="userSpaceOnUse" x1="7" x2="41" y1="24.996" y2="24.996"><stop offset="0" stop-color="#be0de2"/><stop offset="1" stop-color="#ff0050" stop-opacity=".985"/></linearGradient><g fill="url(#a)" opacity=".1" transform="matrix(1.21223 0 0 1.21223 -3.987 -4.199)"><path d="m8 13.996h2c.551 0 1 .449 1 1v2a1 1 0 0 1 -1 1h-2a1 1 0 0 1 -1-1v-2c0-.551.449-1 1-1m0 0"/><path d="m14 13.996h2c.551 0 1 .449 1 1v2a1 1 0 0 1 -1 1h-2a1 1 0 0 1 -1-1v-2c0-.551.449-1 1-1m0 0"/><path d="m20 13.996h2c.551 0 1 .449 1 1v2a1 1 0 0 1 -1 1h-2a1 1 0 0 1 -1-1v-2c0-.551.449-1 1-1m0 0"/><path d="m26 13.996h2c.551 0 1 .449 1 1v2a1 1 0 0 1 -1 1h-2a1 1 0 0 1 -1-1v-2c0-.551.449-1 1-1m0 0"/><path d="m32 13.996h2c.551 0 1 .449 1 1v2a1 1 0 0 1 -1 1h-2a1 1 0 0 1 -1-1v-2c0-.551.449-1 1-1m0 0"/><path d="m38 13.996h2c.551 0 1 .449 1 1v2a1 1 0 0 1 -1 1h-2a1 1 0 0 1 -1-1v-2c0-.551.449-1 1-1m0 0"/><path d="m8 19.996h2c.551 0 1 .449 1 1v2a1 1 0 0 1 -1 1h-2a1 1 0 0 1 -1-1v-2c0-.551.449-1 1-1m0 0"/><path d="m14 19.996h2c.551 0 1 .449 1 1v2a1 1 0 0 1 -1 1h-2a1 1 0 0 1 -1-1v-2c0-.551.449-1 1-1m0 0"/><path d="m20 19.996h2c.551 0 1 .449 1 1v2a1 1 0 0 1 -1 1h-2a1 1 0 0 1 -1-1v-2c0-.551.449-1 1-1m0 0"/><path d="m26 19.996h2c.551 0 1 .449 1 1v2a1 1 0 0 1 -1 1h-2a1 1 0 0 1 -1-1v-2c0-.551.449-1 1-1m0 0"/><path d="m32 19.996h2c.551 0 1 .449 1 1v2a1 1 0 0 1 -1 1h-2a1 1 0 0 1 -1-1v-2c0-.551.449-1 1-1m0 0"/><path d="m38 19.996h2c.551 0 1 .449 1 1v2a1 1 0 0 1 -1 1h-2a1 1 0 0 1 -1-1v-2c0-.551.449-1 1-1m0 0"/><path d="m8 25.996h2c.551 0 1 .449 1 1v2a1 1 0 0 1 -1 1h-2a1 1 0 0 1 -1-1v-2c0-.551.449-1 1-1m0 0"/><path d="m14 25.996h2c.551 0 1 .449 1 1v2a1 1 0 0 1 -1 1h-2a1 1 0 0 1 -1-1v-2c0-.551.449-1 1-1m0 0"/><path d="m20 25.996h2c.551 0 1 .449 1 1v2a1 1 0 0 1 -1 1h-2a1 1 0 0 1 -1-1v-2c0-.551.449-1 1-1m0 0"/><path d="m26 25.996h2c.551 0 1 .449 1 1v2a1 1 0 0 1 -1 1h-2a1 1 0 0 1 -1-1v-2c0-.551.449-1 1-1m0 0"/><path d="m32 25.996h2c.551 0 1 .449 1 1v2a1 1 0 0 1 -1 1h-2a1 1 0 0 1 -1-1v-2c0-.551.449-1 1-1m0 0"/><path d="m38 25.996h2c.551 0 1 .449 1 1v2a1 1 0 0 1 -1 1h-2a1 1 0 0 1 -1-1v-2c0-.551.449-1 1-1m0 0"/><path d="m14 31.996h20c.551 0 1 .449 1 1v2a1 1 0 0 1 -1 1h-20a1 1 0 0 1 -1-1v-2c0-.551.449-1 1-1m0 0"/></g><path d="m8 13.996h2c.551 0 1 .449 1 1v2a1 1 0 0 1 -1 1h-2a1 1 0 0 1 -1-1v-2c0-.551.449-1 1-1m6 0h2c.551 0 1 .449 1 1v2a1 1 0 0 1 -1 1h-2a1 1 0 0 1 -1-1v-2c0-.551.449-1 1-1m6 0h2c.551 0 1 .449 1 1v2a1 1 0 0 1 -1 1h-2a1 1 0 0 1 -1-1v-2c0-.551.449-1 1-1m6 0h2c.551 0 1 .449 1 1v2a1 1 0 0 1 -1 1h-2a1 1 0 0 1 -1-1v-2c0-.551.449-1 1-1m6 0h2c.551 0 1 .449 1 1v2a1 1 0 0 1 -1 1h-2a1 1 0 0 1 -1-1v-2c0-.551.449-1 1-1m6 0h2c.551 0 1 .449 1 1v2a1 1 0 0 1 -1 1h-2a1 1 0 0 1 -1-1v-2c0-.551.449-1 1-1m-30 6h2c.551 0 1 .449 1 1v2a1 1 0 0 1 -1 1h-2a1 1 0 0 1 -1-1v-2c0-.551.449-1 1-1m6 0h2c.551 0 1 .449 1 1v2a1 1 0 0 1 -1 1h-2a1 1 0 0 1 -1-1v-2c0-.551.449-1 1-1m6 0h2c.551 0 1 .449 1 1v2a1 1 0 0 1 -1 1h-2a1 1 0 0 1 -1-1v-2c0-.551.449-1 1-1m6 0h2c.551 0 1 .449 1 1v2a1 1 0 0 1 -1 1h-2a1 1 0 0 1 -1-1v-2c0-.551.449-1 1-1m6 0h2c.551 0 1 .449 1 1v2a1 1 0 0 1 -1 1h-2a1 1 0 0 1 -1-1v-2c0-.551.449-1 1-1m6 0h2c.551 0 1 .449 1 1v2a1 1 0 0 1 -1 1h-2a1 1 0 0 1 -1-1v-2c0-.551.449-1 1-1m-30 6h2c.551 0 1 .449 1 1v2a1 1 0 0 1 -1 1h-2a1 1 0 0 1 -1-1v-2c0-.551.449-1 1-1m6 0h2c.551 0 1 .449 1 1v2a1 1 0 0 1 -1 1h-2a1 1 0 0 1 -1-1v-2c0-.551.449-1 1-1m6 0h2c.551 0 1 .449 1 1v2a1 1 0 0 1 -1 1h-2a1 1 0 0 1 -1-1v-2c0-.551.449-1 1-1m6 0h2c.551 0 1 .449 1 1v2a1 1 0 0 1 -1 1h-2a1 1 0 0 1 -1-1v-2c0-.551.449-1 1-1m6 0h2c.551 0 1 .449 1 1v2a1 1 0 0 1 -1 1h-2a1 1 0 0 1 -1-1v-2c0-.551.449-1 1-1m6 0h2c.551 0 1 .449 1 1v2a1 1 0 0 1 -1 1h-2a1 1 0 0 1 -1-1v-2c0-.551.449-1 1-1m-24 6h20c.551 0 1 .449 1 1v2a1 1 0 0 1 -1 1h-20a1 1 0 0 1 -1-1v-2c0-.551.449-1 1-1m0 0" fill="url(#b)" transform="matrix(1.21223 0 0 1.21223 -5.2 -5.411)"/></svg>