<svg height="48" width="48" xmlns="http://www.w3.org/2000/svg" xmlns:xlink="http://www.w3.org/1999/xlink"><linearGradient id="a"><stop offset="0" stop-color="#1dd991"/><stop offset="1" stop-color="#0af"/></linearGradient><linearGradient id="b" gradientUnits="userSpaceOnUse" x1="8.595" x2="40.228" xlink:href="#a" y1="13.704" y2="43.942"/><linearGradient id="c" gradientTransform="matrix(1.0201 0 0 .89725 -.281 4.31)" gradientUnits="userSpaceOnUse" x1="3" x2="45" xlink:href="#a" y1="24" y2="24"/><g fill="#4d4d4d" transform="matrix(1.28966 0 0 1.28966 -492.56 -660.423)"><circle cx="411.906" cy="541.442" r="2.094"/><path d="m386.571 538.532v2.492h2.492v-2.492zm2.492 2.492v2.493h2.493v-2.493z"/></g><g fill="none" stroke-linecap="round"><g stroke="url(#b)" stroke-linejoin="round" stroke-width="2.706" transform="matrix(.7021 0 0 .7021 7.22 7.463)"><path d="m21.984 32.417a4.937 4.937 0 0 0 -4.948 4.947 4.937 4.937 0 0 0 4.948 4.949 4.937 4.937 0 0 0 4.948-4.949 4.937 4.937 0 0 0 -4.948-4.947"/><path d="m30.44 8.78-4.392 4.393 6.588 6.59-6.59 6.588 4.393 4.392 10.982-10.981z"/><path d="m11.427 21.829a3.703 3.703 0 0 0 -3.712 3.71 3.704 3.704 0 0 0 3.712 3.712 3.704 3.704 0 0 0 3.71-3.712 3.704 3.704 0 0 0 -3.71-3.711"/><path d="m16.065 11.243a2.468 2.468 0 0 0 -2.474 2.473 2.468 2.468 0 0 0 2.474 2.474 2.468 2.468 0 0 0 2.473-2.474 2.468 2.468 0 0 0 -2.473-2.473"/></g><path d="m3.844 7.939h40.76v35.851h-40.76z" stroke="url(#c)" stroke-width="1.9"/></g></svg>