<svg viewBox="0 0 48 48" xmlns="http://www.w3.org/2000/svg" xmlns:xlink="http://www.w3.org/1999/xlink"><linearGradient id="a" gradientTransform="matrix(0 -1 1 0 0 48)" gradientUnits="userSpaceOnUse" x1="1" x2="47"><stop offset="0" stop-color="#00fedc"/><stop offset="1" stop-color="#fc0068"/></linearGradient><linearGradient id="b" gradientTransform="matrix(1.19602 0 0 1.19602 -34.766 -2.968)" gradientUnits="userSpaceOnUse" x1="-31.663" x2="-8.007" xlink:href="#a" y1="25.731" y2="25.963"/><linearGradient id="c" gradientTransform="matrix(1.19602 0 0 1.19602 -88.55 1.77)" gradientUnits="userSpaceOnUse" x1="10.914" x2="37" xlink:href="#a" y1="25.731" y2="25.731"/><linearGradient id="d" gradientTransform="matrix(0 -1 1 0 0 48)" gradientUnits="userSpaceOnUse" x1="-34.472" x2="37" y1="25.731" y2="25.731"><stop offset="0" stop-color="#60e6cb"/><stop offset="1" stop-color="#71e9d2"/></linearGradient><linearGradient id="e" gradientTransform="matrix(1.19602 0 0 1.19602 -4.92 -4.84)" gradientUnits="userSpaceOnUse" x1="16.404" x2="35.751" xlink:href="#a" y1="19.075" y2="19.075"/><g fill="none" stroke="url(#d)" stroke-linecap="round" stroke-linejoin="round" stroke-width="2.377" transform="matrix(1.27996 0 0 1.27996 101.709 -14.87)"><path d="m-73.275 14.927h26.854c1.177 0 2.12.944 2.12 2.12v18.213l-15.548 2.392-15.548-2.392v-18.21c0-1.178.945-2.121 2.12-2.121m0 0" stroke="url(#b)" stroke-width="1.719"/><path d="m-63.433 38.847c0 3.588 0 3.588-2.392 5.98l5.98 1.196 5.98-1.196c-2.392-2.392-2.392-2.392-2.392-5.98z" stroke="url(#c)" stroke-width="1.719"/><path d="m-68.218 44.827h16.745v1.196h-16.745m0-1.196" stroke="none"/></g><g stroke-width="2.2"><path d="m12.96 45.15 24.506-.061" fill="#b47a7a" stroke="#bcbcbc" stroke-linecap="round"/><path d="m25.243 18.999c.537.31-.152.877-.515.892-.98.042-1.447-1.104-1.269-1.922.32-1.463 2.006-2.076 3.329-1.646 1.941.632 2.718 2.919 2.022 4.737-.928 2.422-3.833 3.366-6.141 2.399-2.905-1.218-4.019-4.752-2.777-7.55 1.504-3.388 5.67-4.671 8.955-3.153 3.872 1.789 5.326 6.59 3.531 10.363-2.073 4.356-7.509 5.98-11.769 3.908-4.841-2.357-6.638-8.43-4.285-13.177 2.638-5.326 9.35-7.292 14.583-4.662 5.811 2.922 7.949 10.27 5.039 15.99" fill="none" stroke="url(#e)"/></g></svg>