<svg height="48" width="48" xmlns="http://www.w3.org/2000/svg" xmlns:xlink="http://www.w3.org/1999/xlink"><linearGradient id="a"><stop offset="0" stop-color="#d91dd4"/><stop offset="1" stop-color="#008aff"/></linearGradient><linearGradient id="b" gradientUnits="userSpaceOnUse" x1="8.595" x2="40.228" xlink:href="#a" y1="13.704" y2="43.942"/><linearGradient id="c" gradientTransform="matrix(1.04126 0 0 .91587 -.79 3.863)" gradientUnits="userSpaceOnUse" x1="4.595" x2="43.704" xlink:href="#a" y1="5.299" y2="42.701"/><linearGradient id="d" gradientUnits="userSpaceOnUse" x1="386.571" x2="414" xlink:href="#a" y1="541.034" y2="541.034"/><g fill="url(#d)" stroke-width="1.367" transform="matrix(1.31642 0 0 1.31642 -503.077 -673.73)"><circle cx="411.906" cy="541.442" r="2.094"/><path d="m386.571 538.532v2.492h2.492v-2.492zm2.492 2.492v2.493h2.493v-2.493z"/></g><g fill="none" stroke-linecap="round"><g stroke="url(#b)" stroke-linejoin="round" stroke-width="2.512" transform="matrix(.71667 0 0 .71667 6.866 7.081)"><path d="m21.984 32.417a4.937 4.937 0 0 0 -4.948 4.947 4.937 4.937 0 0 0 4.948 4.949 4.937 4.937 0 0 0 4.948-4.949 4.937 4.937 0 0 0 -4.948-4.947"/><path d="m30.44 8.78-4.392 4.393 6.588 6.59-6.59 6.588 4.393 4.392 10.982-10.981z"/><path d="m11.427 21.829a3.703 3.703 0 0 0 -3.712 3.71 3.704 3.704 0 0 0 3.712 3.712 3.704 3.704 0 0 0 3.71-3.712 3.704 3.704 0 0 0 -3.71-3.711"/><path d="m16.065 11.243a2.468 2.468 0 0 0 -2.474 2.473 2.468 2.468 0 0 0 2.474 2.474 2.468 2.468 0 0 0 2.473-2.474 2.468 2.468 0 0 0 -2.473-2.473"/></g><path d="m3.421 7.567h41.606v36.595h-41.606z" stroke="url(#c)" stroke-width="1.8"/></g></svg>