<svg viewBox="0 0 48 48" xmlns="http://www.w3.org/2000/svg" xmlns:xlink="http://www.w3.org/1999/xlink"><linearGradient id="a"><stop offset="0" stop-color="#e0d910"/><stop offset="1" stop-color="#d0ec00"/></linearGradient><linearGradient id="b" gradientUnits="userSpaceOnUse" x1="9.22086277" x2="31.22146612" xlink:href="#a" y1="14.78714378" y2="36.54976592"/><linearGradient id="c" gradientUnits="userSpaceOnUse" x1="5" x2="43" xlink:href="#a" y1="24.931" y2="24.931"/><g fill="none" stroke="url(#c)" stroke-linecap="round" transform="matrix(1.17549 0 0 1.17549 -4.212 -4.32)"><g stroke-width="1.5"><circle cx="36.741" cy="18.569" r="1.535"/><circle cx="36.614" cy="25.42" r="1.535"/><circle cx="36.854" cy="32.394" r="1.535"/></g><rect height="27" ry="2" stroke-width="2" width="36" x="6" y="11.431"/></g><path d="m31.113 13.767a2.954 13.291 44.998 0 0 -10.994 7.528 2.954 13.291 44.998 0 0 -5.234 6.075 5.125 5.125 0 0 1 3.335 3.335 2.954 13.291 44.998 0 0 6.074-5.232 2.954 13.291 44.998 0 0 7.31-11.487 2.954 13.291 44.998 0 0 -.49-.219m-17.005 15.737c-5.907 1.584-1.477 5.323-5.907 7.88 5.913 0 8.86-2.954 8.86-4.926 0-.982.1-2.79-2.952-2.954z" fill="url(#b)"/></svg>