<svg viewBox="0 0 48 48" xmlns="http://www.w3.org/2000/svg"><g opacity=".1"><path d="m8.05 11.98c-.747 0-1.352.646-1.352 1.444v2.885h-3.244v9.732h5.407v2.88c0 .799.554 1.441 1.238 1.441h14.827c.684 0 1.239-.642 1.239-1.44v-5.766c0-.798-.555-1.445-1.24-1.445h-14.825c-.684 0-1.238.647-1.238 1.445v1.804h-4.326v-7.57h2.162v1.8c0 .798.605 1.44 1.352 1.44h8.11c.747 0 1.352-.642 1.352-1.44v-5.766c0-.798-.605-1.445-1.352-1.445zm13.787 1.08c-.596 0-1.081.486-1.081 1.082v4.325c0 .6.485 1.082 1.081 1.082h6.488a1.08 1.08 0 0 0 1.082-1.082v-4.325c0-.596-.486-1.082-1.082-1.082zm12.977 0c-.596 0-1.082.486-1.082 1.082v4.325c0 .6.486 1.082 1.082 1.082h6.488a1.08 1.08 0 0 0 1.081-1.082v-4.325c0-.596-.485-1.082-1.081-1.082zm-5.137 8.651c-.747 0-1.352.647-1.352 1.445v5.766c0 .798.605 1.44 1.352 1.44h8.11c.748 0 1.352-.642 1.352-1.44v-2.882h5.407v9.732h-1.082v-2.885c0-.798-.604-1.445-1.351-1.445h-8.11c-.748 0-1.352.647-1.352 1.445v5.766c0 .798.604 1.44 1.352 1.44h8.11c.747 0 1.351-.642 1.351-1.44v-1.8h2.163v-11.893h-6.487v-1.804c0-.798-.604-1.445-1.352-1.445zm-20.816 10.814c-.596 0-1.081.485-1.081 1.081v4.326c0 .6.485 1.08 1.081 1.08h6.488a1.08 1.08 0 0 0 1.082-1.08v-4.326c0-.596-.486-1.081-1.082-1.081zm12.976 0c-.596 0-1.081.485-1.081 1.081v4.326c0 .6.485 1.08 1.081 1.08h6.488a1.08 1.08 0 0 0 1.082-1.08v-4.326c0-.596-.486-1.081-1.082-1.081z"/><path d="m8.861 13.06h6.488c.596 0 1.082.486 1.082 1.082v4.325c0 .6-.486 1.082-1.082 1.082h-6.488a1.08 1.08 0 0 1 -1.081-1.082v-4.325c0-.596.485-1.082 1.081-1.082m2.163 9.733h12.976c.596 0 1.081.485 1.081 1.081v4.325c0 .6-.485 1.082-1.081 1.082h-12.976a1.08 1.08 0 0 1 -1.082-1.082v-4.325c0-.596.486-1.081 1.082-1.081m19.464 0h6.488c.596 0 1.082.485 1.082 1.081v4.325c0 .6-.486 1.082-1.082 1.082h-6.488a1.08 1.08 0 0 1 -1.081-1.082v-4.325c0-.596.485-1.081 1.081-1.081m4.326 9.732h6.488c.596 0 1.081.485 1.081 1.081v4.326c0 .6-.485 1.08-1.081 1.08h-6.488a1.08 1.08 0 0 1 -1.082-1.08v-4.326c0-.596.486-1.081 1.082-1.081m0 0"/></g><path d="m6.969 10.898h8.11c.747 0 1.352.646 1.352 1.444v5.766c0 .798-.605 1.44-1.352 1.44h-8.11c-.748 0-1.352-.642-1.352-1.44v-5.766c0-.798.604-1.444 1.352-1.444m0 0" fill="#ff0053"/><path d="m7.78 11.98h6.488c.596 0 1.081.485 1.081 1.08v4.326c0 .6-.485 1.081-1.081 1.081h-6.488a1.08 1.08 0 0 1 -1.082-1.081v-4.326c0-.595.486-1.08 1.082-1.08m12.976 0h6.488c.596 0 1.081.485 1.081 1.08v4.326c0 .6-.485 1.081-1.08 1.081h-6.49a1.08 1.08 0 0 1 -1.08-1.081v-4.326c0-.595.485-1.08 1.08-1.08m12.977 0h6.488c.596 0 1.082.485 1.082 1.08v4.326c0 .6-.486 1.081-1.082 1.081h-6.488a1.08 1.08 0 0 1 -1.081-1.081v-4.326c0-.595.485-1.08 1.081-1.08m0 0" fill="#ababab"/><path d="m9.018 20.63h14.826c.685 0 1.238.647 1.238 1.445v5.765c0 .798-.553 1.44-1.238 1.44h-14.826c-.685 0-1.238-.642-1.238-1.44v-5.765c0-.798.553-1.445 1.238-1.445m0 0" fill="#ff0053"/><path d="m9.942 21.711h12.978c.595 0 1.081.486 1.081 1.082v4.325c0 .6-.486 1.081-1.081 1.081h-12.978a1.08 1.08 0 0 1 -1.081-1.081v-4.325c0-.596.486-1.082 1.081-1.082m0 0" fill="#ababab"/><path d="m28.596 20.63h8.11c.747 0 1.352.647 1.352 1.445v5.765c0 .798-.605 1.44-1.352 1.44h-8.11c-.747 0-1.352-.642-1.352-1.44v-5.765c0-.798.605-1.445 1.352-1.445m0 0" fill="#4b9cf4"/><path d="m29.407 21.711h6.488c.596 0 1.081.486 1.081 1.082v4.325c0 .6-.485 1.081-1.081 1.081h-6.488a1.08 1.08 0 0 1 -1.082-1.081v-4.325c0-.596.486-1.082 1.082-1.082m-21.627 9.732h6.488c.596 0 1.081.486 1.081 1.082v4.325c0 .6-.485 1.082-1.081 1.082h-6.488a1.08 1.08 0 0 1 -1.082-1.082v-4.325c0-.596.486-1.082 1.082-1.082m12.976 0h6.488c.596 0 1.081.486 1.081 1.082v4.325c0 .6-.485 1.082-1.08 1.082h-6.49a1.08 1.08 0 0 1 -1.08-1.082v-4.325c0-.596.485-1.082 1.08-1.082m0 0" fill="#ababab"/><path d="m32.921 30.362h8.11c.748 0 1.352.647 1.352 1.445v5.766c0 .798-.604 1.44-1.352 1.44h-8.11c-.747 0-1.352-.642-1.352-1.44v-5.766c0-.798.605-1.445 1.352-1.445m0 0" fill="#4b9cf4"/><path d="m33.732 31.443h6.488c.596 0 1.082.486 1.082 1.082v4.325c0 .6-.486 1.082-1.082 1.082h-6.488a1.08 1.08 0 0 1 -1.081-1.082v-4.325c0-.596.485-1.082 1.081-1.082m0 0" fill="#ababab"/><path d="m6.698 16.309h-3.244v7.57h5.407v1.08h-6.488v-9.732h4.325m0 1.082" fill="#ff0053"/><path d="m41.842 34.692h1.622v-9.732h-6.488v-1.082h7.57v11.895h-2.704m0-1.081" fill="#4b9cf4"/></svg>