<svg height="48" width="48" xmlns="http://www.w3.org/2000/svg" xmlns:xlink="http://www.w3.org/1999/xlink"><linearGradient id="a"><stop offset="0" stop-color="#01ff4d"/><stop offset="1" stop-color="#2fff00"/></linearGradient><linearGradient id="b" gradientUnits="userSpaceOnUse" x1="4.753" x2="47.928" xlink:href="#a" y1="53.736" y2="83.171"/><linearGradient id="c" gradientUnits="userSpaceOnUse" x1="12.395" x2="43.563" xlink:href="#a" y1="64.175" y2="64.175"/><linearGradient id="d" gradientUnits="userSpaceOnUse" x1="4.0638179" x2="52.87352926" xlink:href="#a" y1="69.7913335" y2="69.7913335"/><g stroke="#000"><path d="m14.528 53.306c-1.245.05-2.27.584-2.976 1.119-4.173 3.165-7.816 16.365-7.816 23.351 0 6.978 1.607 6.69 2.999 6.69 1.394 0 3.146-.958 4.677-2.307 4.228-3.721 6.174-7.597 10.379-7.597h8.908c4.205 0 6.153 3.874 10.38 7.597 1.53 1.349 3.282 2.306 4.676 2.306s3 .298 3-6.689c0-6.978-3.644-20.188-7.817-23.351-1.129-.858-3.072-1.71-5.439-.586-1.586.754-3.004 3.678-5.077 3.678h-8.36c-2.072 0-3.497-2.923-5.077-3.678-.886-.42-1.714-.564-2.462-.535z" fill="none" stroke="url(#b)" stroke-width="1.8" transform="translate(-2.246 -43.126)"/><g fill="url(#c)" stroke="none" transform="translate(-2.246 -43.126)"><circle cx="15.858" cy="64.175" r="3.463"/><circle cx="38.368" cy="60.712" r="1.732"/><circle cx="41.831" cy="64.175" r="1.732"/><circle cx="38.368" cy="67.638" r="1.732"/><circle cx="34.905" cy="64.175" r="1.732"/><g fill="url(#d)"><circle cx="22.368" cy="69.791" r="1.356"/><circle cx="31.859" cy="69.791" r="1.356"/></g></g></g></svg>