<svg viewBox="0 0 48 48" xmlns="http://www.w3.org/2000/svg" xmlns:xlink="http://www.w3.org/1999/xlink"><linearGradient id="a" gradientUnits="userSpaceOnUse" x1="4.441" x2="44.577" y1="3.254" y2="43.322"><stop offset="0" stop-color="#00b3ff"/><stop offset="1" stop-color="#005fff"/></linearGradient><g fill="none" stroke="url(#a)"><g stroke="#006aff" stroke-width="2.062" transform="matrix(.7274 0 0 .7274 6.749 7.068)"><circle cx="24" cy="46.998" r="2"/><circle cx="24" cy="-.256" r="2"/><g transform="rotate(90)"><circle cx="23.86" cy="-.508" r="2"/><circle cx="24" cy="-46.998" r="2"/></g></g><path d="m24 3c11.711 0 21.204 9.493 21.204 21.203 0 11.711-9.493 21.204-21.204 21.204-11.71 0-21.203-9.493-21.203-21.204 0-11.71 9.493-21.203 21.203-21.203z" stroke-width="2"/><g fill="#0069ff" stroke="none"><path d="m22.355 24.136-5.754-5.754a.97.97 0 0 1 0-1.38l.043-.048a.983.983 0 0 1 1.385 0l5.752 5.753a.983.983 0 0 1 0 1.386l-.046.043a.97.97 0 0 1 -1.38 0m1.349 2.38-10.809 9.821a.976.976 0 0 1 -1.384-.066l-.168-.185a.98.98 0 0 1 .066-1.385l10.808-9.82a.982.982 0 0 1 1.385.065l.168.185a.979.979 0 0 1 -.066 1.385m0 0"/><path d="m26.552 24.425a2.511 2.511 0 1 1 -5.022 0 2.51 2.51 0 0 1 2.51-2.511 2.51 2.51 0 0 1 2.512 2.51m0 0"/></g></g></svg>