<svg viewBox="0 0 48 48" xmlns="http://www.w3.org/2000/svg" xmlns:xlink="http://www.w3.org/1999/xlink"><linearGradient id="a"><stop offset="0" stop-color="#00ff05"/><stop offset="1" stop-color="#e8ec00"/></linearGradient><linearGradient id="b" gradientUnits="userSpaceOnUse" x1="12.95986277" x2="34.96046612" xlink:href="#a" y1="17.37614378" y2="39.13876592"/><linearGradient id="c" gradientUnits="userSpaceOnUse" x1="7.768" x2="42" xlink:href="#a" y1="10.254" y2="41"/><g fill="none" stroke="url(#c)" stroke-linecap="round" transform="matrix(1.17549 0 0 1.17549 -4.212 -4.32)"><g stroke-width="1.5"><circle cx="38.454" cy="9.515" r="1.535"/><circle cx="32.454" cy="9.515" r="1.535"/><circle cx="26.454" cy="9.515" r="1.535"/></g><rect height="27" ry="2" stroke-width="2" width="36" x="6" y="14"/></g><path d="m34.852 16.356a2.954 13.291 44.998 0 0 -10.994 7.528 2.954 13.291 44.998 0 0 -5.234 6.075 5.125 5.125 0 0 1 3.335 3.335 2.954 13.291 44.998 0 0 6.074-5.232 2.954 13.291 44.998 0 0 7.31-11.487 2.954 13.291 44.998 0 0 -.49-.219m-17.005 15.737c-5.907 1.584-1.477 5.323-5.907 7.88 5.913 0 8.86-2.954 8.86-4.926 0-.982.1-2.79-2.952-2.954z" fill="url(#b)"/></svg>