<svg viewBox="0 0 48 48" xmlns="http://www.w3.org/2000/svg" xmlns:xlink="http://www.w3.org/1999/xlink"><linearGradient id="a" gradientUnits="userSpaceOnUse" x1="7.219" x2="43.37" y1="10.666" y2="42.018"><stop offset="0" stop-color="#f40"/><stop offset="1" stop-color="#ff00c3"/></linearGradient><g stroke="url(#a)" stroke-width="2"><g fill="none" stroke-linecap="round" stroke-width="1.754"><circle cx="38.454" cy="9.515" r="1.535" transform="matrix(1.14039 0 0 1.14039 -3.37 -3.456)"/><circle cx="32.454" cy="9.515" r="1.535" transform="matrix(1.14039 0 0 1.14039 -3.37 -3.456)"/><circle cx="26.454" cy="9.515" r="1.535" transform="matrix(1.14039 0 0 1.14039 -3.37 -3.456)"/><rect height="27" ry="2" transform="matrix(1.14039 0 0 1.14039 -3.37 -3.456)" width="36" x="6" y="14"/></g><path d="m31.696 15.675c-4.655 0-5.529 6.801-2.91 6.801s7.566-6.801 2.91-6.801zm-7.17 1.046c-.074 0-.154.007-.236.015-2.638.32-1.71 4.613-.305 4.693 1.36.078 2.847-4.7.54-4.708zm-4.575 1.585c-.161-.01-.34.02-.539.098-2.12.837-.322 4.293.865 4.06 1.078-.21 1.232-4.06-.326-4.158zm-3.461 2.824c-.184-.005-.383.057-.596.209-1.697 1.218.571 4.16 1.57 3.704.874-.4.316-3.868-.974-3.913zm10.025 2.81c-3.678-.061-8.53 1.733-9.357 5.338-.895 3.9 3.69 9.312 8.473 9.312 2.353 0 5.067-2.067 5.575-4.686.388-1.997-4.564-1.197-4.386.124.213 1.584-1.194 2.367-2.573 1.346-4.388-3.25 7.266-4.872 6.497-9.312-.239-1.382-2.023-2.086-4.23-2.123z" fill="#ff3b1a" stroke="none"/></g></svg>