<svg viewBox="0 0 48 48" xmlns="http://www.w3.org/2000/svg" xmlns:xlink="http://www.w3.org/1999/xlink"><linearGradient id="a" gradientUnits="userSpaceOnUse" x1="24" x2="24" y1="2" y2="46"><stop offset="0" stop-color="#f9ff2c"/><stop offset="1" stop-color="#0df328"/></linearGradient><linearGradient id="b" gradientUnits="userSpaceOnUse" x1=".25" x2="47.75" xlink:href="#a" y1="24" y2="24"/><linearGradient id="c" gradientUnits="userSpaceOnUse" x1="11" x2="37" xlink:href="#a" y1="24" y2="24"/><path d="m47 24a23 23 0 0 1 -23 23 23 23 0 0 1 -23-23 23 23 0 0 1 23-23 23 23 0 0 1 23 23z" fill="none" stroke="url(#b)" stroke-width="1.5"/><path d="m11 11v26h26v-26zm3 3h4.324c2.588 0 3.676 1.273 3.676 3.5v.05c0 2.47-1.593 3.45-4 3.45h-2v4h-2zm15 0c2.046 0 3.127.594 4.15 1.617l-1.306 1.567c-.844-.784-1.761-1.184-2.844-1.184-1.796 0-2.985 1.558-2.998 3.41.012 1.855 1.142 3.59 2.998 3.59 1.204 0 2.157-.622 3-1.404l1.371 1.394c-1.084 1.204-2.325 2.01-4.371 2.01-3.19.06-5-2.49-5-5.56s1.69-5.44 5-5.44zm-13 2v3h2c1.204 0 2-.546 2-1.45v-.05c0-1.083-.796-1.5-2-1.5zm-3 16h10v2h-10z" fill="url(#c)"/></svg>