<svg viewBox="0 0 48 48" xmlns="http://www.w3.org/2000/svg" xmlns:xlink="http://www.w3.org/1999/xlink"><linearGradient id="a" gradientUnits="userSpaceOnUse" x1="3.299" x2="45.38" y1="10.65" y2="41.972"><stop offset="0" stop-color="#005ed3"/><stop offset="1" stop-color="#0072ff"/></linearGradient><path d="m28.187 7.513c-1.305 0-2.248.902-2.248 2.248v23.978c0 1.346.925 2.248 2.23 2.248 1.306 0 2.266-.751 2.266-2.248v-5.242h-2.997c1.622-2.313 2.77-3.759 4.496-5.995 1.78 2.26 2.721 3.729 4.496 5.995h-2.997v6.74c.948.323 1.498.753 4.045.75 5.21-.006 9.442-4.361 9.442-9.741s-4.216-9.741-9.425-9.741c-2.763 0-5.561.93-7.06 3v-9.745c0-1.346-.943-2.248-2.248-2.248zm-16.783 7.496c-5.21 0-9.443 4.36-9.443 9.741 0 5.38 4.216 9.741 9.425 9.741 2.764 0 5.562-.928 7.06-2.997v9.74c0 1.347.943 2.249 2.248 2.249s2.248-.902 2.248-2.248v-23.978c0-1.346-.925-2.248-2.23-2.248s-2.266.75-2.266 2.248v5.242h2.997c-1.621 2.312-2.769 3.759-4.495 5.995-1.78-2.26-2.722-3.73-4.496-5.995h2.997v-6.74c-.949-.323-1.499-.75-4.045-.75z" fill="none" stroke="url(#a)" stroke-linecap="round" stroke-linejoin="round" stroke-width="1.8"/></svg>