<svg viewBox="0 0 48 48" xmlns="http://www.w3.org/2000/svg" xmlns:xlink="http://www.w3.org/1999/xlink"><linearGradient id="a" gradientUnits="userSpaceOnUse" x1="15.96" x2="43.031" y1="41.213" y2="21.891"><stop offset="0" stop-color="#00fa9f"/><stop offset="1" stop-color="#00a4eb"/></linearGradient><linearGradient id="b" gradientUnits="userSpaceOnUse" x1="3.748" x2="31.632" y1="28.753" y2="7.193"><stop offset="0" stop-color="#00a4eb"/><stop offset="1" stop-color="#00fa9f"/></linearGradient><path d="m24 2.528c-11.858-.004-21.479 9.613-21.472 21.472a21.407 21.407 0 0 0 3.202 11.228l3.372-2.25a17.033 17.033 0 0 1 -2.572-8.978c-.004-9.486 7.755-17.182 17.324-17.177a17.359 17.359 0 0 1 13.946 7.023l3.595-2.4a21.458 21.458 0 0 0 -17.395-8.918zm10.02 15.746-12.883 8.589 12.883 8.589v-5.726l-4.294-2.863 4.294-2.863z" fill="url(#b)"/><path d="m13.98 12.548v5.726l4.294 2.863-4.294 2.863v5.726l12.883-8.589zm28.291.224-3.584 2.39a17.02 17.02 0 0 1 2.491 8.838c.005 9.487-7.757 17.182-17.326 17.177a17.363 17.363 0 0 1 -13.85-6.888l-3.398 2.264a21.458 21.458 0 0 0 17.396 8.919c11.859.004 21.48-9.613 21.472-21.472a21.407 21.407 0 0 0 -3.201-11.228z" fill="url(#a)"/></svg>