<svg viewBox="0 0 48 48" xmlns="http://www.w3.org/2000/svg" xmlns:xlink="http://www.w3.org/1999/xlink"><linearGradient id="a" gradientUnits="userSpaceOnUse" x1="24" x2="24" y1="2" y2="46"><stop offset="0" stop-color="#f9ad07"/><stop offset="1" stop-color="#ff06a6"/></linearGradient><linearGradient id="b" gradientUnits="userSpaceOnUse" x1="1" x2="47" xlink:href="#a" y1="24" y2="24"/><linearGradient id="c" gradientUnits="userSpaceOnUse" x1="11" x2="37" xlink:href="#a" y1="24" y2="24"/><path d="m47 24a23 23 0 0 1 -23 23 23 23 0 0 1 -23-23 23 23 0 0 1 23-23 23 23 0 0 1 23 23z" fill="none" stroke="url(#b)" stroke-width="1.5"/><path d="m11 11v26h26v-26zm4 3h4.326c2.588 0 3.674 1.273 3.674 3.5v.049c0 1.906-.957 2.918-2.5 3.283l2.5 4.168h-2l-2.4-4.002-1.6.002v4h-2zm9 0h4.326c2.587 0 4.674 2.017 4.674 5.475v.05c0 3.492-2.51 5.435-4.445 5.457l-1.555.018h-3zm-7 2v3h2c1.204.001 2-.572 2-1.475v-.05c0-1.085-.796-1.475-2-1.475zm9 0v7h2c1.204 0 3-.983 3-3.475v-.05c0-2.458-1.796-3.475-3-3.475zm-13 16h10v2h-10z" fill="url(#c)"/></svg>