<svg viewBox="0 0 48 48" xmlns="http://www.w3.org/2000/svg" xmlns:xlink="http://www.w3.org/1999/xlink"><linearGradient id="a"><stop offset="0" stop-color="#8c4fc9"/><stop offset="1" stop-color="#008aff" stop-opacity=".718"/></linearGradient><linearGradient id="b" gradientUnits="userSpaceOnUse" x1="1.627" x2="46.3726" xlink:href="#a" y1="23.9998" y2="23.9998"/><linearGradient id="c" gradientUnits="userSpaceOnUse" x1="-23.91017415" x2="-.77895835" xlink:href="#a" y1="-8.93058785" y2="-8.93058785"/><path d="m24 2.56c11.842 0 21.44 9.598 21.44 21.44s-9.597 21.44-21.44 21.44-21.44-9.597-21.44-21.44 9.597-21.44 21.44-21.44z" fill="none" stroke="url(#b)" stroke-width="2.5"/><path d="m-13.428 3.868c.106-.067.135-.419.111-1.36l-.031-1.27-1.947-.056-1.946-.056-.03-4.365-.028-4.366h3.783l3.684 5.534c2.027 3.043 3.788 5.646 3.913 5.783.223.244.285.25 2.522.25 1.636 0 2.333-.038 2.428-.133.15-.15.188-2.279.044-2.505-.06-.093-.555-.145-1.573-.167l-1.486-.03-3.097-4.561c-1.702-2.508-3.095-4.585-3.094-4.616 0-.03.552-.319 1.226-.64 1.027-.492 1.356-.717 2.033-1.391 1.41-1.405 2.005-2.902 1.998-5.032-.003-.999-.055-1.381-.284-2.084-.533-1.637-1.6-2.84-3.226-3.64-2.032-.998-4.058-1.2-7.868-.785-2.62.286-4.92.268-6.38-.05-.64-.14-.906-.158-.997-.067-.148.149-.24 1.52-.138 2.065.086.46.07.455 2.036.708l1.42.183v19.909l-1.645.031-1.644.03-.117.304c-.176.458-.083 2.232.124 2.363.206.13 10.005.144 10.21.014zm-3.813-14.267c-.032-.085-.045-2.006-.03-4.27l.03-4.114.723-.092c.397-.051 1.649-.101 2.78-.112 1.724-.015 2.166.015 2.724.187 1.315.406 2.064 1.024 2.581 2.13.28.598.312.789.312 1.835 0 1.05-.03 1.231-.307 1.794-.598 1.217-1.846 2.07-3.641 2.49-1.138.265-5.083.381-5.172.152z" fill="url(#c)" transform="translate(37.22 32.486)"/></svg>