<svg viewBox="0 0 48 48" xmlns="http://www.w3.org/2000/svg" xmlns:xlink="http://www.w3.org/1999/xlink"><linearGradient id="a" gradientUnits="userSpaceOnUse" x1="24" x2="24" y1="2" y2="46"><stop offset="0" stop-color="#ff903a"/><stop offset="1" stop-color="#ef212d"/></linearGradient><linearGradient id="b" gradientUnits="userSpaceOnUse" x1=".5" x2="47.5" xlink:href="#a" y1="24" y2="24"/><linearGradient id="c" gradientUnits="userSpaceOnUse" x1="11" x2="37" xlink:href="#a" y1="24" y2="24"/><path d="m47 24a23 23 0 0 1 -23 23 23 23 0 0 1 -23-23 23 23 0 0 1 23-23 23 23 0 0 1 23 23z" fill="none" stroke="url(#b)" stroke-width="1.5"/><path d="m11 11v26h26v-26zm3 3h4c2 0 4 1.557 4 3.5 0 1.5-.941 2.41-2.205 3.127l2.205 4.373h-2l-2-4h-2v4h-2zm10 0h2l3 5 3-5h2v11h-2v-7l-3 5-3-5v7h-2zm-8 2v3h2c1.56 0 2-.712 2.027-1.5-.027-.698-.441-1.5-2.027-1.5zm-3 16h10v2h-10z" fill="url(#c)"/></svg>