<svg viewBox="0 0 48 48" xmlns="http://www.w3.org/2000/svg" xmlns:xlink="http://www.w3.org/1999/xlink"><linearGradient id="a" gradientUnits="userSpaceOnUse" x1="12" x2="36" y1="23" y2="23"><stop offset="0" stop-color="#df4f00"/><stop offset="1" stop-color="#ff0073"/></linearGradient><g fill="url(#a)" transform="matrix(1.85876 0 0 1.85876 -20.61 -19.751)"><path d="m14 30c-.559 0-1 .477-1 1 0 .582.383 1 1 1h22l-3.156-2z"/><path d="m16 27h16v1h-16m0-1" fill="#009efa"/><path d="m28 14c-1 0-.917 0-1.5.5l-14.004 12.004c-.5.5-.496.814-.496 1.496v1l17-15z"/><path d="m12 28v1.5a1.5 1.5 0 0 0 1.5 1.5h1.5v-1.5a1.5 1.5 0 0 0 -1.5-1.5zm1.5 1a.5.5 0 1 1 0 1 .5.5 0 0 1 0-1z"/></g></svg>