<svg viewBox="0 0 48 48" xmlns="http://www.w3.org/2000/svg" xmlns:xlink="http://www.w3.org/1999/xlink"><linearGradient id="a" gradientTransform="matrix(0 -1 1 0 0 48)" gradientUnits="userSpaceOnUse" x1="1" x2="47"><stop offset="0" stop-color="#eec60d"/><stop offset="1" stop-color="#ec6400"/></linearGradient><linearGradient gradientUnits="userSpaceOnUse" x1="3.503" x2="45.903" xlink:href="#a" y1="2.592" y2="43.03"/><linearGradient id="b" gradientTransform="matrix(1.12924 0 0 1.12924 -3.102 -3.087)" gradientUnits="userSpaceOnUse" x1="3.503" x2="45.903" xlink:href="#a" y1="2.592" y2="43.03"/><g fill="none" stroke="url(#b)" stroke-width="1.914" transform="matrix(.94055 0 0 .94055 1.57 1.283)"><path d="m6.128 26.273v-13.55m3.387 6.775v-6.775m3.388 6.775v-6.775m3.388 6.775v-6.775m3.387 6.775v-6.775m3.388 10.163v-10.163m3.388 6.775v-6.775m3.388 6.775v-6.775m3.387 6.775v-6.775m3.388 6.775v-6.775m3.388 13.55v-13.55m3.387 6.775v-6.775m3.388 6.775-.03-6.76" stroke-width="1.801"/><path d="m-.558 10.464h49.126" stroke-width="2.161"/></g><path d="m37.377 27.9v1.13h1.13v6.775h-2.26v1.129h5.647v-1.13h-2.259v-7.904m-2.258 1.13h-1.13v1.129h1.13m-31.619-2.259v1.13h3.388v-1.13zm3.388 1.13v6.775h1.13v-6.776zm0 6.775h-3.388v1.129h3.388zm-3.388 0v-6.776h-1.13v6.776z" fill="#ec6e01" stroke="#ec6e01" stroke-width=".903"/></svg>