<svg viewBox="0 0 48 48" xmlns="http://www.w3.org/2000/svg" xmlns:xlink="http://www.w3.org/1999/xlink"><linearGradient id="a"><stop offset="0" stop-color="#0012ff"/><stop offset="1" stop-color="#ff004d" stop-opacity=".808"/></linearGradient><linearGradient gradientUnits="userSpaceOnUse" x1="153.946" x2="412.146" xlink:href="#a" y1="77.191" y2="464.491"/><linearGradient id="b" gradientUnits="userSpaceOnUse" x1="407.175" x2="130.72" xlink:href="#a" y1="458.385" y2="27.578"/><g fill="#374149" stroke="url(#b)" stroke-linecap="round" stroke-linejoin="round" stroke-width="12.91" transform="matrix(.077895112 0 0 .077895112 1.8365028 5.401382)"><path d="m417.936 118.685c-.16-.17-.306-.345-.465-.515a95.302 95.302 0 0 0 -7.874-7.376c-.38-.32-.74-.658-1.124-.974-2.521-2.048-5.173-3.937-7.898-5.722-.558-.37-1.049-.814-1.618-1.174 0 .028-.007.057-.007.086-.049-.028-.092-.064-.138-.093-1.074 23.662-11.575 45.785-29.264 61.653a24.072 24.072 0 0 1 -18.388 12.04c-.281.046-.515.046-.748.097-.653.045-1.354.093-2.004.093-13.49 0-24.505-11.014-24.505-24.502 0-.981.049-1.96.188-2.94a24.11 24.11 0 0 1 2.194-7.515c3.498-7.421 10.594-12.741 19.04-13.77 6.955-8.213 10.689-18.48 10.689-29.355a46.6 46.6 0 0 0 -1.074-9.94 74.996 74.996 0 0 0 -6.532-.28c-52.6 0-95.258 42.61-95.258 95.208 0 37.104 21.187 69.216 52.133 84.941v188.696l43.124 30.847 1.25-1.201 4.304-3.482.006-.114.14.114v-.786l26.453-25.38v-28.235l-16.426-23.897 16.426-23.897-16.426-23.894 27.395-22.17v-66.602c30.898-15.725 52.085-47.837 52.085-84.941 0-25.142-9.753-48.004-25.678-65.02zm-87.453 145.092v103.195l-.088 63.49" stroke-width="21.11"/><path d="m215.722 186.87c0-29.886 12.066-56.966 31.582-76.724a108.844 108.844 0 0 1 9.232-8.211c-.082.014-.164.039-.246.053.075-.064.142-.139.22-.199-24.548 4.153-47.37 18.246-61.887 40.885-19.32 30.057-18.854 67.111-2.006 96.002l-23.8 37.012-74.537 116.026 18.905 47.463 42.144-8.215 14.747-22.915-.886-27.954 25.761-10.782-.839-27.955 33.744-3.687 10.92-17.038 23.806-37.008a70.03 70.03 0 0 0 4.786.337c.108.015.232.022.342.036v-.01c.045.004.096.01.142.01v-3.969c-32.39-19.838-52.13-54.745-52.13-93.158z" stroke-width="21.11"/><path d="m202.327 98.728c-8.103-46.475 21.12-92.06 67.487-103.607 37.279-9.283 75.016 5.976 96.024 35.513 6.446 8.95 11.3 19.354 14.13 30.717 6.154 24.71 1.5 49.624-10.927 69.686-4.885 7.933-10.945 15.097-18.1 21.177" stroke-width="11.311"/></g></svg>