<svg viewBox="0 0 48 48" xmlns="http://www.w3.org/2000/svg" xmlns:xlink="http://www.w3.org/1999/xlink"><linearGradient id="a" gradientUnits="userSpaceOnUse" x1="9.15605365" x2="38.64677755" y1="8.49216755" y2="37.7738246"><stop offset="0" stop-color="#f761db" stop-opacity=".996"/><stop offset="1" stop-color="#bc002f"/></linearGradient><path d="m6.458 3.886-.052 21.114c-.032 12.316 5.278 15.836 17.593 21.114 12.317-5.278 17.628-8.798 17.595-21.114l-.054-21.114zm17.542 3.52c.97 0 1.759.79 1.759 1.758a1.76 1.76 0 1 1 -3.519 0c0-.97.783-1.758 1.76-1.758m0 7.037c.97 0 1.759.79 1.759 1.76a1.76 1.76 0 1 1 -3.519 0c0-.97.783-1.76 1.76-1.76m-14.076 7.037c.97 0 1.759.791 1.759 1.76a1.757 1.757 0 1 1 -1.76-1.76m7.038 0c.97 0 1.76.791 1.76 1.76a1.757 1.757 0 1 1 -1.76-1.76m7.038 0c.97 0 1.76.791 1.76 1.76a1.757 1.757 0 1 1 -1.76-1.76m7.038 0c.97 0 1.76.791 1.76 1.76a1.757 1.757 0 1 1 -1.76-1.76m7.037 0c.97 0 1.76.791 1.76 1.76a1.757 1.757 0 1 1 -1.76-1.76m-14.074 7.04c.97 0 1.759.79 1.759 1.76a1.76 1.76 0 1 1 -3.519 0c0-.97.783-1.76 1.76-1.76m0 7.037c.97 0 1.759.791 1.759 1.76a1.757 1.757 0 1 1 -1.76-1.76" fill="none" stroke="url(#a)" stroke-linecap="round" stroke-linejoin="round" stroke-width="2.2"/></svg>