<svg viewBox="0 0 48 48" xmlns="http://www.w3.org/2000/svg" xmlns:xlink="http://www.w3.org/1999/xlink"><linearGradient id="a"><stop offset="0" stop-color="#00ff09"/><stop offset="1" stop-color="#0064ff"/></linearGradient><linearGradient id="b" gradientUnits="userSpaceOnUse" x1="52.205" x2="94.742" xlink:href="#a" y1="18.538" y2="18.538"/><linearGradient id="c" gradientTransform="matrix(.99303765 .11779738 -.11779738 .99303765 2.085013 -8.932749)" gradientUnits="userSpaceOnUse" x1="52.205" x2="94.742" xlink:href="#a" y1="18.538" y2="18.538"/><linearGradient id="d" gradientUnits="userSpaceOnUse" x1="51.595" x2="94.132" xlink:href="#a" y1="18.131" y2="18.131"/><g stroke="url(#b)" stroke-width="1.575" transform="translate(-48.814 6.508)"><g fill="none"><path d="m65.547-3.3c-1.302-.516-3.005.632-3.515 1.906l-10.506 26.279c-.585 1.464.297 3.5 1.757 4.082 8.773 3.498 17.544 7 26.316 10.498 1.466.584 3.507-.289 4.091-1.753 3.498-8.759 7.006-17.513 10.506-26.27.577-1.444-.315-3.512-1.757-4.085z" stroke="url(#c)"/><path d="m59.579 1.618c-1.575 0-3.15 1.575-3.15 3.15v28.355c0 1.575 1.568 3.15 3.15 3.15h20.478l11.026-11.026v-20.478c0-1.563-1.594-3.15-3.15-3.15z" stroke="url(#d)"/><path d="m64.305 6.344c-3.15 0-3.15 0-3.15 3.15v18.903c0 3.166 0 3.15 3.15 3.15h18.902l3.15-3.15v-18.903c0-3.166 0-3.15-3.15-3.15z" stroke="url(#d)"/><path d="m69.03 15.795-7.87 7.385v5.22c0 3.166 0 3.15 3.15 3.15l18.897-.003 3.15-4.725-8.312-8.566-3.787 3.15z" stroke="url(#d)"/></g><path d="m80.057 36.273 11.026-11.026h-7.876c-1.569 0-3.144 1.568-3.144 3.144v7.876m-.006.006" fill="#00fb0f" stroke="url(#d)" stroke-linecap="round" stroke-linejoin="round"/></g></svg>