<svg viewBox="0 0 48 48" xmlns="http://www.w3.org/2000/svg" xmlns:xlink="http://www.w3.org/1999/xlink"><linearGradient id="a" gradientUnits="userSpaceOnUse" x1="-44.601746" x2="-15.601745" y1="21.669491" y2="21.669491"><stop offset="0" stop-color="#0070ff"/><stop offset="1" stop-color="#00e9ff"/></linearGradient><g fill="none" stroke="url(#a)" stroke-linecap="round" stroke-linejoin="round" stroke-width="1.242356" transform="matrix(1.4488603 0 0 1.4488603 67.816563 -7.082507)"><path d="m-37.101745 9.6694912c-4.3628 2.4871998-6.9929 6.9779998-7 11.9999998.0092 6.9171 5.1605 12.966 12 14 .49038.05185.63898.02889 1 0 3.3137 0 6-2.6863 6-6-.003-2.2743-1.2841-4.305-3.2344-5.3174 0 0-2.1544-.98728-3.1074-1.499-1.381-.691-2.9-1.302-4.347-2.186-.724-.442-1.455-.958-2.112-1.756-.656-.797-1.199-1.992-1.199-3.242 0-2.4249.87659-4.2729 2-5.9999998z"/><path d="m-23.101745 33.669491c4.3628-2.4872 6.9929-6.978 7-12-.0092-6.9171-5.1605-12.9659998-12-13.9999998-.49038-.05185-.63898-.02889-1 0-3.3137 0-6 2.6862998-6 5.9999998.003 2.2743 1.2841 4.305 3.2344 5.3174 0 0 2.1544.98728 3.1074 1.499 1.3807.69037 2.9005 1.3012 4.3477 2.1855.72357.44218 1.4546.95846 2.1113 1.7559.656.797 1.199 1.992 1.199 3.242 0 2.4249-.87659 4.2729-2 6z"/></g></svg>