<svg viewBox="0 0 48 48" xmlns="http://www.w3.org/2000/svg" xmlns:xlink="http://www.w3.org/1999/xlink"><linearGradient id="a" gradientUnits="userSpaceOnUse" x1="24.829" x2="45.275" y1="12.948" y2="12.948"><stop offset="0" stop-color="#00ff94"/><stop offset="1" stop-color="#00fffa"/></linearGradient><linearGradient id="b" gradientUnits="userSpaceOnUse" x1="24.829" x2="45.275" y1="35.052" y2="35.052"><stop offset="0" stop-color="#f3a901"/><stop offset="1" stop-color="#ff1800"/></linearGradient><linearGradient id="c" gradientUnits="userSpaceOnUse" x1="2.725" x2="23.171" y1="35.052" y2="35.052"><stop offset="0" stop-color="#ff004f"/><stop offset="1" stop-color="#ff00a4"/></linearGradient><linearGradient id="d" gradientUnits="userSpaceOnUse" x1="2.725" x2="23.171" y1="12.948" y2="12.948"><stop offset="0" stop-color="#36c5f0"/><stop offset="1" stop-color="#cf00ff"/></linearGradient><g fill="none" stroke-width="1.5"><path d="m29.526 3.475a3.947 3.947 0 0 0 -3.947 3.947v11.052a3.947 3.947 0 0 0 3.947 3.947 3.947 3.947 0 0 0 3.947-3.947v-11.052a3.947 3.947 0 0 0 -3.947-3.947zm11.052 11.052a3.947 3.947 0 0 0 -3.947 3.947v3.947h3.947a3.947 3.947 0 0 0 3.947-3.947 3.947 3.947 0 0 0 -3.947-3.947z" stroke="url(#a)"/><path d="m44.525 29.526a3.947 3.947 0 0 0 -3.947-3.947h-11.052a3.947 3.947 0 0 0 -3.947 3.947 3.947 3.947 0 0 0 3.947 3.947h11.052a3.947 3.947 0 0 0 3.947-3.947zm-11.052 11.052a3.947 3.947 0 0 0 -3.947-3.947h-3.946v3.947a3.947 3.947 0 0 0 3.947 3.947 3.947 3.947 0 0 0 3.947-3.947z" stroke="url(#b)"/><path d="m18.474 44.525a3.947 3.947 0 0 0 3.947-3.947v-11.052a3.947 3.947 0 0 0 -3.947-3.947 3.947 3.947 0 0 0 -3.947 3.947v11.052a3.947 3.947 0 0 0 3.947 3.947zm-11.052-11.052a3.947 3.947 0 0 0 3.947-3.947v-3.946h-3.947a3.947 3.947 0 0 0 -3.947 3.947 3.947 3.947 0 0 0 3.947 3.947z" stroke="url(#c)"/><path d="m3.475 18.474a3.947 3.947 0 0 0 3.947 3.947h11.052a3.947 3.947 0 0 0 3.947-3.947 3.947 3.947 0 0 0 -3.947-3.947h-11.052a3.947 3.947 0 0 0 -3.947 3.947zm11.052-11.052a3.947 3.947 0 0 0 3.947 3.947h3.947v-3.947a3.947 3.947 0 0 0 -3.947-3.947 3.947 3.947 0 0 0 -3.947 3.947z" stroke="url(#d)"/></g></svg>