<svg height="48" width="48" xmlns="http://www.w3.org/2000/svg" xmlns:xlink="http://www.w3.org/1999/xlink"><linearGradient id="a" gradientUnits="userSpaceOnUse" x1="5.49718981" x2="41.86344796" y1="6.94490518" y2="41.9076637"><stop offset="0" stop-color="#1b03ff"/><stop offset="1" stop-color="#ff00f9"/></linearGradient><g fill="none"><path d="m24 9.326a14.674 14.674 0 0 0 -6.015 1.308 6.289 6.289 0 0 0 -.274 1.836 6.289 6.289 0 0 0 6.289 6.29 6.289 6.289 0 0 0 6.289-6.29 6.289 6.289 0 0 0 -.283-1.844 14.674 14.674 0 0 0 -6.006-1.3zm-11.53 8.384a6.289 6.289 0 0 0 -1.844.283 14.674 14.674 0 0 0 -1.3 6.007 14.674 14.674 0 0 0 1.31 6.015 6.289 6.289 0 0 0 1.834.274 6.289 6.289 0 0 0 6.29-6.289 6.289 6.289 0 0 0 -6.29-6.289zm23.06 0a6.289 6.289 0 0 0 -6.29 6.29 6.289 6.289 0 0 0 6.29 6.289 6.289 6.289 0 0 0 1.844-.283 14.674 14.674 0 0 0 1.3-6.006 14.674 14.674 0 0 0 -1.31-6.015 6.289 6.289 0 0 0 -1.834-.274zm-11.53 11.531a6.289 6.289 0 0 0 -6.289 6.289 6.289 6.289 0 0 0 .285 1.846 14.674 14.674 0 0 0 6.004 1.298 14.674 14.674 0 0 0 6.015-1.31 6.289 6.289 0 0 0 .274-1.834 6.289 6.289 0 0 0 -6.289-6.29z" stroke="#a1a1a1" stroke-width="1.9"/><path d="m24 3.037a20.918 20.918 0 0 0 -20.963 20.963 20.918 20.918 0 0 0 20.963 20.963 20.918 20.918 0 0 0 20.963-20.963 20.918 20.918 0 0 0 -20.963-20.963zm0 3.144a6.289 6.289 0 0 1 6.289 6.29 6.289 6.289 0 0 1 -6.289 6.287 6.289 6.289 0 0 1 -6.289-6.289 6.289 6.289 0 0 1 6.289-6.288zm-11.53 11.53a6.289 6.289 0 0 1 6.29 6.289 6.289 6.289 0 0 1 -6.29 6.289 6.289 6.289 0 0 1 -6.289-6.289 6.289 6.289 0 0 1 6.29-6.289zm23.06 0a6.289 6.289 0 0 1 6.289 6.289 6.289 6.289 0 0 1 -6.29 6.289 6.289 6.289 0 0 1 -6.287-6.289 6.289 6.289 0 0 1 6.289-6.289zm-11.53 11.53a6.289 6.289 0 0 1 6.289 6.289 6.289 6.289 0 0 1 -6.289 6.289 6.289 6.289 0 0 1 -6.289-6.29 6.289 6.289 0 0 1 6.289-6.287z" stroke="url(#a)" stroke-width="1.9"/><path d="m23.335 20.75a1.048 1.048 0 0 1 -.383 1.432 1.048 1.048 0 0 1 -1.432-.383 1.048 1.048 0 0 1 .384-1.432 1.048 1.048 0 0 1 1.431.384zm3.145 5.451a1.048 1.048 0 0 1 -.384 1.432 1.048 1.048 0 0 1 -1.431-.384 1.048 1.048 0 0 1 .383-1.431 1.048 1.048 0 0 1 1.432.383zm.767-2.935a1.048 1.048 0 0 1 -1.432-.383 1.048 1.048 0 0 1 .384-1.432 1.048 1.048 0 0 1 1.432.383 1.048 1.048 0 0 1 -.384 1.432zm-5.447 3.144a1.048 1.048 0 0 1 -1.43-.383 1.048 1.048 0 0 1 .383-1.432 1.048 1.048 0 0 1 1.432.384 1.048 1.048 0 0 1 -.384 1.432z" stroke="#a1a1a1" stroke-width=".943"/></g></svg>