<svg viewBox="0 0 48 48" xmlns="http://www.w3.org/2000/svg" xmlns:xlink="http://www.w3.org/1999/xlink"><linearGradient id="a" gradientUnits="userSpaceOnUse" x1="4.36945915" x2="43.83468229" y1="10.78061142" y2="37.42459659"><stop offset="0" stop-color="#80ff00"/><stop offset="1" stop-color="#00f10a"/></linearGradient><path d="m43.193 20.887a2.293 2.293 0 0 1 -1.227-.345 45.28 45.28 0 0 0 -23.385-6.517 45.457 45.457 0 0 0 -13.091 1.936c-1.292.39-2.645-.371-3.03-1.696-.376-1.324.359-2.716 1.65-3.106a50.004 50.004 0 0 1 40.322 5.069c1.163.703 1.554 2.235.872 3.435a2.429 2.429 0 0 1 -2.117 1.22m-4.008 9.058a2.176 2.176 0 0 1 -1.161-.337 35.924 35.924 0 0 0 -19.451-5.722c-3.833 0-7.615.61-11.24 1.799-1.148.383-2.386-.267-2.755-1.455-.37-1.182.267-2.45 1.417-2.833a40.29 40.29 0 0 1 12.58-2.015 40.173 40.173 0 0 1 21.77 6.407c1.028.657 1.34 2.046.696 3.106a2.176 2.176 0 0 1 -1.857 1.054m-3.983 9.035c-.378 0-.768-.117-1.105-.358-4.574-3.261-9.942-4.983-15.515-4.983-3.224 0-6.38.572-9.375 1.7-1.014.378-2.13-.156-2.502-1.194-.371-1.034.15-2.184 1.155-2.567a30.461 30.461 0 0 1 10.72-1.942c6.372 0 12.508 1.969 17.729 5.696.89.625 1.105 1.872.495 2.782a1.943 1.943 0 0 1 -1.605.866" fill="none" stroke="url(#a)" stroke-width="1.8"/></svg>