<svg viewBox="0 0 48 48" xmlns="http://www.w3.org/2000/svg" xmlns:xlink="http://www.w3.org/1999/xlink"><linearGradient id="a" gradientUnits="userSpaceOnUse" x1="2.186" x2="46.112" y1="24.131" y2="24.131"><stop offset="0" stop-color="#00d7ff"/><stop offset="1" stop-color="#005fff"/></linearGradient><g fill="none" stroke="url(#a)" stroke-width="1.5"><path d="m38.344 6.947a9.268 9.268 0 0 0 -11.242 6.739 9.268 9.268 0 0 0 .256 5.334l-2.56 10.225a6.18 6.18 0 0 0 -2.048.362l-7.572-6.537a6.179 6.179 0 0 0 -4.562-7.143 6.179 6.179 0 1 0 -3.002 11.988 6.179 6.179 0 0 0 3.596-.185l7.572 6.536a6.179 6.179 0 0 0 4.562 7.143 6.179 6.179 0 0 0 7.495-4.493 6.18 6.18 0 0 0 -.622-4.535l7.783-7.381a9.268 9.268 0 0 0 7.083-6.811 9.268 9.268 0 0 0 -6.739-11.242m-.75 2.997a6.179 6.179 0 1 1 -3.002 11.987 6.179 6.179 0 0 1 3.002-11.987zm-.751 2.997a3.09 3.09 0 1 0 -1.501 5.993 3.09 3.09 0 0 0 1.501-5.993z"/><path d="m25.746 38.37a3.09 3.09 0 0 1 -3.853-2.045 3.09 3.09 0 0 1 2.032-3.86 3.09 3.09 0 0 1 3.866 2.02 3.09 3.09 0 0 1 -2.006 3.873m-15.825-13.346a3.09 3.09 0 0 1 -3.852-2.045 3.09 3.09 0 0 1 2.032-3.86 3.09 3.09 0 0 1 3.866 2.02 3.09 3.09 0 0 1 -2.006 3.873" stroke-linecap="square" stroke-linejoin="round"/></g></svg>