<svg height="48" width="48" xmlns="http://www.w3.org/2000/svg" xmlns:xlink="http://www.w3.org/1999/xlink"><linearGradient id="a"><stop offset="0" stop-color="#ffad00"/><stop offset="1" stop-color="#ff0068"/></linearGradient><linearGradient id="b" gradientUnits="userSpaceOnUse" x1="5" x2="45" xlink:href="#a" y1="8" y2="43"/><linearGradient id="c" gradientUnits="userSpaceOnUse" x1="7.5359" x2="42.1271" xlink:href="#a" y1="10.40824" y2="40.67554"/><linearGradient id="d" gradientUnits="userSpaceOnUse" x1="9.28925" x2="40.35525" xlink:href="#a" y1="11.5582" y2="38.74095"/><g fill="none" stroke="url(#b)" stroke-linecap="round" stroke-linejoin="round" stroke-width="1.649" transform="matrix(1.21263 0 0 1.21263 -5.147 -5.089)"><path d="m24.203 6.398c-5.134 0-7.049 2.912-9.011 3.894l-4.63 4.629c-.98 1.962-3.893 3.877-3.893 9.011s2.913 7.05 3.894 9.012l4.629 4.63c1.962.98 3.877 3.892 9.011 3.892 5.135 0 7.05-2.912 9.012-3.893l4.63-4.629c.98-1.962 3.893-3.878 3.893-9.012s-2.913-7.049-3.894-9.011l-4.629-4.63c-1.962-.98-3.877-3.893-9.012-3.893z" stroke="url(#d)" stroke-width="1.237"/><path d="m33.227 6.364-4.837 9.418a9.172 9.172 0 0 1 3.971 3.96l9.398-4.825a19.754 19.754 0 0 0 -8.533-8.553zm-18.04.014a19.754 19.754 0 0 0 -8.551 8.53l9.418 4.837a9.172 9.172 0 0 1 3.96-3.97l-4.826-9.398zm17.167 21.74a9.172 9.172 0 0 1 -3.961 3.972l4.825 9.399a19.754 19.754 0 0 0 8.554-8.534l-9.419-4.836zm-16.308.003-9.396 4.827a19.754 19.754 0 0 0 8.53 8.553l4.837-9.419a9.172 9.172 0 0 1 -3.97-3.96z" stroke="url(#b)"/><path d="m15.178 41.5.003-.002.297-.581a19.754 19.754 0 0 1 -8.524-8.129l-.306.157-.002.002a19.754 19.754 0 0 0 8.532 8.552zm26.594-8.544-.308-.16a19.754 19.754 0 0 1 -8.529 8.142l.283.55a19.754 19.754 0 0 0 8.554-8.532zm-21.789-17.15.031-.03-.282-.553a9.172 9.172 0 0 0 -3.945 4.387l.266.136.026-.026a9.172 9.172 0 0 1 3.904-3.914zm8.69-.576-.283.551.006.006a9.172 9.172 0 0 1 3.948 3.94l.017.016.268-.138a9.172 9.172 0 0 0 -3.955-4.374z" stroke="url(#b)"/><circle cx="24.216" cy="23.966" r="5.947" stroke="url(#c)" stroke-width="1.237"/></g></svg>