<svg viewBox="0 0 48 48" xmlns="http://www.w3.org/2000/svg" xmlns:xlink="http://www.w3.org/1999/xlink"><linearGradient id="a" gradientUnits="userSpaceOnUse" x1="12.372" x2="40.763" y1="14.195" y2="41.449"><stop offset="0" stop-color="#ff0095"/><stop offset="1" stop-color="#00fff0"/></linearGradient><g fill="none" stroke="url(#a)" stroke-width="2"><path d="m19.415 15.435 8.948-.07v10.908h4.364l-8.727 8.727-8.727-8.727 4.05.04s.067-7.066.092-10.879z" stroke-linecap="round" stroke-linejoin="round"/><path d="m21.011 3.237-1.896 4.74a16.252 16.252 0 0 0 -3.145 1.306l-4.7-2.013-3.83 3.83 2.004 4.682a16.252 16.252 0 0 0 -1.301 3.167l-4.737 1.892v5.418l4.74 1.896a16.252 16.252 0 0 0 1.306 3.145l-2.013 4.7 3.83 3.83 4.682-2.004c1.007.544 2.068.98 3.167 1.3l1.893 4.738h5.418l1.896-4.74a16.252 16.252 0 0 0 3.145-1.306l4.7 2.012 3.83-3.83-2.004-4.681c.544-1.007.98-2.068 1.301-3.167l4.737-1.893v-5.418l-4.74-1.896a16.252 16.252 0 0 0 -1.306-3.145l2.013-4.7-3.83-3.83-4.682 2.004a16.252 16.252 0 0 0 -3.167-1.301l-1.892-4.736z"/></g></svg>