<svg viewBox="0 0 48 48" xmlns="http://www.w3.org/2000/svg" xmlns:xlink="http://www.w3.org/1999/xlink"><linearGradient id="a" gradientUnits="userSpaceOnUse" x2="0" y1="47" y2="1"><stop offset="0" stop-color="#ff0008"/><stop offset="1" stop-color="#cfff00"/></linearGradient><linearGradient id="b" gradientTransform="matrix(1.09085 0 0 -1.09085 -2.181 50.491)" gradientUnits="userSpaceOnUse" x1="14.793" x2="33.207" xlink:href="#a" y1="25.104" y2="25.104"/><linearGradient id="c" gradientUnits="userSpaceOnUse" x1="2.819" x2="44.293" xlink:href="#a" y1="23.985" y2="24.188"/><g fill="none" stroke-width="2"><path d="m19.415 32.968 8.948.07v-10.908h4.364l-8.727-8.727-8.727 8.727 4.05-.04s.067 7.066.092 10.88z" stroke="url(#b)" stroke-linecap="round" stroke-linejoin="round"/><path d="m21.102 3.67-1.896 4.74a16.252 16.252 0 0 0 -3.145 1.307l-4.7-2.013-3.83 3.83 2.004 4.682a16.252 16.252 0 0 0 -1.301 3.167l-4.737 1.892v5.418l4.74 1.896a16.252 16.252 0 0 0 1.306 3.145l-2.013 4.7 3.83 3.83 4.682-2.004c1.007.544 2.068.98 3.167 1.3l1.893 4.738h5.418l1.896-4.74a16.252 16.252 0 0 0 3.145-1.306l4.7 2.012 3.83-3.83-2.004-4.681c.544-1.007.98-2.068 1.3-3.167l4.738-1.893v-5.418l-4.74-1.896a16.252 16.252 0 0 0 -1.306-3.145l2.013-4.7-3.83-3.83-4.682 2.004a16.252 16.252 0 0 0 -3.167-1.301l-1.893-4.737z" stroke="url(#c)"/></g></svg>