<svg viewBox="0 0 48 48" xmlns="http://www.w3.org/2000/svg" xmlns:xlink="http://www.w3.org/1999/xlink"><linearGradient id="a" gradientTransform="matrix(0 -1 1 0 0 48)" gradientUnits="userSpaceOnUse" x1="1" x2="47"><stop offset="0" stop-color="#07f"/><stop offset="1" stop-color="#0bf"/></linearGradient><linearGradient id="b" gradientTransform="matrix(0 -1 1 0 0 48)" gradientUnits="userSpaceOnUse" x1="5.753" x2="44.548" y1="5.591" y2="44.422"><stop offset="0" stop-color="#07f"/><stop offset="1" stop-color="#00f7ff"/></linearGradient><linearGradient id="c" gradientTransform="matrix(.96405 0 0 .96405 .863 .863)" gradientUnits="userSpaceOnUse" x1="5.753" x2="44.548" xlink:href="#a" y1="5.591" y2="44.422"/><linearGradient id="d" gradientTransform="matrix(.88794 0 0 .88794 2.69 2.69)" gradientUnits="userSpaceOnUse" x1="5.753" x2="44.548" xlink:href="#a" y1="5.591" y2="44.422"/><g fill="none" stroke="url(#b)" stroke-width="2.658" transform="matrix(.94068 0 0 .94068 1.424 1.424)"><path d="m24 1.827c12.246 0 22.173 9.927 22.173 22.173s-9.927 22.173-22.173 22.173-22.173-9.927-22.173-22.173c0-12.246 9.927-22.173 22.173-22.173z" stroke="url(#c)"/><path d="m18.332 16.913v4.252h11.338v-4.252l5.51 3.543 5.829 3.549-5.83 3.543-5.509 3.543v-4.251h-11.338v4.252l-5.51-3.543-5.834-3.543 5.835-3.55zm0 0" stroke="url(#d)" stroke-linecap="round" stroke-linejoin="round"/></g></svg>