<svg height="64" width="64" xmlns="http://www.w3.org/2000/svg" xmlns:xlink="http://www.w3.org/1999/xlink"><linearGradient id="a" gradientUnits="userSpaceOnUse" x1="16.45429" x2="43.39991" y1="34.07258" y2="34.07258"><stop offset="0" stop-color="#1287de"/><stop offset="1" stop-color="#37a4f5"/></linearGradient><linearGradient id="b" gradientUnits="userSpaceOnUse" x1="2.98562548" x2="61.01405452" y1="-32.00398548" y2="-32.00398548"><stop offset="0" stop-color="#2de3cc"/><stop offset="1" stop-color="#1388de"/></linearGradient><g fill="none" stroke-width="3"><rect height="58.036" rx="29.014" stroke="url(#b)" transform="rotate(90)" width="58.029" x="2.986" y="-61.021"/><path d="m32.407 47.314c-.75-.454-1.228-1.243-3.313-5.458-1.153-2.332-2.25-4.405-2.439-4.605-.211-.224-1.951-1.148-4.548-2.417-5.13-2.505-5.653-2.903-5.653-4.321 0-.663.324-1.296.83-1.627.175-.114 5.539-2.035 11.922-4.27 11.214-3.922 11.633-4.057 12.399-4.01.663.04.855.108 1.174.412.478.455.692 1.086.6 1.761-.1.726-8.152 23.471-8.452 23.873-.638.858-1.72 1.142-2.519.658" stroke="url(#a)"/></g></svg>