<svg viewBox="0 0 48 48" xmlns="http://www.w3.org/2000/svg" xmlns:xlink="http://www.w3.org/1999/xlink"><linearGradient id="a" gradientTransform="matrix(0 -1 1 0 0 48)" gradientUnits="userSpaceOnUse" x1="10.191" x2="38.747" y1="24.5" y2="24.5"><stop offset="0" stop-color="#a5dc4b"/><stop offset="1" stop-color="#ffdb00"/></linearGradient><g fill="none" stroke="url(#a)" stroke-linecap="round" stroke-width="1.5" transform="matrix(1.5423 0 0 1.5423 -13.066 -12.27)"><path d="m27.898 17.996v.375c.852 0 1.129.033 1.469.518l2.988 4.41-2.695 3.957c-.664.965-1.668.982-1.965.982v.375h.9c-.307 1.931-.689 3.02-3.17 3.02h-2.148c-.617 0-.645-.078-.645-.613v-4.352h1.457c1.461 0 1.602.539 1.602 1.852h.25v-4.047h-.25c0 1.289-.141 1.82-1.602 1.82h-1.457v-3.859c0-.523.027-.602.645-.602h2.117c2.395 0 2.676.957 2.891 3.01h.281l-.371-3.441h-6.754l-.242-3.381h-8.938l-.262 3.441h.277c.199-2.578.422-3.03 2.82-3.03h.854c.297.047.297.238.297.594v8.473c0 .566-.047.734-1.352.734h-.441v.375h4.555v-.375h-.441c-1.285 0-1.332-.172-1.332-.734v-8.473c0-.344 0-.527.281-.594h.848c2.346 0 2.602.447 2.805 2.969h-.814v.43c1.098 0 1.273 0 1.273.699v8.398c0 .699-.176.699-1.273.699v.375h8.05l.484-3.387h1.646v-.375c-.477-.047-.615-.357-.615-.607 0-.203.076-.313.154-.422l2.479-3.635 2.689 3.979c.121.172.121.219.121.266 0 .125-.137.391-.68.422v.379h3.313v-.379c-.992 0-1.146-.074-1.451-.516l-3.406-5.01 2.289-3.328c.23-.324.699-.996 1.969-1.016v-.375h-2.848v.375c.496.047.621.359.621.609 0 .188-.078.313-.188.465l-2.043 2.98-2.289-3.367c-.109-.172-.125-.219-.125-.266 0-.141.168-.408.684-.424v-.375h-3.313z" opacity=".1"/><path d="m20.2 17.02h-8.938l-.262 3.441h.277c.199-2.578.422-3.03 2.82-3.03h.855c.297.047.297.238.297.594v8.473c0 .566-.047.734-1.352.734h-.441v.375h4.554v-.375h-.441c-1.285 0-1.332-.172-1.332-.734v-8.473c0-.344 0-.527.281-.594h.848c2.367 0 2.605.449 2.809 3.03h.27"/><path d="m27.969 27.07h-.277c-.34 2.309-.543 3.563-3.266 3.563h-2.148c-.617 0-.645-.078-.645-.613v-4.352h1.457c1.461 0 1.602.539 1.602 1.852h.25v-4.047h-.25c0 1.289-.141 1.82-1.602 1.82h-1.457v-3.859c0-.523.027-.602.645-.602h2.117c2.395 0 2.676.957 2.891 3.01h.281l-.371-3.441h-7.84v.43c1.098 0 1.273 0 1.273.699v8.398c0 .699-.176.699-1.273.699v.375h8.05"/><path d="m32.14 21.719 2.289-3.328c.23-.324.699-.996 1.969-1.016v-.375h-2.847v.375c.496.047.621.359.621.609 0 .188-.078.313-.188.465l-2.043 2.98-2.289-3.367c-.109-.172-.125-.219-.125-.266 0-.141.168-.406.684-.422v-.375h-3.313v.375c.852 0 1.129.031 1.469.516l2.988 4.41-2.695 3.957c-.664.965-1.668.984-1.965.984v.375h2.843v-.375c-.477-.047-.617-.359-.617-.609 0-.203.078-.313.156-.422l2.477-3.633 2.691 3.977c.121.172.121.219.121.266 0 .125-.137.391-.68.422v.379h3.313v-.379c-.992 0-1.148-.074-1.453-.516"/></g></svg>