<svg enable-background="new 0 0 246.96 242.808" height="48" width="48" xmlns="http://www.w3.org/2000/svg" xmlns:xlink="http://www.w3.org/1999/xlink"><linearGradient id="a"><stop offset="0" stop-color="#ff0054"/><stop offset="1" stop-color="#ff5800"/></linearGradient><linearGradient id="b" gradientUnits="userSpaceOnUse" x1="78.208" x2="84.137" y1="79.495" y2="79.495"><stop offset="0"/><stop offset="1" stop-opacity="0"/></linearGradient><linearGradient id="c" gradientUnits="userSpaceOnUse" x1="77.192" x2="85.42" xlink:href="#r" y1="78.409" y2="78.409"/><linearGradient id="d" gradientUnits="userSpaceOnUse" x1="74.391" x2="116.513" y1="74.321" y2="74.321"><stop offset=".02" stop-color="#48a8e0"/><stop offset=".388" stop-color="#2061bd"/><stop offset=".497" stop-color="#2b51ac"/><stop offset=".789" stop-color="#442c84"/><stop offset=".941" stop-color="#4e1d75"/></linearGradient><linearGradient id="e" gradientUnits="userSpaceOnUse" x1="60.972" x2="76.014" xlink:href="#s" y1="98.402" y2="98.402"/><linearGradient id="f" gradientUnits="userSpaceOnUse" x1="159.876" x2="226.98" y1="148.348" y2="148.348"><stop offset="0" stop-color="#3156a8"/><stop offset=".247" stop-color="#3351a4"/><stop offset=".536" stop-color="#3b4397"/><stop offset=".845" stop-color="#472c82"/><stop offset="1" stop-color="#4e1d75"/></linearGradient><linearGradient id="g" gradientUnits="userSpaceOnUse" x1="114.4" x2="227.087" y1="128.205" y2="128.205"><stop offset="0" stop-color="#2061bd"/><stop offset=".185" stop-color="#2b51ac"/><stop offset=".683" stop-color="#442c84"/><stop offset=".941" stop-color="#4e1d75"/></linearGradient><linearGradient id="h" gradientUnits="userSpaceOnUse" x1="81.6412196" x2="119.08482" xlink:href="#s" y1="29.6536004" y2="29.6536004"/><linearGradient id="i" gradientTransform="translate(2.572 -1.542)" gradientUnits="userSpaceOnUse" x1="20.059" x2="116.937" xlink:href="#q" y1="116.035" y2="116.035"/><linearGradient id="j" gradientTransform="translate(2.572 -1.542)" gradientUnits="userSpaceOnUse" x1="31.905" x2="161.632" xlink:href="#q" y1="173.959" y2="173.959"/><linearGradient id="k" gradientUnits="userSpaceOnUse" x1="126.301" x2="201.843" xlink:href="#r" y1="70.501" y2="70.501"/><linearGradient id="l" gradientUnits="userSpaceOnUse" x1="162.049" x2="219.028" xlink:href="#r" y1="90.922" y2="90.922"/><linearGradient id="m" gradientTransform="translate(-466.086 -329.232)" gradientUnits="userSpaceOnUse" x1="539.23" x2="553.749" xlink:href="#q" y1="407.919" y2="407.919"/><linearGradient id="n" gradientUnits="userSpaceOnUse" x1="6.65059726" x2="37.68289456" xlink:href="#a" y1="29.99241284" y2="29.99241284"/><linearGradient id="o" gradientUnits="userSpaceOnUse" x1="43.547" x2="184.232" xlink:href="#a" y1="146.298" y2="146.298"/><linearGradient id="p" gradientUnits="userSpaceOnUse" x1="61.10708922" x2="181.6244697" xlink:href="#s" y1="66.89120204" y2="66.89120204"/><radialGradient id="q" cx="59.073" cy="113.923" gradientTransform="matrix(1 0 0 1.45 0 -51.265)" gradientUnits="userSpaceOnUse" r="85.247"><stop offset=".165" stop-color="#14cdda"/><stop offset=".548" stop-color="#2061bd"/><stop offset=".655" stop-color="#2658ac"/><stop offset=".864" stop-color="#373f81"/><stop offset="1" stop-color="#432d62"/></radialGradient><linearGradient id="r" gradientUnits="userSpaceOnUse" x1="19.676" x2="217.835" y1="337.414" y2="43.631"><stop offset=".379" stop-color="#3156a8"/><stop offset="1" stop-color="#4e1d75"/></linearGradient><linearGradient id="s" gradientUnits="userSpaceOnUse" x1="96.745" x2="206.317" y1="278.646" y2="32.542"><stop offset="0" stop-color="#29abe2"/><stop offset=".773" stop-color="#385aa6"/><stop offset=".858" stop-color="#414293"/><stop offset="1" stop-color="#4e1d75"/></linearGradient><linearGradient id="t" gradientUnits="userSpaceOnUse" x1="48.269" x2="54.241" y1="92.034" y2="95.468"><stop offset="0" stop-color="#b0dcd6"/><stop offset="1" stop-color="#53ace0"/></linearGradient><linearGradient id="u" gradientTransform="matrix(.99939993 .03463786 -.03463786 .99939993 24.398458 56.694491)" gradientUnits="userSpaceOnUse" x1="48.738" x2="43.199" y1="14.373" y2="11.303"><stop offset="0" stop-color="#f9c21b"/><stop offset=".148" stop-color="#f3ba1b"/><stop offset=".379" stop-color="#e3a41b"/><stop offset=".663" stop-color="#c9801c"/><stop offset=".988" stop-color="#a44e1c"/><stop offset="1" stop-color="#a34c1c"/></linearGradient><path d="m9.393 17.665-2.403 15.844 25.754 8.772 4.569-19.427zm.477.687 26.73 4.967-4.281 18.2-24.824-8.212z" fill="none" stroke="url(#n)" stroke-width="1.5"/><path d="m81.243 151.79.04-.006 109.947-57.529-173.376-32.337z" fill="none" stroke="url(#o)" stroke-linejoin="round" stroke-width="9.84" transform="matrix(.15243 0 0 .15243 7.324 8.642)"/><g stroke-width="6.8" transform="matrix(.22058 0 0 .22058 -3.522 -1.938)"><g fill="none"><path d="m62.504 68.782s-6.112.405-16.296 12.963c-15.116 19.65-5.029 42.13-.276 46.61-6.367-.67-9.845-2.779-12.072-7.106-2.514 41.9 14.58 66.368 41.72 79.417-8.868-1.017-52.949-24.279-52.949-80.256 0-11.9 5.646-33.664 17.228-49.33 9.756-13.194 26.391-26.815 41.967-35.182" stroke="url(#i)" stroke-linecap="square" stroke-linejoin="round"/><path d="m34.477 144.19s8.886 48.091 43.057 56.452c.543.13-7.14-11.988-10.538-26.601 6.617 6.73 14.502 12.053 23.352 12.975 1.086.112-5.056-7.085-10.435-15.771" stroke="url(#j)" stroke-linejoin="round"/><path d="m82.007 41.676c-10.005 8.518-9.346 7.797-15.67 16.702-4.605 6.483-4.1 12.436-2.515 19.628.681 3.07 1.37 4.541.54 7.67-.457 1.728-.38 3.34-.95 4.358-.785 1.408-1.787 2.947-2.122 5.475-.838 6.313 1.396 8.324 2.793 10.448 1.99-1.976 5.875-6.625 12.882-9.402 7.006-2.777 13.996-8.109 22.777-12.589 11.998-6.12 37.378 8.766 57.011-8.43m27.186-29.994c-14.523-11.6-35.989-16.51-46.976-17.353-9.57-.734-17.428.386-27.572 2.917" stroke="url(#p)"/><path d="m111.07 17.02s-10.333 4.99-14.833 14.009c10.389-5.237 16.42-8.099 19.271-8.44 0 0-2.73 1.323-6.117 8.517 5.988-1.918 8.049-3.126 9.693-3.146 0 0-.477.757-.914 7.938-9.194-2.981-26.894.493-36.308 6.388-3.191-17.028 29.208-25.266 29.208-25.266z" stroke="url(#h)" stroke-linejoin="round"/><path d="m172.92 165.305s2.989 29.27-45.536 52.878c0 0 26.544-2.17 39.707-16.988-5.353 12.31-20.041 18.959-20.041 18.959 10.809-1.581 39.203-9.96 57.29-32.58 20.471-25.603 26.628-49.624 20.464-81.824-6.786-35.453-39.438-67.707-65.694-69.495-26.343.801-45.465 13.194-44.695 23.246 21.4 1.475 24.197 5.034 24.197 5.034" stroke="url(#g)" stroke-linejoin="round"/><path d="m169.84 132.035s-4.223 8.133-8.205 11.855c5.021-1.172 7.762-2.657 12.989-6.81-.548 14.187-1.565 17.314-14.748 33.393 0 0 21.644-6.051 28.62-17.739-.847 13.628-13.208 27.602-13.208 27.602s18.07-3.657 25.777-16.373c-1.004 11.475-14.916 26.983-14.916 26.983 14.223-2.552 49.96-25.128 38.656-85.196" stroke="url(#f)" stroke-linejoin="round"/><path d="m76.378 95.11s20.864-33.526 40.055-42.967c1.781-.896-26.572 7.537-37.982 20.13-6.782 7.486-3.598 20.816-2.073 22.837z" stroke="url(#d)"/></g><path d="m74.283 91.219s-3.869 2.707-6.67 2.017c-3.318-.814-3.88-4.028-3.88-4.028a19.153 19.153 0 0 1 -.279 1.863c-.138.656-1.938 2.348-2.4 6.911-.493 4.842 1.325 7.646 3.028 9.614 6.052-8.85 11.932-11.03 11.932-11.03-2.303-.806-1.73-5.347-1.73-5.347z" fill="url(#t)" stroke="url(#e)"/><path d="m78.085 82.77s-2.643-4.058 1.166-7.756c2.006-1.948 5.052-.866 5.406-.517 1.497 1.486.554 4.622-.794 6.396-.762 1.003-2.98 2.558-5.778 1.877z" fill="url(#u)" stroke="url(#c)"/><path d="m84.135 79.597c-.06 1.622-1.432 2.888-3.065 2.832-1.637-.057-2.918-1.415-2.86-3.037.059-1.621 1.43-2.887 3.068-2.832 1.633.057 2.913 1.416 2.857 3.037z" fill="none" stroke="url(#b)"/><path d="m74.314 91.316s-3.8 2.658-6.551 1.98c-3.258-.799-3.81-3.956-3.81-3.956a18.81 18.81 0 0 1 -.274 1.83c-.135.644-1.903 2.306-2.356 6.787-.485 4.755 1.3 7.51 2.973 9.441 5.944-8.69 11.718-10.832 11.718-10.832-2.262-.79-1.7-5.25-1.7-5.25z" fill="url(#t)"/><path d="m74.72 86.383s-4.665-7.159 2.054-13.687c3.546-3.44 8.919-1.529 9.54-.91 2.644 2.622.982 8.156-1.398 11.288-1.345 1.764-5.26 4.51-10.195 3.309z" fill="url(#m)"/><path d="m77.396 85.939s-3.224-4.949 1.422-9.459c2.446-2.376 6.16-1.056 6.592-.63 1.826 1.812.676 5.637-.968 7.8-.93 1.223-3.635 3.119-7.046 2.289z" fill="url(#u)"/><path d="m83.832 80.658c-.072 1.978-1.746 3.522-3.738 3.454-1.996-.069-3.558-1.726-3.487-3.704.07-1.977 1.744-3.521 3.74-3.453 1.993.069 3.554 1.727 3.485 3.703z"/><circle cx="76.974" cy="74.096" fill="#fff" r="1.136"/><path d="m168.882 104.314c1.219 22.431-4.201 30.695-4.201 30.695s14.518-5.57 21.481-23.503c2.877 7.625-.087 15.65-.087 15.65s11.73-8.766 14.253-24.742c2.796 4.51 1.974 13.51 1.974 13.51s7.488-10.425 7.67-21.778c3.47 2.42 3.79 11.87 3.79 11.87s7.463-6.734 5.352-18.027" fill="none" stroke="url(#l)" stroke-linejoin="round"/><path d="m126.521 60.822c8.744 1.901 15.52 4.932 19.302 6.969 8.798 4.74 14.927 11.177 17.94 17.096 3.646 7.162 5.135 19.764 5.135 19.764s9.593-13.177 7.301-19.943c3.8 2.36 4.55 10.779 4.55 10.779s6.395-10.017 4.504-18.742c4.933 3.007 5.097 9.122 5.097 9.122s5.023-6.972 2.753-18.406c4.964 3.947 6.003 9.06 6.003 9.06s4.058-10.852-.462-19.275" fill="none" stroke="url(#k)" stroke-linejoin="round"/></g></svg>