<svg height="48" width="48" xmlns="http://www.w3.org/2000/svg" xmlns:xlink="http://www.w3.org/1999/xlink"><linearGradient id="a"><stop offset="0" stop-color="#ab00b7"/><stop offset="1" stop-color="#7800ff"/></linearGradient><linearGradient id="b" gradientUnits="userSpaceOnUse" x1="23.815" x2="23.613" xlink:href="#a" y1="42.681" y2="9.316"/><linearGradient id="c" gradientUnits="userSpaceOnUse" x1="-30.586" x2="-16.898" xlink:href="#a" y1="27.462" y2="27.462"/><linearGradient id="d" gradientUnits="userSpaceOnUse" x1="-35.188" x2="-12.296" xlink:href="#a" y1="30.051" y2="30.051"/><linearGradient id="e" gradientUnits="userSpaceOnUse" x1="-41.068" x2="-6.704" xlink:href="#a" y1="32.927" y2="32.927"/><linearGradient id="f" gradientTransform="matrix(1 0 0 1.0281 0 -.674)" gradientUnits="userSpaceOnUse" x1="23.642" x2="23.749" xlink:href="#a" y1="44.451" y2="5.864"/><linearGradient id="g" gradientUnits="userSpaceOnUse" x1="21.838" x2="21.994" xlink:href="#a" y1="43.113" y2="5.001"/><linearGradient id="h" gradientTransform="matrix(1 0 0 1.0281 0 -.674)" gradientUnits="userSpaceOnUse" x1="23.103" x2="24.181" y1="23.985" y2="23.985"><stop offset="0"/><stop offset="1" stop-opacity="0"/></linearGradient><g stroke="url(#b)"><g fill="none" stroke-width="1.8"><circle cx="23.642" cy="23.985" r="21.543" stroke="url(#g)"/><g stroke-linecap="round" stroke-linejoin="round"><path d="m-7.46 24.793a16.426 16.426 0 0 1 -8.255 14.25 16.426 16.426 0 0 1 -16.469-.074 16.426 16.426 0 0 1 -8.127-14.323" stroke="url(#e)" transform="rotate(-90)"/><path d="m-12.8 24.632a10.943 10.943 0 0 1 -5.5 9.493 10.943 10.943 0 0 1 -10.97-.05 10.943 10.943 0 0 1 -5.414-9.54" stroke="url(#d)" transform="rotate(-90)"/><path d="m-17.2 24.222a6.543 6.543 0 0 1 -3.288 5.676 6.543 6.543 0 0 1 -6.56-.03 6.543 6.543 0 0 1 -3.237-5.705" stroke="url(#c)" transform="rotate(-90)"/></g></g><path d="m23.642 2.944v42.083" fill="url(#h)" stroke="url(#f)" stroke-width="1.825"/></g></svg>