<svg viewBox="0 0 48 48" xmlns="http://www.w3.org/2000/svg" xmlns:xlink="http://www.w3.org/1999/xlink"><linearGradient id="a"><stop offset="0" stop-color="#004dff" stop-opacity=".875"/><stop offset="1" stop-color="#00e0f8"/></linearGradient><linearGradient id="b" gradientUnits="userSpaceOnUse" x1="-.375" x2="48.375" xlink:href="#a" y1="24" y2="24"/><linearGradient id="c" gradientUnits="userSpaceOnUse" x1="19.209" x2="34.318" xlink:href="#a" y1="24.935" y2="24.935"/><path d="m24 1c12.703 0 23 10.297 23 23s-10.297 23-23 23-23-10.297-23-23 10.297-23 23-23z" fill="none" stroke="url(#b)" stroke-width="2.54" transform="matrix(-.90568 0 0 -.90568 46.736 45.906)"/><path d="m20.366 34.075v-18.28l12.795 9.14z" fill="none" stroke="url(#c)" stroke-linecap="round" stroke-linejoin="round" stroke-width="2.314"/><path d="m18.505 8.28 1.23 2-1.23 2h-2.46l1.23-2-1.23-2m7.335 0 1.23 2-1.23 2h-2.46l1.23-2-1.23-2m7.172 0 1.23 2-1.23 2h-2.46l1.23-2-1.23-2m7.178 0 1.23 2-1.23 2h-2.46l1.23-2-1.23-2m2.46 0" fill="#005aff" fill-rule="evenodd"/></svg>