<svg viewBox="0 0 48 48" xmlns="http://www.w3.org/2000/svg" xmlns:xlink="http://www.w3.org/1999/xlink"><linearGradient id="a" gradientTransform="matrix(0 -1 1 0 0 48)" gradientUnits="userSpaceOnUse" x1="1" x2="47"><stop offset="0" stop-color="#ff003a"/><stop offset="1" stop-color="#ff6500"/></linearGradient><linearGradient id="b" gradientTransform="matrix(0 -1 1 0 0 48)" gradientUnits="userSpaceOnUse" x1="12.218" x2="35.774" y1="23" y2="23"><stop offset="0" stop-color="#d6262e"/><stop offset="1" stop-color="#db363f"/></linearGradient><linearGradient id="c" gradientUnits="userSpaceOnUse" x1="10.959" x2="37.031" xlink:href="#a" y1="23" y2="23"/><linearGradient id="d" gradientUnits="userSpaceOnUse" x1="17.891" x2="30.106" xlink:href="#a" y1="26.191" y2="26.191"/><g fill="none" stroke="url(#b)" transform="matrix(1.57998 0 0 1.57998 -13.917 -13.34)"><g stroke="url(#c)" stroke-width="1.061"><path d="m16.575 19.818c-1.06 0-1.19.398-1.404 1.06l-3.556 13.79c-.137.56-.344 1.061.717 1.061h23.337c1.06 0 .832-.535.717-1.06l-3.556-13.79c-.187-.527-.344-1.061-1.404-1.061h-5.304v8.486h3.182l-5.304 4.243-5.303-4.243h3.182v-8.486zm0 0" stroke-linecap="round" stroke-linejoin="round"/><g stroke-linecap="square"><path d="m18.456 10.27h11.092c1.036 0 1.878.714 1.878 1.592s-.842 1.591-1.878 1.591h-2.773m-5.546 0h-2.773c-1.04 0-1.881-.713-1.881-1.591s.841-1.591 1.88-1.591"/><path d="m21.879 13.45v6.368m0 0h4.243m0 0v-6.368"/></g></g><path d="m22.1 19.835h3.797v8.228h3.797l-5.694 4.484-5.698-4.484h3.797z" fill="url(#d)" stroke="none"/></g></svg>