<svg viewBox="0 0 48 48" xmlns="http://www.w3.org/2000/svg" xmlns:xlink="http://www.w3.org/1999/xlink"><linearGradient id="a"><stop offset="0" stop-color="#89ff60"/><stop offset="1" stop-color="#c7ff00"/></linearGradient><linearGradient id="b" gradientTransform="matrix(1.04964 0 0 1.20134 -5.374 -2.66)" gradientUnits="userSpaceOnUse" x1="21.216" x2="47.992" xlink:href="#a" y1="10.366" y2="33.846"/><linearGradient id="c" gradientUnits="userSpaceOnUse" x1="5" x2="16" xlink:href="#a" y1="25" y2="40"/><linearGradient id="d" gradientUnits="userSpaceOnUse" x1="16" x2="16" y1="40" y2="40"><stop offset="0"/><stop offset="1" stop-opacity="0"/></linearGradient><path d="m18.39 37.5.014 2.236 22.179-.085.005-2.151m-6.863 0v-27.861h2.278c2.275 0 3.77.612 4.675 1.66.473.552.836 1.37 1.044 2.545l.003.007v.004c.236 1.26.432 2.852.576 4.761l.073.989h4.177l-1.106-14.764h-31.957l-1.105 14.763h4.164l.087-.968c.202-2.25.412-3.937.617-5.017v-.003c.203-1.018.546-1.764 1.008-2.321.903-1.043 2.413-1.657 4.717-1.657h2.302v27.86m-10.055-30.493h28.487l.781 10.44h-.43c-.136-1.49-.282-2.93-.49-4.043-.261-1.463-.76-2.7-1.541-3.616l-.003-.002c-1.377-1.595-3.449-2.306-6.025-2.306h-4.168v32.185h-4.668l5.76.053v-2.25l-5.76-.023v-29.968h-4.19c-2.605 0-4.69.708-6.069 2.306l-.006.008-.006.004c-.734.88-1.223 2.024-1.486 3.343l-.003.005v.006c-.191 1.003-.362 2.587-.533 4.296h-.432z" fill="url(#b)"/><path d="m7.288 22v19m6-19v19m-10-13h14m-14 7h14" fill="url(#d)" stroke="url(#c)" stroke-width="2"/></svg>