<svg height="48" width="48" xmlns="http://www.w3.org/2000/svg" xmlns:xlink="http://www.w3.org/1999/xlink"><linearGradient id="a" gradientTransform="matrix(0 -1 1 0 0 48)" gradientUnits="userSpaceOnUse" x1="3.561" x2="42.806" y1="5.143" y2="42.536"><stop offset="0" stop-color="#6a40ff"/><stop offset="1" stop-color="#9300ff"/></linearGradient><path d="m27.13 2.529c-.935 0-1.712.748-1.721 1.654-.006.91.771 1.675 1.714 1.68 4.068.03 7.413 1.316 10.11 3.852 2.666 2.512 4.056 5.992 4.091 10.534v.004c.01.904.787 1.65 1.726 1.65l.019-.004c.94-.009 1.721-.767 1.714-1.676v-.004c-.022-2.648-.453-5.081-1.294-7.224a15.604 15.604 0 0 0 -3.837-5.672c-3.338-3.138-7.6-4.76-12.506-4.794h-.015zm-17.473 3.916c-.656-.111-1.367.01-2.077.352h-.057l-.08.046c-1.315.748-2.548 1.75-3.704 3.008l-.09.098v.091c-.8.997-1.328 2-1.45 3.004-.039.17-.038.324-.038.489 0 .457.068.921.209 1.377l.037.129.08.045c.456 1.566 1.492 4.002 3.757 8.128 1.51 2.734 3.051 5.019 4.583 6.943a37.187 37.187 0 0 0 2.78 3.126c.013.013.058.058.107.102.017.017.04.052.098.11l.106.106h.008c.037.037.062.064.068.072l.019.022.019.02a36.336 36.336 0 0 0 3.129 2.77c1.922 1.53 4.205 3.085 6.94 4.597 4.13 2.278 6.59 3.308 8.146 3.757l.057.068.095.034c.441.147.9.215 1.354.208.185.01.348-.002.504-.037 1.066-.125 2.122-.63 3.167-1.506l.011-.015.012-.008c.016-.016.006-.008.015-.019.01-.008.013-.018.023-.027 1.236-1.128 2.234-2.356 2.985-3.67l.05-.083v-.08c.689-1.436.416-2.902-.704-3.837a124.17 124.17 0 0 0 -1.234-1.017 59.977 59.977 0 0 0 -2.04-1.612c-1.035-.766-2.634-1.756-3.546-2.263h-.003c-1.751-.98-3.58-.411-4.386.632l-1.411 1.767c-.57.717-1.707.649-1.737.647-9.574-2.463-12.147-12.09-12.166-12.158-.001-.03-.07-1.17.647-1.748l1.76-1.408c1.045-.8 1.633-2.63.647-4.385-.514-.908-1.509-2.52-2.263-3.546h-.004a68.716 68.716 0 0 0 -1.612-2.043c-.277-.342-.53-.655-.715-.878a18.833 18.833 0 0 0 -.22-.265c-.026-.032-.048-.054-.064-.072l-.019-.023a2.976 2.976 0 0 0 -1.793-1.048zm17.577 3.837c-.923-.065-1.753.627-1.82 1.518-.068.891.652 1.687 1.574 1.752 2.28.16 3.82.831 4.976 2.054v.004c1.18 1.246 1.717 2.668 1.672 4.613v.007c-.02.895.73 1.653 1.658 1.673h.041c.914 0 1.675-.721 1.696-1.605.062-2.672-.808-5.056-2.562-6.905-1.762-1.859-4.258-2.9-7.235-3.11z" fill="none" stroke="url(#a)" stroke-linecap="round" stroke-linejoin="round" stroke-width="1.8"/><g fill="#fff"><path d="m18.796 11.563-.007-.007-.01-.01-.016-.011-.05-.026zm-4.001 1.245c-.004.005-.005.022-.01.033l-.006.012.009-.033s.013-.02.007-.012zm-24.601-55.619-.007-.007-.01-.01-.016-.012-.05-.025zm-4.001 1.245c-.004.005-.005.022-.01.033-.003.004-.003.007-.007.011l.01-.033z"/><path d="m-9.874-50.374c-7.052 0-12.728 5.856-12.728 13.13v1c0-7.274 5.676-13.13 12.728-13.13h10.544c7.052 0 12.729 5.856 12.729 13.13v-1c0-7.274-5.677-13.13-12.729-13.13z" opacity=".1"/></g></svg>