<svg viewBox="0 0 48 48" xmlns="http://www.w3.org/2000/svg" xmlns:xlink="http://www.w3.org/1999/xlink"><linearGradient id="a" gradientUnits="userSpaceOnUse" x1="2.15768196" x2="44.27994676" y1="9.36153464" y2="39.76894464"><stop offset="0" stop-color="#0091ff"/><stop offset="1" stop-color="#50f"/></linearGradient><path d="m2.158 6.16-.8.8v1.601l.8.8h2.4v31.209l.801.799h2.4l35.209-32.809v-1.6l-.8-.801h-14.402l-.8.8v1.601l.8.8h2.4v1.6l-17.605 16.005v-17.604h2.4l.801-.8v-1.6l-.8-.801zm24.638 19.205-1.135.8-.538 1.601.601.8h1.731l1.135-.8.535-1.6-.597-.8m-5.883 4.8-.482 1.6h1.44l-3.04 8.004h4.8l.591-1.602h-1.39l3.04-8.002m1.92 0-.561 1.6h1.201l-3.04 8.004h4.082l.56-1.602h-.882l1.682-4.801h3.4l-2.282 6.401h4l.642-1.6h-.88l1.68-4.801h3.201l-2.241 6.401h4.195l.735-1.6h-1.118l2.271-6.402-1.281-1.6h-1.92l-1.6 1.6h-1.36l-1.362-1.6h-1.52l-1.52 1.6h-1.6l-1.44-1.6" fill="none" stroke="url(#a)" stroke-linecap="round" stroke-linejoin="round" stroke-width="1.601"/></svg>