<svg viewBox="0 0 48 48" xmlns="http://www.w3.org/2000/svg" xmlns:xlink="http://www.w3.org/1999/xlink"><linearGradient id="a" gradientUnits="userSpaceOnUse" x1="48.14480668" x2="1.93408614" y1="25.32390996" y2="25.61209892"><stop offset="0" stop-color="#007dff"/><stop offset="1" stop-color="#00ff63"/></linearGradient><path d="m24.745 3.944c1.41 5.128 2.794 10.26 4.15 15.402l4.028-14.99c4.86 14.811.007.326 4.861 14.811h5.687v-15.167zm-19.17 2.568-.003 14.553m0 0h7.57c2.033 5.72 0 0 3.85 10.666 2.464-9.257 4.976-18.51 7.398-27.78l-1.465.003-17.024.083 16.076-.081-16.402.042-.013 17.066m.01 5.967-.005 17.064h11.368l-5.688-17.065h-5.675m19.004-9.61v.034c-2.37 8.861-4.984 17.682-6.918 26.657h25.818v-18.956h-7.391c-3.024-6.813-.195 0-3.158-6.785-1.34 5.037-2.695 10.073-4.03 15.11a2091.012 2091.012 0 0 0 -4.321-16.06z" fill="none" stroke="url(#a)" stroke-linecap="round" stroke-linejoin="round" stroke-width="1.8"/></svg>