<svg height="48" width="48" xmlns="http://www.w3.org/2000/svg" xmlns:xlink="http://www.w3.org/1999/xlink"><linearGradient id="a" gradientUnits="userSpaceOnUse" x1="61.605944" x2="104.599515" y1="29.33997" y2="29.33997"><stop offset="0" stop-color="#ff8500"/><stop offset="1" stop-color="#f06"/></linearGradient><path d="m97.495669 9.9280584c-5.163836.0315838-7.177709 7.0703616-4.387529 10.8142056 1.333286 5.366048-5.750774 11.308672-10.360843 7.162415-5.332998-4.223418-5.70111-12.028043-10.727723-16.441539-2.937852-2.7283325-8.144911-1.318374-9.105136 2.627754-1.322002 5.17878 3.431262 9.085537 5.137711 13.486258 3.808313 7.082184 7.148007 14.705946 12.553583 20.704222 4.142593 1.922272 8.183066-2.071401 9.231404-5.854996 4.558879-9.047175 11.103244-17.342622 13.660674-27.251787-.39441-2.8801-2.98448-5.471886-6.002141-5.2465326z" fill="none" stroke="url(#a)" stroke-linecap="round" stroke-linejoin="round" stroke-width="1.8" transform="translate(-58.169492 -4.364407)"/></svg>