<svg height="48" width="48" xmlns="http://www.w3.org/2000/svg" xmlns:xlink="http://www.w3.org/1999/xlink"><linearGradient id="a"><stop offset="0" stop-color="#f10"/><stop offset="1" stop-color="#ff115a"/></linearGradient><linearGradient gradientUnits="userSpaceOnUse" x1="-51.221" x2="-8.466" xlink:href="#a" y1="57.265" y2="90.64"/><linearGradient id="b" gradientUnits="userSpaceOnUse" x1="-53.333" x2="-5.72" xlink:href="#a" y1="76.276" y2="76.276"/><g fill="none" stroke="url(#b)" stroke-width="2.077" transform="matrix(.96289 0 0 .96289 52.531 -48.761)"><path d="m-32.6 96.158c-.968-.334-16.449-8.52-18.252-9.651-1.04-.653-1.66-1.492-1.66-2.25 0-1.156.993-1.78 6.026-3.792 2.54-1.015 4.738-1.845 4.882-1.844.366.001.333.348-.18 1.866-.379 1.123-.405 1.405-.181 1.946 1.159 2.799 8.644 4.859 15.21 4.185 4.116-.423 7.538-1.666 9.027-3.281.962-1.044 1.01-1.412.418-3.134-.505-1.468-.513-1.58-.106-1.58.732 0 9.477 3.68 10.15 4.27.874.769.965 1.839.231 2.739-.534.655-17.462 9.865-19.32 10.51-1.515.528-4.742.536-6.246.016z"/><path d="m-31.5 79.562c-3.253-.29-6.324-1.656-7.19-3.196l-.408-.727 1.184-3.356c.72-2.038 1.28-3.356 1.43-3.357.135-.002.448.239.696.533.882 1.048 3.804 1.894 6.539 1.894 2.704 0 5.637-.925 6.46-2.036.235-.32.52-.58.631-.58.112 0 .737 1.509 1.39 3.354 1.355 3.829 1.358 3.985.127 5.165-1.824 1.748-6.352 2.71-10.86 2.306zm-.23-14.273c-1.38-.334-2.742-1.208-2.813-1.804-.03-.259.41-1.77.978-3.357 1.194-3.335 1.52-3.755 3.183-4.1 1.818-.378 3.832.243 4.285 1.32.174.378.292.608.346.734.052.155.493 1.404.98 2.776 1.04 2.924 1.017 3.099-.497 3.837-1.76.858-4.38 1.099-6.462.594z"/></g></svg>