<svg viewBox="0 0 48 48" xmlns="http://www.w3.org/2000/svg" xmlns:xlink="http://www.w3.org/1999/xlink"><linearGradient id="a" gradientUnits="userSpaceOnUse" x1="19.98320845" x2="30.3039976" y1="30.57913225" y2="17.8500617"><stop offset="0" stop-color="#0ebefc"/><stop offset="1" stop-color="#0084ff"/></linearGradient><linearGradient id="b" gradientUnits="userSpaceOnUse" x1="5.50312595" x2="37.6462905" y1="28.06383385" y2="28.06383385"><stop offset="0" stop-color="#ffbf00"/><stop offset="1" stop-color="#fc0e0e"/></linearGradient><g fill="none" stroke-linecap="round" stroke-linejoin="round" stroke-width="3"><path d="m9.69 13.208a2.965 2.965 0 0 0 -2.971 2.97v23.77a2.965 2.965 0 0 0 2.97 2.971h23.77a2.965 2.965 0 0 0 2.97-2.971v-23.77a2.965 2.965 0 0 0 -2.97-2.97z" stroke="url(#b)"/><path d="m15.181 7.436a2.965 2.965 0 0 0 -2.97 2.971v23.77a2.965 2.965 0 0 0 2.97 2.97h23.77a2.965 2.965 0 0 0 2.97-2.97v-23.77a2.965 2.965 0 0 0 -2.97-2.97h-23.771" stroke="url(#a)"/><path d="m19.249 13.208h-9.88" stroke="url(#b)"/></g></svg>