<svg viewBox="0 0 48 48" xmlns="http://www.w3.org/2000/svg" xmlns:xlink="http://www.w3.org/1999/xlink"><linearGradient id="a" gradientUnits="userSpaceOnUse" x1="14.86026724" x2="32.05851816" y1="8.92957291" y2="25.20338805"><stop offset="0" stop-color="#00e1ff"/><stop offset="1" stop-color="#0063ff"/></linearGradient><linearGradient id="b" gradientUnits="userSpaceOnUse" x1=".071" x2="46.502" xlink:href="#d" y1="38.568" y2="38.568"/><linearGradient id="c" gradientUnits="userSpaceOnUse" x1="10.473" x2="35.473" xlink:href="#d" y1="33.761" y2="33.761"/><linearGradient id="d"><stop offset="0" stop-color="#ffbf00"/><stop offset="1" stop-color="#fc0e0e"/></linearGradient><g fill="none"><g stroke="url(#c)" stroke-opacity=".997" stroke-width="2" transform="translate(.814 .11)"><path d="m23.186 32.89v-3.39" stroke-linecap="round" stroke-linejoin="round"/><path d="m10.473 38.647h8m10 0h7"/></g><g stroke="url(#b)" stroke-opacity=".992" stroke-width="2" transform="translate(.814 .11)"><circle cx="6.008" cy="38.568" r="4.937"/><circle cx="23.287" cy="38.568" r="4.937"/><circle cx="40.565" cy="38.568" r="4.937"/></g><path d="m14.141 6.03a2.406 2.406 0 0 0 -2.41 2.41v18.292a2.406 2.406 0 0 0 2.41 2.41h18.291a2.406 2.406 0 0 0 2.411-2.41v-18.292a2.406 2.406 0 0 0 -2.411-2.411zm2.842 5.253h12.607v12.607h-12.607z" stroke="url(#a)" stroke-width="1.702" transform="translate(.814 .11)"/></g></svg>