<svg viewBox="0 0 48 48" xmlns="http://www.w3.org/2000/svg" xmlns:xlink="http://www.w3.org/1999/xlink"><linearGradient id="a" gradientUnits="userSpaceOnUse" x1="24" x2="24" y1="2" y2="46"><stop offset="0" stop-color="#0df7f9"/><stop offset="1" stop-color="#0090ff"/></linearGradient><linearGradient id="b" gradientUnits="userSpaceOnUse" x1="1" x2="47" xlink:href="#a" y1="24" y2="24"/><linearGradient id="c" gradientUnits="userSpaceOnUse" x1="11" x2="37" xlink:href="#a" y1="24" y2="24"/><path d="m47 24a23 23 0 0 1 -23 23 23 23 0 0 1 -23-23 23 23 0 0 1 23-23 23 23 0 0 1 23 23z" fill="none" stroke="url(#b)" stroke-width="1.5"/><path d="m11 11v26h26v-26zm2 3h2l2 7 2-7h2l2 7 2-7h2l-3 11h-2l-2-7-2 7h-2zm18 0c1.565 0 2.52.52 3.656 1.207l-1.111 1.52c-.965-.662-1.642-.727-2.545-.727s-2 .441-2 .982v.188c0 .723.694 1.06 2.5 1.54 2.167.603 3.457 1.29 3.457 2.938v.059c0 1.862-1.67 3.293-3.957 3.293-1.625-.06-3.043-.672-4.307-1.816l1.307-1.416c.963.782 1.796 1.232 3 1.232.963 0 2-.45 2-1.111v-.06c0-.603-.676-1.04-2.482-1.52-2.167-.542-3.565-1.78-3.565-3.174v-.06c0-1.988 1.881-3.075 4.047-3.075zm-18 18h10v2h-10z" fill="url(#c)"/></svg>