<svg viewBox="0 0 48 48" xmlns="http://www.w3.org/2000/svg" xmlns:xlink="http://www.w3.org/1999/xlink"><linearGradient id="a" gradientUnits="userSpaceOnUse" x1="10.5" x2="37.496" y1="24" y2="24"><stop offset="0" stop-color="#8e0317"/><stop offset="1" stop-color="#ff0046"/></linearGradient><g stroke-linecap="round" stroke-linejoin="round"><g fill="none" stroke-width="1.423"><path d="m24 2.182c-12.05 0-21.818 9.768-21.818 21.818h21.818z" stroke="#ff003a"/><path d="m24 2.182v21.818h21.818c0-12.05-9.768-21.818-21.818-21.818z" stroke="#6cff00"/><path d="m24 24v21.818c12.05 0 21.818-9.768 21.818-21.818z" stroke="#f8b500"/><path d="m2.182 24c0 12.05 9.768 21.818 21.818 21.818v-21.818z" stroke="#006bff"/></g><path d="m32.395 12c-1.037 0-2.394.639-2.394 2 0 1 1.63 1 3.36 1 1.454 0 1.942 3.133 1.575 4.797-.363 1.664-5.32 5.204-12.969 1.664-7.195-3.234-9.482-.165-10.967 1.154.688 6.426 6.257 13.385 13 13.385 7.188 0 12.994-7.95 12.996-15 .001-4-1.643-6.747-3.996-9h-.606zm-3.894 1a.5.5 0 0 0 -.5.5.5.5 0 0 0 .5.5.5.5 0 0 0 .5-.5.5.5 0 0 0 -.5-.5zm1.168 2.816a.723.723 0 0 0 -.731.711c0 .395.329.715.73.715.4 0 .727-.32.727-.715a.722.722 0 0 0 -.726-.71z" fill="url(#a)" stroke="url(#a)"/></g></svg>