/* XPM */
static char * bluefish_xpm[] = {
"32 32 207 2",
"  	c None",
". 	c #00E6E6",
"+ 	c #00B1B1",
"@ 	c #00ADAD",
"# 	c #00BEBE",
"$ 	c #00D5D5",
"% 	c #00D3D3",
"& 	c #00B6B6",
"* 	c #00C5C5",
"= 	c #00D6D6",
"- 	c #00D0D0",
"; 	c #00B2B2",
"> 	c #00B5B5",
", 	c #001616",
"' 	c #000A0A",
") 	c #000909",
"! 	c #002121",
"~ 	c #007676",
"{ 	c #008888",
"] 	c #008787",
"^ 	c #008484",
"/ 	c #003333",
"( 	c #000808",
"_ 	c #000D0D",
": 	c #006262",
"< 	c #008989",
"[ 	c #005656",
"} 	c #00B4B4",
"| 	c #000000",
"1 	c #003939",
"2 	c #007F7F",
"3 	c #008282",
"4 	c #008383",
"5 	c #004242",
"6 	c #000E0E",
"7 	c #006E6E",
"8 	c #006D6D",
"9 	c #001414",
"0 	c #000C0C",
"a 	c #00B0B0",
"b 	c #005D5D",
"c 	c #005A5A",
"d 	c #000202",
"e 	c #002020",
"f 	c #007B7B",
"g 	c #007E7E",
"h 	c #003737",
"i 	c #005757",
"j 	c #000606",
"k 	c #00B7B7",
"l 	c #001515",
"m 	c #000101",
"n 	c #004444",
"o 	c #007A7A",
"p 	c #001E1E",
"q 	c #005151",
"r 	c #007272",
"s 	c #001A1A",
"t 	c #00C8C8",
"u 	c #006464",
"v 	c #002626",
"w 	c #006565",
"x 	c #008181",
"y 	c #003434",
"z 	c #006666",
"A 	c #008080",
"B 	c #003B3B",
"C 	c #00CDCD",
"D 	c #00CACA",
"E 	c #004A4A",
"F 	c #001010",
"G 	c #002929",
"H 	c #004C4C",
"I 	c #001717",
"J 	c #000303",
"K 	c #002A2A",
"L 	c #006A6A",
"M 	c #00D8D8",
"N 	c #006969",
"O 	c #002C2C",
"P 	c #000404",
"Q 	c #004D4D",
"R 	c #006161",
"S 	c #004343",
"T 	c #00A3A3",
"U 	c #00D7D7",
"V 	c #007C7C",
"W 	c #005050",
"X 	c #001313",
"Y 	c #003232",
"Z 	c #005454",
"` 	c #006F6F",
" .	c #007878",
"..	c #006868",
"+.	c #003535",
"@.	c #004646",
"#.	c #000B0B",
"$.	c #009292",
"%.	c #00AFAF",
"&.	c #00ACAC",
"*.	c #008585",
"=.	c #008A8A",
"-.	c #009797",
";.	c #00A2A2",
">.	c #009090",
",.	c #005C5C",
"'.	c #004949",
").	c #004848",
"!.	c #005E5E",
"~.	c #007777",
"{.	c #00A8A8",
"].	c #009393",
"^.	c #00CCCC",
"/.	c #004747",
"(.	c #005B5B",
"_.	c #003E3E",
":.	c #002424",
"<.	c #000707",
"[.	c #002222",
"}.	c #004141",
"|.	c #007474",
"1.	c #008E8E",
"2.	c #008C8C",
"3.	c #00C0C0",
"4.	c #00BFBF",
"5.	c #00DDDD",
"6.	c #00BABA",
"7.	c #007575",
"8.	c #009898",
"9.	c #00BDBD",
"0.	c #00C3C3",
"a.	c #003A3A",
"b.	c #003030",
"c.	c #001F1F",
"d.	c #002B2B",
"e.	c #005858",
"f.	c #007171",
"g.	c #008B8B",
"h.	c #00A1A1",
"i.	c #001818",
"j.	c #00A0A0",
"k.	c #007979",
"l.	c #00C4C4",
"m.	c #005959",
"n.	c #000F0F",
"o.	c #003C3C",
"p.	c #005555",
"q.	c #009595",
"r.	c #00EDED",
"s.	c #00DCDC",
"t.	c #009E9E",
"u.	c #004B4B",
"v.	c #00A4A4",
"w.	c #005353",
"x.	c #006C6C",
"y.	c #008686",
"z.	c #006060",
"A.	c #000505",
"B.	c #00ECEC",
"C.	c #00AEAE",
"D.	c #00A7A7",
"E.	c #005F5F",
"F.	c #001D1D",
"G.	c #006B6B",
"H.	c #002727",
"I.	c #00E1E1",
"J.	c #00EBEB",
"K.	c #00C7C7",
"L.	c #008F8F",
"M.	c #009999",
"N.	c #004E4E",
"O.	c #001B1B",
"P.	c #00DBDB",
"Q.	c #00B8B8",
"R.	c #006363",
"S.	c #003131",
"T.	c #004040",
"U.	c #00CFCF",
"V.	c #00C1C1",
"W.	c #009494",
"X.	c #002E2E",
"Y.	c #009A9A",
"Z.	c #008D8D",
"`.	c #004545",
" +	c #005252",
".+	c #007070",
"++	c #002F2F",
"@+	c #001212",
"#+	c #00AAAA",
"$+	c #002828",
"%+	c #00ABAB",
"&+	c #006767",
"*+	c #007373",
"=+	c #003F3F",
"-+	c #007D7D",
";+	c #001C1C",
">+	c #001111",
",+	c #003838",
"'+	c #002525",
")+	c #002D2D",
"!+	c #00C6C6",
"~+	c #003636",
"{+	c #001919",
"]+	c #00E9E9",
"^+	c #00CECE",
"/+	c #00CBCB",
"(+	c #00E8E8",
". + @ @ @ @ # $ $ $ $ $ % & @ @ @ @ @ * = $ $ $ = - ; @ @ @ + . ",
"> , ' ' ' ) ! ~ { ] ] ] ^ / ( ' ' ' _ : < ] ] ] { [ _ ' ' ' , } ",
"; _ | | | | | 1 2 3 3 3 4 5 | | | | 6 7 4 3 3 4 8 9 | | | | 0 a ",
"; _ | | | | | ( b 4 3 3 ^ c d | | | e f 3 3 3 g / | | | | | 0 + ",
"; _ | | | | | | e ~ 4 3 4 8 0 | | | h 3 3 3 4 i j | | | | | 0 a ",
"k l | | | | | | m n 3 3 4 o p | | | q ^ 3 4 r s | | | | | | _ ; ",
"t u v d | | | | | _ w 4 3 x y | | ( z ^ 3 A B | | | | | | ) n C ",
"D ^ o E F | | | | | G f 4 ^ H | | I ~ 4 4 b ) | | | | J K L { M ",
"D 3 4 3 N O P | | | d Q x 3 R j | O 2 4 ~ e | | m l S f + T < U ",
"D 3 3 3 4 V W X 0 Y Z ` 3  ...+.l @.^ 3 5 m | #.1 8 $.%.&.^ ] U ",
"D 3 3 3 3 3 *.=.-.;.>.] *. .L ,.'.).u !.0 | ( 1 !.~.>.{.].x { U ",
"D ^ 4 4 x < k ^.T z [ S /.7 L (.Q _./ :.<.j [.}.c |.1.T 2.3 < M ",
"3.,.L  .^ 4.5.6.7.8.9.0.!.a...(.Q _.b.[.X c.d._.e.f.g.h.{ ~ ` ^.",
"; 6 ' i.o . 5.j.< 2 k.l.D / m.,.Q _.b.[.X n.[.o.p.` < q.o., 9 + ",
"; _ | <.@ r.s.t.=.m.u.v.= }.w.,.Q _.b.[.X _ c.1 w.x.y.z.A.| 0 + ",
"; _ | p U B.s.C.=.] y.# D.h E.(.H _.b.[.X 0 F.h W G.!.0 | | 0 + ",
"; _ | H.I.J.s.K.L.] M.1.N.p.N (.H _.b.[.X ' s y N.z.! | | | 0 + ",
"; _ | O.$ r.P.C Q.1.f.R.8 ~ N (.H _.b.! X ( i.S.u.,.:.j | | 0 a ",
"> H.Y T.2 U s.U.V.; ;.W.*.~ N (.H _.b.! X j n.X.).: x.z.Q y G & ",
"K.f x f G }.A t.;.Y.Z.x o 7.N c H _.b.! X P I [ m.u k.y.g.y.A % ",
"D 4 3 4 : 1 `. +: .+o 3 3 ~.N c H _.++! @+P @+[ V 2 A y.2.] ] U ",
"D 3 3 3 4 3 ].#+C.{.j.W.*.~.N c H _.X.H.l | | A.S.8 4 3 x x { U ",
"D 3 3 4 x R $+E q.%+T W.*.~.N (.H _.).&+q A.| | | X N.f 4 3 { U ",
"D 4 4 |._.' | | n.B L ] g *+b =+:.X.o ^ -+++| | | | J K &+3 < U ",
"D g m.;+m | | | | m /.2 2 g o.| | 9 |.4 4 L >+| | | | | n./.g M ",
"V.,+j | | | | | | '+k.4 4 -+'+| | <.u ^ 3 3 E d | | | | | d )+!+",
"; _ | | | | | | 0 R.4 3 4 r >+| | | N.^ 3 4 k.v | | | | | | 0 + ",
"; _ | | | | | | }.x 3 3 ^ z.A.| | | ~+3 3 3 4 R.0 | | | | | 0 + ",
"; _ | | | | | c.~ 4 3 3 4 '.| | | | e f 3 3 3 x }.| | | | | 0 + ",
"; _ | | | | ( b 4 3 3 3 A ++| | | | _ 7 4 3 3 4 7.p | | | | 0 a ",
"k s 6 6 6 _ =+3 *.^ ^ *.V v _ 6 6 6 >+: y.^ ^ ^ y.!.X 6 6 6 {+> ",
"]+Q.> > > > !+U.^+^+^+^+/+Q.> > > > > l.U.^+^+^+^+/+Q.> > > Q.(+"};
