/* XPM */
static char * ccc_large_xpm[] = {
"32 32 181 2",
"  	c None",
". 	c #00E6E6",
"+ 	c #00B1B1",
"@ 	c #00ADAD",
"# 	c #00B5B5",
"$ 	c #001616",
"% 	c #000A0A",
"& 	c #00B4B4",
"* 	c #00B2B2",
"= 	c #000D0D",
"- 	c #000000",
"; 	c #000C0C",
"> 	c #00B0B0",
", 	c #001212",
"' 	c #002222",
") 	c #002424",
"! 	c #002323",
"~ 	c #001717",
"{ 	c #000101",
"] 	c #000E0E",
"^ 	c #002020",
"/ 	c #001F1F",
"( 	c #001E1E",
"_ 	c #001D1D",
": 	c #001C1C",
"< 	c #001818",
"[ 	c #000F0F",
"} 	c #001919",
"| 	c #009595",
"1 	c #00E7E7",
"2 	c #00E5E5",
"3 	c #00E3E3",
"4 	c #00E1E1",
"5 	c #00DFDF",
"6 	c #00DEDE",
"7 	c #00C3C3",
"8 	c #003D3D",
"9 	c #002828",
"0 	c #00AFAF",
"a 	c #00D2D2",
"b 	c #00CECE",
"c 	c #00CCCC",
"d 	c #00CACA",
"e 	c #00C8C8",
"f 	c #00C6C6",
"g 	c #00C4C4",
"h 	c #00C2C2",
"i 	c #00C0C0",
"j 	c #00BEBE",
"k 	c #00BCBC",
"l 	c #00BABA",
"m 	c #00B7B7",
"n 	c #009A9A",
"o 	c #000B0B",
"p 	c #00B6B6",
"q 	c #00FEFE",
"r 	c #00FCFC",
"s 	c #00FAFA",
"t 	c #00F7F7",
"u 	c #00F4F4",
"v 	c #00CBCB",
"w 	c #003C3C",
"x 	c #004242",
"y 	c #00E8E8",
"z 	c #00DCDC",
"A 	c #00DADA",
"B 	c #00D7D7",
"C 	c #00D5D5",
"D 	c #00D3D3",
"E 	c #00D1D1",
"F 	c #00ABAB",
"G 	c #002121",
"H 	c #008E8E",
"I 	c #00A0A0",
"J 	c #009D9D",
"K 	c #009C9C",
"L 	c #00F2F2",
"M 	c #00F1F1",
"N 	c #00C9C9",
"O 	c #004040",
"P 	c #009191",
"Q 	c #009393",
"R 	c #009090",
"S 	c #008D8D",
"T 	c #008B8B",
"U 	c #008989",
"V 	c #008888",
"W 	c #008686",
"X 	c #008787",
"Y 	c #008181",
"Z 	c #006B6B",
"` 	c #000707",
" .	c #003131",
"..	c #003737",
"+.	c #003333",
"@.	c #003939",
"#.	c #00BBBB",
"$.	c #00EFEF",
"%.	c #00C7C7",
"&.	c #003B3B",
"*.	c #003232",
"=.	c #002525",
"-.	c #000202",
";.	c #003030",
">.	c #002F2F",
",.	c #002626",
"'.	c #001010",
").	c #00EAEA",
"!.	c #00E0E0",
"~.	c #004949",
"{.	c #00EDED",
"].	c #00C5C5",
"^.	c #003A3A",
"/.	c #006C6C",
"(.	c #005050",
"_.	c #00BDBD",
":.	c #009E9E",
"<.	c #002727",
"[.	c #00FBFB",
"}.	c #00F0F0",
"|.	c #005151",
"1.	c #002929",
"2.	c #00B9B9",
"3.	c #00ECEC",
"4.	c #00EBEB",
"5.	c #007575",
"6.	c #00DBDB",
"7.	c #00D9D9",
"8.	c #00A8A8",
"9.	c #005656",
"0.	c #00A9A9",
"a.	c #00E4E4",
"b.	c #006262",
"c.	c #007474",
"d.	c #00F5F5",
"e.	c #00DDDD",
"f.	c #005353",
"g.	c #003838",
"h.	c #00F6F6",
"i.	c #00F8F8",
"j.	c #00F3F3",
"k.	c #003535",
"l.	c #007373",
"m.	c #00C1C1",
"n.	c #00A6A6",
"o.	c #00B3B3",
"p.	c #00E2E2",
"q.	c #005757",
"r.	c #00CFCF",
"s.	c #004848",
"t.	c #009898",
"u.	c #004D4D",
"v.	c #000505",
"w.	c #001111",
"x.	c #008F8F",
"y.	c #009292",
"z.	c #009494",
"A.	c #009797",
"B.	c #009999",
"C.	c #008282",
"D.	c #008484",
"E.	c #008585",
"F.	c #007979",
"G.	c #007A7A",
"H.	c #007B7B",
"I.	c #007C7C",
"J.	c #00BFBF",
"K.	c #007070",
"L.	c #007171",
"M.	c #007272",
"N.	c #006868",
"O.	c #006969",
"P.	c #006A6A",
"Q.	c #005F5F",
"R.	c #006060",
"S.	c #006161",
"T.	c #005B5B",
"U.	c #005A5A",
"V.	c #005C5C",
"W.	c #005D5D",
"X.	c #00B8B8",
". + @ @ @ @ @ @ @ @ @ @ @ @ @ @ @ @ @ @ @ @ @ @ @ @ @ @ @ @ + . ",
"# $ % % % % % % % % % % % % % % % % % % % % % % % % % % % % $ & ",
"* = - - - - - - - - - - - - - - - - - - - - - - - - - - - - ; > ",
"* = - - - - - - - - - - - - - - - - - - - - - - - - - - - - ; + ",
"* , ' ) ) ! ! ! ! ~ { - ] ' ^ ^ ^ / / / ( ( ( ( _ _ _ : : < [ > ",
"+ } | 1 2 3 4 5 6 7 8 - 9 0 a b c d e f g h i j k l m # # n ^ 0 ",
"* o ( p q q r s t u v w - x d y 2 3 4 6 z A B C D E b c v F G 0 ",
"* = - ^ H I J K e L M N w - O P Q P R S T U U U V W V X Y Z < > ",
"* = - - `  ...+.@.#.M $.%.&.- - - - - < *.*.=.-.- - , ;.>.,.'.> ",
"* = - - ) C ).!.~.,.#.$.{.].^.- - - - /.c v J ; - - (._.k :./ 0 ",
"* = - - <.2 [.}.|.- 1.2.3.4.7 ^.- - - 5.6.7.8.= - - 9.d N 0.^ 0 ",
"* = - - <.a.s }.b.< } ..m ).y h @.- - c.A 7.8.= - - 9.N e 8.^ 0 ",
"* = - - <.a.s d.e.a E > f.& y . i g.- c.A 7.8.= - - 9.N e 8.^ 0 ",
"* = - - <.2 s h.i.t d.j._.9.& . a.j k.l.A 7.8.= - - 9.N e 8.^ 0 ",
"* = - - <.2 s u m.8.8.n.n.Z >.o.a.p.l J 7.7.8.= - - 9.N e 8.^ 0 ",
"* = - - <.2 [.}.|.- - - - -.- 1.* p.6 7.7.7.8.= - - 9.N e 8.^ 0 ",
"* = - - <.. r M |.- - - - - - - 1.+ !.e.A A 0.= - - q.v d 0.G 0 ",
"* = - - ! r.3 7.s.- - - - - - - - 1.8.e ].].t.o - - u.m p t.( 0 ",
"* = - - v.^ ! ' % - - - - - - - - - w./ / / ~ { - - o : : ~ ] > ",
"* = - - - - - - - - - - - - - - - - - - - - - - - - - - - - ; + ",
"* = - - - - - - - - - - - - - - - - - - - - - - - - - - - - ; + ",
"& 1.^ ^ ^ ^ ^ ^ ^ ^ ^ ^ ^ G G ^ ^ ^ ^ ^ ^ ^ ^ G G G G G G ^ 1.o.",
"%.x.y.y.y.y.y.y.y.y.y.y.y.y.y.Q Q Q Q Q Q Q Q Q Q Q Q Q Q z.P e ",
"%.z.A.A.A.A.A.t.t.t.t.t.t.t.t.t.t.t.t.t.B.B.B.B.B.B.B.B.B.B.A.N ",
"g T S S S S S S S S H H H H H H H H H H H H H x.x.x.x.x.x.x.S ].",
"m.C.D.D.D.D.E.E.E.E.E.E.E.E.E.E.E.E.E.W W W W W W W W W W W D.h ",
"j F.G.G.G.G.G.H.H.H.H.H.H.H.H.H.H.H.H.I.I.I.I.I.I.I.I.I.I.I.H.J.",
"k K.L.L.L.L.L.L.L.L.L.M.M.M.M.M.M.M.M.M.M.M.M.M.M.M.l.l.l.l.M.k ",
"2.N.N.N.N.N.O.O.O.O.O.O.O.O.O.O.O.O.O.P.P.P.P.P.P.P.P.P.P.P.P.2.",
"p Q.Q.Q.Q.Q.Q.Q.Q.Q.Q.Q.R.R.R.R.R.R.R.R.R.R.R.R.R.S.S.S.S.S.S.p ",
"p T.U.U.U.T.T.T.T.T.T.T.T.T.T.T.T.T.V.V.V.V.V.V.V.V.V.V.V.V.W.p ",
"a.l X.X.X.2.2.2.2.2.2.2.2.2.2.2.2.2.2.2.2.2.2.2.2.2.2.2.2.2.l 3 "};
