/* XPM */
static char * control_center2_xpm[] = {
"32 32 212 2",
"  	c None",
". 	c #00E6E6",
"+ 	c #00B1B1",
"@ 	c #00ADAD",
"# 	c #00B5B5",
"$ 	c #001616",
"% 	c #000A0A",
"& 	c #000B0B",
"* 	c #000C0C",
"= 	c #000909",
"- 	c #000D0D",
"; 	c #00B4B4",
"> 	c #00B2B2",
", 	c #000000",
"' 	c #000101",
") 	c #000303",
"! 	c #000606",
"~ 	c #001F1F",
"{ 	c #003B3B",
"] 	c #004444",
"^ 	c #013434",
"/ 	c #011717",
"( 	c #010707",
"_ 	c #010808",
": 	c #000404",
"< 	c #00B0B0",
"[ 	c #000202",
"} 	c #000505",
"| 	c #010E0E",
"1 	c #018181",
"2 	c #00D2D2",
"3 	c #00CECE",
"4 	c #00C1C1",
"5 	c #00A2A2",
"6 	c #016363",
"7 	c #012020",
"8 	c #010F0F",
"9 	c #011111",
"0 	c #011010",
"a 	c #010D0D",
"b 	c #010A0A",
"c 	c #010909",
"d 	c #012D2D",
"e 	c #00D1D1",
"f 	c #00C8C8",
"g 	c #00C2C2",
"h 	c #00B7B7",
"i 	c #008787",
"j 	c #012F2F",
"k 	c #011919",
"l 	c #011A1A",
"m 	c #011818",
"n 	c #011515",
"o 	c #000E0E",
"p 	c #011414",
"q 	c #011C1C",
"r 	c #009D9D",
"s 	c #00B8B8",
"t 	c #00ABAB",
"u 	c #007C7C",
"v 	c #012A2A",
"w 	c #012222",
"x 	c #011D1D",
"y 	c #011313",
"z 	c #011212",
"A 	c #012525",
"B 	c #013B3B",
"C 	c #00A5A5",
"D 	c #00B3B3",
"E 	c #00A9A9",
"F 	c #009999",
"G 	c #005656",
"H 	c #012727",
"I 	c #012929",
"J 	c #012828",
"K 	c #012424",
"L 	c #002A2A",
"M 	c #015F5F",
"N 	c #011E1E",
"O 	c #002929",
"P 	c #006060",
"Q 	c #00AAAA",
"R 	c #009A9A",
"S 	c #009494",
"T 	c #007373",
"U 	c #002F2F",
"V 	c #002C2C",
"W 	c #002D2D",
"X 	c #002B2B",
"Y 	c #005B5B",
"Z 	c #016E6E",
"` 	c #006262",
" .	c #009393",
"..	c #008C8C",
"+.	c #007979",
"@.	c #003737",
"#.	c #002E2E",
"$.	c #012121",
"%.	c #006767",
"&.	c #00DBDB",
"*.	c #00C5C5",
"=.	c #016B6B",
"-.	c #008B8B",
";.	c #008484",
">.	c #007575",
",.	c #003A3A",
"'.	c #000F0F",
").	c #015C5C",
"!.	c #00C9C9",
"~.	c #00B6B6",
"{.	c #008383",
"].	c #006C6C",
"^.	c #003535",
"/.	c #012323",
"(.	c #013838",
"_.	c #00B9B9",
":.	c #005E5E",
"<.	c #011B1B",
"[.	c #001010",
"}.	c #009696",
"|.	c #00BCBC",
"1.	c #007474",
"2.	c #006161",
"3.	c #004E4E",
"4.	c #014444",
"5.	c #006D6D",
"6.	c #005151",
"7.	c #002727",
"8.	c #002525",
"9.	c #015A5A",
"0.	c #009E9E",
"a.	c #009C9C",
"b.	c #006363",
"c.	c #006F6F",
"d.	c #008080",
"e.	c #008181",
"f.	c #005C5C",
"g.	c #001E1E",
"h.	c #014A4A",
"i.	c #007D7D",
"j.	c #008888",
"k.	c #006A6A",
"l.	c #003434",
"m.	c #001D1D",
"n.	c #012E2E",
"o.	c #004343",
"p.	c #005050",
"q.	c #004B4B",
"r.	c #004D4D",
"s.	c #003838",
"t.	c #001111",
"u.	c #006666",
"v.	c #005454",
"w.	c #004747",
"x.	c #002020",
"y.	c #001212",
"z.	c #004545",
"A.	c #007B7B",
"B.	c #007070",
"C.	c #004949",
"D.	c #003C3C",
"E.	c #002121",
"F.	c #001414",
"G.	c #007777",
"H.	c #007272",
"I.	c #006464",
"J.	c #005757",
"K.	c #004A4A",
"L.	c #003D3D",
"M.	c #003030",
"N.	c #002323",
"O.	c #001515",
"P.	c #001B1B",
"Q.	c #005959",
"R.	c #003E3E",
"S.	c #003131",
"T.	c #002424",
"U.	c #008282",
"V.	c #005A5A",
"W.	c #004040",
"X.	c #003232",
"Y.	c #001818",
"Z.	c #006868",
"`.	c #004141",
" +	c #001919",
".+	c #007E7E",
"++	c #008585",
"@+	c #005D5D",
"#+	c #004F4F",
"$+	c #004242",
"%+	c #002828",
"&+	c #011F1F",
"*+	c #007F7F",
"=+	c #008686",
"-+	c #007878",
";+	c #006B6B",
">+	c #003636",
",+	c #010C0C",
"'+	c #012626",
")+	c #014242",
"!+	c #005F5F",
"~+	c #005252",
"{+	c #013E3E",
"]+	c #008989",
"^+	c #006E6E",
"/+	c #005353",
"(+	c #003333",
"_+	c #013939",
":+	c #002626",
"<+	c #001A1A",
"[+	c #00E9E9",
"}+	c #00E8E8",
". + @ @ @ @ @ @ @ @ @ @ @ @ @ @ @ @ @ @ @ @ @ @ @ @ @ @ @ @ + . ",
"# $ % % & & * & % = & * - - - - - - - - - - - - * * & & % % $ ; ",
"> - , , ' ) ! ~ { ] ^ / ( ( _ _ _ _ _ _ _ _ _ ( ! : ) ' , , * < ",
"> - , [ } ( | 1 2 3 4 5 6 7 8 9 9 9 9 9 9 0 0 8 a b ( : [ , * + ",
"> - ' } c a 9 d 5 e f g h i j k l l l l l k k m n 9 a _ : ' * + ",
"> o ) _ a p l q ^ r 4 s + t u v w w w w w w w 7 x k y a ( ) - + ",
"> o } b z l 7 A A B C D E 5 F G H I I I I I J H K 7 k 9 b : - + ",
"> - L M k N A O L P Q Q 5 R S T U V W W V V V X J K N n a ! o + ",
"D & Y 2 Z w H L ` t t 5 R  ...+.@.W #.#.#.#.W W X H $.m 8 ( o + ",
"D & %.&.*.=.v ` t t 5 R  .-.;.>.,.W #.#.#.#.#.#.V J w k 0 _ '.+ ",
"D * ).e !.~.;.Q t 5 R  .-.{.u ].^.W #.#.#.#.#.#.V I /.l 9 _ '.+ ",
"D o (.4 4 _.> Q 5 R  .-.{.u >.:.#.#.#.#.#.#.#.#.W I /.<.9 _ '.+ ",
"D [.9 }.|.+ E 5 R  .-.;.u 1.].2.3.#.#.U #.#.#.#.W I /.<.9 _ '.+ ",
"D [.( 4.t t 5 R  .-.;.u 1.5.` T u 6.7.8.#.#.#.#.W I /.<.9 _ '.+ ",
"D [.c z 9.0.a. .-.;.u >.].b.c.d.e.f.$ = g.#.#.#.W I /.<.9 c [.+ ",
"D [.c z q h.i.j.;.u T %.k.>.d.e.k.l.m.[.= g.#.#.W I /.<.9 c [.+ ",
"D [.c z <.w n.o.p.q.] ,.2.d.e.1.r.s.V ~ t.% g.#.W I /.<.9 c [.+ ",
"D [.c z <.K I X V V W W l.b.u u.v.w.,.W x.y.& g.W I /.<.9 c [.+ ",
"D [.c z <.K I W #.#.#.#.V z.A.B.b.G C.D.U E.F.* g.I /.<.9 _ [.+ ",
"D [.c z <.K I W #.#.#.#.W { G.d.H.I.J.K.L.M.N.O.- P./.<.9 _ '.+ ",
"D [.c z <.K I W #.#.#.#.#.W ] A.e.T u.Q.q.R.S.T.$ o m <.9 _ '.+ ",
"D [.c z <.K I W #.#.#.#.#.#.W ] u U.1.%.V.r.W.X.8.Y.o z 9 _ '.+ ",
"D [._ 9 <./.I V #.#.#.#.#.#.#.W z.i.;.>.Z.Y 3.`.l.7. +o a _ '.+ ",
"D [._ 0 k w J V W #.#.#.#.#.#.#.W z..+++G.k.@+#+$+^.%+P.'.( o + ",
"> '.( | / &+A O V V W W W W W W W X z.*+=+-+;+:.6.] >+O P.= o + ",
"> '.} ,+y <.$.'+J I I I I I I I I I J )+d.j.+.].!+~+z.s.O * - + ",
"> o ) c 8 n <.7 w /.K K K K K K K K K w {+d.]+A.^+P /+w.(+= * + ",
"> - [ } b 8 y / l <.<.<.<.q q q q q q <.l _+*+-.i.c.b./+:+' * + ",
"> - , ) } c ,+8 9 9 z z z y y y y y y z z 0 d ;+.+>.!+S.! , * + ",
"> - , , [ ) } ( _ c c c c c c c c c c c c c ( a &+N.t.[ , , * < ",
"h <+o o '.'.[.t.y.y.y.y.y.y.y.y.y.y.y.y.y.y.y.t.'.o o '.o o  +# ",
"[+s # # # # # # # # # # # # # # # # # # # # # # # # # # # # s }+"};
