/* XPM */
static char * gcolor2_xpm[] = {
"32 32 206 2",
"  	c None",
". 	c #00E6E6",
"+ 	c #00B1B1",
"@ 	c #00ADAD",
"# 	c #00B5B5",
"$ 	c #001616",
"% 	c #000A0A",
"& 	c #000B0B",
"* 	c #000C0C",
"= 	c #000D0D",
"- 	c #00B4B4",
"; 	c #00B2B2",
"> 	c #000000",
", 	c #000101",
"' 	c #000303",
") 	c #000404",
"! 	c #010606",
"~ 	c #010707",
"{ 	c #010808",
"] 	c #000606",
"^ 	c #00B0B0",
"/ 	c #000202",
"( 	c #000505",
"_ 	c #010A0A",
": 	c #010D0D",
"< 	c #010F0F",
"[ 	c #011010",
"} 	c #011111",
"| 	c #010909",
"1 	c #011212",
"2 	c #011515",
"3 	c #011818",
"4 	c #011919",
"5 	c #011A1A",
"6 	c #000E0E",
"7 	c #011414",
"8 	c #011E1E",
"9 	c #012020",
"0 	c #012222",
"a 	c #011D1D",
"b 	c #011313",
"c 	c #010B0B",
"d 	c #012525",
"e 	c #012727",
"f 	c #012828",
"g 	c #012929",
"h 	c #013535",
"i 	c #045151",
"j 	c #045050",
"k 	c #013131",
"l 	c #012424",
"m 	c #000F0F",
"n 	c #010E0E",
"o 	c #011616",
"p 	c #011F1F",
"q 	c #002929",
"r 	c #002B2B",
"s 	c #002C2C",
"t 	c #003232",
"u 	c #034343",
"v 	c #075252",
"w 	c #095B5B",
"x 	c #086B6B",
"y 	c #056F6F",
"z 	c #014B4B",
"A 	c #002D2D",
"B 	c #00B3B3",
"C 	c #001010",
"D 	c #012121",
"E 	c #003030",
"F 	c #023939",
"G 	c #063E3E",
"H 	c #093F3F",
"I 	c #094747",
"J 	c #095757",
"K 	c #086969",
"L 	c #077E7E",
"M 	c #058C8C",
"N 	c #027373",
"O 	c #003D3D",
"P 	c #012323",
"Q 	c #002E2E",
"R 	c #013232",
"S 	c #043333",
"T 	c #082B2B",
"U 	c #0A2C2C",
"V 	c #0A3939",
"W 	c #077D7D",
"X 	c #069292",
"Y 	c #05A8A8",
"Z 	c #03A2A2",
"` 	c #016464",
" .	c #011B1B",
"..	c #052828",
"+.	c #091818",
"@.	c #0A1F1F",
"#.	c #0A2B2B",
"$.	c #093939",
"%.	c #069191",
"&.	c #05A7A7",
"*.	c #04C1C1",
"=.	c #02CFCF",
"-.	c #008989",
";.	c #003131",
">.	c #014848",
",.	c #053A3A",
"'.	c #092525",
").	c #0A2A2A",
"!.	c #03B7B7",
"~.	c #01A6A6",
"{.	c #008484",
"].	c #003939",
"^.	c #005555",
"/.	c #006868",
"(.	c #035B5B",
"_.	c #074040",
":.	c #048F8F",
"<.	c #017474",
"[.	c #007171",
"}.	c #007A7A",
"|.	c #005454",
"1.	c #006969",
"2.	c #007575",
"3.	c #017878",
"4.	c #056363",
"5.	c #084F4F",
"6.	c #095656",
"7.	c #086A6A",
"8.	c #067575",
"9.	c #036262",
"0.	c #004F4F",
"a.	c #005C5C",
"b.	c #007676",
"c.	c #007F7F",
"d.	c #003A3A",
"e.	c #007474",
"f.	c #008181",
"g.	c #008C8C",
"h.	c #028686",
"i.	c #066D6D",
"j.	c #055252",
"k.	c #013A3A",
"l.	c #003737",
"m.	c #004B4B",
"n.	c #006262",
"o.	c #007C7C",
"p.	c #008383",
"q.	c #008080",
"r.	c #009A9A",
"s.	c #008585",
"t.	c #002525",
"u.	c #002727",
"v.	c #003C3C",
"w.	c #005151",
"x.	c #006767",
"y.	c #008888",
"z.	c #002626",
"A.	c #004040",
"B.	c #005656",
"C.	c #006C6C",
"D.	c #008787",
"E.	c #002A2A",
"F.	c #004545",
"G.	c #005B5B",
"H.	c #007272",
"I.	c #009090",
"J.	c #003B3B",
"K.	c #008686",
"L.	c #003535",
"M.	c #004A4A",
"N.	c #006060",
"O.	c #007777",
"P.	c #009292",
"Q.	c #009595",
"R.	c #005252",
"S.	c #006A6A",
"T.	c #006565",
"U.	c #007D7D",
"V.	c #009999",
"W.	c #003838",
"X.	c #003636",
"Y.	c #003F3F",
"Z.	c #006B6B",
"`.	c #007B7B",
" +	c #004D4D",
".+	c #003434",
"++	c #008D8D",
"@+	c #004343",
"#+	c #005959",
"$+	c #009898",
"%+	c #003E3E",
"&+	c #004747",
"*+	c #006464",
"=+	c #002F2F",
"-+	c #011717",
";+	c #010C0C",
">+	c #012626",
",+	c #011C1C",
"'+	c #00B7B7",
")+	c #001A1A",
"!+	c #001111",
"~+	c #001212",
"{+	c #001919",
"]+	c #00E9E9",
"^+	c #00B8B8",
"/+	c #00E8E8",
". + @ @ @ @ @ @ @ @ @ @ @ @ @ @ @ @ @ @ @ @ @ @ @ @ @ @ @ @ + . ",
"# $ % % & & * = = = = = = = = = = = = = = = = = * * & & % % $ - ",
"; = > > , ' ) ! ~ { { { { { { { { { { { { { { ~ ] ) ' , > > * ^ ",
"; = > / ( ~ _ : < [ [ } } } } } } } } } } [ [ < : _ ~ ) / > * + ",
"; = , ( | : 1 2 3 4 4 5 5 5 5 5 5 5 5 5 5 4 4 3 2 } : { ) , * + ",
"; 6 ' { : 7 5 8 9 0 0 0 0 0 0 0 0 0 0 0 0 0 0 9 a 4 b : ~ ' = + ",
"; 6 ( c 1 5 9 d e f g g g g h i j k e g g g f e l 9 4 } _ ) = + ",
"; m ! n o p d q r s s s t u v w x y z A r s s r f l 8 2 : ] 6 + ",
"B C { [ 4 D e r A A E F G H I J K L M N O r A A r e D 3 < ~ 6 + ",
"B C { } 5 P g s Q R S T U V I J K W X Y Z ` t A s f 0 4 [ { m + ",
"B C | 1  .P g s E ..+.@.#.$.I J K W %.&.*.=.-.;.s g P 5 } { m + ",
"B C | 1  .l g s E >.,.'.).$.I J K W %.Y !.~.{.].s g P  .} { m + ",
"B C | 1  .l g A E ^./.(._.$.I J K W %.:.<.[.}.].s g P  .} { m + ",
"B C | 1  .l g s ;.|.1.2.3.4.5.6.7.8.9.0.a.b.c.d.s g P  .} { m + ",
"B C | 1  .l g s ;.|.1.e.f.g.h.i.j.k.l.m.n.o.p.d.s g P  .} | C + ",
"B C | 1  .l g A E |.1.e.q.g.r.s.t.u.v.w.x.f.y.d.s g P  .} | C + ",
"B C | 1  .l g A E |.1.e.q.g.r.s.z.s A.B.C.D.g.d.s g P  .} | C + ",
"B C | 1  .l g A E |.1.e.q.g.r.s.E.;.F.G.H.g.I.J.s g P  .} | C + ",
"B C | 1  .l g A E |.1.e.q.g.r.K.Q L.M.N.O.P.Q.J.s g P  .} { C + ",
"B C | 1  .l g A E R.S.e.q.g.r.D.t d.0.T.U.V.P.W.s g P  .} { m + ",
"B C | 1  .l g A Q v.a.e.q.g.r.D.X.Y.|.Z.q.`. +Q A g P  .} { m + ",
"B C | 1  .l g A Q A .+|.}.++r.y.d.@+#+T.|..+s Q s g P 5 } { m + ",
"B C { }  .P g s Q Q Q Q F.2.$+-.%+&+m.].A Q Q Q s f 0 5 } { m + ",
"B C { [ 4 0 f s A Q Q Q A L.*+o.Y.l.=+A Q Q Q A r e D 3 < ~ 6 + ",
"; m ~ n -+p d q s s A A A s A d.E s A A A A s s q d p o n ! 6 + ",
"; m ( ;+b  .D >+f g g g g g g f g g g g g g g f d D 5 b c ( = + ",
"; 6 ' | < 2  .9 0 P l l l l l l l l l l l l P 0 p  .7 n { ' = + ",
"; = / ( _ < b -+5  . . . .,+,+,+,+,+,+ . . . .4 -+b n | ( , * + ",
"; = > ' ( | ;+< } } 1 1 1 b b b b b b 1 1 1 } [ n ;+{ ( / > * + ",
"; = > > / ' ( ~ { | | | | | | | | | | | | | { { ~ ( ' , > > * ^ ",
"'+)+6 6 m m C !+~+~+~+~+~+~+~+~+~+~+~+~+~+~+~+~+!+C m m 6 6 {+# ",
"]+^+# # # # # # # # # # # # # # # # # # # # # # # # # # # # ^+/+"};
