/* XPM */
static char * gnome_activity_journal_xpm[] = {
"32 32 244 2",
"  	c None",
". 	c #00E6E6",
"+ 	c #00B1B1",
"@ 	c #00ADAD",
"# 	c #00B5B5",
"$ 	c #001616",
"% 	c #000A0A",
"& 	c #000B0B",
"* 	c #000C0C",
"= 	c #000D0D",
"- 	c #00B4B4",
"; 	c #00B2B2",
"> 	c #000000",
", 	c #000101",
"' 	c #000303",
") 	c #000404",
"! 	c #010606",
"~ 	c #010707",
"{ 	c #010808",
"] 	c #010404",
"^ 	c #000606",
"/ 	c #00B0B0",
"( 	c #000202",
"_ 	c #000505",
": 	c #010A0A",
"< 	c #010D0D",
"[ 	c #010F0F",
"} 	c #011010",
"| 	c #010E0E",
"1 	c #011B1B",
"2 	c #013A3A",
"3 	c #015858",
"4 	c #016767",
"5 	c #015454",
"6 	c #013333",
"7 	c #011616",
"8 	c #010909",
"9 	c #011212",
"0 	c #011515",
"a 	c #011818",
"b 	c #011717",
"c 	c #012828",
"d 	c #00A7A7",
"e 	c #00CACA",
"f 	c #00D9D9",
"g 	c #00E1E1",
"h 	c #00E5E5",
"i 	c #00E2E2",
"j 	c #00D4D4",
"k 	c #00AAAA",
"l 	c #015E5E",
"m 	c #012020",
"n 	c #011111",
"o 	c #000E0E",
"p 	c #011414",
"q 	c #011A1A",
"r 	c #011E1E",
"s 	c #011F1F",
"t 	c #014949",
"u 	c #00A1A1",
"v 	c #00CECE",
"w 	c #00D6D6",
"x 	c #00CFCF",
"y 	c #00C2C2",
"z 	c #00C1C1",
"A 	c #00D1D1",
"B 	c #013F3F",
"C 	c #011D1D",
"D 	c #011919",
"E 	c #011313",
"F 	c #010B0B",
"G 	c #012323",
"H 	c #015656",
"I 	c #00B3B3",
"J 	c #00CCCC",
"K 	c #00B9B9",
"L 	c #008080",
"M 	c #005050",
"N 	c #013737",
"O 	c #014242",
"P 	c #006868",
"Q 	c #00AEAE",
"R 	c #00E8E8",
"S 	c #00C5C5",
"T 	c #014C4C",
"U 	c #012222",
"V 	c #000F0F",
"W 	c #004B4B",
"X 	c #00C6C6",
"Y 	c #00C7C7",
"Z 	c #00C9C9",
"` 	c #009F9F",
" .	c #004A4A",
"..	c #002A2A",
"+.	c #002B2B",
"@.	c #002929",
"#.	c #003131",
"$.	c #007B7B",
"%.	c #00E0E0",
"&.	c #001010",
"*.	c #012121",
"=.	c #013131",
"-.	c #009696",
";.	c #00C0C0",
">.	c #00A2A2",
",.	c #004343",
"'.	c #002E2E",
").	c #002D2D",
"!.	c #004040",
"~.	c #005757",
"{.	c #002F2F",
"].	c #002C2C",
"^.	c #007C7C",
"/.	c #00E7E7",
"(.	c #00A0A0",
"_.	c #013030",
":.	c #016363",
"<.	c #00B6B6",
"[.	c #00BBBB",
"}.	c #00BFBF",
"|.	c #005A5A",
"1.	c #00A6A6",
"2.	c #003A3A",
"3.	c #003232",
"4.	c #009797",
"5.	c #012B2B",
"6.	c #009292",
"7.	c #00B8B8",
"8.	c #00BCBC",
"9.	c #003434",
"0.	c #004D4D",
"a.	c #006B6B",
"b.	c #005F5F",
"c.	c #003535",
"d.	c #006060",
"e.	c #00E3E3",
"f.	c #00F3F3",
"g.	c #00F6F6",
"h.	c #00CDCD",
"i.	c #013434",
"j.	c #014444",
"k.	c #006F6F",
"l.	c #009C9C",
"m.	c #003838",
"n.	c #003C3C",
"o.	c #00EFEF",
"p.	c #00F1F1",
"q.	c #016969",
"r.	c #010303",
"s.	c #015C5C",
"t.	c #00ABAB",
"u.	c #00AFAF",
"v.	c #005C5C",
"w.	c #00C4C4",
"x.	c #00EDED",
"y.	c #015252",
"z.	c #006C6C",
"A.	c #00ACAC",
"B.	c #006262",
"C.	c #00A9A9",
"D.	c #003E3E",
"E.	c #003030",
"F.	c #00EAEA",
"G.	c #008E8E",
"H.	c #006565",
"I.	c #005E5E",
"J.	c #003D3D",
"K.	c #003737",
"L.	c #00BABA",
"M.	c #012E2E",
"N.	c #007474",
"O.	c #007F7F",
"P.	c #006A6A",
"Q.	c #006969",
"R.	c #00DEDE",
"S.	c #009191",
"T.	c #009D9D",
"U.	c #00A3A3",
"V.	c #009B9B",
"W.	c #004949",
"X.	c #008484",
"Y.	c #008989",
"Z.	c #00DCDC",
"`.	c #00D2D2",
" +	c #013232",
".+	c #009090",
"++	c #009A9A",
"@+	c #007E7E",
"#+	c #006363",
"$+	c #008888",
"%+	c #005656",
"&+	c #00DBDB",
"*+	c #00BDBD",
"=+	c #006D6D",
"-+	c #009494",
";+	c #00A4A4",
">+	c #00A5A5",
",+	c #007373",
"'+	c #003636",
")+	c #00D3D3",
"!+	c #009595",
"~+	c #012525",
"{+	c #014848",
"]+	c #007575",
"^+	c #00A8A8",
"/+	c #005252",
"(+	c #003F3F",
"_+	c #007171",
":+	c #00D0D0",
"<+	c #00C8C8",
"[+	c #015D5D",
"}+	c #009393",
"|+	c #009E9E",
"1+	c #008282",
"2+	c #013636",
"3+	c #009898",
"4+	c #00B7B7",
"5+	c #00C3C3",
"6+	c #005151",
"7+	c #012727",
"8+	c #008585",
"9+	c #007272",
"0+	c #008787",
"a+	c #008F8F",
"b+	c #010C0C",
"c+	c #008C8C",
"d+	c #009999",
"e+	c #015959",
"f+	c #007777",
"g+	c #008686",
"h+	c #007676",
"i+	c #013C3C",
"j+	c #008383",
"k+	c #008A8A",
"l+	c #014040",
"m+	c #006E6E",
"n+	c #006767",
"o+	c #005959",
"p+	c #014343",
"q+	c #001A1A",
"r+	c #001111",
"s+	c #001212",
"t+	c #001919",
"u+	c #00E9E9",
". + @ @ @ @ @ @ @ @ @ @ @ @ @ @ @ @ @ @ @ @ @ @ @ @ @ @ @ @ + . ",
"# $ % % & & * = = = = = = = = = = = = = = = = = * * & & % % $ - ",
"; = > > , ' ) ! ~ { { { { ! ] ] ] ] ! { { { { ~ ^ ) ' , > > * / ",
"; = > ( _ ~ : < [ } [ | 1 2 3 4 4 5 6 7 < } } [ < : ~ ) ( > * + ",
"; = , _ 8 < 9 0 a b c 4 d e f g h i j k l m b a 0 n < { ) , * + ",
"; o ' { < p q r s t u v w f f x y z A . . d B r C D E < ~ ' = + ",
"; o _ F 9 q m G H I J v A K L M 2 N O P Q R S T U m D n : ) = + ",
"; V ! | 7 s G W Q X Y Z `  .....+.+.@.@.#.$.%.y B U r 0 < ^ o + ",
"I &.{ } D *.=.-.;.z S >.,.+.'.'.).!.~.{.).].^./.(._.s 7 [ ~ o + ",
"I &.{ n q m :.<.[.}.# |.].'.'.'.].$.1.2.).).3.k R ;.4.O [ { V + ",
"I &.8 9 q 5.6.<.7.8.6.9.'.'.'.'.0.a.b.c.'.'.+.d.e.f.g.h.i.! V + ",
"I &.8 9 D j.d ; # <.k.].'.'.].~.[.h.l.m.).'.).n.Y o.p.f.q.r.V + ",
"I &.8 9 a s.t.u.; / v.+.'.'.+.L x A w.M ].'.'.#.I x.o.. y.] V + ",
"I &.8 9 a z.k A.u.A.|.+.'.'.+.B.y v C.D.).'.'.E.u.F.F.u q { V + ",
"I &.: } 6 G.1.C.A.A.H.].'.'.'.#.B.$.I.J.).'.).K.L./.d M.} 8 &.+ ",
"I &.8 a N.(.>.1.C.A.O.E.'.'.'.'.+.P.@ Q.+.'.].M x R.4 7 n 8 &.+ ",
"I &.~ =.S.T.` U.1.k V.W.].'.'.'.].M I X.).'.].Y.Z.`.y.a n 8 &.+ ",
"I &.~  +.+++l.(.U.d C.@+c.).'.'.'.].#+$+3.+.%+w.&+*+N q n 8 &.+ ",
"I &.8 q =+-+++T.(.;+d >+,+'+].).'.'.{.0.3.M / )+w !+~+1 n { &.+ ",
"I &.8 n ~+{+]+++T.u ;+^+1.X./+K.'.].E.(+_+- h.:+<+[+*.1 n { V + ",
"I &.8 9 q s j.}+++|+u ;+^+t.;+6.1+O.G.C.;.X Z h.++=.G 1 n { V + ",
"I &.8 9 1 U 2+Y.3+V.|+u >+^+A./ - 4+L.*+}.5+Y - 6+7+G q n { V + ",
"I &.{ n 1 U =.8+!+3+V.|+>.>+^+A.u.; <.K 8.;.7.Q.].c U q n { V + ",
"I &.{ } D m 6 X.6.!+3+V.` >.>+C.A.u.I <.L.I 9+{.+.7+*.a [ ~ o + ",
"; V ~ | b C (+0+a+6.!+3+l.` >.1.C.A./ - k a.E.+.@.~+s 7 | ! o + ",
"; V _ b+E D |.Y.c+a+6.-.d+l.` U.1.k A.3+e+5.c c ~+*.q E F _ = + ",
"; o ' 8 < c f+g+Y.c+a+}+-.d+T.u ;+V.h+i+G G G U s 1 p | { ' = + ",
"; = ( _ ~ '+$.j+0+k+G.S.-+4.!+k+=+l+s q 1 1 1 D b E | 8 _ , * + ",
"; = > ' _ n 9.0.I.Q.=+m+n+o+p+c 0 n 9 9 9 9 n } | b+{ _ ( > * + ",
"; = > > ( ' ' ! : [ } } < { ~ { 8 8 8 8 8 8 { { ~ _ ' , > > * / ",
"4+q+o o V V &.r+s+s+s+s+s+s+s+s+s+s+s+s+s+s+s+s+r+&.V V o o t+# ",
"u+7.# # # # # # # # # # # # # # # # # # # # # # # # # # # # 7.R "};
