/* XPM */
static char * googleearth_xpm[] = {
"32 32 184 2",
"  	c None",
". 	c #00E6E6",
"+ 	c #00B1B1",
"@ 	c #00ADAD",
"# 	c #00B5B5",
"$ 	c #001616",
"% 	c #000A0A",
"& 	c #000909",
"* 	c #000808",
"= 	c #00B4B4",
"- 	c #00B2B2",
"; 	c #000D0D",
"> 	c #000000",
", 	c #000707",
"' 	c #001C1C",
") 	c #002F2F",
"! 	c #003E3E",
"~ 	c #004444",
"{ 	c #004141",
"] 	c #003636",
"^ 	c #002727",
"/ 	c #001717",
"( 	c #000C0C",
"_ 	c #00B0B0",
": 	c #001515",
"< 	c #003737",
"[ 	c #004B4B",
"} 	c #007D7D",
"| 	c #008080",
"1 	c #007A7A",
"2 	c #007070",
"3 	c #005454",
"4 	c #004A4A",
"5 	c #004545",
"6 	c #002323",
"7 	c #000B0B",
"8 	c #005F5F",
"9 	c #000F0F",
"0 	c #006868",
"a 	c #00A0A0",
"b 	c #009898",
"c 	c #007979",
"d 	c #001F1F",
"e 	c #003B3B",
"f 	c #003A3A",
"g 	c #003131",
"h 	c #001B1B",
"i 	c #000505",
"j 	c #000101",
"k 	c #008B8B",
"l 	c #008C8C",
"m 	c #009292",
"n 	c #008282",
"o 	c #003838",
"p 	c #006060",
"q 	c #008A8A",
"r 	c #002121",
"s 	c #000202",
"t 	c #003939",
"u 	c #002424",
"v 	c #009A9A",
"w 	c #009090",
"x 	c #007373",
"y 	c #007777",
"z 	c #000404",
"A 	c #001414",
"B 	c #000303",
"C 	c #004343",
"D 	c #005252",
"E 	c #003C3C",
"F 	c #003434",
"G 	c #002A2A",
"H 	c #00A4A4",
"I 	c #009494",
"J 	c #009797",
"K 	c #009696",
"L 	c #008585",
"M 	c #007575",
"N 	c #006E6E",
"O 	c #004D4D",
"P 	c #001010",
"Q 	c #001919",
"R 	c #002D2D",
"S 	c #002B2B",
"T 	c #003535",
"U 	c #002222",
"V 	c #000606",
"W 	c #00AAAA",
"X 	c #00A1A1",
"Y 	c #009D9D",
"Z 	c #008787",
"` 	c #007676",
" .	c #006969",
"..	c #005353",
"+.	c #006A6A",
"@.	c #005757",
"#.	c #002E2E",
"$.	c #00B7B7",
"%.	c #00AEAE",
"&.	c #00ABAB",
"*.	c #009393",
"=.	c #007F7F",
"-.	c #006262",
";.	c #004646",
">.	c #000E0E",
",.	c #001111",
"'.	c #007272",
").	c #006464",
"!.	c #001E1E",
"~.	c #00B3B3",
"{.	c #00C3C3",
"].	c #00CACA",
"^.	c #00C9C9",
"/.	c #00A2A2",
"(.	c #001A1A",
"_.	c #004848",
":.	c #006F6F",
"<.	c #006161",
"[.	c #005A5A",
"}.	c #005E5E",
"|.	c #005D5D",
"1.	c #004E4E",
"2.	c #005858",
"3.	c #002626",
"4.	c #001313",
"5.	c #007C7C",
"6.	c #00D1D1",
"7.	c #00D9D9",
"8.	c #00D4D4",
"9.	c #00B9B9",
"0.	c #003333",
"a.	c #002C2C",
"b.	c #00E2E2",
"c.	c #00BDBD",
"d.	c #004747",
"e.	c #005959",
"f.	c #003D3D",
"g.	c #001212",
"h.	c #00BABA",
"i.	c #006B6B",
"j.	c #006565",
"k.	c #005555",
"l.	c #005050",
"m.	c #00C0C0",
"n.	c #002525",
"o.	c #005151",
"p.	c #003232",
"q.	c #004949",
"r.	c #002929",
"s.	c #00A7A7",
"t.	c #007878",
"u.	c #006D6D",
"v.	c #005B5B",
"w.	c #004C4C",
"x.	c #002020",
"y.	c #006666",
"z.	c #009999",
"A.	c #008383",
"B.	c #007171",
"C.	c #003F3F",
"D.	c #002828",
"E.	c #004F4F",
"F.	c #004242",
"G.	c #00C7C7",
"H.	c #00C5C5",
"I.	c #00BEBE",
"J.	c #006363",
"K.	c #00C8C8",
"L.	c #00C4C4",
"M.	c #007B7B",
"N.	c #009E9E",
"O.	c #00ACAC",
"P.	c #00A8A8",
"Q.	c #009F9F",
"R.	c #00A9A9",
"S.	c #009C9C",
"T.	c #009191",
"U.	c #006C6C",
"V.	c #001D1D",
"W.	c #008E8E",
"X.	c #005656",
"Y.	c #00E9E9",
"Z.	c #00B8B8",
"`.	c #00E8E8",
". + @ @ @ @ @ @ @ @ @ @ @ @ @ @ @ @ @ @ @ @ @ @ @ @ @ @ @ @ + . ",
"# $ % % % % % % % % % % & * & % % % & & % % % % % % % % % % $ = ",
"- ; > > > > > > > > > , ' ) ! ~ { ] ^ / , > > > > > > > > > ( _ ",
"- ; > > > > > > > > : < [ } | 1 2 3 4 5 < 6 7 > > > > > > > ( + ",
"- ; > > > > > > : < 8 ) 9 0 a b c d / ) e f g h i > > > > > ( + ",
"- ; > > > > j e k l m n o p q 4 r ' s s d ~ { t u % > > > > ( + ",
"- ; > > > > 5 v b w l | x y t > z A B , C D g E F G % > > > ( + ",
"- ; > > > t a H I J K L M N O P > > Q R S o C C T ) U V > > ( + ",
"- ; > > U b - W X Y I Z ` N  .[ P > Q ..0 0 +.@.< #.^ / j > ( + ",
"- ; > * } $._ %.&.*.| =.y N 0 -.;.>.,.-.'.N  .).;.#.^ !.& > ( + ",
"- ; > E ~.{.].^./.o (._.:.:.0 <.[.5 }.|.!.T 1.@.2.T 3.d 4.> ( + ",
"- ( s 5.6.7.8.9.0.> > B ^ |. .<.[.3 }.{ a./ 9 $ < ~ G !.$ i 7 + ",
"- ( >.W b.].c.O j > > > > 4.d.p [.3 e.<.'.[.f.] T ..{ 6 !.g.7 + ",
"- 7 : h.l ) ] P > > > > > > , ) ..}.<.[.[. .i.j.k.~ l.a.u !.7 + ",
"- % ^ m.0.P j > > > > > > > > j n.j.<.[...o.}.).2.p.q.C r.* 7 + ",
"- 7 (.s.H t.V > > > > > > > > > n.} u.v.D w._.3 |.{ F ;.x.> ( + ",
"- ; > ' y.z.F (.g 9 B > > > > > u A.A.B.[.w.~ C.d.O ] D.s > ( + ",
"- ; > > > U k.I 9.b p.> > > > > i E.n t.N 8 4 f.T o F.G j > ( + ",
"- ; > > > > x._ G.m.z.T > > > > > ( g r u 8 j.l.E #.D.: B > ( + ",
"- ; > > > > E.^.H.I.h.z.4 P > > > > > > i l.i.J.2.d.U ; * j ( + ",
"- ; > > V h t.K.L.I.$.- W M.,.> > > > > > < +.J.|.../ j s > ( + ",
"- ; > > 1.K N.O.- $.$.+ O.1 7 > > > > > > 3.0 J.|.D A > > > ( + ",
"- ; > ; l P.Q.a /.Q./.s.R.O > > > > > > > a. .J.|.1.4.> > > ( + ",
"- ; > s |.H N.b S.Y K T.w E.( s > > > > > a.+.).e.r s j > > ( + ",
"- ; > > >.'.Q.J z.Y J w =.U.e.C R V.g.% V h e.@.;.(.>.i > > ( + ",
"- ; > > > 4.i.K J Y b w y 2 +.J.v.D _.C.] 0.{ ! R V.; j > > ( + ",
"- ; > > > > ( ..W.Q.K X.g d.k.e.@...O ;.C.< T G h ; j > > > ( + ",
"- ; > > > > > B ) ` L G > s & g.(.!.d ' / ,.% z j > > > > > ( + ",
"- ; > > > > > > > 7 ] w.P > > > > > > > > > > > > > > > > > ( + ",
"- ; > > > > > > > > > , i > > > > > > > > > > > > > > > > > ( _ ",
"$.(.>.>.>.>.>.>.>.>.>.>.>.>.>.>.>.>.>.>.>.>.>.>.>.>.>.>.>.>.Q # ",
"Y.Z.# # # # # # # # # # # # # # # # # # # # # # # # # # # # Z.`."};
