/* XPM */
static char * gtk_recordmydesktop_xpm[] = {
"32 32 458 2",
"  	c None",
". 	c #00E6E6",
"+ 	c #00B1B1",
"@ 	c #00ADAD",
"# 	c #00B5B5",
"$ 	c #001616",
"% 	c #000A0A",
"& 	c #000B0B",
"* 	c #000C0C",
"= 	c #000D0D",
"- 	c #00B4B4",
"; 	c #00B2B2",
"> 	c #000000",
", 	c #000101",
"' 	c #000303",
") 	c #000404",
"! 	c #010606",
"~ 	c #010707",
"{ 	c #010808",
"] 	c #011010",
"^ 	c #012828",
"/ 	c #014646",
"( 	c #006161",
"_ 	c #007474",
": 	c #007C7C",
"< 	c #006060",
"[ 	c #004545",
"} 	c #002828",
"| 	c #000F0F",
"1 	c #000202",
"2 	c #00B0B0",
"3 	c #000505",
"4 	c #010A0A",
"5 	c #010D0D",
"6 	c #010F0F",
"7 	c #010E0E",
"8 	c #011111",
"9 	c #012E2E",
"0 	c #016868",
"a 	c #00A1A1",
"b 	c #00C9C9",
"c 	c #00E2E2",
"d 	c #00EEEE",
"e 	c #00F3F3",
"f 	c #00F6F6",
"g 	c #00F5F5",
"h 	c #00F1F1",
"i 	c #00EAEA",
"j 	c #00DDDD",
"k 	c #00C3C3",
"l 	c #009C9C",
"m 	c #006464",
"n 	c #002B2B",
"o 	c #000707",
"p 	c #010909",
"q 	c #011212",
"r 	c #011515",
"s 	c #011616",
"t 	c #013232",
"u 	c #007E7E",
"v 	c #00C6C6",
"w 	c #00F7F7",
"x 	c #00FAFA",
"y 	c #00FCFC",
"z 	c #00FEFE",
"A 	c #00FFFF",
"B 	c #00E4E4",
"C 	c #00BCBC",
"D 	c #007979",
"E 	c #002929",
"F 	c #000E0E",
"G 	c #011414",
"H 	c #011919",
"I 	c #011F1F",
"J 	c #005C5C",
"K 	c #00B8B8",
"L 	c #01E1E1",
"M 	c #07DDDD",
"N 	c #0ECDCD",
"O 	c #13BFBF",
"P 	c #15BABA",
"Q 	c #13BDBD",
"R 	c #0FC9C9",
"S 	c #07DADA",
"T 	c #01ECEC",
"U 	c #00E5E5",
"V 	c #005353",
"W 	c #001414",
"X 	c #010B0B",
"Y 	c #012626",
"Z 	c #007878",
"` 	c #04C8C8",
" .	c #12C3C3",
"..	c #1F9696",
"+.	c #216C6C",
"@.	c #1C5151",
"#.	c #164343",
"$.	c #154040",
"%.	c #174343",
"&.	c #1C4E4E",
"*.	c #206363",
"=.	c #1F8686",
"-.	c #12B5B5",
";.	c #04E1E1",
">.	c #00F4F4",
",.	c #00CBCB",
"'.	c #00BBBB",
").	c #012323",
"!.	c #017D7D",
"~.	c #0DBBBB",
"{.	c #1F8A8A",
"].	c #184949",
"^.	c #083131",
"/.	c #013131",
"(.	c #003333",
"_.	c #003131",
":.	c #012B2B",
"<.	c #072F2F",
"[.	c #1F7373",
"}.	c #0EBABA",
"|.	c #01F0F0",
"1.	c #00F8F8",
"2.	c #00D8D8",
"3.	c #00B3B3",
"4.	c #001010",
"5.	c #026A6A",
"6.	c #13A7A7",
"7.	c #195E5E",
"8.	c #064848",
"9.	c #007272",
"0.	c #009898",
"a.	c #00ACAC",
"b.	c #00A7A7",
"c.	c #008D8D",
"d.	c #006666",
"e.	c #003D3D",
"f.	c #002C2C",
"g.	c #002D2D",
"h.	c #052F2F",
"i.	c #194C4C",
"j.	c #149C9C",
"k.	c #02EAEA",
"l.	c #00FBFB",
"m.	c #014343",
"n.	c #129292",
"o.	c #135B5B",
"p.	c #018080",
"q.	c #00C1C1",
"r.	c #07D0D0",
"s.	c #10C4C4",
"t.	c #18B6B6",
"u.	c #1AB3B3",
"v.	c #14B9B9",
"w.	c #0CC8C8",
"x.	c #02CDCD",
"y.	c #006A6A",
"z.	c #003434",
"A.	c #002E2E",
"B.	c #012D2D",
"C.	c #123F3F",
"D.	c #139494",
"E.	c #01EDED",
"F.	c #001919",
"G.	c #0C7474",
"H.	c #126666",
"I.	c #00A3A3",
"J.	c #06D1D1",
"K.	c #19ACAC",
"L.	c #207373",
"M.	c #184E4E",
"N.	c #123C3C",
"O.	c #154343",
"P.	c #1D5858",
"Q.	c #1F8383",
"R.	c #0EBBBB",
"S.	c #01CBCB",
"T.	c #008787",
"U.	c #003838",
"V.	c #113F3F",
"W.	c #0CA6A6",
"X.	c #043B3B",
"Y.	c #126D6D",
"Z.	c #02A4A4",
"`.	c #09CDCD",
" +	c #1C8282",
".+	c #0F3D3D",
"++	c #002A2A",
"@+	c #063030",
"#+	c #194F4F",
"$+	c #149E9E",
"%+	c #01CDCD",
"&+	c #008383",
"*+	c #115353",
"=+	c #04D2D2",
"-+	c #0B4D4D",
";+	c #078B8B",
">+	c #05CFCF",
",+	c #197E7E",
"'+	c #003A3A",
")+	c #005D5D",
"!+	c #007171",
"~+	c #006969",
"{+	c #004B4B",
"]+	c #002F2F",
"^+	c #124141",
"/+	c #0FA1A1",
"(+	c #00C7C7",
"_+	c #0B8F8F",
":+	c #021111",
"<+	c #0B5757",
"[+	c #01BFBF",
"}+	c #10A5A5",
"|+	c #093434",
"1+	c #005454",
"2+	c #03A6A6",
"3+	c #10B7B7",
"4+	c #18ACAC",
"5+	c #13AFAF",
"6+	c #05B2B2",
"7+	c #003636",
"8+	c #115252",
"9+	c #05C2C2",
"0+	c #00A0A0",
"a+	c #0B5656",
"b+	c #01E2E2",
"c+	c #041010",
"d+	c #066E6E",
"e+	c #03CECE",
"f+	c #0D6666",
"g+	c #012525",
"h+	c #03B2B2",
"i+	c #19A1A1",
"j+	c #1A5454",
"k+	c #113E3E",
"l+	c #174646",
"m+	c #1C7878",
"n+	c #06BABA",
"o+	c #007A7A",
"p+	c #099595",
"q+	c #00C4C4",
"r+	c #004C4C",
"s+	c #073737",
"t+	c #03C4C4",
"u+	c #030A0A",
"v+	c #038282",
"w+	c #03C6C6",
"x+	c #064141",
"y+	c #002525",
"z+	c #007B7B",
"A+	c #09BABA",
"B+	c #0C4747",
"C+	c #073030",
"D+	c #0D8888",
"E+	c #003E3E",
"F+	c #067070",
"G+	c #00CFCF",
"H+	c #032B2B",
"I+	c #02AEAE",
"J+	c #018787",
"K+	c #01C0C0",
"L+	c #013737",
"M+	c #018F8F",
"N+	c #03A7A7",
"O+	c #036666",
"P+	c #02C1C1",
"Q+	c #014848",
"R+	c #026363",
"S+	c #00D0D0",
"T+	c #016C6C",
"U+	c #012727",
"V+	c #01A6A6",
"W+	c #047B7B",
"X+	c #014242",
"Y+	c #097979",
"Z+	c #01B7B7",
"`+	c #004747",
" @	c #008B8B",
".@	c #09B5B5",
"+@	c #033B3B",
"@@	c #007070",
"#@	c #02D0D0",
"$@	c #026161",
"%@	c #012929",
"&@	c #085858",
"*@	c #02CECE",
"=@	c #016767",
"-@	c #0C4646",
";@	c #0DAEAE",
">@	c #009F9F",
",@	c #003939",
"'@	c #004141",
")@	c #09C0C0",
"!@	c #127676",
"~@	c #009999",
"{@	c #07C6C6",
"]@	c #034747",
"^@	c #013333",
"/@	c #092C2C",
"(@	c #07BABA",
"_@	c #00A6A6",
":@	c #022B2B",
"<@	c #185858",
"[@	c #18A3A3",
"}@	c #0AB3B3",
"|@	c #06AAAA",
"1@	c #08B0B0",
"2@	c #15B6B6",
"3@	c #1C7D7D",
"4@	c #053434",
"5@	c #005050",
"6@	c #02C8C8",
"7@	c #0C9E9E",
"8@	c #004E4E",
"9@	c #031212",
"0@	c #117676",
"a@	c #03CFCF",
"b@	c #007F7F",
"c@	c #022C2C",
"d@	c #1E5F5F",
"e@	c #207171",
"f@	c #1F6A6A",
"g@	c #164A4A",
"h@	c #042F2F",
"i@	c #003C3C",
"j@	c #00A9A9",
"k@	c #0CC9C9",
"l@	c #0B5959",
"m@	c #008989",
"n@	c #00F9F9",
"o@	c #0C2C2C",
"p@	c #139F9F",
"q@	c #01CECE",
"r@	c #008484",
"s@	c #003B3B",
"t@	c #004A4A",
"u@	c #09D1D1",
"v@	c #157F7F",
"w@	c #022F2F",
"x@	c #00D1D1",
"y@	c #123D3D",
"z@	c #179F9F",
"A@	c #04CFCF",
"B@	c #00AEAE",
"C@	c #003737",
"D@	c #005555",
"E@	c #008585",
"F@	c #01C2C2",
"G@	c #0DCDCD",
"H@	c #1A8383",
"I@	c #012020",
"J@	c #103939",
"K@	c #1E7E7E",
"L@	c #11BBBB",
"M@	c #00C5C5",
"N@	c #00BDBD",
"O@	c #02CCCC",
"P@	c #0ACFCF",
"Q@	c #1AAEAE",
"R@	c #1A6767",
"S@	c #053131",
"T@	c #00FDFD",
"U@	c #01EFEF",
"V@	c #01F7F7",
"W@	c #011717",
"X@	c #073131",
"Y@	c #164848",
"Z@	c #217272",
"`@	c #1E9494",
" #	c #1BA8A8",
".#	c #1BAEAE",
"+#	c #1CA3A3",
"@#	c #218B8B",
"##	c #1D6464",
"$#	c #0E3B3B",
"%#	c #003535",
"&#	c #008A8A",
"*#	c #12C5C5",
"=#	c #0ADADA",
"-#	c #010C0C",
";#	c #011313",
">#	c #011B1B",
",#	c #012222",
"'#	c #0A4747",
")#	c #033636",
"!#	c #082D2D",
"~#	c #0E3030",
"{#	c #0F3333",
"]#	c #0C3030",
"^#	c #052A2A",
"/#	c #002727",
"(#	c #012C2C",
"_#	c #005757",
":#	c #00AFAF",
"<#	c #05E2E2",
"[#	c #19AEAE",
"}#	c #134949",
"|#	c #01B0B0",
"1#	c #032020",
"2#	c #133A3A",
"3#	c #1B6060",
"4#	c #0A6262",
"5#	c #014C4C",
"6#	c #013030",
"7#	c #014444",
"8#	c #016A6A",
"9#	c #00A4A4",
"0#	c #00DFDF",
"a#	c #02E9E9",
"b#	c #10CBCB",
"c#	c #1F8585",
"d#	c #0F2222",
"e#	c #0B2525",
"f#	c #1D4F4F",
"g#	c #1B7B7B",
"h#	c #0E9797",
"i#	c #049E9E",
"j#	c #00BABA",
"k#	c #00D3D3",
"l#	c #00ECEC",
"m#	c #06E0E0",
"n#	c #13C4C4",
"o#	c #208E8E",
"p#	c #1A4343",
"q#	c #050909",
"r#	c #001111",
"s#	c #0D1C1C",
"t#	c #1C3F3F",
"u#	c #1C9393",
"v#	c #15B2B2",
"w#	c #0FC6C6",
"x#	c #0BD3D3",
"y#	c #0AD7D7",
"z#	c #0AD6D6",
"A#	c #0DD2D2",
"B#	c #11C5C5",
"C#	c #19B2B2",
"D#	c #209494",
"E#	c #236969",
"F#	c #193535",
"G#	c #080E0E",
"H#	c #000909",
"I#	c #040909",
"J#	c #0D1212",
"K#	c #152121",
"L#	c #1C3333",
"M#	c #204141",
"N#	c #214747",
"O#	c #224747",
"P#	c #214040",
"Q#	c #1B3232",
"R#	c #141F1F",
"S#	c #0A0E0E",
"T#	c #020505",
"U#	c #00B7B7",
"V#	c #001A1A",
"W#	c #001212",
"X#	c #00E9E9",
"Y#	c #00E8E8",
". + @ @ @ @ @ @ @ @ @ @ @ @ @ @ @ @ @ @ @ @ @ @ @ @ @ @ @ @ + . ",
"# $ % % & & * = = = = = = = & % % & & & & & % & * * & & % % $ - ",
"; = > > , ' ) ! ~ { { ! ! ] ^ / ( _ : : _ < [ } | 1 > , > > * 2 ",
"; = > 1 3 ~ 4 5 6 7 8 9 0 a b c d e f g h i j k l m n o > > * + ",
"; = , 3 p 5 q r s t u v i w x y z A A A A A A z w B C D E , * + ",
"; F ' { 5 G H I J K L M N O P Q R S T x A A A A A A x U + V W 2 ",
"; F 3 X q H Y Z `  ...+.@.#.$.%.&.*.=.-.;.x A A A A A A >.,.: '.",
"; | ! 7 s ).!.~.{.].^./.(._.n E E :.<.#.[.}.|.A A A A A A 1.2.. ",
"3.4.{ ] H 5.6.7.8.9.0.a.+ b.c.d.e.f.g.f.h.i.j.k.A A A A A A x l.",
"3.4.{ 6 m.n.o.p.q.r.s.t.u.v.w.x.2 y.z.g.A.B.C.D.E.A A A A A A A ",
"3.4.{ F.G.H.I.J.K.L.M.C.N.O.P.Q.R.S.T.U.g.A.g.V.W.1.A A A A A A ",
"3.4.~ X.Y.Z.`. +.+:.E ++++n f.@+#+$+%+&+_.A.A.B.*+=+A A A A A A ",
"3.4.4 -+;+>+,+@+n '+)+!+~+{+]+g.B.^+/+(+< f.A.g.<._+1.A A A A A ",
"3.4.:+<+[+}+|+++1+2+3+4+5+6+u 7+g.B.8+9+0+z.A.A.:.a+b+A A A A A ",
"3.4.c+d+e+f+g+[ h+i+j+k+l+m+n+o+A.A.@+p+q+r+f.A.f.s+t+A A A A A ",
"3.4.u+v+w+x+y+z+A+B+n g.f.C+D+- E+g.:.F+G+m n A.g.H+I+A A A A A ",
"3.4.{ J+K+L+Y M+N+t A.A.A.++O+P+Q+f.n R+S+T+n A.g.U+V+A A A A A ",
"3.4.~ W+v X+g+Y+Z+`+n g.f.f. @.@+@g.++@@#@$@n A.g.%@@ A A A A A ",
"3.4.! &@*@=@y+-@;@>@V ,@'@D )@!@g.A.g.~@{@]@f.A.f.^@q+A A A A A ",
"3.4.{ /@(@_@z.:@<@[@}@|@1@2@3@4@A.n 5@6@7@/.A.A.++8@c A A A A A ",
"3.4.p 9@0@a@b@]+c@k+d@e@f@g@h@g.n i@j@k@l@f.A.A.E m@n@A A A A A ",
"3.4.p 4.o@p@q@r@s@++++:.n n n f.t@_@u@v@w@A.A.n [ x@A A A A A A ",
"3.4.{ 8 H y@z@A@B@9.r+'+C@E+D@E@F@G@H@4@g.A.g._.0+x A A A A A z ",
"3.4.{ ] H I@J@K@L@>+M@K # N@O@P@Q@R@S@g.A.f.A.E@d A A A A T@U@V@",
"; | ~ 7 W@I y+X@Y@Z@`@ #.#+#@###$#:.f.f.E %#&#i A A A A y k.*#=#",
"; | 3 -#;#>#,#|+'#)#!#~#{#]#^#Y /#U+Y (#_#:#h A A A A w <#[#}#|#",
"; F ' p 6 r >#1#2#3#4#5#C@g.:.(#6#7#8#9#0#y A A z 1.a#b#c#d#& + ",
"; = 1 3 4 6 ;#W@H e#f#g#h#i#a j@j#k#l#l.z y 1.U@m#n#o#p#q#> * + ",
"; = > ' 3 p -#6 8 r#:+s#t#+.u#v#w#x#y#z#A#B#C#D#E#F#G#1 1 > * + ",
"; = > > 1 ' 3 ~ { p p H#o I#J#K#L#M#N#O#P#Q#R#S#T#' ' , > > * 2 ",
"U#V#F F | | 4.r#W#W#W#W#W#W#r#r#4.| 4.4.| 4.r#r#r#4.| | F F F.# ",
"X#K # # # # # # # # # # # # # # # # # # # # # # # # # # # # K Y#"};
