/* XPM */
static char * terminal_xpm[] = {
"32 32 369 2",
"  	c None",
". 	c #00E6E6",
"+ 	c #00B1B1",
"@ 	c #00ADAD",
"# 	c #00B5B5",
"$ 	c #001616",
"% 	c #000A0A",
"& 	c #000B0B",
"* 	c #000C0C",
"= 	c #000D0D",
"- 	c #00B4B4",
"; 	c #00B2B2",
"> 	c #000000",
", 	c #000101",
"' 	c #000303",
") 	c #000404",
"! 	c #010606",
"~ 	c #010707",
"{ 	c #010808",
"] 	c #000606",
"^ 	c #00B0B0",
"/ 	c #010909",
"( 	c #010C0C",
"_ 	c #010E0E",
": 	c #010F0F",
"< 	c #011010",
"[ 	c #010A0A",
"} 	c #000202",
"| 	c #001717",
"1 	c #002121",
"2 	c #012424",
"3 	c #012626",
"4 	c #012929",
"5 	c #012A2A",
"6 	c #012B2B",
"7 	c #012828",
"8 	c #012727",
"9 	c #012525",
"0 	c #012222",
"a 	c #012121",
"b 	c #012020",
"c 	c #011C1C",
"d 	c #011818",
"e 	c #011414",
"f 	c #009797",
"g 	c #00C2C2",
"h 	c #00BABA",
"i 	c #00AAAA",
"j 	c #00A5A5",
"k 	c #009F9F",
"l 	c #009A9A",
"m 	c #009494",
"n 	c #008E8E",
"o 	c #008888",
"p 	c #008383",
"q 	c #007D7D",
"r 	c #007777",
"s 	c #007272",
"t 	c #006C6C",
"u 	c #006666",
"v 	c #006060",
"w 	c #005A5A",
"x 	c #005555",
"y 	c #004E4E",
"z 	c #004848",
"A 	c #004141",
"B 	c #003B3B",
"C 	c #003131",
"D 	c #000E0E",
"E 	c #000F0F",
"F 	c #00DFDF",
"G 	c #00D6D6",
"H 	c #00CFCF",
"I 	c #01C8C8",
"J 	c #01C1C1",
"K 	c #01BABA",
"L 	c #01B4B4",
"M 	c #01ADAD",
"N 	c #01A6A6",
"O 	c #01A0A0",
"P 	c #019999",
"Q 	c #019292",
"R 	c #018B8B",
"S 	c #018484",
"T 	c #017E7E",
"U 	c #017777",
"V 	c #017070",
"W 	c #016A6A",
"X 	c #016363",
"Y 	c #015C5C",
"Z 	c #015555",
"` 	c #014F4F",
" .	c #003737",
"..	c #001010",
"+.	c #00AFAF",
"@.	c #0CACAC",
"#.	c #137C7C",
"$.	c #127979",
"%.	c #127676",
"&.	c #127272",
"*.	c #126E6E",
"=.	c #126969",
"-.	c #126666",
";.	c #126262",
">.	c #125E5E",
",.	c #125A5A",
"'.	c #135555",
").	c #135151",
"!.	c #134E4E",
"~.	c #134A4A",
"{.	c #134646",
"].	c #134343",
"^.	c #134040",
"/.	c #133C3C",
"(.	c #133939",
"_.	c #133636",
":.	c #153434",
"<.	c #083D3D",
"[.	c #00B3B3",
"}.	c #011212",
"|.	c #119191",
"1.	c #086F6F",
"2.	c #037676",
"3.	c #035C5C",
"4.	c #035555",
"5.	c #035151",
"6.	c #034C4C",
"7.	c #034747",
"8.	c #034242",
"9.	c #033E3E",
"0.	c #033939",
"a.	c #033535",
"b.	c #043131",
"c.	c #042D2D",
"d.	c #042929",
"e.	c #042525",
"f.	c #042222",
"g.	c #041F1F",
"h.	c #041C1C",
"i.	c #041919",
"j.	c #031616",
"k.	c #0C1A1A",
"l.	c #0D3838",
"m.	c #001111",
"n.	c #109090",
"o.	c #059797",
"p.	c #00EAEA",
"q.	c #00B6B6",
"r.	c #007B7B",
"s.	c #005757",
"t.	c #004B4B",
"u.	c #004747",
"v.	c #004343",
"w.	c #003E3E",
"x.	c #003939",
"y.	c #003535",
"z.	c #003030",
"A.	c #002C2C",
"B.	c #002828",
"C.	c #002424",
"D.	c #001D1D",
"E.	c #001A1A",
"F.	c #001414",
"G.	c #0A1919",
"H.	c #0C3838",
"I.	c #011313",
"J.	c #109191",
"K.	c #057676",
"L.	c #00C0C0",
"M.	c #00EDED",
"N.	c #00F1F1",
"O.	c #00C5C5",
"P.	c #005252",
"Q.	c #003F3F",
"R.	c #003A3A",
"S.	c #003333",
"T.	c #002F2F",
"U.	c #002B2B",
"V.	c #002727",
"W.	c #002323",
"X.	c #001F1F",
"Y.	c #001C1C",
"Z.	c #001919",
"`.	c #001313",
" +	c #0A1818",
".+	c #00DEDE",
"++	c #109292",
"@+	c #055E5E",
"#+	c #006161",
"$+	c #007474",
"%+	c #00F5F5",
"&+	c #00D5D5",
"*+	c #009191",
"=+	c #005353",
"-+	c #002D2D",
";+	c #002929",
">+	c #002525",
",+	c #002222",
"'+	c #001E1E",
")+	c #001B1B",
"!+	c #001818",
"~+	c #001515",
"{+	c #001212",
"]+	c #0A1717",
"^+	c #055D5D",
"/+	c #005D5D",
"(+	c #005050",
"_+	c #005C5C",
":+	c #008989",
"<+	c #00C9C9",
"[+	c #00F2F2",
"}+	c #00E4E4",
"|+	c #00A3A3",
"1+	c #005B5B",
"2+	c #002020",
"3+	c #003636",
"4+	c #011111",
"5+	c #055A5A",
"6+	c #005454",
"7+	c #004F4F",
"8+	c #004242",
"9+	c #00AEAE",
"0+	c #00E7E7",
"a+	c #00ECEC",
"b+	c #00ABAB",
"c+	c #0A1616",
"d+	c #055858",
"e+	c #005858",
"f+	c #004C4C",
"g+	c #003D3D",
"h+	c #003434",
"i+	c #006565",
"j+	c #00D3D3",
"k+	c #0A1515",
"l+	c #108F8F",
"m+	c #055656",
"n+	c #004A4A",
"o+	c #004545",
"p+	c #005656",
"q+	c #00D7D7",
"r+	c #00FBFB",
"s+	c #00D4D4",
"t+	c #108E8E",
"u+	c #055353",
"v+	c #004949",
"w+	c #00E9E9",
"x+	c #00FCFC",
"y+	c #00DBDB",
"z+	c #009292",
"A+	c #0A1414",
"B+	c #055050",
"C+	c #00C4C4",
"D+	c #00F4F4",
"E+	c #00F8F8",
"F+	c #00CACA",
"G+	c #007F7F",
"H+	c #004040",
"I+	c #0A1313",
"J+	c #108C8C",
"K+	c #055454",
"L+	c #009696",
"M+	c #00D8D8",
"N+	c #00F0F0",
"O+	c #00B8B8",
"P+	c #006F6F",
"Q+	c #003C3C",
"R+	c #002A2A",
"S+	c #108B8B",
"T+	c #056060",
"U+	c #00E8E8",
"V+	c #00A7A7",
"W+	c #006363",
"X+	c #002E2E",
"Y+	c #000909",
"Z+	c #0A1212",
"`+	c #055555",
" @	c #0A1111",
".@	c #108A8A",
"+@	c #054747",
"@@	c #004444",
"#@	c #008181",
"$@	c #00E1E1",
"%@	c #00E0E0",
"&@	c #0A0D0D",
"*@	c #054545",
"=@	c #006868",
"-@	c #00ACAC",
";@	c #0A0E0E",
">@	c #118888",
",@	c #064040",
"'@	c #013E3E",
")@	c #023939",
"!@	c #023535",
"~@	c #023131",
"{@	c #022D2D",
"]@	c #022929",
"^@	c #022525",
"/@	c #022222",
"(@	c #021E1E",
"_@	c #021B1B",
":@	c #021818",
"<@	c #021515",
"[@	c #021313",
"}@	c #021010",
"|@	c #020E0E",
"1@	c #020C0C",
"2@	c #020A0A",
"3@	c #020808",
"4@	c #0C1010",
"5@	c #00DDDD",
"6@	c #0E9F9F",
"7@	c #156464",
"8@	c #136262",
"9@	c #135E5E",
"0@	c #135B5B",
"a@	c #135757",
"b@	c #135454",
"c@	c #134B4B",
"d@	c #134747",
"e@	c #134545",
"f@	c #133D3D",
"g@	c #133A3A",
"h@	c #133737",
"i@	c #133434",
"j@	c #133131",
"k@	c #132F2F",
"l@	c #122C2C",
"m@	c #152D2D",
"n@	c #093B3B",
"o@	c #01D2D2",
"p@	c #02C9C9",
"q@	c #02C2C2",
"r@	c #02BCBC",
"s@	c #02B5B5",
"t@	c #02AEAE",
"u@	c #02A8A8",
"v@	c #02A1A1",
"w@	c #029B9B",
"x@	c #029494",
"y@	c #028E8E",
"z@	c #028888",
"A@	c #028282",
"B@	c #027B7B",
"C@	c #027474",
"D@	c #026E6E",
"E@	c #026767",
"F@	c #026161",
"G@	c #025A5A",
"H@	c #025454",
"I@	c #024D4D",
"J@	c #024646",
"K@	c #00BDBD",
"L@	c #00B7B7",
"M@	c #00A6A6",
"N@	c #00A0A0",
"O@	c #008282",
"P@	c #007C7C",
"Q@	c #007676",
"R@	c #007070",
"S@	c #006A6A",
"T@	c #006464",
"U@	c #005E5E",
"V@	c #012D2D",
"W@	c #012C2C",
"X@	c #012323",
"Y@	c #011F1F",
"Z@	c #010D0D",
"`@	c #010B0B",
" #	c #000505",
". + @ @ @ @ @ @ @ @ @ @ @ @ @ @ @ @ @ @ @ @ @ @ @ @ @ @ @ @ + . ",
"# $ % % & & * = = = = = = = = = = = = = = = = = * * & & % % $ - ",
"; = > > , ' ) ! ~ { { { { { { { { { { { { { { ~ ] ) ' , > > * ^ ",
"; = > , ' ! / ( _ : : : < < < < < < < < < < : _ ( [ ~ ) } > * + ",
"; = } | 1 2 3 4 5 6 5 5 4 4 7 8 8 3 9 2 2 0 a b c d e : % } * + ",
"; = * f g h # ^ i j k l m n o p q r s t u v w x y z A B C = * + ",
"; D E ^ F G H I J K L M N O P Q R S T U V W X Y Z ` z A  ...= + ",
"; D < +.F @.#.$.%.&.*.=.-.;.>.,.'.).!.~.{.].^./.(._.:.<. ...= + ",
"[.E }.^ F |.1.2.3.4.5.6.7.8.9.0.a.b.c.d.e.f.g.h.i.j.k.l. .m.D + ",
"[...}.^ F n.o.p.q.r.s.t.u.v.w.x.y.z.A.B.C.1 D.E.| F.G.H. .m.D + ",
"[...I.^ F J.K.L.M.N.O.p P.Q.R. .S.T.U.V.W.X.Y.Z.$ `. +H. .m.E + ",
"[...I.^ .+++@+#+$+j .+%+&+*+=+y.T.-+;+>+,+'+)+!+~+{+]+H. .m.E + ",
"[...I.^ .+J.^+/+x (+_+:+<+[+}+|+1+C V.C.2+D.E.$ F.m.]+H.3+4+E + ",
"[...I.^ .+J.5+w 6+7+z 8+u.t 9+0+a+b+S.1 X.)+!+~+`...c+H.3+4+E + ",
"[...e ^ .+n.d+e+P.f+u.8+g+h+h+i+j+0+g+X.D.E.| F.m.E k+H.3+}.E + ",
"[...e ^ .+l+m+x 7+n+o+g+g+p+m q+r+s+ .'+Y.Z.$ `...D k+H.3+4+E + ",
"[...e ^ .+t+u+=+f+o+v+t @ w+x+y+z+z W.D.E.| ~+{+E = A+H.3+4+E + ",
"[...e ^ .+t+B+y s.p C+D+E+F+G+H+>+1 X.Y.Z.$ `.m.D & I+H.3+4+E + ",
"[...e ^ .+J+K+L+M+r+N+O+P+Q+R+V.>+1 '+)+| ~+{+..= & I+H.3+4+E + ",
"[...I.^ .+S+T+U+. V+W+B z.X+U.V.,+'+)+!+~+{+E = % Y+Z+H.3+4+E + ",
"[...I.^ .+S+`+o _+w. .y.C A.;+>+A.h+C T.A.R+V.>+W.m. @H.3+m.E + ",
"[...I.^ .+.@+@@@Q.Q+ .S.X+R+V.1 #@}+$@$@$@%@%@%@%@s.&@H.3+m.E + ",
"[...}.+..+.@*@v.w.x.y.C A.B.>+2+=@; +.9+@ @ -@b+b+v.;@H.y.m.D + ",
"[.E }.+..+>@,@'@)@!@~@{@]@^@/@(@_@:@<@[@}@|@1@2@3@! 4@H.3+..D + ",
"; E 4+9+5@6@7@8@9@0@a@b@).!.c@d@e@].^.f@g@h@i@j@k@l@m@n@y...D + ",
"; D E +..+o@p@q@r@s@t@u@v@w@x@y@z@A@B@C@D@E@F@G@H@I@J@Q.y.E = + ",
"; = * l O.K@L@+ -@M@N@l m n o O@P@Q@R@S@T@U@e+P.f+o+Q.x.T.= * + ",
"; = ' E.2 8 4 6 V@W@W@6 5 4 7 7 8 3 9 2 X@0 a Y@c d e : & ' * + ",
"; = > , ' ~ [ Z@: < 4+4+4+4+}.}.}.}.}.4+4+4+4+< _ `@{  #} > * + ",
"; = > > } '  #~ { / / / / / / / / / / / / / { { ~  #' , > > * ^ ",
"L@E.D D E E ..m.{+{+{+{+{+{+{+{+{+{+{+{+{+{+{+{+m...E E D D Z.# ",
"w+O+# # # # # # # # # # # # # # # # # # # # # # # # # # # # O+U+"};
