/* XPM */
static char * xchat_xpm[] = {
"32 32 233 2",
"  	c None",
". 	c #00E6E6",
"+ 	c #00B1B1",
"@ 	c #00ADAD",
"# 	c #00B5B5",
"$ 	c #001616",
"% 	c #000A0A",
"& 	c #000B0B",
"* 	c #000C0C",
"= 	c #000D0D",
"- 	c #00B4B4",
"; 	c #00B2B2",
"> 	c #000000",
", 	c #000101",
"' 	c #000303",
") 	c #000404",
"! 	c #010606",
"~ 	c #010707",
"{ 	c #010808",
"] 	c #000606",
"^ 	c #00B0B0",
"/ 	c #000202",
"( 	c #000505",
"_ 	c #010A0A",
": 	c #010D0D",
"< 	c #010F0F",
"[ 	c #011010",
"} 	c #011313",
"| 	c #011B1B",
"1 	c #012121",
"2 	c #012323",
"3 	c #011A1A",
"4 	c #011111",
"5 	c #010E0E",
"6 	c #010909",
"7 	c #011212",
"8 	c #011515",
"9 	c #011717",
"0 	c #011818",
"a 	c #012222",
"b 	c #013B3B",
"c 	c #005A5A",
"d 	c #007171",
"e 	c #008181",
"f 	c #008D8D",
"g 	c #009393",
"h 	c #009494",
"i 	c #008080",
"j 	c #016464",
"k 	c #013E3E",
"l 	c #012020",
"m 	c #011414",
"n 	c #000E0E",
"o 	c #011919",
"p 	c #011D1D",
"q 	c #012A2A",
"r 	c #014E4E",
"s 	c #007373",
"t 	c #008686",
"u 	c #009090",
"v 	c #009595",
"w 	c #009A9A",
"x 	c #009F9F",
"y 	c #00A4A4",
"z 	c #00A9A9",
"A 	c #00AEAE",
"B 	c #00B7B7",
"C 	c #009696",
"D 	c #015959",
"E 	c #012424",
"F 	c #010B0B",
"G 	c #013F3F",
"H 	c #006B6B",
"I 	c #008A8A",
"J 	c #008F8F",
"K 	c #009999",
"L 	c #009E9E",
"M 	c #00A3A3",
"N 	c #00A8A8",
"O 	c #00BCBC",
"P 	c #00C3C3",
"Q 	c #00C1C1",
"R 	c #014040",
"S 	c #000F0F",
"T 	c #011616",
"U 	c #014949",
"V 	c #007C7C",
"W 	c #008585",
"X 	c #008B8B",
"Y 	c #00B9B9",
"Z 	c #00BEBE",
"` 	c #00C4C4",
" .	c #00C9C9",
"..	c #00CDCD",
"+.	c #00B6B6",
"@.	c #015353",
"#.	c #00B3B3",
"$.	c #001010",
"%.	c #014444",
"&.	c #006E6E",
"*.	c #007676",
"=.	c #007B7B",
"-.	c #008383",
";.	c #006C6C",
">.	c #006666",
",.	c #007070",
"'.	c #00A7A7",
").	c #008282",
"!.	c #008484",
"~.	c #00D3D3",
"{.	c #00C0C0",
"].	c #014C4C",
"^.	c #013232",
"/.	c #006767",
"(.	c #005959",
"_.	c #003030",
":.	c #003636",
"<.	c #003939",
"[.	c #006363",
"}.	c #00A2A2",
"|.	c #003737",
"1.	c #002121",
"2.	c #005F5F",
"3.	c #00D1D1",
"4.	c #00D7D7",
"5.	c #012B2B",
"6.	c #005555",
"7.	c #007F7F",
"8.	c #004C4C",
"9.	c #004646",
"0.	c #005353",
"a.	c #005050",
"b.	c #004949",
"c.	c #00CCCC",
"d.	c #00D0D0",
"e.	c #00D5D5",
"f.	c #00DBDB",
"g.	c #012E2E",
"h.	c #006565",
"i.	c #007272",
"j.	c #005656",
"k.	c #005D5D",
"l.	c #006060",
"m.	c #007878",
"n.	c #006161",
"o.	c #004B4B",
"p.	c #00C7C7",
"q.	c #00CBCB",
"r.	c #00DCDC",
"s.	c #00C6C6",
"t.	c #004444",
"u.	c #006868",
"v.	c #006D6D",
"w.	c #007575",
"x.	c #007A7A",
"y.	c #007777",
"z.	c #00AAAA",
"A.	c #00DADA",
"B.	c #00DDDD",
"C.	c #016161",
"D.	c #005252",
"E.	c #007D7D",
"F.	c #008787",
"G.	c #008C8C",
"H.	c #005757",
"I.	c #00A0A0",
"J.	c #00E1E1",
"K.	c #009191",
"L.	c #008989",
"M.	c #009797",
"N.	c #00E2E2",
"O.	c #008E8E",
"P.	c #009292",
"Q.	c #00B8B8",
"R.	c #005151",
"S.	c #006969",
"T.	c #007E7E",
"U.	c #00AFAF",
"V.	c #00BDBD",
"W.	c #004242",
"X.	c #006F6F",
"Y.	c #015C5C",
"Z.	c #004040",
"`.	c #005B5B",
" +	c #005858",
".+	c #00C2C2",
"++	c #012626",
"@+	c #004F4F",
"#+	c #002D2D",
"$+	c #002B2B",
"%+	c #002F2F",
"&+	c #003333",
"*+	c #004747",
"=+	c #017A7A",
"-+	c #006262",
";+	c #002A2A",
">+	c #002020",
",+	c #002525",
"'+	c #002C2C",
")+	c #003838",
"!+	c #003535",
"~+	c #00ACAC",
"{+	c #012525",
"]+	c #013C3C",
"^+	c #007474",
"/+	c #00A6A6",
"(+	c #009C9C",
"_+	c #009D9D",
":+	c #00D2D2",
"<+	c #014242",
"[+	c #012727",
"}+	c #003C3C",
"|+	c #006464",
"1+	c #011F1F",
"2+	c #002828",
"3+	c #009B9B",
"4+	c #010C0C",
"5+	c #007979",
"6+	c #015F5F",
"7+	c #014141",
"8+	c #012C2C",
"9+	c #006A6A",
"0+	c #014B4B",
"a+	c #012D2D",
"b+	c #013030",
"c+	c #013636",
"d+	c #010505",
"e+	c #001A1A",
"f+	c #001111",
"g+	c #001212",
"h+	c #001919",
"i+	c #00E9E9",
"j+	c #00E8E8",
". + @ @ @ @ @ @ @ @ @ @ @ @ @ @ @ @ @ @ @ @ @ @ @ @ @ @ @ @ + . ",
"# $ % % & & * = = = = = = = = = = = = = = = = = * * & & % % $ - ",
"; = > > , ' ) ! ~ { { { { { { ~ ~ ~ { { { { { ~ ] ) ' , > > * ^ ",
"; = > / ( ~ _ : < [ [ < < } | 1 2 1 3 4 5 5 < < : _ ~ ) / > * + ",
"; = , ( 6 : 7 8 9 0 a b c d e f g h f i j k l 8 m 4 : { ) , * + ",
"; n ' { : m o p q r s t u v w x y z A - B ; C D E 9 } : ~ ' = + ",
"; n ( F 7 3 l G H i t I J h K L M N @ ; B O P Q C R 9 4 _ ) = + ",
"; S ! 5 T l U d V i W X u v w L M N @ ; Y Z `  ...+.@.m : ] n + ",
"#.$.{ [ o %.&.*.=.i -.;.>.;.,.J M N A '.W e ).!.O ~.{.].: ~ n + ",
"#.$.{ [ ^./.d *.=.i !.(._.:.<.[.}.z N H |._.1.2.P 3.4.+.5.! S + ",
"#.$.{ 9 6.;.d *.=.i W 7.8.9.8.0.u N 7.a.b.:.c O c.d.e.f.!.{ S + ",
"#.$.{ g.h.;.d *.=.i W I i.j.k.l.m.f /.n.o.j.#.p.q.d.e.r.s.5.= + ",
"#.$.6 t.u.;.d *.=.i W I I &.v.w.x.V y.n.6.z.P s.q.d.e.A.B.C.* + ",
"#.$.< D./.;.d *.=.i W I J t E.F.G.X y.H.I.Z Q s.q.d.e.A.J.G.n + ",
"#.$.7 j./.;.d *.=.i W I J K.L.g w M.d g Y O Q s.q.d.e.A.N.x $.+ ",
"#.$.7 j.u.;.d *.=.i W I O.!.i f g P.W M.Q.O Q s.q.d.e.A.N.L $.+ ",
"#.$.< R.u.;.d *.=.i W I m.S.s s E.).T.=.U.V.Q s.q.d.e.A.J.L.n + ",
"#.$.6 W.u.;.d *.=.i W X.0.c H.a.x.X.&./.O.V.Q s.q.d.e.A.r.Y.* + ",
"#.$.{ q [.;.d *.=.i u.Z.W.t.Z.F.v [.`. +n.U..+s.q.d.e.r..+++n + ",
"#.$.6 8 @+v.d *.=.n.#+$+%+&+V I.}.X.*+9.Z.7..+s.q.d.e.A.=+~ S + ",
"#.$.6 4 5.-+i.y.>.;+>+,+'+,.w L y J W.)+!+8.; p.q.d.4.~+{+~ S + ",
"#.$.6 7 3 ]+H y.^+d *.x.).h K L M /+(+_+}.'.V.s.q.:+Q.<+< { S + ",
"#.$.{ 4 3 2 W.;.V e t X u h K L M N A #.Q.V.Q p.c.~+U 0 [ { S + ",
"#.$.{ [ o a [+}+|+T.W I J h K L M N @ ; B V.P V.X ]+1+0 [ ~ n + ",
"; S ~ 5 9 1+{+2+)+*.t I J v 3+x y z U.#.# @ f j.'+E 1+T 5 ! n + ",
"; S ( 4+} | 1 E *+T.W X L.,.5+W G.f t m.6+7+5.++{+1 3 } F ( = + ",
"; n ' 6 < 8 o 8+9+e t V 0+E ++5.a+8+++a 1 a 2 a 1+| m 5 { ' = + ",
"; = / ( 6 7 b+-+5+s (.g.3 | | | | | | | | | | o 9 } 5 6 ( , * + ",
"; = > ' ( o R %.c+1 7 4 7 } } } } } } 7 7 7 4 [ 5 4+{ ( / > * + ",
"; = > > / ) ( d+! { 6 6 6 6 6 6 6 6 6 6 6 6 { { ~ ( ' , > > * ^ ",
"B e+n n S S $.f+g+g+g+g+g+g+g+g+g+g+g+g+g+g+g+g+f+$.S S n n h+# ",
"i+Q.# # # # # # # # # # # # # # # # # # # # # # # # # # # # Q.j+"};
