/* XPM */
static char * lock_xpm[] = {
"48 48 263 2",
"  	c None",
". 	c #00FEFE",
"+ 	c #00F1F1",
"@ 	c #00ECEC",
"# 	c #006F6F",
"$ 	c #003C3C",
"% 	c #003E3E",
"& 	c #003F3F",
"* 	c #004040",
"= 	c #004141",
"- 	c #004242",
"; 	c #014242",
"> 	c #014141",
", 	c #014040",
"' 	c #000000",
") 	c #000101",
"! 	c #000202",
"~ 	c #000303",
"{ 	c #010404",
"] 	c #010505",
"^ 	c #010303",
"/ 	c #010202",
"( 	c #010A0A",
"_ 	c #011616",
": 	c #011E1E",
"< 	c #012121",
"[ 	c #012222",
"} 	c #012020",
"| 	c #011C1C",
"1 	c #011212",
"2 	c #010606",
"3 	c #000404",
"4 	c #00EDED",
"5 	c #000505",
"6 	c #010707",
"7 	c #010909",
"8 	c #010B0B",
"9 	c #010C0C",
"0 	c #010D0D",
"a 	c #014949",
"b 	c #007171",
"c 	c #008C8C",
"d 	c #00A1A1",
"e 	c #00AFAF",
"f 	c #00B5B5",
"g 	c #00B7B7",
"h 	c #00B3B3",
"i 	c #00ACAC",
"j 	c #009A9A",
"k 	c #008484",
"l 	c #016464",
"m 	c #013838",
"n 	c #011919",
"o 	c #010808",
"p 	c #000606",
"q 	c #010F0F",
"r 	c #011111",
"s 	c #011010",
"t 	c #013B3B",
"u 	c #007A7A",
"v 	c #00ABAB",
"w 	c #00BBBB",
"x 	c #00BEBE",
"y 	c #00BDBD",
"z 	c #00B8B8",
"A 	c #00B6B6",
"B 	c #00BABA",
"C 	c #00BFBF",
"D 	c #009F9F",
"E 	c #016363",
"F 	c #012929",
"G 	c #010E0E",
"H 	c #000707",
"I 	c #011515",
"J 	c #011717",
"K 	c #013C3C",
"L 	c #008888",
"M 	c #00B2B2",
"N 	c #00ADAD",
"O 	c #00AEAE",
"P 	c #00B0B0",
"Q 	c #00C0C0",
"R 	c #016D6D",
"S 	c #012626",
"T 	c #011414",
"U 	c #011818",
"V 	c #00B4B4",
"W 	c #00C1C1",
"X 	c #00A9A9",
"Y 	c #00A7A7",
"Z 	c #00A4A4",
"` 	c #00A3A3",
" .	c #00A2A2",
"..	c #00A5A5",
"+.	c #00AAAA",
"@.	c #00C2C2",
"#.	c #014B4B",
"$.	c #011313",
"%.	c #011A1A",
"&.	c #011B1B",
"*.	c #013737",
"=.	c #009191",
"-.	c #00A8A8",
";.	c #00A0A0",
">.	c #009E9E",
",.	c #009B9B",
"'.	c #009999",
").	c #009C9C",
"!.	c #00A6A6",
"~.	c #00C3C3",
"{.	c #016E6E",
"].	c #014343",
"^.	c #00C4C4",
"/.	c #009898",
"(.	c #009595",
"_.	c #009292",
":.	c #009090",
"<.	c #009393",
"[.	c #009696",
"}.	c #009D9D",
"|.	c #018383",
"1.	c #00C6C6",
"2.	c #00BCBC",
"3.	c #009797",
"4.	c #008F8F",
"5.	c #008989",
"6.	c #008787",
"7.	c #008686",
"8.	c #008A8A",
"9.	c #008D8D",
"0.	c #00B1B1",
"a.	c #00C7C7",
"b.	c #018484",
"c.	c #012323",
"d.	c #004343",
"e.	c #013333",
"f.	c #008B8B",
"g.	c #008383",
"h.	c #008080",
"i.	c #007E7E",
"j.	c #007C7C",
"k.	c #007D7D",
"l.	c #007F7F",
"m.	c #008181",
"n.	c #008585",
"o.	c #00B9B9",
"p.	c #017676",
"q.	c #00C8C8",
"r.	c #008282",
"s.	c #007B7B",
"t.	c #00C5C5",
"u.	c #015454",
"v.	c #015E5E",
"w.	c #007979",
"x.	c #00DBDB",
"y.	c #00F0F0",
"z.	c #00EFEF",
"A.	c #00E7E7",
"B.	c #007777",
"C.	c #00C9C9",
"D.	c #012C2C",
"E.	c #004444",
"F.	c #012F2F",
"G.	c #009494",
"H.	c #007878",
"I.	c #007272",
"J.	c #00F6F6",
"K.	c #00FFFF",
"L.	c #00D5D5",
"M.	c #007474",
"N.	c #00CBCB",
"O.	c #017272",
"P.	c #00CACA",
"Q.	c #008E8E",
"R.	c #007070",
"S.	c #00D8D8",
"T.	c #00D4D4",
"U.	c #00FAFA",
"V.	c #006B6B",
"W.	c #006969",
"X.	c #00EBEB",
"Y.	c #005555",
"Z.	c #004F4F",
"`.	c #00F2F2",
" +	c #006363",
".+	c #006D6D",
"++	c #00CDCD",
"@+	c #006A6A",
"#+	c #006262",
"$+	c #006E6E",
"%+	c #004848",
"&+	c #004646",
"*+	c #006868",
"=+	c #005C5C",
"-+	c #006767",
";+	c #012424",
">+	c #007676",
",+	c #006565",
"'+	c #005B5B",
")+	c #003D3D",
"!+	c #006161",
"~+	c #00EEEE",
"{+	c #006060",
"]+	c #015656",
"^+	c #010000",
"/+	c #005F5F",
"(+	c #005656",
"_+	c #00EAEA",
":+	c #003737",
"<+	c #003535",
"[+	c #003434",
"}+	c #005A5A",
"|+	c #006464",
"1+	c #00D0D0",
"2+	c #014A4A",
"3+	c #005959",
"4+	c #004E4E",
"5+	c #00E9E9",
"6+	c #002C2C",
"7+	c #002929",
"8+	c #002828",
"9+	c #005050",
"0+	c #004747",
"a+	c #005454",
"b+	c #005E5E",
"c+	c #00CCCC",
"d+	c #006C6C",
"e+	c #006666",
"f+	c #00CFCF",
"g+	c #00F7F7",
"h+	c #00F8F8",
"i+	c #00FBFB",
"j+	c #00F9F9",
"k+	c #00DCDC",
"l+	c #007575",
"m+	c #00CECE",
"n+	c #015353",
"o+	c #015252",
"p+	c #011F1F",
"q+	c #014646",
"r+	c #007373",
"s+	c #014444",
"t+	c #014F4F",
"u+	c #012525",
"v+	c #016868",
"w+	c #013030",
"x+	c #012A2A",
"y+	c #00D3D3",
"z+	c #00D2D2",
"A+	c #00D1D1",
"B+	c #00D6D6",
"C+	c #015555",
"D+	c #012727",
"E+	c #016565",
"F+	c #013535",
"G+	c #011D1D",
"H+	c #013636",
"I+	c #015D5D",
"J+	c #015C5C",
"K+	c #013F3F",
"L+	c #010101",
"M+	c #004545",
"N+	c #00F3F3",
". + @ @ @ @ @ @ @ @ @ @ @ @ @ @ @ @ @ @ @ @ @ @ @ @ @ @ @ @ @ @ @ @ @ @ @ @ @ @ @ @ @ @ @ @ + . ",
"+ # $ % % & & * * * = = = - - - - ; - - = > , , , , , > - ; - - - - - = = = * * & & & % % $ # + ",
"@ * ' ' ' ' ' ' ) ! ~ { { ] ] ] ] { ^ / ( _ : < [ } | 1 2 / ^ { ] ] ] { 3 ~ ! ) ' ' ' ' ' ' * @ ",
"4 * ' ) ) ~ 3 5 6 7 ( 8 9 9 9 ( 0 [ a b c d e f g h i j k l m n ( 8 9 9 8 7 o 2 5 3 ! ) ' ' * 4 ",
"4 * ' ! ~ 3 p 7 8 0 q r r s _ t u v w x y z A f f f g B C y w D E F r s s G 9 ( o p 3 ! ) ' * 4 ",
"4 = ' ~ 5 H ( 0 s 1 I _ J K L A C w f M e N i v v v i O P h g x Q O R S T T r G 9 7 p 3 ! ' * 4 ",
"4 = ' 3 p ( 0 r I U n S R V W w f P i X Y Z `  . . .` ..Y +.O M g x @.d #.n _ $.s 9 7 5 ~ ' = 4 ",
"4 - ' p 7 0 r I %.&.*.=.W x g M i -.Z ;.>.,.j '.'.'.j ).D  .!.+.e V B ~.B {.< J T q 8 o 5 ' = 4 ",
"4 - ) 6 8 s I %.| ]...^.y A e +.Z ;.,./.(._.=.:.:.:.=.<.[.'.}. .Y i M z W ^.|.S J $.G ( p ' - 4 ",
"4 - ! 7 0 1 U &., X 1.2.f O -. .}.3.<.4.c 5.L 6.7.6.L 8.9.=.(.j D ..v 0.z Q a.b.c.I s 8 6 ) - 4 ",
"4 d.~ ( q I n e.d a.x A O Y d ,.(.4.f.6.g.h.i.j.j.k.l.m.n.L 9._.3.}.Z +.M o.W a.p.n 1 0 o ! - 4 ",
"4 d.{ 8 r _ < L q.Q g e -.d j <.9.L r.i.u h.k k k k g.j.s.h.n.8.:.[.}.Z i h w t.W u.1 G 7 ! - 4 ",
"4 d.] 9 1 _ v.~.^.B M X  .j <.c 7.h.u w.!.x.4 y.y.z.A.^.L B.k.r.5.4.[.>...N A x C.i D.0 ( ~ d.4 ",
"4 E.] 0 r F.i C.x f i Z ).G.9.n.i.H.I.` J.K.K.K.K.K.K.K.L.j.M.s.m.L :.3.;.-.P o.@.N.k.r ( ^ d.4 ",
"4 E.] 9 r O.P.~.o.P Y D [.Q.7.l.B.R.M.S.K.z.2.h h h T.. U.}.V.M.s.r.5._.j ` v V y q.2.*.o 3 d.4 ",
"4 E.] 8 F P C.x f i ` j =.5.h.H.b W.M.X.K.w Y.Z.Z.Z.H.`.K.N  +.+M.j.k c (.>.Y P o.~.++i.9 ^ d.4 ",
"4 E.] ( v.C.t.w 0.-.>.(.c g.s.I.@+#+$+@ K.e %+&+&+&+*+z.K.i =+-+$+B.l.6.:.'.` i A C N.f ;+/ d.4 ",
"4 E.] $.<.++W g O Z j =.L l.>+.+,+'+*+X.K.i * % )+)+!+~+K.-.Y.{+W.b u g.c [.D X M 2.1.P.]+^+d.4 ",
"4 E.{ S g P.x V v d 3.9.k s.b *+/+(+#+_+K.-.:+<+[+[+}+4 K...Z.'+|+.+>+l.L _.)...e o.~.1+k { - 4 ",
"4 E.^ 2+1.a.2.M -.>.G.8.m.B..+ +3+4+'+5+K.` 6+7+8+8+9+@ K.d 0+a+b+*+I.j.n.4.'.` N g W ++X $.- 4 ",
"4 E./ -+c+^.B P !.)._.L i.M.W.d+6.7.Q.y.K.C d+@+W.W.7.`.K.x m.5.s.e+# w.r.9.3.d v f C P.C } = 4 ",
"4 E.^ j.f+~.o.O Z j :.7.j.b |+ .g+h+h+. K.i+J.J.J.J.h+. K.i+g+j+k+R.V.>+h.f.(.D X h x C.1.m * 4 ",
"4 d.6 8.f+@.z N ` '.Q.k u R.#+O K.K.K.K.K.K.K.K.K.K.K.K.K.K.K.K.@ I.W.l+l.5.G.>.-.M y q.C.2+* 4 ",
"4 d.8 =.m+W g N  ./.Q.k w.# !+N K.K.K.K.K.K.K.K.K.K.K.K.K.K.K.K.@ b *+M.i.5.<.}.-.M 2.a.N.n+& 4 ",
"4 d.8 =.m+W g i  ./.9.g.w.$+!+N K.K.K.K.K.K.K.K.K.K.K.K.K.K.K.K.@ b *+M.i.L <.}.-.0.2.a.P.o+& 4 ",
"4 d.6 5.f+@.g N ` /.Q.k u # #+N K.K.K.K.K.K.K.K.K.K.K.K.K.K.K.K.@ b W.M.l.5.<.>.-.M 2.a.C.a * 4 ",
"4 E.^ s.f+@.z O ` '.4.n.s.R. +O K.K.K.K.K.K.K.K.K.K.K.K.K.K.K.K.@ I.@+l+h.8.G.>.X h y q.t.*.* 4 ",
"4 E./ |+N.^.o.e ..,.=.7.j.I.,+e K.K.K.K.K.K.K.K.K.K.K.K.K.K.K.K.@ l+d+B.r.c [.;.+.V x P.w p+= 4 ",
"4 E.^ q+^.1.w 0.Y }.<.5.l.l+*+P K.K.K.K.K.K.K.K.K.K.K.K.K.K.K.K.@ B.# u k Q./. .i A Q c+Z 1 - 4 ",
"4 E.{ c.0.C.y h X D (.c r.H.d+M K.K.K.K.K.K.K.K.K.K.K.K.K.K.K.K.4 s.r+k.6.=.j Z O z @.m+i.^ - 4 ",
"4 s+] r f.N.C A i  ./.4.7.j.R.f K.K.K.K.K.K.K.K.K.K.K.K.K.K.K.K.4 l.B.m.8.G.>.Y 0.w t.a.t+^+d.4 ",
"4 E.] ( ]+t.~.o.e ..).<.8.m.l+g K.K.K.K.K.K.K.K.K.K.K.K.K.K.K.K.~+g.s.n.Q./.d v V x C.N p+/ d.4 ",
"4 E.] 9 u+-.a.2.h X ;.3.Q.7.s.B K.K.K.K.K.K.K.K.K.K.K.K.K.K.K.K.z.L m.8.<.)...O z W P.l+8 ^ d.4 ",
"4 E.] 0 r v+1.Q g O ..).<.f.h.2.K.K.K.K.K.K.K.K.K.K.K.K.K.K.K.K.z.9.7.4./.;.X M 2.a.V w+o ~ d.4 ",
"4 E.] 0 r x+ .1.w M X d '.:.6.d y+T.z+1+f+m+++++++++m+m+1+A+y+B+W f.9.(.}.!.O g Q 1.I.s ( ^ d.4 ",
"4 d.{ 9 1 I C+y W g e !.>.3.4.L 7.m.j.B.r+R.$+.+.+$+# I.l+u l.k 6.c <.,. .v h 2.1. .D+G ( ~ d.4 ",
"4 d.{ 8 r _ } s.@.y V i Z }.[.4.5.g.i.w.l+I.R.# # R.b M.B.j.h.7.c <.j d -.P o.@.A 2+1 G 7 ! - 4 ",
"4 d.~ ( q T n D.=.@.B M v Z }.[.:.f.7.r.l.j.u w.w.w.s.k.h.k 5.Q.G.j ;.Y e A Q 2.E+U 1 0 o ! - 4 ",
"4 - ! 7 0 1 J &.F+/.Q o.0.+.Z >./.<.4.f.6.n.g.r.r.r.k 7.5.9.=.[.,.d Y O f x y O.G+I s 8 6 ) - 4 ",
"4 - ) 6 8 q T n | H+=.x o.M v ..;.,.3.<.:.Q.c f.f.f.9.4._.(.'.>.` -.e f y z R < _ 1 0 7 5 ' = 4 ",
"4 = ' 5 o 9 s I n %.F.l.g B h N -.` D ).'.3.(.G.G.(.[./.j >. .!.v P g x +.I+: _ $.q 8 6 3 ' = 4 ",
"4 = ' 3 p 7 9 s $.J J } J+;.B A P i -... .;.>.}.}.>.D d ` !.+.O V B A f.K+J I 1 q 8 o 5 ~ ' = 4 ",
"4 = ' ! 3 p 7 9 G r $.T T F.R.Z z A 0.N v X Y !.!.Y -.+.i e V o.f G.]+: 1 1 s 0 8 o 5 ~ ! ' * 4 ",
"4 * ' ) ! 3 p o ( 9 0 q q G r F.E+:.i f A V M 0.0.0.h f g h !.r.o+: G q q 0 8 7 6 5 3 ! ) ' * 4 ",
"4 * ' ' ) ! 3 5 p 6 7 ( ( 8 8 ( 7 J *.I+u f./.;. .}.G.n.b t+F s 7 ( 8 ( 7 o 6 p 3 ~ ! ) ' ' * 4 ",
"@ * ' ' ' ' ' ' ' ) ! ^ ~ ^ { { ^ ^ L+L+2 G T J n _ 1 8 ^ ^+/ ^ { { ~ ^ ! ! ) ' ' ' ' ' ' ' * @ ",
"`.M.d.M+M+M+&+&+0+0+0+%+%+%+%+%+%+%+%+%+0+0+0+0+&+0+0+0+%+%+%+%+%+%+%+%+%+0+0+0+&+M+M+M+M+d.M.`.",
". N+~+~+~+~+~+z.z.z.z.z.z.z.z.z.z.z.z.z.z.z.z.z.z.z.z.z.z.z.z.z.z.z.z.z.z.z.z.z.z.~+~+~+~+~+N+. "};
