<svg xmlns="http://www.w3.org/2000/svg" height="64" width="64">
    <path d="M11.67 56.08c0 1.71 1.71 3.42 3.417 3.42h33.996c1.709 0 3.417-1.71 3.417-3.42V27.017c0-1.71 0-1.71-1.708-3.42L35.417 8.21C34.51 7.524 33.708 6.5 32 6.5H14.917c-1.709 0-3.417 1.71-3.417 3.42z" fill="#323232" stroke="#323232"/>
    <path fill="#19FEFE" d="M15 59h34v1H15z"/>
        <g
      transform="scale(2 2) translate(8 11)"
     id="g2522">     <path d="M2.303.53l-.414 2.433-.418-.884-1.206.691a2.176 2.185 0 0 0 .032.096l1.051-.486.64 1.324.49-3.034 1.49-.028a2.176 2.185 0 0 0-.075-.087z" fill="#19FEFE"/>
    </g>
</svg>
