/* XPM */
static char * system_lock_screen_xpm[] = {
"32 32 226 2",
"  	c None",
". 	c #00E7E7",
"+ 	c #00B4B4",
"@ 	c #00B0B0",
"# 	c #00B1B1",
"$ 	c #00AFAF",
"% 	c #00B5B5",
"& 	c #001717",
"* 	c #000B0B",
"= 	c #000C0C",
"- 	c #000E0E",
"; 	c #000F0F",
"> 	c #001010",
", 	c #001111",
"' 	c #011212",
") 	c #011010",
"! 	c #011111",
"~ 	c #011919",
"{ 	c #012727",
"] 	c #012E2E",
"^ 	c #012F2F",
"/ 	c #012B2B",
"( 	c #011F1F",
"_ 	c #011313",
": 	c #010F0F",
"< 	c #000D0D",
"[ 	c #00B2B2",
"} 	c #000000",
"| 	c #000202",
"1 	c #000404",
"2 	c #010707",
"3 	c #010A0A",
"4 	c #010C0C",
"5 	c #010B0B",
"6 	c #014747",
"7 	c #007676",
"8 	c #009595",
"9 	c #00A5A5",
"0 	c #00ADAD",
"a 	c #00AEAE",
"b 	c #00AAAA",
"c 	c #009D9D",
"d 	c #008686",
"e 	c #015D5D",
"f 	c #012A2A",
"g 	c #010D0D",
"h 	c #010909",
"i 	c #010606",
"j 	c #000606",
"k 	c #010E0E",
"l 	c #015C5C",
"m 	c #009C9C",
"n 	c #00B8B8",
"o 	c #00B9B9",
"p 	c #00B3B3",
"q 	c #00BBBB",
"r 	c #007D7D",
"s 	c #013232",
"t 	c #000505",
"u 	c #011515",
"v 	c #011818",
"w 	c #013C3C",
"x 	c #009393",
"y 	c #00BCBC",
"z 	c #00A9A9",
"A 	c #00A2A2",
"B 	c #00A0A0",
"C 	c #00A1A1",
"D 	c #00A3A3",
"E 	c #00A7A7",
"F 	c #00BEBE",
"G 	c #016060",
"H 	c #011C1C",
"I 	c #010808",
"J 	c #011B1B",
"K 	c #015151",
"L 	c #009898",
"M 	c #009494",
"N 	c #009292",
"O 	c #009696",
"P 	c #009B9B",
"Q 	c #00BABA",
"R 	c #017D7D",
"S 	c #012222",
"T 	c #014F4F",
"U 	c #00BFBF",
"V 	c #00A8A8",
"W 	c #009F9F",
"X 	c #009797",
"Y 	c #009090",
"Z 	c #008A8A",
"` 	c #008383",
" .	c #008585",
"..	c #008989",
"+.	c #008E8E",
"@.	c #00A4A4",
"#.	c #00C2C2",
"$.	c #017F7F",
"%.	c #001212",
"&.	c #013737",
"*.	c #00ACAC",
"=.	c #00C1C1",
"-.	c #008B8B",
";.	c #007E7E",
">.	c #008787",
",.	c #007F7F",
"'.	c #008080",
").	c #008888",
"!.	c #009A9A",
"~.	c #016767",
"{.	c #008C8C",
"].	c #00C5C5",
"^.	c #00B7B7",
"/.	c #009E9E",
"(.	c #007A7A",
"_.	c #00F2F2",
":.	c #00EDED",
"<.	c #00C6C6",
"[.	c #008282",
"}.	c #007B7B",
"|.	c #008F8F",
"1.	c #00A6A6",
"2.	c #00B6B6",
"3.	c #013838",
"4.	c #00BDBD",
"5.	c #007272",
"6.	c #00F3F3",
"7.	c #00E9E9",
"8.	c #00CACA",
"9.	c #00C9C9",
"0.	c #00DADA",
"a.	c #00FCFC",
"b.	c #007070",
"c.	c #009191",
"d.	c #00C7C7",
"e.	c #008181",
"f.	c #007575",
"g.	c #006767",
"h.	c #00FFFF",
"i.	c #004F4F",
"j.	c #004E4E",
"k.	c #007171",
"l.	c #006666",
"m.	c #013333",
"n.	c #007979",
"o.	c #006C6C",
"p.	c #005D5D",
"q.	c #008D8D",
"r.	c #003D3D",
"s.	c #003E3E",
"t.	c #005E5E",
"u.	c #00F0F0",
"v.	c #00C4C4",
"w.	c #005C5C",
"x.	c #006868",
"y.	c #017272",
"z.	c #015F5F",
"A.	c #007373",
"B.	c #006464",
"C.	c #005252",
"D.	c #008484",
"E.	c #002D2D",
"F.	c #002E2E",
"G.	c #005151",
"H.	c #00EFEF",
"I.	c #00C0C0",
"J.	c #005F5F",
"K.	c #006E6E",
"L.	c #007C7C",
"M.	c #009999",
"N.	c #00C8C8",
"O.	c #011A1A",
"P.	c #006D6D",
"Q.	c #005959",
"R.	c #005A5A",
"S.	c #00CECE",
"T.	c #007878",
"U.	c #006A6A",
"V.	c #007777",
"W.	c #012C2C",
"X.	c #011616",
"Y.	c #006969",
"Z.	c #00F8F8",
"`.	c #00F5F5",
" +	c #00FEFE",
".+	c #00FBFB",
"++	c #00F7F7",
"@+	c #00DFDF",
"#+	c #007474",
"$+	c #014040",
"%+	c #00ECEC",
"&+	c #004C4C",
"*+	c #00EBEB",
"=+	c #004B4B",
"-+	c #013F3F",
";+	c #006B6B",
">+	c #00C3C3",
",+	c #015B5B",
"'+	c #00ABAB",
")+	c #00CBCB",
"!+	c #016C6C",
"~+	c #014949",
"{+	c #00F6F6",
"]+	c #00E5E5",
"^+	c #011717",
"/+	c #014545",
"(+	c #017171",
"_+	c #011414",
":+	c #014646",
"<+	c #016E6E",
"[+	c #011E1E",
"}+	c #013434",
"|+	c #015454",
"1+	c #000303",
"2+	c #014D4D",
"3+	c #016969",
"4+	c #012929",
"5+	c #000101",
"6+	c #016565",
"7+	c #014B4B",
"8+	c #012020",
"9+	c #001919",
"0+	c #001313",
"a+	c #012121",
"b+	c #012828",
"c+	c #012525",
". + @ @ # # # # # # # # # # @ $ $ @ @ # # # # # # # # # @ @ + . ",
"% & * = - ; > , ' ' ' ) ! ~ { ] ^ / ( _ : ) ' ' , > ; < = * & % ",
"[ = } | 1 2 3 4 4 5 ~ 6 7 8 9 0 a b c d e f g 5 5 h i 1 | } = [ ",
"[ < | j 3 k ' _ ( l m n o % # $ a @ p n q 0 r s ' ) g h t | < [ ",
"[ - 1 3 : u v w x y o @ z 9 A B B C D E 0 % F 0 G H _ k I 1 - [ ",
"[ > 2 k u J K 0 F p b D c L M N N x O P B E $ Q F R S ' 4 j ; [ ",
"[ , 3 ' v T + U [ V W X Y Z d ` `  ...+.M m @.a o #.$.H : I > [ ",
"[ %.4 _ &.*.=.p V c x -.` ;. .>.>.>.,.'.).Y !.@.$ q #.~.! 3 > [ ",
"p _ g J {.].^.b /.x ..,.(.0 . _._.:.<.[.}. .|.!.1.[ =.2.3.I , [ ",
"p _ 5 T =.4.$ A O Z ,.5.{.6.7.8.9.0.a.@ b.}. .c./.b n d.-.k , [ ",
"p _ ' M d.2.V P +.e.f.g.L h.m i.j.k.6.<.l.k.r ..O @.# =.F &.; [ ",
"p ! m.y =.# D M >.n.o.p.N h.q.r.s.t.u.v.w.x.f.[.Y /.*.Q 8.y.: [ ",
"p ) z.9.q *./.|.e.A.B.C.Z h.D.E.F.G.H.I.G.J.K.L.Z M.E 2.N.W O.[ ",
"p ' ` 9.n z !.-.L.P.5.n.@.h./.Q.R.7 _.S.T.T.U.V.d 8 @.p v.n W.# ",
"[ X.X N.2.1.X ).n.Y.q Z.Z.h.Z.6.6.`. +.+++@+#+5.` N C # =.#.$+@ ",
"[ H B d.% 9 O d V.g.<.h.h.h.h.h.h.h.h.h.h.%+f.b.e.Y B $ U ].&+$ ",
"[ H B d.+ 9 8 d 7 g.].h.h.h.h.h.h.h.h.h.h.*+f.b.e.Y B $ U ].=+$ ",
"[ X.O d.% 1.O >.T.x.<.h.h.h.h.h.h.h.h.h.h.*+7 k.[.c.C @ I.=.-+@ ",
"p ' '.N.^.V M.Z (.;+d.h.h.h.h.h.h.h.h.h.h.%+n.#+ .M D [ >+2./ # ",
"p ) ,+d.Q '+m q.,.b.9.h.h.h.h.h.h.h.h.h.h.%+r n...X 1.% d.P ~ [ ",
"p ! ^ n U $ B N D.7 )+h.h.h.h.h.h.h.h.h.h.:.` ,.+.m b o N.!+: [ ",
"p _ ! q.].+ 1.L -.;.S.h.h.h.h.h.h.h.h.h.h.H.Z d M A @ U o s ; [ ",
"p _ 5 ~+y q *.W N d N.Z.{+{+`.`.`.`.`.{+++]+|.+.P V 2.].` g , [ ",
"[ ' g ~  .#.+ E P |.x !.M |.-.....Z q.N L L +.X D @ F @ m.I , [ ",
"[ , 5 _ m.A F @ @.M.|. .r V.A.b.b.5.f.}.[.-.O C *.o q e ) h > [ ",
"[ , h ! ^+/+z q a @.!.N -.d [.'.'.e. .Z Y L C '+^.y (+~ : 2 > [ ",
"[ ; 2 g _+~ :+C o $ 1./.L x |.+.q.|.N O m @.*.^.% <+[+' 4 t - [ ",
"[ - 1 h k _+^+}+ .[ + *.9 B c P P m W D z # ^.W |+~ ' g I 1+< [ ",
"[ < | t h g ) ! ~ 2+q.*.p @ *.b b *.$ [ # W 3+4+) : 4 I 1 5+= [ ",
"[ = } | 1 i I 3 5 h _+&.6+d 8 /.B !.+.f.7+8+5 h 3 I t 1+5+} = [ ",
"2.9+< - ; > , %.0+_ _ ! ! v a+b+4+c+H _ ) ' 0+0+%., > ; - < 9+2.",
"7.n % % % 2.2.2.2.2.2.2.2.2.% % + % % 2.2.2.2.2.2.2.% % % % n 7."};
