/* XPM */
static char *bluefish[] = {
/* columns rows colors chars-per-pixel */
"24 24 57 1 ",
"  c #000001DC01DC",
". c #0000042D042D",
"X c #00000B3D0B3D",
"o c #00000C0C0C0C",
"O c #000011B611B6",
"+ c #000013E813E8",
"@ c #00001AA81AA8",
"# c #00001F271F27",
"$ c #000023362336",
"% c #000026022602",
"& c #000028C628C6",
"* c #00002D892D89",
"= c #000032783278",
"- c #0000373D373D",
"; c #00003A363A36",
": c #00003DCB3DCB",
"> c #0000413A413A",
", c #000045B545B5",
"< c #00004B4C4B4C",
"1 c #00004F4B4F4B",
"2 c #000050365036",
"3 c #000054795479",
"4 c #00005B3B5B3B",
"5 c #00005F2A5F2A",
"6 c #0000637A637A",
"7 c #000066786678",
"8 c #00006B056B05",
"9 c #00006D636D63",
"0 c #000073007300",
"q c #000075CA75CA",
"w c #0000786D786D",
"e c #00007C767C76",
"r c #0000816D816D",
"t c #000086628662",
"y c #00008A638A63",
"u c #00008C968C96",
"i c #000092D292D2",
"p c #000095A195A1",
"a c #000098D598D5",
"s c #00009E629E62",
"d c #0000A22AA22A",
"f c #0000A4FCA4FC",
"g c #0000ABC9ABC9",
"h c #0000AE68AE68",
"j c #0000B1E0B1E0",
"k c #0000B7A1B7A1",
"l c #0000B84DB84D",
"z c #0000BCB8BCB8",
"x c #0000C2C0C2C0",
"c c #0000C6BCC6BC",
"v c #0000CB0BCB0B",
"b c #0000CD27CD27",
"n c #0000D2CCD2CC",
"m c #0000D5C7D5C7",
"M c #0000D963D963",
"N c #0000E72EE72E",
"B c #0000E89BE89B",
/* pixels */
"xrrrtkxxxkteredxxxxarrrx",
"t    ,rrt0O   1trt8O   t",
"r    o7tre%  X7rte*    r",
"t     &ert:  +qrr3.    r",
"s#     1rt2  &rr0+    op",
"lq>X   +9t8X >tr-    &8x",
"krr6$  .>rq# 4t4. o;qfux",
"krrtw120rr02=60# #3tgarx",
"lrtrazs04495<:=.o:6rsutx",
"s<5umzrsl715<-%O$;4eaq4f",
"t XsBhr4fj>5<-$O+-4ee@ t",
"t +bNkyqgi,5<-$OO=38&  r",
"r #MNvpyr465<-$oO*3>   t",
"to%kNnlaew04<-%Oo&13=#ot",
"g99,effaye05<-$oX>49er9j",
"krr628qrtr94<-%o.-0rtytc",
"krrr9whgar05<;>%  @3ertx",
"krq>X.*5tr8,&2r7o  .=9tx",
"k4#    %wr5. >tt>    +2z",
"uX    o7rt<  %erw$    .u",
"r     >rrr=  +qrr5X    r",
"t    #qttw@  X7rrr-    r",
"t   X6trr8o   2trr0@   t",
"cytyplzlzhytytdzzzzsttyc"
};
