/* XPM */
static char *ccc_large[] = {
/* columns rows colors chars-per-pixel */
"24 24 60 1 ",
"  c #000001CC01CC",
". c #00000D1F0D1F",
"X c #000013401340",
"o c #0000195B195B",
"O c #00001BFC1BFC",
"+ c #0000208B208B",
"@ c #0000275F275F",
"# c #00002A1E2A1E",
"$ c #00002D112D11",
"% c #00002FD52FD5",
"& c #000032FE32FE",
"* c #0000394E394E",
"= c #00003C343C34",
"- c #000041424142",
"; c #0000466A466A",
": c #00004A564A56",
"> c #00004C554C55",
", c #000053465346",
"< c #0000546D546D",
"1 c #000058BC58BC",
"2 c #00005C385C38",
"3 c #000063C963C9",
"4 c #0000678B678B",
"5 c #0000687F687F",
"6 c #00006CCB6CCB",
"7 c #0000737D737D",
"8 c #000074FA74FA",
"9 c #00007B9E7B9E",
"0 c #00007FD07FD0",
"q c #000081848184",
"w c #000086BB86BB",
"e c #00008A548A54",
"r c #00008FAD8FAD",
"t c #000091269126",
"y c #000095379537",
"u c #00009B809B80",
"i c #00009C809C80",
"p c #0000A10AA10A",
"a c #0000A4D6A4D6",
"s c #0000AB77AB77",
"d c #0000AE76AE76",
"f c #0000B222B222",
"g c #0000B597B597",
"h c #0000BAAABAAA",
"j c #0000BEB6BEB6",
"k c #0000C2B2C2B2",
"l c #0000C658C658",
"z c #0000CA06CA06",
"x c #0000CD62CD62",
"c c #0000D259D259",
"v c #0000D6FFD6FF",
"b c #0000DB19DB19",
"n c #0000DDEDDDED",
"m c #0000E0C3E0C3",
"M c #0000E497E497",
"N c #0000EA74EA74",
"B c #0000ED4EED4E",
"V c #0000F363F363",
"C c #0000F489F489",
"Z c #0000FAE8FAE8",
/* pixels */
"kqqq00q00q00q00q00q00qqk",
"w                      q",
"w                      e",
"q+:;;;;O O---=====**%*Oq",
"w@kZZCVg@+dMmbbvvcxzzl1q",
"w $uaacCf+@ruuytrrreew=q",
"q  O21>lVf+   +<>X .;>@q",
"w  :CN*%kVf+  <vl# ofz1q",
"w  :ZB>X;kBd+ <bl# ofz1q",
"q  :CCbcg6kNsO,bl# ogz1q",
"w  :CZnvva1jMa8bl# ofz1q",
"w  >CB,oOO.%jmcvl# ogz1q",
"w  :ZN=     %jnnz# ogx1q",
"q  #08O      $663X .14$q",
"q                      q",
"w                      w",
"a<111111111111111111111a",
"jiuuuuuuuuuuiiuuiiuuiiik",
"geeeerrereerrrerrrrrrrrg",
"fq00000000qqq0qqqq00qqqf",
"s7777777778777888888887d",
"a4444444554455455555455a",
"a<122111122212222212211a",
"zaaaaaaaaaaaaaaaaadaaaaz"
};
