/* XPM */
static char *gcolor_[] = {
/* columns rows colors chars-per-pixel */
"24 24 66 1 ",
"  c #000001D501D5",
". c #003005040504",
"X c #00BF0A090A09",
"o c #01040F1D0F1D",
"O c #01050FFD0FFD",
"+ c #0102173A173A",
"@ c #010219F519F5",
"# c #01031C431C43",
"$ c #010121FC21FC",
"% c #00E325542554",
"& c #090823A823A8",
"* c #089A27482748",
"= c #00A3282C282C",
"- c #051B28E828E8",
"; c #00002D482D48",
": c #00D42F312F31",
"> c #09C82D2A2D2A",
", c #001931523152",
"< c #028635423542",
"1 c #0000370B370B",
"2 c #00003AFC3AFC",
"3 c #04543A9B3A9B",
"4 c #06C83A2F3A2F",
"5 c #00003CF03CF0",
"6 c #000040694069",
"7 c #03D3434C434C",
"8 c #000044AC44AC",
"9 c #095F400E400E",
"0 c #092443284328",
"q c #00234A034A03",
"w c #067549C349C3",
"e c #00004D464D46",
"r c #026050545054",
"t c #023552265226",
"y c #08FA548F548F",
"u c #000059BE59BE",
"i c #0775590E590E",
"p c #00005F655F65",
"a c #01F2618F618F",
"s c #077561B461B4",
"d c #000065C165C1",
"f c #065866BB66BB",
"g c #0000684A684A",
"h c #00006B406B40",
"j c #07F76D8E6D8E",
"k c #000072A872A8",
"l c #038C73137313",
"z c #0000763B763B",
"x c #00A97AA17AA1",
"c c #03247D9F7D9F",
"v c #00707EE07EE0",
"b c #000081648164",
"n c #000286998699",
"m c #068585418541",
"M c #06CD87868786",
"N c #000088BA88BA",
"B c #00008F2E8F2E",
"V c #0001944F944F",
"C c #000096529652",
"Z c #0000995B995B",
"A c #00CAA1C2A1C2",
"S c #0575A59AA59A",
"D c #02F2B2A8B2A8",
"F c #0327B7D7B7D7",
"G c #0000C2C9C2C9",
"H c #0000C6BCC6BC",
/* pixels */
"GbbbbbbbbbbbbbbbbbbbbbbG",
"n    .....X....X..     b",
"n   .oooOoOOooooooXX.  n",
"n .XO+@@##@@@#@#@@@OX  b",
"n .O@$%%%%-<,%%%%%$@O. n",
"n.o+$=;=;,7ift,;;=%$+o.b",
"n.o@%=;,<40yjMcq;==%@o.n",
"nXO#%;,-&>4yjMSDx<;%@o.n",
"nXO#%;<4&>4yjMSFA8;%#O.n",
"nXO#%=<paw0yjMMhx8==#OXb",
"nXO#=;2axcksarqabq==#OXn",
"nXO#==<pkbCn;,ehNq;%#O.n",
"nXO#%;2pkbCn=<tkBq==#OXb",
"n.O#%;<akbCn,5ucCq;%#O.n",
"nXO#%;<akbVn<8abZq;%#O.n",
"nXO#%;;8dnCN5qhku,;%#OXn",
"nXo#%;;;5dCn6et2;;;%#O.n",
"n.o@%;;;;,tx6<;;;;=%@o.n",
"n.O@$==;;;=<;;;;;==$+X.n",
"n.XO#$%=%==%=%%=%%$#OX.b",
"n .XO@@####$#####@@Oo. b",
"n  .XoOOOOOOO+OOOooX.  n",
"n  ..XX.XXXXXXXXX....  b",
"HNNNNNNNNNNNNNNNNNNNNNNH"
};
