/* XPM */
static char *gnome_term[] = {
/* columns rows colors chars-per-pixel */
"24 24 44 1 ",
"  c #0032040B040B",
". c #00EB0B160B16",
"X c #013113D313D3",
"o c #00891BF11BF1",
"O c #00FD240E240E",
"+ c #00B12CE22CE2",
"@ c #0C462EFA2EFA",
"# c #00EE33923392",
"$ c #0CDC31813181",
"% c #00BA3C093C09",
"& c #0C483B913B91",
"* c #00B743364336",
"= c #0DD843554355",
"- c #00954BB54BB5",
"; c #0DD74B6A4B6A",
": c #004B53D753D7",
"> c #0DF053C953C9",
", c #00105A9B5A9B",
"< c #0E305B735B73",
"1 c #009665BE65BE",
"2 c #0D1E63EF63EF",
"3 c #00186C946C94",
"4 c #0D006B646B64",
"5 c #0010749B749B",
"6 c #0D2072D072D0",
"7 c #00307E787E78",
"8 c #0E0E7A3E7A3E",
"9 c #000784338433",
"0 c #0CC983298329",
"q c #003A898D898D",
"w c #0DCF8D928D92",
"e c #001E94C394C3",
"r c #00009C5A9C5A",
"t c #0C7BA002A002",
"y c #0029A1C5A1C5",
"u c #001EACD2ACD2",
"i c #001EB2EBB2EB",
"p c #001EBC9FBC9F",
"a c #000EC487C487",
"s c #0015CCA7CCA7",
"d c #02CFD3D1D3D1",
"f c #0022DC0EDC0E",
"g c #0000E502E502",
"h c #0000EBF5EBF5",
/* pixels */
"a9779799979999799797797p",
"9               .      9",
"9    .....X....X....   9",
"9 O%***%*%%%%###++OoX. 9",
"9 9dsapiuyrq97531,:;*+ 9",
"9 9ftww886622<>>;=&&&+.9",
"9 qd8q1:-=*%#@+OOooX$# 9",
"q.qd0dfy1*%%#+OOooXX$+.9",
"9 qd63esfi1%#+OOooXX$#.9",
"q.qd6,::7ifp5#OoooX.$+.9",
"9.qd4,,-*%,rh9OoXXXX$+.9",
"9.9d4,-*%*1uh9oooX..$+.9",
"9.9d4:-,9aga5#ooXXXX@#.9",
"9.qd21rdgi1#OoooX...$+.9",
"q qd4pgr,#+OOXXXX...@+ 9",
"9.9d23,%##+O*,,:-:*X$+.9",
"9.qd2*%%#+OOegffffaO@+.9",
"q 9d<%##++Oo+#+@++O.@@ 9",
"9.9fw66622<<>;==&$$$&+.9",
"9 9dsapiuyeq97531,:-%+ 9",
"9 O*=*-**%%%%##+++Ooo. 9",
"9    ...X..X..X.X...   9",
"9     ... ...... .     9",
"aqqqqqqqqqqqq9qqqqqqq9qa"
};
