/* XPM */
static char *gnome_activity_journal[] = {
/* columns rows colors chars-per-pixel */
"24 24 60 1 ",
"  c #000001D401D4",
". c #003505000500",
"X c #00BF0A090A09",
"o c #01040F190F19",
"O c #0105100C100C",
"+ c #010317331733",
"@ c #01001A2D1A2D",
"# c #00FC1DE41DE4",
"$ c #01001FF11FF1",
"% c #00E325EB25EB",
"& c #00BC28F228F2",
"* c #00D82B672B67",
"= c #00D031D831D8",
"- c #00C936593659",
"; c #00DB3B153B15",
": c #00A03CEE3CEE",
"> c #00C640B440B4",
", c #0004477F477F",
"< c #00B549414941",
"1 c #00BB4C274C27",
"2 c #000352685268",
"3 c #002B57785778",
"4 c #00005FB95FB9",
"5 c #000060CD60CD",
"6 c #009E65826582",
"7 c #009B6BA96BA9",
"8 c #00816DFA6DFA",
"9 c #001F73A373A3",
"0 c #001075E175E1",
"q c #006378CE78CE",
"w c #00627D587D58",
"e c #000081608160",
"r c #000286998699",
"t c #00008B568B56",
"y c #000B8D738D73",
"u c #000091DB91DB",
"i c #000497809780",
"p c #00009AE49AE4",
"a c #00129F8F9F8F",
"s c #0005A2B5A2B5",
"d c #0015A4B3A4B3",
"f c #0000A97FA97F",
"g c #0014AF92AF92",
"h c #0000B086B086",
"j c #0000B560B560",
"k c #0000BAF8BAF8",
"l c #0000BF65BF65",
"z c #0000C2C9C2C9",
"x c #0000C47AC47A",
"c c #0000CA61CA61",
"v c #0000CFB0CFB0",
"b c #0004D0B1D0B1",
"n c #0005D5D6D5D6",
"m c #0019D901D901",
"M c #0002DE13DE13",
"N c #000DE07AE07A",
"B c #0003E5E3E5E3",
"V c #0008ED19ED19",
"C c #0000F142F142",
"Z c #0000F4ADF4AD",
/* pixels */
"zeeeeeeeeeeeeeeeeeeeeeez",
"r    ..... ...... .    e",
"r   XXooO#;11-@oooXX   r",
"r .XO++&8gbMNmj7%++OX. e",
"r .O@$>avnzpqwdnf;#@O..e",
"r.o+$:scci<*&&&2lh-#+o.r",
"r.o@&rlzp:**=5:&,zi;#o.r",
"rXO@<gkj3&=*:w<*&8Bmy@.e",
"r.O#9hjp;&&<ds<&*>bZV<.r",
"rXO$tgjt=*&8bb6**-jCm; r",
"rXo&ifgr=**>ii<*&-kM0OXr",
"rX+9ddfp:*=*;w8*&<bh$o.r",
"r.&uaadd5***&0y=&wMy#OXe",
"r.$rpasfp1*&*-5=3zn6@O.r",
"rXO:8iasfi4;=&:7jbj;@o.r",
"r.o@&epasfdiytdzcc0%#O.r",
"rXo#%9ipasfghkklxi;%@o.r",
"r.o@%0iipadfghjla>&%@o.r",
"r.o@&qyuiasdfghy>&&$+X.r",
"r..O>ryyuppsds9=%%$@OX.e",
"r .o3etyiiit8:##@@+OX. r",
"r  .#;<331;%+oOoOooX.  e",
"r    ..X.....X.XX...   r",
"ztrttrtttttttttttttrtttx"
};
