/* XPM */
static char *googleearth[] = {
/* columns rows colors chars-per-pixel */
"24 24 50 1 ",
"  c #000001D401D4",
". c #0000041D041D",
"X c #000008EC08EC",
"o c #00000F3B0F3B",
"O c #000012CC12CC",
"+ c #000017401740",
"@ c #00001B401B40",
"# c #00001ECB1ECB",
"$ c #0000231B231B",
"% c #000026292629",
"& c #0000282F282F",
"* c #00002D0F2D0F",
"= c #000032453245",
"- c #000036163616",
"; c #00003A523A52",
": c #00003F663F66",
"> c #000043344334",
", c #000045CF45CF",
"< c #000048514851",
"1 c #00004C664C66",
"2 c #000053685368",
"3 c #000055345534",
"4 c #00005B5A5B5A",
"5 c #00005E525E52",
"6 c #0000634F634F",
"7 c #000065966596",
"8 c #00006A476A47",
"9 c #00006C046C04",
"0 c #000074AE74AE",
"q c #0000796C796C",
"w c #00007EFA7EFA",
"e c #000081608160",
"r c #000086878687",
"t c #000088D488D4",
"y c #00008F678F67",
"u c #0000912E912E",
"i c #0000960F960F",
"p c #00009AC89AC8",
"a c #00009C4E9C4E",
"s c #0000A1FBA1FB",
"d c #0000A477A477",
"f c #0000AB98AB98",
"g c #0000ACD2ACD2",
"h c #0000B451B451",
"j c #0000BBD2BBD2",
"k c #0000BDF8BDF8",
"l c #0000C2C9C2C9",
"z c #0000C4ADC4AD",
"x c #0000CF29CF29",
"c c #0000D82ED82E",
/* pixels */
"leeewwewewwwwweewwewewel",
"r        XO@@OX        r",
"e      .$<007,;&O      e",
"r    .*41%tu3+$-;$.    e",
"r   .4iyr59%+O ->-&o   r",
"r  .4diir06+ .$;:>-%.  e",
"r  >ffspt092+X<885;&@  e",
"e +pkks36096<&4146<&$X r",
"r 3xck: X:76441%#%:-#O e",
"e rxd3    $243581>>1&#Xr",
"r.u1OX     o>643671>:$Xe",
"rXrr=       -052133->@ e",
"r O47=,#    =r05<>,>*  r",
"r   #yzu$   X<225,-=$  e",
"e   +gzky=.    +761=O. e",
"r  +3jljhs>    .375-   r",
"r Xqddfggs*     175-   e",
"r .9dpapit&.    271+   e",
"e  +wpppuw6<=$+o;3;O.  r",
"r   +8paw46642,:;-$o   e",
"e    X<r,.+#&&%#+X.    e",
"r      @=o             e",
"r             .        r",
"zttttttrtttttrtttrtttttz"
};
