/* XPM */
static char *gtk_recordmydesktop[] = {
/* columns rows colors chars-per-pixel */
"24 24 77 1 ",
"  c #004103CD03CD",
". c #010F0B0D0B0D",
"X c #08B10F850F85",
"o c #012212E212E2",
"O c #0CA916071607",
"+ c #00C919C519C5",
"@ c #0BB21A291A29",
"# c #0F9D1C491C49",
"$ c #018424742474",
"% c #01342C352C35",
"& c #09752B2B2B2B",
"* c #012232CA32CA",
"= c #09C934BB34BB",
"- c #00303B2E3B2E",
"; c #0A453ABB3ABB",
": c #14E73A3C3A3C",
"> c #00D641C341C3",
", c #0A0A46894689",
"< c #01294BF34BF3",
"1 c #0B214D8B4D8B",
"2 c #129143F643F6",
"3 c #11CD4B614B61",
"4 c #183649DB49DB",
"5 c #05E552BA52BA",
"6 c #089453375337",
"7 c #007B5B6A5B6A",
"8 c #144951C051C0",
"9 c #134E5ADA5ADA",
"0 c #01D963D663D6",
"q c #0CEA622E622E",
"w c #01086A8A6A8A",
"e c #0E186F6A6F6A",
"r c #145862E862E8",
"t c #18CB64F064F0",
"y c #151E6BD96BD9",
"u c #010D73087308",
"i c #0DA1768A768A",
"p c #00797DAA7DAA",
"a c #0CB97B397B39",
"s c #122672817281",
"d c #1A6076207620",
"f c #1A567A447A44",
"g c #003783FE83FE",
"h c #0CFB877F877F",
"j c #007A89D489D4",
"k c #086C89918991",
"l c #191D82FD82FD",
"z c #18E78BCF8BCF",
"x c #004192999299",
"c c #09CF95BC95BC",
"v c #00C19C779C77",
"b c #0B189AC69AC6",
"n c #13DE94699469",
"m c #199C90D390D3",
"M c #13469D949D94",
"N c #18549A2B9A2B",
"B c #027BA4F9A4F9",
"V c #0B3CA1F8A1F8",
"C c #02DAAB77AB77",
"Z c #148CAAC2AAC2",
"A c #0359B2EEB2EE",
"S c #0333BB6BBB6B",
"D c #0B46BC2DBC2D",
"F c #14D8B2D8B2D8",
"G c #1332BA58BA58",
"H c #00B0C3F8C3F8",
"J c #0C1CC43BC43B",
"K c #0007CCA2CCA2",
"L c #0A8ECA9DCA9D",
"P c #017BD620D620",
"I c #0934D752D752",
"U c #018EDD5BDD5B",
"Y c #0006E2ADE2AD",
"T c #0899E14AE14A",
"R c #0190EB17EB17",
"E c #00F6F5C2F5C2",
"W c #0003FF5EFF5E",
/* pixels */
"HgpggpgggggpppppggppgppH",
"g         .+$**%+.     g",
"g   ...X$7xSPYYUKBu*.  g",
"g   oo$wSRREEWWWWWEUx* g",
"g .o+-vLZzffzZIEWWWWEK0j",
"g..o>Vz8;*%%%=8nUWWWWWUU",
"g..%hrwxAABp<%%=tLWWWWWE",
"j oqiBDNfdzZSp*%%9PWWWWW",
"j $eAM3%%%%;sDg*%*iEWWWW",
"g.;VM;*0pu<%%tS7%%;SWWWW",
"j.6S1*jMdlV0%*cx*%%gWWWW",
"g 0B%0V;%%rB-%0A-*$0EWWW",
"j.0v$uk%*%>C>%7S>%%7EWWW",
"g 5C*6B5%*ub*%wC-%$wEWWW",
"g *A7%sVkbM1%*Ck%%%xWWWW",
"g.oaA<%3r9;%%pD<%%-KWWWW",
"k..&MAw-*%*<xJq%*%gEWWWW",
"g o+=fDAvxBDZ9%%%0YWWWEE",
"j..o+*3szml9=%%%wUWWWELJ",
"g .o+&2,;$$$$*7BEWWWRZ:g",
"g  .o+$2yagjvHRWWETFtO g",
"g   X..X@:tzZGGFNf4@   g",
"g      ..  XO#@@O      g",
"HjjjjjjjjjjjjgjjjjjjgjgH"
};
