/* XPM */
static char *xchat[] = {
/* columns rows colors chars-per-pixel */
"24 24 56 1 ",
"  c #000001D301D3",
". c #003904F804F8",
"X c #00BF0A0B0A0B",
"o c #01030DF10DF1",
"O c #010512001200",
"+ c #00E816381638",
"@ c #010419611961",
"# c #00F41D3A1D3A",
"$ c #010020342034",
"% c #00E624082408",
"& c #00DE280E280E",
"* c #00DF2D7E2D7E",
"= c #00C130B930B9",
"- c #009337353735",
"; c #00003BD63BD6",
": c #00003D483D48",
"> c #009440404040",
", c #00BE44724472",
"< c #0039493D493D",
"1 c #00004F194F19",
"2 c #000050B150B1",
"3 c #00B7551D551D",
"4 c #00B859D259D2",
"5 c #00225D645D64",
"6 c #0021626E626E",
"7 c #0065649D649D",
"8 c #00006BE26BE2",
"9 c #00976F626F62",
"0 c #0000736A736A",
"q c #000575807580",
"w c #00247AA77AA7",
"e c #00017C447C44",
"r c #000181638163",
"t c #0006868F868F",
"y c #000389AF89AF",
"u c #00008D5F8D5F",
"i c #001B91499149",
"p c #0026954E954E",
"a c #0000987A987A",
"s c #00149E829E82",
"d c #000FA2D2A2D2",
"f c #0000A556A556",
"g c #0003AA81AA81",
"h c #0000AC7DAC7D",
"j c #0000B3F2B3F2",
"k c #000BB818B818",
"l c #0000BA6BBA6B",
"z c #0000BCC1BCC1",
"x c #0000C2C9C2C9",
"c c #0000C6D9C6D9",
"v c #0015CB61CB61",
"b c #0000CDF0CDF0",
"n c #0003D342D342",
"m c #0000D5E4D5E4",
"M c #0006DA19DA19",
"N c #0000DCE3DCE3",
/* pixels */
"xrrrrrrrrrrrrrrrrrrrrrrx",
"t    ...X......X...    r",
"t   .ooooO+#$@+oooXX   t",
"t .XO+@&,7wyiit8,$OoX. r",
"t XO+%1qyiasfhjlki1@O. t",
"t.o+*6eryiasfgjlxvz0@o.r",
"t.o%5qer046efgs09qxb9o.t",
"tXO<9qet0;;3sd7;*evmb> t",
"t.$69qert735rr5<qcbnNpot",
"t.;79qeryt0qwe6qlcvnMv&r",
"tX,89qetyitupr0jxcbnMM>r",
"tX,89qeryutypyilzcvnMN,r",
"tX;99qwrtq99eewhxcvnMn-r",
"t.*69qer5<,6r76tzcbnMj+r",
"t.+30qq1**2pp3,1gcbmM7.t",
"tXo=7w5--<usf011ycvms#.t",
"tXo#>9wrtuasfghjzcbd-o.t",
"t.O@%>8ryipsfgjlxzy-@o.r",
"t.o+%%,ryiisfggdr2*$+o.t",
"t.XO#%5tt7,343,-&%$@OX t",
"t .o#<q8>$@@@@@##@+OX. r",
"t  .$-%+OoOOOOOoOooX.  t",
"t   ..X.XX.XXXXXX...   t",
"cyyyyyyyyyyyyyyyyyyyyytc"
};
