/* XPM */
static char * bluefish_xpm[] = {
"16 16 119 2",
"  	c None",
". 	c #008989",
"+ 	c #004F4F",
"@ 	c #005050",
"# 	c #007F7F",
"$ 	c #00A9A9",
"% 	c #008787",
"& 	c #004E4E",
"* 	c #007373",
"= 	c #00A7A7",
"- 	c #009393",
"; 	c #005555",
"> 	c #008888",
", 	c #005353",
"' 	c #000000",
") 	c #001919",
"! 	c #007171",
"~ 	c #008484",
"{ 	c #006262",
"] 	c #000505",
"^ 	c #004646",
"/ 	c #008383",
"( 	c #007D7D",
"_ 	c #003232",
": 	c #005252",
"< 	c #005A5A",
"[ 	c #003B3B",
"} 	c #008181",
"| 	c #007474",
"1 	c #001313",
"2 	c #000303",
"3 	c #005F5F",
"4 	c #008585",
"5 	c #005757",
"6 	c #009292",
"7 	c #003D3D",
"8 	c #000A0A",
"9 	c #000808",
"0 	c #005D5D",
"a 	c #002626",
"b 	c #000E0E",
"c 	c #009090",
"d 	c #00A1A1",
"e 	c #008080",
"f 	c #006060",
"g 	c #002222",
"h 	c #001B1B",
"i 	c #004444",
"j 	c #002A2A",
"k 	c #007A7A",
"l 	c #003A3A",
"m 	c #003434",
"n 	c #007C7C",
"o 	c #009898",
"p 	c #00ABAB",
"q 	c #00A0A0",
"r 	c #008282",
"s 	c #009F9F",
"t 	c #008A8A",
"u 	c #006A6A",
"v 	c #006161",
"w 	c #004848",
"x 	c #004343",
"y 	c #006969",
"z 	c #009A9A",
"A 	c #008D8D",
"B 	c #007070",
"C 	c #00C3C3",
"D 	c #009D9D",
"E 	c #006F6F",
"F 	c #002727",
"G 	c #001515",
"H 	c #006464",
"I 	c #008C8C",
"J 	c #007979",
"K 	c #005151",
"L 	c #001717",
"M 	c #00CBCB",
"N 	c #007E7E",
"O 	c #005454",
"P 	c #002828",
"Q 	c #001111",
"R 	c #002B2B",
"S 	c #005E5E",
"T 	c #002121",
"U 	c #00D5D5",
"V 	c #00D4D4",
"W 	c #006868",
"X 	c #004545",
"Y 	c #000F0F",
"Z 	c #002525",
"` 	c #005656",
" .	c #007878",
"..	c #00AAAA",
"+.	c #00A4A4",
"@.	c #008B8B",
"#.	c #000D0D",
"$.	c #006D6D",
"%.	c #008F8F",
"&.	c #002C2C",
"*.	c #001D1D",
"=.	c #004B4B",
"-.	c #002E2E",
";.	c #006666",
">.	c #006363",
",.	c #004141",
"'.	c #000B0B",
").	c #004040",
"!.	c #007575",
"~.	c #000202",
"{.	c #001212",
"].	c #007272",
"^.	c #001F1F",
"/.	c #000101",
"(.	c #008686",
"_.	c #004C4C",
":.	c #003939",
"<.	c #00A3A3",
"[.	c #005959",
". + @ # $ $ % @ & * = $ - ; & > ",
", ' ' ) ! ~ { ] ' ^ / ( _ ' ' : ",
"< ' ' ' [ } | 1 2 3 4 5 ] ' ' ; ",
"6 7 8 ' 9 0 # a b * * ) ' 9 _ c ",
"d e f g h @ # i j k l ] m n o p ",
"q r . s t | u v w x b j y z A $ ",
"B x $ C 4 D E 5 ^ F G _ H I 5 J ",
"K L M C ( - N O ^ P Q R S , 2 : ",
"K T U V D / W f X P Y Z K T ' : ",
"e `  ...+.@.k { X P #.R S $.f 4 ",
"d } H ! %.A ( { X &.b *.3 / % ..",
"d J =.-.;.> n ; l >.,.' '.).!...",
"~ Z ~.' {.$.k g Y ]. .^.' /.*.(.",
"O ' ' ~._.~ E #.2 S 4 0 9 ' ' , ",
", ' ' P k / < ~.' ^ / # :.' ' : ",
"I , ` > +.+.} O , | <.+.6 [., @."};
