<?xml version="1.0" encoding="UTF-8" standalone="no"?>
<!-- Created with Inkscape (http://www.inkscape.org/) -->

<svg
   xmlns:dc="http://purl.org/dc/elements/1.1/"
   xmlns:cc="http://creativecommons.org/ns#"
   xmlns:rdf="http://www.w3.org/1999/02/22-rdf-syntax-ns#"
   xmlns:svg="http://www.w3.org/2000/svg"
   xmlns="http://www.w3.org/2000/svg"
   xmlns:xlink="http://www.w3.org/1999/xlink"
   xmlns:sodipodi="http://sodipodi.sourceforge.net/DTD/sodipodi-0.dtd"
   xmlns:inkscape="http://www.inkscape.org/namespaces/inkscape"
   width="64"
   height="64"
   id="svg4250"
   version="1.1"
   inkscape:version="0.48.1 r9760"
   sodipodi:docname="input-mouse.svg">
  <defs
     id="defs4252">
    <linearGradient
       inkscape:collect="always"
       id="linearGradient3800">
      <stop
         style="stop-color:#00fdff;stop-opacity:1;"
         offset="0"
         id="stop3802" />
      <stop
         style="stop-color:#00fdff;stop-opacity:0;"
         offset="1"
         id="stop3804" />
    </linearGradient>
    <linearGradient
       inkscape:collect="always"
       id="linearGradient3792">
      <stop
         style="stop-color:#00fdff;stop-opacity:0.72161172"
         offset="0"
         id="stop3794" />
      <stop
         style="stop-color:#00fdff;stop-opacity:0;"
         offset="1"
         id="stop3796" />
    </linearGradient>
    <linearGradient
       inkscape:collect="always"
       id="linearGradient3776">
      <stop
         style="stop-color:#1a1a1a;stop-opacity:1;"
         offset="0"
         id="stop3778" />
      <stop
         style="stop-color:#1a1a1a;stop-opacity:0;"
         offset="1"
         id="stop3780" />
    </linearGradient>
    <linearGradient
       id="linearGradient3308-4-6-931-761-4">
      <stop
         offset="0"
         style="stop-color:#ffffff;stop-opacity:1"
         id="stop2919-8" />
      <stop
         offset="1"
         style="stop-color:#ffffff;stop-opacity:0"
         id="stop2921-5" />
    </linearGradient>
    <linearGradient
       id="linearGradient3208">
      <stop
         id="stop3210"
         style="stop-color:#ffffff;stop-opacity:1"
         offset="0" />
      <stop
         id="stop3212"
         style="stop-color:#ffffff;stop-opacity:0"
         offset="1" />
    </linearGradient>
    <linearGradient
       id="linearGradient3600-8">
      <stop
         id="stop3602-2"
         style="stop-color:#f4f4f4;stop-opacity:1"
         offset="0" />
      <stop
         id="stop3604-5"
         style="stop-color:#dbdbdb;stop-opacity:1"
         offset="1" />
    </linearGradient>
    <linearGradient
       id="linearGradient3104-5">
      <stop
         id="stop3106-2"
         style="stop-color:#aaaaaa;stop-opacity:1"
         offset="0" />
      <stop
         id="stop3108-2"
         style="stop-color:#c8c8c8;stop-opacity:1"
         offset="1" />
    </linearGradient>
    <linearGradient
       id="linearGradient23419-5">
      <stop
         id="stop23421-7"
         style="stop-color:#000000;stop-opacity:1"
         offset="0" />
      <stop
         id="stop23423-0"
         style="stop-color:#000000;stop-opacity:0"
         offset="1" />
    </linearGradient>
    <radialGradient
       r="22.627417"
       fy="41.63604"
       fx="23.334524"
       cy="41.63604"
       cx="23.334524"
       gradientTransform="matrix(0.82085435,0,0,0.2375331,13.41728,46.790882)"
       gradientUnits="userSpaceOnUse"
       id="radialGradient4248"
       xlink:href="#linearGradient23419-5"
       inkscape:collect="always" />
    <linearGradient
       inkscape:collect="always"
       xlink:href="#linearGradient3776"
       id="linearGradient3782"
       x1="8.8180923"
       y1="-64.301147"
       x2="65.650566"
       y2="-14.30115"
       gradientUnits="userSpaceOnUse"
       gradientTransform="matrix(0.51431048,0,0,0.51431048,-0.28570023,31.741238)" />
    <linearGradient
       inkscape:collect="always"
       xlink:href="#linearGradient3792"
       id="linearGradient3798"
       x1="42.320293"
       y1="-23.56283"
       x2="67.461296"
       y2="126.25502"
       gradientUnits="userSpaceOnUse" />
    <linearGradient
       inkscape:collect="always"
       xlink:href="#linearGradient3800"
       id="linearGradient3806"
       x1="33"
       y1="2.1275473e-06"
       x2="95"
       y2="2.1275473e-06"
       gradientUnits="userSpaceOnUse"
       gradientTransform="matrix(0.51431048,0,0,0.51431048,-0.28570023,31.741238)" />
  </defs>
  <sodipodi:namedview
     id="base"
     pagecolor="#ffffff"
     bordercolor="#666666"
     borderopacity="1.0"
     inkscape:pageopacity="0.0"
     inkscape:pageshadow="2"
     inkscape:zoom="1.9445436"
     inkscape:cx="32"
     inkscape:cy="41.727273"
     inkscape:current-layer="layer1"
     showgrid="true"
     inkscape:document-units="px"
     inkscape:grid-bbox="true"
     inkscape:window-width="1366"
     inkscape:window-height="720"
     inkscape:window-x="0"
     inkscape:window-y="25"
     inkscape:window-maximized="1" />
  <metadata
     id="metadata4255">
    <rdf:RDF>
      <cc:Work
         rdf:about="">
        <dc:format>image/svg+xml</dc:format>
        <dc:type
           rdf:resource="http://purl.org/dc/dcmitype/StillImage" />
        <dc:title></dc:title>
      </cc:Work>
    </rdf:RDF>
  </metadata>
  <g
     id="layer1"
     inkscape:label="Layer 1"
     inkscape:groupmode="layer">
    <path
       id="path23417-6"
       d="m 51.145344,56.680827 c -0.697726,2.728011 -3.90343,3.255117 -6.18466,3.983273 -8.238249,1.958103 -16.948943,1.858538 -25.178818,-0.08481 -2.059285,-0.573615 -4.423767,-1.318795 -5.613468,-3.237137 -0.534097,-2.806993 3.065307,-3.735447 5.11116,-4.387099 7.895955,-2.182796 16.293503,-2.053678 24.3041,-0.603904 2.603321,0.59279 5.535626,1.286548 7.312012,3.446313 l 0.182856,0.423318 0.06682,0.460046 0,0 z"
       style="opacity:0.3;fill:url(#radialGradient4248);fill-opacity:1;fill-rule:evenodd;stroke:none;stroke-width:2;marker:none;visibility:visible;display:inline;overflow:visible"
       inkscape:connector-curvature="0" />
    <path
       style="color:#000000;fill:#00e4ff;fill-opacity:1;fill-rule:nonzero;stroke:url(#linearGradient3806);stroke-width:0.51427037;stroke-linecap:butt;stroke-linejoin:round;stroke-miterlimit:4;stroke-opacity:1;stroke-dasharray:none;stroke-dashoffset:0;marker:none;visibility:visible;display:inline;overflow:visible;enable-background:accumulate"
       d="m 31.248272,3.7137161 c -3.565358,0.039597 -7.39861,0.3645402 -10.010731,2.8133226 -4.000813,3.7506373 -3.495634,6.3449733 -3.888598,11.4783563 -0.802184,10.47908 -0.491639,24.840601 1.638996,35.158495 0.624972,3.026516 3.47963,5.15625 6.507778,5.73918 2.324115,0.447394 4.727693,0.786298 7.134454,0.86811 2.406761,-0.08181 4.81034,-0.420716 7.134454,-0.86811 3.028148,-0.58293 5.882806,-2.712664 6.507779,-5.73918 C 48.403039,42.845998 48.713584,28.484475 47.9114,18.005395 47.518436,12.872012 48.023614,10.277676 44.022801,6.5270387 41.41068,4.0782563 37.577428,3.7533129 34.01207,3.7137161 c -0.465989,-0.00517 -0.928289,-5.143e-4 -1.381899,0 -0.45361,-5.143e-4 -0.91591,-0.00517 -1.381899,0 z"
       id="path4487"
       inkscape:connector-curvature="0" />
    <path
       style="opacity:0.4;fill:url(#linearGradient3782);fill-opacity:1;fill-rule:nonzero;stroke:none;stroke-width:0.99992186;marker:none;visibility:visible;display:inline;overflow:visible;enable-background:accumulate"
       d="m 31.151529,4.1934824 c -3.553719,0.043814 -7.270837,0.383529 -9.739755,2.6840578 -1.901808,1.772098 -2.685561,4.1480078 -3.037646,6.7663978 -0.352085,2.618389 -0.265436,5.446798 -0.466094,8.052173 -0.570734,7.410494 -0.700677,14.923858 0.03214,22.32429 L 46.757637,14.206465 C 46.657592,13.408291 46.550964,12.607997 46.436193,11.811707 45.948011,8.4246613 43.243496,5.6721574 39.926951,4.9970925 37.525728,4.5083361 35.086851,4.1968403 32.662316,4.1934824 c -0.496795,-6.686e-4 -1.003113,-0.00626 -1.510787,0 z"
       id="rect3238"
       inkscape:connector-curvature="0" />
    <path
       d="m 32.287296,44.084691 c -0.18995,0 -0.34287,0.152921 -0.34287,0.342873 l 0,0.771466 c -0.344727,0.0785 -0.66342,0.213137 -0.953619,0.396448 l -0.546455,-0.546455 c -0.134313,-0.134316 -0.347849,-0.134316 -0.482166,0 l -0.482166,0.482166 c -0.134313,0.134317 -0.134313,0.34785 0,0.482166 l 0.546454,0.546455 c -0.18331,0.290201 -0.317951,0.608888 -0.396446,0.95362 l -0.771465,0 c -0.189956,0 -0.342876,0.15292 -0.342876,0.34287 l 0,0.685751 c 0,0.18995 0.15292,0.34287 0.342876,0.34287 l 0.771465,0 c 0.07849,0.344727 0.213136,0.663419 0.396446,0.953619 l -0.546454,0.546453 c -0.134313,0.134312 -0.134313,0.347849 0,0.482166 l 0.482166,0.482166 c 0.134317,0.134312 0.347853,0.134317 0.482166,0 l 0.546455,-0.546455 c 0.290199,0.183311 0.608892,0.317952 0.953619,0.396446 l 0,0.771466 c 0,0.189955 0.15292,0.342875 0.34287,0.342875 l 0.685751,0 c 0.18995,0 0.34287,-0.15292 0.34287,-0.342875 l 0,-0.771466 c 0.344732,-0.07849 0.663419,-0.213135 0.953619,-0.396446 l 0.546455,0.546455 c 0.134317,0.134312 0.347854,0.134312 0.482166,0 l 0.482166,-0.482166 c 0.134317,-0.134317 0.134317,-0.347854 0,-0.482166 L 35.233868,49.83854 c 0.183311,-0.2902 0.317952,-0.608892 0.396446,-0.953619 l 0.771466,0 c 0.189955,0 0.342875,-0.15292 0.342875,-0.34287 l 0,-0.685751 c 0,-0.18995 -0.15292,-0.34287 -0.342875,-0.34287 l -0.771466,0 c -0.07849,-0.344732 -0.213135,-0.663419 -0.396446,-0.95362 l 0.546455,-0.546455 c 0.134317,-0.134316 0.134317,-0.347849 0,-0.482166 l -0.482166,-0.482166 c -0.134312,-0.134316 -0.347849,-0.134316 -0.482166,0 l -0.546455,0.546455 c -0.2902,-0.183311 -0.608887,-0.317951 -0.953619,-0.396448 l 0,-0.771466 c 0,-0.189952 -0.15292,-0.342873 -0.34287,-0.342873 l -0.685751,0 z m 0.342875,2.742989 c 0.757065,0 1.371497,0.61443 1.371497,1.371495 0,0.757065 -0.614432,1.371497 -1.371497,1.371497 -0.757065,0 -1.371496,-0.614432 -1.371496,-1.371497 0,-0.757065 0.614431,-1.371495 1.371496,-1.371495 z"
       id="rect3557"
       style="opacity:0.2820513;fill:#000000;fill-opacity:1;fill-rule:nonzero;stroke:none;stroke-width:1.70000005;marker:none;visibility:visible;display:inline;overflow:visible;enable-background:accumulate"
       inkscape:connector-curvature="0" />
    <path
       d="m 32.287296,44.131446 c -0.18995,0 -0.34287,0.152922 -0.34287,0.342874 l 0,0.771466 c -0.344727,0.0785 -0.66342,0.213136 -0.953619,0.396448 l -0.546455,-0.546455 c -0.134313,-0.134317 -0.347849,-0.134317 -0.482166,0 l -0.482166,0.482166 c -0.134313,0.134316 -0.134313,0.347849 0,0.482166 l 0.546454,0.546455 c -0.18331,0.2902 -0.317951,0.608887 -0.396446,0.953619 l -0.771465,0 c -0.189956,0 -0.342876,0.15292 -0.342876,0.34287 l 0,0.685751 c 0,0.189951 0.15292,0.34287 0.342876,0.34287 l 0.771465,0 c 0.07849,0.344727 0.213136,0.66342 0.396446,0.953617 l -0.546454,0.546455 c -0.134313,0.134313 -0.134313,0.347849 0,0.482166 l 0.482166,0.482167 c 0.134317,0.134312 0.347853,0.134317 0.482166,0 l 0.546455,-0.546455 c 0.290199,0.18331 0.608892,0.317952 0.953619,0.396446 l 0,0.771465 c 0,0.189956 0.15292,0.342876 0.34287,0.342876 l 0.685751,0 c 0.18995,0 0.34287,-0.15292 0.34287,-0.342876 l 0,-0.771465 c 0.344732,-0.07849 0.663419,-0.213136 0.953619,-0.396446 l 0.546455,0.546455 c 0.134317,0.134312 0.347854,0.134312 0.482166,0 l 0.482166,-0.482167 c 0.134317,-0.134317 0.134317,-0.347853 0,-0.482166 l -0.546455,-0.546455 c 0.183311,-0.290197 0.317952,-0.60889 0.396446,-0.953617 l 0.771466,0 c 0.189955,0 0.342875,-0.152919 0.342875,-0.34287 l 0,-0.685751 c 0,-0.18995 -0.15292,-0.34287 -0.342875,-0.34287 l -0.771466,0 c -0.07849,-0.344732 -0.213135,-0.663419 -0.396446,-0.953619 l 0.546455,-0.546455 c 0.134317,-0.134317 0.134317,-0.34785 0,-0.482166 l -0.482166,-0.482166 c -0.134312,-0.134317 -0.347849,-0.134317 -0.482166,0 l -0.546455,0.546455 c -0.2902,-0.183312 -0.608887,-0.317951 -0.953619,-0.396448 l 0,-0.771466 c 0,-0.189952 -0.15292,-0.342874 -0.34287,-0.342874 l -0.685751,0 z m 0.342875,2.74299 c 0.757065,-1e-6 1.371497,0.61443 1.371497,1.371495 0,0.757065 -0.614432,1.371496 -1.371497,1.371496 -0.757065,0 -1.371496,-0.614431 -1.371496,-1.371496 0,-0.757065 0.614431,-1.371495 1.371496,-1.371495 z"
       id="rect3557-3"
       style="opacity:0.3;fill:#00ffff;fill-opacity:1;fill-rule:nonzero;stroke:none;stroke-width:1.70000005;marker:none;visibility:visible;display:inline;overflow:visible;enable-background:accumulate"
       inkscape:connector-curvature="0" />
    <path
       sodipodi:type="inkscape:offset"
       inkscape:radius="-0.94814813"
       inkscape:original="M 61.3125 9.5 C 54.380192 9.57699 46.92263 10.207458 41.84375 14.96875 C 34.064766 22.261305 35.04531 27.300153 34.28125 37.28125 C 32.721523 57.656258 33.326049 85.594645 37.46875 105.65625 C 38.683916 111.54086 44.237217 115.67908 50.125 116.8125 C 54.643894 117.68239 59.320412 118.34093 64 118.5 C 68.679588 118.34093 73.356106 117.68239 77.875 116.8125 C 83.762782 115.67908 89.316084 111.54086 90.53125 105.65625 C 94.673952 85.59465 95.278477 57.656258 93.71875 37.28125 C 92.954689 27.300153 93.935234 22.261305 86.15625 14.96875 C 81.07737 10.207458 73.619807 9.5769898 66.6875 9.5 C 65.781453 9.489937 64.881977 9.49899 64 9.5 C 63.118022 9.49899 62.218546 9.489937 61.3125 9.5 z "
       style="color:#000000;fill:none;stroke:url(#linearGradient3798);stroke-width:1.00153446;stroke-linecap:butt;stroke-linejoin:round;stroke-miterlimit:4;stroke-opacity:1;stroke-dasharray:none;stroke-dashoffset:0;marker:none;visibility:visible;display:inline;overflow:visible;enable-background:accumulate"
       id="path4204"
       d="m 61.3125,10.4375 c -6.882382,0.07644 -14.041009,0.745626 -18.8125,5.21875 -3.795498,3.558161 -5.372666,6.431312 -6.15625,9.6875 -0.783584,3.256188 -0.739687,6.966566 -1.125,12 -1.553269,20.290647 -0.923638,48.216244 3.1875,68.125 1.11727,5.41053 6.330465,9.33289 11.90625,10.40625 4.466728,0.85985 9.064597,1.52701 13.65625,1.6875 0.02072,7.2e-4 0.04178,-7e-4 0.0625,0 4.591653,-0.16049 9.189522,-0.82765 13.65625,-1.6875 5.575784,-1.07336 10.78898,-4.99572 11.90625,-10.40625 4.111139,-19.90875 4.740769,-47.834353 3.1875,-68.125 -0.385313,-5.033434 -0.341416,-8.743812 -1.125,-12 C 90.872666,22.087562 89.295498,19.214411 85.5,15.65625 80.728509,11.183126 73.569881,10.513935 66.6875,10.4375 c -0.892764,-0.0099 -1.799773,-0.001 -2.6875,0 -0.887728,-0.001 -1.794737,-0.0099 -2.6875,0 z"
       transform="matrix(0.51327757,0,0,0.51368746,-0.12608223,-1.5076658)" />
  </g>
</svg>
