<?xml version="1.0" encoding="UTF-8" standalone="no"?>
<!-- Created with Inkscape (http://www.inkscape.org/) -->

<svg
   xmlns:dc="http://purl.org/dc/elements/1.1/"
   xmlns:cc="http://creativecommons.org/ns#"
   xmlns:rdf="http://www.w3.org/1999/02/22-rdf-syntax-ns#"
   xmlns:svg="http://www.w3.org/2000/svg"
   xmlns="http://www.w3.org/2000/svg"
   xmlns:xlink="http://www.w3.org/1999/xlink"
   xmlns:sodipodi="http://sodipodi.sourceforge.net/DTD/sodipodi-0.dtd"
   xmlns:inkscape="http://www.inkscape.org/namespaces/inkscape"
   version="1.0"
   width="64"
   height="64"
   id="svg3367"
   inkscape:version="0.48.1 r9760"
   sodipodi:docname="media-optical.svg">
  <metadata
     id="metadata71">
    <rdf:RDF>
      <cc:Work
         rdf:about="">
        <dc:format>image/svg+xml</dc:format>
        <dc:type
           rdf:resource="http://purl.org/dc/dcmitype/StillImage" />
        <dc:title></dc:title>
      </cc:Work>
    </rdf:RDF>
  </metadata>
  <sodipodi:namedview
     pagecolor="#ffffff"
     bordercolor="#666666"
     borderopacity="1"
     objecttolerance="10"
     gridtolerance="10"
     guidetolerance="10"
     inkscape:pageopacity="0"
     inkscape:pageshadow="2"
     inkscape:window-width="1366"
     inkscape:window-height="720"
     id="namedview69"
     showgrid="false"
     inkscape:zoom="3.6460194"
     inkscape:cx="43.424722"
     inkscape:cy="11.874064"
     inkscape:window-x="0"
     inkscape:window-y="25"
     inkscape:window-maximized="1"
     inkscape:current-layer="svg3367"
     showguides="true"
     inkscape:guide-bbox="true" />
  <defs
     id="defs3369">
    <linearGradient
       inkscape:collect="always"
       id="linearGradient3971">
      <stop
         style="stop-color:#00ffff;stop-opacity:1;"
         offset="0"
         id="stop3973" />
      <stop
         style="stop-color:#00ffff;stop-opacity:0.90566038"
         offset="1"
         id="stop3975" />
    </linearGradient>
    <linearGradient
       inkscape:collect="always"
       id="linearGradient3888">
      <stop
         style="stop-color:#000000;stop-opacity:1;"
         offset="0"
         id="stop3890" />
      <stop
         style="stop-color:#000000;stop-opacity:0;"
         offset="1"
         id="stop3892" />
    </linearGradient>
    <linearGradient
       inkscape:collect="always"
       id="linearGradient3850">
      <stop
         style="stop-color:#000000;stop-opacity:1;"
         offset="0"
         id="stop3852" />
      <stop
         style="stop-color:#000000;stop-opacity:0;"
         offset="1"
         id="stop3854" />
    </linearGradient>
    <linearGradient
       id="linearGradient23419">
      <stop
         id="stop23421"
         style="stop-color:#000000;stop-opacity:1"
         offset="0" />
      <stop
         id="stop23423"
         style="stop-color:#000000;stop-opacity:0"
         offset="1" />
    </linearGradient>
    <linearGradient
       id="linearGradient3772">
      <stop
         id="stop3774"
         style="stop-color:#b4b4b4;stop-opacity:1"
         offset="0" />
      <stop
         id="stop3776"
         style="stop-color:#969696;stop-opacity:1"
         offset="1" />
    </linearGradient>
    <linearGradient
       x1="12.2744"
       y1="32.4165"
       x2="35.391201"
       y2="14.2033"
       id="linearGradient3263"
       gradientUnits="userSpaceOnUse">
      <stop
         id="stop3265"
         style="stop-color:#dedbde;stop-opacity:1"
         offset="0" />
      <stop
         id="stop3267"
         style="stop-color:#e6e6e6;stop-opacity:1"
         offset="0.5" />
      <stop
         id="stop3269"
         style="stop-color:#d2d2d2;stop-opacity:1"
         offset="1" />
    </linearGradient>
    <linearGradient
       id="linearGradient3428">
      <stop
         id="stop3430"
         style="stop-color:#aaaaaa;stop-opacity:1"
         offset="0" />
      <stop
         id="stop3432"
         style="stop-color:#d4d4d4;stop-opacity:1"
         offset="1" />
    </linearGradient>
    <linearGradient
       id="linearGradient6036">
      <stop
         id="stop6038"
         style="stop-color:#ffffff;stop-opacity:1"
         offset="0" />
      <stop
         id="stop6040"
         style="stop-color:#ffffff;stop-opacity:0"
         offset="1" />
    </linearGradient>
    <linearGradient
       id="linearGradient3519">
      <stop
         id="stop3521"
         style="stop-color:#fcd9cd;stop-opacity:1"
         offset="0" />
      <stop
         id="stop3523"
         style="stop-color:#fcd9cd;stop-opacity:0"
         offset="1" />
    </linearGradient>
    <linearGradient
       id="linearGradient3511">
      <stop
         id="stop3513"
         style="stop-color:#ebeec7;stop-opacity:1"
         offset="0" />
      <stop
         id="stop3515"
         style="stop-color:#ebeec7;stop-opacity:0"
         offset="1" />
    </linearGradient>
    <linearGradient
       id="linearGradient3503">
      <stop
         id="stop3505"
         style="stop-color:#c4ebdd;stop-opacity:1"
         offset="0" />
      <stop
         id="stop3507"
         style="stop-color:#c4ebdd;stop-opacity:0"
         offset="1" />
    </linearGradient>
    <linearGradient
       id="linearGradient3495">
      <stop
         id="stop3497"
         style="stop-color:#c1cbe4;stop-opacity:1"
         offset="0" />
      <stop
         id="stop3499"
         style="stop-color:#c1cbe4;stop-opacity:0"
         offset="1" />
    </linearGradient>
    <linearGradient
       id="linearGradient3487">
      <stop
         id="stop3489"
         style="stop-color:#e6cde2;stop-opacity:1"
         offset="0" />
      <stop
         id="stop3491"
         style="stop-color:#e6cde2;stop-opacity:0"
         offset="1" />
    </linearGradient>
    <radialGradient
       cx="23.334524"
       cy="41.63604"
       r="22.627417"
       fx="23.334524"
       fy="41.63604"
       id="radialGradient2584"
       xlink:href="#linearGradient23419"
       gradientUnits="userSpaceOnUse"
       gradientTransform="matrix(2.6516504,0,0,0.7954211,2.1249955,72.881817)" />
    <linearGradient
       x1="10.50172"
       y1="3.6100161"
       x2="48.798885"
       y2="54.698483"
       id="linearGradient2642"
       xlink:href="#linearGradient6036"
       gradientUnits="userSpaceOnUse"
       gradientTransform="matrix(2.7528548,0,0,2.7528545,-1.9266703,-5.3698961)" />
    <linearGradient
       x1="18.775953"
       y1="4.0378027"
       x2="18.203465"
       y2="45.962208"
       id="linearGradient2651"
       xlink:href="#linearGradient6036"
       gradientUnits="userSpaceOnUse"
       gradientTransform="matrix(1.0859888,0,0,1.0859883,37.559418,36.850296)" />
    <linearGradient
       x1="21.448364"
       y1="15.5"
       x2="21.448364"
       y2="32.509201"
       id="linearGradient2654"
       xlink:href="#linearGradient3428"
       gradientUnits="userSpaceOnUse"
       gradientTransform="matrix(2.5381093,0,0,2.5381093,3.0853666,3.0853861)" />
    <linearGradient
       x1="12.2744"
       y1="32.4165"
       x2="35.391201"
       y2="14.2033"
       id="linearGradient2658"
       xlink:href="#linearGradient3263"
       gradientUnits="userSpaceOnUse"
       gradientTransform="matrix(0,3.1714559,-3.1714559,0,256.72731,-26.466466)" />
    <linearGradient
       x1="-21.915663"
       y1="3"
       x2="-21.915663"
       y2="45.032898"
       id="linearGradient2660"
       xlink:href="#linearGradient3772"
       gradientUnits="userSpaceOnUse"
       gradientTransform="matrix(2.7073165,0,0,2.7073165,263.88358,7.1698657)" />
    <linearGradient
       x1="20.580074"
       y1="10.774516"
       x2="24.27351"
       y2="9.8622112"
       id="linearGradient2672"
       xlink:href="#linearGradient3487"
       gradientUnits="userSpaceOnUse"
       spreadMethod="reflect" />
    <linearGradient
       x1="17.494959"
       y1="11.200086"
       x2="21.047453"
       y2="9.7956104"
       id="linearGradient2674"
       xlink:href="#linearGradient3495"
       gradientUnits="userSpaceOnUse"
       spreadMethod="reflect" />
    <linearGradient
       x1="14.084608"
       y1="13.045606"
       x2="16.994024"
       y2="10.732353"
       id="linearGradient2676"
       xlink:href="#linearGradient3503"
       gradientUnits="userSpaceOnUse"
       spreadMethod="reflect" />
    <linearGradient
       x1="12.371647"
       y1="16.188046"
       x2="14.609327"
       y2="13.461712"
       id="linearGradient2678"
       xlink:href="#linearGradient3511"
       gradientUnits="userSpaceOnUse"
       spreadMethod="reflect" />
    <linearGradient
       x1="10.609375"
       y1="17.886322"
       x2="9.7297754"
       y2="20.612656"
       id="linearGradient2680"
       xlink:href="#linearGradient3519"
       gradientUnits="userSpaceOnUse"
       spreadMethod="reflect" />
    <linearGradient
       x1="20.580074"
       y1="10.774516"
       x2="24.27351"
       y2="9.8622112"
       id="linearGradient2682"
       xlink:href="#linearGradient3487"
       gradientUnits="userSpaceOnUse"
       spreadMethod="reflect" />
    <linearGradient
       x1="17.494959"
       y1="11.200086"
       x2="21.047453"
       y2="9.7956104"
       id="linearGradient2684"
       xlink:href="#linearGradient3495"
       gradientUnits="userSpaceOnUse"
       spreadMethod="reflect" />
    <linearGradient
       x1="14.084608"
       y1="13.045606"
       x2="16.994024"
       y2="10.732353"
       id="linearGradient2686"
       xlink:href="#linearGradient3503"
       gradientUnits="userSpaceOnUse"
       spreadMethod="reflect" />
    <linearGradient
       x1="12.371647"
       y1="16.188046"
       x2="14.609327"
       y2="13.461712"
       id="linearGradient2688"
       xlink:href="#linearGradient3511"
       gradientUnits="userSpaceOnUse"
       spreadMethod="reflect" />
    <linearGradient
       x1="10.609375"
       y1="17.886322"
       x2="9.7297754"
       y2="20.612656"
       id="linearGradient2690"
       xlink:href="#linearGradient3519"
       gradientUnits="userSpaceOnUse"
       spreadMethod="reflect" />
    <linearGradient
       x1="-21.915663"
       y1="3"
       x2="-21.915663"
       y2="45.032898"
       id="linearGradient2660-2"
       xlink:href="#linearGradient3772-0"
       gradientUnits="userSpaceOnUse"
       gradientTransform="matrix(2.7073165,0,0,2.7073165,263.88358,7.1698657)" />
    <linearGradient
       id="linearGradient3772-0">
      <stop
         id="stop3774-6"
         style="stop-color:#b4b4b4;stop-opacity:1"
         offset="0" />
      <stop
         id="stop3776-1"
         style="stop-color:#969696;stop-opacity:1"
         offset="1" />
    </linearGradient>
    <linearGradient
       inkscape:collect="always"
       xlink:href="#linearGradient3888"
       id="linearGradient3894"
       x1="4.6301928"
       y1="12.901667"
       x2="24.677698"
       y2="12.901667"
       gradientUnits="userSpaceOnUse" />
    <linearGradient
       inkscape:collect="always"
       xlink:href="#linearGradient3519"
       id="linearGradient3897"
       gradientUnits="userSpaceOnUse"
       spreadMethod="reflect"
       x1="10.609375"
       y1="17.886322"
       x2="9.7297754"
       y2="20.612656"
       gradientTransform="matrix(2.7320403,0,0,2.7320403,-113.54149,38.969414)" />
    <linearGradient
       inkscape:collect="always"
       xlink:href="#linearGradient3511"
       id="linearGradient3900"
       gradientUnits="userSpaceOnUse"
       spreadMethod="reflect"
       x1="12.371647"
       y1="16.188046"
       x2="14.609327"
       y2="13.461712"
       gradientTransform="matrix(2.7320403,0,0,2.7320403,-82.274514,39.517957)" />
    <linearGradient
       inkscape:collect="always"
       xlink:href="#linearGradient3503"
       id="linearGradient3903"
       gradientUnits="userSpaceOnUse"
       spreadMethod="reflect"
       x1="14.084608"
       y1="13.045606"
       x2="16.994024"
       y2="10.732353"
       gradientTransform="matrix(2.7320403,0,0,2.7320403,-94.342469,5.508264)" />
    <linearGradient
       inkscape:collect="always"
       xlink:href="#linearGradient3487"
       id="linearGradient3909"
       gradientUnits="userSpaceOnUse"
       spreadMethod="reflect"
       x1="20.580074"
       y1="10.774516"
       x2="24.27351"
       y2="9.8622112"
       gradientTransform="matrix(2.7309505,0.07716088,-0.07716088,2.7309505,-93.54786,34.942493)" />
    <radialGradient
       inkscape:collect="always"
       xlink:href="#linearGradient3927-7"
       id="radialGradient3935-5"
       cx="36.438793"
       cy="31.665461"
       fx="36.438793"
       fy="31.665461"
       r="13.8859"
       gradientTransform="matrix(1.8150599,2.1812382,-0.42547003,0.35404367,-21.830045,-68.032173)"
       gradientUnits="userSpaceOnUse" />
    <linearGradient
       inkscape:collect="always"
       id="linearGradient3927-7">
      <stop
         style="stop-color:#000000;stop-opacity:1;"
         offset="0"
         id="stop3929-3" />
      <stop
         style="stop-color:#000000;stop-opacity:0;"
         offset="1"
         id="stop3931-3" />
    </linearGradient>
    <radialGradient
       r="13.8859"
       fy="31.665461"
       fx="36.438793"
       cy="31.665461"
       cx="36.438793"
       gradientTransform="matrix(1.8150599,2.1812382,-0.42547003,0.35404367,-75.210862,-100.04217)"
       gradientUnits="userSpaceOnUse"
       id="radialGradient3952"
       xlink:href="#linearGradient3927-7"
       inkscape:collect="always" />
    <linearGradient
       inkscape:collect="always"
       xlink:href="#linearGradient3772"
       id="linearGradient3080"
       gradientUnits="userSpaceOnUse"
       gradientTransform="matrix(2.7073165,0,0,2.7073165,263.88358,7.1698657)"
       x1="-21.915663"
       y1="3"
       x2="-21.915663"
       y2="45.032898" />
    <radialGradient
       inkscape:collect="always"
       xlink:href="#linearGradient3850"
       id="radialGradient3082"
       gradientUnits="userSpaceOnUse"
       gradientTransform="matrix(1.23489,-1.8994361,1.3206626,0.85860911,-141.20056,377.42404)"
       cx="193.16364"
       cy="72.145454"
       fx="193.16364"
       fy="72.145454"
       r="55.999989" />
    <linearGradient
       inkscape:collect="always"
       xlink:href="#linearGradient3772-0"
       id="linearGradient3084"
       gradientUnits="userSpaceOnUse"
       gradientTransform="matrix(1.9921568,1.8332686,-1.8332686,1.9921568,288.93766,72.805928)"
       x1="-21.915663"
       y1="3"
       x2="-21.915663"
       y2="45.032898" />
    <radialGradient
       inkscape:collect="always"
       xlink:href="#linearGradient23419"
       id="radialGradient3086"
       gradientUnits="userSpaceOnUse"
       gradientTransform="matrix(2.6516504,0,0,0.7954211,2.1249955,72.881817)"
       cx="23.334524"
       cy="41.63604"
       fx="23.334524"
       fy="41.63604"
       r="22.627417" />
    <linearGradient
       inkscape:collect="always"
       xlink:href="#linearGradient3428"
       id="linearGradient3088"
       gradientUnits="userSpaceOnUse"
       gradientTransform="matrix(2.5381093,0,0,2.5381093,3.0853666,3.0853861)"
       x1="21.448364"
       y1="15.5"
       x2="21.448364"
       y2="32.509201" />
    <linearGradient
       inkscape:collect="always"
       xlink:href="#linearGradient6036"
       id="linearGradient3092"
       gradientUnits="userSpaceOnUse"
       gradientTransform="matrix(1.0859888,0,0,1.0859883,37.559418,36.850296)"
       x1="18.775953"
       y1="4.0378027"
       x2="18.203465"
       y2="45.962208" />
    <radialGradient
       inkscape:collect="always"
       xlink:href="#linearGradient3971"
       id="radialGradient4013"
       gradientUnits="userSpaceOnUse"
       gradientTransform="matrix(-0.00327139,-0.61138136,5.8156112,-0.03111817,-133.18083,128.53592)"
       cx="146.58467"
       cy="43.55085"
       fx="146.58467"
       fy="43.55085"
       r="16.047419" />
    <radialGradient
       inkscape:collect="always"
       xlink:href="#linearGradient3971"
       id="radialGradient4036"
       gradientUnits="userSpaceOnUse"
       gradientTransform="matrix(0.03577988,0.61034225,-5.805727,0.340347,255.63513,-11.127691)"
       cx="146.58467"
       cy="43.55085"
       fx="146.58467"
       fy="43.55085"
       r="16.047419" />
    <linearGradient
       inkscape:collect="always"
       xlink:href="#linearGradient5048"
       id="linearGradient3878"
       gradientUnits="userSpaceOnUse"
       gradientTransform="matrix(3.2949134,0,0,2.5953268,-2121.8877,-1254.2044)"
       x1="302.85715"
       y1="366.64789"
       x2="302.85715"
       y2="609.50507" />
    <linearGradient
       id="linearGradient5048">
      <stop
         id="stop5050"
         style="stop-color:#000000;stop-opacity:0"
         offset="0" />
      <stop
         id="stop5056"
         style="stop-color:#000000;stop-opacity:1"
         offset="0.5" />
      <stop
         id="stop5052"
         style="stop-color:#000000;stop-opacity:0"
         offset="1" />
    </linearGradient>
    <radialGradient
       inkscape:collect="always"
       xlink:href="#linearGradient5060"
       id="radialGradient3880"
       gradientUnits="userSpaceOnUse"
       gradientTransform="matrix(3.2949134,0,0,2.5953268,-2121.2392,-1254.2044)"
       cx="605.71429"
       cy="486.64789"
       fx="605.71429"
       fy="486.64789"
       r="117.14286" />
    <linearGradient
       id="linearGradient5060">
      <stop
         id="stop5062"
         style="stop-color:#000000;stop-opacity:1"
         offset="0" />
      <stop
         id="stop5064"
         style="stop-color:#000000;stop-opacity:0"
         offset="1" />
    </linearGradient>
    <radialGradient
       inkscape:collect="always"
       xlink:href="#linearGradient5060"
       id="radialGradient3882"
       gradientUnits="userSpaceOnUse"
       gradientTransform="matrix(-3.2949134,0,0,2.5953268,259.21603,-1254.2044)"
       cx="605.71429"
       cy="486.64789"
       fx="605.71429"
       fy="486.64789"
       r="117.14286" />
    <linearGradient
       id="linearGradient3928">
      <stop
         id="stop3930"
         style="stop-color:#000000;stop-opacity:1"
         offset="0" />
      <stop
         id="stop3932"
         style="stop-color:#000000;stop-opacity:0"
         offset="1" />
    </linearGradient>
    <linearGradient
       inkscape:collect="always"
       xlink:href="#linearGradient5258"
       id="linearGradient3884"
       gradientUnits="userSpaceOnUse"
       gradientTransform="matrix(0.3200148,0,0,0.3287428,162.06232,36.916784)"
       x1="-301.94336"
       y1="152.96133"
       x2="-245.23868"
       y2="134.96133" />
    <linearGradient
       inkscape:collect="always"
       id="linearGradient5258">
      <stop
         style="stop-color:#5f5f5f;stop-opacity:1"
         offset="0"
         id="stop5260" />
      <stop
         style="stop-color:#252525;stop-opacity:1"
         offset="1"
         id="stop5262" />
    </linearGradient>
    <linearGradient
       inkscape:collect="always"
       xlink:href="#linearGradient3793"
       id="linearGradient3886"
       gradientUnits="userSpaceOnUse"
       gradientTransform="matrix(0.9854756,0,0,1,-5.7870689,0)"
       x1="-393.4332"
       y1="67.439331"
       x2="-221.40564"
       y2="68.025116" />
    <linearGradient
       id="linearGradient3793">
      <stop
         style="stop-color:#3f3f3f;stop-opacity:1"
         offset="0"
         id="stop3795" />
      <stop
         id="stop5268"
         offset="0.36093229"
         style="stop-color:#3c3c3c;stop-opacity:1;" />
      <stop
         id="stop5266"
         offset="0.66032284"
         style="stop-color:#2e2e2e;stop-opacity:1" />
      <stop
         style="stop-color:#202020;stop-opacity:1"
         offset="1"
         id="stop3797" />
    </linearGradient>
    <linearGradient
       inkscape:collect="always"
       xlink:href="#linearGradient3709"
       id="linearGradient3888-2"
       gradientUnits="userSpaceOnUse"
       x1="-397.0625"
       y1="72.4375"
       x2="-212.125"
       y2="72.4375" />
    <linearGradient
       id="linearGradient3709">
      <stop
         style="stop-color:#adadad;stop-opacity:1;"
         offset="0"
         id="stop3711" />
      <stop
         style="stop-color:#434343;stop-opacity:1"
         offset="1"
         id="stop3713" />
    </linearGradient>
    <radialGradient
       inkscape:collect="always"
       xlink:href="#linearGradient3779"
       id="radialGradient3890"
       gradientUnits="userSpaceOnUse"
       gradientTransform="matrix(0.352176,0,0,0.4012634,205.5379,9.6228)"
       cx="-398"
       cy="257.92444"
       fx="-398"
       fy="257.92444"
       r="2.3125" />
    <linearGradient
       inkscape:collect="always"
       id="linearGradient3779">
      <stop
         style="stop-color:#5b5b5b;stop-opacity:1"
         offset="0"
         id="stop3781" />
      <stop
         style="stop-color:#000000;stop-opacity:1"
         offset="1"
         id="stop3783" />
    </linearGradient>
    <linearGradient
       inkscape:collect="always"
       xlink:href="#linearGradient3771"
       id="linearGradient3892"
       gradientUnits="userSpaceOnUse"
       gradientTransform="matrix(0.5011737,0,0,0.2837863,264.83893,39.881514)"
       x1="-396.625"
       y1="260.44583"
       x2="-399.5625"
       y2="258.25833" />
    <linearGradient
       inkscape:collect="always"
       id="linearGradient3771">
      <stop
         style="stop-color:#ffffff;stop-opacity:1;"
         offset="0"
         id="stop3773" />
      <stop
         style="stop-color:#0d0d0d;stop-opacity:1"
         offset="1"
         id="stop3775" />
    </linearGradient>
    <linearGradient
       inkscape:collect="always"
       xlink:href="#linearGradient3898"
       id="linearGradient3894-0"
       gradientUnits="userSpaceOnUse"
       gradientTransform="matrix(0.3447881,0,0,0.3289022,168.27265,36.944528)"
       x1="-307.51242"
       y1="224.49969"
       x2="-307.32642"
       y2="-102.18364" />
    <linearGradient
       inkscape:collect="always"
       id="linearGradient3898">
      <stop
         style="stop-color:#030303;stop-opacity:1;"
         offset="0"
         id="stop3900" />
      <stop
         style="stop-color:#383838;stop-opacity:0"
         offset="1"
         id="stop3902" />
    </linearGradient>
    <linearGradient
       inkscape:collect="always"
       xlink:href="#linearGradient3895"
       id="linearGradient3896"
       gradientUnits="userSpaceOnUse"
       x1="33.3176"
       y1="56.811394"
       x2="155"
       y2="58" />
    <linearGradient
       inkscape:collect="always"
       id="linearGradient3895">
      <stop
         style="stop-color:#06b2b6;stop-opacity:1;"
         offset="0"
         id="stop3897" />
      <stop
         style="stop-color:#06b2b6;stop-opacity:0;"
         offset="1"
         id="stop3899" />
    </linearGradient>
    <linearGradient
       inkscape:collect="always"
       xlink:href="#linearGradient3856"
       id="linearGradient3899"
       gradientUnits="userSpaceOnUse"
       x1="-25"
       y1="-2"
       x2="110"
       y2="93" />
    <linearGradient
       inkscape:collect="always"
       id="linearGradient3856">
      <stop
         style="stop-color:#00ffff;stop-opacity:1;"
         offset="0"
         id="stop3858" />
      <stop
         style="stop-color:#00ffff;stop-opacity:0;"
         offset="1"
         id="stop3860" />
    </linearGradient>
    <linearGradient
       inkscape:collect="always"
       xlink:href="#linearGradient3918"
       id="linearGradient3902"
       gradientUnits="userSpaceOnUse"
       gradientTransform="matrix(0.2938167,0,0,0.3796678,152.73305,39.505128)"
       x1="-314.02853"
       y1="-83.613548"
       x2="-314.02853"
       y2="-75.273575" />
    <linearGradient
       inkscape:collect="always"
       id="linearGradient3918">
      <stop
         style="stop-color:#000000;stop-opacity:1;"
         offset="0"
         id="stop3920" />
      <stop
         style="stop-color:#1e1e1e;stop-opacity:1"
         offset="1"
         id="stop3922" />
    </linearGradient>
    <linearGradient
       inkscape:collect="always"
       xlink:href="#linearGradient3910"
       id="linearGradient3904"
       gradientUnits="userSpaceOnUse"
       gradientTransform="matrix(0.2938167,0,0,0.3796678,152.73305,39.505128)"
       x1="-305.52853"
       y1="-78.313988"
       x2="-305.52853"
       y2="-85.985588" />
    <linearGradient
       inkscape:collect="always"
       id="linearGradient3910">
      <stop
         style="stop-color:#2f2f2f;stop-opacity:1"
         offset="0"
         id="stop3912" />
      <stop
         style="stop-color:#000000;stop-opacity:1"
         offset="1"
         id="stop3914" />
    </linearGradient>
    <linearGradient
       inkscape:collect="always"
       xlink:href="#linearGradient3967"
       id="linearGradient3906"
       gradientUnits="userSpaceOnUse"
       gradientTransform="matrix(0.3064019,0,0,0.3319503,154.11377,32.087143)"
       x1="-282.75"
       y1="4.7030401"
       x2="-362.78125"
       y2="11.71875" />
    <linearGradient
       inkscape:collect="always"
       id="linearGradient3967">
      <stop
         style="stop-color:#ffffff;stop-opacity:1;"
         offset="0"
         id="stop3969" />
      <stop
         style="stop-color:#ffffff;stop-opacity:0;"
         offset="1"
         id="stop3971" />
    </linearGradient>
    <linearGradient
       y2="11.71875"
       x2="-362.78125"
       y1="4.7030401"
       x1="-282.75"
       gradientTransform="matrix(0.3064019,0,0,0.3319503,154.11377,32.087143)"
       gradientUnits="userSpaceOnUse"
       id="linearGradient4015"
       xlink:href="#linearGradient3967"
       inkscape:collect="always" />
  </defs>
  <g
     transform="matrix(-2.7073165,0,0,-2.7073165,128.97559,63.85369)"
     id="g3297"
     style="fill:url(#linearGradient3894);fill-opacity:1" />
  <g
     id="g3842"
     transform="matrix(0.48810968,0,0,0.48810968,2.0380771,1.4191761)">
    <g
       id="g4245"
       transform="matrix(0.03213658,0,0,0.0254196,93.172798,120.16008)">
      <rect
         style="opacity:0.40206185;fill:url(#linearGradient3878);fill-opacity:1;fill-rule:nonzero;stroke:none;stroke-width:1;marker:none;visibility:visible;display:inline;overflow:visible"
         id="rect4247"
         y="-302.63333"
         x="-1726.4982"
         height="630.29364"
         width="1590.9725" />
      <path
         style="opacity:0.40206185;fill:url(#radialGradient3880);fill-opacity:1;fill-rule:nonzero;stroke:none;stroke-width:1;marker:none;visibility:visible;display:inline;overflow:visible"
         id="path4249"
         d="m -135.52559,-302.61162 c 0,0 0,630.25888 0,630.25888 169.679883,1.18645 410.2034,-141.20904 410.2033,-315.169998 0,-173.960992 -189.349979,-315.088862 -410.2033,-315.088882 l 0,0 z"
         inkscape:connector-curvature="0" />
      <path
         style="opacity:0.40206185;fill:url(#radialGradient3882);fill-opacity:1;fill-rule:nonzero;stroke:none;stroke-width:1;marker:none;visibility:visible;display:inline;overflow:visible"
         id="path4251"
         d="m -1726.4981,-302.61162 c 0,0 0,630.25888 0,630.25888 -169.6798,1.18645 -410.2033,-141.20904 -410.2033,-315.169998 0,-173.960992 189.3499,-315.088862 410.2033,-315.088882 l 0,0 z"
         inkscape:connector-curvature="0" />
    </g>
    <rect
       style="fill:url(#linearGradient3884);fill-opacity:1;stroke:none;stroke-width:0.09999999;marker:none;visibility:visible;display:inline;overflow:visible;enable-background:accumulate"
       id="rect4253"
       width="60.068256"
       height="118.16473"
       x="34.554585"
       y="2.3130457"
       ry="4.1346607" />
    <g
       style="stroke-width:0.10075657;stroke-miterlimit:4;stroke-dasharray:none"
       transform="matrix(0.3566485,0,0,0.3268832,172.66305,36.964828)"
       id="g4255">
      <rect
         style="fill:url(#linearGradient3886);fill-opacity:1;stroke:#000000;stroke-width:1.49329782;stroke-miterlimit:4;stroke-opacity:1;stroke-dasharray:none;marker:none;visibility:visible;display:inline;overflow:visible;enable-background:accumulate"
         id="rect4257"
         width="184.9673"
         height="364.92563"
         x="-398.43771"
         y="-110.02348"
         ry="12.768984" />
      <path
         sodipodi:type="inkscape:offset"
         inkscape:radius="-1.7107865"
         inkscape:original="M -385.65625 -110.03125 C -392.73027 -110.03125 -398.4375 -104.32402 -398.4375 -97.25 L -398.4375 242.125 C -398.4375 249.19902 -392.73027 254.90625 -385.65625 254.90625 L -223.5 254.90625 C -216.42598 254.90625 -210.75 249.19902 -210.75 242.125 L -210.75 -97.25 C -210.75 -104.32402 -216.42598 -110.03125 -223.5 -110.03125 L -385.65625 -110.03125 z "
         style="fill:none;stroke:url(#linearGradient3888-2);stroke-width:0.03652661;stroke-miterlimit:4;stroke-opacity:1;stroke-dasharray:none;marker:none;visibility:visible;display:inline;overflow:visible;enable-background:accumulate"
         id="path4259"
         d="m -385.65625,-108.3125 c -6.15386,0 -11.0625,4.90864 -11.0625,11.0625 l 0,339.375 c 0,6.15386 4.90864,11.0625 11.0625,11.0625 l 162.15625,0 c 6.15386,0 11.03125,-4.9036 11.03125,-11.0625 l 0,-339.375 c 0,-6.1589 -4.87739,-11.0625 -11.03125,-11.0625 l -162.15625,0 z" />
    </g>
    <rect
       style="fill:url(#radialGradient3890);fill-opacity:1;fill-rule:nonzero;stroke:url(#linearGradient3892);stroke-width:1.00000012;stroke-linecap:round;stroke-linejoin:round;stroke-miterlimit:4;stroke-opacity:1;stroke-dasharray:none;stroke-dashoffset:0.06;marker:none;visibility:visible;display:inline;overflow:visible;enable-background:accumulate"
       id="rect4265"
       width="1.9572154"
       height="1.6515921"
       x="63.610077"
       y="112.15075"
       ry="0.57696867" />
    <path
       sodipodi:nodetypes="cccccccc"
       style="fill:url(#linearGradient3894-0);fill-opacity:1;stroke:none;stroke-width:1.53574109;marker:none;visibility:visible;display:inline;overflow:visible;enable-background:accumulate"
       d="m 33.190942,73.185882 -0.691722,36.347348 0,0.75155 c 0,1.19378 0.784741,2.17116 1.753623,2.17116 l 57.953103,0 c 0.968882,0 1.753625,-0.97737 1.753625,-2.17116 l -0.809801,-37.098898 -59.958828,0 z"
       id="path4267"
       inkscape:connector-curvature="0" />
    <path
       sodipodi:nodetypes="cccccccccc"
       id="path4269"
       d="m 35.495169,5.1607807 55.600021,0 c 0.929348,0 1.67757,0.9111933 1.67757,2.0430352 l 0,99.2151541 c 0,1.13185 -0.748222,2.04304 -1.67757,2.04304 l -55.600021,0 c -0.929398,0 -1.677568,-0.91119 -1.677568,-2.04304 l 0,-0.71618 0,-98.4989741 c 0,-1.1318419 0.74817,-2.0430352 1.677568,-2.0430352 l 0,0 z"
       style="fill:#000000;fill-opacity:1;stroke:url(#linearGradient3896);stroke-width:1.00000012;stroke-linecap:square;stroke-linejoin:miter;stroke-miterlimit:4;stroke-opacity:1;stroke-dasharray:none;stroke-dashoffset:0;marker:none;visibility:visible;display:inline;overflow:visible;enable-background:accumulate"
       inkscape:connector-curvature="0" />
    <path
       style="fill:#00ffff;fill-opacity:1;display:inline;enable-background:new"
       d="m 69.250371,13.670999 c -0.874661,-0.0076 -1.754452,0.463172 -1.951954,1.167938 -0.188228,0.671824 0.225586,1.207497 1.046618,1.356366 0.571553,0.103629 1.313701,-0.05068 1.747264,-0.364888 0.84075,-0.609292 0.84353,-1.610204 0.0058,-1.982955 -0.264815,-0.117822 -0.556137,-0.173915 -0.8477,-0.176461 z m -13.545486,0.0045 c -0.567414,0.0011 -1.150886,0.191579 -1.520876,0.538359 -0.806681,0.755969 -0.475891,1.782327 0.638599,1.98146 0.33079,0.0591 0.873565,0.01656 1.223969,-0.09571 1.208818,-0.387313 1.579104,-1.725769 0.612706,-2.216245 -0.278761,-0.141466 -0.613882,-0.208514 -0.954398,-0.207866 z m 6.461354,0 c -0.116428,6.93e-4 -0.23633,0.0084 -0.35893,0.02542 -0.911189,0.126464 -1.587252,0.729445 -1.587252,1.416184 0,0.566955 0.417661,0.972382 1.117268,1.084193 0.756576,0.120923 1.565555,-0.141466 2.015391,-0.652012 0.255328,-0.289819 0.350645,-0.568608 0.317164,-0.930163 -0.05264,-0.568028 -0.688411,-0.948465 -1.503641,-0.943625 z m 13.768961,0.08075 -0.552154,0.01346 -0.552155,0.01346 -0.752516,1.148499 c -0.414108,0.631674 -0.754331,1.164649 -0.755427,1.184389 -0.0011,0.01974 0.173373,0.03589 0.387815,0.03589 l 0.3907,0 0.142696,-0.215344 0.142722,-0.215343 0.521878,0 0.521878,0 0.04179,0.20338 0.04038,0.20338 0.478616,0.01346 0.47859,0.01346 -0.02739,-0.109167 c -0.01523,-0.06018 -0.136308,-0.599795 -0.268128,-1.199344 l -0.239294,-1.090176 z m -25.130362,0.003 c -0.521371,0 -0.591863,0.0096 -0.612706,0.08374 -0.01293,0.04606 -0.117925,0.41931 -0.233522,0.82997 -0.168455,0.598346 -0.210489,0.819346 -0.210489,1.112608 l 0,0.366383 0.275341,0 0.273954,0 0.144137,-0.490504 c 0.07872,-0.269778 0.158488,-0.54233 0.177327,-0.605654 0.0268,-0.09027 0.06606,0.01569 0.185958,0.490505 l 0.154238,0.605653 0.236436,0 0.236408,0 0.457025,-0.526397 c 0.25164,-0.289409 0.466002,-0.518539 0.47573,-0.508447 0.01502,0.01556 -0.186412,0.79389 -0.252281,0.975026 -0.02442,0.0672 0.470892,0.08026 0.792892,0.02094 l 0.180211,-0.0329 0.200362,-0.741738 c 0.11004,-0.407836 0.25001,-0.930166 0.311417,-1.160464 l 0.112445,-0.418722 -0.632882,0 -0.631436,0 -0.389259,0.483026 -0.389205,0.481534 -0.136976,-0.481534 -0.135481,-0.483026 -0.589644,0 z m 6.74244,0 -0.04901,0.203379 c -0.02758,0.111859 -0.071,0.266149 -0.09513,0.342455 -0.08423,0.266356 -0.08121,0.267685 0.420949,0.267685 0.421057,0 0.462262,0.0078 0.439683,0.08374 -0.01366,0.04606 -0.08818,0.363691 -0.165783,0.705847 -0.07757,0.342159 -0.151807,0.660343 -0.165782,0.707345 -0.02341,0.0788 0.01053,0.0844 0.448366,0.07178 l 0.475704,-0.01346 0.148493,-0.598176 c 0.08214,-0.328997 0.172811,-0.67893 0.200388,-0.77763 l 0.05048,-0.179453 0.472845,0 0.474287,0 0.07928,-0.346942 c 0.04305,-0.190819 0.07675,-0.37386 0.07643,-0.406761 -4.81e-4,-0.04653 -0.312486,-0.05982 -1.405598,-0.05982 l -1.4056,0 z m 6.749684,0 -0.308504,1.142516 c -0.169525,0.62819 -0.308479,1.166548 -0.308479,1.196354 0,0.03649 0.140585,0.05384 0.431051,0.05384 l 0.430998,0 0.09083,-0.346942 0.09083,-0.346943 0.37341,-0.01346 c 0.458254,-0.01699 0.545796,0.04235 0.500207,0.33797 -0.04532,0.294175 0.0034,0.322034 0.568001,0.321519 l 0.490134,-0.0015 0.01157,-0.32152 c 0.01438,-0.408683 -0.01176,-0.524387 -0.126875,-0.562287 -0.101865,-0.03355 -0.125646,-0.119635 -0.03314,-0.119635 0.103093,0 0.411465,-0.298984 0.477147,-0.462091 0.08409,-0.208728 0.08027,-0.470883 -0.0087,-0.611635 -0.146836,-0.232522 -0.340865,-0.266188 -1.558395,-0.266188 l -1.120127,0 z m 7.642059,0.0075 c -0.05376,2.25e-4 -0.112606,0.0011 -0.17444,0.003 l -0.449782,0.01346 -0.28547,1.124572 c -0.156671,0.618514 -0.286406,1.15149 -0.288304,1.184389 -0.0027,0.04635 0.256664,0.05982 1.148962,0.05982 l 1.151848,0 0.05045,-0.203381 c 0.02798,-0.111859 0.06771,-0.273366 0.08939,-0.358905 l 0.04037,-0.155527 -0.689076,0 c -0.447832,0 -0.687661,-0.01681 -0.687661,-0.04935 0,-0.0275 0.08305,-0.393277 0.18454,-0.812025 0.10149,-0.418747 0.184515,-0.774296 0.184515,-0.789593 0,-0.01147 -0.114075,-0.01712 -0.275343,-0.01645 z m -6.870787,0.566772 0.402246,0 c 0.220804,3.6e-4 0.447458,0.01404 0.504562,0.02991 0.137084,0.03811 0.137966,0.226797 0.0014,0.326007 -0.07578,0.05509 -0.220002,0.07477 -0.553571,0.07477 -0.248087,0 -0.451386,-0.01615 -0.451226,-0.03589 1.34e-4,-0.01974 0.02258,-0.116643 0.04901,-0.215343 l 0.04756,-0.179453 z m -9.406558,0.003 c 0.165942,0.0058 0.323815,0.05901 0.435352,0.158517 0.26436,0.235882 0.08944,0.779186 -0.314275,0.976523 -0.255382,0.124842 -0.434874,0.15576 -0.635742,0.106176 -0.448981,-0.110814 -0.491361,-0.662519 -0.07928,-1.037835 0.154773,-0.140988 0.380573,-0.21082 0.593948,-0.203381 z m 13.409953,0.0015 c 0.06314,-0.0027 0.129494,6.03e-4 0.200413,0.01047 0.297655,0.04141 0.425601,0.167679 0.44257,0.438163 0.01852,0.295914 -0.13508,0.548878 -0.415233,0.684912 -0.377553,0.18337 -0.679164,0.168608 -0.896653,-0.04337 -0.203459,-0.198243 -0.117203,-0.616286 0.183072,-0.889786 0.139756,-0.127272 0.296346,-0.192142 0.485831,-0.20039 z m -6.935667,0.003 c 0.116882,0.001 0.229141,0.02182 0.32149,0.06729 0.401204,0.197485 0.284697,0.815682 -0.201802,1.069242 -0.451788,0.235466 -0.933771,0.111798 -1.000496,-0.257218 -0.02987,-0.165131 0.06542,-0.458469 0.200416,-0.616121 0.143335,-0.1675 0.423301,-0.265502 0.680392,-0.263198 z m 13.00779,0.216839 0.05334,0.186931 c 0.02987,0.102782 0.05713,0.235382 0.05906,0.294602 0.0033,0.09779 -0.01825,0.107673 -0.22775,0.107673 -0.126849,0 -0.230636,-0.01036 -0.230636,-0.02393 0,-0.01357 0.07797,-0.146164 0.172996,-0.294602 l 0.172999,-0.270676 z"
       id="path4271"
       inkscape:connector-curvature="0" />
    <path
       sodipodi:type="inkscape:offset"
       inkscape:radius="-21.603529"
       inkscape:original="M -385.65625 -110.03125 C -392.73027 -110.03125 -398.4375 -104.32402 -398.4375 -97.25 L -398.4375 242.125 C -398.4375 249.19902 -392.73027 254.90625 -385.65625 254.90625 L -223.5 254.90625 C -216.42598 254.90625 -210.75 249.19902 -210.75 242.125 L -210.75 -97.25 C -210.75 -104.32402 -216.42598 -110.03125 -223.5 -110.03125 L -385.65625 -110.03125 z "
       style="fill:none;stroke:#000000;stroke-width:2.92388082;stroke-miterlimit:4;stroke-opacity:1;stroke-dasharray:none;marker:none;visibility:visible;display:inline;overflow:visible;enable-background:accumulate"
       id="path4273"
       d="m -376.84375,-88.4375 0,321.75 144.5,0 0,-321.75 -144.5,0 z"
       transform="matrix(0.3578391,0,0,0.3268832,173.48892,36.347762)" />
    <path
       sodipodi:nodetypes="cscccccccc"
       id="path4275"
       d="m 33.029207,111.00866 c 0,0 0.229185,-1.00239 0.342997,-1.71185 0.181929,-1.13375 0.645656,-2.16989 0.645656,-2.16989 0.741377,1.43966 1.625997,1.64142 3.519125,1.4899 l 49.540041,-0.3104 -1.913564,0.89502 -46.563389,0 c -3.17526,0.42596 -4.122474,1.62147 -3.924026,3.21265 -0.984223,0.25315 -1.405157,-0.42755 -1.64684,-1.40543 l 0,0 z"
       style="fill:#00daff;fill-opacity:1;stroke:none"
       inkscape:connector-curvature="0" />
    <rect
       ry="0"
       y="18.505125"
       x="39.122868"
       height="78.158463"
       width="48.083641"
       id="rect4277"
       style="fill:url(#linearGradient3899);fill-opacity:1;stroke:none;stroke-width:2.01121116;marker:none;visibility:visible;display:inline;overflow:visible;enable-background:accumulate" />
    <rect
       ry="1.2080956"
       y="7.3595796"
       x="52.643269"
       height="2.4161911"
       width="21.191502"
       id="rect4279"
       style="fill:url(#linearGradient3902);fill-opacity:1;fill-rule:nonzero;stroke:url(#linearGradient3904);stroke-width:0.99999994;stroke-miterlimit:4;stroke-opacity:1;stroke-dasharray:none;marker:none;visibility:visible;display:inline;overflow:visible;enable-background:accumulate" />
    <g
       style="stroke:#08b2b6;stroke-width:1.71536827;stroke-miterlimit:4;stroke-opacity:1;stroke-dasharray:none"
       transform="matrix(0.4100422,0,0,0.4061185,270.26841,14.057897)"
       id="g4283">
      <path
         sodipodi:type="arc"
         style="fill:none;stroke:#08b2b6;stroke-width:2.19792652;stroke-miterlimit:4;stroke-opacity:1;stroke-dasharray:none;marker:none;visibility:visible;display:inline;overflow:visible;enable-background:accumulate"
         id="path4285"
         sodipodi:cx="-456.17227"
         sodipodi:cy="213.40047"
         sodipodi:rx="4.3310289"
         sodipodi:ry="4.3310289"
         d="m -451.84124,213.40047 c 0,2.39196 -1.93907,4.33103 -4.33103,4.33103 -2.39196,0 -4.33103,-1.93907 -4.33103,-4.33103 0,-2.39196 1.93907,-4.33103 4.33103,-4.33103 2.39196,0 4.33103,1.93907 4.33103,4.33103 z"
         transform="matrix(0.7804484,0,0,0.7804484,-97.704371,48.406795)" />
      <path
         style="fill:none;stroke:#08b2b6;stroke-width:1.71536827;stroke-linecap:square;stroke-linejoin:miter;stroke-miterlimit:4;stroke-opacity:1;stroke-dasharray:none"
         d="m -451.22252,217.46633 3.18198,3.35876"
         id="path4287"
         inkscape:connector-curvature="0" />
    </g>
    <g
       style="fill:none;stroke:#06b2b6;stroke-width:1.72075415;stroke-miterlimit:4;stroke-opacity:1;stroke-dasharray:none"
       transform="matrix(0.3977779,0,0,0.4160234,268.25097,11.737564)"
       id="g4289">
      <path
         style="fill:none;stroke:#06b2b6;stroke-width:1.72075415;stroke-linecap:butt;stroke-linejoin:miter;stroke-miterlimit:4;stroke-opacity:1;stroke-dasharray:none"
         d="m -498.69737,217.61513 0,3.20724 6.14474,0 0,-3.20724"
         id="path4291"
         inkscape:connector-curvature="0" />
      <path
         style="fill:none;stroke:#06b2b6;stroke-width:1.72075415;stroke-linecap:butt;stroke-linejoin:miter;stroke-miterlimit:4;stroke-opacity:1;stroke-dasharray:none"
         d="m -501.125,217.375 5.3125,-5.4375 5.6875,5.6875"
         id="path4293"
         sodipodi:nodetypes="ccc"
         inkscape:connector-curvature="0" />
      <path
         style="fill:none;stroke:#06b2b6;stroke-width:1.72075415;stroke-linecap:square;stroke-linejoin:miter;stroke-miterlimit:4;stroke-opacity:1;stroke-dasharray:none"
         d="m -492.5,214.83108 0,-2.78716"
         id="path4295"
         inkscape:connector-curvature="0" />
    </g>
    <g
       style="stroke:#09b2b6;stroke-width:1.89622247;stroke-miterlimit:4;stroke-opacity:1;stroke-dasharray:none"
       transform="matrix(0.3609694,0,0,0.3775262,250.09912,20.074365)"
       id="g4297">
      <path
         style="fill:none;stroke:#09b2b6;stroke-width:1.89622247;stroke-linecap:square;stroke-linejoin:miter;stroke-miterlimit:4;stroke-opacity:1;stroke-dasharray:none"
         d="m -545.33081,211.72109 11.49048,0"
         id="path4299"
         inkscape:connector-curvature="0" />
      <path
         style="fill:none;stroke:#09b2b6;stroke-width:1.89622247;stroke-linecap:square;stroke-linejoin:miter;stroke-miterlimit:4;stroke-opacity:1;stroke-dasharray:none;display:inline;enable-background:new"
         d="m -542.23495,214.721 8.39462,0"
         id="path4301"
         inkscape:connector-curvature="0" />
      <path
         style="fill:none;stroke:#09b2b6;stroke-width:1.89622247;stroke-linecap:square;stroke-linejoin:miter;stroke-miterlimit:4;stroke-opacity:1;stroke-dasharray:none;display:inline;enable-background:new"
         d="m -542.23495,217.92114 8.39462,0"
         id="path4303"
         inkscape:connector-curvature="0" />
      <path
         style="fill:none;stroke:#09b2b6;stroke-width:1.89622247;stroke-linecap:square;stroke-linejoin:miter;stroke-miterlimit:4;stroke-opacity:1;stroke-dasharray:none;display:inline;enable-background:new"
         d="m -542.23495,221.021 8.39462,0"
         id="path4305"
         inkscape:connector-curvature="0" />
    </g>
    <g
       style="stroke:#06b2b6;stroke-width:1.68951178;stroke-miterlimit:4;stroke-opacity:1;stroke-dasharray:none"
       transform="matrix(0.4171381,0,0,0.4115227,279.0834,12.615599)"
       id="g4307">
      <path
         style="fill:none;stroke:#06b2b6;stroke-width:1.68951178;stroke-linecap:square;stroke-linejoin:miter;stroke-miterlimit:4;stroke-opacity:1;stroke-dasharray:none"
         d="m -571.0625,216.75 -2.125,-2.125 2.25,-2.25"
         id="path4309"
         inkscape:connector-curvature="0" />
      <path
         style="fill:none;stroke:#06b2b6;stroke-width:1.68951178;stroke-linecap:square;stroke-linejoin:miter;stroke-miterlimit:4;stroke-opacity:1;stroke-dasharray:none"
         d="m -571.34988,221.3499 3.47515,0"
         id="path4311"
         inkscape:connector-curvature="0" />
      <path
         style="fill:none;stroke:#06b2b6;stroke-width:1.68951178;stroke-linecap:square;stroke-linejoin:miter;stroke-miterlimit:4;stroke-opacity:1;stroke-dasharray:none;display:inline;enable-background:new"
         d="m -571.81153,214.57452 3.71723,0"
         id="path4313"
         inkscape:connector-curvature="0" />
      <path
         sodipodi:type="arc"
         style="fill:none;stroke:#06b2b6;stroke-width:1.68951178;stroke-linecap:square;stroke-linejoin:miter;stroke-miterlimit:4;stroke-opacity:1;stroke-dasharray:none;stroke-dashoffset:0;marker:none;visibility:visible;display:inline;overflow:visible;enable-background:accumulate"
         id="path4315"
         sodipodi:cx="-581.15625"
         sodipodi:cy="217.4375"
         sodipodi:rx="2.53125"
         sodipodi:ry="3.375"
         d="m -581.16605,214.06253 c 1.39796,-0.007 2.53562,1.49796 2.54103,3.36191 0.005,1.86395 -1.12347,3.38082 -2.52143,3.38803 -0.0221,1.2e-4 -0.0441,-1.5e-4 -0.0662,-8.1e-4"
         sodipodi:start="4.708519"
         sodipodi:end="7.8762493"
         sodipodi:open="true"
         transform="translate(14.18633,0.5432743)" />
    </g>
    <path
       id="path4281"
       d="M 36.464975,-0.0186625 C 35.651908,-0.0186625 35,0.9065682 35,2.0664 L 35,103 l 0,0.73652 c 0,1.15983 0.651908,2.09543 1.464975,2.09543 l 12.916775,0 C 54.266432,70.548612 57.705965,35.264676 59.809005,-0.0186625 l -23.34403,0 z"
       style="opacity:0.1;fill:url(#linearGradient4015);fill-opacity:1;stroke:none;stroke-width:1.4642123;marker:none;visibility:visible;display:inline;overflow:visible;enable-background:accumulate"
       inkscape:connector-curvature="0" />
  </g>
</svg>
