/* XPM */
static char * bluefish_xpm[] = {
"48 48 232 2",
"  	c None",
". 	c #00FEFE",
"+ 	c #00F0F0",
"@ 	c #00EAEA",
"# 	c #00EDED",
"$ 	c #00F4F4",
"% 	c #00EBEB",
"& 	c #00F2F2",
"* 	c #00ECEC",
"= 	c #00EFEF",
"- 	c #00FDFD",
"; 	c #00F1F1",
"> 	c #006D6D",
", 	c #003737",
"' 	c #003A3A",
") 	c #003939",
"! 	c #004848",
"~ 	c #008C8C",
"{ 	c #009F9F",
"] 	c #009E9E",
"^ 	c #008282",
"/ 	c #003F3F",
"( 	c #004444",
"_ 	c #008E8E",
": 	c #008686",
"< 	c #004343",
"[ 	c #003838",
"} 	c #006A6A",
"| 	c #004141",
"1 	c #000000",
"2 	c #007D7D",
"3 	c #008181",
"4 	c #000D0D",
"5 	c #001C1C",
"6 	c #007777",
"7 	c #007A7A",
"8 	c #002C2C",
"9 	c #003E3E",
"0 	c #004242",
"a 	c #000909",
"b 	c #005B5B",
"c 	c #008383",
"d 	c #002121",
"e 	c #003535",
"f 	c #008080",
"g 	c #005050",
"h 	c #000404",
"i 	c #002020",
"j 	c #007575",
"k 	c #004C4C",
"l 	c #008484",
"m 	c #001616",
"n 	c #000101",
"o 	c #004F4F",
"p 	c #000808",
"q 	c #006262",
"r 	c #003434",
"s 	c #000E0E",
"t 	c #006464",
"u 	c #001414",
"v 	c #007474",
"w 	c #005656",
"x 	c #000606",
"y 	c #002828",
"z 	c #007979",
"A 	c #001515",
"B 	c #002A2A",
"C 	c #007171",
"D 	c #001B1B",
"E 	c #00EEEE",
"F 	c #000303",
"G 	c #007F7F",
"H 	c #003B3B",
"I 	c #008585",
"J 	c #004D4D",
"K 	c #006B6B",
"L 	c #005858",
"M 	c #005D5D",
"N 	c #000A0A",
"O 	c #003131",
"P 	c #005757",
"Q 	c #000707",
"R 	c #00A1A1",
"S 	c #00F5F5",
"T 	c #008D8D",
"U 	c #005454",
"V 	c #001919",
"W 	c #005555",
"X 	c #006C6C",
"Y 	c #000C0C",
"Z 	c #001F1F",
"` 	c #000202",
" .	c #002222",
"..	c #006161",
"+.	c #008A8A",
"@.	c #00A0A0",
"#.	c #006F6F",
"$.	c #001A1A",
"%.	c #007070",
"&.	c #001D1D",
"*.	c #003636",
"=.	c #006363",
"-.	c #00A9A9",
";.	c #00C3C3",
">.	c #00A6A6",
",.	c #007E7E",
"'.	c #005A5A",
").	c #001E1E",
"!.	c #004B4B",
"~.	c #007C7C",
"{.	c #007B7B",
"].	c #004E4E",
"^.	c #007878",
"/.	c #002626",
"(.	c #005252",
"_.	c #009D9D",
":.	c #00B5B5",
"<.	c #00A8A8",
"[.	c #007373",
"}.	c #008787",
"|.	c #005959",
"1.	c #003C3C",
"2.	c #002424",
"3.	c #004949",
"4.	c #001111",
"5.	c #004040",
"6.	c #006767",
"7.	c #008F8F",
"8.	c #00B1B1",
"9.	c #008989",
"0.	c #00A3A3",
"a.	c #00ADAD",
"b.	c #009595",
"c.	c #007676",
"d.	c #005353",
"e.	c #006E6E",
"f.	c #006868",
"g.	c #00AEAE",
"h.	c #008888",
"i.	c #00ABAB",
"j.	c #00C4C4",
"k.	c #00B0B0",
"l.	c #005E5E",
"m.	c #004646",
"n.	c #003030",
"o.	c #004747",
"p.	c #008B8B",
"q.	c #009C9C",
"r.	c #00AAAA",
"s.	c #009090",
"t.	c #00BFBF",
"u.	c #00D4D4",
"v.	c #00CCCC",
"w.	c #002525",
"x.	c #003232",
"y.	c #002929",
"z.	c #004545",
"A.	c #009A9A",
"B.	c #00A7A7",
"C.	c #00C5C5",
"D.	c #00DFDF",
"E.	c #00D6D6",
"F.	c #00BDBD",
"G.	c #00C8C8",
"H.	c #00BABA",
"I.	c #005151",
"J.	c #001818",
"K.	c #000F0F",
"L.	c #003333",
"M.	c #002B2B",
"N.	c #006565",
"O.	c #009898",
"P.	c #00B6B6",
"Q.	c #00E7E7",
"R.	c #00DEDE",
"S.	c #009999",
"T.	c #00A4A4",
"U.	c #00A2A2",
"V.	c #00E8E8",
"W.	c #003D3D",
"X.	c #001717",
"Y.	c #009797",
"Z.	c #00A5A5",
"`.	c #00DADA",
" +	c #00E9E9",
".+	c #00CFCF",
"++	c #002F2F",
"@+	c #009696",
"#+	c #002323",
"$+	c #000505",
"%+	c #00CDCD",
"&+	c #00B3B3",
"*+	c #002D2D",
"=+	c #006060",
"-+	c #009494",
";+	c #006666",
">+	c #001010",
",+	c #00D0D0",
"'+	c #005C5C",
")+	c #00BBBB",
"!+	c #00E4E4",
"~+	c #00DCDC",
"{+	c #00C2C2",
"]+	c #000B0B",
"^+	c #006969",
"/+	c #00E6E6",
"(+	c #00D5D5",
"_+	c #00C1C1",
":+	c #00B8B8",
"<+	c #004A4A",
"[+	c #00E2E2",
"}+	c #00CBCB",
"|+	c #00CACA",
"1+	c #00DDDD",
"2+	c #00B2B2",
"3+	c #001313",
"4+	c #002E2E",
"5+	c #00AFAF",
"6+	c #009393",
"7+	c #00D3D3",
"8+	c #00B9B9",
"9+	c #007272",
"0+	c #009292",
"a+	c #009191",
"b+	c #00C6C6",
"c+	c #00C0C0",
"d+	c #009B9B",
"e+	c #002727",
"f+	c #005F5F",
"g+	c #00F6F6",
"h+	c #001212",
"i+	c #00F3F3",
". + @ @ @ @ @ @ @ # $ $ $ $ $ $ $ $ $ + @ @ @ @ @ @ @ @ % & $ $ $ $ $ $ $ $ $ * @ @ @ @ @ @ = - ",
"; > , ' ' ' ' ' ) ! ~ { ] ] ] ] ] ] { ^ / ) ' ' ' ' ' ) ( _ { ] ] ] ] ] ] { : < ) ' ' ' ' [ } + ",
"# | 1 1 1 1 1 1 1 1 [ 2 3 3 3 3 3 3 ^ > 4 1 1 1 1 1 1 1 5 6 3 3 3 3 3 3 3 7 8 1 1 1 1 1 1 1 9 * ",
"# 0 1 1 1 1 1 1 1 1 a b c ^ ^ ^ ^ ^ c 7 d 1 1 1 1 1 1 1 e f ^ ^ ^ ^ ^ ^ ^ g h 1 1 1 1 1 1 1 / * ",
"# 0 1 1 1 1 1 1 1 1 1 i j c ^ ^ ^ ^ ^ 3 [ 1 1 1 1 1 1 1 k l ^ ^ ^ ^ ^ c > m 1 1 1 1 1 1 1 1 / * ",
"# 0 1 1 1 1 1 1 1 1 1 n 0 3 ^ ^ ^ ^ ^ l o n 1 1 1 1 1 p q c ^ ^ ^ ^ ^ 2 r 1 1 1 1 1 1 1 1 1 / * ",
"# 0 1 1 1 1 1 1 1 1 1 1 s t c ^ ^ ^ ^ c t a 1 1 1 1 1 u v c ^ ^ ^ ^ c w x 1 1 1 1 1 1 1 1 1 / * ",
"# | 1 1 1 1 1 1 1 1 1 1 1 y z c ^ ^ ^ c j A 1 1 1 1 1 B 2 ^ ^ ^ ^ c C D 1 1 1 1 1 1 1 1 1 1 / * ",
"E o F 1 1 1 1 1 1 1 1 1 1 F k ^ ^ ^ ^ ^ 2 B 1 1 1 1 1 | c ^ ^ ^ ^ G H 1 1 1 1 1 1 1 1 1 1 1 | # ",
"= I J u 1 1 1 1 1 1 1 1 1 1 u K c ^ ^ ^ c | 1 1 1 1 h L l ^ ^ ^ c M N 1 1 1 1 1 1 1 1 1 1 u v $ ",
"E _ 3 K O x 1 1 1 1 1 1 1 1 1 O 2 ^ ^ ^ l P h 1 1 1 4 > c ^ ^ c j d 1 1 1 1 1 1 1 1 1 Q r K R S ",
"E T 3 c 2 U V 1 1 1 1 1 1 1 1 x W c ^ ^ c X Y 1 1 1 Z z c ^ ^ 3 0 n 1 1 1 1 1 1 1 `  ...+.l @.S ",
"E T 3 ^ ^ c #.[ p 1 1 1 1 1 1 1 $.%.c ^ c z &.1 1 1 *.f ^ ^ c =.4 1 1 1 1 1 F m 9 C -.;.>.c @.S ",
"E T 3 ^ ^ ^ c ,.'.).n 1 1 1 1 F 4 !.G ~.{.7 *.n 1 n ].l ^ c ^./.1 1 1 1 h d (.G _.:.;.<.c f @.S ",
"E T 3 ^ ^ ^ ^ ^ c [./ N h Z !.K 2 : }.,.j > |.1.2.u =.l ^ ^ 3.` 1 1 1 4.5.6.,.7.{ 8.8.9.3 3 @.S ",
"E T 3 ^ ^ ^ ^ ^ ^ ^ f C {.0.a.<._.b.+.G c.X =.'.].| d.e.3 f.4.1 1 1 u 0 b K {.~ _.g._.^ ^ 3 @.S ",
"E T 3 ^ ^ ^ ^ ^ 3 h.i.j.j.k.I ..W l.c.G c.X q |.g m.1.) !.8 1 1 1 Q n.o.P f.7 p.q.r.s.3 ^ 3 @.S ",
"E _ ^ ^ ^ ^ ^ 3 T t.u.v.r.t o.o o.B w.U v X q |.o m.1.x.y.5 Y n p d r z.w 6.^.9.A.B._ 3 ^ 3 R S ",
"E f j 2 c l ^ +.C.D.E.F.e.K <.G.u.H.I.J.U X q |.o m.1.x.y.i A K.L.M.x.< U N.c.}.O.>._ c l 2 A.$ ",
"# ! u 8 ( |.%.P.Q.R.u.S.%.T.U.R t.V.u.W./.N.=.|.o z.1.L.y.Z m K.X.i n.| (.=.v I Y.Z.~.M 3.n.W # ",
"# 0 1 1 1 ` / `. +R..+: 9.7.t M }.G.& : X.P =.L o m.1.x.y.i m 4 K.&.++5.I.q [.l @+b.#+$+n 1 / * ",
"# 0 1 1 1 1 c ; V.R.%+: 7.{.( *.K &+% { 5 g =.|.o m.1.L.y.Z m 4 s 5 *+9 o =+C ^ -+;+x 1 1 1 / * ",
"# 0 1 1 1 >+F.$ Q.R.,+7.~ }.'+U ~.)+!+I &.L =.|.o z.1.x.y.Z m 4 Y $.M.1.J l.#.3 ;+>+1 1 1 1 / * ",
"# 0 1 1 1 Z ~+& Q.R.u.Z.f A.7.~ B.%+{+z.n.;+q L o z.1.x.y.Z m 4 ]+J.y.' !.'+#.^+m 1 1 1 1 1 / * ",
"# 0 1 1 1 y./+& Q.R.(+_+h.G ] g.:+-.M *+b X q L o z.1.x.y.Z m Y a X.y ) <+b ^+L.1 1 1 1 1 1 / * ",
"# 0 1 1 1 #+[+& Q.R.u.}+&+^ } ^+=+! 5...v X q L o z.1.x.y.Z A Y p A /., ! '.'+4.1 1 1 1 1 1 / * ",
"# 0 1 1 1 m |+$ Q.1+u.}+{+2+b.~.%.%.2 G j K q L o z.1.x.y Z m Y Q 3+2.e m.L =.O N F 1 1 1 1 / * ",
"# 0 F K. .4+G V.@ R.u.}+_+:+5+>.q.6+h.,.v K q L o z.H x.y.Z m Y h 4  .L.z.w 6.> t U 9 /.4.h / * ",
"# > '.%.{.e.i l.g..+7+%+{+8+5+Z.A.7.^ z v K q L ].z.1.x.y.Z A Y F ` )., 0 d.N.c.{.{.f {.9+M 6 + ",
"E _ c c c f r ]+M.W ~.0+S.O.a+h.G ^.c.z v K ..L ].z.1.x.y Z A Y ` N U > =+l.;+j I p.T T }.^ U.S ",
"E T 3 ^ ^ c K 8 w.4+, m.d.'+N.X v ,.^ ,.j K q L o z.H x.y Z A Y ` a m.z l 3 ,.,.c +.a+-+: G R S ",
"E T 3 ^ ^ ^ c z X ,.G ^.2 : _ -+@+a+h.,.v K q L ].z.H x.y ).u a n 1 F 2.=+f c c ^ 3 f f f f R S ",
"E T 3 ^ ^ ^ ^ c I b.&+b+c+:+5+Z.d+a+}.,.j K ..L ].z.H O y e+5 n 1 1 1 1 Y 5.v c ^ ^ ^ ^ ^ 3 @.S ",
"E T 3 ^ ^ ^ ^ c C H #+v k.:+5+T.d+a+h.,.v K ..L o z.H e ( ^+f+4 1 1 1 1 1 n ).b ,.c ^ ^ ^ 3 @.S ",
"E T 3 ^ ^ c 2 w $.n 1 $+n.%.b.{ d+a+h.,.j K =.L !.) / ^+,.c f 5.n 1 1 1 1 1 1 p [ %.c ^ ^ 3 @.S ",
"E T 3 c ^ K x.x 1 1 1 1 1 h V 5.c.3 ~.j > =+( ++$.x O G c ^ c [.).1 1 1 1 1 1 1 1 J.U 2 c 3 @.S ",
"E T ^ 7 J u 1 1 1 1 1 1 1 1 1 i [.G G ,.G w Q 1 1 1 V 6 c ^ ^ c '.p 1 1 1 1 1 1 1 1 x x.K 3 R S ",
"= p.=.y.h 1 1 1 1 1 1 1 1 1 ]+f+c ^ ^ ^ c < 1 1 1 1 ]+^+c ^ ^ ^ ,., 1 1 1 1 1 1 1 1 1 1 u k S.g+",
"= M 4 1 1 1 1 1 1 1 1 1 1 n W.f ^ ^ ^ ^ 2 8 1 1 1 1 F U l ^ ^ ^ c e.m 1 1 1 1 1 1 1 1 1 1 ` '.; ",
"# 0 1 1 1 1 1 1 1 1 1 1 1 &.[.c ^ ^ ^ c j A 1 1 1 1 1 9 ^ ^ ^ ^ ^ ^ g h 1 1 1 1 1 1 1 1 1 1 9 * ",
"# 0 1 1 1 1 1 1 1 1 1 1 p |.c ^ ^ ^ ^ c =.a 1 1 1 1 1 e+~.^ ^ ^ ^ c {.*+1 1 1 1 1 1 1 1 1 1 / * ",
"# 0 1 1 1 1 1 1 1 1 1 1 , ,.^ ^ ^ ^ ^ l J n 1 1 1 1 1 h+[.c ^ ^ ^ ^ c 6.4.1 1 1 1 1 1 1 1 1 / * ",
"# 0 1 1 1 1 1 1 1 1 1 J.#.c ^ ^ ^ ^ ^ f *.1 1 1 1 1 1 p =+c ^ ^ ^ ^ ^ ^ o.` 1 1 1 1 1 1 1 1 / * ",
"# 0 1 1 1 1 1 1 1 1 $+(.c ^ ^ ^ ^ ^ c z Z 1 1 1 1 1 1 1 !.l ^ ^ ^ ^ ^ c 6 2.1 1 1 1 1 1 1 1 / * ",
"# 0 1 1 1 1 1 1 1 1 n.~.c ^ ^ ^ ^ ^ c > 4 1 1 1 1 1 1 1 e f ^ ^ ^ ^ ^ ^ c =+]+1 1 1 1 1 1 1 / * ",
"# | 1 1 1 1 1 1 1 3+^+^ 3 3 3 3 3 3 c w h 1 1 1 1 1 1 1 5 6 ^ 3 3 3 3 3 3 G W.n 1 1 1 1 1 1 9 * ",
"& c.z.o.o.o.o.o.m.} -+b.b.b.b.b.b.b.@+C m.o.o.o.o.o.o.m.o +.b.b.b.b.b.b.b.@+: o m.o.o.o.o.z.v ; ",
". i+E = = = = = = ; ; ; ; ; ; ; ; ; ; = = = = = = = = = = + ; ; ; ; ; ; ; ; ; = = = = = = E i+. "};
