/* XPM */
static char * ccc_large_xpm[] = {
"48 48 192 2",
"  	c None",
". 	c #00FEFE",
"+ 	c #00F0F0",
"@ 	c #00EAEA",
"# 	c #00EFEF",
"$ 	c #00FDFD",
"% 	c #00F1F1",
"& 	c #006D6D",
"* 	c #003737",
"= 	c #003A3A",
"- 	c #003838",
"; 	c #006A6A",
"> 	c #00EDED",
", 	c #004141",
"' 	c #000000",
") 	c #003E3E",
"! 	c #00ECEC",
"~ 	c #004242",
"{ 	c #003F3F",
"] 	c #004040",
"^ 	c #001414",
"/ 	c #007979",
"( 	c #009090",
"_ 	c #008E8E",
": 	c #008D8D",
"< 	c #008C8C",
"[ 	c #008B8B",
"} 	c #008A8A",
"| 	c #008989",
"1 	c #008888",
"2 	c #005555",
"3 	c #000404",
"4 	c #001313",
"5 	c #006E6E",
"6 	c #008383",
"7 	c #008080",
"8 	c #007F7F",
"9 	c #007E7E",
"0 	c #007D7D",
"a 	c #007C7C",
"b 	c #007B7B",
"c 	c #007A7A",
"d 	c #007878",
"e 	c #007777",
"f 	c #007676",
"g 	c #007575",
"h 	c #007474",
"i 	c #007373",
"j 	c #007272",
"k 	c #007171",
"l 	c #007070",
"m 	c #006F6F",
"n 	c #006060",
"o 	c #000A0A",
"p 	c #00FFFF",
"q 	c #00FCFC",
"r 	c #00FAFA",
"s 	c #00F9F9",
"t 	c #00F7F7",
"u 	c #00E0E0",
"v 	c #006565",
"w 	c #000303",
"x 	c #000606",
"y 	c #006B6B",
"z 	c #00DDDD",
"A 	c #00EBEB",
"B 	c #00E8E8",
"C 	c #00E6E6",
"D 	c #00E5E5",
"E 	c #00E3E3",
"F 	c #00E2E2",
"G 	c #00DFDF",
"H 	c #00DCDC",
"I 	c #00DADA",
"J 	c #00D9D9",
"K 	c #00D7D7",
"L 	c #00D6D6",
"M 	c #00D4D4",
"N 	c #00D3D3",
"O 	c #00D1D1",
"P 	c #00CFCF",
"Q 	c #00CECE",
"R 	c #00CCCC",
"S 	c #00CBCB",
"T 	c #00C9C9",
"U 	c #00A7A7",
"V 	c #001111",
"W 	c #003D3D",
"X 	c #000505",
"Y 	c #00F6F6",
"Z 	c #00F4F4",
"` 	c #00F2F2",
" .	c #00D0D0",
"..	c #00CDCD",
"+.	c #00C8C8",
"@.	c #00C7C7",
"#.	c #00C6C6",
"$.	c #00A3A3",
"%.	c #001010",
"&.	c #00FBFB",
"*.	c #00F8F8",
"=.	c #00F3F3",
"-.	c #006464",
";.	c #00E1E1",
">.	c #00DEDE",
",.	c #00DBDB",
"'.	c #00D8D8",
").	c #00D5D5",
"!.	c #00D2D2",
"~.	c #00CACA",
"{.	c #000909",
"].	c #005959",
"^.	c #006363",
"/.	c #005252",
"(.	c #006C6C",
"_.	c #006969",
":.	c #006868",
"<.	c #006767",
"[.	c #006666",
"}.	c #006262",
"|.	c #004F4F",
"1.	c #000101",
"2.	c #009191",
"3.	c #00EEEE",
"4.	c #000202",
"5.	c #005E5E",
"6.	c #00ABAB",
"7.	c #00A6A6",
"8.	c #00A2A2",
"9.	c #004444",
"0.	c #000D0D",
"a.	c #009696",
"b.	c #009393",
"c.	c #009292",
"d.	c #002C2C",
"e.	c #001515",
"f.	c #00F5F5",
"g.	c #00E9E9",
"h.	c #006161",
"i.	c #009D9D",
"j.	c #004545",
"k.	c #002121",
"l.	c #00BBBB",
"m.	c #00A5A5",
"n.	c #009C9C",
"o.	c #00B9B9",
"p.	c #00E7E7",
"q.	c #001919",
"r.	c #001717",
"s.	c #005F5F",
"t.	c #00E4E4",
"u.	c #009494",
"v.	c #002020",
"w.	c #009595",
"x.	c #002222",
"y.	c #005C5C",
"z.	c #000C0C",
"A.	c #009B9B",
"B.	c #00BABA",
"C.	c #009E9E",
"D.	c #001C1C",
"E.	c #001F1F",
"F.	c #001B1B",
"G.	c #00A4A4",
"H.	c #008787",
"I.	c #00C5C5",
"J.	c #00C4C4",
"K.	c #001D1D",
"L.	c #00A9A9",
"M.	c #00B8B8",
"N.	c #00B6B6",
"O.	c #000E0E",
"P.	c #001212",
"Q.	c #000B0B",
"R.	c #000808",
"S.	c #001818",
"T.	c #005151",
"U.	c #002323",
"V.	c #002525",
"W.	c #005050",
"X.	c #009999",
"Y.	c #009797",
"Z.	c #008F8F",
"`.	c #008686",
" +	c #008282",
".+	c #008484",
"++	c #008585",
"@+	c #008181",
"#+	c #005D5D",
"$+	c #005656",
"%+	c #005757",
"&+	c #005858",
". + @ @ @ @ @ @ @ @ @ @ @ @ @ @ @ @ @ @ @ @ @ @ @ @ @ @ @ @ @ @ @ @ @ @ @ @ @ @ @ @ @ @ @ @ # $ ",
"% & * = = = = = = = = = = = = = = = = = = = = = = = = = = = = = = = = = = = = = = = = = = - ; + ",
"> , ' ' ' ' ' ' ' ' ' ' ' ' ' ' ' ' ' ' ' ' ' ' ' ' ' ' ' ' ' ' ' ' ' ' ' ' ' ' ' ' ' ' ' ' ) ! ",
"> ~ ' ' ' ' ' ' ' ' ' ' ' ' ' ' ' ' ' ' ' ' ' ' ' ' ' ' ' ' ' ' ' ' ' ' ' ' ' ' ' ' ' ' ' ' { ! ",
"> ~ ' ' ' ' ' ' ' ' ' ' ' ' ' ' ' ' ' ' ' ' ' ' ' ' ' ' ' ' ' ' ' ' ' ' ' ' ' ' ' ' ' ' ' ' { ! ",
"> ~ ' ' ' ' ' ' ' ' ' ' ' ' ' ' ' ' ' ' ' ' ' ' ' ' ' ' ' ' ' ' ' ' ' ' ' ' ' ' ' ' ' ' ' ' { ! ",
"> ~ ' ' ' ' ' ' ' ' ' ' ' ' ' ' ' ' ' ' ' ' ' ' ' ' ' ' ' ' ' ' ' ' ' ' ' ' ' ' ' ' ' ' ' ' { ! ",
"> ] ^ / ( _ : < [ } } | 1 1 2 3 ' ' 4 5 6 7 8 8 9 0 a b c c / d e f g h h i j k l m m 5 n o ) ! ",
"> , 3 d % p p p $ q r s t t u v w ' x y z A B C D E F u G z H I J K L M N O P Q R S T T U V W ! ",
"> ~ ' X f % . q r s t Y Z ` ` G v w ' 3 ; I C E F u G z H I J K L M N O  .Q ..S T +.@.#.$.%.) ! ",
"> ~ ' ' x / # &.*.t Y Z Z =.% % z -.w ' x m J E ;.u >.H ,.J '.K ).M !.O P Q R S R ~.#.@.$.%.) ! ",
"> ~ ' ' ' {.].c d e f g $.> ` # # H ^.w ' {./.l 5 5 & (.y ; ; _._.:.<.<.<.[.v <.m _.}.^.|.X ) ! ",
"> ~ ' ' ' ' ' ' 1.1.1.' %.2.! + 3.3.I ^.w ' ' ' ' ' ' ' ' 1.4.4.4.4.' ' ' ' ' ' 4.4.4.4.4.' { ! ",
"> ~ ' ' ' ' ' 5.6.U 7.8.9.0.( A # ! ! J }.w ' ' ' ' ' ' x <.a.b.c.} d.' ' ' ' e.8 [ | } m {.) ! ",
"> ~ ' ' ' ' ' c.p q r f.(.' %.( g.> A A '.h.w ' ' ' ' ' o i.>.I J Q j.' ' ' ' k.l.R T T m.%.) ! ",
"> ~ ' ' ' ' ' 2.. s t ` y ' ' %.( B ! g.@ L n w ' ' ' ' {.n.,.K L S 9.' ' ' ' k.o.T @.@.$.%.) ! ",
"> ~ ' ' ' ' ' 2.. s *.` y ' ' ' %._ p.@ B B ).n w ' ' ' {.n.,.'.K S 9.' ' ' ' k.o.~.@.@.$.%.) ! ",
"> ~ ' ' ' ' ' 2.. s *.` d e.q.q.r.r._ D g.C p.M s.w ' ' {.n.,.K K S 9.' ' ' ' k.o.~.@.@.$.%.) ! ",
"> ~ ' ' ' ' ' 2.. s t f.>.Q ..R S _ k.< t.p.D D !.5.w ' {.n.,.K K S 9.' ' ' ' k.o.~.@.@.$.%.) ! ",
"> ~ ' ' ' ' ' 2.. s t Y Y f.=.% % @ u.v.< E C t.t.O 5.4.{.n.H '.K S 9.' ' ' ' k.o.~.@.@.$.%.) ! ",
"> ~ ' ' ' ' ' 2.. s *.Y f.Z =.% + # @ w.x.< ;.t.F F P y.z.A.H '.K S 9.' ' ' ' k.B.~.@.@.$.%.) ! ",
"> ~ ' ' ' ' ' 2.. s *.Y p.z H ,.J '.K !.c r.< u E ;.;...-.C.H '.K S 9.' ' ' ' k.B.~.@.@.$.%.) ! ",
"> ~ ' ' ' ' ' 2.. s *.=.a D.v.v.v.v.E.v.F.4.%.< G F G G P @.I '.K S 9.' ' ' ' k.B.~.@.@.$.%.) ! ",
"> ~ ' ' ' ' ' 2.. s *.` y ' ' ' ' ' ' ' ' ' ' V [ z u >.z H J '.K R j.' ' ' ' k.B.~.@.@.$.%.) ! ",
"> ~ ' ' ' ' ' 2.. s *.=.y ' ' ' ' ' ' ' ' ' ' ' V [ H G H ,.I '.K R j.' ' ' ' k.B.~.@.@.$.%.) ! ",
"> ~ ' ' ' ' ' c.p &.s Z (.' ' ' ' ' ' ' ' ' ' ' ' V } ,.>.H ,.J '...j.' ' ' ' k.l.S T T G.%.) ! ",
"> ~ ' ' ' ' ' 6 B E F z h.' ' ' ' ' ' ' ' ' ' ' ' ' V H.+.+.#.I.J.B.) ' ' ' ' K.L.M.N.N.u.O.) ! ",
"> ~ ' ' ' ' ' P.x.k.k.v.0.' ' ' ' ' ' ' ' ' ' ' ' ' ' Q.K.K.K.K.K.F.R.' ' ' ' 3 S.F.F.F.e.' { ! ",
"> ~ ' ' ' ' ' ' ' ' ' ' ' ' ' ' ' ' ' ' ' ' ' ' ' ' ' ' ' ' ' ' ' ' ' ' ' ' ' ' ' ' ' ' ' ' { ! ",
"> ~ ' ' ' ' ' ' ' ' ' ' ' ' ' ' ' ' ' ' ' ' ' ' ' ' ' ' ' ' ' ' ' ' ' ' ' ' ' ' ' ' ' ' ' ' { ! ",
"> ~ ' ' ' ' ' ' ' ' ' ' ' ' ' ' ' ' ' ' ' ' ' ' ' ' ' ' ' ' ' ' ' ' ' ' ' ' ' ' ' ' ' ' ' ' { ! ",
"> ~ ' ' ' ' ' ' ' ' ' ' ' ' ' ' ' ' ' ' ' ' ' ' ' ' ' ' ' ' ' ' ' ' ' ' ' ' ' ' ' ' ' ' ' ' { ! ",
"A T.U.V.V.V.V.V.V.V.V.V.V.V.V.V.V.V.V.V.V.V.V.V.V.V.V.V.V.V.V.V.V.V.V.V.V.V.V.V.V.V.V.V.V.U.W.@ ",
"A u.u.u.u.u.u.u.u.u.u.u.u.u.u.u.w.w.w.w.w.w.w.w.w.w.w.w.w.w.w.w.w.w.w.w.a.a.a.a.a.a.a.a.a.a.a.! ",
"A X.A.A.n.n.n.n.n.n.n.n.n.n.n.n.n.n.n.n.n.n.n.n.i.i.i.i.i.i.i.i.i.i.i.i.i.i.i.i.i.i.i.C.C.C.A.! ",
"A u.u.u.w.w.w.w.w.w.w.w.w.a.a.a.a.a.a.a.a.a.w.a.a.a.a.a.a.a.a.a.Y.Y.Y.Y.Y.Y.Y.Y.Y.Y.a.Y.Y.a.a.A ",
"@ Z._ Z._ _ _ _ _ _ Z.Z.Z.Z.Z.Z.Z.Z.Z.( ( ( ( Z.Z.Z.Z.Z.Z.( ( ( ( ( ( ( ( ( 2.2.2.2.2.( ( ( 2.A ",
"@ } 1 | | | | | | | | | | | | | | | | | | } } } } } } } } } } } } } } } } } } } } [ } } } } < @ ",
"@ `. + +6 6 6 6 6 6 6 6 6 6 6 6 6 6 6 6 6 6 6 .+.+.+.+.+.+.+.+.+.+.+.+.+.+.+.+.+++++++++++.+1 @ ",
"g.@+b a a a a a a a a a a 0 0 0 0 0 0 0 0 0 0 0 0 0 0 0 0 9 9 9 9 9 9 9 9 9 9 9 9 9 9 9 9 9 6 g.",
"g.0 g g g g g g g g g g f f f f f f f f f f f f f f f f f f f e e e e e e e e e e e e e e e 9 g.",
"B d m l l l l l l l l l l l l l l l l l l k k k k k k k k k k k k k k k k k k k k k k k j k c B ",
"B h _.; ; ; ; ; ; ; ; y y y y y y y y y ; ; ; ; y y y y y y y y y y y y y y y y y y y y (.y g B ",
"B m ^.^.^.^.^.^.-.-.-.-.-.-.-.-.-.v v v v v v v v -.-.v v v v v v v v v [.[.[.[.[.[.[.[.v v l p.",
"p.y #+5.5.#+#+#+#+#+#+#+#+5.5.5.5.5.5.5.5.5.s.s.5.5.5.5.5.5.5.5.5.s.s.s.s.s.s.s.s.s.s.s.s.s.y p.",
"p.v 2 $+$+$+%+%+%+%+%+%+%+%+%+%+%+%+%+%+%+%+%+%+%+&+&+&+&+&+&+&+&+&+&+&+&+&+&+&+&+&+&+&+].&+[.C ",
"! 9 (.& & & & & 5 5 5 5 5 5 5 5 5 5 5 5 5 5 5 5 5 5 5 5 m m m m m m m m m m m m m m m m m 5 8 ! ",
"$ 3.@ @ @ @ @ @ @ @ @ @ @ @ @ @ @ @ @ @ @ @ @ @ @ @ @ @ @ @ @ @ @ @ @ @ @ @ @ @ @ @ @ @ @ @ 3.$ "};
