/* XPM */
static char * control_center2_xpm[] = {
"48 48 267 2",
"  	c None",
". 	c #00FEFE",
"+ 	c #00F0F0",
"@ 	c #00EAEA",
"# 	c #00EFEF",
"$ 	c #00FDFD",
"% 	c #00F1F1",
"& 	c #006D6D",
"* 	c #003737",
"= 	c #003A3A",
"- 	c #003B3B",
"; 	c #003838",
"> 	c #006A6A",
", 	c #00EDED",
"' 	c #004141",
") 	c #000000",
"! 	c #000101",
"~ 	c #000202",
"{ 	c #003E3E",
"] 	c #00ECEC",
"^ 	c #004242",
"/ 	c #000303",
"( 	c #000404",
"_ 	c #010B0B",
": 	c #001414",
"< 	c #011515",
"[ 	c #010E0E",
"} 	c #010606",
"| 	c #010505",
"1 	c #010707",
"2 	c #010808",
"3 	c #000707",
"4 	c #000606",
"5 	c #000505",
"6 	c #003F3F",
"7 	c #012727",
"8 	c #017979",
"9 	c #009B9B",
"0 	c #00AAAA",
"a 	c #00A7A7",
"b 	c #009595",
"c 	c #007575",
"d 	c #014545",
"e 	c #011818",
"f 	c #010A0A",
"g 	c #010C0C",
"h 	c #010909",
"i 	c #012828",
"j 	c #00B0B0",
"k 	c #00E3E3",
"l 	c #00DCDC",
"m 	c #00D6D6",
"n 	c #00D2D2",
"o 	c #00CBCB",
"p 	c #00BBBB",
"q 	c #009191",
"r 	c #014949",
"s 	c #011616",
"t 	c #011111",
"u 	c #011212",
"v 	c #011010",
"w 	c #010D0D",
"x 	c #000808",
"y 	c #013535",
"z 	c #00AEAE",
"A 	c #00D7D7",
"B 	c #00CFCF",
"C 	c #00CACA",
"D 	c #00C5C5",
"E 	c #00C1C1",
"F 	c #00BDBD",
"G 	c #00ABAB",
"H 	c #006868",
"I 	c #012020",
"J 	c #011717",
"K 	c #011414",
"L 	c #013B3B",
"M 	c #00ADAD",
"N 	c #00CDCD",
"O 	c #00C0C0",
"P 	c #00B6B6",
"Q 	c #00B2B2",
"R 	c #00A8A8",
"S 	c #012323",
"T 	c #011E1E",
"U 	c #011F1F",
"V 	c #011D1D",
"W 	c #011C1C",
"X 	c #011A1A",
"Y 	c #014040",
"Z 	c #00A9A9",
"` 	c #00C3C3",
" .	c #00B1B1",
"..	c #00ACAC",
"+.	c #009C9C",
"@.	c #015353",
"#.	c #012222",
"$.	c #012424",
"%.	c #012121",
"&.	c #011919",
"*.	c #012626",
"=.	c #012525",
"-.	c #014343",
";.	c #00BABA",
">.	c #00A2A2",
",.	c #009E9E",
"'.	c #008484",
").	c #012929",
"!.	c #002929",
"~.	c #003131",
"{.	c #00B7B7",
"].	c #009D9D",
"^.	c #009898",
"/.	c #009292",
"(.	c #005656",
"_.	c #002B2B",
":.	c #002A2A",
"<.	c #000D0D",
"[.	c #018C8C",
"}.	c #016A6A",
"|.	c #011B1B",
"1.	c #003535",
"2.	c #008686",
"3.	c #00B5B5",
"4.	c #009393",
"5.	c #008F8F",
"6.	c #006E6E",
"7.	c #002D2D",
"8.	c #002C2C",
"9.	c #010F0F",
"0.	c #004040",
"a.	c #004343",
"b.	c #001E1E",
"c.	c #00C6C6",
"d.	c #00D0D0",
"e.	c #016565",
"f.	c #008E8E",
"g.	c #008989",
"h.	c #007878",
"i.	c #003333",
"j.	c #002E2E",
"k.	c #012A2A",
"l.	c #00D3D3",
"m.	c #016363",
"n.	c #003434",
"o.	c #008888",
"p.	c #007777",
"q.	c #012E2E",
"r.	c #00D5D5",
"s.	c #00D1D1",
"t.	c #00BCBC",
"u.	c #008383",
"v.	c #007F7F",
"w.	c #007373",
"x.	c #00C7C7",
"y.	c #007E7E",
"z.	c #007A7A",
"A.	c #007979",
"B.	c #006363",
"C.	c #011313",
"D.	c #008C8C",
"E.	c #007474",
"F.	c #007070",
"G.	c #005252",
"H.	c #014B4B",
"I.	c #006F6F",
"J.	c #005A5A",
"K.	c #004949",
"L.	c #010202",
"M.	c #005D5D",
"N.	c #004C4C",
"O.	c #002F2F",
"P.	c #013C3C",
"Q.	c #00AFAF",
"R.	c #006060",
"S.	c #008181",
"T.	c #004D4D",
"U.	c #002828",
"V.	c #001D1D",
"W.	c #002626",
"X.	c #015151",
"Y.	c #00A5A5",
"Z.	c #006161",
"`.	c #006262",
" +	c #007B7B",
".+	c #008080",
"++	c #001919",
"@+	c #000909",
"#+	c #002222",
"$+	c #014E4E",
"%+	c #009494",
"&+	c #006969",
"*+	c #006666",
"=+	c #006C6C",
"-+	c #003232",
";+	c #001818",
">+	c #000F0F",
",+	c #013737",
"'+	c #008787",
")+	c #007171",
"!+	c #001010",
"~+	c #005E5E",
"{+	c #005B5B",
"]+	c #005353",
"^+	c #004F4F",
"/+	c #003939",
"(+	c #006464",
"_+	c #007676",
":+	c #005151",
"<+	c #003D3D",
"[+	c #002323",
"}+	c #001A1A",
"|+	c #001111",
"1+	c #004747",
"2+	c #002424",
"3+	c #001B1B",
"4+	c #001212",
"5+	c #005959",
"6+	c #005050",
"7+	c #004848",
"8+	c #003636",
"9+	c #002525",
"0+	c #001C1C",
"a+	c #001313",
"b+	c #000A0A",
"c+	c #000B0B",
"d+	c #002121",
"e+	c #001515",
"f+	c #000C0C",
"g+	c #002020",
"h+	c #006565",
"i+	c #005C5C",
"j+	c #004A4A",
"k+	c #003030",
"l+	c #002727",
"m+	c #001F1F",
"n+	c #001616",
"o+	c #005454",
"p+	c #004B4B",
"q+	c #001717",
"r+	c #005555",
"s+	c #000E0E",
"t+	c #007272",
"u+	c #008A8A",
"v+	c #008282",
"w+	c #006767",
"x+	c #004444",
"y+	c #008B8B",
"z+	c #005F5F",
"A+	c #005757",
"B+	c #004E4E",
"C+	c #004545",
"D+	c #003C3C",
"E+	c #004646",
"F+	c #008D8D",
"G+	c #005858",
"H+	c #008585",
"I+	c #007C7C",
"J+	c #006B6B",
"K+	c #007D7D",
"L+	c #013636",
"M+	c #013333",
"N+	c #009090",
"O+	c #012F2F",
"P+	c #00F2F2",
"Q+	c #00F3F3",
"R+	c #00EEEE",
". + @ @ @ @ @ @ @ @ @ @ @ @ @ @ @ @ @ @ @ @ @ @ @ @ @ @ @ @ @ @ @ @ @ @ @ @ @ @ @ @ @ @ @ @ # $ ",
"% & * = = = = = = = = = = = = - - - - - - - - - - - - - - - - - - = = = = = = = = = = = = ; > + ",
", ' ) ) ) ) ) ) ) ) ) ! ) ) ) ! ! ~ ~ ~ ~ ~ ~ ~ ~ ~ ~ ~ ~ ~ ~ ~ ! ! ! ! ! ) ) ) ) ) ) ) ) ) { ] ",
", ^ ) ) ) ! ! ~ / ( ( ~ _ : < [ } | 1 2 2 2 2 2 2 2 2 2 2 2 2 2 1 1 3 } 4 5 ( / ~ ! ) ) ) ) 6 ] ",
", ^ ) ) ! ~ / ( 5 } 7 8 9 0 a b c d e f g g g g g g g g g g g g g g _ f h 2 1 5 ( / ! ! ) ) 6 ] ",
", ^ ) ! ~ / 5 4 h h i j k l m n o p q r s t u u u u u u u u u u u t t v [ w _ h 4 ( / ! ) ) 6 ] ",
", ^ ) ! / 5 x f w v v y z A B C D E F G H I J e e e e e e e e e e e J s K u v w h 4 ( / ! ) 6 ] ",
", ^ ) ~ ( 3 f [ t < e e L M N D O p P Q R H S T U U U U U U U T T T V W X J K t w h 4 ( ~ ) 6 ] ",
", ^ ) ( 4 h w u s X V I U Y Z ` p P  ...R +.@.#.S $.$.$.$.$.$.$.$.S #.%.U V &.< t w h 5 / ) 6 ] ",
", ^ ) ( 1 _ v < X T #.$.*.=.-.a ;. ...a >.,.'.y 7 i i i i i i i i 7 7 *.$.%.T X K v _ 1 ( ) 6 ] ",
", ^ ) 5 &.u u &.T #.*.i ).!.~.q {...a >.].^./.(.!._._._._._._._._.:.:.!.7 =.%.V e u w h 5 ) 6 ] ",
", ^ ) <.[.}.s |.%.=.i :.:.1.2.3...a >.].^.4.5.6.7.7.7.7.7.7.7.7.8.8.8._.:.7 $.U X K 9.f 4 ) 0.] ",
", a.) b.c.d.e.T #.7 !.:.1.2.P ..a >.].^.4.f.g.h.i.7.j.j.j.j.j.j.j.7.7.7._.).*.#.W s v _ } ) 0.] ",
", a.) k.l.l D m.$.7 !.n.2.P ..a >.].^.4.f.o.'.p.= 7.j.j.j.j.j.j.j.j.j.7.8.:.7 S V J t g 1 ! 0.] ",
", a.) q.l.r.s.t.m.7 n.o.P ..a >.].^.4.f.g.u.v.w.- 8.j.j.j.j.j.j.j.j.j.7.8._.i $.T e u g 1 ! 0.] ",
", a.) 7 C d.C x.Q e.2.{...a >.].^.4.f.g.u.y.z.& 1.7.j.j.j.j.j.j.j.j.j.j.7._.i $.U &.u w 2 ~ 0.] ",
", a.) |.Q N D O p j  ...a >.].^.4.f.g.u.y.A.c B.7.j.j.j.j.j.j.j.j.j.j.j.7._.i $.U &.C.w 2 ~ 0.] ",
", a.! h D.o O p P  ...a >.].^.4.f.g.u.y.A.E.F.G._.j.j.j.j.j.j.j.j.j.j.j.7._.i =.U &.C.w 2 ~ 0.] ",
", a.~ | H.E p P  ...a >.].^.4.f.g.'.y.A.E.I.H J.K.j.j.j.j.j.j.j.j.j.j.7.7._.i =.U &.C.w 2 ~ 0.] ",
", a.L.2 s 4.t. ...a >.].^.4.f.g.'.y.A.E.I.> M.I.A.N.j.j.O.j.j.j.j.j.j.j.7._.i =.U &.C.w 2 ~ 0.] ",
", a.L.h _ P.0 Q.a >.].^.4.f.g.'.y.A.E.I.> R.B.y.S.h.T.U.V.W.j.j.j.j.j.j.7._.i =.U &.C.w 2 L.0.] ",
", a.L.h [ u X.Y.Y.].^.4.f.g.'.y.A.E.I.> Z.`. +.+.+S.R.++3 @+#+O.j.j.j.j.7._.i =.I &.C.w 2 L.0.] ",
", a.L.h [ C.&.$+/.+.%+f.g.'.v.A.E.F.&+`.*+ +.+.+S.=+-+;+>+4 x #+O.j.j.j.7._.i =.I &.C.w 2 L.0.] ",
", a.L.h [ C.X T ,+> '+o.2.S.z.E.=+B.H w.y..+.+S.)+' :.#+++!+3 @+#+O.j.j.7._.i =.I &.C.w 2 L.0.] ",
", a.L.h [ C.X I $.i ; T.~+{+]+^+^ /+(+.+.+.+S._+:+<+n.8.[+}+|+x @+#+O.j.7._.i =.I &.C.w 2 L.0.] ",
", a.L.h [ C.X I =.i _.8.8.8.8.7.7.7.* *+.+S. +Z.^+1+{ 1.7.2+3+4+@+@+#+j.7._.i =.I &.C.w 2 L.0.] ",
", a.L.h [ C.X I =.)._.7.j.j.j.j.j.j.7.* *+.+F.`.5+6+7+6 8+7.9+0+a+b+b+#+j._.i =.I &.C.w 2 L.0.] ",
", a.L.h [ C.X I =.)._.7.j.j.j.j.j.j.j.8.7+ +c =+B.J.:+K.0.* j.W.V.: c+c+d+8.i =.U &.C.w 2 L.0.] ",
", a.L.h [ C.X I =.)._.7.j.j.j.j.j.j.j.7.N.u.y.c & (+{+G.K.' ; O.W.b.e+f+c+g+).=.U &.C.w 2 ~ 0.] ",
", a.L.h [ C.X I =.)._.7.j.j.j.j.j.j.j.7.8+I.'+v._+& h+i+]+j+^ /+k+l+m+n+<.c+V =.U &.C.w 2 ~ 0.] ",
", a.~ h [ C.X I =.)._.7.j.j.j.j.j.j.j.j.7./+F.o..+p.6.h+M.o+p+^ = ~.U.m+q+<.c+|.U &.C.w 2 ~ 0.] ",
", a.~ h [ C.X I =.)._.7.7.j.j.j.j.j.j.j.j.7.= )+g.S.h.I.*+~+r+N.a.- -+!.g+;+s+c+J &.C.w 2 ~ 0.] ",
", a.~ 2 w C.X I =.i _.7.j.j.j.j.j.j.j.j.j.j.7.= t+u+v+A.F.w+~+(.T.x+- i.:.d+;+>+c+C.C.w 2 ~ 0.] ",
", a.~ 2 w C.&.U =.i _.7.j.j.j.j.j.j.j.j.j.j.j.7.= w.y+u.z.)+H z+A+B+C+D+n._.#+++!+c+[ w 2 ! 0.] ",
", a.~ 2 g u e T $.i _.8.7.j.j.j.j.j.j.j.j.j.j.j.7.= E.D.u.z.t+&+R.A+^+E+<+n.8.[+}+|+c+_ 1 ! 0.] ",
", a.! 1 g t J V S 7 :.8.7.7.j.j.j.j.j.j.j.j.j.j.j.7.= E.F+'. +w.> Z.G+6+1+{ 1.7.2+3+4+_ 1 ) 0.] ",
", ^ ) } _ v s W %.=.i _.8.7.7.7.7.7.7.7.7.7.7.7.7.7.8.= c f.H+I+E.J+`.5+6+7+6 8+7.9+0+!+4 ) 0.] ",
", ^ ) 4 h [ K &.U S *.i :._._._._._._._._._._._._._._.:.; c 5.2.K+E.=+B.J.:+K.0.* j.W.;+4 ) 6 ] ",
", ^ ) 5 2 g t s W I S *.7 i i i ).).).).).).).).).).).).7 L+c 5.'+y.c & (+{+G.K.' ; k+b.4 ) 6 ] ",
", ^ ) ( 4 f [ C.e W U #.S $.=.=.=.=.=.=.=.=.=.=.=.=.=.=.=.$.M+E.N+o.v._+& h+i+]+j+^ /+m+/ ) 6 ] ",
", ^ ) / 5 2 _ 9.C.J X W T U U I I I I I I I I I I I I I I I U O+E.q g..+p.6.h+M.o+N.{ a+~ ) 6 ] ",
", ^ ) ~ / 5 2 _ [ t K s e &.&.X X X X X X X X X X X X X X X X &.k.w./.u+S.h.I.*+~+]+_.( ! ) 6 ] ",
", ^ ) ! ~ ( 5 2 f g 9.v u C.C.C.C.C.C.K K K K K K K K K K C.C.C.u S h+y+D.u. +)+M.-+x ! ! ) 6 ] ",
", ^ ) ) ! ~ / 5 } 2 f _ g w w [ [ [ [ [ [ [ [ [ [ [ [ [ [ [ [ [ [ g u L+A+R.5+^ b.5 ! ! ) ) 6 ] ",
", ^ ) ) ) ! ~ / ( 5 4 1 1 2 2 h h h h h h h h h h h h h h h h h h 2 1 | } c+@+/ ! ! ! ) ) ) 6 ] ",
", ' ) ) ) ) ) ) ) ) ) ! ! ! ~ ~ L.L.L.L.L.L.L.L.L.L.L.L.L.L.L.L.~ ~ ! ! ) ) ) ) ) ) ) ) ) ) { ] ",
"P+_+C+1+1+1+1+1+1+1+1+7+7+7+7+7+7+7+7+7+7+7+7+7+7+7+7+7+7+7+7+7+7+7+7+7+7+1+1+1+1+1+1+1+1+C+E.% ",
". Q+R+# # # # # # # # # # # # # # # # # # # # # # # # # # # # # # # # # # # # # # # # # # R+Q+. "};
