/* XPM */
static char * gcolor2_xpm[] = {
"48 48 274 2",
"  	c None",
". 	c #00FEFE",
"+ 	c #00F0F0",
"@ 	c #00EAEA",
"# 	c #00EFEF",
"$ 	c #00FDFD",
"% 	c #00F1F1",
"& 	c #006D6D",
"* 	c #003737",
"= 	c #003A3A",
"- 	c #003B3B",
"; 	c #003838",
"> 	c #006A6A",
", 	c #00EDED",
"' 	c #004141",
") 	c #000000",
"! 	c #000101",
"~ 	c #000202",
"{ 	c #003E3E",
"] 	c #00ECEC",
"^ 	c #004242",
"/ 	c #000303",
"( 	c #000404",
"_ 	c #000505",
": 	c #000606",
"< 	c #010606",
"[ 	c #000707",
"} 	c #010707",
"| 	c #010808",
"1 	c #003F3F",
"2 	c #010909",
"3 	c #010A0A",
"4 	c #010B0B",
"5 	c #010C0C",
"6 	c #010D0D",
"7 	c #010F0F",
"8 	c #011010",
"9 	c #011111",
"0 	c #011212",
"a 	c #010E0E",
"b 	c #000808",
"c 	c #011414",
"d 	c #011616",
"e 	c #011717",
"f 	c #011818",
"g 	c #011515",
"h 	c #011A1A",
"i 	c #011C1C",
"j 	c #011D1D",
"k 	c #011E1E",
"l 	c #011F1F",
"m 	c #012020",
"n 	c #012222",
"o 	c #012323",
"p 	c #012424",
"q 	c #012121",
"r 	c #011919",
"s 	c #012626",
"t 	c #012727",
"u 	c #012828",
"v 	c #013232",
"w 	c #035252",
"x 	c #034C4C",
"y 	c #012E2E",
"z 	c #011313",
"A 	c #012929",
"B 	c #002A2A",
"C 	c #002B2B",
"D 	c #003030",
"E 	c #024949",
"F 	c #065E5E",
"G 	c #086363",
"H 	c #076B6B",
"I 	c #046767",
"J 	c #014242",
"K 	c #002929",
"L 	c #012525",
"M 	c #011B1B",
"N 	c #002C2C",
"O 	c #002E2E",
"P 	c #013F3F",
"Q 	c #055151",
"R 	c #085252",
"S 	c #095151",
"T 	c #095959",
"U 	c #086666",
"V 	c #077575",
"W 	c #057E7E",
"X 	c #026060",
"Y 	c #003535",
"Z 	c #002D2D",
"` 	c #004040",
" .	c #004343",
"..	c #034646",
"+.	c #074545",
"@.	c #093F3F",
"#.	c #094444",
"$.	c #094F4F",
"%.	c #095A5A",
"&.	c #087373",
"*.	c #078181",
"=.	c #068F8F",
"-.	c #038282",
";.	c #004F4F",
">.	c #003333",
",.	c #023E3E",
"'.	c #063C3C",
").	c #093131",
"!.	c #0A3232",
"~.	c #0A3B3B",
"{.	c #094545",
"].	c #077373",
"^.	c #078080",
"/.	c #078E8E",
"(.	c #069E9E",
"_.	c #04A3A3",
":.	c #017878",
"<.	c #003C3C",
"[.	c #013838",
"}.	c #053636",
"|.	c #082828",
"1.	c #0A2222",
"2.	c #0A2929",
"3.	c #093232",
"4.	c #078D8D",
"5.	c #069C9C",
"6.	c #05ACAC",
"7.	c #03BABA",
"8.	c #02A6A6",
"9.	c #006060",
"0.	c #002F2F",
"a.	c #023232",
"b.	c #072222",
"c.	c #091616",
"d.	c #0A1A1A",
"e.	c #05ABAB",
"f.	c #04BABA",
"g.	c #03CDCD",
"h.	c #02D0D0",
"i.	c #009595",
"j.	c #013535",
"k.	c #052E2E",
"l.	c #081A1A",
"m.	c #0A2121",
"n.	c #03CCCC",
"o.	c #02D3D3",
"p.	c #01B5B5",
"q.	c #005E5E",
"r.	c #005B5B",
"s.	c #034E4E",
"t.	c #072F2F",
"u.	c #092222",
"v.	c #0A2828",
"w.	c #04B9B9",
"x.	c #02ADAD",
"y.	c #018A8A",
"z.	c #008181",
"A.	c #005C5C",
"B.	c #005D5D",
"C.	c #006868",
"D.	c #016666",
"E.	c #054C4C",
"F.	c #0A3131",
"G.	c #069D9D",
"H.	c #04A0A0",
"I.	c #028383",
"J.	c #007171",
"K.	c #008383",
"L.	c #010202",
"M.	c #006767",
"N.	c #006F6F",
"O.	c #007575",
"P.	c #026A6A",
"Q.	c #074C4C",
"R.	c #093D3D",
"S.	c #068C8C",
"T.	c #047E7E",
"U.	c #015E5E",
"V.	c #005656",
"W.	c #006565",
"X.	c #007777",
"Y.	c #008787",
"Z.	c #003D3D",
"`.	c #006E6E",
" +	c #007676",
".+	c #007F7F",
"++	c #018181",
"@+	c #046B6B",
"#+	c #085151",
"$+	c #087474",
"%+	c #057575",
"&+	c #025858",
"*+	c #004A4A",
"=+	c #005A5A",
"-+	c #007A7A",
";+	c #008B8B",
">+	c #005F5F",
",+	c #007E7E",
"'+	c #008686",
")+	c #008E8E",
"!+	c #028888",
"~+	c #066E6E",
"{+	c #085F5F",
"]+	c #086464",
"^+	c #045656",
"/+	c #003232",
"(+	c #004E4E",
"_+	c #008F8F",
":+	c #009797",
"<+	c #009C9C",
"[+	c #037C7C",
"}+	c #023636",
"|+	c #002121",
"1+	c #002828",
"2+	c #003636",
"3+	c #004444",
"4+	c #005252",
"5+	c #006161",
"6+	c #008282",
"7+	c #009292",
"8+	c #009696",
"9+	c #00A0A0",
"0+	c #001E1E",
"a+	c #002020",
"b+	c #003939",
"c+	c #004747",
"d+	c #005555",
"e+	c #006464",
"f+	c #007474",
"g+	c #006262",
"h+	c #002323",
"i+	c #005858",
"j+	c #007878",
"k+	c #008989",
"l+	c #009A9A",
"m+	c #006363",
"n+	c #002424",
"o+	c #002626",
"p+	c #004D4D",
"q+	c #006B6B",
"r+	c #007B7B",
"s+	c #008D8D",
"t+	c #009D9D",
"u+	c #005050",
"v+	c #009191",
"w+	c #00A1A1",
"x+	c #008080",
"y+	c #004646",
"z+	c #005454",
"A+	c #007272",
"B+	c #00A4A4",
"C+	c #004949",
"D+	c #005757",
"E+	c #006666",
"F+	c #009898",
"G+	c #00A8A8",
"H+	c #004C4C",
"I+	c #006969",
"J+	c #007979",
"K+	c #008A8A",
"L+	c #00A6A6",
"M+	c #003131",
"N+	c #007D7D",
"O+	c #008C8C",
"P+	c #003434",
"Q+	c #004545",
"R+	c #005353",
"S+	c #004848",
"T+	c #004B4B",
"U+	c #008484",
"V+	c #007C7C",
"W+	c #00F2F2",
"X+	c #00F3F3",
"Y+	c #00EEEE",
". + @ @ @ @ @ @ @ @ @ @ @ @ @ @ @ @ @ @ @ @ @ @ @ @ @ @ @ @ @ @ @ @ @ @ @ @ @ @ @ @ @ @ @ @ # $ ",
"% & * = = = = = = = = = = = = - - - - - - - - - - - - - - - - - - = = = = = = = = = = = = ; > + ",
", ' ) ) ) ) ) ) ) ) ) ! ! ! ! ! ~ ~ ~ ~ ~ ~ ~ ~ ~ ~ ~ ~ ~ ~ ~ ~ ! ! ! ! ! ) ) ) ) ) ) ) ) ) { ] ",
", ^ ) ) ) ! ! ~ / ( _ : < [ } } | | | | | | | | | | | | | | | | } } [ < : _ ( / ~ ! ) ) ) ) 1 ] ",
", ^ ) ) ! ~ / ( _ } 2 3 4 5 5 5 5 5 5 5 5 5 5 5 5 5 5 5 5 5 5 5 5 5 4 3 2 | } _ ( / ! ! ) ) 1 ] ",
", ^ ) ! ~ / _ : 2 4 6 7 8 9 9 0 0 0 0 0 0 0 0 0 0 0 0 0 0 0 0 0 0 9 9 8 a 6 4 2 : ( / ! ) ) 1 ] ",
", ^ ) ! / _ b 3 6 8 0 c d e f f f f f f f f f f f f f f f f f f f f e d c 0 8 6 2 : ( / ! ) 1 ] ",
", ^ ) ~ ( [ 3 a 9 g f h i j k k k l l l l l l l l l l l l l l k k k j i h e c 9 6 2 : ( ~ ) 1 ] ",
", ^ ) ( : 2 6 0 d h j m n o o p p p p p p p o n n o p p p p p p p o n q l j r g 9 6 2 _ / ) 1 ] ",
", ^ ) ( | 5 8 g h k n p s t t u u u u u u t v w x y t u u u u u u t t s p q k h c 8 4 } ( ) 1 ] ",
", ^ ) _ 2 a z r k n s u A B B C C C C B D E F G H I J C C C C C C B B K t L q j f 0 6 2 _ ) 1 ] ",
", ^ ) : 4 8 g M q L u B N N N N N N O P Q R S T U V W X Y C N Z N N N C B t p l h c 7 3 : ) ` ] ",
",  .! } 5 9 e j n s K N Z Z Z Z O * ..+.@.#.$.%.U &.*.=.-.;.Z N O Z Z Z C A s n i d 8 4 < ) ` ] ",
",  .! | 5 0 f k o u B N Z O O >.,.'.).!.~.{.$.%.U ].^./.(._.:.<.N O O Z N B t o j e 9 5 } ! ` ] ",
",  .~ | 6 z r l p u C Z Z D [.}.|.1.2.3.~.{.$.%.U ].^.4.5.6.7.8.9.0.Z O N C u p k f 0 5 } ! ` ] ",
",  .~ | 6 z r l L u C Z O a.b.c.d.1.2.3.~.{.$.%.U ].^.4.5.e.f.g.h.i.{ Z Z C u p l r 0 6 | ~ ` ] ",
",  .~ | 6 z h m L u C Z O j.k.l.d.m.2.3.~.{.$.%.U ].^.4.5.e.f.n.o.p.q.C Z C u p l r z 6 | ~ ` ] ",
",  .~ 2 a z h m L A C Z Z <.r.s.t.u.v.3.~.{.$.%.U ].^.4.5.6.w.x.y.z.A.N Z C u L l r z 6 | ~ ` ] ",
",  .~ 2 a z h m L A C Z Z <.B.C.D.E.3.F.~.{.$.%.U ].^./.G.H.I.> J.K.B.N Z C u L l r z 6 | ~ ` ] ",
",  .L.2 a z h m L A C Z Z <.B.M.N.O.P.Q.R.#.$.%.U ].*.S.T.U.V.W.X.Y.q.N Z C u L l r z 6 | ~ ` ] ",
",  .L.2 a z h m L A C Z Z Z.B.M.`. +.+++@+#+$.%.U $+%+&+ .*+=+> -+;+>+N Z C u L l r z 6 | L.` ] ",
",  .L.2 a z h m L A C Z Z <.B.M.`. +,+'+)+!+~+{+]+^+[./+` (+B.& ,+_+9.N Z C u L m r z 6 | L.` ] ",
",  .L.2 a z h m L A C Z Z <.B.M.`. +,+'+)+:+<+[+}+|+1+2+3+4+5+J.6+7+5+N Z C u L m r z 6 | L.` ] ",
",  .L.2 a z h m L A C Z Z <.B.M.`. +,+'+)+8+9+,+0+a+N b+c+d+e+f+'+8+g+N Z C u L m r z 6 | L.` ] ",
",  .L.2 a z h m L A C Z Z <.B.M.`. +,+'+)+8+9+,+|+h+0.<.*+i+C.j+k+l+m+N Z C u L m r z 6 | L.` ] ",
",  .L.2 a z h m L A C Z Z <.B.M.`. +,+'+)+8+9+.+n+o+/+1 p+A.q+r+s+t+e+N Z C u L m r z 6 | L.` ] ",
",  .L.2 a z h m L A C Z Z <.B.M.`. +,+'+)+8+9+.+o+1+Y ^ u+>+N..+v+w+W.C Z C u L m r z 6 | L.` ] ",
",  .L.2 a z h m L A C Z Z - B.M.`. +,+'+)+8+9+x+K C ; y+z+g+A+K.i.B+W.C Z C u L l r z 6 | L.` ] ",
",  .L.2 a z h m L A C Z Z - B.M.`. +,+'+)+8+9+x+N 0.<.C+D+E+ +'+F+G+M.C Z C u L l r z 6 | ~ ` ] ",
",  .L.2 a z h m L A C Z Z b+A.M.`. +,+'+)+8+9+z.O /+1 H+r.I+J+K+t+L+A.C Z C u L l r z 6 | ~ ` ] ",
",  .~ 2 a z h m L A C Z O D y+5+N. +,+'+)+8+9+z.M+Y ^ u+q.& N+)+O+m+P+Z Z C u L l r z 6 | ~ ` ] ",
",  .~ 2 a z h m L A C Z O O O <.A.f+.+'+)+8+9+z.>.* Q+R+5+J.r+I+' Z O O Z C u p l r z 6 | ~ ` ] ",
",  .~ | 6 z h m L u C Z O O O Z /+u+f+'+)+8+9+6+2+= S+V.e+m+*+D Z O O O Z C u p l r z 6 | ~ ` ] ",
",  .~ | 6 z r l L u C Z O O O O O O ` > ;+:+9+6+; Z.T+d+H+Y Z O O O O O N C u p k f 0 5 | ! ` ] ",
",  .~ | 5 0 f k p u C N Z O O O O O Z >.D+'+9+U+- ` Q+b+O Z O O O O O Z N B t o k f 0 5 } ! ` ] ",
",  .! } 5 9 e j o t B N Z Z O O O O O Z Z '  +V+<.* D Z O O O O O O Z Z N K s n j e 9 4 } ) ` ] ",
", ^ ) < 4 8 d i q L u C N Z Z Z Z Z Z Z Z N /+' M+Z Z Z Z Z Z Z Z Z Z N B u L m M g 7 3 : ! ` ] ",
", ^ ) : 2 a c r l o s u B C C C C C C C C C C B C C C C C C C C C C C B u s o k r z 6 2 _ ) 1 ] ",
", ^ ) _ | 5 9 d i m o s t u u u A A A A A A A A A A A A A A A A u u u t L o l M d 9 5 } ( ) 1 ] ",
", ^ ) ( : 3 a z f i l n o p L L L L L L L L L L L L L L L L L L L L p o q k M e 0 6 2 : / ) 1 ] ",
", ^ ) / _ | 4 7 z e h i k l l m m m m m m m m m m m m m m m m m m l k j i r d 0 a 4 } ( ~ ) 1 ] ",
", ^ ) ~ / _ | 4 a 9 c d f r r h h h h h h h h h h h h h h h h h h r r e d z 9 a 4 | _ / ! ) 1 ] ",
", ^ ) ! ~ ( _ | 3 5 7 8 0 z z z z z z c c c c c c c c c c z z z z z 0 9 8 a 5 3 | _ / ~ ! ) 1 ] ",
", ^ ) ) ! ~ / _ < | 3 4 5 6 6 a a a a a a a a a a a a a a a a a a 6 6 5 4 2 | : _ / ~ ! ) ) 1 ] ",
", ^ ) ) ) ! ~ / ( _ : } } | | 2 2 2 2 2 2 2 2 2 2 2 2 2 2 2 2 2 2 | | } < : _ ( / ~ ! ) ) ) 1 ] ",
", ' ) ) ) ) ) ) ) ) ) ! ! ! ~ ~ L.L.L.L.L.L.L.L.L.L.L.L.L.L.L.L.~ ~ ! ! ) ) ) ) ) ) ) ) ) ) { ] ",
"W+ +Q+c+c+c+c+c+c+c+c+S+S+S+S+S+S+S+S+S+S+S+S+S+S+S+S+S+S+S+S+S+S+S+S+S+S+c+c+c+c+c+c+c+c+Q+f+% ",
". X+Y+# # # # # # # # # # # # # # # # # # # # # # # # # # # # # # # # # # # # # # # # # # Y+X+. "};
