/* XPM */
static char * gnome_activity_journal_xpm[] = {
"48 48 265 2",
"  	c None",
". 	c #00FEFE",
"+ 	c #00F0F0",
"@ 	c #00EAEA",
"# 	c #00EFEF",
"$ 	c #00FDFD",
"% 	c #00F1F1",
"& 	c #006D6D",
"* 	c #003737",
"= 	c #003A3A",
"- 	c #003B3B",
"; 	c #003838",
"> 	c #006A6A",
", 	c #00EDED",
"' 	c #004141",
") 	c #000000",
"! 	c #000101",
"~ 	c #000202",
"{ 	c #003E3E",
"] 	c #00ECEC",
"^ 	c #004242",
"/ 	c #000303",
"( 	c #000404",
"_ 	c #000505",
": 	c #000606",
"< 	c #010606",
"[ 	c #000707",
"} 	c #010707",
"| 	c #010808",
"1 	c #003F3F",
"2 	c #010909",
"3 	c #010A0A",
"4 	c #010B0B",
"5 	c #010C0C",
"6 	c #010D0D",
"7 	c #010F0F",
"8 	c #011010",
"9 	c #011111",
"0 	c #011212",
"a 	c #011414",
"b 	c #012828",
"c 	c #014D4D",
"d 	c #006C6C",
"e 	c #008080",
"f 	c #008989",
"g 	c #008A8A",
"h 	c #007E7E",
"i 	c #016363",
"j 	c #013F3F",
"k 	c #012121",
"l 	c #010E0E",
"m 	c #000808",
"n 	c #011616",
"o 	c #011717",
"p 	c #011E1E",
"q 	c #014C4C",
"r 	c #00B8B8",
"s 	c #00D0D0",
"t 	c #00DBDB",
"u 	c #00E1E1",
"v 	c #00E3E3",
"w 	c #00E6E6",
"x 	c #00E7E7",
"y 	c #00D8D8",
"z 	c #017E7E",
"A 	c #013B3B",
"B 	c #011818",
"C 	c #011515",
"D 	c #011A1A",
"E 	c #011C1C",
"F 	c #011D1D",
"G 	c #014343",
"H 	c #009191",
"I 	c #00C5C5",
"J 	c #00D6D6",
"K 	c #00D9D9",
"L 	c #00DADA",
"M 	c #00DCDC",
"N 	c #00DEDE",
"O 	c #00E4E4",
"P 	c #00E9E9",
"Q 	c #00EEEE",
"R 	c #00EBEB",
"S 	c #00CECE",
"T 	c #008585",
"U 	c #013232",
"V 	c #011B1B",
"W 	c #012020",
"X 	c #012525",
"Y 	c #016666",
"Z 	c #00B5B5",
"` 	c #00CFCF",
" .	c #00D1D1",
"..	c #00D3D3",
"+.	c #00D5D5",
"@.	c #00D7D7",
"#.	c #00CBCB",
"$.	c #00BDBD",
"%.	c #00B3B3",
"&.	c #00B6B6",
"*.	c #00C7C7",
"=.	c #00BABA",
"-.	c #015454",
";.	c #011F1F",
">.	c #011919",
",.	c #012222",
"'.	c #012323",
").	c #012B2B",
"!.	c #007777",
"~.	c #00C0C0",
"{.	c #00CCCC",
"].	c #00CDCD",
"^.	c #00A7A7",
"/.	c #007676",
"(.	c #013838",
"_.	c #013333",
":.	c #013434",
"<.	c #015555",
"[.	c #008787",
"}.	c #00C4C4",
"|.	c #00F2F2",
"1.	c #00D2D2",
"2.	c #016565",
"3.	c #012424",
"4.	c #011313",
"5.	c #012929",
"6.	c #00BFBF",
"7.	c #00C8C8",
"8.	c #00CACA",
"9.	c #006E6E",
"0.	c #002929",
"a.	c #002A2A",
"b.	c #002B2B",
"c.	c #00F3F3",
"d.	c #006363",
"e.	c #006464",
"f.	c #00B9B9",
"g.	c #00C3C3",
"h.	c #00C6C6",
"i.	c #00C9C9",
"j.	c #00A5A5",
"k.	c #005151",
"l.	c #002C2C",
"m.	c #002D2D",
"n.	c #006767",
"o.	c #004E4E",
"p.	c #004040",
"q.	c #004343",
"r.	c #004545",
"s.	c #00A9A9",
"t.	c #00C2C2",
"u.	c #00A8A8",
"v.	c #002E2E",
"w.	c #002F2F",
"x.	c #003030",
"y.	c #006868",
"z.	c #00AEAE",
"A.	c #003232",
"B.	c #00BBBB",
"C.	c #00BCBC",
"D.	c #00BEBE",
"E.	c #007878",
"F.	c #008E8E",
"G.	c #014F4F",
"H.	c #013636",
"I.	c #00ADAD",
"J.	c #003434",
"K.	c #004444",
"L.	c #00A2A2",
"M.	c #007171",
"N.	c #003C3C",
"O.	c #00E2E2",
"P.	c #008F8F",
"Q.	c #005959",
"R.	c #003D3D",
"S.	c #005757",
"T.	c #007B7B",
"U.	c #00F5F5",
"V.	c #012727",
"W.	c #013737",
"X.	c #009F9F",
"Y.	c #00B2B2",
"Z.	c #00B4B4",
"`.	c #009898",
" +	c #003636",
".+	c #00AFAF",
"++	c #003535",
"@+	c #004848",
"#+	c #00D4D4",
"$+	c #017070",
"%+	c #00AAAA",
"&+	c #00B0B0",
"*+	c #003131",
"=+	c #007575",
"-+	c #00F6F6",
";+	c #003333",
">+	c #009696",
",+	c #009E9E",
"'+	c #010202",
")+	c #00ABAB",
"!+	c #009999",
"~+	c #009595",
"{+	c #012626",
"]+	c #008B8B",
"^+	c #00ACAC",
"/+	c #006565",
"(+	c #005F5F",
"_+	c #009797",
":+	c #00E8E8",
"<+	c #016C6C",
"[+	c #009D9D",
"}+	c #00A6A6",
"|+	c #007272",
"1+	c #009292",
"2+	c #00E5E5",
"3+	c #017373",
"4+	c #00A3A3",
"5+	c #004646",
"6+	c #009393",
"7+	c #00A1A1",
"8+	c #00A4A4",
"9+	c #009B9B",
"0+	c #004A4A",
"a+	c #00E0E0",
"b+	c #009C9C",
"c+	c #016868",
"d+	c #009494",
"e+	c #00A0A0",
"f+	c #007979",
"g+	c #005B5B",
"h+	c #014949",
"i+	c #007C7C",
"j+	c #008C8C",
"k+	c #008383",
"l+	c #009A9A",
"m+	c #007373",
"n+	c #008686",
"o+	c #013131",
"p+	c #004C4C",
"q+	c #015656",
"r+	c #005353",
"s+	c #009090",
"t+	c #00B1B1",
"u+	c #012A2A",
"v+	c #008181",
"w+	c #008282",
"x+	c #008D8D",
"y+	c #006060",
"z+	c #005A5A",
"A+	c #00C1C1",
"B+	c #006F6F",
"C+	c #006969",
"D+	c #007F7F",
"E+	c #005D5D",
"F+	c #005050",
"G+	c #008888",
"H+	c #014B4B",
"I+	c #002222",
"J+	c #013535",
"K+	c #008484",
"L+	c #007070",
"M+	c #014141",
"N+	c #007A7A",
"O+	c #004747",
"P+	c #007474",
". + @ @ @ @ @ @ @ @ @ @ @ @ @ @ @ @ @ @ @ @ @ @ @ @ @ @ @ @ @ @ @ @ @ @ @ @ @ @ @ @ @ @ @ @ # $ ",
"% & * = = = = = = = = = = = = - - - - - - - - - - - - - - - - - - = = = = = = = = = = = = ; > + ",
", ' ) ) ) ) ) ) ) ) ) ! ! ! ! ! ~ ~ ~ ~ ~ ~ ~ ~ ~ ~ ~ ~ ~ ~ ~ ~ ! ! ! ! ! ) ) ) ) ) ) ) ) ) { ] ",
", ^ ) ) ) ! ! ~ / ( _ : < [ } } | | | | | | } } } | | | | | | | } } [ < : _ ( / ~ ! ) ) ) ) 1 ] ",
", ^ ) ) ! ~ / ( _ } 2 3 4 5 5 5 5 5 5 4 3 | 2 5 4 | 2 3 4 5 5 5 5 5 4 3 2 | } _ ( / ! ! ) ) 1 ] ",
", ^ ) ! ~ / _ : 2 4 6 7 8 9 9 0 9 7 a b c d e f g h i j k 8 8 0 0 9 9 8 l 6 4 2 : ( / ! ) ) 1 ] ",
", ^ ) ! / _ m 3 6 8 0 a n o o n p q f r s t u v w x u y r z A B n o o n a 0 8 6 2 : ( / ! ) 1 ] ",
", ^ ) ~ ( [ 3 l 9 C B D E F F G H I J K L M N u O w P ] Q R S T U V F E D o a 9 6 2 : ( ~ ) 1 ] ",
", ^ ) ( : 2 6 0 n D F W W X Y Z `  ...+.y L @.#.$.%.&.*.L @ % ] =.-.k k ;.F >.C 9 6 2 _ / ) 1 ] ",
", ^ ) ( | 5 8 C D p ,.'.).!.~.{.].`  ...#.^./.c (._.:.A <.[.}.R |.1.2.X 3.k p D a 8 4 } ( ) 1 ] ",
", ^ ) _ 2 l 4.>.p ,.X 5./.6.*.7.8.].].%.9.* 0.0.a.b.a.a.0.0.{ g M c.@.d.X X k F B 0 6 2 _ ) 1 ] ",
", ^ ) : 4 8 C V k X X e.f.g.}.h.i.i.j.k.l.l.m.m.m.m.m.l.m.m.b.l.n...c.{.o.X 3.;.D a 7 3 : ) p.] ",
", q.! } 5 9 o F '.3.r.s.6.~.t.}.h.u.k.l.m.v.v.v.v.m.w.p.x.m.v.m.b.y.t |.z.A.'.W E n 8 4 < ) p.] ",
", q.! | 5 0 B p '.5.T B.C.D.~.g.Z d.l.v.v.v.v.v.v.x.E.%.o.l.v.v.v.m.[.@ x F.G.H.p n 9 5 } ! p.] ",
", q.~ | 6 4.>.;.k c I.r =.C.D.$.g J.m.v.v.v.v.v.l.K.L.I M.b.v.v.v.m.N.D.% R O.].P.U 8 5 } ! p.] ",
", q.~ | 6 4.>.;.3.h Z Z r =.$.z.Q.l.v.v.v.v.v.m.v.R.r.Q.S.m.v.v.v.v.b.T.P + |.U.U.Z V.4 | ~ p.] ",
", q.~ | 6 4.D F W.X.Y.Z.&.r f.`.- m.v.v.v.v.m. +h .+I./.++m.v.v.v.v.l.@+#+Q # |.U.% $+2 | ~ p.] ",
", q.~ 2 l 4.D V <.%+&+Y.Z.&.&.h *+v.v.v.v.v.l.=+#.1.#+7.d l.v.v.v.v.m.++Z , , # |.-+H 2 } ~ p.] ",
", q.~ 2 l 4.>.F 9.I.I.&+Y.Z.Y.9.l.v.v.v.v.m.;+X.` `  ...>+;+v.v.v.v.v.v.,+] R Q + # E.| | ~ p.] ",
", q.'+2 l 4.>.,.h )+)+z.&+%.I.> b.v.v.v.v.v.*+!+].].` s H A.v.v.v.v.v.b.~+@ @ ] # ].W.4 | ~ p.] ",
", q.'+2 l 4.>.{+]+s.s.^+z.&+I.> b.v.v.v.v.v.b./+6.].S =.(+l.v.v.v.v.v.l._+:+x R M <+0 5 | '+p.] ",
", q.'+2 l 4.B G.[+}+u.%+^+z.z.|+v.v.v.v.v.v.m.x./+~+1+(+; x.v.v.v.v.v.A.j.2+w 1.3+F 0 6 | '+p.] ",
", q.'+2 l 9 W.P.L.4+}+u.%+^+I.[. +m.v.v.v.v.v.v.b.++5+/+f N.m.v.v.v.m.R.6.v O 6+;.>.4.6 | '+p.] ",
", q.'+2 6 D /.,+X.7+8+}+u.%+^+!+@+l.v.v.v.v.v.v.l.{ 9+I &.0+l.v.v.v.b.(+#+a+N h V >.4.6 | '+p.] ",
", q.'+2 4  +1+b+[+X.L.8+}+u.)+}+9.w.v.v.v.v.v.v.v.l.e.6.C.d.l.v.v.v.x.`.M N #+c+E >.4.6 | '+p.] ",
", q.'+2 3 q.d+!+9+[+e+L.8+}+s.%+6+@+l.v.v.v.v.v.v.v.v.f+D.=+b.v.v.b.g+8.L M i.h+p >.4.6 | '+p.] ",
", q.'+2 4 ; P.`.!+9+,+e+L.8+^.s.}+i+; m.v.v.v.v.v.v.m.J.j+k+w.v.l.1 %+J @.L .+_.p >.4.6 | '+p.] ",
", q.'+2 6 p /._+`.l+b+,+e+L.j.^.s.L.m+* m.v.v.v.v.v.v.l.{ y. +b.N._+s ..+.+.n+X ;.>.4.6 | '+p.] ",
", q.'+2 l 9 o+d n+1+l+b+,+e+4+j.^.%+L.f+^ m.m.v.v.v.v.v.l.w.m.p+[+{.`  .#+g.q+,.;.>.4.6 | ~ p.] ",
", q.'+2 l 4.B ,._.r+1+l+b+,+7+4+j.^.%+u.s+/+' A.m.a.a.l.A.r.!.t+i.#.].` s b+o+3.;.>.4.6 | ~ p.] ",
", q.~ 2 l 4.D ;.'.u+v+!+l+b+X.7+4+j.u.%+^+u.`.w+9./+n./.P.I.~.I h.i.#.S 6.(+{+X ;.>.4.6 | ~ p.] ",
", q.~ 2 l 4.D W X X d `.`.l+[+X.7+4+}+u.%+^+.+t+Y.%.Z f.$.6.~.t.}.*.i.7.x+A.b 3.;.>.4.6 | ~ p.] ",
", q.~ | 6 4.D W X '.y+>+>+!+9+[+X.7+8+}+u.%+^+.+t+%.Z r =.C.D.~.g.I h.}+@+a.b 3.;.>.4.6 | ~ p.] ",
", q.~ | 6 4.>.;.X ,.z+d+d+_+!+9+[+X.L.8+}+u.%+I..+t+%.Z r =.C.D.A+g.&+(+b.b.b 3.p B 0 5 | ! p.] ",
", q.~ | 5 0 B p 3.,.z+1+1+~+_+!+9+[+e+L.8+}+s.)+I..+t+Z.&.r =.C.6.t+> w.l.a.V.'.p B 0 5 } ! p.] ",
", q.! } 5 9 o F '.,.(+s+s+6+~+_+!+9+,+e+L.8+^.s.)+I..+Y.Z.&.r B.z.B+A.l.l.0.{+,.F o 9 4 } ) p.] ",
", ^ ) < 4 8 n E W '.9.x+F.H 6+~+_+l+b+,+e+L.j.^.s.)+I.&+Y.Z.&.u.C+*+l.l.a.b X W V C 7 3 : ! p.] ",
", ^ ) : 2 l a D E x.D+]+j+P.H 6+~+`.l+b+,+e+4+j.^.s.)+z.&+t+b+E+v.b.b.a.b {+'.p >.4.6 2 _ ) 1 ] ",
", ^ ) _ | 5 9 n B F+n+G+]+x+P.H 6+>+`.l+b+,+7+4+j.^.%+^+u.[.H+b b b b V.X '.;.V n 9 5 } ( ) 1 ] ",
", ^ ) ( : 3 l 9 I+M.T n+f ]+x+P.H d+>+`.l+b+X.7+4+}+}+>+C+J+'.X X X 3.'.k p V o 0 6 2 : / ) 1 ] ",
", ^ ) / _ | 4 6 q.e w+K+[.f ]+x+P.1+d+>+`.9+[+e+X.1+L+M+'.;.W W W ;.p F E >.n 0 l 4 } ( ~ ) 1 ] ",
", ^ ) ~ / _ | 3 @+i+v+k+T [.g j+F.s+6+~+_+_+H w+d.A ;.B D D D D D >.>.o n 4.9 l 4 | _ / ! ) 1 ] ",
", ^ ) ! ~ ( _ } C - S.n.m+T.e k+K+K+v+N+9.Q.' {+n 0 a a a 4.4.4.4.4.0 9 8 l 5 3 | _ / ~ ! ) 1 ] ",
", ^ ) ) ! ~ / _ < } 6 4.p a.x.A.;+U ).F C 8 5 6 l l l l l l l l l 6 6 5 4 2 | : _ / ~ ! ) ) 1 ] ",
", ^ ) ) ) ! ~ / ( _ _ < < < < } } } } | | 2 2 2 2 2 2 2 2 2 2 2 2 | | } < : _ ( / ~ ! ) ) ) 1 ] ",
", ' ) ) ) ) ) ) ) ) ) ! ! ! ~ ~ '+'+'+'+'+'+'+'+'+'+'+'+'+'+'+'+~ ~ ! ! ) ) ) ) ) ) ) ) ) ) { ] ",
"|./.r.O+O+O+O+O+O+O+O+@+@+@+@+@+@+@+@+@+@+@+@+@+@+@+@+@+@+@+@+@+@+@+@+@+@+O+O+O+O+O+O+O+O+r.P+% ",
". c.Q # # # # # # # # # # # # # # # # # # # # # # # # # # # # # # # # # # # # # # # # # # Q c.. "};
