/* XPM */
static char * gnome_term_xpm[] = {
"48 48 504 2",
"  	c None",
". 	c #00FEFE",
"+ 	c #00F0F0",
"@ 	c #00EAEA",
"# 	c #00EFEF",
"$ 	c #00FDFD",
"% 	c #00F1F1",
"& 	c #006D6D",
"* 	c #003737",
"= 	c #003A3A",
"- 	c #003B3B",
"; 	c #003838",
"> 	c #006A6A",
", 	c #00EDED",
"' 	c #004141",
") 	c #000000",
"! 	c #000101",
"~ 	c #000202",
"{ 	c #003E3E",
"] 	c #00ECEC",
"^ 	c #004242",
"/ 	c #000303",
"( 	c #000404",
"_ 	c #000505",
": 	c #000606",
"< 	c #010606",
"[ 	c #000707",
"} 	c #010707",
"| 	c #010808",
"1 	c #003F3F",
"2 	c #010909",
"3 	c #010A0A",
"4 	c #010B0B",
"5 	c #010C0C",
"6 	c #010D0D",
"7 	c #010F0F",
"8 	c #011010",
"9 	c #011111",
"0 	c #011212",
"a 	c #010E0E",
"b 	c #011313",
"c 	c #011414",
"d 	c #011515",
"e 	c #011616",
"f 	c #001F1F",
"g 	c #006969",
"h 	c #006F6F",
"i 	c #006E6E",
"j 	c #006C6C",
"k 	c #006767",
"l 	c #006565",
"m 	c #006464",
"n 	c #006262",
"o 	c #006060",
"p 	c #005E5E",
"q 	c #015C5C",
"r 	c #015A5A",
"s 	c #015858",
"t 	c #015656",
"u 	c #015454",
"v 	c #015252",
"w 	c #015050",
"x 	c #014E4E",
"y 	c #014C4C",
"z 	c #014949",
"A 	c #014747",
"B 	c #014545",
"C 	c #014343",
"D 	c #014040",
"E 	c #013E3E",
"F 	c #013C3C",
"G 	c #013939",
"H 	c #013535",
"I 	c #013131",
"J 	c #012D2D",
"K 	c #012929",
"L 	c #012525",
"M 	c #002020",
"N 	c #001515",
"O 	c #004343",
"P 	c #00D5D5",
"Q 	c #00DCDC",
"R 	c #00D7D7",
"S 	c #00D2D2",
"T 	c #00CECE",
"U 	c #00C9C9",
"V 	c #00C5C5",
"W 	c #00C1C1",
"X 	c #00BCBC",
"Y 	c #00B8B8",
"Z 	c #00B4B4",
"` 	c #00AFAF",
" .	c #00ABAB",
"..	c #00A6A6",
"+.	c #00A2A2",
"@.	c #009D9D",
"#.	c #009999",
"$.	c #009595",
"%.	c #009090",
"&.	c #008C8C",
"*.	c #008787",
"=.	c #008383",
"-.	c #007E7E",
";.	c #007A7A",
">.	c #007575",
",.	c #007171",
"'.	c #006868",
").	c #005B5B",
"!.	c #005757",
"~.	c #005252",
"{.	c #004E4E",
"].	c #004949",
"^.	c #004444",
"/.	c #004040",
"(.	c #003C3C",
"_.	c #002727",
":.	c #00D6D6",
"<.	c #00DDDD",
"[.	c #00D8D8",
"}.	c #00D4D4",
"|.	c #00D0D0",
"1.	c #00CBCB",
"2.	c #00C7C7",
"3.	c #00C2C2",
"4.	c #00BEBE",
"5.	c #00B9B9",
"6.	c #00B5B5",
"7.	c #00B0B0",
"8.	c #00ACAC",
"9.	c #00A7A7",
"0.	c #00A3A3",
"a.	c #009E9E",
"b.	c #009A9A",
"c.	c #009191",
"d.	c #008888",
"e.	c #007F7F",
"f.	c #007676",
"g.	c #006363",
"h.	c #005F5F",
"i.	c #005A5A",
"j.	c #005656",
"k.	c #005151",
"l.	c #004D4D",
"m.	c #004848",
"n.	c #014646",
"o.	c #03CBCB",
"p.	c #05C0C0",
"q.	c #05BCBC",
"r.	c #05B8B8",
"s.	c #05B3B3",
"t.	c #05B0B0",
"u.	c #05ABAB",
"v.	c #05A7A7",
"w.	c #05A3A3",
"x.	c #059F9F",
"y.	c #059B9B",
"z.	c #059797",
"A.	c #059393",
"B.	c #058F8F",
"C.	c #058B8B",
"D.	c #058787",
"E.	c #058383",
"F.	c #067F7F",
"G.	c #067B7B",
"H.	c #067777",
"I.	c #067373",
"J.	c #066F6F",
"K.	c #066B6B",
"L.	c #066767",
"M.	c #066363",
"N.	c #065E5E",
"O.	c #065B5B",
"P.	c #065656",
"Q.	c #065353",
"R.	c #064E4E",
"S.	c #064B4B",
"T.	c #064646",
"U.	c #044343",
"V.	c #01D4D4",
"W.	c #188484",
"X.	c #1B5C5C",
"Y.	c #195D5D",
"Z.	c #195C5C",
"`.	c #195A5A",
" +	c #195757",
".+	c #195555",
"++	c #195454",
"@+	c #195252",
"#+	c #194F4F",
"$+	c #194E4E",
"%+	c #194C4C",
"&+	c #194A4A",
"*+	c #194848",
"=+	c #194646",
"-+	c #194444",
";+	c #1A4242",
">+	c #1B3F3F",
",+	c #1B3E3E",
"'+	c #1B3C3C",
")+	c #1B3B3B",
"!+	c #1B3939",
"~+	c #1B3838",
"{+	c #1B3636",
"]+	c #1B3535",
"^+	c #1B3333",
"/+	c #1B3232",
"(+	c #1B3030",
"_+	c #1B2F2F",
":+	c #1B2E2E",
"<+	c #1B2D2D",
"[+	c #1C2C2C",
"}+	c #1D3333",
"|+	c #043E3E",
"1+	c #010404",
"2+	c #02D2D2",
"3+	c #197575",
"4+	c #076565",
"5+	c #026D6D",
"6+	c #026262",
"7+	c #025E5E",
"8+	c #025B5B",
"9+	c #025858",
"0+	c #025454",
"a+	c #025050",
"b+	c #024D4D",
"c+	c #024949",
"d+	c #024646",
"e+	c #024343",
"f+	c #024040",
"g+	c #023C3C",
"h+	c #023A3A",
"i+	c #023737",
"j+	c #023434",
"k+	c #023131",
"l+	c #022E2E",
"m+	c #022C2C",
"n+	c #022929",
"o+	c #022727",
"p+	c #022424",
"q+	c #022222",
"r+	c #022020",
"s+	c #021D1D",
"t+	c #021B1B",
"u+	c #021A1A",
"v+	c #021818",
"w+	c #021616",
"x+	c #041515",
"y+	c #192929",
"z+	c #053E3E",
"A+	c #010505",
"B+	c #014848",
"C+	c #187575",
"D+	c #057373",
"E+	c #007272",
"F+	c #005D5D",
"G+	c #005454",
"H+	c #004A4A",
"I+	c #004747",
"J+	c #003636",
"K+	c #003333",
"L+	c #003030",
"M+	c #002E2E",
"N+	c #002B2B",
"O+	c #002828",
"P+	c #002626",
"Q+	c #002323",
"R+	c #002121",
"S+	c #001C1C",
"T+	c #001A1A",
"U+	c #001818",
"V+	c #001616",
"W+	c #001414",
"X+	c #021313",
"Y+	c #182929",
"Z+	c #000808",
"`+	c #187474",
" @	c #057474",
".@	c #00E2E2",
"+@	c #00ADAD",
"@@	c #004C4C",
"#@	c #004545",
"$@	c #003535",
"%@	c #003232",
"&@	c #002F2F",
"*@	c #002D2D",
"=@	c #002A2A",
"-@	c #002525",
";@	c #002222",
">@	c #001E1E",
",@	c #001B1B",
"'@	c #001919",
")@	c #001717",
"!@	c #001313",
"~@	c #02D1D1",
"{@	c #056A6A",
"]@	c #00EBEB",
"^@	c #00FFFF",
"/@	c #008080",
"(@	c #005555",
"_@	c #003D3D",
":@	c #003434",
"<@	c #003131",
"[@	c #002C2C",
"}@	c #002929",
"|@	c #002424",
"1@	c #001D1D",
"2@	c #021212",
"3@	c #056161",
"4@	c #006666",
"5@	c #007979",
"6@	c #00DBDB",
"7@	c #00FAFA",
"8@	c #00F5F5",
"9@	c #00CCCC",
"0@	c #008D8D",
"a@	c #001212",
"b@	c #021111",
"c@	c #055F5F",
"d@	c #005C5C",
"e@	c #005959",
"f@	c #008F8F",
"g@	c #00C8C8",
"h@	c #00F2F2",
"i@	c #00FBFB",
"j@	c #009F9F",
"k@	c #001111",
"l@	c #182828",
"m@	c #055E5E",
"n@	c #005858",
"o@	c #005353",
"p@	c #004F4F",
"q@	c #00E6E6",
"r@	c #00B2B2",
"s@	c #021010",
"t@	c #010202",
"u@	c #187373",
"v@	c #055C5C",
"w@	c #004B4B",
"x@	c #004646",
"y@	c #009797",
"z@	c #00F9F9",
"A@	c #00F4F4",
"B@	c #00C6C6",
"C@	c #001010",
"D@	c #192828",
"E@	c #197373",
"F@	c #055A5A",
"G@	c #007C7C",
"H@	c #000F0F",
"I@	c #020F0F",
"J@	c #055959",
"K@	c #005050",
"L@	c #003939",
"M@	c #006161",
"N@	c #00B7B7",
"O@	c #00E8E8",
"P@	c #187272",
"Q@	c #055757",
"R@	c #00E7E7",
"S@	c #000E0E",
"T@	c #020E0E",
"U@	c #02D0D0",
"V@	c #055656",
"W@	c #00A8A8",
"X@	c #00E4E4",
"Y@	c #00FCFC",
"Z@	c #000D0D",
"`@	c #187171",
" #	c #055454",
".#	c #00F7F7",
"+#	c #020D0D",
"@#	c #197171",
"##	c #055353",
"$#	c #009292",
"%#	c #00D1D1",
"&#	c #00BABA",
"*#	c #000C0C",
"=#	c #020C0C",
"-#	c #182727",
";#	c #187070",
">#	c #055151",
",#	c #00E1E1",
"'#	c #000B0B",
")#	c #186F6F",
"!#	c #054F4F",
"~#	c #008181",
"{#	c #009494",
"]#	c #030B0B",
"^#	c #053D3D",
"/#	c #03D0D0",
"(#	c #186E6E",
"_#	c #054B4B",
":#	c #009898",
"<#	c #00F3F3",
"[#	c #000A0A",
"}#	c #192727",
"|#	c #196E6E",
"1#	c #054949",
"2#	c #00B6B6",
"3#	c #007474",
"4#	c #000909",
"5#	c #030A0A",
"6#	c #054848",
"7#	c #008B8B",
"8#	c #03CFCF",
"9#	c #186D6D",
"0#	c #008282",
"a#	c #007D7D",
"b#	c #007B7B",
"c#	c #030808",
"d#	c #186C6C",
"e#	c #054747",
"f#	c #030707",
"g#	c #186B6B",
"h#	c #054646",
"i#	c #00E5E5",
"j#	c #030606",
"k#	c #196B6B",
"l#	c #054444",
"m#	c #043D3D",
"n#	c #196A6A",
"o#	c #054242",
"p#	c #192626",
"q#	c #010303",
"r#	c #1B7272",
"s#	c #1A4545",
"t#	c #174646",
"u#	c #184444",
"v#	c #184242",
"w#	c #184040",
"x#	c #183E3E",
"y#	c #183D3D",
"z#	c #183B3B",
"A#	c #183939",
"B#	c #183838",
"C#	c #183636",
"D#	c #183535",
"E#	c #183434",
"F#	c #183232",
"G#	c #183030",
"H#	c #173030",
"I#	c #172F2F",
"J#	c #172D2D",
"K#	c #172C2C",
"L#	c #172B2B",
"M#	c #172A2A",
"N#	c #172929",
"O#	c #172727",
"P#	c #172626",
"Q#	c #172525",
"R#	c #172424",
"S#	c #172323",
"T#	c #172222",
"U#	c #172121",
"V#	c #172020",
"W#	c #192020",
"X#	c #1D3030",
"Y#	c #06BFBF",
"Z#	c #0BACAC",
"`#	c #0BA9A9",
" $	c #0BA6A6",
".$	c #0BA2A2",
"+$	c #0B9E9E",
"@$	c #0B9B9B",
"#$	c #0B9898",
"$$	c #0B9494",
"%$	c #0B9191",
"&$	c #0B8D8D",
"*$	c #0B8A8A",
"=$	c #0B8686",
"-$	c #0B8383",
";$	c #0B7F7F",
">$	c #0B7C7C",
",$	c #0B7979",
"'$	c #0A7777",
")$	c #0A7373",
"!$	c #0A7070",
"~$	c #0A6C6C",
"{$	c #0A6868",
"]$	c #0A6565",
"^$	c #0A6161",
"/$	c #0A5D5D",
"($	c #0A5A5A",
"_$	c #0A5656",
":$	c #0A5353",
"<$	c #0A4F4F",
"[$	c #0A4B4B",
"}$	c #0A4747",
"|$	c #0A4444",
"1$	c #074040",
"2$	c #00D3D3",
"3$	c #00CFCF",
"4$	c #00CACA",
"5$	c #00BDBD",
"6$	c #00B3B3",
"7$	c #00AAAA",
"8$	c #00A1A1",
"9$	c #008686",
"0$	c #007070",
"a$	c #006B6B",
"b$	c #00DEDE",
"c$	c #007777",
"d$	c #011717",
"e$	c #00EEEE",
". + @ @ @ @ @ @ @ @ @ @ @ @ @ @ @ @ @ @ @ @ @ @ @ @ @ @ @ @ @ @ @ @ @ @ @ @ @ @ @ @ @ @ @ @ # $ ",
"% & * = = = = = = = = = = = = - - - - - - - - - - - - - - - - - - = = = = = = = = = = = = ; > + ",
", ' ) ) ) ) ) ) ) ) ) ! ! ! ! ! ~ ~ ~ ~ ~ ~ ~ ~ ~ ~ ~ ~ ~ ~ ~ ~ ! ! ! ! ! ) ) ) ) ) ) ) ) ) { ] ",
", ^ ) ) ) ! ! ~ / ( _ : < [ } } | | | | | | | | | | | | | | | | } } [ < : _ ( / ~ ! ) ) ) ) 1 ] ",
", ^ ) ) ! ~ / ( _ } 2 3 4 5 5 5 5 5 5 5 5 5 5 5 5 5 5 5 5 5 5 5 5 5 4 3 2 | } _ ( / ! ! ) ) 1 ] ",
", ^ ) ! ~ / _ : 2 4 6 7 8 9 9 0 0 0 0 0 0 0 0 0 0 0 0 0 0 0 0 0 0 9 9 8 a 6 4 2 : ( / ! ) ) 1 ] ",
", ^ ) ! ~ ! / < 2 5 a 9 b c c d d d d e e e e e e e e e e e e e e e e c b 9 a 4 | _ / ~ ! ) 1 ] ",
", ^ ) ! f g h i & & j j > g k l m n o p q r s t u v w x y z A B C D E F G H I J K L M N / ) 1 ] ",
", ^ ) ) O P Q R S T U V W X Y Z `  ...+.@.#.$.%.&.*.=.-.;.>.,.& '.m o ).!.~.{.].^./.(._._ ) 1 ] ",
", ^ ) ! B :.<.[.}.|.1.2.3.4.5.6.7.8.9.0.a.b.$.c.&.d.=.e.;.f.,.& '.g.h.i.j.k.l.m.^.1 (._.: ) 1 ] ",
", ^ ) ~ n.:.<.[.o.p.q.r.s.t.u.v.w.x.y.z.A.B.C.D.E.F.G.H.I.J.K.L.M.N.O.P.Q.R.S.T.U.1 - _.: ) 1 ] ",
", ^ ) / n.:.<.V.W.X.Y.Z.`. +.+++@+#+$+%+&+*+=+-+;+>+,+'+)+!+~+{+]+^+/+(+_+:+<+[+}+|+(._.[ ) /.] ",
", O ! 1+A :.<.2+3+4+5+6+7+8+9+0+a+b+c+d+e+f+g+h+i+j+k+l+m+n+o+p+q+r+s+t+u+v+w+x+y+z+(._.[ ) /.] ",
", O ! A+B+:.<.2+C+D+2.+.E+F+!.G+k.{.H+I+O /.(.= J+K+L+M+N+O+P+Q+R+f S+T+U+V+W+X+Y+z+(._.Z+! /.] ",
", O ~ A+B+:.<.2+`+ @# $ .@+@f.!.l.@@m.#@^ { - ; $@%@&@*@=@_.-@;@M >@,@'@)@N !@X+y+z+- _.| ! /.] ",
", O ~ A+B+:.<.~@3+{@5.]@. ^@, X /@(@#@O /._@= * :@<@M+[@}@P+|@R+f 1@,@'@)@N !@2@y+z+- _.| ! /.] ",
", O ~ A+z :.<.~@3+3@4@5@9.6@7@^@8@9@0@!.1 = ; J+K+L+*@=@O+-@Q+R+>@S+T+U+V+W+a@b@Y+z+- _.| ! /.] ",
", O ~ < z :.<.~@3+c@n d@e@l f@g@h@^@i@Q j@h.(.%@<@&@[@}@_.|@;@M 1@,@'@)@N !@k@b@l@z+- _.| ! /.] ",
", O ~ < z :.<.~@`+m@o d@n@o@p@(@f.7.q@$ . @ r@& (.N+}@O+P+Q+R+f S+T+U+V+W+!@k@s@l@z+- _.| ! /.] ",
", O t@< z :.<.~@u@v@h.i.j.o@p@w@x@I+h.y@P z@^@A@B@-.' O+|@;@M >@S+'@)@N W+a@C@s@D@z+- _.| ! /.] ",
", O t@< z :.<.~@E@F@F+e@(@k.{.H+I+O { (.w@G@4.+ ^@i@U * ;@R+f 1@,@U+)@N !@k@H@I@D@z+- _.| t@/.] ",
", O t@< z :.<.~@E@J@).!.o@K@@@m.#@^ { - * %@L@M@N@z@O@(.R+M >@S+T+U+V+W+a@C@H@I@l@z+- _.2 t@/.] ",
", O t@< z :.<.~@P@Q@e@(@~.{.H+I+^./._@L@:@J+~.f@:.^@R@(.M f 1@,@'@)@N !@k@C@S@T@l@z+- _.2 t@/.] ",
", O t@< z :.<.U@P@V@!.o@K@@@].x@^ { L@/.4@W@X@$ ^@Y@9@$@f >@S+T+U+V+W+a@k@H@Z@T@l@z+- _.2 t@/.] ",
", O t@< z :.Q U@`@ #j.~.{.w@I+^ 1 l.G@4.+ ^@^@.#9@=.' Q+M 1@,@'@)@N !@a@C@S@Z@+#D@z+- P+2 t@/.] ",
", O t@< z :.Q U@@###G+K@@@I+I+d@$#%#.#^@^@# &#,.L@|@R+R+>@S+T+U+V+W+!@k@H@S@*#=#-#z+- P+2 t@/.] ",
", O t@< z :.Q U@;#>#~.@@p@& W@,#Y@^@$ X@9.o :@_.P+|@;@M 1@,@'@)@N W+a@C@H@Z@'#=#-#z+- P+2 t@/.] ",
", O t@< z :.Q U@)#!#i.~#X , . ^@z@:.{#G+K+N+=@O+P+Q+R+f 1@T+U+V+W+!@k@H@S@*#'#]#-#^#- P+2 t@/.] ",
", O t@< z P Q /#(#_#:#.#^@^@<#B@=.w@:@L+M+[@=@_.|@;@M 1@S+'@)@N !@a@C@S@Z@*#[#]#}#^#- P+| ~ /.] ",
", O t@< z P Q /#|#1#..^@]@2#3#x@* $@K+L+*@N+O+P+Q+R+f 1@T+U+V+W+a@k@H@S@*#'#4#5#-#^#- P+| ! /.] ",
", O ~ < z P Q /#|#6#7#9.'.#@- = * $@%@&@[@=@_.|@R+S+T+U+N !@k@H@Z@*#[#4#[ : Z+5#-#^#- P+| ! /.] ",
", O ~ < z P Q 8#9#1#{.I+' 1 (.L@J+K+L+*@N+O+P+;@1 -.0#~#e.-.a#G@b#;.;.5@5@j )@c#-#^#- P+| ! /.] ",
", O ~ A+B+P Q 8#d#e#m.^.' { - * $@%@&@[@=@_.|@f m 8@^@^@^@^@^@^@^@^@^@^@^@q@O+f#}#^#= P+| ! /.] ",
", O ~ A+B+P Q 8#g#h#x@O 1 (.L@J+K+L+*@N+O+P+Q+>@d@<.R@q@q@q@i#i#i#i#i#i#q@T |@j#-#^#= P+| ! /.] ",
", O ~ A+B+P Q 8#k#l##@' { - * :@%@&@[@=@_.|@;@f -@K+%@L+&@*@N+=@O+_.P+-@Q+M [#f#-#m#= P+Z+! /.] ",
", O ! 1+A P Q 8#n#o#^ { - ; $@K+&@*@=@_.-@;@M >@,@U+V+W+a@C@S@Z@'#[#Z+[ : _ _ j#p#m#= P+[ ) /.] ",
", ^ ) q#n.}.Q U@r#s#t#u#v#w#x#y#z#A#B#C#D#E#F#G#H#I#J#K#L#M#N#O#P#Q#R#S#T#U#V#W#X#m#= P+[ ) /.] ",
", ^ ) / n.}.Q :.Y#Z#`# $.$+$@$#$$$%$&$*$=$-$;$>$,$'$)$!$~${$]$^$/$($_$:$<$[$}$|$1${ = P+: ) 1 ] ",
", ^ ) ~ B }.6@:.2$3$4$B@W 5$Y 6$` 7$..8$@.:#{#f@7#9$0#a#5@3#0$a$k n F+e@G+K@w@I+^ { = P+: ) 1 ] ",
", ^ ) ! ^.:.b$[.2$3$4$B@3.5$Y Z `  ...8$@.:#{#f@7#9$0#a#5@3#0$a$k n p e@(@K@@@I+O { = P+_ ) 1 ] ",
", ^ ) ! Q+E+c$>.3#E+,.0$i j > k l g.o p d@e@!.G+~.K@l.w@].I+^.^ /._@- ; $@%@M+N+_.|@M N / ) 1 ] ",
", ^ ) ~ ~ ) q#< 2 5 7 9 b c d d e e e e e e e e e e d$d$d$d$d$d$d$d$e d b 9 7 5 2 < ( ~ ! ) 1 ] ",
", ^ ) ! ~ ( _ | 3 5 7 9 0 b b b b b b c c c c c c c c c c b b b b b 0 9 8 a 5 3 | _ / ~ ! ) 1 ] ",
", ^ ) ) ! ~ / _ < | 3 4 5 6 6 a a a a a a a a a a a a a a a a a a 6 6 5 4 2 | : _ / ~ ! ) ) 1 ] ",
", ^ ) ) ) ! ~ / ( _ : } } | | 2 2 2 2 2 2 2 2 2 2 2 2 2 2 2 2 2 2 | | } < : _ ( / ~ ! ) ) ) 1 ] ",
", ' ) ) ) ) ) ) ) ) ) ! ! ! ~ ~ t@t@t@t@t@t@t@t@t@t@t@t@t@t@t@t@~ ~ ! ! ) ) ) ) ) ) ) ) ) ) { ] ",
"h@f.#@I+I+I+I+I+I+I+I+m.m.m.m.m.m.m.m.m.m.m.m.m.m.m.m.m.m.m.m.m.m.m.m.m.m.I+I+I+I+I+I+I+I+#@3#% ",
". <#e$# # # # # # # # # # # # # # # # # # # # # # # # # # # # # # # # # # # # # # # # # # e$<#. "};
