/* XPM */
static char * googleearth_xpm[] = {
"48 48 218 2",
"  	c None",
". 	c #00FEFE",
"+ 	c #00F0F0",
"@ 	c #00EAEA",
"# 	c #00EFEF",
"$ 	c #00FDFD",
"% 	c #00F1F1",
"& 	c #006D6D",
"* 	c #003737",
"= 	c #003A3A",
"- 	c #003838",
"; 	c #006A6A",
"> 	c #00EDED",
", 	c #004141",
"' 	c #000000",
") 	c #003E3E",
"! 	c #00ECEC",
"~ 	c #004242",
"{ 	c #000303",
"] 	c #000B0B",
"^ 	c #001818",
"/ 	c #002626",
"( 	c #002F2F",
"_ 	c #003333",
": 	c #003232",
"< 	c #002D2D",
"[ 	c #002525",
"} 	c #001919",
"| 	c #000C0C",
"1 	c #000404",
"2 	c #003F3F",
"3 	c #000606",
"4 	c #002B2B",
"5 	c #004949",
"6 	c #005858",
"7 	c #006767",
"8 	c #006B6B",
"9 	c #006C6C",
"0 	c #006969",
"a 	c #005F5F",
"b 	c #005353",
"c 	c #004B4B",
"d 	c #004343",
"e 	c #003636",
"f 	c #002424",
"g 	c #001010",
"h 	c #001111",
"i 	c #004444",
"j 	c #004646",
"k 	c #007070",
"l 	c #008B8B",
"m 	c #008787",
"n 	c #008282",
"o 	c #007C7C",
"p 	c #007373",
"q 	c #006464",
"r 	c #004D4D",
"s 	c #004A4A",
"t 	c #004040",
"u 	c #002929",
"v 	c #001212",
"w 	c #002222",
"x 	c #004747",
"y 	c #002C2C",
"z 	c #000A0A",
"A 	c #000505",
"B 	c #008E8E",
"C 	c #00A1A1",
"D 	c #009C9C",
"E 	c #009797",
"F 	c #009292",
"G 	c #006161",
"H 	c #001C1C",
"I 	c #003131",
"J 	c #003B3B",
"K 	c #002121",
"L 	c #004848",
"M 	c #005E5E",
"N 	c #007979",
"O 	c #00A0A0",
"P 	c #009393",
"Q 	c #005A5A",
"R 	c #006363",
"S 	c #00A3A3",
"T 	c #009B9B",
"U 	c #006666",
"V 	c #002323",
"W 	c #001313",
"X 	c #000202",
"Y 	c #000D0D",
"Z 	c #006262",
"` 	c #009F9F",
" .	c #009191",
"..	c #008C8C",
"+.	c #008A8A",
"@.	c #005D5D",
"#.	c #003030",
"$.	c #009595",
"%.	c #005252",
"&.	c #001E1E",
"*.	c #002E2E",
"=.	c #000808",
"-.	c #001F1F",
";.	c #000F0F",
">.	c #007171",
",.	c #00A6A6",
"'.	c #009090",
").	c #008686",
"!.	c #007D7D",
"~.	c #007777",
"{.	c #008585",
"].	c #005555",
"^.	c #003939",
"/.	c #00AAAA",
"(.	c #008D8D",
"_.	c #009696",
":.	c #008989",
"<.	c #007676",
"[.	c #007272",
"}.	c #006F6F",
"|.	c #003D3D",
"1.	c #004545",
"2.	c #001D1D",
"3.	c #003C3C",
"4.	c #00ACAC",
"5.	c #00ADAD",
"6.	c #00A2A2",
"7.	c #009898",
"8.	c #000707",
"9.	c #001515",
"0.	c #002727",
"a.	c #005757",
"b.	c #001717",
"c.	c #000101",
"d.	c #00A9A9",
"e.	c #00B2B2",
"f.	c #008888",
"g.	c #004E4E",
"h.	c #002828",
"i.	c #000E0E",
"j.	c #009D9D",
"k.	c #00B7B7",
"l.	c #00B1B1",
"m.	c #00A4A4",
"n.	c #008080",
"o.	c #007575",
"p.	c #001B1B",
"q.	c #007B7B",
"r.	c #00BABA",
"s.	c #00B4B4",
"t.	c #00AEAE",
"u.	c #00AFAF",
"v.	c #008181",
"w.	c #006060",
"x.	c #003434",
"y.	c #003535",
"z.	c #007878",
"A.	c #006E6E",
"B.	c #00B0B0",
"C.	c #00BCBC",
"D.	c #00C7C7",
"E.	c #00CACA",
"F.	c #00C8C8",
"G.	c #00C3C3",
"H.	c #002A2A",
"I.	c #001616",
"J.	c #005B5B",
"K.	c #004C4C",
"L.	c #006868",
"M.	c #00BFBF",
"N.	c #00CDCD",
"O.	c #00D6D6",
"P.	c #00D4D4",
"Q.	c #00CFCF",
"R.	c #00CCCC",
"S.	c #008383",
"T.	c #004F4F",
"U.	c #005656",
"V.	c #005C5C",
"W.	c #005454",
"X.	c #00D3D3",
"Y.	c #00DCDC",
"Z.	c #00D7D7",
"`.	c #00D0D0",
" +	c #005151",
".+	c #000909",
"++	c #002020",
"@+	c #00E1E1",
"#+	c #00DEDE",
"$+	c #00D8D8",
"%+	c #006565",
"&+	c #007474",
"*+	c #005959",
"=+	c #005050",
"-+	c #001414",
";+	c #008F8F",
">+	c #00B8B8",
",+	c #00C2C2",
"'+	c #007F7F",
")+	c #00C6C6",
"!+	c #00C1C1",
"~+	c #00BEBE",
"{+	c #00BDBD",
"]+	c #00CBCB",
"^+	c #00B5B5",
"/+	c #00A8A8",
"(+	c #009E9E",
"_+	c #00ABAB",
":+	c #001A1A",
"<+	c #00A7A7",
"[+	c #00A5A5",
"}+	c #009A9A",
"|+	c #009999",
"1+	c #009494",
"2+	c #007A7A",
"3+	c #00F2F2",
"4+	c #00F3F3",
"5+	c #00EEEE",
". + @ @ @ @ @ @ @ @ @ @ @ @ @ @ @ @ @ @ @ @ @ @ @ @ @ @ @ @ @ @ @ @ @ @ @ @ @ @ @ @ @ @ @ @ # $ ",
"% & * = = = = = = = = = = = = = = = = = = = = = = = = = = = = = = = = = = = = = = = = = = - ; + ",
"> , ' ' ' ' ' ' ' ' ' ' ' ' ' ' ' ' ' ' ' ' ' ' ' ' ' ' ' ' ' ' ' ' ' ' ' ' ' ' ' ' ' ' ' ' ) ! ",
"> ~ ' ' ' ' ' ' ' ' ' ' ' ' ' ' ' ' { ] ^ / ( _ : < [ } | 1 ' ' ' ' ' ' ' ' ' ' ' ' ' ' ' ' 2 ! ",
"> ~ ' ' ' ' ' ' ' ' ' ' ' ' ' ' 3 4 5 6 7 8 9 9 0 a b c d e f g { ' ' ' ' ' ' ' ' ' ' ' ' ' 2 ! ",
"> ~ ' ' ' ' ' ' ' ' ' ' ' ' ' h i j * k l m n o p q r c s j t - u v { ' ' ' ' ' ' ' ' ' ' ' 2 ! ",
"> ~ ' ' ' ' ' ' ' ' ' ' ' 3 w x y z A 2 B C D E F G h H I t t J * I K z ' ' ' ' ' ' ' ' ' ' 2 ! ",
"> ~ ' ' ' ' ' ' ' ' ' A L M N O P Q ] { R S T l U V ' ' { W y = 2 2 = < ^ X ' ' ' ' ' ' ' ' 2 ! ",
"> ~ ' ' ' ' ' ' ' ' Y Z S `  .m ..+.@.#.l $.%.w 3 &.*.X ' ' =.e s ~ , - 4 -.3 ' ' ' ' ' ' ' 2 ! ",
"> ~ ' ' ' ' ' ' ' ;.>.,.T '.B l ).!.~.; {.].X ' ' } H ' ' X ^.9 c ( 2 J _ _ [ 3 ' ' ' ' ' ' 2 ! ",
"> ~ ' ' ' ' ' ' ] 9 /.T  .(._._.:.o <.[.}.|.A ' ' ' ' ' H Y e ].1.2.|.3.* : *.-.1 ' ' ' ' ' 2 ! ",
"> ~ ' ' ' ' ' { @.4.5.6._.$.T 7.P n ~.>.& U J 8.' ' ' W ) *.9.I 0.5 a.|.e : < u b.c.' ' ' ' 2 ! ",
"> ~ ' ' ' ' ' 1.d.e.5.d.C ` D E F f.~.>.& 0 R = 8.' ' b.2 M Z & U 8 U g.e : < h.f i.' ' ' ' 2 ! ",
"> ~ ' ' ' ' / j.k.l.5.d.m.O T  .{.n.N >.& 0 q a * 8.' ' u 7 N o.k 8 7 a 2 I < h.V p.1 ' ' ' 2 ! ",
"> ~ ' ' ' =.q.r.s.t.4.u.5.m.l v.n.!.~.>.& 0 q w.Q x.3 A y.z.p A.& ; 7 R %.x.< h.V &.;.' ' ' 2 ! ",
"> ~ ' ' ' |.B.r.C.D.E.F.G.7.H.I.) ; ~.[.& 0 q w.J.].e K.~.L.H.0.g.%.R G @.~ y h.V 2.b.1 ' ' 2 ! ",
"> ~ ' ' 3 o M.N.O.P.Q.R.S.&.c.' c.b.T.}.A.0 q w.J.U.b 8 <.0.' c.-.H._ 3.V.W.x.0.V 2.^ ] ' ' 2 ! ",
"> ~ ' ' [ d.X.Y.Z.X.`.l.< ' ' ' ' ' =.e q ; q w.J.U.%.b  +3.i y.Y X 3 .+++2 5 y w 2.^ h c.' 2 ! ",
"> ~ ' ' L E.@+#+$+Z.l.J c.' ' ' ' ' ' X K W.%+w.J.U.%.U.@.; z.&+L [ _ -.} d U.i u 2.^ H 3 ' 2 ! ",
"> ~ ' ' c $+#+C.n.:.}.c.' ' ' ' ' ' ' ' ' g t @.V.U.*+G M Q Z k }.7 7 M *+U.]. +, K f : h ' 2 ! ",
"> ~ ' ' 7 #+:.&.A g f ' ' ' ' ' ' ' ' ' ' ' A u =+Q q R M *+W.Q ; 9 U R @.* d %.L &.p.#.b.' 2 ! ",
"> ~ ' ' S.$+e ' 1 ' ' ' ' ' ' ' ' ' ' ' ' ' ' c.I. +7 Z M *+W.T.b R 7 Z a ) / T.r J H.-+1 ' 2 ! ",
"> ~ ' c.;+Y.L 2 x ' ' ' ' ' ' ' ' ' ' ' ' ' ' ' 1 W.p R @.*+W.T.c K.V.Z M a.H.|.r 5 t g ' ' 2 ! ",
"> ~ ' ' c G.F.F.; { ' ' ' ' ' ' ' ' ' ' ' ' ' ' Y A.:.~.Z *+W.T.c 1.1.W.@.J.3.++5 ~ ++X ' ' 2 ! ",
"> ~ ' ' X H.!.s.>+= ' z I.c.' ' ' ' ' ' ' ' ' ' i.[.l {.q.7 U.T.c j , ) L a.T.[ 3.p.X ' ' ' 2 ! ",
"> ~ ' ' ' ' { b.!.9 2.k ` 6 x -+' ' ' ' ' ' ' ' ' , f.{.v.o A.*+K.1., 3.* |.c i t V c.' ' ' 2 ! ",
"> ~ ' ' ' ' ' ' g W.z.,+F.M.>+ +' ' ' ' ' ' ' ' ' ] 6 {.'+~.p k Z g.~ 3.e : I |.j &.' ' ' ' 2 ! ",
"> ~ ' ' ' ' ' ' ' ' ].D.)+!+~+O V.] ' ' ' ' ' ' ' ' h c ^.0.[ j & 7 a.i - I y h./ Y X ' ' ' 2 ! ",
"> ~ ' ' ' ' ' ' ' | '.R.)+!+{+r.B.g.=.' ' ' ' ' ' ' ' { c.' ' f 8 8 U a T.) #.0.} Y =.1 c.' 2 ! ",
"> ~ ' ' ' ' ' ' ' y {+]+)+!+{+>+^+/+~.: 8.' ' ' ' ' ' ' ' ' ' H q 8 U Z M 6 K.H.i.| .+A c.' 2 ! ",
"> ~ ' ' ' ' ' ' c.s D.]+)+!+{+>+s.B.5.(+0 g ' ' ' ' ' ' ' ' ' A g.9 U Z @.Q b &.' X { X ' ' 2 ! ",
"> ~ ' ' ' ' .+x 7 n e.r.,+,+{+>+s.u._+d.P ^ ' ' ' ' ' ' ' ' ' { i 9 U Z @.Q  +:+' ' ' ' ' ' 2 ! ",
"> ~ ' ' ' ' 1.S <+C m./+/+B.>+>+s.B.4.,.@.1 ' ' ' ' ' ' ' ' ' ' < 0 U Z @.Q  +p.' ' ' ' ' ' 2 ! ",
"> ~ ' ' ' | {._+S ` (+[+m.` (+[+5.u.5.j.h.' ' ' ' ' ' ' ' ' ' ' 3.9 U Z @.Q W.++' ' ' ' ' ' 2 ! ",
"> ~ ' ' ' =.z._+m.` T }+C C D _.P E ` |+u ' ' ' ' ' ' ' ' ' ' X i 9 U Z @.].x.z ' ' ' ' ' ' 2 ! ",
"> ~ ' ' ' ' H.$.[+` T _.7.O D 7.1+B l n.= g A ' ' ' ' ' ' ' ' ' |.9 U Z M ) 3 ' X X ' ' ' ' 2 ! ",
"> ~ ' ' ' ' ' i T O T _._.` D 7.1+'.{.z.; @.x : ++g =.1 c.' ' ' K R q M a.= i.Y Y 1 ' ' ' ' 2 ! ",
"> ~ ' ' ' ' ' 1 r E D _.$.` D 7.1+B q.>.& ; %+G 6 T.1.- < [ -.p.w L s t * [ p.b.z ' ' ' ' ' 2 ! ",
"> ~ ' ' ' ' ' ' 1 i (.E P D D 7.E B 2+p A.0 q w.J.a.b g.s j t 3.- ) , 3.( K H i.c.' ' ' ' ' 2 ! ",
"> ~ ' ' ' ' ' ' ' c.: o 1+(+D |+T w.) ].R U %+G V.a.b g.5 1.t J * 3.J I f p.;.X ' ' ' ' ' ' 2 ! ",
"> ~ ' ' ' ' ' ' ' ' ' } w._.(+}+Q 8.' 8.-+/ x.2 j 5 s x d ) ^._ 4 V :+g .+{ ' ' ' ' ' ' ' ' 2 ! ",
"> ~ ' ' ' ' ' ' ' ' ' ' 3 e z.;+8 ^ ' ' ' ' ' { 3 =.] Y i.| .+3 1 X ' ' ' ' ' ' ' ' ' ' ' ' 2 ! ",
"> ~ ' ' ' ' ' ' ' ' ' ' ' ' i.= %+J.-+' ' ' ' ' ' ' ' ' ' ' ' ' ' ' ' ' ' ' ' ' ' ' ' ' ' ' 2 ! ",
"> ~ ' ' ' ' ' ' ' ' ' ' ' ' ' ' Y *.I.' ' ' ' ' ' ' ' ' ' ' ' ' ' ' ' ' ' ' ' ' ' ' ' ' ' ' 2 ! ",
"> ~ ' ' ' ' ' ' ' ' ' ' ' ' ' ' ' ' ' ' ' ' ' ' ' ' ' ' ' ' ' ' ' ' ' ' ' ' ' ' ' ' ' ' ' ' 2 ! ",
"> , ' ' ' ' ' ' ' ' ' ' ' ' ' ' ' ' ' ' ' ' ' ' ' ' ' ' ' ' ' ' ' ' ' ' ' ' ' ' ' ' ' ' ' ' ) ! ",
"3+<.1.x x x x x x x x x x x x x x x x x x x x x x x x x x x x x x x x x x x x x x x x x x 1.&+% ",
". 4+5+# # # # # # # # # # # # # # # # # # # # # # # # # # # # # # # # # # # # # # # # # # 5+4+. "};
