/* XPM */
static char * gtk_recordmydesktop_xpm[] = {
"48 48 679 2",
"  	c None",
". 	c #00FEFE",
"+ 	c #00F0F0",
"@ 	c #00EAEA",
"# 	c #00EFEF",
"$ 	c #00FDFD",
"% 	c #00F1F1",
"& 	c #006D6D",
"* 	c #003737",
"= 	c #003A3A",
"- 	c #003B3B",
"; 	c #003838",
"> 	c #006A6A",
", 	c #00EDED",
"' 	c #004141",
") 	c #000000",
"! 	c #000101",
"~ 	c #000202",
"{ 	c #003E3E",
"] 	c #00ECEC",
"^ 	c #004242",
"/ 	c #000303",
"( 	c #000404",
"_ 	c #000505",
": 	c #000606",
"< 	c #010606",
"[ 	c #000707",
"} 	c #010707",
"| 	c #010808",
"1 	c #010505",
"2 	c #011010",
"3 	c #011C1C",
"4 	c #013131",
"5 	c #014242",
"6 	c #004D4D",
"7 	c #005252",
"8 	c #005555",
"9 	c #005353",
"0 	c #004E4E",
"a 	c #004545",
"b 	c #013030",
"c 	c #011B1B",
"d 	c #001111",
"e 	c #003F3F",
"f 	c #010909",
"g 	c #010A0A",
"h 	c #010B0B",
"i 	c #010C0C",
"j 	c #010E0E",
"k 	c #012020",
"l 	c #014444",
"m 	c #006C6C",
"n 	c #009191",
"o 	c #00ACAC",
"p 	c #00BEBE",
"q 	c #00CBCB",
"r 	c #00D4D4",
"s 	c #00D8D8",
"t 	c #00DADA",
"u 	c #00D6D6",
"v 	c #00D1D1",
"w 	c #00C7C7",
"x 	c #00B8B8",
"y 	c #00A9A9",
"z 	c #008F8F",
"A 	c #006969",
"B 	c #014949",
"C 	c #012121",
"D 	c #010D0D",
"E 	c #010F0F",
"F 	c #011111",
"G 	c #011919",
"H 	c #013E3E",
"I 	c #007575",
"J 	c #00AAAA",
"K 	c #00CDCD",
"L 	c #00E4E4",
"M 	c #00F7F7",
"N 	c #00FAFA",
"O 	c #00FCFC",
"P 	c #00F8F8",
"Q 	c #00F2F2",
"R 	c #00E8E8",
"S 	c #00DBDB",
"T 	c #00C3C3",
"U 	c #00A3A3",
"V 	c #007474",
"W 	c #014141",
"X 	c #001313",
"Y 	c #000808",
"Z 	c #011212",
"` 	c #011414",
" .	c #011616",
"..	c #011515",
"+.	c #014646",
"@.	c #008D8D",
"#.	c #00C5C5",
"$.	c #00E5E5",
"%.	c #00F5F5",
"&.	c #00FBFB",
"*.	c #00FFFF",
"=.	c #00EBEB",
"-.	c #00B9B9",
";.	c #008B8B",
">.	c #004949",
",.	c #001010",
"'.	c #011818",
").	c #011A1A",
"!.	c #013636",
"~.	c #008181",
"{.	c #00EEEE",
"].	c #00F6F6",
"^.	c #00BABA",
"/.	c #003131",
"(.	c #015555",
"_.	c #00ADAD",
":.	c #00DFDF",
"<.	c #00E7E7",
"[.	c #02DEDE",
"}.	c #08D0D0",
"|.	c #10C5C5",
"1.	c #17B7B7",
"2.	c #1DADAD",
"3.	c #20A9A9",
"4.	c #1FA9A9",
"5.	c #1CACAC",
"6.	c #15B7B7",
"7.	c #0CC6C6",
"8.	c #05D4D4",
"9.	c #00E3E3",
"0.	c #00A6A6",
"a.	c #011D1D",
"b.	c #012727",
"c.	c #006F6F",
"d.	c #00C2C2",
"e.	c #00DDDD",
"f.	c #09D0D0",
"g.	c #1BB7B7",
"h.	c #2C9A9A",
"i.	c #2F7979",
"j.	c #2E6161",
"k.	c #255151",
"l.	c #1F4747",
"m.	c #1E4343",
"n.	c #1F4545",
"o.	c #244A4A",
"p.	c #2B5555",
"q.	c #306363",
"r.	c #2E7878",
"s.	c #269595",
"t.	c #12B4B4",
"u.	c #03D4D4",
"v.	c #007070",
"w.	c #005050",
"x.	c #011313",
"y.	c #012929",
"z.	c #007B7B",
"A.	c #00C9C9",
"B.	c #0ACECE",
"C.	c #23ACAC",
"D.	c #2F7C7C",
"E.	c #235151",
"F.	c #103737",
"G.	c #052D2D",
"H.	c #002929",
"I.	c #002A2A",
"J.	c #022B2B",
"K.	c #093030",
"L.	c #163B3B",
"M.	c #285555",
"N.	c #2B7A7A",
"O.	c #16A6A6",
"P.	c #00A5A5",
"Q.	c #012626",
"R.	c #007A7A",
"S.	c #02C7C7",
"T.	c #19B8B8",
"U.	c #2D7F7F",
"V.	c #1C4747",
"W.	c #062B2B",
"X.	c #002828",
"Y.	c #002E2E",
"Z.	c #003232",
"`.	c #003030",
" +	c #002B2B",
".+	c #002C2C",
"++	c #002D2D",
"@+	c #012C2C",
"#+	c #0C3434",
"$+	c #254E4E",
"%+	c #287A7A",
"&+	c #0CB5B5",
"*+	c #00D9D9",
"=+	c #004343",
"-+	c #011717",
";+	c #011E1E",
">+	c #06BFBF",
",+	c #21A3A3",
"'+	c #225656",
")+	c #072E2E",
"!+	c #005656",
"~+	c #007272",
"{+	c #009B9B",
"]+	c #009F9F",
"^+	c #005A5A",
"/+	c #003D3D",
"(+	c #012D2D",
"_+	c #113939",
":+	c #285D5D",
"<+	c #159D9D",
"[+	c #01DFDF",
"}+	c #00F3F3",
"|+	c #004C4C",
"1+	c #07AFAF",
"2+	c #249494",
"3+	c #164141",
"4+	c #013D3D",
"5+	c #007373",
"6+	c #00CACA",
"7+	c #00DCDC",
"8+	c #00D7D7",
"9+	c #00C4C4",
"0+	c #007777",
"a+	c #004646",
"b+	c #063131",
"c+	c #234F4F",
"d+	c #199090",
"e+	c #01DDDD",
"f+	c #059393",
"g+	c #219090",
"h+	c #133E3E",
"i+	c #006161",
"j+	c #00AEAE",
"k+	c #01DCDC",
"l+	c #08CFCF",
"m+	c #14BFBF",
"n+	c #1FADAD",
"o+	c #29A3A3",
"p+	c #2CA1A1",
"q+	c #26A2A2",
"r+	c #10BDBD",
"s+	c #05D0D0",
"t+	c #006B6B",
"u+	c #003636",
"v+	c #032F2F",
"w+	c #1F4949",
"x+	c #158F8F",
"y+	c #026464",
"z+	c #1A9393",
"A+	c #134444",
"B+	c #0CC9C9",
"C+	c #25A6A6",
"D+	c #285C5C",
"E+	c #1C4949",
"F+	c #163E3E",
"G+	c #163D3D",
"H+	c #173F3F",
"I+	c #204B4B",
"J+	c #2C5E5E",
"K+	c #2E7A7A",
"L+	c #1EA0A0",
"M+	c #07C9C9",
"N+	c #008484",
"O+	c #1D4A4A",
"P+	c #0D9E9E",
"Q+	c #0F8A8A",
"R+	c #175454",
"S+	c #018080",
"T+	c #00D3D3",
"U+	c #03D7D7",
"V+	c #1CB2B2",
"W+	c #2C7575",
"X+	c #174343",
"Y+	c #063030",
"Z+	c #093333",
"`+	c #1F4848",
" @	c #2B7272",
".@	c #13ACAC",
"+@	c #01D9D9",
"@@	c #1B5757",
"#@	c #05C1C1",
"$@	c #00F9F9",
"%@	c #055656",
"&@	c #196E6E",
"*@	c #046F6F",
"=@	c #04D5D5",
"-@	c #20A2A2",
";@	c #1F5353",
">@	c #052F2F",
",@	c #0A3434",
"'@	c #245555",
")@	c #169B9B",
"!@	c #01D7D7",
"~@	c #00C8C8",
"{@	c #007D7D",
"]@	c #0E3535",
"^@	c #137B7B",
"/@	c #001616",
"(@	c #106969",
"_@	c #0E5E5E",
":@	c #02D9D9",
"<@	c #1DA5A5",
"[@	c #184949",
"}@	c #012B2B",
"|@	c #003535",
"1@	c #004848",
"2@	c #003939",
"3@	c #002F2F",
"4@	c #042F2F",
"5@	c #1F4E4E",
"6@	c #129D9D",
"7@	c #00BBBB",
"8@	c #005F5F",
"9@	c #022D2D",
"0@	c #164646",
"a@	c #05B8B8",
"b@	c #010202",
"c@	c #032828",
"d@	c #125F5F",
"e@	c #038F8F",
"f@	c #12BABA",
"g@	c #1C5454",
"h@	c #012A2A",
"i@	c #00A1A1",
"j@	c #00B5B5",
"k@	c #053030",
"l@	c #1E5656",
"m@	c #08B7B7",
"n@	c #009C9C",
"o@	c #0A3030",
"p@	c #0D8080",
"q@	c #073535",
"r@	c #0D5E5E",
"s@	c #04D4D4",
"t@	c #1A7F7F",
"u@	c #052A2A",
"v@	c #02CACA",
"w@	c #12C3C3",
"x@	c #22ACAC",
"y@	c #28A3A3",
"z@	c #21A7A7",
"A@	c #0FBABA",
"B@	c #01C7C7",
"C@	c #005959",
"D@	c #0B3434",
"E@	c #157A7A",
"F@	c #00D5D5",
"G@	c #005D5D",
"H@	c #032C2C",
"I@	c #0F5151",
"J@	c #0B3232",
"K@	c #057676",
"L@	c #0BBDBD",
"M@	c #0F4545",
"N@	c #002727",
"O@	c #05CFCF",
"P@	c #23A6A6",
"Q@	c #2B6767",
"R@	c #1B4646",
"S@	c #153D3D",
"T@	c #1C4646",
"U@	c #2C6161",
"V@	c #1F9494",
"W@	c #03C9C9",
"X@	c #134A4A",
"Y@	c #05BBBB",
"Z@	c #008686",
"`@	c #0B3838",
" #	c #03B7B7",
".#	c #082828",
"+#	c #029595",
"@#	c #0D9C9C",
"##	c #062C2C",
"$#	c #012828",
"%#	c #007171",
"&#	c #01D0D0",
"*#	c #19ABAB",
"=#	c #184A4A",
"-#	c #032E2E",
";#	c #149595",
">#	c #00CECE",
",#	c #008C8C",
"'#	c #093434",
")#	c #089898",
"!#	c #082D2D",
"~#	c #039B9B",
"{#	c #052121",
"]#	c #01A6A6",
"^#	c #01DBDB",
"/#	c #088080",
"(#	c #022323",
"_#	c #05CECE",
":#	c #136F6F",
"<#	c #125656",
"[#	c #03C4C4",
"}#	c #004040",
"|#	c #032B2B",
"1#	c #077F7F",
"2#	c #00B7B7",
"3#	c #032525",
"4#	c #038A8A",
"5#	c #037676",
"6#	c #01B0B0",
"7#	c #03C6C6",
"8#	c #044E4E",
"9#	c #053D3D",
"0#	c #02B5B5",
"a#	c #01C8C8",
"b#	c #004A4A",
"c#	c #037373",
"d#	c #00BFBF",
"e#	c #012323",
"f#	c #028181",
"g#	c #021C1C",
"h#	c #02A8A8",
"i#	c #017878",
"j#	c #023535",
"k#	c #05A8A8",
"l#	c #07C3C3",
"m#	c #034444",
"n#	c #02BCBC",
"o#	c #012222",
"p#	c #018383",
"q#	c #031717",
"r#	c #069898",
"s#	c #042E2E",
"t#	c #0E8888",
"u#	c #008989",
"v#	c #007676",
"w#	c #02D2D2",
"x#	c #10A2A2",
"y#	c #033636",
"z#	c #05ACAC",
"A#	c #013939",
"B#	c #012525",
"C#	c #009090",
"D#	c #030E0E",
"E#	c #097A7A",
"F#	c #01DADA",
"G#	c #165555",
"H#	c #0BB8B8",
"I#	c #006666",
"J#	c #00C1C1",
"K#	c #10C8C8",
"L#	c #136565",
"M#	c #00B2B2",
"N#	c #03D9D9",
"O#	c #0A9494",
"P#	c #00A8A8",
"Q#	c #0E4F4F",
"R#	c #04CCCC",
"S#	c #016060",
"T#	c #083232",
"U#	c #237272",
"V#	c #0DBBBB",
"W#	c #009D9D",
"X#	c #006565",
"Y#	c #006E6E",
"Z#	c #009696",
"`#	c #00C6C6",
" $	c #11C8C8",
".$	c #228383",
"+$	c #053232",
"@$	c #005E5E",
"#$	c #00D2D2",
"$$	c #09CFCF",
"%$	c #0A6B6B",
"&$	c #013838",
"*$	c #0B2525",
"=$	c #0DA4A4",
"-$	c #013737",
";$	c #0D3737",
">$	c #2A6A6A",
",$	c #0DBFBF",
"'$	c #05C5C5",
")$	c #04C5C5",
"!$	c #06C6C6",
"~$	c #0FC5C5",
"{$	c #24AFAF",
"]$	c #287373",
"^$	c #093535",
"/$	c #053E3E",
"($	c #015D5D",
"_$	c #031313",
":$	c #186464",
"<$	c #05CDCD",
"[$	c #007C7C",
"}$	c #1D4747",
"|$	c #2E6666",
"1$	c #2D7B7B",
"2$	c #2C8686",
"3$	c #2E7F7F",
"4$	c #2E6A6A",
"5$	c #1A4747",
"6$	c #007E7E",
"7$	c #0CCFCF",
"8$	c #147676",
"9$	c #009999",
"0$	c #001212",
"a$	c #0F2A2A",
"b$	c #199393",
"c$	c #003333",
"d$	c #022E2E",
"e$	c #0A3333",
"f$	c #073232",
"g$	c #00D0D0",
"h$	c #06D6D6",
"i$	c #1DA1A1",
"j$	c #063939",
"k$	c #004B4B",
"l$	c #1B4444",
"m$	c #16A8A8",
"n$	c #008585",
"o$	c #008787",
"p$	c #04D8D8",
"q$	c #1EB2B2",
"r$	c #114C4C",
"s$	c #00F4F4",
"t$	c #042020",
"u$	c #215050",
"v$	c #19A6A6",
"w$	c #02D7D7",
"x$	c #00B0B0",
"y$	c #06D5D5",
"z$	c #21AFAF",
"A$	c #175555",
"B$	c #006767",
"C$	c #00E0E0",
"D$	c #042525",
"E$	c #214D4D",
"F$	c #229494",
"G$	c #09C9C9",
"H$	c #00B3B3",
"I$	c #009494",
"J$	c #006363",
"K$	c #007878",
"L$	c #009595",
"M$	c #10CBCB",
"N$	c #289C9C",
"O$	c #174D4D",
"P$	c #022727",
"Q$	c #173D3D",
"R$	c #2C7171",
"S$	c #1EA4A4",
"T$	c #0AC8C8",
"U$	c #03D8D8",
"V$	c #0FC9C9",
"W$	c #24ABAB",
"X$	c #297373",
"Y$	c #0E3B3B",
"Z$	c #01E8E8",
"`$	c #072F2F",
" %	c #1D4646",
".%	c #2C6A6A",
"+%	c #2B9191",
"@%	c #1FA8A8",
"#%	c #10C2C2",
"$%	c #0FC6C6",
"%%	c #11C3C3",
"&%	c #17B9B9",
"*%	c #24AAAA",
"=%	c #2D9393",
"-%	c #2A6B6B",
";%	c #164242",
">%	c #032D2D",
",%	c #00B6B6",
"'%	c #07D6D6",
")%	c #18CFCF",
"!%	c #04F6F6",
"~%	c #011F1F",
"{%	c #053B3B",
"]%	c #042B2B",
"^%	c #103535",
"/%	c #1D4545",
"(%	c #275454",
"_%	c #2D5F5F",
":%	c #2F6161",
"<%	c #255353",
"[%	c #194242",
"}%	c #09D3D3",
"|%	c #23A8A8",
"1%	c #136E6E",
"2%	c #022424",
"3%	c #0F3939",
"4%	c #135858",
"5%	c #044B4B",
"6%	c #002525",
"7%	c #002626",
"8%	c #012424",
"9%	c #014F4F",
"0%	c #009A9A",
"a%	c #12CDCD",
"b%	c #299292",
"c%	c #112323",
"d%	c #022222",
"e%	c #153838",
"f%	c #256262",
"g%	c #137070",
"h%	c #025959",
"i%	c #00CFCF",
"j%	c #08D5D5",
"k%	c #22B8B8",
"l%	c #286969",
"m%	c #0A1212",
"n%	c #001D1D",
"o%	c #0D2828",
"p%	c #274F4F",
"q%	c #257A7A",
"r%	c #0F8D8D",
"s%	c #028484",
"t%	c #014D4D",
"u%	c #005C5C",
"v%	c #009393",
"w%	c #07D4D4",
"x%	c #1BBEBE",
"y%	c #2C8B8B",
"z%	c #1C3434",
"A%	c #040505",
"B%	c #001818",
"C%	c #021919",
"D%	c #152B2B",
"E%	c #2B5353",
"F%	c #287E7E",
"G%	c #15A6A6",
"H%	c #07B8B8",
"I%	c #00BDBD",
"J%	c #02DBDB",
"K%	c #0DCDCD",
"L%	c #21B4B4",
"M%	c #2F8484",
"N%	c #234040",
"O%	c #0A0F0F",
"P%	c #031414",
"Q%	c #122121",
"R%	c #284242",
"S%	c #2E6767",
"T%	c #288F8F",
"U%	c #19A9A9",
"V%	c #0DC1C1",
"W%	c #06D0D0",
"X%	c #00E1E1",
"Y%	c #00E6E6",
"Z%	c #01E0E0",
"`%	c #04D7D7",
" &	c #13C4C4",
".&	c #22AEAE",
"+&	c #2E9393",
"@&	c #306565",
"#&	c #203434",
"$&	c #0A1010",
"%&	c #000D0D",
"&&	c #000C0C",
"*&	c #081212",
"=&	c #161F1F",
"-&	c #253636",
";&	c #2F4E4E",
">&	c #2D9090",
",&	c #289999",
"'&	c #259C9C",
")&	c #259E9E",
"!&	c #289D9D",
"~&	c #2F9191",
"{&	c #307D7D",
"]&	c #336868",
"^&	c #2E4D4D",
"/&	c #203030",
"(&	c #101717",
"_&	c #030909",
":&	c #020808",
"<&	c #080D0D",
"[&	c #0D1111",
"}&	c #141717",
"|&	c #181C1C",
"1&	c #1B2121",
"2&	c #1D2424",
"3&	c #111414",
"4&	c #0B0F0F",
"5&	c #050A0A",
"6&	c #004747",
". + @ @ @ @ @ @ @ @ @ @ @ @ @ @ @ @ @ @ @ @ @ @ @ @ @ @ @ @ @ @ @ @ @ @ @ @ @ @ @ @ @ @ @ @ # $ ",
"% & * = = = = = = = = = = = = - - - - - - - - - - - - - - - - - - = = = = = = = = = = = = ; > + ",
", ' ) ) ) ) ) ) ) ) ) ! ! ! ! ! ~ ~ ~ ~ ~ ! ! ) ) ) ) ) ) ) ) ) ) ) ) ) ! ) ) ) ) ) ) ) ) ) { ] ",
", ^ ) ) ) ! ! ~ / ( _ : < [ } } | | } < 1 } 2 3 4 5 6 7 8 9 0 a b c d < ~ / / / ~ ! ) ) ) ) e ] ",
", ^ ) ) ! ~ / ( _ } f g h i i i i g j k l m n o p q r s t u v w x y z A B C g / / / ! ! ) ) e ] ",
", ^ ) ! ~ / _ : f h D E 2 F F E G H I J K L # M N O $ $ $ O O N P Q R S T U V W X ~ ~ ! ) ) e ] ",
", ^ ) ! / _ Y g D 2 Z `  ...3 +.@.#.$.%.&.. *.*.*.*.*.*.*.*.*.*.*.*.*.$ M =.s -.;.>.,.) ! ) e ] ",
", ^ ) ~ ( [ g j F ..'.).).!.~.w R Q % {.=.@ @ , % ].N $ *.*.*.*.*.*.*.*.*.*.&.+ t ^.~././ ) e ] ",
", ^ ) ( : f D Z  .).3 C (._.:.<.[.}.|.1.2.3.4.5.6.7.8.9.% N . *.*.*.*.*.*.*.*.*.N ] v 0.9 Y { ] ",
", ^ ) ( | i 2 ..).a.b.c.d.e.f.g.h.i.j.k.l.m.n.o.p.q.r.s.t.u., N . *.*.*.*.*.*.*.*.. %.e.x v.w.=.",
", ^ ) _ f j x.G a.y.z.A.B.C.D.E.F.G.H.H.H.I.I.I.H.J.K.L.M.N.O.u.Q $ *.*.*.*.*.*.*.*.*.N $.d.P.+ ",
", ^ ) : h 2 ..).Q.R.S.T.U.V.W.X.Y./.Z.Z.`. +I..+++++.+.+@+#+$+%+&+<.&.*.*.*.*.*.*.*.*.*.O $.*+N ",
", =+! } i F -+;+> >+,+'+)+* !+~+@.{+]+{+;.~+^+/+Y..+++Y.++++(+_+:+<+[+N *.*.*.*.*.*.*.*.*.&.}+. ",
", =+! | i Z  .|+1+2+3+4+5+y 6+*+S 7+7+7+S 8+9+0.0+a+Y.++Y.Y.Y.++b+c+d+e+&.*.*.*.*.*.*.*.*.*.. *.",
", =+~ | D F y.f+g+h+i+j+8+k+l+m+n+o+p+q+5.r+s+S v y t+u+++Y.Y.Y.Y.v+w+x+9.O *.*.*.*.*.*.*.*.*.*.",
", =+~ | D x.y+z+A+z.q 7+B+C+D.D+E+F+G+H+I+J+K+L+M+7+T N+/+++Y.Y.Y.Y.v+O+P+# . *.*.*.*.*.*.*.*.*.",
", =+~ | i H.Q+R+S+T+U+V+W+X+Y+.+++++++++++++Z+`+ @.@+@q ;.= ++Y.Y.Y.Y.Y+@@#@$@*.*.*.*.*.*.*.*.*.",
", =+~ f i %@&@*@v =@-@;@>@++Y.++.+ +.+++Y.Y.Y.++,@'@)@!@~@{@Z.Y.Y.Y.Y.++]@^@$.. *.*.*.*.*.*.*.*.",
", =+~ | /@(@_@p :@<@[@}@Y.++.+|@a+0 1@2@3@.+Y.Y.++4@5@6@*+7@8@.+Y.Y.Y.++9@0@a@N *.*.*.*.*.*.*.*.",
", =+b@} c@d@e@S f@g@h@++.+- v.i@j@^.j@P.R.a+++Y.Y.Y.k@l@m@u n@; ++Y.Y.Y.++o@p@, *.*.*.*.*.*.*.*.",
", =+b@} q@r@d.s@t@u@ + +a+n@v@w@x@y@z@A@B@0.C@Y.Y.Y.++D@E@F@d.G@.+Y.Y.Y.++H@I@!@. *.*.*.*.*.*.*.",
", =+b@| J@K@8+L@M@N@I.= ]+O@P@Q@R@S@T@U@V@W@_.0 .+Y.Y.(+X@Y@r Z@++Y.Y.Y.++I.`@ #O *.*.*.*.*.*.*.",
", =+b@| .#+#7+@###$#I.%#&#*#=#@+++++++-#R@;#>#,#Z.Y.Y.++'#)#t U ; ++Y.Y.++ +!#~#$@*.*.*.*.*.*.*.",
", =+~ | {#]#^#/#(#$#Z.]+_#:#}@Y.Y.Y.Y.Y.9@<#[#x }#++Y.Y.|#1#*+2#}#++Y.Y.++ +3#4#M *.*.*.*.*.*.*.",
", =+~ | ;+_.+@5#C $#* 6#7#8#.+Y.Y.Y.Y.Y.++9#0#a#b#.+Y.Y.h@c#8+d#^ ++Y.Y.++ +e#f#%.*.*.*.*.*.*.*.",
", =+b@| g#h#t i#C $#j#k#~@^+ +Y.Y.Y.Y.Y..+^ d#l#m#++Y.Y.H.0+*+n#W ++Y.Y.++.+o#p#].*.*.*.*.*.*.*.",
", =+b@| q#r#7+@.b.$#s#t#&#u#Z.++Y.Y.Y.++I.v#w#x#y#++Y.Y. +@.k+z#A#++Y.Y.++ +B#C#$@*.*.*.*.*.*.*.",
", =+b@f D#E#F#j+!.b.I.G#H#T v#2@.+I.I./.I#J#K#L#.+Y.Y.++u+M#N#O#Y.Y.Y.Y.++ +}@P#&.*.*.*.*.*.*.*.",
", =+b@f h Q#R#K S#Q. +T#U#V##.W#~+X#Y#Z#`# $.$+$Y.Y.Y.I.@$#$$$%$ +Y.Y.Y.++I.&$A.$ *.*.*.*.*.*.*.",
", =+b@f D *$=$7+]+-$I..+;$>$-@,$'$)$!$~${$]$^$++Y.Y.++|@0.^#t./$++Y.Y.Y.++N@($$.. *.*.*.*.*.*.*.",
", =+~ f j _$:$<$v [$3@.+++b+}$|$1$2$3$4$5$4@++Y.Y.++++6$8+7$8$.+Y.Y.Y.Y.++I.9$M *.*.*.*.*.*.*.*.",
", =+~ f j 0$a$b$+@w V c$.+Y.++d$T#e$f$9@++Y.Y.Y..+Y.V g$h$i$j$++Y.Y.Y.Y.H.k$r $ *.*.*.*.*.*.*.*.",
", =+~ | D x.G l$m$^#A.n$^ .+.+++++Y.Y.Y.Y.Y..+I./+o$#$p$q$r$.+Y.Y.Y.Y.++++9$s$*.*.*.*.*.*.*.*.*.",
", =+~ | D x.G t$u$v$w$F@J c.=+Z.++I.I.I..+`.}#Y#x$t y$z$A$.+Y.Y.Y.Y.Y.H.B$C$$ *.*.*.*.*.*.*.*.*.",
", =+~ | i Z '.;+D$E$F$G$7+v H$I$0+I#J$I#K$L$x u ^#M$N$O$(+Y.Y.Y.Y.Y.H.6 w $@*.*.*.*.*.*.*.$ $@. ",
", =+! } i F -+a.e#P$Q$R$S$T$+@S *+r T+u t 7+U$V$W$X$Y$.+Y.Y.Y.Y.++H.a+2#%.*.*.*.*.*.*.*.$ ] Z$$ ",
", ^ ) < h 2  .3 C B#X.`$ %.%+%@%6.#%$%%%&%*%=%-%;%>%.+++++++++.+H.0 ,%}+. *.*.*.*.*.*.O @ '%)%!%",
", ^ ) : f j ` G ~%e#|#{%/.]%^%/%(%_%:%J+<%[%J@J.I. + + + + +X.3@t+`#%.. *.*.*.*.*.*.P $.}%|%1%=.",
", ^ ) _ | i F  .3 k 2%3%4%5%3@6%6%7%7%7%N@N@X.$#y.$#$#b.8%}@9%0%e.$@*.*.*.*.*.*.O % e+a%b%c%{ ] ",
", ^ ) ( : g j x.'.3 ~%d%e%f%g%h%= }@e#C o#o#o#o#C o#$#&$($L$i%% O *.*.*.*.*.$ s$L j%k%l%m%) e ] ",
", ^ ) / _ | h E x.-+).3 n%o%p%q%r%s%c.@$9 t%t%7 u%%#v%2#t % O *.*.*.*.. N % L w%x%y%z%A%! ) e ] ",
", ^ ) ~ / _ | h j F `  .'.B%C%D%E%F%G%H%I%d#9+q 8+9.# P $ . . O N M + <.J%K%L%M%N%O%/ / ! ) e ] ",
", ^ ) ! ~ ( _ | g i E 2 Z x.x.0$P%Q%R%S%T%U%V%W%:@X%Y%R R Y%L Z%`%B. &.&+&@&#&$&_ ( / ~ ! ) e ] ",
", ^ ) ) ! ~ / _ < | g h i D D j j %&&&*&=&-&;&|$1$>&,&'&)&!&h.~&{&]&^&/&(&_&: _ _ / ~ ! ) ) e ] ",
", ^ ) ) ) ! ~ / ( _ : } } | | f f f f f Y [ :&<&[&}&|&1&2&1&|&3&4&5&_ _ : _ _ ( / ~ ! ) ) ) e ] ",
", ' ) ) ) ) ) ) ) ) ) ! ! ! ~ ~ b@b@b@b@b@b@! ! ! ! ) ) ) ) ) ! ! ! ! ! ) ) ) ) ) ) ) ) ) ) { ] ",
"Q v#a 6&6&6&6&6&6&6&6&1@1@1@1@1@1@1@1@1@1@1@1@1@1@1@1@1@1@1@1@1@1@1@1@1@1@6&6&6&6&6&6&6&6&a V % ",
". }+{.# # # # # # # # # # # # # # # # # # # # # # # # # # # # # # # # # # # # # # # # # # {.}+. "};
