/* XPM */
static char * xchat_xpm[] = {
"48 48 282 2",
"  	c None",
". 	c #00FEFE",
"+ 	c #00F0F0",
"@ 	c #00EAEA",
"# 	c #00EFEF",
"$ 	c #00FDFD",
"% 	c #00F1F1",
"& 	c #006D6D",
"* 	c #003737",
"= 	c #003A3A",
"- 	c #003B3B",
"; 	c #003838",
"> 	c #006A6A",
", 	c #00EDED",
"' 	c #004141",
") 	c #000000",
"! 	c #000101",
"~ 	c #000202",
"{ 	c #003E3E",
"] 	c #00ECEC",
"^ 	c #004242",
"/ 	c #000303",
"( 	c #000404",
"_ 	c #000505",
": 	c #000606",
"< 	c #010606",
"[ 	c #000707",
"} 	c #010707",
"| 	c #010808",
"1 	c #003F3F",
"2 	c #010909",
"3 	c #010A0A",
"4 	c #010B0B",
"5 	c #010C0C",
"6 	c #010D0D",
"7 	c #010F0F",
"8 	c #011010",
"9 	c #011111",
"0 	c #011212",
"a 	c #011919",
"b 	c #011F1F",
"c 	c #012222",
"d 	c #012323",
"e 	c #012020",
"f 	c #011B1B",
"g 	c #011313",
"h 	c #010E0E",
"i 	c #000808",
"j 	c #011414",
"k 	c #011616",
"l 	c #011717",
"m 	c #011818",
"n 	c #012424",
"o 	c #013A3A",
"p 	c #015555",
"q 	c #006565",
"r 	c #007777",
"s 	c #008686",
"t 	c #008E8E",
"u 	c #009393",
"v 	c #009090",
"w 	c #006666",
"x 	c #014747",
"y 	c #012929",
"z 	c #011515",
"A 	c #011A1A",
"B 	c #011C1C",
"C 	c #013D3D",
"D 	c #015D5D",
"E 	c #007A7A",
"F 	c #008989",
"G 	c #009292",
"H 	c #009797",
"I 	c #009999",
"J 	c #009C9C",
"K 	c #009F9F",
"L 	c #00A3A3",
"M 	c #00A6A6",
"N 	c #00AAAA",
"O 	c #00ADAD",
"P 	c #00B2B2",
"Q 	c #00B3B3",
"R 	c #00B0B0",
"S 	c #00A2A2",
"T 	c #007F7F",
"U 	c #015252",
"V 	c #012727",
"W 	c #011D1D",
"X 	c #012525",
"Y 	c #014141",
"Z 	c #006868",
"` 	c #008080",
" .	c #008B8B",
"..	c #009191",
"+.	c #009494",
"@.	c #009898",
"#.	c #009B9B",
"$.	c #009E9E",
"%.	c #00A5A5",
"&.	c #00A8A8",
"*.	c #00ACAC",
"=.	c #00AFAF",
"-.	c #00B6B6",
";.	c #00BABA",
">.	c #00BFBF",
",.	c #009A9A",
"'.	c #015B5B",
").	c #011E1E",
"!.	c #012121",
"~.	c #013434",
"{.	c #006060",
"].	c #008282",
"^.	c #008484",
"/.	c #008787",
"(.	c #008A8A",
"_.	c #00B9B9",
":.	c #00BCBC",
"<.	c #00C0C0",
"[.	c #00C5C5",
"}.	c #00C1C1",
"|.	c #009595",
"1.	c #014545",
"2.	c #006C6C",
"3.	c #007B7B",
"4.	c #007D7D",
"5.	c #00BDBD",
"6.	c #00C3C3",
"7.	c #00C7C7",
"8.	c #00CCCC",
"9.	c #016565",
"0.	c #014848",
"a.	c #006F6F",
"b.	c #008181",
"c.	c #008F8F",
"d.	c #00A9A9",
"e.	c #00B7B7",
"f.	c #00BBBB",
"g.	c #00BEBE",
"h.	c #00C2C2",
"i.	c #00C8C8",
"j.	c #00CBCB",
"k.	c #00CFCF",
"l.	c #017A7A",
"m.	c #004040",
"n.	c #004343",
"o.	c #014343",
"p.	c #007474",
"q.	c #007676",
"r.	c #007E7E",
"s.	c #00B1B1",
"t.	c #00A7A7",
"u.	c #00CECE",
"v.	c #00D2D2",
"w.	c #017979",
"x.	c #013838",
"y.	c #006767",
"z.	c #007070",
"A.	c #007373",
"B.	c #008585",
"C.	c #003232",
"D.	c #003636",
"E.	c #003939",
"F.	c #004545",
"G.	c #008D8D",
"H.	c #008383",
"I.	c #003535",
"J.	c #003131",
"K.	c #002525",
"L.	c #00D1D1",
"M.	c #00D5D5",
"N.	c #012626",
"O.	c #005D5D",
"P.	c #005353",
"Q.	c #003C3C",
"R.	c #004A4A",
"S.	c #002424",
"T.	c #002626",
"U.	c #00D4D4",
"V.	c #00D9D9",
"W.	c #004848",
"X.	c #006969",
"Y.	c #008888",
"Z.	c #005050",
"`.	c #004949",
" +	c #004747",
".+	c #004444",
"++	c #002828",
"@+	c #00CACA",
"#+	c #00CDCD",
"$+	c #00D8D8",
"%+	c #00DDDD",
"&+	c #005F5F",
"*+	c #004B4B",
"=+	c #005454",
"-+	c #005858",
";+	c #005555",
">+	c #007272",
",+	c #006E6E",
"'+	c #005959",
")+	c #005757",
"!+	c #002B2B",
"~+	c #00C4C4",
"{+	c #00D7D7",
"]+	c #00DCDC",
"^+	c #014949",
"/+	c #010404",
"(+	c #013E3E",
"_+	c #005E5E",
":+	c #006363",
"<+	c #006464",
"[+	c #00DBDB",
"}+	c #00E0E0",
"|+	c #007878",
"1+	c #007575",
"2+	c #010202",
"3+	c #005C5C",
"4+	c #006262",
"5+	c #00B4B4",
"6+	c #00DFDF",
"7+	c #014B4B",
"8+	c #013030",
"9+	c #006161",
"0+	c #004D4D",
"a+	c #005A5A",
"b+	c #00DEDE",
"c+	c #016D6D",
"d+	c #010000",
"e+	c #003333",
"f+	c #008C8C",
"g+	c #009696",
"h+	c #00E4E4",
"i+	c #00E5E5",
"j+	c #007979",
"k+	c #012D2D",
"l+	c #006B6B",
"m+	c #016A6A",
"n+	c #005B5B",
"o+	c #007171",
"p+	c #00D6D6",
"q+	c #004F4F",
"r+	c #004C4C",
"s+	c #005252",
"t+	c #00B5B5",
"u+	c #005656",
"v+	c #003D3D",
"w+	c #003434",
"x+	c #007C7C",
"y+	c #003030",
"z+	c #002D2D",
"A+	c #00A0A0",
"B+	c #005151",
"C+	c #010505",
"D+	c #009D9D",
"E+	c #004646",
"F+	c #001414",
"G+	c #001818",
"H+	c #001C1C",
"I+	c #001A1A",
"J+	c #002E2E",
"K+	c #013131",
"L+	c #012E2E",
"M+	c #00C6C6",
"N+	c #015353",
"O+	c #016868",
"P+	c #013C3C",
"Q+	c #016666",
"R+	c #015454",
"S+	c #002929",
"T+	c #012828",
"U+	c #002A2A",
"V+	c #00AEAE",
"W+	c #013737",
"X+	c #015A5A",
"Y+	c #012F2F",
"Z+	c #012B2B",
"`+	c #014C4C",
" @	c #014D4D",
".@	c #015151",
"+@	c #012A2A",
"@@	c #00F2F2",
"#@	c #00F3F3",
"$@	c #00EEEE",
". + @ @ @ @ @ @ @ @ @ @ @ @ @ @ @ @ @ @ @ @ @ @ @ @ @ @ @ @ @ @ @ @ @ @ @ @ @ @ @ @ @ @ @ @ # $ ",
"% & * = = = = = = = = = = = = - - - - - - - - - - - - - - - - - - = = = = = = = = = = = = ; > + ",
", ' ) ) ) ) ) ) ) ) ) ! ! ! ! ! ~ ~ ~ ~ ~ ~ ~ ~ ~ ~ ~ ~ ~ ~ ~ ~ ! ! ! ! ! ) ) ) ) ) ) ) ) ) { ] ",
", ^ ) ) ) ! ! ~ / ( _ : < [ } } | | | | | | | | | | | | | | | | } } [ < : _ ( / ~ ! ) ) ) ) 1 ] ",
", ^ ) ) ! ~ / ( _ } 2 3 4 5 5 5 5 5 5 5 5 5 5 4 4 4 4 5 5 5 5 5 5 5 4 3 2 | } _ ( / ! ! ) ) 1 ] ",
", ^ ) ! ~ / _ : 2 4 6 7 8 9 9 0 0 9 8 7 0 a b c d c e f g 7 8 9 9 9 9 8 h 6 4 2 : ( / ! ) ) 1 ] ",
", ^ ) ! / _ i 3 6 8 0 j k l l k m n o p q r s t u u v s r w x y a z k k j 0 8 6 2 : ( / ! ) 1 ] ",
", ^ ) ~ ( [ 3 h 9 z m A B B d C D E F G H I J K L M N O P Q R S T U V a a l j 9 6 2 : ( ~ ) 1 ] ",
", ^ ) ( : 2 6 0 k A W b X Y Z ` F  .t ..+.@.#.$.S %.&.*.=.Q -.;.>.;.,.'.V f a z 9 6 2 _ / ) 1 ] ",
", ^ ) ( | 5 8 z A ).!.~.{.E ].^./.(.t ..+.@.#.$.S %.&.*.=.Q -._.:.<.[.}.|.1.W a j 8 4 } ( ) 1 ] ",
", ^ ) _ 2 h g a ).c Y 2.3.4.` ^./. .t ..+.@.#.$.S %.&.*.=.P -._.5.<.6.7.8._.9.e l 0 6 2 _ ) 1 ] ",
", ^ ) : 4 8 z f c 0.a.r E 4.b.^./. .c.G |.I J K S %.d.*.=.Q e.f.g.h.[.i.j.k.i.l.e g 7 3 : ) m.] ",
", n.! } 5 9 l W o.& p.q.E 4.b.^.b.E r.b.^./.t $.S %.&.*.R s.L L %.t.d.d.g.u.v.k.w.A 7 4 < ) m.] ",
", n.! | 5 0 l x.y.z.A.r E 4.b.B.A.; C.D.E.- F.G.L %.d.*.=.H.m.; I.J.K.- *.k.L.M.u.9.8 4 } ! m.] ",
", n.~ | 6 0 N.O.& z.A.r E 4.b.^.B.P.J.D.E.Q.Q.Z S M d.O v R.E.D.C.S.T.+.j.u.L.U.V.6.C 3 } ! m.] ",
", n.~ | 6 j W.X.& z.A.r E 4.b.^.Y.E F.m.F.W.R.Z.G t.N @.O.`. +.+D.++(.i.@+#+L.U.$+%+I j } ~ m.] ",
", n.~ | 5 X &+> 2.z.A.r E 4.b.^./.(.y.*+Z.=+-+;+>+M $.,+'+)+=+ +!+` ~+7.@+u.L.U.{+]+v.^+/+~ m.] ",
", n.~ | h (+w X.2.z.A.r E 4.` ^./. .H._+'+&+:+w <++.r.y.w :+)+J.q.>.~+7.@+u.L.U.$+[+}+G 4 ! m.] ",
", n.~ | j P.y.X.2.z.A.q.E 4.b.^./. .t |+<+> a.A.1+r.r p.>+Z ; 2.;.}.6.7.@+u.L.U.$+[+}+~+d ) m.] ",
", n.2+| b 3+w X.2.z.A.r E 4.b.^.Y. .c. .p.p.E T ].].].` r ^ 4+5+g.<.6.7.@+u.L.U.$+[+6+$+7+) m.] ",
", n.2+} 8+9+w X.& z.A.r E r.b.^.Y. .t ..s 4.B. .c.c.G.B.0+a+=.f.5.<.6.7.@+u.L.U.$+[+b+}+c+d+m.] ",
", n.2+} e+4+w X.& z.A.r E 4.b.^.Y. .t G G /.f+|.#.I g+1+;+&.e._.5.<.6.7.@+u.L.U.$+[+b+h+T d+m.] ",
", n.2+} e+4+w X.& z.p.r E 4.b.^.Y. .t G c.s f+|.#.,.g+/.b.P -._.5.<.6.7.@+u.L.U.$+[+b+i+^.d+m.] ",
", n.2+} C.4+w > & z.p.r E 4.b.^./. .c. .E 3.^.f+v v c. .j+$.e._.5.<.6.7.@+u.L.U.$+[+b+h+4.d+m.] ",
", n.2+} k+9+w X.& z.p.r E 4.b.^.Y. ./.z.l+A.E r.].B.^.].j+r.Q ;.5.<.6.7.@+u.L.U.$+[+b+6+m+d+m.] ",
", n.2+| W n+y.X.& z.p.r E 4.b.^.Y.^.q n+:+> X.*+o+j+|+r 1+X.#.f.5.<.6.7.@+u.L.U.$+[+6+p+1.d+m.] ",
", n.2+2 g q+y.> & z.p.r E 4.b.B.b.O.r+s+'+3+= =+F ,+2.l+> :+A.t+5.<.6.7.@+u.L.U.$+[+}+5.b d+m.] ",
", n.2+2 6 x.q > & z.p.r E 4.].T u+v+n.`.0+w+W.H $.>+_+&+_+n+u+g+g.<.6.7.@+u.L.U.$+[+6+/.2 2+m.] ",
", n.2+2 6 b a+> & z.p.r E r.x+Z.y+w+= { z+{ c.A+L Y.;+s+B+q+`.:+-.}.6.7.@+u.L.U.{+]+8.(+C+~ m.] ",
", n.2+2 h g C Z & z.p.r 3.E 0+S.T.!+y+T.w+/.D+K L K {..+F.n.m.{ c.h.~+7.@+u.L.U.$+[+F 8 } ~ m.] ",
", n.~ 2 h g e =+& z.A.r q.E+F+F+G+H+I+!+r.,.J K S t.` D.J+z+!+T.`.Q ~+7.@+u.L.U.V.-.K+3 | ~ m.] ",
", n.~ 2 h g a L+{.o+p.r a. +^ .+ +`.r+|+g+@.#.K S M K y.O.&+{.9+X.O ~+7.@+#+L.p+M+N+8 6 | ~ m.] ",
", n.~ | 6 g a b x.q p.r E T H.s (.G...u |.@.J K S %.d.=.P -._.5.<.}.6.7.@+u.v.7.O+a 0 6 | ~ m.] ",
", n.~ | 6 g a b n P+y.r E 4.b.^.Y. .t ..|.@.J K S %.d.*.R Q -._.5.<.6.7.@+k.>.Q+b m 0 5 | ! m.] ",
", n.~ | 5 0 m ).n V E.9+j+r.b.^.Y. .t ..|.@.J K S %.d.*.R Q -._.5.<.~+i.@+N R+d W m 0 5 } ! m.] ",
", n.! } 5 9 l W d V S+C.s+A.b.^.Y. .t ..|.@.J K S %.d.*.R Q -._.5.}.[.;.s { n c W l 9 4 } ) m.] ",
", ^ ) < 4 8 k B !.X T+U+!+P.` ^.Y. .t G |.@.#.K S %.d.*.R Q e.f.5.s.f+P.z+N.X e f z 7 3 : ! m.] ",
", ^ ) : 2 h j a b d N.T+!+{.].^.Y. .t G +.I D+A+L t.N V+R V+&.|.p.`.J+++T+N.d ).a g 6 2 _ ) 1 ] ",
", ^ ) _ | 5 9 k B e d n W+p.b.^./. .t A.a+y.q.r.B.s ^.j+l+X+Y 8+V V V V X d b f k 9 5 } ( ) 1 ] ",
", ^ ) ( : 3 h g m B ).X a+4.b.^.Y.Y.y.Y+c n T+Z+k+k+Z+N.c d n n X X n d !.).f l 0 6 2 : / ) 1 ] ",
", ^ ) / _ | 4 7 g z ).`+r r.].^.r  @X b e e e b b b b e e e e e e b ).W B a k 0 h 4 } ( ~ ) 1 ] ",
", ^ ) ~ / _ | 4 0 y )+1+3.E & .@+@a A A A A A A A A A A A A A A A a a l k g 9 h 4 | _ / ! ) 1 ] ",
", ^ ) ! ~ ( _ | T+U O.=+W.W+).0 0 g g j j j j j j j j j j g g g g g 0 9 8 h 5 3 | _ / ~ ! ) 1 ] ",
", ^ ) ) ! ~ / _ 5 8 9 h 3 4 6 h h h h h h h h h h h h h h h h h h 6 6 5 4 2 | : _ / ~ ! ) ) 1 ] ",
", ^ ) ) ) ! ~ / ( ( _ < } | | 2 2 2 2 2 2 2 2 2 2 2 2 2 2 2 2 2 2 | | } < : _ ( / ~ ! ) ) ) 1 ] ",
", ' ) ) ) ) ) ) ) ) ) ! ! ! ~ ~ 2+2+2+2+2+2+2+2+2+2+2+2+2+2+2+2+~ ~ ! ! ) ) ) ) ) ) ) ) ) ) { ] ",
"@@q.F. + + + + + + + +W.W.W.W.W.W.W.W.W.W.W.W.W.W.W.W.W.W.W.W.W.W.W.W.W.W. + + + + + + + +F.p.% ",
". #@$@# # # # # # # # # # # # # # # # # # # # # # # # # # # # # # # # # # # # # # # # # # $@#@. "};
