<svg xmlns="http://www.w3.org/2000/svg" width="16" height="16">
    <g fill="#dcdcdc">
        <path d="M12.436 12.706c0 .003.01.006.01.01 0 .005.01.01.01.015zm-8.879.002l-.02.026c0-.005.01-.01.01-.015 0-.003.01-.006.01-.01z" />
        <path d="M8 0C3.587 0 0 3.587 0 8s3.587 8 8 8c4.414 0 8-3.587 8-8s-3.586-8-8-8zm0 1a7 7 0 0 1 7 7 7 7 0 0 1-7 7 7 7 0 0 1-7-7 7 7 0 0 1 7-7z" />
        <path d="M14.737 1.263c-1.684-1.684-2.526-1.684-4.21 0l-.15.15a5.954 5.954 0 0 1 2.676 1.534 5.956 5.956 0 0 1 1.536 2.674l.148-.147c1.684-1.685 1.684-2.527 0-4.21zm-13.474 0c-1.684 1.684-1.684 2.526 0 4.21l.15.15a5.955 5.955 0 0 1 1.534-2.676 5.955 5.955 0 0 1 2.674-1.536l-.147-.148C3.79-.42 2.947-.42 1.264 1.263z" />
        <path d="M7.5 3v5.207l3.146 3.147.707-.708L8.5 7.793V3z"/>
        <path d="M8 .05C3.616.05.05 3.617.05 8S3.617 15.95 8 15.95s7.95-3.566 7.95-7.95S12.383.05 8 .05zm0 1.1c3.79 0 6.85 3.06 6.85 6.85 0 3.79-3.06 6.85-6.85 6.85-3.79 0-6.85-3.06-6.85-6.85 0-3.79 3.06-6.85 6.85-6.85z"/>
    </g>
</svg>
