<?xml version="1.0" encoding="UTF-8" standalone="no"?>
<svg
   xmlns:dc="http://purl.org/dc/elements/1.1/"
   xmlns:cc="http://creativecommons.org/ns#"
   xmlns:rdf="http://www.w3.org/1999/02/22-rdf-syntax-ns#"
   xmlns:svg="http://www.w3.org/2000/svg"
   xmlns="http://www.w3.org/2000/svg"
   xmlns:sodipodi="http://sodipodi.sourceforge.net/DTD/sodipodi-0.dtd"
   xmlns:inkscape="http://www.inkscape.org/namespaces/inkscape"
   width="16"
   height="16"
   version="1.1"
   id="svg4"
   sodipodi:docname="avatar-default-symbolic.svg"
   inkscape:version="0.92.4 5da689c313, 2019-01-14">
  <metadata
     id="metadata10">
    <rdf:RDF>
      <cc:Work
         rdf:about="">
        <dc:format>image/svg+xml</dc:format>
        <dc:type
           rdf:resource="http://purl.org/dc/dcmitype/StillImage" />
      </cc:Work>
    </rdf:RDF>
  </metadata>
  <defs
     id="defs8" />
  <sodipodi:namedview
     pagecolor="#ffffff"
     bordercolor="#666666"
     borderopacity="1"
     objecttolerance="10"
     gridtolerance="10"
     guidetolerance="10"
     inkscape:pageopacity="0"
     inkscape:pageshadow="2"
     inkscape:window-width="1366"
     inkscape:window-height="650"
     id="namedview6"
     showgrid="true"
     inkscape:zoom="20.85965"
     inkscape:cx="2.8098981"
     inkscape:cy="6.6340769"
     inkscape:window-x="0"
     inkscape:window-y="27"
     inkscape:window-maximized="1"
     inkscape:current-layer="svg4">
    <inkscape:grid
       type="xygrid"
       id="grid859" />
  </sodipodi:namedview>
  <g
     id="g1678"
     transform="matrix(0.95985074,0,0,0.95985074,-105.68127,21.556926)"
     style="stroke-width:1.04182863;fill:#dcdcdc;fill-opacity:0.80000001;opacity:1">
    <g
       id="g1620"
       transform="matrix(0.10737655,0,0,0.10737655,111.14339,-24.259266)"
       style="fill:#dcdcdc;fill-opacity:0.80000001;stroke:none;stroke-width:9.70257187;stroke-opacity:1">
      <g
         id="g1618"
         style="fill:#dcdcdc;fill-opacity:0.80000001;stroke:none;stroke-width:9.70257187;stroke-opacity:1">
        <path
           id="path1614"
           d="m 129.941,150.887 c -11.361,-5.836 -23.145,-10.663 -35.055,-15.239 -0.883,-0.34 -1.945,-1.002 -2.309,-1.802 -0.967,-2.136 -1.641,-4.415 -2.339,-6.677 -0.436,-1.438 -0.835,-2.792 -2.405,-3.479 -0.418,-0.179 -0.817,-1.02 -0.806,-1.545 0.084,-5.233 -1.122,-10.722 2.745,-15.281 0.125,-0.137 0.167,-0.352 0.251,-0.513 2.088,-4.583 2.464,-9.804 5.382,-14.064 0.072,-0.095 0.095,-0.239 0.101,-0.37 0.346,-3.246 0.692,-6.486 0.967,-9.738 0.03,-0.406 -0.328,-1.122 -0.668,-1.241 -1.617,-0.579 -1.522,-1.862 -1.516,-3.162 0.012,-6.349 0,-12.698 -0.006,-19.04 -0.006,-3.688 -1.092,-6.969 -3.873,-9.481 -3.174,-2.858 -6.438,-5.615 -9.696,-8.377 -1.575,-1.331 -1.718,-2.357 -0.245,-3.825 0.65,-0.644 1.492,-1.11 2.25,-1.659 -0.161,-0.251 -0.328,-0.495 -0.489,-0.74 -0.985,0 -1.993,-0.131 -2.954,0.018 -3.604,0.585 -7.22,1.092 -10.776,1.927 -6.76,1.599 -13.33,3.711 -18.82,8.24 -3.777,3.103 -6.772,6.707 -7.136,11.814 -0.191,2.667 -0.167,5.358 -0.191,8.037 -0.024,4.356 0.036,8.724 -0.054,13.079 -0.018,0.71 -0.424,1.874 -0.901,2.035 -1.772,0.573 -1.82,1.701 -1.581,3.174 0.161,1.002 0.03,2.065 0.257,3.049 0.615,2.733 1.259,5.454 2.047,8.139 0.591,1.999 1.724,3.89 2.041,5.919 0.627,4.057 2.124,7.59 4.863,10.657 0.453,0.507 0.8,1.366 0.746,2.023 -0.203,3.127 -0.531,6.259 -0.949,9.356 -0.084,0.603 -0.722,1.504 -1.247,1.617 -2.076,0.43 -2.399,2.041 -2.888,3.646 -0.65,2.136 -1.354,4.266 -2.172,6.337 -0.263,0.633 -0.901,1.313 -1.539,1.593 -3.693,1.617 -7.453,3.091 -11.17,4.648 -3.956,1.659 -7.954,3.252 -11.814,5.096 -3.986,1.897 -7.84,4.046 -11.743,6.134 -2.291,1.229 -4.439,2.59 -6.247,4.278 v 6.838 c 45.283,0 90.565,0 135.836,0 v -7.124 c -1.667,-1.695 -3.636,-3.139 -5.897,-4.297 z"
           style="fill:#dcdcdc;fill-opacity:0.80000001;stroke:none;stroke-width:9.70257187;stroke-opacity:1"
           inkscape:connector-curvature="0" />
      </g>
    </g>
    <g
       id="g1622"
       style="stroke-width:1.04182863;fill:#dcdcdc;fill-opacity:0.80000001" />
    <g
       id="g1624"
       style="stroke-width:1.04182863;fill:#dcdcdc;fill-opacity:0.80000001" />
    <g
       id="g1626"
       style="stroke-width:1.04182863;fill:#dcdcdc;fill-opacity:0.80000001" />
    <g
       id="g1628"
       style="stroke-width:1.04182863;fill:#dcdcdc;fill-opacity:0.80000001" />
    <g
       id="g1630"
       style="stroke-width:1.04182863;fill:#dcdcdc;fill-opacity:0.80000001" />
    <g
       id="g1632"
       style="stroke-width:1.04182863;fill:#dcdcdc;fill-opacity:0.80000001" />
    <g
       id="g1634"
       style="stroke-width:1.04182863;fill:#dcdcdc;fill-opacity:0.80000001" />
    <g
       id="g1636"
       style="stroke-width:1.04182863;fill:#dcdcdc;fill-opacity:0.80000001" />
    <g
       id="g1638"
       style="stroke-width:1.04182863;fill:#dcdcdc;fill-opacity:0.80000001" />
    <g
       id="g1640"
       style="stroke-width:1.04182863;fill:#dcdcdc;fill-opacity:0.80000001" />
    <g
       id="g1642"
       style="stroke-width:1.04182863;fill:#dcdcdc;fill-opacity:0.80000001" />
    <g
       id="g1644"
       style="stroke-width:1.04182863;fill:#dcdcdc;fill-opacity:0.80000001" />
    <g
       id="g1646"
       style="stroke-width:1.04182863;fill:#dcdcdc;fill-opacity:0.80000001" />
    <g
       id="g1648"
       style="stroke-width:1.04182863;fill:#dcdcdc;fill-opacity:0.80000001" />
    <g
       id="g1650"
       style="stroke-width:1.04182863;fill:#dcdcdc;fill-opacity:0.80000001" />
  </g>
</svg>
