<svg xmlns="http://www.w3.org/2000/svg" width="16" height="16">
	  <g fill="#dcdcdc">
    <path d="M7.5 1s-.215.02-.306.064a.578.556 0 0 0-.305.487V9.1l.032-.03v4.853l.303.488.394.215.741.345.389-13.749z" opacity=".2" />
    <path d="M12.209 9.793l-2.57-1.705 2.508-1.678c.488-.322.794-.882.794-1.47 0-.589-.277-1.149-.794-1.471L8.874 1.29a.615.592 0 0 0-.611-.028.594.572 0 0 0-.307.5v4.885l-3.885-3.74a.59.569 0 0 0-.856 0 .587.567 0 0 0 0 .824L7.698 8.07l-4.515 4.343a.587.567 0 0 0 0 .823.607.607 0 0 0 .856 0l3.946-3.768v4.973c0 .206.125.413.306.5.241.12.52.029.642-.028l3.273-2.178c.488-.322.794-.882.794-1.47a1.691 1.691 0 0 0-.791-1.472zM9.183 2.85l2.355 1.53a.658.633 0 0 1 .277.53.646.622 0 0 1-.277.528l-2.355 1.56zm2.355 8.916l-2.355 1.56v-4.15l2.355 1.53a.658.633 0 0 1 .277.529.667.641 0 0 1-.277.531z" />
    <path d="M12 14a2 2 0 0 0 2 2 2 2 0 0 0 2-2 2 2 0 0 0-2-2 2 2 0 0 0-2 2z" />
</g>
</svg>
