<svg xmlns="http://www.w3.org/2000/svg" width="16" height="16">
	<g fill="#dcdcdc">
    <path d="M4 2.003c-1.108 0-2 .892-2 2v8c0 1.108.892 2 2 2h8c1.108 0 2-.892 2-2v-3.94l-1 1v2.94c0 .554-.446 1-1 1H4c-.554 0-1-.446-1-1v-8c0-.554.446-1 1-1h8c.127 0 .231.05.344.094l.687-.812A2.014 2.014 0 0 0 12 2.003z"/>
    <path d="M14.75 3.488a.7.7 0 0 0-.48.213L8 10 5.524 7.566c-.664-.656-1.648.34-.984.996l3.468 3.414 7.254-7.287a.7.7 0 0 0-.512-1.2z" />
    <path d="M13.336 2.52A1.853 1.853 0 0 0 12 2.003H9.375l.063 1H12a.99.99 0 0 1 .63.223l.706-.706z" />
</g>
</svg>
