<?xml version="1.0" encoding="UTF-8" standalone="no"?>
<svg
   xmlns:dc="http://purl.org/dc/elements/1.1/"
   xmlns:cc="http://creativecommons.org/ns#"
   xmlns:rdf="http://www.w3.org/1999/02/22-rdf-syntax-ns#"
   xmlns:svg="http://www.w3.org/2000/svg"
   xmlns="http://www.w3.org/2000/svg"
   xmlns:sodipodi="http://sodipodi.sourceforge.net/DTD/sodipodi-0.dtd"
   xmlns:inkscape="http://www.inkscape.org/namespaces/inkscape"
   width="16.002"
   height="16.002"
   version="1.1"
   id="svg4"
   sodipodi:docname="dialog-warning-symbolic.svg"
   inkscape:version="0.92.4 5da689c313, 2019-01-14">
  <metadata
     id="metadata10">
    <rdf:RDF>
      <cc:Work
         rdf:about="">
        <dc:format>image/svg+xml</dc:format>
        <dc:type
           rdf:resource="http://purl.org/dc/dcmitype/StillImage" />
      </cc:Work>
    </rdf:RDF>
  </metadata>
  <defs
     id="defs8" />
  <sodipodi:namedview
     pagecolor="#ffffff"
     bordercolor="#666666"
     borderopacity="1"
     objecttolerance="10"
     gridtolerance="10"
     guidetolerance="10"
     inkscape:pageopacity="0"
     inkscape:pageshadow="2"
     inkscape:window-width="1366"
     inkscape:window-height="704"
     id="namedview6"
     showgrid="false"
     inkscape:zoom="14.748156"
     inkscape:cx="8.0010004"
     inkscape:cy="8.0010004"
     inkscape:window-x="0"
     inkscape:window-y="27"
     inkscape:window-maximized="1"
     inkscape:current-layer="svg4" />
  <path
     d="m 7.963,1.0000008 a 1.499,1.499 0 0 0 -1.277,0.785 L 0.184,13.785001 a 1.5,1.5 0 0 0 1.316,2.217 h 13 a 1.5,1.5 0 0 0 1.317,-2.217 L 9.319,1.7850008 a 1.496,1.496 0 0 0 -1.356,-0.785 z m 0.025,1 a 0.494,0.494 0 0 1 0.451,0.262 l 6.498,12.0000002 c 0.203,0.374 -0.016,0.74 -0.437,0.74 h -13 c -0.422,0 -0.64,-0.366 -0.438,-0.74 L 7.564,2.2620008 a 0.493,0.493 0 0 1 0.424,-0.262 z m -0.695,2.002 v 2.662 c 0,0.793 0.03,1.517 0.086,2.168 0.057,0.642 0.128,1.2840002 0.213,1.9260002 h 0.82 c 0.085,-0.642 0.157,-1.2840002 0.213,-1.9260002 0.057,-0.651 0.086,-1.375 0.086,-2.168 v -2.662 z m 0.71,8.0000002 a 1,1 0 0 0 -1,1 c 0,0.282 0.118,0.535 0.306,0.717 0.17,0.189 0.4,0.283 0.693,0.283 0.293,0 0.524,-0.094 0.694,-0.283 a 0.994,0.994 0 0 0 0.306,-0.717 1,1 0 0 0 -1,-1 z"
     font-weight="400"
     overflow="visible"
     id="path2"
     inkscape:connector-curvature="0"
     style="font-weight:400;font-family:sans-serif;overflow:visible;fill:#ff2a2a" />
</svg>
