<?xml version="1.0" encoding="UTF-8" standalone="no"?>
<svg
   xmlns:dc="http://purl.org/dc/elements/1.1/"
   xmlns:cc="http://creativecommons.org/ns#"
   xmlns:rdf="http://www.w3.org/1999/02/22-rdf-syntax-ns#"
   xmlns:svg="http://www.w3.org/2000/svg"
   xmlns="http://www.w3.org/2000/svg"
   xmlns:sodipodi="http://sodipodi.sourceforge.net/DTD/sodipodi-0.dtd"
   xmlns:inkscape="http://www.inkscape.org/namespaces/inkscape"
   width="16"
   height="16"
   version="1.1"
   id="svg12"
   sodipodi:docname="network-wireless-symbolic.svg"
   inkscape:version="0.92.4 5da689c313, 2019-01-14">
  <metadata
     id="metadata18">
    <rdf:RDF>
      <cc:Work
         rdf:about="">
        <dc:format>image/svg+xml</dc:format>
        <dc:type
           rdf:resource="http://purl.org/dc/dcmitype/StillImage" />
      </cc:Work>
    </rdf:RDF>
  </metadata>
  <defs
     id="defs16" />
  <sodipodi:namedview
     pagecolor="#ffffff"
     bordercolor="#666666"
     borderopacity="1"
     objecttolerance="10"
     gridtolerance="10"
     guidetolerance="10"
     inkscape:pageopacity="0"
     inkscape:pageshadow="2"
     inkscape:window-width="1366"
     inkscape:window-height="656"
     id="namedview14"
     showgrid="false"
     inkscape:zoom="29.5"
     inkscape:cx="5.8532443"
     inkscape:cy="8.5352875"
     inkscape:window-x="0"
     inkscape:window-y="27"
     inkscape:window-maximized="1"
     inkscape:current-layer="svg12" />
  <path
     style="color:#000000;font-style:normal;font-variant:normal;font-weight:normal;font-stretch:normal;font-size:medium;line-height:normal;font-family:sans-serif;font-variant-ligatures:normal;font-variant-position:normal;font-variant-caps:normal;font-variant-numeric:normal;font-variant-alternates:normal;font-feature-settings:normal;text-indent:0;text-align:start;text-decoration:none;text-decoration-line:none;text-decoration-style:solid;text-decoration-color:#000000;letter-spacing:normal;word-spacing:normal;text-transform:none;writing-mode:lr-tb;direction:ltr;text-orientation:mixed;dominant-baseline:auto;baseline-shift:baseline;text-anchor:start;white-space:normal;shape-padding:0;clip-rule:nonzero;display:inline;overflow:visible;visibility:visible;opacity:1;isolation:auto;mix-blend-mode:normal;color-interpolation:sRGB;color-interpolation-filters:linearRGB;solid-color:#000000;solid-opacity:1;vector-effect:none;fill:#dcdcdc;fill-opacity:1;fill-rule:evenodd;stroke:none;stroke-width:0.5;stroke-linecap:butt;stroke-linejoin:miter;stroke-miterlimit:4;stroke-dasharray:none;stroke-dashoffset:0;stroke-opacity:1;paint-order:stroke fill markers;color-rendering:auto;image-rendering:auto;shape-rendering:auto;text-rendering:auto;enable-background:accumulate"
     d="m 8,2.75 c -2.8948987,-3e-7 -5.5372083,1.0275305 -7.63085938,2.7070312 -0.0434845,0.027247 -0.0859958,0.058187 -0.12304687,0.09375 -0.14706465,0.140737 -0.23166489,0.3355083 -0.23242187,0.5390626 0,0.4112524 0.33874759,0.7499999 0.75,0.75 C 0.9376975,6.8403389 1.1056362,6.7802327 1.2402344,6.6699219 3.0895215,5.1650657 5.4312704,4.25 8,4.25 c 2.568732,-3e-7 4.910374,0.9150209 6.759766,2.4199219 0.134598,0.1103108 0.302537,0.170417 0.476562,0.1699219 0.411253,0 0.75,-0.3387476 0.75,-0.75 -7.57e-4,-0.2035543 -0.0834,-0.3983256 -0.230469,-0.5390626 -0.03735,-0.036 -0.08108,-0.066229 -0.125,-0.09375 C 13.537202,3.7775282 10.894801,2.75 8,2.75 Z"
     id="path2"
     inkscape:connector-curvature="0"
     sodipodi:nodetypes="scccccscccccs" />
  <path
     style="color:#000000;font-style:normal;font-variant:normal;font-weight:normal;font-stretch:normal;font-size:medium;line-height:normal;font-family:sans-serif;font-variant-ligatures:normal;font-variant-position:normal;font-variant-caps:normal;font-variant-numeric:normal;font-variant-alternates:normal;font-feature-settings:normal;text-indent:0;text-align:start;text-decoration:none;text-decoration-line:none;text-decoration-style:solid;text-decoration-color:#000000;letter-spacing:normal;word-spacing:normal;text-transform:none;writing-mode:lr-tb;direction:ltr;text-orientation:mixed;dominant-baseline:auto;baseline-shift:baseline;text-anchor:start;white-space:normal;shape-padding:0;clip-rule:nonzero;display:inline;overflow:visible;visibility:visible;opacity:1;isolation:auto;mix-blend-mode:normal;color-interpolation:sRGB;color-interpolation-filters:linearRGB;solid-color:#000000;solid-opacity:1;vector-effect:none;fill:#dcdcdc;fill-opacity:1;fill-rule:nonzero;stroke:none;stroke-width:0.5;stroke-linecap:butt;stroke-linejoin:miter;stroke-miterlimit:4;stroke-dasharray:none;stroke-dashoffset:0;stroke-opacity:1;color-rendering:auto;image-rendering:auto;shape-rendering:auto;text-rendering:auto;enable-background:accumulate"
     d="m 8,8.75 c -1.4102832,-2e-7 -2.6948035,0.4904403 -3.7363281,1.275391 l -0.00586,0.0039 -0.00586,0.0059 c -0.1725691,0.148531 -0.2558303,0.362702 -0.2558593,0.574219 0,0.411253 0.3387473,0.75 0.75,0.75 0.186464,-4.89e-4 0.3662434,-0.07149 0.5039062,-0.197266 l -0.019531,0.01758 C 6.0147406,10.604412 6.9588863,10.25 8,10.25 c 1.0411136,0 1.9852008,0.354404 2.769531,0.929688 L 10.75,11.162109 c 0.137666,0.125775 0.317453,0.196771 0.503906,0.197266 0.411253,0 0.75,-0.338747 0.75,-0.75 -2.3e-5,-0.211515 -0.08132,-0.425686 -0.253906,-0.574219 l -0.0078,-0.0059 -0.0059,-0.0039 C 10.694802,9.2404289 9.4102819,8.75 8,8.75 Z"
     id="path4"
     inkscape:connector-curvature="0"
     sodipodi:nodetypes="scccccccscccccccs" />
  <path
     style="color:#000000;font-style:normal;font-variant:normal;font-weight:normal;font-stretch:normal;font-size:medium;line-height:normal;font-family:sans-serif;font-variant-ligatures:normal;font-variant-position:normal;font-variant-caps:normal;font-variant-numeric:normal;font-variant-alternates:normal;font-feature-settings:normal;text-indent:0;text-align:start;text-decoration:none;text-decoration-line:none;text-decoration-style:solid;text-decoration-color:#000000;letter-spacing:normal;word-spacing:normal;text-transform:none;writing-mode:lr-tb;direction:ltr;text-orientation:mixed;dominant-baseline:auto;baseline-shift:baseline;text-anchor:start;white-space:normal;shape-padding:0;clip-rule:nonzero;display:inline;overflow:visible;visibility:visible;opacity:1;isolation:auto;mix-blend-mode:normal;color-interpolation:sRGB;color-interpolation-filters:linearRGB;solid-color:#000000;solid-opacity:1;vector-effect:none;fill:#dcdcdc;fill-opacity:1;fill-rule:evenodd;stroke:none;stroke-width:0.5;stroke-linecap:butt;stroke-linejoin:miter;stroke-miterlimit:4;stroke-dasharray:none;stroke-dashoffset:0;stroke-opacity:1;paint-order:stroke fill markers;color-rendering:auto;image-rendering:auto;shape-rendering:auto;text-rendering:auto;enable-background:accumulate"
     d="m 8,5.75 c -2.1276351,0 -4.073055,0.7376583 -5.6328125,1.9453125 -0.00229,0.00178 -0.00552,0.00213 -0.00781,0.00391 -0.042813,0.026584 -0.084423,0.055183 -0.1210938,0.089844 C 2.08941,7.9300008 2.00463,8.1270295 2.0039062,8.3320312 c 0,0.4112525 0.3387476,0.7500001 0.75,0.75 C 2.9292957,9.0823854 3.0994059,9.0221604 3.234375,8.9101562 4.5510308,7.8763698 6.1973829,7.25 8,7.25 c 1.8026206,-2e-7 3.448973,0.6263341 4.765625,1.6601562 0.134969,0.1120042 0.305079,0.1722292 0.480469,0.171875 0.411252,0 0.75,-0.3387475 0.75,-0.75 -7.24e-4,-0.2050017 -0.0855,-0.4020304 -0.234375,-0.5429687 -0.03667,-0.03466 -0.07828,-0.06326 -0.121094,-0.089844 l -0.0078,-0.00391 C 12.073058,6.4877017 10.127638,5.75 8,5.75 Z"
     id="path6"
     inkscape:connector-curvature="0"
     sodipodi:nodetypes="sccccccsccccccs" />
  <path
     style="color:#000000;font-style:normal;font-variant:normal;font-weight:normal;font-stretch:normal;font-size:medium;line-height:normal;font-family:sans-serif;font-variant-ligatures:normal;font-variant-position:normal;font-variant-caps:normal;font-variant-numeric:normal;font-variant-alternates:normal;font-feature-settings:normal;text-indent:0;text-align:start;text-decoration:none;text-decoration-line:none;text-decoration-style:solid;text-decoration-color:#000000;letter-spacing:normal;word-spacing:normal;text-transform:none;writing-mode:lr-tb;direction:ltr;text-orientation:mixed;dominant-baseline:auto;baseline-shift:baseline;text-anchor:start;white-space:normal;shape-padding:0;clip-rule:nonzero;display:inline;overflow:visible;visibility:visible;opacity:1;isolation:auto;mix-blend-mode:normal;color-interpolation:sRGB;color-interpolation-filters:linearRGB;solid-color:#000000;solid-opacity:1;vector-effect:none;fill:#dcdcdc;fill-opacity:1;fill-rule:evenodd;stroke:none;stroke-width:0.5;stroke-linecap:butt;stroke-linejoin:miter;stroke-miterlimit:4;stroke-dasharray:none;stroke-dashoffset:0;stroke-opacity:1;paint-order:stroke fill markers;color-rendering:auto;image-rendering:auto;shape-rendering:auto;text-rendering:auto;enable-background:accumulate"
     d="m 8,11.75 c -0.6873948,0 -1.25,0.562605 -1.25,1.25 0,0.687395 0.5626052,1.25 1.25,1.25 0.6873948,0 1.25,-0.562605 1.25,-1.25 0,-0.687395 -0.5626052,-1.25 -1.25,-1.25 z"
     id="circle8"
     inkscape:connector-curvature="0"
     sodipodi:nodetypes="sssss" />
</svg>
