<svg xmlns="http://www.w3.org/2000/svg" width="16" height="16">
	<g fill="#dcdcdc">
    <path  d="M8 1.016c-.456 0-.93.277-1.116.776L5.529 5.38l-3.372.05a.378.378 0 0 0-.017.002c-1.069.065-1.512 1.48-.692 2.17v.001l2.758 2.463-.942 3.362a.378.378 0 0 0 0 .003 1.24 1.24 0 0 0 .427 1.294c.359.282.9.357 1.353.08a.378.378 0 0 0 .037-.026L8 12.482l2.92 2.297a.378.378 0 0 0 .037.026c.452.276.994.202 1.353-.08.359-.281.563-.782.426-1.295a.378.378 0 0 0 0-.004l-.941-3.362 2.76-2.463V7.6c.819-.69.373-2.106-.696-2.168a.378.378 0 0 0-.017-.002l-3.37-.05-1.356-3.588c-.186-.5-.66-.776-1.116-.776zm0 .756c.176 0 .334.077.41.283a.378.378 0 0 0 0 .002l1.444 3.83a.378.378 0 0 0 .349.244l3.612.055c.433.025.596.55.253.837a.378.378 0 0 0-.007.007l-2.944 2.628a.378.378 0 0 0-.111.384l1.002 3.583a.461.461 0 0 1-.164.505.399.399 0 0 1-.487.03l-3.122-2.456a.378.378 0 0 0-.469 0l-3.121 2.457a.398.398 0 0 1-.487-.03.459.459 0 0 1-.165-.5v-.002-.002l1.003-3.585a.378.378 0 0 0-.111-.382L1.943 7.032a.378.378 0 0 0-.01-.007c-.344-.288-.178-.813.253-.84L5.8 6.132a.378.378 0 0 0 .347-.244l1.445-3.83a.378.378 0 0 0 0-.002.408.408 0 0 1 .41-.283z" />
</g>
</svg>
