<?xml version="1.0" encoding="UTF-8" standalone="no"?>
<svg
   xmlns:dc="http://purl.org/dc/elements/1.1/"
   xmlns:cc="http://creativecommons.org/ns#"
   xmlns:rdf="http://www.w3.org/1999/02/22-rdf-syntax-ns#"
   xmlns:svg="http://www.w3.org/2000/svg"
   xmlns="http://www.w3.org/2000/svg"
   xmlns:sodipodi="http://sodipodi.sourceforge.net/DTD/sodipodi-0.dtd"
   xmlns:inkscape="http://www.inkscape.org/namespaces/inkscape"
   width="16"
   height="16"
   version="1.1"
   id="svg12"
   sodipodi:docname="stopwatch-symbolic.svg"
   inkscape:version="0.92.4 5da689c313, 2019-01-14">
  <metadata
     id="metadata18">
    <rdf:RDF>
      <cc:Work
         rdf:about="">
        <dc:format>image/svg+xml</dc:format>
        <dc:type
           rdf:resource="http://purl.org/dc/dcmitype/StillImage" />
      </cc:Work>
    </rdf:RDF>
  </metadata>
  <defs
     id="defs16" />
  <sodipodi:namedview
     pagecolor="#ffffff"
     bordercolor="#666666"
     borderopacity="1"
     objecttolerance="10"
     gridtolerance="10"
     guidetolerance="10"
     inkscape:pageopacity="0"
     inkscape:pageshadow="2"
     inkscape:window-width="1366"
     inkscape:window-height="704"
     id="namedview14"
     showgrid="true"
     inkscape:zoom="41.7193"
     inkscape:cx="5.7445547"
     inkscape:cy="7.5520292"
     inkscape:window-x="0"
     inkscape:window-y="27"
     inkscape:window-maximized="1"
     inkscape:current-layer="svg12"
     showguides="true"
     inkscape:guide-bbox="true">
    <inkscape:grid
       type="xygrid"
       id="grid828" />
    <sodipodi:guide
       position="8,4"
       orientation="1,0"
       id="guide840"
       inkscape:locked="false" />
    <sodipodi:guide
       position="18,7"
       orientation="0,1"
       id="guide842"
       inkscape:locked="false" />
  </sodipodi:namedview>
  <g
     id="g10"
     style="fill:#dcdcdc">
    <path
       d="m 12.436,12.706 c 0,0.003 0.01,0.006 0.01,0.01 0,0.005 0.01,0.01 0.01,0.015 z m -8.879,0.002 -0.02,0.026 c 0,-0.005 0.01,-0.01 0.01,-0.015 0,-0.003 0.01,-0.006 0.01,-0.01 z"
       font-size="15"
       font-weight="400"
       letter-spacing="0"
       word-spacing="0"
       id="path2"
       inkscape:connector-curvature="0"
       style="font-weight:400;font-size:15px;font-family:Ubuntu;letter-spacing:0;word-spacing:0;text-anchor:middle" />
  </g>
  <path
     style="color:#000000;font-style:normal;font-variant:normal;font-weight:normal;font-stretch:normal;font-size:medium;line-height:normal;font-family:sans-serif;font-variant-ligatures:normal;font-variant-position:normal;font-variant-caps:normal;font-variant-numeric:normal;font-variant-alternates:normal;font-feature-settings:normal;text-indent:0;text-align:start;text-decoration:none;text-decoration-line:none;text-decoration-style:solid;text-decoration-color:#000000;letter-spacing:normal;word-spacing:normal;text-transform:none;writing-mode:lr-tb;direction:ltr;text-orientation:mixed;dominant-baseline:auto;baseline-shift:baseline;text-anchor:start;white-space:normal;shape-padding:0;clip-rule:nonzero;display:inline;overflow:visible;visibility:visible;opacity:1;isolation:auto;mix-blend-mode:normal;color-interpolation:sRGB;color-interpolation-filters:linearRGB;solid-color:#000000;solid-opacity:1;vector-effect:none;fill:#ff0404;fill-opacity:1;fill-rule:nonzero;stroke:none;stroke-width:1.20000005;stroke-linecap:round;stroke-linejoin:round;stroke-miterlimit:4;stroke-dasharray:none;stroke-dashoffset:0;stroke-opacity:1;color-rendering:auto;image-rendering:auto;shape-rendering:auto;text-rendering:auto;enable-background:accumulate"
     d="M 8,1.9003906 C 4.085885,1.9003906 0.90039062,5.085885 0.90039062,9 0.90039063,12.914115 4.085885,16.099609 8,16.099609 11.914115,16.099609 15.099609,12.914115 15.099609,9 15.099609,5.085885 11.914115,1.9003906 8,1.9003906 Z m 0,1.1992188 c 3.265587,0 5.900391,2.6348038 5.900391,5.9003906 0,3.265587 -2.634804,5.900391 -5.900391,5.900391 C 4.7344132,14.900391 2.0996094,12.265587 2.0996094,9 2.0996094,5.7344132 4.7344132,3.0996094 8,3.0996094 Z"
     id="path830"
     inkscape:connector-curvature="0" />
  <path
     style="opacity:1;fill:#ff0000;fill-opacity:1;stroke:none;stroke-width:1;stroke-linecap:round;stroke-linejoin:round;stroke-miterlimit:4;stroke-dasharray:none;stroke-opacity:1"
     d="m 5.5,0 h 5 C 10.777,0 11,0.223 11,0.5 11,0.777 10.777,1 10.5,1 h -5 C 5.223,1 5,0.777 5,0.5 5,0.223 5.223,0 5.5,0 Z"
     id="rect834" />
  <path
     transform="rotate(-45)"
     style="opacity:1;fill:#ff0000;fill-opacity:1;stroke:none;stroke-width:1;stroke-linecap:round;stroke-linejoin:round;stroke-miterlimit:4;stroke-dasharray:none;stroke-opacity:1"
     d="m 6.144062,11.099198 h 1.6267097 c 0.277,0 0.5,0.223001 0.5,0.500001 v 0.751138 c 0,0.277001 -0.223,0.500001 -0.5,0.500001 H 6.144062 c -0.277,0 -0.5,-0.223 -0.5,-0.500001 v -0.751138 c 0,-0.277 0.223,-0.500001 0.5,-0.500001 z"
     id="rect836" />
  <ellipse
     style="opacity:1;fill:#ff0000;fill-opacity:1;stroke:none;stroke-width:0.99999994;stroke-linecap:round;stroke-linejoin:round;stroke-miterlimit:4;stroke-dasharray:none;stroke-opacity:1"
     id="path838"
     cx="8"
     cy="8.8000002"
     rx="1"
     ry="1.2" />
  <path
     style="opacity:1;fill:#ff0000;fill-opacity:1;stroke:none;stroke-width:1;stroke-linecap:round;stroke-linejoin:round;stroke-miterlimit:4;stroke-dasharray:none;stroke-opacity:1"
     d="M 7,1 H 9 V 2.5762712 H 7 Z"
     id="rect860" />
  <path
     style="fill:#ff0000;fill-opacity:1;stroke:none;stroke-width:1px;stroke-linecap:butt;stroke-linejoin:miter;stroke-opacity:1"
     d="M 8,4 C 8,4 6.5087012,8.0189231 7,8.8 7.4912988,9.581077 8.5087012,9.581077 9,8.8 9.4912987,8.0189231 8,4 8,4"
     id="path862"
     inkscape:connector-curvature="0"
     sodipodi:nodetypes="czzc" />
</svg>
