<svg xmlns="http://www.w3.org/2000/svg" width="16" height="16">
	<g fill="#dcdcdc">
    <path d="M1.5 0h13a.499.499 0 1 1 0 1h-13a.499.499 0 1 1 0-1zM1.5 15h13a.499.499 0 1 1 0 1h-13a.499.499 0 1 1 0-1z"/>
    <path d="M12.5 1c0 4.866-1.816 4.794-2.934 6.752l-.105.184.059.2c.377 1.322 1.226 1.91 1.84 2.677.613.766 1.14 1.765 1.14 4.187h1c0-2.578-.64-3.913-1.36-4.813-.66-.826-1.232-1.281-1.55-2.128.917-1.364 2.91-2.14 2.91-7.059zm-10 0c0 4.918 1.993 5.695 2.91 7.059-.318.847-.89 1.302-1.55 2.129-.72.9-1.36 2.234-1.36 4.812h1c0-2.422.527-3.42 1.14-4.188.614-.766 1.463-1.354 1.84-2.675l.06-.201-.106-.184C5.316 5.794 3.5 5.866 3.5 1z" />
</g>
</svg>
