<?xml version="1.0" encoding="UTF-8" standalone="no"?>
<svg
   xmlns:dc="http://purl.org/dc/elements/1.1/"
   xmlns:cc="http://creativecommons.org/ns#"
   xmlns:rdf="http://www.w3.org/1999/02/22-rdf-syntax-ns#"
   xmlns:svg="http://www.w3.org/2000/svg"
   xmlns="http://www.w3.org/2000/svg"
   xmlns:sodipodi="http://sodipodi.sourceforge.net/DTD/sodipodi-0.dtd"
   xmlns:inkscape="http://www.inkscape.org/namespaces/inkscape"
   height="16"
   width="16"
   version="1.1"
   id="svg4"
   sodipodi:docname="x-office-calendar-symbolic.svg"
   inkscape:version="0.92.4 5da689c313, 2019-01-14">
  <metadata
     id="metadata10">
    <rdf:RDF>
      <cc:Work
         rdf:about="">
        <dc:format>image/svg+xml</dc:format>
        <dc:type
           rdf:resource="http://purl.org/dc/dcmitype/StillImage" />
      </cc:Work>
    </rdf:RDF>
  </metadata>
  <defs
     id="defs8" />
  <sodipodi:namedview
     pagecolor="#ffffff"
     bordercolor="#666666"
     borderopacity="1"
     objecttolerance="10"
     gridtolerance="10"
     guidetolerance="10"
     inkscape:pageopacity="0"
     inkscape:pageshadow="2"
     inkscape:window-width="1366"
     inkscape:window-height="704"
     id="namedview6"
     showgrid="true"
     inkscape:zoom="29.5"
     inkscape:cx="6.3061596"
     inkscape:cy="9.1538752"
     inkscape:window-x="0"
     inkscape:window-y="27"
     inkscape:window-maximized="1"
     inkscape:current-layer="svg4">
    <inkscape:grid
       type="xygrid"
       id="grid817" />
  </sodipodi:namedview>
  <path
     d="M 6,0 H 4 V 1 H 6 Z M 6,1 V 1 H 5 V 1 C 3.742,1.015 2.821,0.97 2.068,1.385 1.692,1.592 1.393,1.945 1.228,2.383 1.064,2.821 1.006,3.343 1.006,4 v 8 c 0,0.658 0.058603,1.178773 0.223,1.617 0.1646029,0.438774 0.463,0.789 0.84,0.996 C 2.821,15.029 3.742,14.985 5,15 H 8.004 V 14 H 2 V 4 H 14 V 14 H 8.006 v 1 h 3 c 1.258,-0.015 2.179,0.029 2.931,-0.387 0.390347,-0.220565 0.688455,-0.574036 0.84,-0.996 C 14.942,13.179 15,12.657 15,12 V 4 C 15,3.342 14.94,2.821 14.775,2.383 14.623837,1.9612236 14.327009,1.6073004 13.938,1.385 13.185,0.969 12.264,1.015 11.006,1 v 0 h -1 V 1 H 12 V 0 h -2 v 1 z"
     font-weight="400"
     overflow="visible"
     style="color:#000000;font-weight:400;line-height:normal;font-family:sans-serif;text-indent:0;text-align:start;text-decoration:none;text-decoration-line:none;text-decoration-style:solid;text-decoration-color:#000000;text-transform:none;white-space:normal;overflow:visible;isolation:auto;mix-blend-mode:normal;fill:#dcdcdc;marker:none"
     id="path2"
     inkscape:connector-curvature="0"
     sodipodi:nodetypes="cccccccccccssscccccccccccccssccccccccccc" />
  <rect
     style="opacity:1;fill:#dcdcdc;fill-opacity:1;stroke:none;stroke-width:0.5;stroke-linecap:square;stroke-linejoin:round;stroke-miterlimit:4;stroke-dasharray:none;stroke-opacity:1"
     id="rect819"
     width="3"
     height="3"
     x="9"
     y="9"
     ry="0"
     rx="0" />
</svg>
