<svg xmlns="http://www.w3.org/2000/svg" height="16" width="16">
    <g fill="#dcdcdc">
        <path d="M4 4v1h8V4zm0 2v1h8V6zm0 2v1h8V8zm0 2v1h3v-1z"/>
        <path d="M5.666 0c-1.47.015-2.545-.03-3.425.385a1.99 1.99 0 0 0-.979.998C1.07 1.82 1 2.343 1 3v10c0 .658.07 1.179.262 1.617.193.439.54.789.98.996.879.415 1.955.372 3.424.387H8.01c4.673 0 7.01-2 6.99-4.983l-.08-8c-.006-.658.03-1.196-.163-1.634a1.985 1.985 0 0 0-.979-.996c-.88-.415-1.955-.372-3.425-.387H5.671zm.007 1h4.674c1.47.015 2.44.06 2.868.262.214.1.335.213.45.472.113.26.313.674.335 1.266v5H2V3c0-.592.241-1.006.355-1.266.114-.26.236-.371.45-.472.428-.202 1.398-.247 2.868-.262zM2 8h12v4h-3.654v3H5.68c-1.47-.015-2.448-.06-2.875-.262-.215-.1-.336-.213-.45-.472C2.241 14.006 2 13.592 2 13z"/>
    </g>
</svg>
