<?xml version="1.0" encoding="UTF-8" standalone="no"?>
<!-- Created with Inkscape (http://www.inkscape.org/) -->

<svg
   xmlns:dc="http://purl.org/dc/elements/1.1/"
   xmlns:cc="http://creativecommons.org/ns#"
   xmlns:rdf="http://www.w3.org/1999/02/22-rdf-syntax-ns#"
   xmlns:svg="http://www.w3.org/2000/svg"
   xmlns="http://www.w3.org/2000/svg"
   xmlns:xlink="http://www.w3.org/1999/xlink"
   xmlns:sodipodi="http://sodipodi.sourceforge.net/DTD/sodipodi-0.dtd"
   xmlns:inkscape="http://www.inkscape.org/namespaces/inkscape"
   version="1.1"
   width="32"
   height="32"
   id="svg2679"
   inkscape:version="0.48.1 r9760"
   sodipodi:docname="audio-input-microphone.svg">
  <metadata
     id="metadata51">
    <rdf:RDF>
      <cc:Work
         rdf:about="">
        <dc:format>image/svg+xml</dc:format>
        <dc:type
           rdf:resource="http://purl.org/dc/dcmitype/StillImage" />
        <dc:title></dc:title>
      </cc:Work>
    </rdf:RDF>
  </metadata>
  <sodipodi:namedview
     pagecolor="#ffffff"
     bordercolor="#666666"
     borderopacity="1"
     objecttolerance="10"
     gridtolerance="10"
     guidetolerance="10"
     inkscape:pageopacity="0"
     inkscape:pageshadow="2"
     inkscape:window-width="1366"
     inkscape:window-height="720"
     id="namedview49"
     showgrid="false"
     inkscape:zoom="6.875"
     inkscape:cx="24"
     inkscape:cy="37.6"
     inkscape:window-x="0"
     inkscape:window-y="25"
     inkscape:window-maximized="1"
     inkscape:current-layer="svg2679" />
  <defs
     id="defs2681">
    <linearGradient
       inkscape:collect="always"
       id="linearGradient3870">
      <stop
         style="stop-color:#00ffff;stop-opacity:1;"
         offset="0"
         id="stop3872" />
      <stop
         style="stop-color:#00ffff;stop-opacity:0;"
         offset="1"
         id="stop3874" />
    </linearGradient>
    <linearGradient
       inkscape:collect="always"
       id="linearGradient3804">
      <stop
         style="stop-color:#00ffff;stop-opacity:1;"
         offset="0"
         id="stop3806" />
      <stop
         style="stop-color:#00ffff;stop-opacity:0;"
         offset="1"
         id="stop3808" />
    </linearGradient>
    <linearGradient
       inkscape:collect="always"
       id="linearGradient3796">
      <stop
         style="stop-color:#000000;stop-opacity:1;"
         offset="0"
         id="stop3798" />
      <stop
         style="stop-color:#000000;stop-opacity:0;"
         offset="1"
         id="stop3800" />
    </linearGradient>
    <linearGradient
       id="linearGradient3787">
      <stop
         id="stop3789"
         style="stop-color:#3c3c3c;stop-opacity:1"
         offset="0" />
      <stop
         id="stop3791"
         style="stop-color:#1e1e1e;stop-opacity:1"
         offset="1" />
    </linearGradient>
    <linearGradient
       id="linearGradient3449">
      <stop
         id="stop3451"
         style="stop-color:white;stop-opacity:1"
         offset="0" />
      <stop
         id="stop3453"
         style="stop-color:#9b9b9b;stop-opacity:0"
         offset="1" />
    </linearGradient>
    <linearGradient
       id="linearGradient3179">
      <stop
         id="stop3181"
         style="stop-color:white;stop-opacity:1"
         offset="0" />
      <stop
         id="stop3183"
         style="stop-color:white;stop-opacity:0"
         offset="1" />
    </linearGradient>
    <linearGradient
       id="linearGradient3165">
      <stop
         id="stop3167"
         style="stop-color:#1e1e1e;stop-opacity:1"
         offset="0" />
      <stop
         id="stop3173"
         style="stop-color:#8d8d8d;stop-opacity:1"
         offset="0.26635548" />
      <stop
         id="stop3169"
         style="stop-color:#eee;stop-opacity:1"
         offset="1" />
    </linearGradient>
    <linearGradient
       id="linearGradient3685">
      <stop
         id="stop3687"
         style="stop-color:white;stop-opacity:0"
         offset="0" />
      <stop
         id="stop3689"
         style="stop-color:black;stop-opacity:0.49803922"
         offset="0.77083331" />
      <stop
         id="stop3691"
         style="stop-color:black;stop-opacity:1"
         offset="1" />
    </linearGradient>
    <linearGradient
       id="linearGradient3155">
      <stop
         id="stop3157"
         style="stop-color:white;stop-opacity:1"
         offset="0" />
      <stop
         id="stop3159"
         style="stop-color:#9b9b9b;stop-opacity:1"
         offset="1" />
    </linearGradient>
    <linearGradient
       id="linearGradient3324">
      <stop
         id="stop3830"
         style="stop-color:white;stop-opacity:0.74901962"
         offset="0" />
      <stop
         id="stop3328"
         style="stop-color:white;stop-opacity:0"
         offset="1" />
    </linearGradient>
    <linearGradient
       id="linearGradient6672">
      <stop
         id="stop6674"
         style="stop-color:black;stop-opacity:1"
         offset="0" />
      <stop
         id="stop6676"
         style="stop-color:black;stop-opacity:0"
         offset="1" />
    </linearGradient>
    <radialGradient
       cx="25"
       cy="45"
       r="20"
       fx="25"
       fy="45"
       id="radialGradient4192"
       xlink:href="#linearGradient6672"
       gradientUnits="userSpaceOnUse"
       gradientTransform="matrix(0.5,0,0,0.125,-5.0090909,37.584091)" />
    <linearGradient
       x1="26.545988"
       y1="25.604839"
       x2="28.415308"
       y2="23.37669"
       id="linearGradient4195"
       xlink:href="#linearGradient3165"
       gradientUnits="userSpaceOnUse"
       gradientTransform="matrix(1.072612,0,0,1.0995023,9.655182,-0.20142758)" />
    <linearGradient
       x1="17.676191"
       y1="28.647619"
       x2="14.221087"
       y2="25.907072"
       id="linearGradient4285"
       xlink:href="#linearGradient3324"
       gradientUnits="userSpaceOnUse"
       gradientTransform="matrix(1.072612,0,0,1.0995023,7.8850296,6.8970696)" />
    <radialGradient
       cx="22.679699"
       cy="15.930861"
       r="17.406969"
       fx="22.679699"
       fy="15.930861"
       id="radialGradient4288"
       xlink:href="#linearGradient3787"
       gradientUnits="userSpaceOnUse"
       gradientTransform="matrix(-0.62443003,1.4940127,-0.56277703,-0.25923989,46.027144,-12.423771)" />
    <radialGradient
       cx="37.97171"
       cy="11.217601"
       r="10.024096"
       fx="37.97171"
       fy="11.217601"
       id="radialGradient4463"
       xlink:href="#linearGradient3449"
       gradientUnits="userSpaceOnUse"
       gradientTransform="matrix(1.0811859,0.02060411,-0.01947479,1.1082912,20.323991,-11.837561)" />
    <linearGradient
       x1="34.204147"
       y1="17.333593"
       x2="39.000122"
       y2="23.11928"
       id="linearGradient4466"
       xlink:href="#linearGradient3179"
       gradientUnits="userSpaceOnUse"
       gradientTransform="matrix(0.97776813,0.01863328,-0.01761198,1.0022808,0.90135955,-4.7166802)"
       spreadMethod="reflect" />
    <linearGradient
       x1="32.302921"
       y1="18.646013"
       x2="34.589996"
       y2="16.08078"
       id="linearGradient4469"
       xlink:href="#linearGradient3165"
       gradientUnits="userSpaceOnUse"
       gradientTransform="matrix(0.97776813,0.01863328,-0.01761198,1.0022808,5.2649956,6.0469562)" />
    <radialGradient
       cx="31.00248"
       cy="20.938292"
       r="0.91428572"
       fx="31.00248"
       fy="20.938292"
       id="radialGradient4472"
       xlink:href="#linearGradient3685"
       gradientUnits="userSpaceOnUse"
       gradientTransform="matrix(17.956855,0.34220292,-0.32859921,18.700259,-508.49877,-395.44727)" />
    <radialGradient
       cx="37.97171"
       cy="11.217601"
       r="10.024096"
       fx="37.97171"
       fy="11.217601"
       id="radialGradient4718"
       xlink:href="#linearGradient3155"
       gradientUnits="userSpaceOnUse"
       gradientTransform="matrix(1.0811859,0.02060411,-0.01947479,1.1082912,0.25126371,-12.564834)" />
    <radialGradient
       inkscape:collect="always"
       xlink:href="#linearGradient3796"
       id="radialGradient3802"
       cx="59.643532"
       cy="-0.58868873"
       fx="59.643532"
       fy="-0.58868873"
       r="9.8028955"
       gradientTransform="matrix(1.2078872,-0.82701579,0.80821131,1.1804226,-36.351571,54.353998)"
       gradientUnits="userSpaceOnUse" />
    <linearGradient
       inkscape:collect="always"
       xlink:href="#linearGradient3804"
       id="linearGradient3810"
       x1="36.355644"
       y1="25.223963"
       x2="39.575901"
       y2="22.169416"
       gradientUnits="userSpaceOnUse"
       gradientTransform="translate(22.836363,-5.2363636)" />
    <linearGradient
       inkscape:collect="always"
       xlink:href="#linearGradient3804-0"
       id="linearGradient3810-2"
       x1="35.337463"
       y1="26.096689"
       x2="38.703175"
       y2="22.751234"
       gradientUnits="userSpaceOnUse" />
    <linearGradient
       inkscape:collect="always"
       id="linearGradient3804-0">
      <stop
         style="stop-color:#00ffff;stop-opacity:1;"
         offset="0"
         id="stop3806-6" />
      <stop
         style="stop-color:#00ffff;stop-opacity:0;"
         offset="1"
         id="stop3808-1" />
    </linearGradient>
    <linearGradient
       inkscape:collect="always"
       xlink:href="#linearGradient3804"
       id="linearGradient3850"
       gradientUnits="userSpaceOnUse"
       gradientTransform="translate(22.836363,-5.2363636)"
       x1="36.355644"
       y1="25.223963"
       x2="39.575901"
       y2="22.169416" />
    <linearGradient
       inkscape:collect="always"
       xlink:href="#linearGradient3870"
       id="linearGradient3876"
       x1="17.498646"
       y1="47.487614"
       x2="29.605276"
       y2="47.487614"
       gradientUnits="userSpaceOnUse" />
    <linearGradient
       inkscape:collect="always"
       xlink:href="#linearGradient3870"
       id="linearGradient3882"
       gradientUnits="userSpaceOnUse"
       x1="17.498646"
       y1="47.487614"
       x2="29.605276"
       y2="47.487614" />
    <radialGradient
       inkscape:collect="always"
       xlink:href="#linearGradient6672"
       id="radialGradient3900"
       gradientUnits="userSpaceOnUse"
       gradientTransform="matrix(0.5,0,0,0.125,-5.0090909,37.584091)"
       cx="25"
       cy="45"
       fx="25"
       fy="45"
       r="20" />
    <radialGradient
       inkscape:collect="always"
       xlink:href="#linearGradient3787"
       id="radialGradient3902"
       gradientUnits="userSpaceOnUse"
       gradientTransform="matrix(-0.62443003,1.4940127,-0.56277703,-0.25923989,46.027144,-12.423771)"
       cx="22.679699"
       cy="15.930861"
       fx="22.679699"
       fy="15.930861"
       r="17.406969" />
    <radialGradient
       inkscape:collect="always"
       xlink:href="#linearGradient3685"
       id="radialGradient3904"
       gradientUnits="userSpaceOnUse"
       gradientTransform="matrix(17.956855,0.34220292,-0.32859921,18.700259,-508.49877,-395.44727)"
       cx="31.00248"
       cy="20.938292"
       fx="31.00248"
       fy="20.938292"
       r="0.91428572" />
    <radialGradient
       inkscape:collect="always"
       xlink:href="#linearGradient3796"
       id="radialGradient3906"
       gradientUnits="userSpaceOnUse"
       gradientTransform="matrix(1.2078872,-0.82701579,0.80821131,1.1804226,-36.351571,54.353998)"
       cx="59.643532"
       cy="-0.58868873"
       fx="59.643532"
       fy="-0.58868873"
       r="9.8028955" />
    <linearGradient
       inkscape:collect="always"
       xlink:href="#linearGradient3804"
       id="linearGradient3908"
       gradientUnits="userSpaceOnUse"
       gradientTransform="translate(22.836363,-5.2363636)"
       x1="36.355644"
       y1="25.223963"
       x2="39.575901"
       y2="22.169416" />
    <linearGradient
       inkscape:collect="always"
       xlink:href="#linearGradient3870"
       id="linearGradient3910"
       gradientUnits="userSpaceOnUse"
       x1="17.498646"
       y1="47.487614"
       x2="29.605276"
       y2="47.487614" />
    <linearGradient
       inkscape:collect="always"
       xlink:href="#linearGradient3179"
       id="linearGradient3912"
       gradientUnits="userSpaceOnUse"
       gradientTransform="matrix(0.97776813,0.01863328,-0.01761198,1.0022808,0.90135955,-4.7166802)"
       spreadMethod="reflect"
       x1="34.204147"
       y1="17.333593"
       x2="39.000122"
       y2="23.11928" />
  </defs>
  <g
     id="g3884"
     transform="matrix(0.69019595,0,0,0.75182184,1.5499462,-2.0378814)">
    <path
       inkscape:connector-curvature="0"
       style="opacity:0.4;fill:url(#radialGradient3900);fill-opacity:1;stroke:none"
       id="path3412"
       d="m 17.490909,43.209091 a 10,2.5 0 0 1 -19.9999999,0 10,2.5 0 1 1 19.9999999,0 z" />
    <path
       style="fill:url(#radialGradient3902);fill-opacity:1;fill-rule:evenodd;stroke:none"
       id="path3320"
       d="M 23.204861,15.428625 4,39.135987 C 4.9806737,44.748684 10.537825,45 10.537825,45 L 33.011598,24.140871 23.204861,15.428625 z"
       inkscape:connector-curvature="0" />
    <path
       inkscape:connector-curvature="0"
       style="opacity:0.23999999;fill:#00ffff;fill-opacity:1;fill-rule:evenodd;stroke:none"
       id="path3322"
       d="M 25.898408,19.305947 C 7.0178837,41.347308 6.1924347,41.792024 6.1924347,41.792024 c 0,0 -1.121366,-1.17857 -1.203089,-2.435142 L 23.622147,16.403461 c 0,0 0.646513,1.358968 2.276261,2.902486 z" />
    <path
       inkscape:connector-curvature="0"
       style="fill:#00ffff;fill-opacity:1;stroke:none"
       id="path2383"
       d="M 43.8529,13.537918 A 10.048728,9.8027976 89.331447 1 1 24.250418,13.164355 10.048728,9.8027976 89.331447 1 1 43.8529,13.537918 z" />
    <path
       inkscape:connector-curvature="0"
       style="opacity:0.1;fill:#000000;fill-opacity:1;stroke:none"
       id="path2561"
       d="m 33.010796,3.1875 c -1.489946,0.2055938 -0.07627,2.6908667 0.7748,1.3206152 0.339831,-0.5379338 -0.07689,-1.4517615 -0.7748,-1.3206152 z m 1.6875,0.03125 c -1.489946,0.2055938 -0.07627,2.6908667 0.7748,1.3206152 0.339831,-0.5379338 -0.07689,-1.4517615 -0.7748,-1.3206152 z m -3.3125,0.71875 C 29.948875,4.1668519 31.318476,6.5486211 32.165008,5.3044053 32.566464,4.7648723 32.112648,3.7730485 31.385796,3.9375 z m 5.03125,0.09375 c -1.489946,0.2055938 -0.07627,2.6908667 0.7748,1.3206152 0.339831,-0.5379338 -0.07689,-1.4517615 -0.7748,-1.3206152 z m 1.6875,0.03125 c -1.489946,0.2055938 -0.07627,2.6908667 0.7748,1.3206152 0.339831,-0.5379338 -0.07689,-1.4517615 -0.7748,-1.3206152 z m -8.46875,0.625 c -1.489946,0.2055938 -0.07627,2.6908667 0.7748,1.3206152 0.339831,-0.5379338 -0.07689,-1.4517615 -0.7748,-1.3206152 z m 4.9375,0.1875 C 33.136375,5.1043519 34.505976,7.4861211 35.352508,6.2419053 35.753964,5.7023723 35.300148,4.7105485 34.573296,4.875 z m -1.59375,0.0625 c -1.489946,0.2055938 -0.07627,2.6908667 0.7748,1.3206152 0.339831,-0.5379338 -0.07689,-1.4517615 -0.7748,-1.3206152 z m -5.09375,0.6875 c -1.489946,0.2055938 -0.07627,2.6908667 0.7748,1.3206152 C 29.000427,6.4076814 28.583706,5.4938537 27.885796,5.625 z m 3.46875,0.0625 C 29.917625,5.9168519 31.287226,8.2986211 32.133758,7.0544053 32.535214,6.5148723 32.081398,5.5230485 31.354546,5.6875 z m 6.5625,0.125 c -1.489946,0.2055938 -0.07627,2.6908667 0.7748,1.3206152 0.339831,-0.5379338 -0.07689,-1.4517615 -0.7748,-1.3206152 z m 1.6875,0.03125 c -1.489946,0.2055938 -0.07627,2.6908667 0.7748,1.3206152 0.339831,-0.5379338 -0.07689,-1.4517615 -0.7748,-1.3206152 z M 36.323296,5.875 c -1.489946,0.2055938 -0.07627,2.6908667 0.7748,1.3206152 C 37.437927,6.6576814 37.021206,5.7438537 36.323296,5.875 z m -3.3125,0.71875 c -1.436921,0.2293519 -0.06732,2.6111211 0.779212,1.3669053 0.401456,-0.539533 -0.05236,-1.5313568 -0.779212,-1.3669053 z m -3.5,0.03125 c -1.379942,0.3230455 0.06548,2.5795168 0.852032,1.3349948 C 30.766643,7.3963127 30.246709,6.3937681 29.510796,6.625 z m 5.1875,0 c -1.489946,0.2055938 -0.07627,2.6908667 0.7748,1.3206152 C 35.812927,7.4076814 35.396206,6.4938537 34.698296,6.625 z m -8.46875,0.71875 C 24.80176,7.6877703 26.371829,9.9803546 27.111516,8.6442447 27.464903,8.0743559 26.945738,7.1183023 26.229546,7.34375 z m 1.6875,0.03125 c -1.427786,0.3440204 0.142283,2.636605 0.88197,1.3004947 C 29.152403,8.1056059 28.633238,7.1495523 27.917046,7.375 z m 3.1875,0.0625 c -1.427786,0.3440204 0.142283,2.636605 0.88197,1.3004947 C 32.339903,8.1681059 31.820738,7.2120523 31.104546,7.4375 z m 5.25,0.09375 c -1.489946,0.2055938 -0.07627,2.690867 0.7748,1.3206152 0.339831,-0.5379338 -0.07689,-1.4517615 -0.7748,-1.3206152 z m 1.6875,0.03125 c -1.489946,0.2055938 -0.07627,2.690867 0.7748,1.3206152 0.339831,-0.5379338 -0.07689,-1.4517615 -0.7748,-1.3206152 z m 1.5,0.125 c -1.427786,0.3440204 0.142283,2.636605 0.88197,1.3004947 C 40.777403,8.4181059 40.258238,7.4620523 39.542046,7.6875 z m 1.6875,0.03125 c -1.427786,0.3440204 0.142283,2.636605 0.88197,1.3004947 C 42.464903,8.4493559 41.945738,7.4933023 41.229546,7.71875 z m -8.46875,0.625 c -1.379943,0.3230447 0.06548,2.579516 0.852031,1.3349933 C 34.016643,9.1150618 33.496708,8.1125183 32.760796,8.34375 z m 1.90625,0.09375 c -1.45438,0.060522 -0.341319,2.581133 0.626679,1.4356417 C 35.750063,9.3797043 35.398062,8.3633749 34.667046,8.4375 z m -8.46875,0.71875 c -1.436921,0.2293525 -0.06732,2.611122 0.779213,1.366905 0.401457,-0.5395333 -0.05237,-1.5313567 -0.779213,-1.366905 z m 1.6875,0.03125 c -1.489947,0.2055956 -0.07627,2.690868 0.774803,1.320615 C 29.00043,9.9701799 28.583709,9.0563541 27.885796,9.1875 z m 9.21875,0.1875 c -1.489947,0.2055956 -0.07627,2.690868 0.774803,1.320615 C 38.21918,10.15768 37.802459,9.2438541 37.104546,9.375 z m 4.9375,0 c -1.489947,0.2055956 -0.07627,2.690868 0.774803,1.320615 C 43.15668,10.15768 42.739959,9.2438541 42.042046,9.375 z m -3.28125,0.03125 c -1.489947,0.2055956 -0.07627,2.690868 0.774803,1.320615 0.339832,-0.537935 -0.07689,-1.4517615 -0.774803,-1.320615 z m 1.6875,0.03125 c -1.489947,0.2055956 -0.07627,2.690868 0.774803,1.320615 C 41.562931,10.22018 41.146209,9.3063535 40.448296,9.4375 z m -10.8125,0.46875 c -1.465838,0.018898 -0.426489,2.609305 0.596143,1.43258 0.438711,-0.494018 0.127298,-1.4700874 -0.596143,-1.43258 z m 2.5,0.15625 c -1.398051,0.186808 -0.06571,2.400024 0.757838,1.190927 0.571917,0.199528 1.443695,0.678815 1.63732,-0.326972 0.04047,-0.859333 -1.127538,-1.0303668 -1.556995,-0.429013 -0.336303,-0.04942 -0.415254,-0.7360451 -0.838163,-0.434942 z m 3.1875,0.0625 c -1.446355,0.222963 -0.125294,2.677049 0.7608,1.422818 0.384724,-0.543414 -0.02192,-1.5485864 -0.7608,-1.422818 z m -10,0.6875 c -1.427785,0.34402 0.142282,2.636605 0.88197,1.300496 0.353388,-0.569889 -0.165777,-1.525945 -0.88197,-1.300496 z m 1.625,0.125 c -1.432919,0.302855 0.05863,2.632056 0.846437,1.277634 0.339669,-0.556279 -0.148279,-1.470844 -0.846437,-1.277634 z m 10.03125,0.09375 c -1.436922,0.229352 -0.06732,2.611121 0.779213,1.366905 0.401457,-0.539533 -0.05237,-1.531357 -0.779213,-1.366905 z m 1.6875,0.03125 c -1.465822,0.193245 -0.121223,2.663884 0.755971,1.349584 0.36003,-0.538676 -0.03533,-1.484673 -0.755971,-1.349584 z m 3.5,0.0625 c -1.489947,0.205596 -0.07627,2.690868 0.774803,1.320615 0.339832,-0.537935 -0.07689,-1.451761 -0.774803,-1.320615 z m -1.84375,0.0625 c -1.427785,0.34402 0.142282,2.636605 0.88197,1.300496 0.353388,-0.569889 -0.165777,-1.525945 -0.88197,-1.300496 z m -9.96875,0.59375 c -1.408545,0.371236 0.01269,2.709545 0.852788,1.364791 0.346646,-0.580412 -0.10423,-1.544444 -0.852788,-1.364791 z m -1.59375,0.03125 c -1.361041,0.02116 -0.534399,2.51175 0.52848,1.574448 0.564322,-0.458112 0.245478,-1.603996 -0.52848,-1.574448 z m 6.53125,0.15625 c -1.416491,0.347329 0.146988,2.63355 0.883302,1.257164 0.330087,-0.579831 -0.17267,-1.470476 -0.883302,-1.257164 z m -9.90625,0.65625 c -1.45438,0.06052 -0.341319,2.581133 0.626679,1.435642 0.456338,-0.493437 0.104337,-1.509767 -0.626679,-1.435642 z m 1.6875,0.03125 c -1.361041,0.02116 -0.534399,2.51175 0.52848,1.574448 0.564322,-0.458112 0.245478,-1.603996 -0.52848,-1.574448 z m 10.03125,0.1875 c -1.45438,0.06052 -0.341319,2.581133 0.626679,1.435642 0.456338,-0.493437 0.104337,-1.509767 -0.626679,-1.435642 z m 1.6875,0.03125 c -1.465837,0.0189 -0.426489,2.609304 0.596143,1.43258 0.438711,-0.494018 0.127299,-1.470088 -0.596143,-1.43258 z m 3.25,0 c -1.427785,0.34402 0.142282,2.636605 0.88197,1.300496 0.353388,-0.569889 -0.165778,-1.525944 -0.88197,-1.300496 z m -1.59375,0.03125 c -1.512322,0.08912 -0.245055,2.68365 0.684744,1.363403 0.358119,-0.514743 0.01417,-1.438926 -0.684744,-1.363403 z m -8.4375,0.625 c -1.466862,0.01856 -0.42467,2.610994 0.595781,1.431359 0.439136,-0.496779 0.129685,-1.466166 -0.595781,-1.431359 z m -3.375,0.03125 c -1.436922,0.229352 -0.06732,2.611121 0.779213,1.366905 0.401456,-0.539533 -0.05237,-1.531356 -0.779213,-1.366905 z m 5.03125,0 c -1.45438,0.06052 -0.341319,2.581133 0.626679,1.435642 0.456338,-0.493437 0.104337,-1.509767 -0.626679,-1.435642 z m -3.34375,0.03125 c -1.465822,0.193245 -0.121223,2.663884 0.755971,1.349584 0.36003,-0.538676 -0.03533,-1.484673 -0.755971,-1.349584 z m -4.125,0.71875 c -1.465822,0.193245 -0.121223,2.663884 0.755971,1.349584 0.36003,-0.538676 -0.03533,-1.484673 -0.755971,-1.349584 z m 9.125,0.25 c -1.465822,0.193245 -0.121223,2.663884 0.755971,1.349584 0.36003,-0.538676 -0.03533,-1.484673 -0.755971,-1.349584 z m 6.84375,0.03125 c -1.45438,0.06052 -0.341319,2.581133 0.626679,1.435642 0.457468,-0.492668 0.102671,-1.510576 -0.626679,-1.435642 z m -3.5,0.03125 c -1.446355,0.222963 -0.125294,2.677049 0.7608,1.422818 0.384724,-0.543414 -0.02192,-1.548587 -0.7608,-1.422818 z m 1.75,0.03125 c -1.45438,0.06052 -0.341319,2.581133 0.626679,1.435642 0.457468,-0.492668 0.102671,-1.510576 -0.626679,-1.435642 z m -12.78125,0.5625 c -1.410362,0.370756 0.01627,2.712275 0.851625,1.362442 0.348372,-0.583318 -0.100478,-1.539903 -0.851625,-1.362442 z m 1.75,0.125 c -1.432919,0.302855 0.05863,2.632056 0.846437,1.277634 0.339669,-0.556279 -0.148279,-1.470844 -0.846437,-1.277634 z m 1.65625,0.03125 c -1.379942,0.323045 0.06548,2.579516 0.852031,1.334993 0.403816,-0.563682 -0.116119,-1.566224 -0.852031,-1.334993 z m 1.6875,0.03125 c -1.384917,0.343289 -8.96e-4,2.674688 0.852031,1.379091 0.352708,-0.57127 -0.105156,-1.571281 -0.852031,-1.379091 z m 4.3125,0.84375 c -1.489947,0.205596 -0.07627,2.690868 0.774803,1.320615 C 38.156681,17.03268 37.739959,16.118854 37.042046,16.25 z m -2.5,0.03125 c -1.45438,0.06052 -0.341319,2.581133 0.626679,1.435642 0.456338,-0.493437 0.104337,-1.509767 -0.626679,-1.435642 z m 5.6875,0.03125 c -1.436922,0.229352 -0.06732,2.611121 0.779213,1.366905 0.401457,-0.539533 -0.05237,-1.531357 -0.779213,-1.366905 z m 1.90625,0.03125 c -1.45438,0.06052 -0.341319,2.581133 0.626679,1.435642 0.456338,-0.493437 0.104337,-1.509767 -0.626679,-1.435642 z M 31.104546,17 c -1.45438,0.06052 -0.341319,2.581133 0.626679,1.435642 C 32.187563,17.942205 31.835562,16.925875 31.104546,17 z m -1.59375,0.0625 c -1.465837,0.0189 -0.426489,2.609304 0.596143,1.43258 0.438711,-0.494018 0.127299,-1.470088 -0.596143,-1.43258 z m 3.34375,0.0625 c -1.361041,0.02116 -0.534399,2.51175 0.52848,1.574448 0.564321,-0.458112 0.245476,-1.603994 -0.52848,-1.574448 z m 4.09375,0.78125 c -1.465822,0.193245 -0.121223,2.663884 0.755971,1.349584 0.36003,-0.538676 -0.03533,-1.484673 -0.755971,-1.349584 z m 1.75,0.125 c -1.465822,0.193245 -0.121223,2.663884 0.755971,1.349584 0.36003,-0.538676 -0.03533,-1.484673 -0.755971,-1.349584 z m 1.65625,0.03125 c -1.489947,0.205596 -0.07627,2.690868 0.774803,1.320615 0.339832,-0.537935 -0.07689,-1.451761 -0.774803,-1.320615 z m -8.59375,0.71875 c -1.410362,0.370756 0.01627,2.712275 0.851625,1.362442 0.348372,-0.583318 -0.100478,-1.539903 -0.851625,-1.362442 z m 3.40625,0.0625 c -1.436922,0.229352 -0.06732,2.611121 0.779213,1.366905 0.401456,-0.539533 -0.05237,-1.531356 -0.779213,-1.366905 z m -1.65625,0.0625 c -1.40505,0.272445 -0.01727,2.601018 0.807695,1.362293 0.415154,-0.551057 -0.06742,-1.560873 -0.807695,-1.362293 z m 6,0.78125 c -1.465837,0.0189 -0.426489,2.609304 0.596143,1.43258 0.438711,-0.494018 0.127299,-1.470088 -0.596143,-1.43258 z m -1.84375,0.0625 c -1.446355,0.222963 -0.125294,2.677049 0.7608,1.422818 0.384724,-0.543414 -0.02192,-1.548587 -0.7608,-1.422818 z m -3.21875,0.71875 c -1.512322,0.08912 -0.245055,2.68365 0.684744,1.363403 0.358119,-0.514743 0.01417,-1.438926 -0.684744,-1.363403 z m -1.65625,0.0625 c -1.465822,0.193245 -0.121223,2.663884 0.755971,1.349584 0.36003,-0.538676 -0.03533,-1.484673 -0.755971,-1.349584 z m 3.25,0.15625 c -1.436922,0.229352 -0.06732,2.611121 0.779213,1.366905 0.401457,-0.539533 -0.05237,-1.531357 -0.779213,-1.366905 z" />
    <path
       inkscape:connector-curvature="0"
       style="opacity:0.19069764;fill:url(#radialGradient3904);fill-opacity:1;stroke:none"
       id="path3681"
       d="M 43.580245,13.361951 A 9.6275353,10.02611 0 1 1 24.328402,12.99507 9.6275353,10.02611 0 1 1 43.580245,13.361951 z" />
    <path
       inkscape:connector-curvature="0"
       style="opacity:0.47906979;fill:url(#radialGradient3906);fill-opacity:1;stroke:none"
       id="path2677"
       d="M 43.852899,13.537918 A 10.048728,9.8027976 89.331447 1 1 24.250417,13.164355 10.048728,9.8027976 89.331447 1 1 43.852899,13.537918 z" />
    <g
       transform="translate(-27.054545,-5.6727271)"
       id="g3846">
      <path
         d="m 54.542155,11.307284 c 0,0 3.880337,5.392259 14.469301,13.515109 0.432656,0.331893 -0.819593,1.718921 -1.248921,1.329127 0,0 -6.556298,-3.293799 -14.568637,-13.227088 -0.396944,-0.492111 0.298006,-0.86406 1.348257,-1.617148 z"
         id="path3163-5"
         style="fill:#000000;fill-opacity:1;fill-rule:evenodd;stroke:none"
         inkscape:connector-curvature="0" />
      <path
         d="m 54.689746,11.367609 c 0,0 3.880337,5.392259 14.469301,13.515109 0.432656,0.331893 -0.819593,1.718921 -1.248921,1.329127 0,0 -6.556298,-3.293799 -14.568637,-13.227088 -0.396944,-0.492111 0.298006,-0.86406 1.348257,-1.617148 z"
         id="path3163"
         style="fill:url(#linearGradient3908);fill-opacity:1;fill-rule:evenodd;stroke:none"
         inkscape:connector-curvature="0" />
    </g>
    <g
       transform="translate(5.2363636,-28.218182)"
       id="g3878">
      <path
         d="m 26.983143,53.088307 c 0.780386,-0.09999 2.633808,-1.249926 2.633808,-1.249926 -2.682583,-1.399917 -10.827882,-9.799415 -10.827882,-9.799415 0,0 -1.414452,1.899888 -1.26813,2.449854 0,0 4.682327,5.69966 9.462204,8.599487 z"
         id="path3302-5"
         style="fill:#000000;fill-opacity:1;fill-rule:evenodd;stroke:none"
         inkscape:connector-curvature="0" />
      <path
         d="m 26.971467,53.012283 c 0.780387,-0.09999 2.633809,-1.249926 2.633809,-1.249926 -2.682584,-1.399917 -10.827883,-9.799415 -10.827883,-9.799415 0,0 -1.414452,1.899888 -1.26813,2.449854 0,0 4.682327,5.69966 9.462204,8.599487 z"
         id="path3302"
         style="fill:url(#linearGradient3910);fill-opacity:1;fill-rule:evenodd;stroke:none"
         inkscape:connector-curvature="0" />
    </g>
    <path
       inkscape:connector-curvature="0"
       style="opacity:0.67441861;fill:url(#linearGradient3912);fill-opacity:1;fill-rule:evenodd;stroke:none"
       id="path3177"
       d="m 27.489746,5.8403368 c 0,0 3.880337,5.3922592 14.469301,13.5151092 0.432656,0.331893 -0.819593,1.718921 -1.248921,1.329127 0,0 -6.556298,-3.293799 -14.568637,-13.2270882 -0.396944,-0.492111 0.298006,-0.86406 1.348257,-1.617148 z" />
  </g>
</svg>
