/* XPM */
static char * lock_xpm[] = {
"22 22 169 2",
"  	c None",
". 	c #00B7B7",
"+ 	c #007777",
"@ 	c #007878",
"# 	c #007979",
"$ 	c #007676",
"% 	c #000000",
"& 	c #000202",
"* 	c #000505",
"= 	c #010808",
"- 	c #010909",
"; 	c #010A0A",
"> 	c #012121",
", 	c #014B4B",
"' 	c #006D6D",
") 	c #007F7F",
"! 	c #008181",
"~ 	c #007474",
"{ 	c #015757",
"] 	c #012D2D",
"^ 	c #010D0D",
"/ 	c #010707",
"( 	c #000404",
"_ 	c #000707",
": 	c #011111",
"< 	c #012626",
"[ 	c #016D6D",
"} 	c #00A4A4",
"| 	c #00B3B3",
"1 	c #00B2B2",
"2 	c #00AFAF",
"3 	c #00B1B1",
"4 	c #00B4B4",
"5 	c #00ACAC",
"6 	c #008282",
"7 	c #013636",
"8 	c #011010",
"9 	c #010C0C",
"0 	c #000606",
"a 	c #011515",
"b 	c #014040",
"c 	c #009B9B",
"d 	c #00B8B8",
"e 	c #00AEAE",
"f 	c #00A3A3",
"g 	c #009C9C",
"h 	c #009898",
"i 	c #00A1A1",
"j 	c #00ABAB",
"k 	c #015A5A",
"l 	c #010B0B",
"m 	c #007A7A",
"n 	c #013E3E",
"o 	c #00A9A9",
"p 	c #00B9B9",
"q 	c #00A8A8",
"r 	c #009090",
"s 	c #008787",
"t 	c #008585",
"u 	c #008E8E",
"v 	c #00B5B5",
"w 	c #015C5C",
"x 	c #010F0F",
"y 	c #012323",
"z 	c #009A9A",
"A 	c #00BDBD",
"B 	c #009999",
"C 	c #008A8A",
"D 	c #008080",
"E 	c #009E9E",
"F 	c #00BCBC",
"G 	c #00BEBE",
"H 	c #009595",
"I 	c #00A5A5",
"J 	c #013A3A",
"K 	c #010606",
"L 	c #007B7B",
"M 	c #016666",
"N 	c #00C0C0",
"O 	c #008B8B",
"P 	c #008D8D",
"Q 	c #00E9E9",
"R 	c #00CDCD",
"S 	c #00C7C7",
"T 	c #00EAEA",
"U 	c #007575",
"V 	c #00AAAA",
"W 	c #010E0E",
"X 	c #011919",
"Y 	c #009191",
"Z 	c #007E7E",
"` 	c #006A6A",
" .	c #009494",
"..	c #00DCDC",
"+.	c #005858",
"@.	c #004B4B",
"#.	c #00C2C2",
"$.	c #006666",
"%.	c #00A0A0",
"&.	c #00B6B6",
"*.	c #013737",
"=.	c #013D3D",
"-.	c #008989",
";.	c #005B5B",
">.	c #00D7D7",
",.	c #004141",
"'.	c #003232",
").	c #00ADAD",
"!.	c #005757",
"~.	c #006F6F",
"{.	c #008484",
"].	c #00C5C5",
"^.	c #015E5E",
"/.	c #00C4C4",
"(.	c #007171",
"_.	c #00C3C3",
":.	c #009393",
"<.	c #00DADA",
"[.	c #00D5D5",
"}.	c #007C7C",
"|.	c #008C8C",
"1.	c #016E6E",
"2.	c #007373",
"3.	c #00E1E1",
"4.	c #00FFFF",
"5.	c #00F4F4",
"6.	c #008383",
"7.	c #00A6A6",
"8.	c #00F5F5",
"9.	c #009797",
"0.	c #00E2E2",
"a.	c #008686",
"b.	c #009292",
"c.	c #013B3B",
"d.	c #00E3E3",
"e.	c #006767",
"f.	c #011717",
"g.	c #00BABA",
"h.	c #00E6E6",
"i.	c #00F6F6",
"j.	c #009F9F",
"k.	c #013333",
"l.	c #016161",
"m.	c #00D3D3",
"n.	c #00E8E8",
"o.	c #00E5E5",
"p.	c #00E4E4",
"q.	c #00E7E7",
"r.	c #00E0E0",
"s.	c #007D7D",
"t.	c #00A2A2",
"u.	c #013838",
"v.	c #009696",
"w.	c #015454",
"x.	c #011414",
"y.	c #013939",
"z.	c #009D9D",
"A.	c #00A7A7",
"B.	c #015151",
"C.	c #011313",
"D.	c #012F2F",
"E.	c #000101",
"F.	c #011A1A",
"G.	c #014141",
"H.	c #006262",
"I.	c #007272",
"J.	c #006868",
"K.	c #014C4C",
"L.	c #012424",
". + + @ # # # @ $ + # # @ $ + # # # @ + + . ",
"@ % & * = - ; > , ' ) ! ~ { ] ^ = / ( & % @ ",
"@ & _ ^ : < [ } | 1 2 2 3 4 5 6 7 8 9 0 & @ ",
"# * ^ a b c d e f g h h c i j . 5 k a l ( # ",
"m = : n o p q c r s 6 6 t u h } v d w x _ # ",
"m ; y z A o B C D E F G o 6 s H I d | J K m ",
"L - M N 2 g O # P Q R S T f U s h V N u W m ",
"m X I F I Y Z `  ...+.@.#.4 $.m P %.&.F *.+ ",
"@ =.G 4 E -.~ ;.-.>.,.'.p ).!.~.{.B e ].` + ",
"+ ^./.e h 6 (.h _.T c :.<.[.%.~ }.:.o #.|.L ",
"+ 1./.5 H Z 2.3.4.4.4.4.4.4.5.6.@ r 7.N c ! ",
"+ 1./.j H Z 2.3.4.4.4.4.4.4.8.6.+ r 7.N z D ",
"+ w _.e 9.D $ 0.4.4.4.4.4.4.8.a.m b.q #.C L ",
"@ c.F 1 g a.}.d.4.4.4.4.4.4.8.O D 9.)._.e.$ ",
"m f.%.g.f u t h.4.4.4.4.4.4.i.:.-.j.4 p k.+ ",
"L - l.A ).B u m.n.o.p.p.o.q.r.9. .q G -.^ m ",
"m - >  .p 7.H u a.Z m # s.t u :.t.v 5 7 K m ",
"m = : u.j.v } v.O 6.) Z 6 -. .i 1 3 w.W 0 # ",
"# * 9 x.y.Y 1 V j.9. .:.v.z.A.| f B.C.l ( # ",
"@ & 0 9 x > l.h j 5 V V 5 ).t.U D.x l * E.@ ",
"@ % & * / = = F.G.H.I.~ J.K.L.; / / ( & % @ ",
"p L L }.s.s.s.}.m m }.}.L m L s.s.}.}.L L p "};
