/* XPM */
static char * top_xpm[] = {
"22 22 144 2",
"  	c None",
". 	c #00B7B7",
"+ 	c #007777",
"@ 	c #007878",
"# 	c #008787",
"$ 	c #00ACAC",
"% 	c #00AEAE",
"& 	c #00AFAF",
"* 	c #009898",
"= 	c #000000",
"- 	c #000202",
"; 	c #000505",
"> 	c #010404",
", 	c #014D4D",
"' 	c #00E9E9",
") 	c #00F1F1",
"! 	c #00F0F0",
"~ 	c #00F3F3",
"{ 	c #010606",
"] 	c #000404",
"^ 	c #000707",
"/ 	c #010D0D",
"( 	c #010F0F",
"_ 	c #014E4E",
": 	c #00D3D3",
"< 	c #00DADA",
"[ 	c #00D9D9",
"} 	c #00DCDC",
"| 	c #018D8D",
"1 	c #011111",
"2 	c #010C0C",
"3 	c #000606",
"4 	c #007979",
"5 	c #011717",
"6 	c #011E1E",
"7 	c #012727",
"8 	c #013636",
"9 	c #013737",
"0 	c #013434",
"a 	c #017878",
"b 	c #009B9B",
"c 	c #013D3D",
"d 	c #012D2D",
"e 	c #011D1D",
"f 	c #011515",
"g 	c #010B0B",
"h 	c #007A7A",
"i 	c #010808",
"j 	c #011313",
"k 	c #011F1F",
"l 	c #002A2A",
"m 	c #002828",
"n 	c #006767",
"o 	c #00E5E5",
"p 	c #00F9F9",
"q 	c #002F2F",
"r 	c #002929",
"s 	c #012626",
"t 	c #010A0A",
"u 	c #012323",
"v 	c #002D2D",
"w 	c #002E2E",
"x 	c #002B2B",
"y 	c #006565",
"z 	c #00E3E3",
"A 	c #00FFFF",
"B 	c #00F7F7",
"C 	c #009696",
"D 	c #003131",
"E 	c #012121",
"F 	c #011414",
"G 	c #007B7B",
"H 	c #011919",
"I 	c #012525",
"J 	c #002C2C",
"K 	c #006161",
"L 	c #00E0E0",
"M 	c #00F6F6",
"N 	c #009191",
"O 	c #003030",
"P 	c #011616",
"Q 	c #010909",
"R 	c #00DFDF",
"S 	c #00F5F5",
"T 	c #009090",
"U 	c #003232",
"V 	c #003939",
"W 	c #008B8B",
"X 	c #009393",
"Y 	c #00B5B5",
"Z 	c #00FCFC",
"` 	c #00FEFE",
" .	c #00D5D5",
"..	c #008D8D",
"+.	c #005252",
"@.	c #002626",
"#.	c #006A6A",
"$.	c #00ECEC",
"%.	c #00F2F2",
"&.	c #00F4F4",
"*.	c #009F9F",
"=.	c #004C4C",
"-.	c #00D4D4",
";.	c #00E6E6",
">.	c #00E4E4",
",.	c #003838",
"'.	c #00B6B6",
").	c #00DBDB",
"!.	c #00D0D0",
"~.	c #005757",
"{.	c #009595",
"].	c #00CFCF",
"^.	c #00CECE",
"/.	c #003F3F",
"(.	c #007474",
"_.	c #00C1C1",
":.	c #00C3C3",
"<.	c #009A9A",
"[.	c #00B1B1",
"}.	c #012424",
"|.	c #004141",
"1.	c #009C9C",
"2.	c #00A8A8",
"3.	c #005F5F",
"4.	c #012222",
"5.	c #003434",
"6.	c #008686",
"7.	c #004747",
"8.	c #012929",
"9.	c #012020",
"0.	c #006D6D",
"a.	c #008484",
"b.	c #003535",
"c.	c #011C1C",
"d.	c #011010",
"e.	c #015353",
"f.	c #006B6B",
"g.	c #014B4B",
"h.	c #000101",
"i.	c #010707",
"j.	c #00B9B9",
"k.	c #007C7C",
"l.	c #007D7D",
"m.	c #007E7E",
". + + @ @ # $ % % % % % % % % & * @ @ + + . ",
"@ = - ; > , ' ) ! ! ! ! ! ! ! ~ * { ] - = @ ",
"@ - ^ / ( _ : < < < [ [ [ < < } | 1 2 3 - @ ",
"4 ; / 5 6 7 8 9 9 0 a b c 8 9 8 d e f g ] 4 ",
"h i j k 7 l l l m n o p * q l l r s e 1 ^ 4 ",
"h t 5 u l v w x y z A A B C D v v r E F i h ",
"G g H I J w x K L A A A A M N O v x u P Q h ",
"G 2 H I J v K R A A A A A A S T U l u P t h ",
"G 2 H I x V W X Y Z Z Z `  ...b +.r u P t h ",
"G 2 H I J O O @.#.$.%.) &.*.m v D x u P t h ",
"G 2 H I J w w J =.-.;.o >.@ l w w x u P t h ",
"G 2 H I J w w v ,.'.).< !.~.x w w x u P t h ",
"G 2 H I J w w w w {.].^.. /.v w w x u P t h ",
"G 2 H I J w w w x (._.:.<.U w w w x u P t h ",
"G 2 H I J w w w J ~.[.'.G J w w w x u P t h ",
"G g H }.x w w w v |.1.2.3.J w w w x 4.P Q h ",
"h t 5 u l v w w v 5.6.* 7.J w w v 8.9.F i h ",
"h i j 6 s l x x x l 0.a.b.l x x 8.I c.d.3 4 ",
"4 ; 2 P e E u u u E e.f.I u u u E c.F g ] 4 ",
"@ - 3 2 1 f P 5 5 f 8 g.P 5 5 P f d.g ; h.@ ",
"@ = - ; i.Q t t t t 5 4.t t t t Q i.] - = @ ",
"j.G G k.l.l.l.l.l.l.l.m.l.l.l.l.l.k.k.G G j."};
