<?xml version="1.0" encoding="UTF-8" standalone="no"?>
<!-- Created with Inkscape (http://www.inkscape.org/) -->

<svg
   xmlns:dc="http://purl.org/dc/elements/1.1/"
   xmlns:cc="http://creativecommons.org/ns#"
   xmlns:rdf="http://www.w3.org/1999/02/22-rdf-syntax-ns#"
   xmlns:svg="http://www.w3.org/2000/svg"
   xmlns="http://www.w3.org/2000/svg"
   xmlns:xlink="http://www.w3.org/1999/xlink"
   xmlns:sodipodi="http://sodipodi.sourceforge.net/DTD/sodipodi-0.dtd"
   xmlns:inkscape="http://www.inkscape.org/namespaces/inkscape"
   version="1.0"
   width="95.980896"
   height="96.316048"
   id="svg2408"
   inkscape:version="0.48.1 r9760"
   sodipodi:docname="dropbox.svg">
  <metadata
     id="metadata111">
    <rdf:RDF>
      <cc:Work
         rdf:about="">
        <dc:format>image/svg+xml</dc:format>
        <dc:type
           rdf:resource="http://purl.org/dc/dcmitype/StillImage" />
        <dc:title></dc:title>
      </cc:Work>
    </rdf:RDF>
  </metadata>
  <sodipodi:namedview
     pagecolor="#ffffff"
     bordercolor="#666666"
     borderopacity="1"
     objecttolerance="10"
     gridtolerance="10"
     guidetolerance="10"
     inkscape:pageopacity="0"
     inkscape:pageshadow="2"
     inkscape:window-width="1366"
     inkscape:window-height="720"
     id="namedview109"
     showgrid="false"
     fit-margin-top="0"
     fit-margin-left="0"
     fit-margin-right="0"
     fit-margin-bottom="0"
     inkscape:zoom="1.2153398"
     inkscape:cx="174.53408"
     inkscape:cy="55.940321"
     inkscape:window-x="0"
     inkscape:window-y="25"
     inkscape:window-maximized="1"
     inkscape:current-layer="svg2408" />
  <defs
     id="defs2410">
    <linearGradient
       id="linearGradient3731">
      <stop
         id="stop3733"
         style="stop-color:#552200;stop-opacity:1"
         offset="0" />
      <stop
         id="stop3735"
         style="stop-color:#552200;stop-opacity:0"
         offset="1" />
    </linearGradient>
    <linearGradient
       id="linearGradient3708">
      <stop
         id="stop3710"
         style="stop-color:#803300;stop-opacity:1"
         offset="0" />
      <stop
         id="stop3716"
         style="stop-color:#803300;stop-opacity:1"
         offset="0.5" />
      <stop
         id="stop3718"
         style="stop-color:#803300;stop-opacity:0.7364341"
         offset="0.75" />
      <stop
         id="stop3712"
         style="stop-color:#803300;stop-opacity:0"
         offset="1" />
    </linearGradient>
    <linearGradient
       id="linearGradient3801">
      <stop
         id="stop3803"
         style="stop-color:#107cd9;stop-opacity:1"
         offset="0" />
      <stop
         id="stop3805"
         style="stop-color:#79b8e8;stop-opacity:1"
         offset="1" />
    </linearGradient>
    <linearGradient
       id="linearGradient3784">
      <stop
         id="stop3786"
         style="stop-color:#1b8cee;stop-opacity:1"
         offset="0" />
      <stop
         id="stop3788"
         style="stop-color:#79b8e8;stop-opacity:1"
         offset="1" />
    </linearGradient>
    <linearGradient
       id="linearGradient3757">
      <stop
         id="stop3759"
         style="stop-color:#389bed;stop-opacity:1"
         offset="0" />
      <stop
         id="stop3761"
         style="stop-color:#c2e5fc;stop-opacity:1"
         offset="1" />
    </linearGradient>
    <linearGradient
       id="linearGradient3748">
      <stop
         id="stop3751"
         style="stop-color:#5aabf2;stop-opacity:1"
         offset="0" />
      <stop
         id="stop3753"
         style="stop-color:#badaf5;stop-opacity:1"
         offset="1" />
    </linearGradient>
    <linearGradient
       id="linearGradient3740">
      <stop
         id="stop3742"
         style="stop-color:#5cacf5;stop-opacity:1"
         offset="0" />
      <stop
         id="stop3744"
         style="stop-color:#abd4f4;stop-opacity:1"
         offset="1" />
    </linearGradient>
    <linearGradient
       id="linearGradient3724">
      <stop
         id="stop3726"
         style="stop-color:#0d82e4;stop-opacity:1"
         offset="0" />
      <stop
         id="stop3728"
         style="stop-color:#bcdbf7;stop-opacity:1"
         offset="1" />
    </linearGradient>
    <linearGradient
       id="linearGradient3707">
      <stop
         id="stop3709"
         style="stop-color:#a8d4fb;stop-opacity:1"
         offset="0" />
      <stop
         id="stop3711"
         style="stop-color:#dff0fa;stop-opacity:1"
         offset="1" />
    </linearGradient>
    <linearGradient
       x1="45.447727"
       y1="92.539597"
       x2="45.447727"
       y2="7.0165396"
       id="ButtonShadow"
       gradientUnits="userSpaceOnUse"
       gradientTransform="scale(1.0058652,0.994169)">
      <stop
         id="stop3750"
         style="stop-color:#000000;stop-opacity:1"
         offset="0" />
      <stop
         id="stop3752"
         style="stop-color:#000000;stop-opacity:0.58823532"
         offset="1" />
    </linearGradient>
    <linearGradient
       id="linearGradient3737">
      <stop
         id="stop3739"
         style="stop-color:#ffffff;stop-opacity:1"
         offset="0" />
      <stop
         id="stop3741"
         style="stop-color:#ffffff;stop-opacity:0"
         offset="1" />
    </linearGradient>
    <linearGradient
       id="linearGradient3700">
      <stop
         id="stop3702"
         style="stop-color:#eec00f;stop-opacity:1"
         offset="0" />
      <stop
         id="stop3704"
         style="stop-color:#fff8a0;stop-opacity:1"
         offset="1" />
    </linearGradient>
    <filter
       color-interpolation-filters="sRGB"
       id="filter3174">
      <feGaussianBlur
         id="feGaussianBlur3176"
         stdDeviation="1.71" />
    </filter>
    <linearGradient
       x1="36.357143"
       y1="6"
       x2="36.357143"
       y2="63.893143"
       id="linearGradient3188"
       xlink:href="#linearGradient3737"
       gradientUnits="userSpaceOnUse" />
    <filter
       x="-0.192"
       y="-0.192"
       width="1.3839999"
       height="1.3839999"
       color-interpolation-filters="sRGB"
       id="filter3794">
      <feGaussianBlur
         id="feGaussianBlur3796"
         stdDeviation="5.28" />
    </filter>
    <linearGradient
       x1="48"
       y1="20.220806"
       x2="48"
       y2="138.66119"
       id="linearGradient3613"
       xlink:href="#linearGradient3737"
       gradientUnits="userSpaceOnUse" />
    <radialGradient
       cx="48"
       cy="90.171875"
       r="42"
       fx="48"
       fy="90.171875"
       id="radialGradient3619"
       xlink:href="#linearGradient3737"
       gradientUnits="userSpaceOnUse"
       gradientTransform="matrix(1.1573129,0,0,0.99590774,-7.5510206,0.19713193)" />
    <clipPath
       id="clipPath3613">
      <rect
         width="84"
         height="84"
         rx="6"
         ry="6"
         x="6"
         y="6"
         id="rect3615"
         style="fill:#ffffff;fill-opacity:1;fill-rule:nonzero;stroke:none" />
    </clipPath>
    <linearGradient
       x1="48"
       y1="90"
       x2="48"
       y2="5.9877172"
       id="linearGradient3617"
       xlink:href="#linearGradient3700"
       gradientUnits="userSpaceOnUse" />
    <linearGradient
       x1="45.447727"
       y1="92.539597"
       x2="45.447727"
       y2="7.0165396"
       id="ButtonShadow-0"
       gradientUnits="userSpaceOnUse"
       gradientTransform="matrix(1.0058652,0,0,0.994169,100,0)">
      <stop
         id="stop3750-8"
         style="stop-color:#000000;stop-opacity:1"
         offset="0" />
      <stop
         id="stop3752-5"
         style="stop-color:#000000;stop-opacity:0.58823532"
         offset="1" />
    </linearGradient>
    <linearGradient
       x1="32.251034"
       y1="6.1317081"
       x2="32.251034"
       y2="90.238609"
       id="linearGradient3780"
       xlink:href="#ButtonShadow-0"
       gradientUnits="userSpaceOnUse"
       gradientTransform="matrix(1.0238095,0,0,1.0119048,-1.1428571,-98.071429)" />
    <linearGradient
       x1="32.251034"
       y1="6.1317081"
       x2="32.251034"
       y2="90.238609"
       id="linearGradient3772"
       xlink:href="#ButtonShadow-0"
       gradientUnits="userSpaceOnUse"
       gradientTransform="matrix(1.0238095,0,0,1.0119048,-1.1428571,-98.071429)" />
    <linearGradient
       x1="32.251034"
       y1="6.1317081"
       x2="32.251034"
       y2="90.238609"
       id="linearGradient3725"
       xlink:href="#ButtonShadow-0"
       gradientUnits="userSpaceOnUse"
       gradientTransform="matrix(1.0238095,0,0,1.0119048,-1.1428571,-98.071429)" />
    <linearGradient
       x1="32.251034"
       y1="6.1317081"
       x2="32.251034"
       y2="90.238609"
       id="linearGradient3721"
       xlink:href="#ButtonShadow-0"
       gradientUnits="userSpaceOnUse"
       gradientTransform="translate(0,-97)" />
    <linearGradient
       x1="32.251034"
       y1="6.1317081"
       x2="32.251034"
       y2="90.238609"
       id="linearGradient3026"
       xlink:href="#ButtonShadow-0"
       gradientUnits="userSpaceOnUse"
       gradientTransform="matrix(1.0238095,0,0,1.0119048,-1.1428571,-98.071429)" />
    <linearGradient
       x1="31"
       y1="47.979362"
       x2="48.03513"
       y2="47.979362"
       id="linearGradient3713"
       xlink:href="#linearGradient3707"
       gradientUnits="userSpaceOnUse" />
    <linearGradient
       x1="48.077351"
       y1="47.979362"
       x2="65.11248"
       y2="47.979362"
       id="linearGradient3722"
       xlink:href="#linearGradient3707"
       gradientUnits="userSpaceOnUse" />
    <linearGradient
       x1="27.3953"
       y1="59.064777"
       x2="48.11248"
       y2="59.064777"
       id="linearGradient3730"
       xlink:href="#linearGradient3724"
       gradientUnits="userSpaceOnUse" />
    <linearGradient
       x1="48"
       y1="59.064777"
       x2="69.017853"
       y2="59.064777"
       id="linearGradient3738"
       xlink:href="#linearGradient3724"
       gradientUnits="userSpaceOnUse" />
    <linearGradient
       x1="47.916752"
       y1="33.304859"
       x2="76.623817"
       y2="33.304859"
       id="linearGradient3746"
       xlink:href="#linearGradient3740"
       gradientUnits="userSpaceOnUse" />
    <linearGradient
       x1="19.288221"
       y1="33.25"
       x2="47.995289"
       y2="33.25"
       id="linearGradient3755"
       xlink:href="#linearGradient3748"
       gradientUnits="userSpaceOnUse" />
    <linearGradient
       x1="19.068768"
       y1="53.649677"
       x2="47.885559"
       y2="53.649677"
       id="linearGradient3763"
       xlink:href="#linearGradient3757"
       gradientUnits="userSpaceOnUse" />
    <linearGradient
       x1="47.916729"
       y1="53.649677"
       x2="76.733521"
       y2="53.649677"
       id="linearGradient3773"
       xlink:href="#linearGradient3757"
       gradientUnits="userSpaceOnUse" />
    <linearGradient
       x1="31.085375"
       y1="59.064777"
       x2="48.11248"
       y2="59.064777"
       id="linearGradient3790"
       xlink:href="#linearGradient3784"
       gradientUnits="userSpaceOnUse" />
    <linearGradient
       x1="48"
       y1="59.064777"
       x2="69.017853"
       y2="59.064777"
       id="linearGradient3799"
       xlink:href="#linearGradient3801"
       gradientUnits="userSpaceOnUse" />
    <radialGradient
       cx="48.073509"
       cy="63.818562"
       r="22.071104"
       fx="48.073509"
       fy="63.818562"
       id="radialGradient3714"
       xlink:href="#linearGradient3708"
       gradientUnits="userSpaceOnUse"
       gradientTransform="matrix(1,0,0,0.618034,0,24.376521)" />
    <linearGradient
       x1="53.245571"
       y1="77.264755"
       x2="53.245571"
       y2="21.94384"
       id="linearGradient3739"
       xlink:href="#linearGradient3731"
       gradientUnits="userSpaceOnUse" />
    <linearGradient
       x1="53.245571"
       y1="77.264755"
       x2="53.245571"
       y2="21.94384"
       id="linearGradient3764"
       xlink:href="#linearGradient3731"
       gradientUnits="userSpaceOnUse" />
    <linearGradient
       x1="53.245571"
       y1="77.264755"
       x2="53.245571"
       y2="21.94384"
       id="linearGradient3774"
       xlink:href="#linearGradient3731"
       gradientUnits="userSpaceOnUse" />
    <linearGradient
       x1="47.835155"
       y1="74.687927"
       x2="48.321796"
       y2="28.007326"
       id="linearGradient3782"
       xlink:href="#linearGradient3731"
       gradientUnits="userSpaceOnUse" />
    <radialGradient
       inkscape:collect="always"
       xlink:href="#linearGradient3708"
       id="radialGradient3130"
       gradientUnits="userSpaceOnUse"
       gradientTransform="matrix(1,0,0,0.6960383,206.53125,47.614258)"
       cx="48.073509"
       cy="63.818562"
       fx="48.073509"
       fy="63.818562"
       r="22.071104" />
  </defs>
  <g
     id="layer2"
     style="display:none"
     transform="translate(126.53408,-3.697002)">
    <rect
       width="86"
       height="85"
       rx="6"
       ry="6"
       x="5"
       y="7"
       id="rect3745"
       style="opacity:0.9;fill:url(#ButtonShadow);fill-opacity:1;fill-rule:nonzero;stroke:none;filter:url(#filter3174)" />
  </g>
  <g
     id="g4088"
     transform="scale(0.75003389,0.75246911)">
    <rect
       y="1.5777111"
       x="1.5561371"
       height="124.86503"
       width="124.85932"
       id="rect3109"
       style="opacity:0.79183673;fill:#000000;fill-opacity:1;stroke:#00ffff;stroke-width:3.13489413;stroke-miterlimit:4;stroke-opacity:1;stroke-dasharray:none" />
    <g
       transform="matrix(1.8384363,0,0,1.8384363,-39.781465,-73.601013)"
       id="g4052">
      <path
         inkscape:connector-curvature="0"
         style="color:#000000;fill:#00ffff;fill-opacity:1;fill-rule:nonzero;stroke:none;stroke-width:1;marker:none;visibility:visible;display:inline;overflow:visible;enable-background:accumulate"
         id="path2919"
         d="m 45.992044,50.281251 c -0.0326,0.0074 8.4e-4,0.02199 -0.0312,0.03125 -0.0321,0.0093 -0.031,-0.01112 -0.0625,0 -0.0315,0.01112 -4.6e-4,0.01832 -0.0312,0.03125 -0.0308,0.01293 -0.001,-0.0147 -0.0312,0 -0.03,0.0147 -0.002,0.01483 -0.0312,0.03125 -0.0291,0.01642 -0.003,-0.01809 -0.0312,0 a 0.49998753,0.49998753 0 0 1 -0.0312,0.03125 l -17.25,10.5 c -0.0289,0.01761 -0.004,-0.01928 -0.0312,0 -0.0278,0.01928 -0.005,0.01037 -0.0312,0.03125 -0.0266,0.02088 -0.006,0.0088 -0.0312,0.03125 -0.0253,0.02241 -0.007,0.0074 -0.0312,0.03125 -0.0239,0.02387 -0.009,0.006 -0.0312,0.03125 -0.0225,0.02524 -0.0103,0.0047 -0.0312,0.03125 -0.021,0.02652 -0.0119,0.0035 -0.0312,0.03125 -0.0194,0.02771 0.0177,0.0024 0,0.03125 -0.0177,0.0288 -0.0153,0.0015 -0.0312,0.03125 -0.016,0.02979 -0.0171,0.03182 -0.0312,0.0625 -0.0142,0.03068 0.0123,-2.17e-4 0,0.03125 -0.0123,0.03147 -0.0208,-8.9e-4 -0.0312,0.03125 -0.0105,0.03214 0.009,-0.0015 0,0.03125 -0.009,0.0327 0.007,0.02935 0,0.0625 -0.007,0.03315 0.005,-0.0022 0,0.03125 -0.005,0.03348 -0.0286,-0.0024 -0.0312,0.03125 -0.003,0.0337 6.8e-4,0.0287 0,0.0625 -6.8e-4,0.0338 -0.001,-0.0025 0,0.03125 0.001,0.03378 -0.003,0.02886 0,0.0625 0.003,0.03364 0.026,-0.0021 0.0312,0.03125 0.005,0.03339 -0.007,-0.0018 0,0.03125 0.007,0.03302 -0.009,0.02996 0,0.0625 0.009,0.03254 0.0202,-6.9e-4 0.0312,0.03125 0.0111,0.03194 -0.0129,1.8e-5 0,0.03125 0.0129,0.03123 0.0165,8.35e-4 0.0312,0.03125 0.0147,0.03041 -0.0165,0.03301 0,0.0625 0.0165,0.02949 0.013,0.0028 0.0312,0.03125 0.0182,0.02847 0.0114,0.0039 0.0312,0.03125 0.0199,0.02734 0.01,0.0051 0.0312,0.03125 0.0214,0.02612 -0.023,0.0064 0,0.03125 0.023,0.02481 0.007,0.0078 0.0312,0.03125 0.0244,0.02342 0.006,0.0093 0.0312,0.03125 l 10.5,8.875 a 0.49998753,0.49998753 0 0 1 0,0.75 l -10.6875,8.59375 c -0.0263,0.02113 -0.006,0.0086 -0.0312,0.03125 -0.025,0.02263 -0.008,0.0072 -0.0312,0.03125 -0.0236,0.02406 -0.009,0.0058 -0.0312,0.03125 -0.0222,0.02541 -0.0106,0.0046 -0.0312,0.03125 -0.0206,0.02667 -0.0122,0.0034 -0.0312,0.03125 -0.019,0.02783 0.0173,0.0336 0,0.0625 -0.0173,0.0289 -0.0156,0.0014 -0.0312,0.03125 -0.0156,0.02987 -0.0174,5.13e-4 -0.0312,0.03125 -0.0138,0.03074 0.012,-2.46e-4 0,0.03125 -0.012,0.0315 -0.0211,-8.97e-4 -0.0312,0.03125 -0.0101,0.03215 0.008,0.02981 0,0.0625 -0.008,0.03269 0.006,-0.0019 0,0.03125 -0.006,0.03311 0.004,-0.0022 0,0.03125 -0.004,0.03343 -0.0289,0.02888 -0.0312,0.0625 -0.002,0.03362 3.8e-4,-0.0025 0,0.03125 -3.8e-4,0.0337 -0.002,0.02883 0,0.0625 0.002,0.03367 0.0277,-0.0023 0.0312,0.03125 0.004,0.03352 -0.006,-0.002 0,0.03125 0.006,0.03325 -0.007,0.02964 0,0.0625 0.007,0.03286 -0.009,-0.0011 0,0.03125 0.009,0.03237 0.02,-5.08e-4 0.0312,0.03125 0.0113,0.03176 -0.0131,2.11e-4 0,0.03125 0.0131,0.03104 0.0163,0.03229 0.0312,0.0625 0.0149,0.03021 -0.0167,0.002 0,0.03125 0.0167,0.02928 0.0129,0.003 0.0312,0.03125 0.0184,0.02825 0.0112,0.0041 0.0312,0.03125 0.02,0.02712 0.01,0.0054 0.0312,0.03125 0.0216,0.0259 0.008,0.0067 0.0312,0.03125 0.0231,0.02459 0.007,0.0081 0.0312,0.03125 0.0245,0.02319 0.006,0.0095 0.0312,0.03125 0.0258,0.02171 0.004,0.01109 0.0312,0.03125 0.0135,0.01008 0.0295,-0.0012 0.0312,0 l 11.40625,7.25 a 0.49998753,0.49998753 0 0 1 0.21875,0.4375 l -0.0312,1.375 a 0.49998753,0.49998753 0 0 1 -0.0312,0.1875 c -0.009,0.02251 -0.023,0.0084 -0.0312,0.03125 -0.008,0.02288 0.007,0.008 0,0.03125 -0.007,0.02322 0.006,0.0077 0,0.03125 -0.006,0.0235 0.005,0.0075 0,0.03125 -0.005,0.02375 -0.0269,0.0073 -0.0312,0.03125 -0.004,0.02396 0.003,0.0071 0,0.03125 -0.003,0.02412 0.002,0.007 0,0.03125 -0.002,0.02423 0.001,0.0069 0,0.03125 -10e-4,0.02431 1.9e-4,0.0069 0,0.03125 -1.9e-4,0.02434 -8.5e-4,0.0069 0,0.03125 8.4e-4,0.02432 -0.002,0.007 0,0.03125 0.002,0.02426 -0.003,0.0071 0,0.03125 0.003,0.02416 -0.004,0.0072 0,0.03125 0.004,0.02402 0.0263,0.0074 0.0312,0.03125 0.006,0.0236 -0.007,0.0079 0,0.03125 0.007,0.02332 -0.008,0.0082 0,0.03125 0.008,0.02301 0.0223,0.0086 0.0312,0.03125 0.009,0.02265 -0.01,0.009 0,0.03125 0.01,0.02225 -0.0108,0.0094 0,0.03125 0.0108,0.02181 0.0195,0.0099 0.0312,0.03125 0.0117,0.02134 -0.0126,0.01043 0,0.03125 0.0126,0.02082 0.0178,0.01098 0.0312,0.03125 0.0143,0.01968 0.0161,0.0122 0.0312,0.03125 0.0152,0.01905 0.0153,0.01286 0.0312,0.03125 0.0159,0.01839 -0.0167,0.01355 0,0.03125 0.0167,0.0177 0.0138,-0.01697 0.0312,0 0.0174,0.01697 0.0131,0.01503 0.0312,0.03125 0.0181,0.01622 -0.0188,0.01582 0,0.03125 0.0188,0.01543 0.0118,-0.01462 0.0312,0 0.0195,0.01462 0.0112,0.01747 0.0312,0.03125 l 17.0625,11.999989 c 0.018,0.0127 0.0128,-0.012 0.0312,0 0.0185,0.012 0.0123,0.02 0.0312,0.0312 0.0193,0.0105 0.0115,0.0215 0.0312,0.0312 0.0197,0.01 0.0112,-0.009 0.0312,0 0.0201,0.009 0.0108,-0.008 0.0312,0 0.0204,0.008 0.0105,0.0238 0.0312,0.0312 0.0207,0.007 0.0103,-0.007 0.0312,0 0.0212,0.006 0.01,0.0262 0.0312,0.0312 0.0214,0.005 0.01,-0.004 0.0312,0 0.0216,0.004 0.01,-0.003 0.0312,0 0.0217,0.003 0.009,-0.002 0.0312,0 0.0219,0.002 0.009,-0.002 0.0312,0 0.022,0.002 0.009,-8.4e-4 0.0312,0 0.022,8.4e-4 0.009,0 0.0312,0 0.022,-8.4e-4 0.009,0.002 0.0312,0 0.022,-0.002 0.009,0.002 0.0312,0 0.0219,-0.002 0.01,0.003 0.0312,0 0.0217,-0.003 0.01,0.004 0.0312,0 0.0216,-0.004 0.01,0.005 0.0312,0 0.0214,-0.005 0.01,-0.0254 0.0312,-0.0312 0.021,-0.007 0.0105,0.007 0.0312,0 0.0207,-0.007 0.0108,-0.023 0.0312,-0.0312 0.0204,-0.008 0.0112,0.009 0.0312,0 0.0201,-0.009 0.0115,0.01 0.0312,0 0.0197,-0.01 0.0119,-0.0207 0.0312,-0.0312 0.0189,-0.0113 0.0128,-0.0193 0.0312,-0.0312 0.0185,-0.012 0.0133,0.0127 0.0312,0 l 10.593751,-7.499989 a 0.49998753,0.49998753 0 0 1 0.0312,0 0.49998753,0.49998753 0 0 1 0.0625,-0.0625 0.49998753,0.49998753 0 0 1 0.0312,0 l 0.0625,-0.03125 6.15625,-4.3125 a 0.49998753,0.49998753 0 0 1 0.0312,-0.03125 c 0.0227,-0.01366 0.009,0.01469 0.0312,0 0.022,-0.01469 0.01,-0.01555 0.0312,-0.03125 a 0.49998753,0.49998753 0 0 1 0.0328,-0.03125 c 0.0183,-0.01034 0.0134,0.011 0.0312,0 0.009,-0.0055 0.0301,7.24e-4 0.0312,0 0.001,-7.24e-4 -0.009,-0.02543 0,-0.03125 0.017,-0.01228 0.0147,-0.01835 0.0312,-0.03125 a 0.49998753,0.49998753 0 0 1 0.0625,-0.0625 0.49998753,0.49998753 0 0 1 0.0312,-0.03125 c 0.0185,-0.01903 -0.0176,-0.01139 0,-0.03125 0.0176,-0.01986 0.0146,-0.0106 0.0312,-0.03125 0.0166,-0.02065 0.0156,-0.0098 0.0312,-0.03125 0.0146,-0.0221 0.0176,-0.0085 0.0312,-0.03125 0.0136,-0.02276 -0.0125,-0.0079 0,-0.03125 0.0125,-0.02336 0.0198,-0.0073 0.0312,-0.03125 0.0114,-0.02392 -0.0103,-0.0068 0,-0.03125 0.0103,-0.02442 0.0221,-0.0064 0.0312,-0.03125 0.009,-0.02487 -0.008,-0.006 0,-0.03125 0.008,-0.02527 -0.007,-0.0056 0,-0.03125 0.007,-0.02562 -0.006,-0.0053 0,-0.03125 0.006,-0.0259 0.0268,-0.0051 0.0312,-0.03125 0.005,-0.02614 -0.003,-0.0049 0,-0.03125 0.003,-0.02632 -0.002,-0.0048 0,-0.03125 0.002,-0.02644 -8e-4,-0.0047 0,-0.03125 l -0.0312,-2.03125 a 0.49998753,0.49998753 0 0 1 0.21875,-0.4375 l 11.06295,-7.03125 c 0.002,-0.0012 0.0177,0.01008 0.0312,0 0.027,-0.02016 0.006,-0.0095 0.0312,-0.03125 0.0258,-0.02171 0.007,-0.0081 0.0312,-0.03125 0.0245,-0.02319 0.008,-0.0067 0.0312,-0.03125 0.0231,-0.02459 0.01,-0.0054 0.0312,-0.03125 0.0216,-0.0259 0.0112,-0.0041 0.0312,-0.03125 0.02,-0.02712 0.0129,-0.003 0.0312,-0.03125 0.0184,-0.02825 0.0146,-0.002 0.0312,-0.03125 0.0167,-0.02928 -0.0149,-10e-4 0,-0.03125 0.0149,-0.03021 0.0181,-0.03146 0.0312,-0.0625 0.0131,-0.03104 -0.0113,5.08e-4 0,-0.03125 0.0113,-0.03176 0.0218,0.0011 0.0312,-0.03125 0.009,-0.03237 -0.007,0.0016 0,-0.03125 0.007,-0.03286 -0.006,-0.02925 0,-0.0625 0.006,-0.03325 -0.004,0.0023 0,-0.03125 0.004,-0.03352 0.0297,0.0024 0.0312,-0.03125 0.002,-0.03367 3.8e-4,-0.0288 0,-0.0625 -3.8e-4,-0.0337 0.002,0.0024 0,-0.03125 -0.002,-0.03362 -0.0269,-0.02907 -0.0312,-0.0625 -0.004,-0.03343 0.006,0.0019 0,-0.03125 -0.006,-0.03311 0.008,0.0014 0,-0.03125 -0.008,-0.03269 0.0101,-0.03035 0,-0.0625 -0.0101,-0.03215 -0.0192,2.46e-4 -0.0312,-0.03125 -0.012,-0.0315 0.0138,-5.13e-4 0,-0.03125 -0.0138,-0.03074 -0.0156,-0.0014 -0.0312,-0.03125 -0.0156,-0.02987 -0.0139,-0.0023 -0.0312,-0.03125 -0.0173,-0.0289 0.019,-0.03467 0,-0.0625 -0.019,-0.02783 -0.0106,-0.0046 -0.0312,-0.03125 -0.0206,-0.02667 -0.009,-0.0058 -0.0312,-0.03125 -0.0222,-0.02541 -0.008,-0.0072 -0.0312,-0.03125 -0.0236,-0.02406 -0.006,-0.0086 -0.0312,-0.03125 -0.025,-0.02263 -0.005,-0.01012 -0.0312,-0.03125 l -10.5625,-8.5 a 0.49998753,0.49998753 0 0 1 0,-0.75 l 10.5,-8.9375 c 0.0257,-0.02194 0.007,-0.0078 0.0312,-0.03125 0.0244,-0.02342 0.008,-0.0064 0.0312,-0.03125 0.023,-0.02481 -0.0214,-0.0051 0,-0.03125 0.0214,-0.02612 0.0114,-0.0039 0.0312,-0.03125 0.0199,-0.02734 0.013,-0.0028 0.0312,-0.03125 0.0182,-0.02847 0.0147,-0.0018 0.0312,-0.03125 0.0165,-0.02949 -0.0147,-0.03209 0,-0.0625 0.0147,-0.03041 0.0183,-1.8e-5 0.0312,-0.03125 0.0129,-0.03123 -0.0111,6.9e-4 0,-0.03125 0.0111,-0.03194 0.0221,0.0013 0.0312,-0.03125 0.009,-0.03254 -0.007,-0.02948 0,-0.0625 0.007,-0.03302 -0.005,0.0021 0,-0.03125 0.005,-0.03339 0.028,0.0024 0.0312,-0.03125 0.003,-0.03364 -0.001,-0.02872 0,-0.0625 0.001,-0.03378 6.8e-4,0.0025 0,-0.03125 -6.8e-4,-0.0338 0.003,-0.0288 0,-0.0625 -0.003,-0.0337 -0.0266,0.0022 -0.0312,-0.03125 -0.005,-0.03348 0.007,0.0019 0,-0.03125 -0.007,-0.03315 0.009,-0.0298 0,-0.0625 -0.009,-0.0327 0.0105,8.9e-4 0,-0.03125 -0.0105,-0.03214 -0.0189,2.17e-4 -0.0312,-0.03125 -0.0123,-0.03147 0.0142,-5.66e-4 0,-0.03125 -0.0142,-0.03068 -0.0153,-0.03271 -0.0312,-0.0625 -0.016,-0.02979 -0.0136,-0.0024 -0.0312,-0.03125 -0.0177,-0.0288 0.0194,-0.0035 0,-0.03125 -0.0194,-0.02771 -0.0103,-0.0047 -0.0312,-0.03125 -0.021,-0.02652 -0.009,-0.006 -0.0312,-0.03125 -0.0225,-0.02524 -0.007,-0.0074 -0.0312,-0.03125 -0.0239,-0.02387 -0.006,-0.0088 -0.0312,-0.03125 -0.0253,-0.02241 -0.005,-0.01037 -0.0312,-0.03125 -0.0266,-0.02088 -0.004,-0.01197 -0.0312,-0.03125 -0.0278,-0.01928 -0.002,0.01761 -0.0312,0 l -17.25,-10.46875 c -0.0188,-0.01153 -0.012,-0.02046 -0.0312,-0.03125 -0.0192,-0.01079 -0.0116,0.01004 -0.0312,0 -0.0197,-0.01004 -0.0112,-0.02197 -0.0312,-0.03125 -0.02,-0.0093 -0.0109,0.0085 -0.0312,0 -0.0207,-0.0077 -0.0103,-0.02434 -0.0312,-0.03125 -0.021,-0.0069 -0.01,0.0061 -0.0312,0 -0.0212,-0.0061 -0.01,0.0053 -0.0312,0 -0.0214,-0.0053 -0.01,0.0044 -0.0312,0 -0.0216,-0.0044 -0.01,0.0036 -0.0312,0 -0.0218,-0.0036 0.0219,-0.02848 0,-0.03125 -0.0219,-0.0028 -0.009,0.0019 -0.0312,0 -0.022,-0.0019 -0.009,0.0011 -0.0312,0 -0.022,-0.0011 -0.009,2.3e-4 -0.0312,0 -0.0221,-2.3e-4 -0.009,-6.19e-4 -0.0312,0 -0.0221,6.19e-4 -0.009,-0.0015 -0.0312,0 -0.022,0.0015 -0.009,-0.0023 -0.0312,0 -0.022,0.0023 -0.009,-0.0032 -0.0312,0 -0.0218,0.0032 -0.01,0.02725 -0.0312,0.03125 -0.0215,0.0048 -0.01,-0.0057 -0.0312,0 -0.0213,0.0057 -0.0102,-0.0065 -0.0312,0 -0.0211,0.0065 -0.0104,0.02397 -0.0312,0.03125 -0.0208,0.0073 -0.0107,-0.0081 -0.0312,0 -0.0205,0.0081 -0.011,-0.0089 -0.0312,0 -0.0202,0.0089 0.0199,0.02162 0,0.03125 -0.0199,0.0096 -0.0118,-0.01039 -0.0312,0 -0.0195,0.01039 -0.0122,-0.01113 -0.0312,0 -0.0191,0.01113 -0.0126,0.01939 -0.0312,0.03125 -0.0181,0.01256 -0.0136,0.018 -0.0312,0.03125 -0.0177,0.01325 -0.0141,-0.01392 -0.0312,0 l -10.593751,9.125 a 0.49998753,0.49998753 0 0 1 -0.625,0 l -10.6875,-9.1875 c -0.0212,-0.01778 -0.009,0.01673 -0.0312,0 -0.0221,-0.01673 -0.008,-0.0156 -0.0312,-0.03125 -0.0228,-0.01565 -0.008,-0.01672 -0.0312,-0.03125 -0.0236,-0.01453 -0.007,0.01337 -0.0312,0 -0.0242,-0.01337 -0.006,-0.01906 -0.0312,-0.03125 -0.0248,-0.01219 -0.006,0.01097 -0.0312,0 -0.0254,-0.01097 -0.005,-0.02152 -0.0312,-0.03125 -0.0259,-0.0097 -0.005,0.0085 -0.0312,0 -0.0264,-0.0085 -0.005,0.0072 -0.0312,0 -0.0267,-0.0072 -0.004,-0.02536 -0.0312,-0.03125 -0.0271,-0.0059 -0.004,0.0046 -0.0312,0 -0.0273,-0.0046 -0.004,0.0033 -0.0312,0 -0.0275,-0.0033 -0.004,0.0019 -0.0312,0 -0.0276,-0.0019 -0.0348,5.87e-4 -0.0625,0 -0.0277,-5.87e-4 -0.004,-7.49e-4 -0.0312,0 -0.0166,0.0018 -0.0291,-2.88e-4 -0.0312,0 -0.002,2.88e-4 -0.0148,-0.0027 -0.0312,0 -0.0329,0.0055 10e-4,-0.0074 -0.0312,0 z" />
      <path
         inkscape:connector-curvature="0"
         style="color:#000000;fill:#008080;fill-opacity:1;fill-rule:nonzero;stroke:none;stroke-width:1;marker:none;visibility:visible;display:inline;overflow:visible;enable-background:accumulate"
         id="path3691"
         d="m 46.404733,50.70145 -17.23981,10.493732 11.66544,9.89655 17.04163,-10.499999 -11.46726,-9.890283 z" />
      <path
         inkscape:connector-curvature="0"
         style="fill:#008080;fill-opacity:1;stroke:none"
         id="path3698"
         d="m 40.294881,92.101137 0.17256,-19.753556 16.86257,-10.287716 0,18.022842 -17.03513,12.01843 z" />
      <path
         inkscape:connector-curvature="0"
         style="fill:#008080;fill-opacity:1;stroke:none"
         id="path3702"
         d="m 56.843104,102.28295 -0.0628,-19.753552 -16.917434,-10.342575 0,18.297133 16.980274,11.798994 z" />
      <path
         inkscape:connector-curvature="0"
         style="opacity:0.6;fill:#008080;fill-opacity:1;stroke:none"
         id="path3704"
         d="m 57.449587,103.90689 -0.1547,-20.884842 17.01728,-10.597115 0,19.724565 -16.86258,11.757392 z" />
      <path
         inkscape:connector-curvature="0"
         style="color:#000000;fill:#008080;fill-opacity:1;fill-rule:nonzero;stroke:none;stroke-width:1;marker:none;visibility:visible;display:inline;overflow:visible;enable-background:accumulate"
         id="path3696"
         d="m 69.229723,50.734359 -11.77516,9.457676 17.15134,10.938871 11.66545,-9.896549 -17.04163,-10.499998 z" />
      <path
         inkscape:connector-curvature="0"
         style="opacity:0.05;color:#000000;fill:#00ffff;fill-opacity:1;fill-rule:nonzero;stroke:none;stroke-width:1;marker:none;visibility:visible;display:inline;overflow:visible;enable-background:accumulate"
         id="path3771"
         d="m 45.06648,47.886932 a 1.0566354,1.0566354 0 0 0 -0.375,0.09375 c -3.23685,1.54755 -6.05989,3.67115 -9,5.3125 a 1.0566354,1.0566354 0 0 0 -0.0625,0.03125 c -3.18787,2.02748 -6.65486,3.863874 -9.84375,6.15625 a 1.0566354,1.0566354 0 0 0 -0.1875,0.1875 c -0.54835,0.672318 -0.8438,1.418183 -0.84375,2.15625 4e-5,0.738067 0.27353,1.397495 0.625,1.9375 0.66688,1.024626 1.59993,1.732206 2.3125,2.3125 0.0357,0.0421 0.0881,0.08334 0.125,0.125 1.12209,1.268007 2.75172,2.316708 4.15625,3.375 1.24355,0.936997 1.90644,1.777735 2.1875,2.3125 -2.92618,2.395535 -6.05892,4.644332 -8.90625,7.3125 a 1.0566354,1.0566354 0 0 0 -0.21875,0.28125 c -0.45936,0.84228 -0.59307,1.719223 -0.40625,2.5 0.18682,0.780777 0.64554,1.39124 1.15625,1.875 1.02143,0.967519 2.3166,1.579911 3.09375,2.09375 a 1.0566354,1.0566354 0 0 0 0.0312,0 c 2.54666,1.628596 5.09053,3.224665 7.59375,4.875 -0.0587,1.185825 0.25115,2.287626 0.9375,3.0625 0.82555,0.932024 1.91665,1.547898 2.84375,2.03125 l 0,0.03125 c 0.0376,0.02635 0.0874,0.03613 0.125,0.0625 5.01415,3.51744 9.97326,7.187758 15.125,10.562498 a 1.0566354,1.0566354 0 0 0 0.3125,0.15625 c 1.51314,0.42354 2.85485,-0.21468 3.84375,-0.90625 0.9889,-0.69157 1.81878,-1.45675 2.5,-1.8125 a 1.0566354,1.0566354 0 0 0 0.125,-0.0937 c 4.67167,-3.38712 9.54982,-6.533299 14.21875,-10.062498 a 1.0566354,1.0566354 0 0 0 0.3125,-0.375 c 0.56722,-1.138897 0.67565,-2.190772 0.90625,-2.8125 0.2306,-0.621728 0.36201,-0.856583 1.375,-1.125 a 1.0566354,1.0566354 0 0 0 0.3125,-0.15625 c 2.90902,-1.924154 6.08098,-3.643556 8.96875,-5.875 a 1.0566354,1.0566354 0 0 0 0.21875,-0.25 c 0.86933,-1.263538 0.66808,-2.780629 0.0312,-3.8125 -0.595,-0.96409 -1.49574,-1.616524 -2.3125,-2.125 l 0.0312,-0.03125 c -0.0534,-0.04801 -0.13331,-0.07706 -0.1875,-0.125 -2.19917,-1.945544 -4.86342,-3.816418 -6.53125,-5.5 2.90697,-2.521705 6.00443,-4.948344 8.8125,-7.6875 a 1.0566354,1.0566354 0 0 0 0.1875,-0.28125 c 0.48028,-0.93358 0.58768,-1.894688 0.3125,-2.71875 -0.27518,-0.824062 -0.83601,-1.452903 -1.4375,-1.9375 -1.20298,-0.969195 -2.71936,-1.597253 -3.46875,-2.125 a 1.0566354,1.0566354 0 0 0 -0.0625,-0.03125 c -4.80036,-2.882857 -9.53156,-5.898466 -14.4375,-8.6875 a 1.0566354,1.0566354 0 0 0 -0.3125,-0.125 c -1.61349,-0.34663 -2.94162,0.454024 -3.875,1.28125 -0.93338,0.827226 -1.68778,1.705829 -2.34375,2.09375 a 1.0566354,1.0566354 0 0 0 -0.0624,0.0312 c -1.26766,0.882218 -2.43439,2.098856 -3.5625,3.125 -0.98878,0.8994 -1.90364,1.470685 -2.65625,1.78125 -3.21186,-2.634171 -6.2603,-5.648222 -9.75,-8.15625 a 1.0566354,1.0566354 0 0 0 -0.21875,-0.125 c -0.68555,-0.277774 -1.28184,-0.216781 -1.625,-0.21875 a 1.0566354,1.0566354 0 0 0 -0.0937,0 z" />
      <path
         inkscape:connector-curvature="0"
         style="opacity:0.1;color:#000000;fill:#00ffff;fill-opacity:1;fill-rule:nonzero;stroke:none;stroke-width:1;marker:none;visibility:visible;display:inline;overflow:visible;enable-background:accumulate"
         id="path3746"
         d="m 45.16023,48.949432 c -3.11202,1.487868 -5.94727,3.586995 -8.96867,5.273724 -3.23813,2.059448 -6.67364,3.867277 -9.78133,6.101276 -1.71802,2.106431 0.61501,3.833892 2.09633,5.054956 1.89773,2.238169 6.70905,4.47438 7.04658,6.714937 -3.16527,2.655087 -6.57596,5.07096 -9.58041,7.886357 -1.45963,2.676372 1.74974,3.931457 3.5048,5.091872 2.67928,1.713407 5.37604,3.400011 8.02645,5.158128 -0.71134,2.376744 1.56576,3.91405 3.375,4.84375 5.06509,3.550629 10.09182,7.246038 15.25,10.624998 2.261,0.63288 3.77062,-1.68276 5.55478,-2.61449 4.70261,-3.409548 9.59929,-6.575365 14.22647,-10.073008 0.93001,-1.867332 0.38408,-3.816775 2.93414,-4.49248 2.95858,-1.956932 6.11024,-3.688131 8.90961,-5.85127 1.28805,-1.872136 -0.57484,-3.689453 -2.09375,-4.59375 -2.37853,-2.139534 -5.81114,-4.272972 -7.5625,-6.40625 3.18905,-2.823848 6.59187,-5.478805 9.625,-8.4375 1.53236,-2.978632 -2.40605,-4.130045 -4.24293,-5.423641 -4.81633,-2.892446 -9.56952,-5.929885 -14.44457,-8.701359 -2.41775,-0.519413 -3.67588,2.183955 -5.47771,3.249508 -2.28418,1.589653 -4.63849,4.716994 -6.90477,5.327486 -3.48008,-2.784841 -6.6797,-6.025206 -10.27377,-8.608244 -0.39254,-0.159053 -0.80892,-0.122648 -1.21875,-0.125 z" />
      <path
         inkscape:connector-curvature="0"
         style="opacity:0.15;color:#000000;fill:#00ffff;fill-opacity:1;fill-rule:nonzero;stroke:none;stroke-width:1;marker:none;visibility:visible;display:inline;overflow:visible;enable-background:accumulate"
         id="path3728"
         d="m 45.31648,49.886932 a 0.80774307,0.80774307 0 0 0 -0.3125,0.125 c -5.86479,3.526154 -11.84453,7.141703 -17.6875,10.75 a 0.80774307,0.80774307 0 0 0 -0.21875,0.21875 c -0.27902,0.385356 -0.40175,0.921024 -0.28125,1.34375 0.1205,0.422726 0.38831,0.683668 0.625,0.90625 0.47338,0.445164 1.00818,0.778161 1.125,0.90625 a 0.80774307,0.80774307 0 0 0 0.0625,0.09375 c 2.95867,2.538312 5.98496,4.980459 8.875,7.53125 -0.0203,0.01581 -0.007,0.01411 -0.0312,0.03125 -0.23212,0.161903 -0.63652,0.425729 -1,0.8125 l -0.0312,-0.03125 c -3.14791,2.552255 -6.33195,5.061416 -9.46875,7.65625 a 0.80774307,0.80774307 0 0 0 -0.1875,0.21875 c -0.21936,0.383366 -0.29698,0.889951 -0.15625,1.28125 0.14073,0.391299 0.38662,0.654858 0.625,0.84375 0.47676,0.377784 1.01721,0.596198 1.1875,0.71875 a 0.80774307,0.80774307 0 0 0 0.0311,0.03125 c 3.33204,2.153237 6.70812,4.194981 9.96875,6.375 0.0681,0.426712 -0.0947,1.059797 -0.0312,1.96875 a 0.80774307,0.80774307 0 0 0 0.125,0.375 c 0.8194,1.228396 2.23627,1.687117 2.90625,2.28125 a 0.80774307,0.80774307 0 0 0 0.0625,0.0625 c 4.92014,3.434697 9.84247,6.959758 14.78125,10.343748 a 0.80774307,0.80774307 0 0 0 0.34375,0.125 c 0.82224,0.13677 1.4639,-0.29851 1.90625,-0.65625 0.44234,-0.35774 0.79005,-0.65743 1,-0.75 a 0.80774307,0.80774307 0 0 0 0.15625,-0.0937 c 5.08402,-3.644668 10.3027,-7.224186 15.375,-10.812498 a 0.80774307,0.80774307 0 0 0 0.125,-0.125 c 0.31983,-0.349054 0.43723,-0.78979 0.46875,-1.15625 0.0315,-0.36646 2e-4,-0.659642 -0.0312,-0.9375 -0.0587,-0.518709 -0.0286,-0.770646 0.0312,-0.875 3.68354,-2.377882 7.47048,-4.691123 11.125,-7.15625 a 0.80774307,0.80774307 0 0 0 0.3125,-0.34375 c 0.17911,-0.436276 0.14916,-0.969293 -0.0312,-1.34375 -0.18041,-0.374457 -0.43901,-0.616079 -0.6875,-0.8125 -0.49698,-0.392842 -0.99354,-0.694816 -1.09375,-0.8125 a 0.80774307,0.80774307 0 0 0 -0.125,-0.09375 c -2.9265,-2.395887 -5.89916,-4.713645 -8.75,-7.125 0.0189,-0.01522 0.009,-0.01485 0.0312,-0.03125 0.23278,-0.170322 0.64318,-0.403401 1,-0.8125 l 0.0312,0.0312 c 3.08466,-2.662992 6.2611,-5.304508 9.3125,-8.03125 a 0.80774307,0.80774307 0 0 0 0.1875,-0.25 c 0.19071,-0.410459 0.20983,-0.932534 0.0312,-1.3125 -0.17858,-0.379966 -0.46492,-0.607658 -0.71875,-0.78125 -0.50766,-0.347184 -1.01931,-0.58294 -1.15625,-0.6875 a 0.80774307,0.80774307 0 0 0 -0.0937,-0.03125 c -5.36046,-3.2265 -10.7152,-6.578018 -16.09375,-9.75 a 0.80774307,0.80774307 0 0 0 -0.28125,-0.125 c -0.84476,-0.121184 -1.45979,0.410057 -1.875,0.8125 -0.41521,0.402443 -0.77933,0.797274 -0.96875,0.90625 a 0.80774307,0.80774307 0 0 0 -0.125,0.0625 c -2.92826,2.482033 -5.78577,5.030986 -8.71875,7.4375 -0.0876,-0.042 -0.13776,-0.04278 -0.3125,-0.21875 -0.2388,-0.240476 -0.54976,-0.61283 -1,-0.90625 -0.0393,-0.03327 -0.0857,-0.06043 -0.125,-0.09375 -3.06387,-2.595365 -6.12847,-5.339778 -9.25,-7.875 a 0.80774307,0.80774307 0 0 0 -0.28125,-0.15625 c -0.26325,-0.07915 -0.47024,-0.06797 -0.625,-0.0625 a 0.80774307,0.80774307 0 0 0 -0.0625,0 z" />
      <path
         inkscape:connector-curvature="0"
         style="opacity:0.3;color:#000000;fill:#00ffff;fill-opacity:1;fill-rule:nonzero;stroke:none;stroke-width:1;marker:none;visibility:visible;display:inline;overflow:visible;enable-background:accumulate"
         id="path3720"
         d="m 45.11932,50.408523 c -0.0326,0.0074 8.4e-4,0.02199 -0.0312,0.03125 -0.0321,0.0093 -0.031,-0.01112 -0.0625,0 -0.0315,0.01112 -4.6e-4,0.01832 -0.0312,0.03125 -0.0308,0.01293 -10e-4,-0.0147 -0.0312,0 -0.03,0.0147 -0.002,0.01483 -0.0312,0.03125 -0.0291,0.01642 -0.003,-0.01809 -0.0312,0 a 0.49998753,0.49998753 0 0 1 -0.0312,0.03125 l -17.25,10.5 c -0.0289,0.01761 -0.004,-0.01928 -0.0312,0 -0.0278,0.01928 -0.005,0.01037 -0.0312,0.03125 -0.0266,0.02088 -0.006,0.0088 -0.0312,0.03125 -0.0253,0.02241 -0.007,0.0074 -0.0312,0.03125 -0.0239,0.02387 -0.009,0.006 -0.0312,0.03125 -0.0225,0.02524 -0.0103,0.0047 -0.0312,0.03125 -0.021,0.02652 -0.0119,0.0035 -0.0312,0.03125 -0.0194,0.02771 0.0177,0.0024 0,0.03125 -0.0177,0.0288 -0.0153,0.0015 -0.0312,0.03125 -0.016,0.02979 -0.0171,0.03182 -0.0312,0.0625 -0.0142,0.03068 0.0123,-2.17e-4 0,0.03125 -0.0123,0.03147 -0.0208,-8.9e-4 -0.0312,0.03125 -0.0105,0.03214 0.009,-0.0015 0,0.03125 -0.009,0.0327 0.007,0.02935 0,0.0625 -0.007,0.03315 0.005,-0.0022 0,0.03125 -0.005,0.03348 -0.0286,-0.0024 -0.0312,0.03125 -0.003,0.0337 6.8e-4,0.0287 0,0.0625 -6.8e-4,0.0338 -0.001,-0.0025 0,0.03125 10e-4,0.03378 -0.003,0.02886 0,0.0625 0.003,0.03364 0.026,-0.0021 0.0312,0.03125 0.005,0.03339 -0.007,-0.0018 0,0.03125 0.007,0.03302 -0.009,0.02996 0,0.0625 0.009,0.03254 0.0202,-6.9e-4 0.0312,0.03125 0.0111,0.03194 -0.0129,1.8e-5 0,0.03125 0.0129,0.03123 0.0165,8.35e-4 0.0312,0.03125 0.0147,0.03041 -0.0165,0.03301 0,0.0625 0.0165,0.02949 0.013,0.0028 0.0312,0.03125 0.0182,0.02847 0.0114,0.0039 0.0312,0.03125 0.0199,0.02734 0.01,0.0051 0.0312,0.03125 0.0214,0.02612 -0.023,0.0064 0,0.03125 0.023,0.02481 0.007,0.0078 0.0312,0.03125 0.0244,0.02342 0.006,0.0093 0.0312,0.03125 l 10.5,8.875 a 0.49998753,0.49998753 0 0 1 0,0.75 l -10.6875,8.59375 c -0.0263,0.02113 -0.006,0.0086 -0.0312,0.03125 -0.025,0.02263 -0.008,0.0072 -0.0312,0.03125 -0.0236,0.02406 -0.009,0.0058 -0.0312,0.03125 -0.0222,0.02541 -0.0106,0.0046 -0.0312,0.03125 -0.0206,0.02667 -0.0122,0.0034 -0.0312,0.03125 -0.019,0.02783 0.0173,0.0336 0,0.0625 -0.0173,0.0289 -0.0156,0.0014 -0.0312,0.03125 -0.0156,0.02987 -0.0174,5.13e-4 -0.0312,0.03125 -0.0138,0.03074 0.012,-2.46e-4 0,0.03125 -0.012,0.0315 -0.0211,-8.97e-4 -0.0312,0.03125 -0.0101,0.03215 0.008,0.02981 0,0.0625 -0.008,0.03269 0.006,-0.0019 0,0.03125 -0.006,0.03311 0.004,-0.0022 0,0.03125 -0.004,0.03343 -0.0289,0.02888 -0.0312,0.0625 -0.002,0.03362 3.8e-4,-0.0025 0,0.03125 -3.8e-4,0.0337 -0.002,0.02883 0,0.0625 0.002,0.03367 0.0277,-0.0023 0.0312,0.03125 0.004,0.03352 -0.006,-0.002 0,0.03125 0.006,0.03325 -0.007,0.02964 0,0.0625 0.007,0.03286 -0.009,-0.0011 0,0.03125 0.009,0.03237 0.02,-5.08e-4 0.0312,0.03125 0.0113,0.03176 -0.0131,2.11e-4 0,0.03125 0.0131,0.03104 0.0163,0.03229 0.0312,0.0625 0.0149,0.03021 -0.0167,0.002 0,0.03125 0.0167,0.02928 0.0129,0.003 0.0312,0.03125 0.0184,0.02825 0.0112,0.0041 0.0312,0.03125 0.02,0.02712 0.01,0.0054 0.0312,0.03125 0.0216,0.0259 0.008,0.0067 0.0312,0.03125 0.0231,0.02459 0.007,0.0081 0.0312,0.03125 0.0245,0.02319 0.006,0.0095 0.0312,0.03125 0.0258,0.02171 0.004,0.01109 0.0312,0.03125 0.0135,0.01008 0.0295,-0.0012 0.0312,0 l 11.40625,7.25 a 0.49998753,0.49998753 0 0 1 0.21875,0.4375 l -0.0312,1.375 a 0.49998753,0.49998753 0 0 1 -0.0312,0.1875 c -0.009,0.02251 -0.023,0.0084 -0.0312,0.03125 -0.008,0.02288 0.007,0.008 0,0.03125 -0.007,0.02322 0.006,0.0077 0,0.03125 -0.006,0.0235 0.005,0.0075 0,0.03125 -0.005,0.02375 -0.0269,0.0073 -0.0312,0.03125 -0.004,0.02396 0.003,0.0071 0,0.03125 -0.003,0.02412 0.002,0.007 0,0.03125 -0.002,0.02423 10e-4,0.0069 0,0.03125 -10e-4,0.02431 1.9e-4,0.0069 0,0.03125 -1.9e-4,0.02434 -8.5e-4,0.0069 0,0.03125 8.4e-4,0.02432 -0.002,0.007 0,0.03125 0.002,0.02426 -0.003,0.0071 0,0.03125 0.003,0.02416 -0.004,0.0072 0,0.03125 0.004,0.02402 0.0263,0.0074 0.0312,0.03125 0.006,0.0236 -0.007,0.0079 0,0.03125 0.007,0.02332 -0.008,0.0082 0,0.03125 0.008,0.02301 0.0223,0.0086 0.0312,0.03125 0.009,0.02265 -0.01,0.009 0,0.03125 0.01,0.02225 -0.0108,0.0094 0,0.03125 0.0108,0.02181 0.0195,0.0099 0.0312,0.03125 0.0117,0.02134 -0.0126,0.01043 0,0.03125 0.0126,0.02082 0.0178,0.01098 0.0312,0.03125 0.0143,0.01968 0.0161,0.0122 0.0312,0.03125 0.0152,0.01905 0.0153,0.01286 0.0312,0.03125 0.0159,0.01839 -0.0167,0.01355 0,0.03125 0.0167,0.0177 0.0138,-0.01697 0.0312,0 0.0174,0.01697 0.0131,0.01503 0.0312,0.03125 0.0181,0.01622 -0.0188,0.01582 0,0.03125 0.0188,0.01543 0.0118,-0.01462 0.0312,0 0.0195,0.01462 0.0112,0.01747 0.0312,0.03125 l 17.0625,11.999997 c 0.018,0.0127 0.0128,-0.012 0.0312,0 0.0185,0.012 0.0123,0.02 0.0312,0.0312 0.0193,0.0105 0.0115,0.0215 0.0312,0.0312 0.0197,0.01 0.0112,-0.009 0.0312,0 0.0201,0.009 0.0108,-0.008 0.0312,0 0.0204,0.008 0.0105,0.0238 0.0312,0.0312 0.0207,0.007 0.0103,-0.007 0.0312,0 0.0212,0.006 0.01,0.0262 0.0312,0.0312 0.0214,0.005 0.01,-0.004 0.0312,0 0.0216,0.004 0.01,-0.003 0.0312,0 0.0217,0.003 0.009,-0.002 0.0312,0 0.0219,0.002 0.009,-0.002 0.0312,0 0.022,0.002 0.009,-8.4e-4 0.0312,0 0.022,8.4e-4 0.009,0 0.0312,0 0.022,-8.4e-4 0.009,0.002 0.0312,0 0.022,-0.002 0.009,0.002 0.0312,0 0.0219,-0.002 0.01,0.003 0.0312,0 0.0217,-0.003 0.01,0.004 0.0312,0 0.0216,-0.004 0.01,0.005 0.0312,0 0.0214,-0.005 0.01,-0.0254 0.0312,-0.0312 0.021,-0.007 0.0105,0.007 0.0312,0 0.0207,-0.007 0.0108,-0.023 0.0312,-0.0312 0.0204,-0.008 0.0112,0.009 0.0312,0 0.0201,-0.009 0.0115,0.01 0.0312,0 0.0197,-0.01 0.0119,-0.0207 0.0312,-0.0312 0.0189,-0.0113 0.0128,-0.0193 0.0312,-0.0312 0.0185,-0.012 0.0133,0.0127 0.0312,0 l 10.59375,-7.499997 a 0.49998753,0.49998753 0 0 1 0.0312,0 0.49998753,0.49998753 0 0 1 0.0625,-0.0625 0.49998753,0.49998753 0 0 1 0.0312,0 l 0.0625,-0.03125 6.15625,-4.3125 a 0.49998753,0.49998753 0 0 1 0.0312,-0.03125 c 0.0227,-0.01366 0.009,0.01469 0.0312,0 0.022,-0.01469 0.01,-0.01555 0.0312,-0.03125 a 0.49998753,0.49998753 0 0 1 0.0328,-0.03125 c 0.0183,-0.01034 0.0134,0.011 0.0312,0 0.009,-0.0055 0.0301,7.24e-4 0.0312,0 0.001,-7.24e-4 -0.009,-0.02543 0,-0.03125 0.017,-0.01228 0.0147,-0.01835 0.0312,-0.03125 a 0.49998753,0.49998753 0 0 1 0.0625,-0.0625 0.49998753,0.49998753 0 0 1 0.0312,-0.03125 c 0.0185,-0.01903 -0.0176,-0.01139 0,-0.03125 0.0176,-0.01986 0.0146,-0.0106 0.0312,-0.03125 0.0166,-0.02065 0.0156,-0.0098 0.0312,-0.03125 0.0146,-0.0221 0.0176,-0.0085 0.0312,-0.03125 0.0136,-0.02276 -0.0125,-0.0079 0,-0.03125 0.0125,-0.02336 0.0198,-0.0073 0.0312,-0.03125 0.0114,-0.02392 -0.0103,-0.0068 0,-0.03125 0.0103,-0.02442 0.0221,-0.0064 0.0312,-0.03125 0.009,-0.02487 -0.008,-0.006 0,-0.03125 0.008,-0.02527 -0.007,-0.0056 0,-0.03125 0.007,-0.02562 -0.006,-0.0053 0,-0.03125 0.006,-0.0259 0.0268,-0.0051 0.0312,-0.03125 0.005,-0.02614 -0.003,-0.0049 0,-0.03125 0.003,-0.02632 -0.002,-0.0048 0,-0.03125 0.002,-0.02644 -8e-4,-0.0047 0,-0.03125 l -0.0312,-2.03125 a 0.49998753,0.49998753 0 0 1 0.21875,-0.4375 l 11.06295,-7.03125 c 0.002,-0.0012 0.0177,0.01008 0.0312,0 0.027,-0.02016 0.006,-0.0095 0.0312,-0.03125 0.0258,-0.02171 0.007,-0.0081 0.0312,-0.03125 0.0245,-0.02319 0.008,-0.0067 0.0312,-0.03125 0.0231,-0.02459 0.01,-0.0054 0.0312,-0.03125 0.0216,-0.0259 0.0112,-0.0041 0.0312,-0.03125 0.02,-0.02712 0.0129,-0.003 0.0312,-0.03125 0.0184,-0.02825 0.0146,-0.002 0.0312,-0.03125 0.0167,-0.02928 -0.0149,-0.001 0,-0.03125 0.0149,-0.03021 0.0181,-0.03146 0.0312,-0.0625 0.0131,-0.03104 -0.0113,5.08e-4 0,-0.03125 0.0113,-0.03176 0.0218,0.0011 0.0312,-0.03125 0.009,-0.03237 -0.007,0.0016 0,-0.03125 0.007,-0.03286 -0.006,-0.02925 0,-0.0625 0.006,-0.03325 -0.004,0.0023 0,-0.03125 0.004,-0.03352 0.0297,0.0024 0.0312,-0.03125 0.002,-0.03367 3.8e-4,-0.0288 0,-0.0625 -3.8e-4,-0.0337 0.002,0.0024 0,-0.03125 -0.002,-0.03362 -0.0269,-0.02907 -0.0312,-0.0625 -0.004,-0.03343 0.006,0.0019 0,-0.03125 -0.006,-0.03311 0.008,0.0014 0,-0.03125 -0.008,-0.03269 0.0101,-0.03035 0,-0.0625 -0.0101,-0.03215 -0.0192,2.46e-4 -0.0312,-0.03125 -0.012,-0.0315 0.0138,-5.13e-4 0,-0.03125 -0.0138,-0.03074 -0.0156,-0.0014 -0.0312,-0.03125 -0.0156,-0.02987 -0.0139,-0.0023 -0.0312,-0.03125 -0.0173,-0.0289 0.019,-0.03467 0,-0.0625 -0.019,-0.02783 -0.0106,-0.0046 -0.0312,-0.03125 -0.0206,-0.02667 -0.009,-0.0058 -0.0312,-0.03125 -0.0222,-0.02541 -0.008,-0.0072 -0.0312,-0.03125 -0.0236,-0.02406 -0.006,-0.0086 -0.0312,-0.03125 -0.025,-0.02263 -0.005,-0.01012 -0.0312,-0.03125 l -10.5625,-8.5 a 0.49998753,0.49998753 0 0 1 0,-0.75 l 10.5,-8.9375 c 0.0257,-0.02194 0.007,-0.0078 0.0312,-0.03125 0.0244,-0.02342 0.008,-0.0064 0.0312,-0.03125 0.023,-0.02481 -0.0214,-0.0051 0,-0.03125 0.0214,-0.02612 0.0114,-0.0039 0.0312,-0.03125 0.0199,-0.02734 0.013,-0.0028 0.0312,-0.03125 0.0182,-0.02847 0.0147,-0.0018 0.0312,-0.03125 0.0165,-0.02949 -0.0147,-0.03209 0,-0.0625 0.0147,-0.03041 0.0183,-1.8e-5 0.0312,-0.03125 0.0129,-0.03123 -0.0111,6.9e-4 0,-0.03125 0.0111,-0.03194 0.0221,0.0013 0.0312,-0.03125 0.009,-0.03254 -0.007,-0.02948 0,-0.0625 0.007,-0.03302 -0.005,0.0021 0,-0.03125 0.005,-0.03339 0.028,0.0024 0.0312,-0.03125 0.003,-0.03364 -0.001,-0.02872 0,-0.0625 0.001,-0.03378 6.8e-4,0.0025 0,-0.03125 -6.8e-4,-0.0338 0.003,-0.0288 0,-0.0625 -0.003,-0.0337 -0.0266,0.0022 -0.0312,-0.03125 -0.005,-0.03348 0.007,0.0019 0,-0.03125 -0.007,-0.03315 0.009,-0.0298 0,-0.0625 -0.009,-0.0327 0.0105,8.9e-4 0,-0.03125 -0.0105,-0.03214 -0.0189,2.17e-4 -0.0312,-0.03125 -0.0123,-0.03147 0.0142,-5.66e-4 0,-0.03125 -0.0142,-0.03068 -0.0153,-0.03271 -0.0312,-0.0625 -0.016,-0.02979 -0.0136,-0.0024 -0.0312,-0.03125 -0.0177,-0.0288 0.0194,-0.0035 0,-0.03125 -0.0194,-0.02771 -0.0103,-0.0047 -0.0312,-0.03125 -0.021,-0.02652 -0.009,-0.006 -0.0312,-0.03125 -0.0225,-0.02524 -0.007,-0.0074 -0.0312,-0.03125 -0.0239,-0.02387 -0.006,-0.0088 -0.0312,-0.03125 -0.0253,-0.02241 -0.005,-0.01037 -0.0312,-0.03125 -0.0266,-0.02088 -0.004,-0.01197 -0.0312,-0.03125 -0.0278,-0.01928 -0.002,0.01761 -0.0312,0 l -17.25,-10.46875 c -0.0188,-0.01153 -0.012,-0.02046 -0.0312,-0.03125 -0.0192,-0.01079 -0.0116,0.01004 -0.0312,0 -0.0197,-0.01004 -0.0112,-0.02197 -0.0312,-0.03125 -0.02,-0.0093 -0.0109,0.0085 -0.0312,0 -0.0207,-0.0077 -0.0103,-0.02434 -0.0312,-0.03125 -0.021,-0.0069 -0.01,0.0061 -0.0312,0 -0.0212,-0.0061 -0.01,0.0053 -0.0312,0 -0.0214,-0.0053 -0.01,0.0044 -0.0312,0 -0.0216,-0.0044 -0.01,0.0036 -0.0312,0 -0.0218,-0.0036 0.0219,-0.02848 0,-0.03125 -0.0219,-0.0028 -0.009,0.0019 -0.0312,0 -0.022,-0.0019 -0.009,0.0011 -0.0312,0 -0.022,-0.0011 -0.009,2.3e-4 -0.0312,0 -0.0221,-2.3e-4 -0.009,-6.19e-4 -0.0312,0 -0.0221,6.19e-4 -0.009,-0.0015 -0.0312,0 -0.022,0.0015 -0.009,-0.0023 -0.0312,0 -0.022,0.0023 -0.009,-0.0032 -0.0312,0 -0.0218,0.0032 -0.01,0.02725 -0.0312,0.03125 -0.0215,0.0048 -0.01,-0.0057 -0.0312,0 -0.0213,0.0057 -0.0102,-0.0065 -0.0312,0 -0.0211,0.0065 -0.0104,0.02397 -0.0312,0.03125 -0.0208,0.0073 -0.0107,-0.0081 -0.0312,0 -0.0205,0.0081 -0.011,-0.0089 -0.0312,0 -0.0202,0.0089 0.0199,0.02162 0,0.03125 -0.0199,0.0096 -0.0118,-0.01039 -0.0312,0 -0.0195,0.01039 -0.0122,-0.01113 -0.0312,0 -0.0191,0.01113 -0.0126,0.01939 -0.0312,0.03125 -0.0181,0.01256 -0.0136,0.018 -0.0312,0.03125 -0.0177,0.01325 -0.0141,-0.01392 -0.0312,0 l -10.59375,9.125 a 0.49998753,0.49998753 0 0 1 -0.625,0 l -10.6875,-9.1875 c -0.0212,-0.01778 -0.009,0.01673 -0.0312,0 -0.0221,-0.01673 -0.008,-0.0156 -0.0312,-0.03125 -0.0228,-0.01565 -0.008,-0.01672 -0.0312,-0.03125 -0.0236,-0.01453 -0.007,0.01337 -0.0312,0 -0.0242,-0.01337 -0.006,-0.01906 -0.0312,-0.03125 -0.0248,-0.01219 -0.006,0.01097 -0.0312,0 -0.0254,-0.01097 -0.005,-0.02152 -0.0312,-0.03125 -0.0259,-0.0097 -0.005,0.0085 -0.0312,0 -0.0264,-0.0085 -0.005,0.0072 -0.0312,0 -0.0267,-0.0072 -0.004,-0.02536 -0.0312,-0.03125 -0.0271,-0.0059 -0.004,0.0046 -0.0312,0 -0.0273,-0.0046 -0.004,0.0033 -0.0312,0 -0.0275,-0.0033 -0.004,0.0019 -0.0312,0 -0.0276,-0.0019 -0.0348,5.87e-4 -0.0625,0 -0.0277,-5.87e-4 -0.004,-7.49e-4 -0.0312,0 -0.0166,0.0018 -0.0291,-2.88e-4 -0.0312,0 -0.002,2.88e-4 -0.0148,-0.0027 -0.0312,0 -0.0329,0.0055 0.001,-0.0074 -0.0312,0 z" />
      <path
         inkscape:connector-curvature="0"
         style="opacity:0.6;fill:#008080;fill-opacity:1;stroke:none"
         id="path3700"
         d="m 74.125391,93.143265 0.1547,-20.884847 -17.017277,-10.597121 0,19.724571 16.862577,11.757397 z" />
      <path
         inkscape:connector-curvature="0"
         style="color:#000000;fill:#00ffff;fill-opacity:1;fill-rule:nonzero;stroke:none;stroke-width:1;marker:none;visibility:visible;display:inline;overflow:visible;enable-background:accumulate"
         id="rect3688-2"
         d="M 37.954837,71.205051 57.989898,83.40023 44.433032,94.901404 24.628283,82.698939 37.954837,71.205051 z" />
      <path
         inkscape:connector-curvature="0"
         style="opacity:0.70833333;color:#000000;fill:#008080;fill-opacity:1;fill-rule:nonzero;stroke:none;stroke-width:1;marker:none;visibility:visible;display:inline;overflow:visible;enable-background:accumulate"
         id="rect3688"
         d="M 38.078734,71.701764 56.54835,82.944069 44.050753,93.546595 25.793455,82.297572 38.078734,71.701764 z" />
      <path
         inkscape:connector-curvature="0"
         style="color:#000000;fill:#00ffff;fill-opacity:1;fill-rule:nonzero;stroke:none;stroke-width:1;marker:none;visibility:visible;display:inline;overflow:visible;enable-background:accumulate"
         id="rect3693-0"
         d="M 75.412164,72.129 88.027061,82.261134 69.652591,93.980092 57.155239,83.377788 75.412164,72.129 z" />
      <path
         inkscape:connector-curvature="0"
         style="opacity:0.77083333;color:#000000;fill:#008080;fill-opacity:1;fill-rule:nonzero;stroke:none;stroke-width:1;marker:none;visibility:visible;display:inline;overflow:visible;enable-background:accumulate"
         id="rect3693"
         d="m 75.125972,72.55254 11.77517,9.457676 -17.15135,10.938871 -11.66545,-9.896549 17.04163,-10.499998 z" />
    </g>
  </g>
</svg>
