/* XPM */
static char * lock_xpm[] = {
"24 24 175 2",
"  	c None",
". 	c #00C3C3",
"+ 	c #008484",
"@ 	c #008383",
"# 	c #008585",
"$ 	c #008282",
"% 	c #000202",
"& 	c #000505",
"* 	c #000707",
"= 	c #010909",
"- 	c #011B1B",
"; 	c #013E3E",
"> 	c #015D5D",
", 	c #006F6F",
"' 	c #007171",
") 	c #006565",
"! 	c #014949",
"~ 	c #012626",
"{ 	c #010C0C",
"] 	c #010808",
"^ 	c #000404",
"/ 	c #000303",
"( 	c #010E0E",
"_ 	c #011010",
": 	c #012727",
"< 	c #016969",
"[ 	c #009F9F",
"} 	c #00B2B2",
"| 	c #00B4B4",
"1 	c #00B3B3",
"2 	c #00A9A9",
"3 	c #007F7F",
"4 	c #013939",
"5 	c #011111",
"6 	c #010D0D",
"7 	c #011818",
"8 	c #014D4D",
"9 	c #00A1A1",
"0 	c #00B9B9",
"a 	c #00B0B0",
"b 	c #00A7A7",
"c 	c #009E9E",
"d 	c #009D9D",
"e 	c #00A0A0",
"f 	c #00A5A5",
"g 	c #00ADAD",
"h 	c #00B8B8",
"i 	c #016A6A",
"j 	c #011D1D",
"k 	c #010F0F",
"l 	c #008686",
"m 	c #000808",
"n 	c #015C5C",
"o 	c #00B7B7",
"p 	c #009595",
"q 	c #008F8F",
"r 	c #008B8B",
"s 	c #008A8A",
"t 	c #008D8D",
"u 	c #009393",
"v 	c #009B9B",
"w 	c #00A6A6",
"x 	c #00BCBC",
"y 	c #017F7F",
"z 	c #000606",
"A 	c #010A0A",
"B 	c #00A8A8",
"C 	c #009A9A",
"D 	c #008E8E",
"E 	c #009797",
"F 	c #00A4A4",
"G 	c #00BFBF",
"H 	c #016F6F",
"I 	c #012222",
"J 	c #00BEBE",
"K 	c #00ABAB",
"L 	c #008C8C",
"M 	c #007E7E",
"N 	c #008989",
"O 	c #00D5D5",
"P 	c #00ECEC",
"Q 	c #00E1E1",
"R 	c #009999",
"S 	c #007B7B",
"T 	c #008888",
"U 	c #013F3F",
"V 	c #010707",
"W 	c #008787",
"X 	c #016060",
"Y 	c #00C2C2",
"Z 	c #009090",
"` 	c #008080",
" .	c #006E6E",
"..	c #00ACAC",
"+.	c #00E6E6",
"@.	c #00D1D1",
"#.	c #00CCCC",
"$.	c #009C9C",
"%.	c #00AEAE",
"&.	c #011313",
"*.	c #00C0C0",
"=.	c #009898",
"-.	c #007474",
";.	c #006161",
">.	c #00AFAF",
",.	c #004747",
"'.	c #003E3E",
").	c #00AAAA",
"!.	c #00D2D2",
"~.	c #006363",
"{.	c #007070",
"].	c #008181",
"^.	c #00BABA",
"/.	c #00BBBB",
"(.	c #013030",
"_.	c #012F2F",
":.	c #009191",
"<.	c #006A6A",
"[.	c #005656",
"}.	c #00CDCD",
"|.	c #003939",
"1.	c #002F2F",
"2.	c #00A3A3",
"3.	c #00CECE",
"4.	c #005858",
"5.	c #007979",
"6.	c #00C6C6",
"7.	c #00B5B5",
"8.	c #007676",
"9.	c #007C7C",
"0.	c #00DDDD",
"a.	c #00EBEB",
"b.	c #00DADA",
"c.	c #00BDBD",
"d.	c #007D7D",
"e.	c #015858",
"f.	c #00C5C5",
"g.	c #007272",
"h.	c #00FBFB",
"i.	c #00FFFF",
"j.	c #006D6D",
"k.	c #00C4C4",
"l.	c #006C6C",
"m.	c #014848",
"n.	c #012D2D",
"o.	c #015A5A",
"p.	c #011212",
"q.	c #009696",
"r.	c #00FCFC",
"s.	c #015B5B",
"t.	c #00A2A2",
"u.	c #00FEFE",
"v.	c #00C1C1",
"w.	c #012020",
"x.	c #009494",
"y.	c #013A3A",
"z.	c #014343",
"A.	c #007575",
"B.	c #009292",
"C.	c #00B1B1",
"D.	c #016666",
"E.	c #011616",
"F.	c #015252",
"G.	c #00B6B6",
"H.	c #017373",
"I.	c #011A1A",
"J.	c #014444",
"K.	c #015F5F",
"L.	c #011919",
"M.	c #012121",
"N.	c #011515",
"O.	c #013535",
"P.	c #005252",
"Q.	c #006464",
"R.	c #011E1E",
". + @ + + # # # + $ $ $ $ $ $ + # # # + + @ + . ",
"# % % & * = = = - ; > , ' ) ! ~ { ] = * ^ % % # ",
"+ / & = ( _ : < [ } | 1 1 | | 2 3 4 5 6 ] ^ % + ",
"# & = 5 7 8 9 0 a b 9 c d e f g h a i j k ] ^ # ",
"l m ( 7 n | o 2 c p q r s t u v w 1 x y j { z # ",
"l A _ ! | h B C D + + s s l $ r E F 1 G H _ m l ",
"l A I [ J K v L M N O P P Q R S T E b 0 h U V l ",
"W = X Y 1 9 Z `  ...+.Z N @.#., S r $.%.. D 6 l ",
"l &.$.*.K =.l -.;.>.@.,.'.).!.~.{.].u w ^./.(.@ ",
"+ _.^.0 F :.M <.[.2 }.|.1.2.3.4.) 5.L [ 1 6.> $ ",
"@ ! . 7.e L 8.9.o 0.a.>.).b.P c.L ' W v >.6.d.+ ",
"@ e.f.} c N g.q h.i.i.i.i.i.i.i.>.j.+ =.g k.t W ",
"@ e.f.} d N ' q h.i.i.i.i.i.i.i.>.l.+ =.g k.L W ",
"@ m.Y | [ r -.:.h.i.i.i.i.i.i.i.a , l C %.f.S + ",
"+ n.o h 2.q 5.p h.i.i.i.i.i.i.i.| -.s c } k.o.$ ",
"l p.=.G 2 q.].v r.i.i.i.i.i.i.i.h 9.:.F 0 o n.+ ",
"l = s.G a c s t.h.i.u.u.u.u.u.i.x l C ..v.T { l ",
"l A w.R /.B E x.g 2 F t.9 2.B %.v u F o 1 y.V l ",
"l A _ z.g 7.F q.T M 8.g.g.A.9.# B.9 C.^.D.k m l ",
"l * ( E.F.K | f C :.s W W N q =.t.a G.H.I.{ z # ",
"# & = _ E.J.p } ..2.$.R R v 9 ).1 w K.L.( ] ^ # ",
"+ % ^ = 6 k M.> B.2 g g g g ..d ' _.k { ] / % + ",
"# / / & * = = ] N.O.P.;.Q.4.U R.A ] = * ^ % / # ",
"6.T W T N N N N T W l l l l l T N N N N T W T 6."};
