/* XPM */
static char * go_top_xpm[] = {
"24 24 142 2",
"  	c None",
". 	c #00C3C3",
"+ 	c #008484",
"@ 	c #008383",
"# 	c #008585",
"$ 	c #009E9E",
"% 	c #00ACAC",
"& 	c #00ABAB",
"* 	c #00A8A8",
"= 	c #008B8B",
"- 	c #000202",
"; 	c #000505",
"> 	c #000707",
", 	c #010C0C",
"' 	c #00A3A3",
") 	c #00EBEB",
"! 	c #00E8E8",
"~ 	c #00E9E9",
"{ 	c #00D8D8",
"] 	c #013737",
"^ 	c #000404",
"/ 	c #000303",
"( 	c #010909",
"_ 	c #010E0E",
": 	c #011515",
"< 	c #00AFAF",
"[ 	c #00F7F7",
"} 	c #00F4F4",
"| 	c #00F3F3",
"1 	c #00F2F2",
"2 	c #00F5F5",
"3 	c #00E5E5",
"4 	c #014040",
"5 	c #010A0A",
"6 	c #010808",
"7 	c #011111",
"8 	c #011919",
"9 	c #011E1E",
"0 	c #014545",
"a 	c #015959",
"b 	c #015656",
"c 	c #017676",
"d 	c #008E8E",
"e 	c #015858",
"f 	c #015353",
"g 	c #012727",
"h 	c #011717",
"i 	c #011010",
"j 	c #008686",
"k 	c #000808",
"l 	c #010F0F",
"m 	c #012222",
"n 	c #012626",
"o 	c #012424",
"p 	c #014242",
"q 	c #00C7C7",
"r 	c #00EAEA",
"s 	c #007070",
"t 	c #012525",
"u 	c #012020",
"v 	c #010D0D",
"w 	c #000606",
"x 	c #011313",
"y 	c #002B2B",
"z 	c #002D2D",
"A 	c #004545",
"B 	c #00C5C5",
"C 	c #00FFFF",
"D 	c #011C1C",
"E 	c #010B0B",
"F 	c #012121",
"G 	c #012929",
"H 	c #002E2E",
"I 	c #002C2C",
"J 	c #004343",
"K 	c #00C1C1",
"L 	c #00E7E7",
"M 	c #006D6D",
"N 	c #012828",
"O 	c #011F1F",
"P 	c #011212",
"Q 	c #008787",
"R 	c #011616",
"S 	c #002A2A",
"T 	c #004141",
"U 	c #00BEBE",
"V 	c #006969",
"W 	c #004040",
"X 	c #00B6B6",
"Y 	c #00FAFA",
"Z 	c #00FDFD",
"` 	c #00DEDE",
" .	c #006565",
"..	c #005858",
"+.	c #007D7D",
"@.	c #006161",
"#.	c #00BABA",
"$.	c #00FBFB",
"%.	c #00FCFC",
"&.	c #00E2E2",
"*.	c #006A6A",
"=.	c #007474",
"-.	c #007272",
";.	c #003333",
">.	c #011414",
",.	c #002727",
"'.	c #00F0F0",
").	c #003131",
"!.	c #006363",
"~.	c #009898",
"{.	c #004747",
"].	c #00DBDB",
"^.	c #00DADA",
"/.	c #003535",
"(.	c #00D0D0",
"_.	c #00CFCF",
":.	c #00C6C6",
"<.	c #005454",
"[.	c #00C4C4",
"}.	c #003E3E",
"|.	c #006C6C",
"1.	c #00B8B8",
"2.	c #009494",
"3.	c #005252",
"4.	c #007777",
"5.	c #009595",
"6.	c #00A2A2",
"7.	c #005C5C",
"8.	c #007F7F",
"9.	c #009292",
"0.	c #004646",
"a.	c #011B1B",
"b.	c #011818",
"c.	c #006767",
"d.	c #008080",
"e.	c #013333",
"f.	c #014D4D",
"g.	c #006868",
"h.	c #013131",
"i.	c #014848",
"j.	c #008888",
"k.	c #008989",
". + @ + + # $ % & & & & & & & & & * = + + @ + . ",
"# - - ; > , ' ) ! ! ! ! ! ! ! ! ~ { ] ^ ^ - - # ",
"+ / ; ( _ : < [ } } } | 1 } } } 2 3 4 5 6 ^ - + ",
"# ; ( 7 8 9 0 a a a b c d a e a a f g h i 6 ^ # ",
"j k l 8 m g g n n o p q r s o n n n t u h v w # ",
"j 5 x 9 g y z z y A B C C r s y z z y t D i k j ",
"j E : F G z H I J K C C C C L M y H I N O P ( j ",
"Q , R m S z I T U C C C C C C 3 V y z N u x 5 j ",
"Q , R m S I W X } Y C C C C Z 2 `  .I N u x 5 j ",
"Q , R m S z ..+.@.#.Z $.$.%.&.*.=.-.;.N u >.5 j ",
"Q , R m S H H S ,.Q '.'.'.1 U ).S I z N u >.5 j ",
"Q , R m S z H H y !.` 3 3 L ~.I H H z N u >.5 j ",
"Q , R m S z H H I {.q ].^.{ =.y H H z N u >.5 j ",
"Q , R m S z H H H /.& (._.:.<.I H H z N u >.5 j ",
"Q , R m S z H H H z = B [.< }.z H H z N u >.5 j ",
"Q , R m S z H H H y |.1.#.2.).H H H z N u x 5 j ",
"j , R m S z H H H I 3.* < 4.I H H H z N O x 5 j ",
"j E : F G z H H H z }.5.6.7.I H H H I N 9 P ( j ",
"j ( P 9 n y z z z z ).8.9.0.y z z I S t a.i k j ",
"j > _ b.F n N N G N N c.d.e.N G N N t O R , w # ",
"# ; ( i b.D O u u u 9 f.g.m u u u O D R l 6 ^ # ",
"+ - ^ ( v 7 x >.>.>.P h.i.x >.>.>.x i , 6 / - + ",
"# / / ; > ( 5 E E E 5 : O 5 E E E 5 ( > ^ - / # ",
":.j.Q j.k.k.k.k.k.k.k.k.k.k.k.k.k.k.k.k.j.Q j.:."};
