/* XPM */
static char *bluefish[] = {
/* columns rows colors chars-per-pixel */
"22 22 55 1 ",
"  c #000000030003",
". c #000004290429",
"X c #00000A2A0A2A",
"o c #00000F040F04",
"O c #000013131313",
"+ c #000015F815F8",
"@ c #0000183C183C",
"# c #00001D501D50",
"$ c #000022EE22EE",
"% c #0000271C271C",
"& c #00002AE22AE2",
"* c #000032593259",
"= c #000036653665",
"- c #00003A3B3A3B",
"; c #00003D513D51",
": c #000043584358",
"> c #0000443B443B",
", c #000049FC49FC",
"< c #00004D164D16",
"1 c #0000526A526A",
"2 c #000055EE55EE",
"3 c #00005B075B07",
"4 c #00005D585D58",
"5 c #000061986198",
"6 c #000064996499",
"7 c #0000682F682F",
"8 c #00006E316E31",
"9 c #0000735A735A",
"0 c #000074887488",
"q c #0000795C795C",
"w c #00007D6B7D6B",
"e c #000080678067",
"r c #0000845B845B",
"t c #0000890C890C",
"y c #00008E988E98",
"u c #0000905E905E",
"i c #000097CC97CC",
"p c #000099789978",
"a c #00009E9C9E9C",
"s c #0000A27BA27B",
"d c #0000A5CDA5CD",
"f c #0000A95AA95A",
"g c #0000AE9AAE9A",
"h c #0000B3EAB3EA",
"j c #0000B6BEB6BE",
"k c #0000BBC6BBC6",
"l c #0000BD05BD05",
"z c #0000C416C416",
"x c #0000C518C518",
"c c #0000C899C899",
"v c #0000D2C2D2C2",
"b c #0000D827D827",
"n c #0000DBCEDBCE",
"m c #0000E4BAE4BA",
"M c #0000EC82EC82",
/* pixels */
"j009ykklje000dkkld000j",
"q   o7erw$  X6rew*   q",
"q    &wee-  +0er1.   0",
"w    .1rr2  &er9+    q",
"d;X   +8r7X >re=    %s",
"he5$   *eq@ 4r3. X%5rl",
"herq>@*2wq;#90# #3igtl",
"heerpst8794,,= +<0piel",
"a59avsrs724,=#O&,9it8f",
"q %zbu9yz>4,=#O$,8t-Xq",
"q -mbiquf,4,*$o#:6,. 0",
"q ,Mnhtr554,=#o@:2o  q",
"e@>xncfyw94,*#o+;3,*@w",
"fq8:0yurw94,=#X#48wtwh",
"hre89tuur94,*$X.;9rrrl",
"hee5=5ipr94:,5%  @3wrl",
"h0:X  @6e8%o3r6o  .=8l",
"i#    %qr5. :re:    +i",
"q    o6rr,  &we0#    q",
"q    >ree&  +0rr3X   0",
"q   $0eeq@  X6eee=   0",
"kwwqpkjkgeqwwskjkdwwwk"
};
