/* XPM */
static char *ccc_large[] = {
/* columns rows colors chars-per-pixel */
"22 22 57 1 ",
"  c #000000030003",
". c #000002D002D0",
"X c #00000E330E33",
"o c #0000120E120E",
"O c #000014A914A9",
"+ c #000019601960",
"@ c #000029F229F2",
"# c #0000329D329D",
"$ c #000037733773",
"% c #00003B0E3B0E",
"& c #00003F5E3F5E",
"* c #000046424642",
"= c #00004A3E4A3E",
"- c #00004DBF4DBF",
"; c #000050725072",
": c #000056FF56FF",
"> c #00005BA55BA5",
", c #00005C715C71",
"< c #0000645B645B",
"1 c #00006B4F6B4F",
"2 c #00006C436C43",
"3 c #0000709C709C",
"4 c #000074AD74AD",
"5 c #000079537953",
"6 c #00007D877D87",
"7 c #000080EA80EA",
"8 c #000086858685",
"9 c #00008B618B61",
"0 c #00008CE18CE1",
"q c #000090589058",
"w c #000095929592",
"e c #00009BAA9BAA",
"r c #00009E209E20",
"t c #0000A2B4A2B4",
"y c #0000A5AFA5AF",
"u c #0000ABECABEC",
"i c #0000AFB8AFB8",
"p c #0000B112B112",
"a c #0000B6C7B6C7",
"s c #0000B8EFB8EF",
"d c #0000BDE0BDE0",
"f c #0000C124C124",
"g c #0000C493C493",
"h c #0000C947C947",
"j c #0000CCE3CCE3",
"k c #0000D49AD49A",
"l c #0000D84CD84C",
"z c #0000DC21DC21",
"x c #0000E00AE00A",
"c c #0000E1ABE1AB",
"v c #0000E660E660",
"b c #0000ECE5ECE5",
"n c #0000F00CF00C",
"m c #0000F2CAF2CA",
"M c #0000F4CEF4CE",
"N c #0000F8FAF8FA",
"B c #0000FFFFFFFF",
/* pixels */
"a44444444444444444444a",
"5                    4",
"5                    4",
"5&00992X+47665544433*4",
"5+uNMMm9o<zzzllkjjhg24",
"5 O-:<jn9o#*&*-*%&*=@5",
"5  3j6%hb8X  <i2  1t>4",
"5  qBt &gb8X 6c0  8l34",
"5  qBzue3gv8X6z0. 8l14",
"5  0Bncca<gz69c0..8j34",
"5  qBu@@@O$gcjz0. 8j34",
"5  0Br     $dzc0  8j34",
"5  %<&      @::%  $;@5",
"5                    5",
"6oXXXXXXXoXXXoXXXXXXX6",
"p77888788787878888888p",
"aqqwwqww0wwwwwwwwwwwws",
"i88888888888888888888i",
"u44454444554454555553i",
"t<1111111111222111111t",
"e>>>>>>>>>>>,>>>,>>>,e",
"geerrrerrrrrrrrrrrrrrg"
};
