/* XPM */
static char *control_center_[] = {
/* columns rows colors chars-per-pixel */
"22 22 54 1 ",
"  c #0000001D001D",
". c #001F03EC03EC",
"X c #00AF06EC06EC",
"o c #00BC07F107F1",
"O c #00DF0B6D0B6D",
"+ c #00000D4F0D4F",
"@ c #010210311031",
"# c #0105132F132F",
"$ c #0105157A157A",
"% c #010416241624",
"& c #010318311831",
"* c #006919131913",
"= c #004A1D351D35",
"- c #01051F321F32",
"; c #010620442044",
": c #010020A820A8",
"> c #00C6242E242E",
", c #00CE26ED26ED",
"< c #0097285D285D",
"1 c #000029E529E5",
"2 c #00042E322E32",
"3 c #009230633063",
"4 c #000035783578",
"5 c #002C3B003B00",
"6 c #00E03C883C88",
"7 c #0000422C422C",
"8 c #000048A048A0",
"9 c #003B4C334C33",
"0 c #000052435243",
"q c #00005B7A5B7A",
"w c #00005DC35DC3",
"e c #0000619E619E",
"r c #0000676A676A",
"t c #0000686D686D",
"y c #00006EAA6EAA",
"u c #0000735B735B",
"i c #0000748E748E",
"p c #0004794F794F",
"a c #00827CB87CB8",
"s c #000080198019",
"d c #006D87428742",
"f c #003688168816",
"g c #006F900C900C",
"h c #000F94A394A3",
"j c #001D9ED19ED1",
"k c #0018A120A120",
"l c #0000AA04AA04",
"z c #001CACC5ACC5",
"x c #0000B6C7B6C7",
"c c #0000B90AB90A",
"v c #0005BF26BF26",
"b c #001CC0E1C0E1",
"n c #0017C639C639",
"m c #0012CFADCFAD",
/* pixels */
"xiiiiiiuiiiiiiiiiiiiic",
"p   .=1*o.oooo.o..   p",
"p ..%gnlu>@@%@%@OOO  i",
"p o@%6lncf3===:=-&O. p",
"po@%::9zlkr111>1>:%O.p",
"p1a1>4alkhp3222211=+.p",
"i5md5azkhfi522222>=%.p",
"p2bvjlkhfst3222221:@op",
"p@hcljhfaie7232221=@op",
"p.7kjhhaitui3=2221:@op",
"ao@8pfpytisr>+*221:@op",
"po%:37759ai94:@*21:@.p",
"po%:>2222wuq84:@=1=%.p",
"ao%=122228puw85>@*:@op",
"po@:1222220aie95>%%@.p",
"po@:12222220aie951%+op",
"a.@=122222220sir961*.p",
"p.+*:>11111>10dpr061op",
"p.o@%:::::::::8sar03.p",
"p .o+@%@%@%%@%%6uy8% i",
"p  . .ooooooooo.@%o  p",
"baaaaaaaaasasaaaaaapac"
};
