/* XPM */
static char *gcolor_[] = {
/* columns rows colors chars-per-pixel */
"22 22 69 1 ",
"  c #000000210021",
". c #002F03F703F7",
"X c #00BB07EC07EC",
"o c #00DF0B6D0B6D",
"O c #00EB0C0A0C0A",
"+ c #00F80E350E35",
"@ c #010310331033",
"# c #0105132E132E",
"$ c #010413CB13CB",
"% c #010416491649",
"& c #010317FF17FF",
"* c #01041C1A1C1A",
"= c #01061E521E52",
"- c #010620482048",
"; c #00FF21BA21BA",
": c #00CD26352635",
"> c #00B427282728",
", c #08B522242224",
"< c #007428F928F9",
"1 c #00082C242C24",
"2 c #056C2D9E2D9E",
"3 c #09DE28882888",
"4 c #08F72F8F2F8F",
"5 c #000031223122",
"6 c #037E329A329A",
"7 c #000035EA35EA",
"8 c #025B37ED37ED",
"9 c #00003A793A79",
"0 c #00103CA33CA3",
"q c #09783D9A3D9A",
"w c #000041764176",
"e c #06E242694269",
"r c #000046304630",
"t c #03C9467D467D",
"y c #033348314831",
"u c #00004AC14AC1",
"i c #004651235123",
"p c #0000528B528B",
"a c #02A457715771",
"s c #08FE53645364",
"d c #08F053D753D7",
"f c #00005A2E5A2E",
"g c #02485A275A27",
"h c #07C15EA05EA0",
"j c #000061816181",
"k c #06BA63A963A9",
"l c #000069D769D7",
"z c #00006F606F60",
"x c #03FC6CF76CF7",
"c c #07C96E556E55",
"v c #000072467246",
"b c #040C70097009",
"n c #000074B774B7",
"m c #000479417941",
"M c #00007C777C77",
"N c #015E83A883A8",
"B c #000087728772",
"V c #000088808880",
"C c #067A8A028A02",
"Z c #00008D4F8D4F",
"A c #03888D9C8D9C",
"S c #06AD8CAD8CAD",
"D c #0000928D928D",
"F c #04419EB79EB7",
"G c #0513AD51AD51",
"H c #0000B6C7B6C7",
"J c #0000B9F0B9F0",
"K c #0000BACFBACF",
"L c #02A2C2C4C2C4",
/* pixels */
"HnnnnnnnnnnnnmnnnnnnnH",
"m   ..XX.XXXX.X.. .  m",
"m ..O@@@$@$@$@@@@OX  n",
"m X@$*;*;*;*;*;;*&O. m",
"m.O$;><<<5ty1<<<>;$O.m",
"mX@*>1158tdcby1<1>*@.m",
"MX@;<1524qdcSFm01<*$.m",
"mX$;<15,3qdcSGLM1<;@Xm",
"mX@;<5ufeqscCAMz5<;@Xm",
"mX$;<1ivmxhkaizv5<;@.m",
"MX$;<1izNDN67inm5<;@Xm",
"mX@;<5uzMDV19gMM5<;$Xm",
"MX$;<1izMDV5wjVN5<;$Xm",
"mX@;<5uzNDV9ylAn5<*@.m",
"MX$;<15inDVwilf91<;@Xm",
"m.@;<111rmVwr9111<;$.m",
"mX@*<<1117i911111<*@.m",
"m.O&;<<1<<<<<<<<<;&O.m",
"m.X@&*;;;;;;;;;;*&@X.n",
"m .XO@$@$$$@$$@@@OX  m",
"m  .XXXXXXXXXXXXX..  m",
"KMMMMMMMMMMNMNMMMMMmMK"
};
