/* XPM */
static char *gnome_term[] = {
/* columns rows colors chars-per-pixel */
"22 22 107 2 ",
"   c #000000180018",
".  c #007805D605D6",
"X  c #009A06420642",
"o  c #00EF0AD80AD8",
"O  c #00330D110D11",
"+  c #01040D670D67",
"@  c #0107121C121C",
"#  c #000013FB13FB",
"$  c #0AC416901690",
"%  c #00001B491B49",
"&  c #00001C6B1C6B",
"*  c #0A521C001C00",
"=  c #0C4D1F001F00",
"-  c #000021B321B3",
";  c #000025742574",
":  c #0A5223332333",
">  c #0C3E23242324",
",  c #0A51270F270F",
"<  c #00362AFD2AFD",
"1  c #00002D092D09",
"2  c #0F362A022A02",
"3  c #0A682BD22BD2",
"4  c #0F992F7A2F7A",
"5  c #0000300C300C",
"6  c #01EB35333533",
"7  c #000C36743674",
"8  c #0BFA329B329B",
"9  c #0AA235CE35CE",
"0  c #0BFA37883788",
"q  c #000039D439D4",
"w  c #00313B4C3B4C",
"e  c #0AA23ABC3ABC",
"r  c #0BFD3CB73CB7",
"t  c #000040204020",
"y  c #03E842974297",
"u  c #000045CB45CB",
"i  c #0BC6425E425E",
"p  c #0AA2454D454D",
"a  c #00174ACC4ACC",
"s  c #067348DD48DD",
"d  c #05BB4A244A24",
"f  c #00614C414C41",
"g  c #048C4CF24CF2",
"h  c #0A644AE94AE9",
"j  c #0B554E8A4E8A",
"k  c #001750445044",
"l  c #05A352DD52DD",
"z  c #000B559A559A",
"x  c #068556BC56BC",
"c  c #0B5654C554C5",
"v  c #0E7854635463",
"b  c #001C5AB05AB0",
"n  c #06835AA45AA4",
"m  c #06765D295D29",
"M  c #047A5F165F16",
"N  c #0B565AAC5AAC",
"B  c #0B565FA05FA0",
"V  c #002160526052",
"C  c #003365796579",
"Z  c #05A3646D646D",
"A  c #00336A5B6A5B",
"S  c #00336ED86ED8",
"D  c #05A36D3D6D3D",
"F  c #0B1D6B9C6B9C",
"G  c #003372DF72DF",
"H  c #000074B774B7",
"J  c #06AB742D742D",
"K  c #067975B275B2",
"L  c #0ED575577557",
"P  c #000079577957",
"I  c #047B7A377A37",
"U  c #000A7C727C72",
"Y  c #05C07EA67EA6",
"T  c #045F83698369",
"R  c #060D86CE86CE",
"E  c #0000889B889B",
"W  c #04278CC98CC9",
"Q  c #06108F7B8F7B",
"!  c #000090D290D2",
"~  c #0000945C945C",
"^  c #042495F495F4",
"/  c #00009A979A97",
"(  c #0610983E983E",
")  c #00009D999D99",
"_  c #04219F0A9F0A",
"`  c #0000A172A172",
"'  c #0610A0FBA0FB",
"]  c #0000A651A651",
"[  c #0005ABCDABCD",
"{  c #0610A9C1A9C1",
"}  c #0000AC39AC39",
"|  c #0613B291B291",
" . c #0000B6C7B6C7",
".. c #08C4B2A9B2A9",
"X. c #08A8B6B6B6B6",
"o. c #0000BB66BB66",
"O. c #0424BA28BA28",
"+. c #0000BD67BD67",
"@. c #07D4BD8FBD8F",
"#. c #0000C245C245",
"$. c #03EDC405C405",
"%. c #0000CC75CC75",
"&. c #0000D42FD42F",
"*. c #00EEDB29DB29",
"=. c #0000DC3DDC3D",
"-. c #0000E0B3E0B3",
";. c #0000EA83EA83",
/* pixels */
" .H H H H H H H H H H H H H H H H H H H H  .",
"P         . o . . o . . . . . o .         P ",
"P     . o O O @ @ @ O @ @ @ @ @ O o .     P ",
"P . b P H G S A C M M z k f u t q 7 < - . H ",
"P O [ *.$.O.} { _ ^ W T I J Z M k g u 7 O H ",
"P O [ @.L F B N c j p i r 0 8 3 4 > 4 7 o P ",
"P @ [ X.( #.E b u t q 7 1 ; - & # @ > 6 O H ",
"P @ [ X.J [ &.%.! z 7 1 1 ; - & % O 4 6 O P ",
"P O [ X.M b V E #.&.) z < ; & % # @ > 6 O P ",
"P @ [ X.B b f u t C [ *.C & % % # O > q o P ",
"P @ [ X.n f f t t M ] ;.S % % # @ O > 6 O P ",
"P @ [ X.n f k P +.-.o.S 1 % % # @ O > 6 O H ",
"P @ [ ..M ~ &.=.[ M 5 - & & # # O O > 7 o P ",
"P @ [ ..J &./ z 5 1 ; & % # @ O o o > 7 O P ",
"P @ [ ..x k q 7 5 < ; S / ~ ~ ! ! t = 7 o P ",
"P O [ ..d w q 5 1 ; - G ` ) ) ) / u = 7 O H ",
"P O [ X.v h p r r 9 8 3 , : > * * $ 4 5 o P ",
"P O [ *.O.| { ' ( W R Y J D Z M l d y 7 o H ",
"P o M P P H G A C V b z k a u w 7 1 < & . P ",
"P     . o O @ @ @ @ @ @ # @ @ @ O O o     H ",
"P     . . . o . o o . o o o . o . . .     H ",
"o.U U U U U U U U U U U P U U U U U U U U o."
};
