/* XPM */
static char *gnome_activity_journal[] = {
/* columns rows colors chars-per-pixel */
"22 22 67 1 ",
"  c #000000210021",
". c #003403E803E8",
"X c #00B607CD07CD",
"o c #00D50B6F0B6F",
"O c #00F80E350E35",
"+ c #00FF0F150F15",
"@ c #0107112B112B",
"# c #010512F312F3",
"$ c #010014351435",
"% c #00FE173D173D",
"& c #01051A111A11",
"* c #01001B021B02",
"= c #01041DF91DF9",
"- c #01051F001F00",
"; c #00FC231A231A",
": c #00CD23DA23DA",
"> c #009427DA27DA",
", c #00D42D012D01",
"< c #00C530983098",
"1 c #0000344A344A",
"2 c #00C638B638B6",
"3 c #00D239F039F0",
"4 c #00A53ECE3ECE",
"5 c #000040454045",
"6 c #0000451C451C",
"7 c #0062497A497A",
"8 c #00004DB84DB8",
"9 c #0000546F546F",
"0 c #000056175617",
"q c #009E5A2C5A2C",
"w c #00005BB25BB2",
"e c #00475DE65DE6",
"r c #0000612E612E",
"t c #007E643D643D",
"y c #009A6C2B6C2B",
"u c #00A06DA96DA9",
"i c #003E6F176F17",
"p c #000174A774A7",
"a c #000479467946",
"s c #00007C767C76",
"d c #003282298229",
"f c #007F85768576",
"g c #0027893B893B",
"h c #00008EAF8EAF",
"j c #001992339233",
"k c #001D95349534",
"l c #00009ADE9ADE",
"z c #00009FAB9FAB",
"x c #000DA163A163",
"c c #0000A499A499",
"v c #0000A8BBA8BB",
"b c #004CAE93AE93",
"n c #0021B101B101",
"m c #0000B6F5B6F5",
"M c #0000B9C8B9C8",
"N c #0002BEDABEDA",
"B c #000EC0AFC0AF",
"V c #0000C5F3C5F3",
"C c #000ECB97CB97",
"Z c #0000CEF9CEF9",
"A c #0018D54AD54A",
"S c #0005DB1EDB1E",
"D c #0000E5BCE5BC",
"F c #0000EA55EA55",
"G c #0006EFB7EFB7",
"H c #0000F137F137",
"J c #0000F539F539",
/* pixels */
"mpppppppppppppappppppm",
"a    .XX......X..    a",
"a ..++@$1eppw,@$+XX  p",
"a X@$&<dBSSAACf,&&$. a",
"a.+$=4xZZle67pBb2=&X a",
"aX+=<kVBa<>,2:4bx,&+.a",
"sX@=tMBj1,,4s4>7Cbi&Xa",
"aX$>jmmw,,2ds2,,jJGt.a",
"aX@1cnv6,>rZB7,>iFGi a",
"sX@9cbc5,,7cl4,,iDb;.a",
"aX;fcvv9,<,5d9,>gA7+Xa",
"s.5xxcbs<,,<sp,5NB<@Xa",
"aX<hlxcct<,,191jSl;@Xa",
"aX$1ilxcxa845elCCr=@.a",
"aX$=6kzxcbvxvMVCk<;@Xa",
"sX@=4hkxxcvnmMNc7:=$.a",
"a.+&5hjkzxcbnmz8>>=@.a",
"s.+&wgjkkzxvvg6::;$+.a",
"a.X=pfhhkzzgw>;;=$@X a",
"a  @4wtitw4;@$@@@+X  p",
"a    X+++...XXXXX..  a",
"NssssssssdsdsssssssssM"
};
