/* XPM */
static char *googleearth[] = {
/* columns rows colors chars-per-pixel */
"22 22 49 1 ",
"  c #000000060006",
". c #000006F306F3",
"X c #00000A3B0A3B",
"o c #00000EBF0EBF",
"O c #000010F710F7",
"+ c #0000171B171B",
"@ c #000018101810",
"# c #00001C771C77",
"$ c #000023592359",
"% c #000027202720",
"& c #00002B8F2B8F",
"* c #00002F362F36",
"= c #0000310A310A",
"- c #0000346B346B",
"; c #000038833883",
": c #00003D3A3D3A",
"> c #000041714171",
", c #000045CB45CB",
"< c #00004B8B4B8B",
"1 c #00004F164F16",
"2 c #000052B852B8",
"3 c #0000578D578D",
"4 c #000058255825",
"5 c #00005E005E00",
"6 c #000063AB63AB",
"7 c #000066906690",
"8 c #00006B7C6B7C",
"9 c #00006D106D10",
"0 c #000073817381",
"q c #000074B074B0",
"w c #000079557955",
"e c #00007C467C46",
"r c #000083AE83AE",
"t c #00008B3D8B3D",
"y c #00008EF78EF7",
"u c #0000912E912E",
"i c #0000965C965C",
"p c #00009AE39AE3",
"a c #00009F399F39",
"s c #0000A290A290",
"d c #0000A49EA49E",
"f c #0000AD72AD72",
"g c #0000B055B055",
"h c #0000B688B688",
"j c #0000BACFBACF",
"k c #0000BD8BBD8B",
"l c #0000C981C981",
"z c #0000CC88CC88",
"x c #0000D0D9D0D9",
/* pixels */
"hqqqqqq0000000qqqqqqqh",
"w      .o#%$@X       q",
"w     .$;wr8>:&O     w",
"w    ;80-qw:o@;;$.   w",
"w   <iitq7O.XO,;;%.  q",
"w  :dspuw8;.O:13>*@  w",
"w #phgyww96=@5883=$o w",
"w 6zxa%+<8634,#=>:$+ q",
"w.szf=  .*44453-=<=#Xq",
"q+p:#.    +<64575,>%ow",
"w+y8O      :04114,:% w",
"w $7,1-X   -r03,>,-X q",
"w   >kh2.  X>>24:=&. w",
"w   5lkf7@    *85,+. q",
"w X1ujjhf3    +66<X  w",
"w $psssds=    +66>X  w",
"w .7appit1$OX O54%.  w",
"w  o6iauq962,-*>;@.  q",
"w   X<y9#*;>:-*$+.   q",
"w     #>+   .        w",
"w       .            w",
"jeeeeeeeeeeeeeeeeeeeej"
};
