/* XPM */
static char *gtk_recordmydesktop[] = {
/* columns rows colors chars-per-pixel */
"22 22 72 1 ",
"  c #004303640364",
". c #01B90AEF0AEF",
"X c #00E7124A124A",
"o c #0B7A15F015F0",
"O c #016619851985",
"+ c #022024222422",
"@ c #0BDE23E723E7",
"# c #00E12C282C28",
"$ c #09AD2F282F28",
"% c #10A623BB23BB",
"& c #13592C402C40",
"* c #02EE33023302",
"= c #093534323432",
"- c #00F43C133C13",
"; c #0B193B383B38",
": c #005B45444544",
"> c #0B9942574257",
", c #000F4AAA4AAA",
"< c #09B64CAA4CAA",
"1 c #11F743344334",
"2 c #139649E649E6",
"3 c #028154515451",
"4 c #0A3E55FE55FE",
"5 c #00E35DA65DA6",
"6 c #0D9F5A055A05",
"7 c #13DE54205420",
"8 c #0077621F621F",
"9 c #0A33677C677C",
"0 c #015D6C0A6C0A",
"q c #0E0369E869E8",
"w c #139B67356735",
"e c #14FE69E669E6",
"r c #003774EF74EF",
"t c #0D7976A276A2",
"y c #00357B7C7B7C",
"u c #13FE761C761C",
"i c #16DD7B437B43",
"p c #179C7CE37CE3",
"a c #02D885448544",
"s c #0CF486088608",
"d c #024C8D198D19",
"f c #0D658AA98AA9",
"g c #141B855A855A",
"h c #164F8B908B90",
"j c #185E89CF89CF",
"k c #019794879487",
"l c #0C1393369336",
"z c #02F49B839B83",
"x c #0A7A9C259C25",
"c c #124B94CE94CE",
"v c #139B9DBC9DBC",
"b c #013DA432A432",
"n c #03EDABF7ABF7",
"m c #096EA9B3A9B3",
"M c #138FA4BEA4BE",
"N c #11B5AE33AE33",
"B c #02ACB3F8B3F8",
"V c #0B50B53BB53B",
"C c #0000BA60BA60",
"Z c #1316B175B175",
"A c #0B28C37FC37F",
"S c #018BCAF0CAF0",
"D c #0EDFCB2ACB2A",
"F c #0079D2ECD2EC",
"G c #0C2ED515D515",
"H c #01F0DB11DB11",
"J c #0ACFD9AFD9AF",
"K c #04BAE51AE51A",
"L c #07A7E322E322",
"P c #00C9EC8AEC8A",
"I c #0069F39BF39B",
"U c #0004FF6EFF6E",
/* pixels */
"Brrrrrryrrrrr0rrrrrrrB",
"y        X+-,,:+X    r",
"r   ..X*rBHPIIKHBr*  r",
"y ..O+ySHJJLIUUUUUFyOr",
"y .O*zNp7227uNLUUUUInb",
"y X#fu48r8:##=eDUUUUIP",
"y O9tkVNMNVk,##7AUUUUU",
"y *tnc7;=;7vn,##6HUUUU",
"y.<ms=-55:#=fb-##lUUUU",
"y.0m=,xhgx5#;n0##4PUUU",
"y.aa#kq$$6z-#ad##-FUUU",
"y ar*b:##-b:#yk*#*SUUU",
"y td#sa--yl*#ka##-HUUU",
"y >B:;gllh>#,C4##5IUUU",
"y.Osb:$>>$#:nh*##bUUUU",
"y X$cBy3,3aBh-##0PUUUU",
"y XO*evVZZMw*##5HUUUPK",
"y .O+;>11;$++-aKUUULgf",
"r  .O+178550kFUUULZ7.y",
"y  ..XO@2iMAGGDNj2o  r",
"y     .. .o%&&%o     y",
"CyyyyyyyyyyyyyyyyyyyyB"
};
