/* XPM */
static char *xchat[] = {
/* columns rows colors chars-per-pixel */
"22 22 58 1 ",
"  c #000000210021",
". c #003F03FE03FE",
"X c #00BA07FC07FC",
"o c #00EB0C0C0C0C",
"O c #00EE0F360F36",
"+ c #010310921092",
"@ c #010416341634",
"# c #0103174C174C",
"$ c #00FE1AD91AD9",
"% c #01041D091D09",
"& c #010020302030",
"* c #00F224C724C7",
"= c #00E4284F284F",
"- c #00002B372B37",
"; c #00D333323332",
": c #00D534F834F8",
"> c #00A5385A385A",
", c #00003EDD3EDD",
"< c #00C643194319",
"1 c #009343DF43DF",
"2 c #0000480F480F",
"3 c #003F4D464D46",
"4 c #00BC501B501B",
"5 c #002F53575357",
"6 c #000054A254A2",
"7 c #00415A485A48",
"8 c #009D5C315C31",
"9 c #00B15F2A5F2A",
"0 c #000061F761F7",
"q c #000767906790",
"w c #00006B596B59",
"e c #00356D306D30",
"r c #0000735C735C",
"t c #000474A474A4",
"y c #0002796F796F",
"u c #00007C7B7C7B",
"i c #000081BA81BA",
"p c #0000866E866E",
"a c #001489938993",
"s c #001C8BE38BE3",
"d c #000091AA91AA",
"f c #000094549454",
"g c #000798979897",
"h c #00279F7D9F7D",
"j c #0028A0CCA0CC",
"k c #0000A6C1A6C1",
"l c #0000ABD5ABD5",
"z c #0000AD96AD96",
"x c #0000B310B310",
"c c #0000B690B690",
"v c #0000B89DB89D",
"b c #0000BD2CBD2C",
"n c #0008C277C277",
"m c #0000C3DEC3DE",
"M c #0000CA7ACA7A",
"N c #0000D2F7D2F7",
"B c #0000D3DCD3DC",
"V c #0005DB4ADB4A",
/* pixels */
"cttttttttyttttyttttttc",
"y   ...X......X...   y",
"y ..X+++%-:>;*@+oXX  t",
"y X+@%;7yagjjha8-$oX y",
"y.o@*6yadfjjzcbnk5@X.y",
"yX+*7yiiupfkzljkvn8+.y",
"yX@3ryit<,0jkw,>gBm1.y",
"u.-qrtipw37ai6<pMBVjoy",
"yX<wryiaiwrut8unMBVB:t",
"yX5wryupapaduyvnMMBV7t",
"yo5wrtipspafphbnMBVV7t",
"uo3wryipteeyyicnMMVV3t",
"y.>eryu022wi08gnMMVn&y",
"uX%8tt6--6ff5,7vMBVyXy",
"yX@>wr650sjkpeyxMBj*.y",
"yX+&<riadfgkzcbnng:+Xy",
"yX+%-,rpdghkzcvkr-$+.t",
"y.o$%;taieyiir6>*&$o.y",
"y X+&7uw>&&*&&%&%$+X y",
"y .o:<;$+@@@@+@++oX  y",
"y  ..X.XXXXXXXXXX.   y",
"buuuuuuuuuuiiuuuuuuuuv"
};
