<?xml version="1.0" encoding="UTF-8" standalone="no"?>
<!-- Created with Inkscape (http://www.inkscape.org/) -->

<svg
   xmlns:dc="http://purl.org/dc/elements/1.1/"
   xmlns:cc="http://creativecommons.org/ns#"
   xmlns:rdf="http://www.w3.org/1999/02/22-rdf-syntax-ns#"
   xmlns:svg="http://www.w3.org/2000/svg"
   xmlns="http://www.w3.org/2000/svg"
   xmlns:xlink="http://www.w3.org/1999/xlink"
   xmlns:sodipodi="http://sodipodi.sourceforge.net/DTD/sodipodi-0.dtd"
   xmlns:inkscape="http://www.inkscape.org/namespaces/inkscape"
   version="1.0"
   width="96"
   height="96"
   id="svg2"
   style="display:inline"
   inkscape:version="0.48.1 r9760"
   sodipodi:docname="audio-volume-high.svg">
  <metadata
     id="metadata17">
    <rdf:RDF>
      <cc:Work
         rdf:about="">
        <dc:format>image/svg+xml</dc:format>
        <dc:type
           rdf:resource="http://purl.org/dc/dcmitype/StillImage" />
        <dc:title></dc:title>
      </cc:Work>
    </rdf:RDF>
  </metadata>
  <sodipodi:namedview
     pagecolor="#ffffff"
     bordercolor="#666666"
     borderopacity="1"
     objecttolerance="10"
     gridtolerance="10"
     guidetolerance="10"
     inkscape:pageopacity="0"
     inkscape:pageshadow="2"
     inkscape:window-width="640"
     inkscape:window-height="480"
     id="namedview15"
     showgrid="false"
     inkscape:zoom="0.859375"
     inkscape:cx="-110.97984"
     inkscape:cy="-16.155335"
     inkscape:window-x="330"
     inkscape:window-y="85"
     inkscape:window-maximized="0"
     inkscape:current-layer="svg2" />
  <defs
     id="defs4">
    <linearGradient
       inkscape:collect="always"
       id="linearGradient3816">
      <stop
         style="stop-color:#000000;stop-opacity:1;"
         offset="0"
         id="stop3818" />
      <stop
         style="stop-color:#000000;stop-opacity:0;"
         offset="1"
         id="stop3820" />
    </linearGradient>
    <linearGradient
       id="linearGradient4081-7">
      <stop
         id="stop4083-8"
         style="stop-color:#aaaaaa;stop-opacity:1"
         offset="0" />
      <stop
         id="stop4085-6"
         style="stop-color:#f0f0f0;stop-opacity:1"
         offset="1" />
    </linearGradient>
    <linearGradient
       x1="16.5"
       y1="19.542921"
       x2="16.5"
       y2="2.5"
       id="linearGradient2993"
       xlink:href="#linearGradient4081-7"
       gradientUnits="userSpaceOnUse"
       gradientTransform="matrix(4.4444444,0,0,4.4444444,3.555556,-0.958333)" />
    <linearGradient
       inkscape:collect="always"
       xlink:href="#linearGradient4081-7"
       id="linearGradient3004"
       gradientUnits="userSpaceOnUse"
       gradientTransform="matrix(4.4444444,0,0,4.4444444,3.555556,-0.958333)"
       x1="16.5"
       y1="19.542921"
       x2="16.5"
       y2="2.5" />
    <linearGradient
       inkscape:collect="always"
       xlink:href="#linearGradient4081-7-0"
       id="linearGradient3008-2"
       gradientUnits="userSpaceOnUse"
       gradientTransform="matrix(4.4444444,0,0,4.4444444,3.55556,-0.958333)"
       x1="16.5"
       y1="19.542921"
       x2="16.5"
       y2="2.5" />
    <linearGradient
       id="linearGradient4081-7-0">
      <stop
         id="stop4083-8-6"
         style="stop-color:#aaaaaa;stop-opacity:1"
         offset="0" />
      <stop
         id="stop4085-6-1"
         style="stop-color:#f0f0f0;stop-opacity:1"
         offset="1" />
    </linearGradient>
    <linearGradient
       inkscape:collect="always"
       xlink:href="#linearGradient3816"
       id="linearGradient3822"
       x1="-325.09088"
       y1="83.199997"
       x2="-4.2181816"
       y2="79.709091"
       gradientUnits="userSpaceOnUse"
       gradientTransform="translate(110.54545,-32.581818)" />
  </defs>
  <path
     inkscape:connector-curvature="0"
     style="fill:#00ffff;fill-opacity:1;fill-rule:nonzero;stroke:none;display:inline"
     id="path3536"
     d="m 72.15625,10.15625 -6.09375,6.375 c 8.01839,8.018391 12.90625,19.174259 12.90625,31.40625 0,12.373534 -5.00499,23.616921 -13.1875,31.65625 l 6.25,6.25 C 81.8484,76.169288 88,62.798829 88,47.9375 88,33.146834 81.89137,19.82037 72.15625,10.15625 z m -10.1875,10.1875 -6.375,6.375 c 5.21215,5.558897 8.46875,12.971677 8.46875,21.1875 0,8.28201 -3.3062,15.770095 -8.59375,21.34375 l 6.3125,6.3125 C 68.68267,68.375275 72.9375,58.650709 72.9375,47.90625 c 0,-10.670756 -4.15454,-20.38473 -10.96875,-27.5625 z M 30.65625,26 c -0.24295,-3.5e-5 -0.32115,0.04141 -0.5625,0.125 -0.31499,0.121899 -0.69237,0.306153 -0.96875,0.5625 l -8,7.3125 -8.8125,0 C 9.88906,34 8,35.900738 8,38.40625 L 8,57.4375 c 0,2.505512 1.88906,4.53125 4.3125,4.53125 l 8.9375,0 7.875,7.375 c 0.9997,0.867876 2.18663,0.86486 3.1875,0 1.00087,-0.864869 1.69399,-2.523874 1.6875,-4.25 l 0,-7.71875 0,-18.71875 0,-7.6875 c 0.0144,-1.479075 -0.47854,-2.946409 -1.25,-3.875 C 32.1714,26.397305 31.38511,26.000111 30.65625,26 z m 21,4.65625 -6.4375,6.4375 c 2.36777,2.999033 3.84375,6.726611 3.84375,10.84375 0,4.181551 -1.47476,7.982101 -3.90625,11 l 6.375,6.40625 c 4.01467,-4.675512 6.4375,-10.768671 6.4375,-17.40625 0,-6.574734 -2.36927,-12.624424 -6.3125,-17.28125 z" />
  <path
     inkscape:connector-curvature="0"
     style="fill:url(#linearGradient3822);fill-opacity:1;fill-rule:nonzero;stroke:none;display:inline"
     id="path3536-5"
     d="m 71.865341,10.447159 -6.09375,6.375001 c 8.01839,8.018391 12.90625,19.174259 12.90625,31.40625 0,12.373534 -5.00499,23.616922 -13.1875,31.656252 l 6.25,6.25 c 9.81715,-9.67446 15.96875,-23.044923 15.96875,-37.906252 0,-14.790666 -6.10863,-28.11713 -15.84375,-37.781251 z m -10.1875,10.187501 -6.375,6.375 c 5.21215,5.558897 8.46875,12.971677 8.46875,21.1875 0,8.28201 -3.3062,15.770095 -8.59375,21.343752 l 6.3125,6.3125 c 6.90142,-7.18723 11.15625,-16.911793 11.15625,-27.656252 0,-10.670756 -4.15454,-20.38473 -10.96875,-27.5625 z m -31.3125,5.65625 c -0.24295,-3.5e-5 -0.32115,0.04141 -0.5625,0.125 -0.31499,0.121899 -0.69237,0.306153 -0.96875,0.5625 l -8,7.3125 -8.8125,0 c -2.4234366,0 -4.3124966,1.900738 -4.3124966,4.40625 l 0,19.03125 c 0,2.505512 1.88906,4.53125 4.3124966,4.53125 l 8.9375,0 7.875,7.375002 c 0.9997,0.86787 2.18663,0.86486 3.1875,0 1.00087,-0.86487 1.69399,-2.523876 1.6875,-4.250002 l 0,-7.71875 0,-18.71875 0,-7.6875 c 0.0144,-1.479075 -0.47854,-2.946409 -1.25,-3.875 -0.5786,-0.696445 -1.36489,-1.093639 -2.09375,-1.09375 z m 21,4.65625 -6.4375,6.4375 c 2.36777,2.999033 3.84375,6.726611 3.84375,10.84375 0,4.181551 -1.47476,7.982101 -3.90625,11 l 6.375,6.40625 c 4.01467,-4.675512 6.4375,-10.768671 6.4375,-17.40625 0,-6.574734 -2.36927,-12.624424 -6.3125,-17.28125 z" />
</svg>
