<?xml version="1.0" encoding="UTF-8" standalone="no"?>
<svg
   xmlns:osb="http://www.openswatchbook.org/uri/2009/osb"
   xmlns:dc="http://purl.org/dc/elements/1.1/"
   xmlns:cc="http://creativecommons.org/ns#"
   xmlns:rdf="http://www.w3.org/1999/02/22-rdf-syntax-ns#"
   xmlns:svg="http://www.w3.org/2000/svg"
   xmlns="http://www.w3.org/2000/svg"
   xmlns:sodipodi="http://sodipodi.sourceforge.net/DTD/sodipodi-0.dtd"
   xmlns:inkscape="http://www.inkscape.org/namespaces/inkscape"
   width="16"
   height="16"
   version="1.1"
   id="svg12"
   sodipodi:docname="document-edit-symbolic.svg"
   inkscape:version="0.92.4 5da689c313, 2019-01-14">
  <metadata
     id="metadata18">
    <rdf:RDF>
      <cc:Work
         rdf:about="">
        <dc:format>image/svg+xml</dc:format>
        <dc:type
           rdf:resource="http://purl.org/dc/dcmitype/StillImage" />
      </cc:Work>
    </rdf:RDF>
  </metadata>
  <defs
     id="defs16">
    <style
       id="current-color-scheme"
       type="text/css">
      .ColorScheme-Text {
        color:#232629;
      }
      </style>
    <linearGradient
       osb:paint="solid"
       id="linearGradient19282"
       gradientTransform="matrix(-2.7365795,0.28202934,-0.18908311,-0.99988321,239.54008,-879.45557)">
      <stop
         style="stop-color:#666666;stop-opacity:1;"
         offset="0"
         id="stop19284" />
    </linearGradient>
    <style
       id="current-color-scheme-9"
       type="text/css">
      .ColorScheme-Text {
        color:#232629;
      }
      </style>
  </defs>
  <sodipodi:namedview
     pagecolor="#ffffff"
     bordercolor="#666666"
     borderopacity="1"
     objecttolerance="10"
     gridtolerance="10"
     guidetolerance="10"
     inkscape:pageopacity="0"
     inkscape:pageshadow="2"
     inkscape:window-width="1366"
     inkscape:window-height="704"
     id="namedview14"
     showgrid="true"
     inkscape:zoom="16"
     inkscape:cx="4.5786158"
     inkscape:cy="9.4810349"
     inkscape:window-x="0"
     inkscape:window-y="27"
     inkscape:window-maximized="1"
     inkscape:current-layer="svg12">
    <inkscape:grid
       type="xygrid"
       id="grid831" />
  </sodipodi:namedview>
  <g
     id="g934"
     transform="rotate(45,26.521731,-8.1702797)">
    <path
       sodipodi:nodetypes="cccccc"
       inkscape:transform-center-y="3.2994548"
       inkscape:transform-center-x="0.8842308"
       id="path814"
       overflow="visible"
       d="M 25.000449,7.9989698 C 24,8 23,8 23,10 L 25.000449,9.99897 27,10 C 27,8 26,8 25.000449,7.9989708 Z"
       inkscape:connector-curvature="0"
       style="color:#000000;overflow:visible;fill:#dcdcdc;stroke-width:0.99999988" />
    <path
       sodipodi:nodetypes="cccccccccccccccccccccc"
       style="font-weight:400;font-size:15px;font-family:Ubuntu;letter-spacing:0;word-spacing:0;text-anchor:middle;fill:#dcdcdc"
       inkscape:connector-curvature="0"
       d="m 23,11 0.0049,0.504166 -0.0049,8.773171 0.01061,0.05303 c 0.02689,0.113143 0.127294,0.50912 0.357103,1.181582 0.229103,0.673164 0.572756,1.562704 1.046518,2.4777 l 0.444773,0.856309 0.44477,-0.856305 c 0.409597,-0.798904 0.759394,-1.627075 1.04652,-2.477705 0.229102,-0.673166 0.330218,-1.06561 0.356382,-1.182284 l 0.01131,-0.05233 0.18803,-9.277339 z m 0.996376,8.896206 h 1.72534 l -0.0021,0.24961 c 0.0014,-0.0085 -0.10748,0.428506 -0.316075,1.042982 -0.07708,0.22557 -0.222033,0.535987 -0.350726,0.828729 l -0.387495,10e-7 c -0.128693,-0.292743 -0.273651,-0.603162 -0.350725,-0.82873 -0.208597,-0.614475 -0.316784,-1.049347 -0.31537,-1.042276 z"
       font-size="15"
       font-weight="400"
       letter-spacing="0"
       word-spacing="0"
       id="path889" />
  </g>
</svg>
