<svg xmlns="http://www.w3.org/2000/svg" width="16" height="16">
    <path d="M3 2v12h4.513c1.368 0 2.453-.286 3.233-.89.779-.605 1.177-1.49 1.177-2.575 0-.826-.238-1.541-.716-2.106-.371-.446-.953-.67-1.549-.873.458-.15.926-.291 1.206-.634.382-.468.564-1.09.564-1.834 0-.969-.372-1.765-1.093-2.3C9.614 2.25 8.614 2 7.354 2zm2.09 1.76h2.144c.757 0 1.29.144 1.61.385h.002c.326.242.484.584.484 1.112 0 .533-.158.878-.484 1.12-.32.235-.854.376-1.612.376H5.09zm0 4.739h2.344c.835 0 1.417.169 1.768.461v.002h.002c.356.287.54.729.54 1.402 0 .668-.185 1.116-.543 1.414-.352.292-.933.461-1.767.461H5.091z" fill="#dcdcdc"/>
</svg>
