<?xml version="1.0" encoding="UTF-8" standalone="no"?>
<svg
   xmlns:dc="http://purl.org/dc/elements/1.1/"
   xmlns:cc="http://creativecommons.org/ns#"
   xmlns:rdf="http://www.w3.org/1999/02/22-rdf-syntax-ns#"
   xmlns:svg="http://www.w3.org/2000/svg"
   xmlns="http://www.w3.org/2000/svg"
   xmlns:sodipodi="http://sodipodi.sourceforge.net/DTD/sodipodi-0.dtd"
   xmlns:inkscape="http://www.inkscape.org/namespaces/inkscape"
   width="16"
   height="16"
   viewBox="0 0 16 16"
   version="1.1"
   id="svg7"
   sodipodi:docname="globe-symbolic.svg"
   inkscape:version="0.92.4 5da689c313, 2019-01-14">
  <metadata
     id="metadata11">
    <rdf:RDF>
      <cc:Work
         rdf:about="">
        <dc:format>image/svg+xml</dc:format>
        <dc:type
           rdf:resource="http://purl.org/dc/dcmitype/StillImage" />
        <dc:title></dc:title>
      </cc:Work>
    </rdf:RDF>
  </metadata>
  <sodipodi:namedview
     pagecolor="#ffffff"
     bordercolor="#666666"
     borderopacity="1"
     objecttolerance="10"
     gridtolerance="10"
     guidetolerance="10"
     inkscape:pageopacity="0"
     inkscape:pageshadow="2"
     inkscape:window-width="1366"
     inkscape:window-height="704"
     id="namedview9"
     showgrid="false"
     inkscape:zoom="15.170655"
     inkscape:cx="8.6248622"
     inkscape:cy="15.14586"
     inkscape:window-x="0"
     inkscape:window-y="27"
     inkscape:window-maximized="1"
     inkscape:current-layer="svg7" />
  <defs
     id="defs3">
    <style
       id="current-color-scheme"
       type="text/css">
   .ColorScheme-Text { color:#dcdcdc; } .ColorScheme-Highlight { color:#4285f4; }
  </style>
  </defs>
  <path
     style="color:#dcdcdc;fill:currentColor"
     class="ColorScheme-Text"
     d="m 8.115979,0.00120827 a 8,8 0 0 0 -5.7734375,2.34375003 8,8 0 0 0 0,11.3124997 8,8 0 0 0 11.3125005,0 8,8 0 0 0 0,-11.3124997 A 8,8 0 0 0 8.115979,0.00120827 Z M 7.897229,1.0012083 a 7,7 0 0 1 4.679687,1.7148438 L 11.17262,4.1203489 A 8,5 45 0 0 5.7487915,1.3781614 7,7 0 0 1 7.897229,1.0012083 Z M 4.8698852,2.3078489 A 7,4 45 0 1 10.463635,4.8293333 L 7.998792,7.2941773 3.4480102,2.7433958 a 7,4 45 0 1 1.421875,-0.4355469 z m 8.4199218,1.109375 a 7,7 0 0 1 1.335938,6.8105461 8,5 45 0 0 -2.75,-5.3964836 z M 2.7390259,3.4484739 7.29176,8.0012083 4.8249634,10.468005 A 7,4 45 0 1 2.7390259,3.4484739 Z M 11.17262,5.5344114 a 7,4 45 0 1 2.085937,7.0195306 L 8.705823,8.0012083 Z M 1.3718384,5.7746458 a 8,5 45 0 0 2.75,5.3964842 L 2.7077759,12.585192 A 7,7 0 0 1 1.3718384,5.7746458 Z M 7.998792,8.7082393 12.549573,13.25902 A 7,4 45 0 1 5.5339478,11.173083 Z M 4.8249634,11.882067 a 8,5 45 0 0 5.4238286,2.742188 7,7 0 0 1 -6.8281255,-1.337891 z"
     id="path5"
     inkscape:connector-curvature="0" />
</svg>
