<?xml version="1.0" encoding="UTF-8" standalone="no"?>
<svg
   xmlns:dc="http://purl.org/dc/elements/1.1/"
   xmlns:cc="http://creativecommons.org/ns#"
   xmlns:rdf="http://www.w3.org/1999/02/22-rdf-syntax-ns#"
   xmlns:svg="http://www.w3.org/2000/svg"
   xmlns="http://www.w3.org/2000/svg"
   xmlns:sodipodi="http://sodipodi.sourceforge.net/DTD/sodipodi-0.dtd"
   xmlns:inkscape="http://www.inkscape.org/namespaces/inkscape"
   width="16"
   height="16"
   version="1.1"
   id="svg4"
   sodipodi:docname="go-next-symbolic.svg"
   inkscape:version="0.92.4 5da689c313, 2019-01-14">
  <metadata
     id="metadata10">
    <rdf:RDF>
      <cc:Work
         rdf:about="">
        <dc:format>image/svg+xml</dc:format>
        <dc:type
           rdf:resource="http://purl.org/dc/dcmitype/StillImage" />
      </cc:Work>
    </rdf:RDF>
  </metadata>
  <defs
     id="defs8" />
  <sodipodi:namedview
     pagecolor="#ffffff"
     bordercolor="#666666"
     borderopacity="1"
     objecttolerance="10"
     gridtolerance="10"
     guidetolerance="10"
     inkscape:pageopacity="0"
     inkscape:pageshadow="2"
     inkscape:window-width="1366"
     inkscape:window-height="704"
     id="namedview6"
     showgrid="true"
     inkscape:zoom="29.5"
     inkscape:cx="5.4108188"
     inkscape:cy="8.3975481"
     inkscape:window-x="0"
     inkscape:window-y="27"
     inkscape:window-maximized="1"
     inkscape:current-layer="svg4">
    <inkscape:grid
       type="xygrid"
       id="grid824" />
  </sodipodi:namedview>
  <path
     d="M 6,2 C 6.69,2.6555 7.397,3.31775 8.008,3.992 8.687,4.742 9.295,5.471 9.833,6.176 10.33,6.827 10.703,7.5065 11,8 10.703,8.4935 10.33,9.173 9.833,9.824 A 44.816,33.612 0 0 1 8.008,12.008 C 7.398,12.683 6.691,13.3445 6,14 v -1.1175 c 0.4,-0.393 0.837,-0.7965 1.222,-1.21875 0.486,-0.5325 0.942,-1.07775 1.37,-1.635 0.433,-0.56625 0.95,-1.344 1.285,-1.875 V 8.153 L 9.973,8 9.877,7.84775 A 39.108,29.331 0 0 0 8.592,5.972 32.873,24.65475 0 0 0 7.222,4.33625 C 6.837,3.91475 6.4,3.51125 6,3.1175 Z"
     id="path2"
     inkscape:connector-curvature="0"
     style="fill:#dcdcdc;stroke-width:1" />
</svg>
