<svg xmlns="http://www.w3.org/2000/svg" height="16" width="16">
	 <g fill="#dcdcdc">
    <path d="M5.9 1.768v1.39l.03.031c.401.396.838.798 1.218 1.215a24.8 24.8 0 0 1 1.364 1.63c.424.553.932 1.314 1.265 1.843l.016.023.062.1-.062.1-.016.023c-.333.53-.84 1.29-1.265 1.844-.426.555-.88 1.1-1.364 1.63-.38.418-.817.82-1.218 1.216l-.03.029v1.39l.168-.16c.69-.655 1.4-1.319 2.014-1.998a34.008 34.008 0 0 0 1.83-2.19c.502-.658.88-1.343 1.174-1.833L11.117 8l-.031-.05c-.295-.491-.672-1.176-1.174-1.835a33.978 33.978 0 0 0-1.83-2.19c-.614-.678-1.323-1.342-2.014-1.997z"/>
</g>
</svg>
