<?xml version="1.0" encoding="UTF-8" standalone="no"?>
<svg
   xmlns:dc="http://purl.org/dc/elements/1.1/"
   xmlns:cc="http://creativecommons.org/ns#"
   xmlns:rdf="http://www.w3.org/1999/02/22-rdf-syntax-ns#"
   xmlns:svg="http://www.w3.org/2000/svg"
   xmlns="http://www.w3.org/2000/svg"
   xmlns:sodipodi="http://sodipodi.sourceforge.net/DTD/sodipodi-0.dtd"
   xmlns:inkscape="http://www.inkscape.org/namespaces/inkscape"
   width="16"
   height="16"
   version="1.1"
   id="svg6"
   sodipodi:docname="pan-down-symbolic.svg"
   inkscape:version="0.92.4 5da689c313, 2019-01-14">
  <metadata
     id="metadata12">
    <rdf:RDF>
      <cc:Work
         rdf:about="">
        <dc:format>image/svg+xml</dc:format>
        <dc:type
           rdf:resource="http://purl.org/dc/dcmitype/StillImage" />
      </cc:Work>
    </rdf:RDF>
  </metadata>
  <defs
     id="defs10" />
  <sodipodi:namedview
     pagecolor="#ffffff"
     bordercolor="#666666"
     borderopacity="1"
     objecttolerance="10"
     gridtolerance="10"
     guidetolerance="10"
     inkscape:pageopacity="0"
     inkscape:pageshadow="2"
     inkscape:window-width="810"
     inkscape:window-height="480"
     id="namedview8"
     showgrid="true"
     inkscape:zoom="14.75"
     inkscape:cx="8.1355932"
     inkscape:cy="7.8983051"
     inkscape:window-x="165"
     inkscape:window-y="110"
     inkscape:window-maximized="0"
     inkscape:current-layer="svg6" />
  <g
     id="g4"
     fill="#dcdcdc">
    <path
       d="M2 6c.655.69 1.318 1.397 1.992 2.008a34.01 34.01 0 0 0 2.184 1.825c.651.497 1.33.87 1.824 1.167.493-.297 1.173-.67 1.824-1.167a33.892 45.19 0 0 0 2.184-1.825C12.683 7.398 13.345 6.691 14 6h-1.117c-.393.4-.797.837-1.22 1.222a24.634 32.845 0 0 1-1.634 1.37 29.397 39.196 0 0 1-1.875 1.285h-.001L8 9.973l-.152-.096a27.334 27.334 0 0 1-1.876-1.285 24.885 33.18 0 0 1-1.636-1.37C3.915 6.837 3.511 6.4 3.118 6z"
       id="path2" />
  </g>
</svg>
