<svg xmlns="http://www.w3.org/2000/svg" width="16" height="16">
  <g fill="#dcdcdc">
    <path  d="M12 11v2h-2v1h2v2h1v-2h2v-1h-2v-2z" />
    <path d="M7.992 1A2.008 2.008 0 0 0 6 3H5c-.657 0-1.178.06-1.617.225-.439.164-.79.461-.998.838-.415.752-.37 1.673-.385 2.931v5.012c.015 1.258-.03 2.179.385 2.932.208.376.56.673.998.838.439.164.96.224 1.617.224h3.133c.021-.05.031-.102.059-.15l.482-.85H5c-.592 0-1.006-.063-1.265-.16-.26-.098-.372-.203-.473-.387C3.06 14.087 3.015 13.259 3 12V7c.015-1.259.06-2.087.262-2.453.101-.184.213-.29.473-.387C3.995 4.062 4.408 4 5 4v.999h6V4c.593 0 1.006.063 1.266.16.26.098.371.203.472.387.202.366.247 1.194.262 2.453v2.832c.31.115.582.323.752.62v.001l.248.438V6.994c-.015-1.258.031-2.179-.385-2.932a1.88 1.88 0 0 0-.998-.837C12.179 3.06 11.657 3 11 3H9.996a2.008 2.008 0 0 0-1.992-2zm.01 1c.559 0 1 .442 1 1a.99.99 0 0 1-1 1 .982.982 0 0 1-.922-.61A1.01 1.01 0 0 1 7.003 3c0-.558.441-1 1-1zM5 7v1h6.012V7zm0 2v1h6.012V9zm-.01 2v1h3v-1z" />
    </g>
</svg>
