<svg xmlns="http://www.w3.org/2000/svg" width="16" height="16">
    <g fill="#dcdcdc">
        <path d="M10.014 8.037a2 2 0 0 1-2 2 2 2 0 0 1-2-2 2 2 0 0 1 2-2 2 2 0 0 1 2 2z" />
        <path d="M11.351 7.526v.477a3.338 3.338 0 0 1-3.348 3.343A3.335 3.335 0 0 1 5.1 9.674l-.24-.414-.414.239-3.318 1.91-.415.239.241.414a8.15 8.15 0 0 0 7.049 4.058c4.485 0 8.13-3.64 8.13-8.117v-.477zm.86.955h2.87c-.26 3.725-3.28 6.684-7.078 6.684-2.402 0-4.596-1.227-5.926-3.198l1.188-.685c.187-.107.76-.44 1.353-.78h.002c.785 1.054 1.971 1.799 3.383 1.799 2.202 0 3.958-1.687 4.207-3.82z"/>
        <path fill-opacity="0.8" d="M8.003-.114A8.125 8.125 0 0 0 3.938.966C.054 3.204-1.29 8.183.954 12.062l.237.414.415-.239 3.318-1.91.413-.239-.237-.412a3.357 3.357 0 0 1-.443-1.673 3.338 3.338 0 0 1 3.348-3.342h.478L8.481-.114zM7.525.902l.002 2.9C5.39 4.053 3.7 5.805 3.7 8.004c0 .586.214 1.134.443 1.67l-2.516 1.449c-1.64-3.356-.5-7.435 2.789-9.33.949-.548 2.017-.818 3.109-.89z"/>
    </g>
</svg>
